<?xml version="1.0" encoding="UTF-8" standalone="no"?>
<svg
   width="600.0mm"
   height="338.0mm"
   version="1.1"
   id="svg58"
   sodipodi:docname="0.svg"
   inkscape:version="1.1.2 (0a00cf5339, 2022-02-04, custom)"
   xmlns:inkscape="http://www.inkscape.org/namespaces/inkscape"
   xmlns:sodipodi="http://sodipodi.sourceforge.net/DTD/sodipodi-0.dtd"
   xmlns="http://www.w3.org/2000/svg"
   xmlns:svg="http://www.w3.org/2000/svg">
  <sodipodi:namedview
     id="namedview60"
     pagecolor="#ffffff"
     bordercolor="#666666"
     borderopacity="1.0"
     inkscape:pageshadow="2"
     inkscape:pageopacity="0.0"
     inkscape:pagecheckerboard="0"
     inkscape:document-units="mm"
     showgrid="false"
     inkscape:zoom="0.23656341"
     inkscape:cx="-238.8366"
     inkscape:cy="1481.6324"
     inkscape:window-width="1920"
     inkscape:window-height="1043"
     inkscape:window-x="0"
     inkscape:window-y="0"
     inkscape:window-maximized="1"
     inkscape:current-layer="g8">
    <sodipodi:guide
       position="0,1277.4803"
       orientation="0,2267.7165"
       id="guide1045" />
    <sodipodi:guide
       position="2267.7165,1277.4803"
       orientation="1277.4803,0"
       id="guide1047" />
    <sodipodi:guide
       position="2267.7165,0"
       orientation="0,-2267.7165"
       id="guide1049" />
    <sodipodi:guide
       position="0,0"
       orientation="-1277.4803,0"
       id="guide1051" />
  </sodipodi:namedview>
  <defs
     id="defs2" />
  <g
     id="g8"
     style="opacity:1;fill:none;stroke:#bbbbbb;stroke-opacity:1">
    <rect
       style="fill:none;fill-opacity:0.8;stroke:#bbbbbb;stroke-width:4"
       id="rect1077"
       width="2267.7166"
       height="1277.4803"
       x="0"
       y="1.496063e-05" />
  </g>
  <g
     id="g56"
     style="stroke:none;stroke-opacity:1;fill:#bbbbbb;fill-opacity:1">
    <polygon
       points="27.212609,286.09973 25.389484,285.3446 23.433085,285.08706 21.476686,285.3446 19.653561,286.09973 18.088063,287.301 16.886794,288.86659 16.131574,290.68962 15.874037,292.64611 16.131574,294.60251 16.886794,296.42563 18.088063,297.99113 19.653561,299.1924 21.476686,299.94762 23.433085,300.20516 25.389484,299.94762 27.212609,299.1924 28.778106,297.99113 29.979375,296.42563 30.734595,294.60251 30.992132,292.64611 30.734595,290.68962 29.979375,288.86659 28.778106,287.301 "
       style="mix-blend-mode:normal;fill:#bbbbbb;fill-opacity:1;stroke:none;stroke-width:0;stroke-opacity:1"
       id="polygon10" />
    <polygon
       points="1141.8892,1243.5181 1140.0661,1242.763 1138.1097,1242.5054 1136.1532,1242.763 1134.3302,1243.5181 1132.7646,1244.7193 1131.5633,1246.2849 1130.8082,1248.108 1130.5507,1250.0644 1130.8082,1252.0209 1131.5633,1253.8439 1132.7646,1255.4095 1134.3302,1256.6108 1136.1532,1257.3659 1138.1097,1257.6235 1140.0661,1257.3659 1141.8892,1256.6108 1143.4547,1255.4095 1144.656,1253.8439 1145.4111,1252.0209 1145.6688,1250.0644 1145.4111,1248.108 1144.656,1246.2849 1143.4547,1244.7193 "
       style="mix-blend-mode:normal;fill:#bbbbbb;fill-opacity:1;stroke:none;stroke-width:0;stroke-opacity:1"
       id="polygon12" />
    <polygon
       points="1128.0521,461.71337 1126.2289,460.95824 1124.2725,460.70062 1122.316,460.95824 1120.493,461.71337 1118.9274,462.91464 1117.7262,464.48014 1116.971,466.30326 1116.7134,468.25975 1116.971,470.21615 1117.7262,472.03919 1118.9274,473.60477 1120.493,474.80604 1122.316,475.56117 1124.2725,475.8188 1126.2289,475.56117 1128.0521,474.80604 1129.6176,473.60477 1130.8188,472.03919 1131.574,470.21615 1131.8316,468.25975 1131.574,466.30326 1130.8188,464.48014 1129.6176,462.91464 "
       style="mix-blend-mode:normal;fill:#bbbbbb;fill-opacity:1;stroke:none;stroke-width:0;stroke-opacity:1"
       id="polygon14" />
    <polygon
       points="307.19772,314.82188 305.3746,314.06675 303.4182,313.80921 301.4618,314.06675 299.63867,314.82188 298.07318,316.02324 296.87191,317.58873 296.11669,319.41186 295.85915,321.36826 296.11669,323.32466 296.87191,325.14778 298.07318,326.71328 299.63867,327.91464 301.4618,328.66977 303.4182,328.9273 305.3746,328.66977 307.19772,327.91464 308.76322,326.71328 309.96449,325.14778 310.71971,323.32466 310.97725,321.36826 310.71971,319.41186 309.96449,317.58873 308.76322,316.02324 "
       style="mix-blend-mode:normal;fill:#bbbbbb;fill-opacity:1;stroke:none;stroke-width:0;stroke-opacity:1"
       id="polygon16" />
    <polygon
       points="325.97955,634.09825 324.15642,633.34308 322.20002,633.08554 320.24363,633.34308 318.4205,634.09825 316.855,635.29952 315.65373,636.86506 314.89851,638.68814 314.64098,640.64459 314.89851,642.60099 315.65373,644.42411 316.855,645.98965 318.4205,647.19092 320.24363,647.94605 322.20002,648.20363 324.15642,647.94605 325.97955,647.19092 327.54505,645.98965 328.74632,644.42411 329.50154,642.60099 329.75907,640.64459 329.50154,638.68814 328.74632,636.86506 327.54505,635.29952 "
       style="mix-blend-mode:normal;fill:#bbbbbb;fill-opacity:1;stroke:none;stroke-width:0;stroke-opacity:1"
       id="polygon18" />
    <polygon
       points="499.35542,983.2406 497.53234,982.48544 495.5759,982.22788 493.61945,982.48544 491.79637,983.2406 490.23083,984.44186 489.02956,986.00741 488.27443,987.83051 488.01685,989.78693 488.27443,991.74335 489.02956,993.56646 490.23083,995.132 491.79637,996.33327 493.61945,997.08842 495.5759,997.34598 497.53234,997.08842 499.35542,996.33327 500.92096,995.132 502.12223,993.56646 502.87736,991.74335 503.13495,989.78693 502.87736,987.83051 502.12223,986.00741 500.92096,984.44186 "
       style="mix-blend-mode:normal;fill:#bbbbbb;fill-opacity:1;stroke:none;stroke-width:0;stroke-opacity:1"
       id="polygon20" />
    <polygon
       points="952.82202,1017.342 950.99898,1016.5868 949.04249,1016.3292 947.08609,1016.5868 945.26297,1017.342 943.69747,1018.5432 942.4962,1020.1088 941.74098,1021.9319 941.48345,1023.8883 941.74098,1025.8447 942.4962,1027.6678 943.69747,1029.2334 945.26297,1030.4346 947.08609,1031.1898 949.04249,1031.4473 950.99898,1031.1898 952.82202,1030.4346 954.3876,1029.2334 955.58887,1027.6678 956.344,1025.8447 956.60154,1023.8883 956.344,1021.9319 955.58887,1020.1088 954.3876,1018.5432 "
       style="mix-blend-mode:normal;fill:#bbbbbb;fill-opacity:1;stroke:none;stroke-width:0;stroke-opacity:1"
       id="polygon22" />
    <polygon
       points="566.35504,299.86328 564.53196,299.10815 562.57551,298.85061 560.61907,299.10815 558.79599,299.86328 557.23045,301.06455 556.02918,302.63004 555.27405,304.45317 555.01647,306.40966 555.27405,308.36606 556.02918,310.18909 557.23045,311.75468 558.79599,312.95595 560.61907,313.71108 562.57551,313.96871 564.53196,313.71108 566.35504,312.95595 567.92058,311.75468 569.12185,310.18909 569.87698,308.36606 570.13456,306.40966 569.87698,304.45317 569.12185,302.63004 567.92058,301.06455 "
       style="mix-blend-mode:normal;fill:#bbbbbb;fill-opacity:1;stroke:none;stroke-width:0;stroke-opacity:1"
       id="polygon24" />
    <polygon
       points="194.32437,1054.2729 192.50125,1053.5178 190.54485,1053.2602 188.58845,1053.5178 186.76533,1054.2729 185.19983,1055.4742 183.99856,1057.0397 183.24334,1058.8628 182.9858,1060.8192 183.24334,1062.7757 183.99856,1064.5988 185.19983,1066.1643 186.76533,1067.3656 188.58845,1068.1207 190.54485,1068.3783 192.50125,1068.1207 194.32437,1067.3656 195.88987,1066.1643 197.09114,1064.5988 197.84636,1062.7757 198.1039,1060.8192 197.84636,1058.8628 197.09114,1057.0397 195.88987,1055.4742 "
       style="mix-blend-mode:normal;fill:#bbbbbb;fill-opacity:1;stroke:none;stroke-width:0;stroke-opacity:1"
       id="polygon26" />
    <polygon
       points="787.24331,1157.3037 785.42019,1156.5485 783.46379,1156.2909 781.5073,1156.5485 779.68426,1157.3037 778.11867,1158.5049 776.91741,1160.0705 776.16228,1161.8935 775.90474,1163.85 776.16228,1165.8064 776.91741,1167.6295 778.11867,1169.1951 779.68426,1170.3963 781.5073,1171.1515 783.46379,1171.409 785.42019,1171.1515 787.24331,1170.3963 788.80881,1169.1951 790.01008,1167.6295 790.7653,1165.8064 791.02283,1163.85 790.7653,1161.8935 790.01008,1160.0705 788.80881,1158.5049 "
       style="mix-blend-mode:normal;fill:#bbbbbb;fill-opacity:1;stroke:none;stroke-width:0;stroke-opacity:1"
       id="polygon28" />
    <polygon
       points="381.918,395.75053 380.09492,394.9954 378.13847,394.73786 376.18208,394.9954 374.35895,395.75053 372.79345,396.95189 371.59218,398.51739 370.83696,400.34051 370.57943,402.29691 370.83696,404.25331 371.59218,406.07643 372.79345,407.64193 374.35895,408.84329 376.18208,409.59842 378.13847,409.85596 380.09492,409.59842 381.918,408.84329 383.48354,407.64193 384.68481,406.07643 385.43994,404.25331 385.69752,402.29691 385.43994,400.34051 384.68481,398.51739 383.48354,396.95189 "
       style="mix-blend-mode:normal;fill:#bbbbbb;fill-opacity:1;stroke:none;stroke-width:0;stroke-opacity:1"
       id="polygon30" />
    <polygon
       points="1996.174,53.849545 1994.3509,53.094415 1992.3946,52.836878 1990.4383,53.094415 1988.6151,53.849545 1987.0496,55.050814 1985.8484,56.616312 1985.0931,58.439437 1984.8355,60.395926 1985.0931,62.352325 1985.8484,64.17536 1987.0496,65.740948 1988.6151,66.942217 1990.4383,67.697347 1992.3946,67.954974 1994.3509,67.697347 1996.174,66.942217 1997.7396,65.740948 1998.9408,64.17536 1999.6961,62.352325 1999.9536,60.395926 1999.6961,58.439437 1998.9408,56.616312 1997.7396,55.050814 "
       style="mix-blend-mode:normal;fill:#bbbbbb;fill-opacity:1;stroke:none;stroke-width:0;stroke-opacity:1"
       id="polygon32" />
    <polygon
       points="2160.3818,1264.9527 2158.5586,1264.1976 2156.6022,1263.94 2154.6457,1264.1976 2152.8225,1264.9527 2151.2571,1266.154 2150.0558,1267.7195 2149.3006,1269.5426 2149.0431,1271.499 2149.3006,1273.4555 2150.0558,1275.2785 2151.2571,1276.8441 2152.8225,1278.0454 2154.6457,1278.8005 2156.6022,1279.0581 2158.5586,1278.8005 2160.3818,1278.0454 2161.9472,1276.8441 2163.1485,1275.2785 2163.9037,1273.4555 2164.1612,1271.499 2163.9037,1269.5426 2163.1485,1267.7195 2161.9472,1266.154 "
       style="mix-blend-mode:normal;fill:#bbbbbb;fill-opacity:1;stroke:none;stroke-width:0;stroke-opacity:1"
       id="polygon34" />
    <polygon
       points="91.562647,616.64146 89.739522,615.88633 87.783123,615.62875 85.826724,615.88633 84.003599,616.64146 82.438101,617.84273 81.236832,619.40827 80.481612,621.23135 80.224075,623.1878 80.481612,625.14424 81.236832,626.96732 82.438101,628.53286 84.003599,629.73413 85.826724,630.48931 87.783123,630.74684 89.739522,630.48931 91.562647,629.73413 93.128144,628.53286 94.329413,626.96732 95.084633,625.14424 95.342171,623.1878 95.084633,621.23135 94.329413,619.40827 93.128144,617.84273 "
       style="mix-blend-mode:normal;fill:#bbbbbb;fill-opacity:1;stroke:none;stroke-width:0;stroke-opacity:1"
       id="polygon36" />
    <polygon
       points="1589.1945,233.41744 1587.3716,232.66231 1585.4151,232.40477 1583.4586,232.66231 1581.6355,233.41744 1580.0701,234.61871 1578.8687,236.1842 1578.1136,238.00733 1577.856,239.96382 1578.1136,241.92022 1578.8687,243.74325 1580.0701,245.30884 1581.6355,246.51011 1583.4586,247.26524 1585.4151,247.52287 1587.3716,247.26524 1589.1945,246.51011 1590.7601,245.30884 1591.9615,243.74325 1592.7166,241.92022 1592.9741,239.96382 1592.7166,238.00733 1591.9615,236.1842 1590.7601,234.61871 "
       style="mix-blend-mode:normal;fill:#bbbbbb;fill-opacity:1;stroke:none;stroke-width:0;stroke-opacity:1"
       id="polygon38" />
    <polygon
       points="1302.6502,488.65664 1300.8271,487.90142 1298.8706,487.64388 1296.9142,487.90142 1295.0911,488.65664 1293.5256,489.85791 1292.3243,491.42341 1291.5692,493.24653 1291.3116,495.20293 1291.5692,497.15942 1292.3243,498.98245 1293.5256,500.54804 1295.0911,501.74931 1296.9142,502.50444 1298.8706,502.76198 1300.8271,502.50444 1302.6502,501.74931 1304.2157,500.54804 1305.417,498.98245 1306.1721,497.15942 1306.4298,495.20293 1306.1721,493.24653 1305.417,491.42341 1304.2157,489.85791 "
       style="mix-blend-mode:normal;fill:#bbbbbb;fill-opacity:1;stroke:none;stroke-width:0;stroke-opacity:1"
       id="polygon40" />
    <polygon
       points="2040.2804,349.32482 2038.4573,348.56969 2036.5008,348.31215 2034.5443,348.56969 2032.7212,349.32482 2031.1558,350.52609 2029.9544,352.09159 2029.1993,353.91471 2028.9418,355.8712 2029.1993,357.8276 2029.9544,359.65064 2031.1558,361.21622 2032.7212,362.41749 2034.5443,363.17262 2036.5008,363.43025 2038.4573,363.17262 2040.2804,362.41749 2041.8458,361.21622 2043.0472,359.65064 2043.8023,357.8276 2044.0599,355.8712 2043.8023,353.91471 2043.0472,352.09159 2041.8458,350.52609 "
       style="mix-blend-mode:normal;fill:#bbbbbb;fill-opacity:1;stroke:none;stroke-width:0;stroke-opacity:1"
       id="polygon42" />
    <polygon
       points="1516.149,897.6747 1514.3258,896.91957 1512.3694,896.66203 1510.413,896.91957 1508.5899,897.6747 1507.0243,898.87597 1505.8231,900.44153 1505.0679,902.26463 1504.8103,904.22106 1505.0679,906.17748 1505.8231,908.00058 1507.0243,909.56612 1508.5899,910.76739 1510.413,911.52254 1512.3694,911.7801 1514.3258,911.52254 1516.149,910.76739 1517.7144,909.56612 1518.9157,908.00058 1519.6709,906.17748 1519.9284,904.22106 1519.6709,902.26463 1518.9157,900.44153 1517.7144,898.87597 "
       style="mix-blend-mode:normal;fill:#bbbbbb;fill-opacity:1;stroke:none;stroke-width:0;stroke-opacity:1"
       id="polygon44" />
    <polygon
       points="1246.1294,99.285113 1244.3063,98.529983 1242.3499,98.272355 1240.3934,98.529983 1238.5704,99.285113 1237.0048,100.48629 1235.8035,102.05188 1235.0484,103.875 1234.7908,105.8314 1235.0484,107.7878 1235.8035,109.61093 1237.0048,111.17652 1238.5704,112.37769 1240.3934,113.13282 1242.3499,113.39045 1244.3063,113.13282 1246.1294,112.37769 1247.6949,111.17652 1248.8962,109.61093 1249.6513,107.7878 1249.9089,105.8314 1249.6513,103.875 1248.8962,102.05188 1247.6949,100.48629 "
       style="mix-blend-mode:normal;fill:#bbbbbb;fill-opacity:1;stroke:none;stroke-width:0;stroke-opacity:1"
       id="polygon46" />
    <polygon
       points="1596.724,358.48298 1594.9009,357.72785 1592.9446,357.47022 1590.9881,357.72785 1589.165,358.48298 1587.5994,359.68425 1586.3982,361.24975 1585.6431,363.07287 1585.3855,365.02927 1585.6431,366.98567 1586.3982,368.80879 1587.5994,370.37438 1589.165,371.57565 1590.9881,372.33078 1592.9446,372.58832 1594.9009,372.33078 1596.724,371.57565 1598.2896,370.37438 1599.4908,368.80879 1600.2459,366.98567 1600.5036,365.02927 1600.2459,363.07287 1599.4908,361.24975 1598.2896,359.68425 "
       style="mix-blend-mode:normal;fill:#bbbbbb;fill-opacity:1;stroke:none;stroke-width:0;stroke-opacity:1"
       id="polygon48" />
    <polygon
       points="880.17871,577.92461 878.35567,577.16944 876.39918,576.9119 874.44278,577.16944 872.61966,577.92461 871.05416,579.12588 869.85289,580.69142 869.09767,582.5145 868.84014,584.47095 869.09767,586.42739 869.85289,588.25047 871.05416,589.81601 872.61966,591.01728 874.44278,591.77241 876.39918,592.02999 878.35567,591.77241 880.17871,591.01728 881.74429,589.81601 882.94556,588.25047 883.70069,586.42739 883.95823,584.47095 883.70069,582.5145 882.94556,580.69142 881.74429,579.12588 "
       style="mix-blend-mode:normal;fill:#bbbbbb;fill-opacity:1;stroke:none;stroke-width:0;stroke-opacity:1"
       id="polygon50" />
    <polygon
       points="1578.6063,1088.6383 1576.7832,1087.8832 1574.8269,1087.6256 1572.8704,1087.8832 1571.0473,1088.6383 1569.4817,1089.8396 1568.2805,1091.4051 1567.5254,1093.2282 1567.2678,1095.1846 1567.5254,1097.1411 1568.2805,1098.9642 1569.4817,1100.5297 1571.0473,1101.731 1572.8704,1102.4861 1574.8269,1102.7437 1576.7832,1102.4861 1578.6063,1101.731 1580.1719,1100.5297 1581.3731,1098.9642 1582.1282,1097.1411 1582.3859,1095.1846 1582.1282,1093.2282 1581.3731,1091.4051 1580.1719,1089.8396 "
       style="mix-blend-mode:normal;fill:#bbbbbb;fill-opacity:1;stroke:none;stroke-width:0;stroke-opacity:1"
       id="polygon52" />
    <polygon
       points="1874.4134,793.75915 1872.5903,793.00397 1870.6338,792.74643 1868.6775,793.00397 1866.8543,793.75915 1865.2887,794.96041 1864.0876,796.52596 1863.3324,798.34904 1863.0747,800.30548 1863.3324,802.26188 1864.0876,804.08501 1865.2887,805.6505 1866.8543,806.85182 1868.6775,807.60695 1870.6338,807.86453 1872.5903,807.60695 1874.4134,806.85182 1875.979,805.6505 1877.1801,804.08501 1877.9353,802.26188 1878.1928,800.30548 1877.9353,798.34904 1877.1801,796.52596 1875.979,794.96041 "
       style="mix-blend-mode:normal;fill:#bbbbbb;fill-opacity:1;stroke:none;stroke-width:0;stroke-opacity:1"
       id="polygon54" />
  </g>
</svg>
