<svg xmlns="http://www.w3.org/2000/svg" width="1280" height="720" viewBox="0 0 752.941 423.529"><path d="M450.728-274.358v-98.003M535.94-421.95l-84.873 49.002M365.516-421.95l84.873 49.002M254.628-274.358v-98.003M339.84-421.95l-84.873 49.002M169.416-421.95l84.873 49.002M254.628-584.365v98.003M339.84-436.774l-84.873-49M169.416-436.774l84.873-49M450.728-584.365v98.003M535.94-436.774l-84.873-49M365.516-436.774l84.873-49M352.678-414.538v98.003M437.89-266.946l-84.873-49.001M267.466-266.946l84.873-49.001M452.022-274.713v-97.292M449.434-274.713v-97.292M534.986-422.892l-84.258 48.646M536.28-420.651l-84.258 48.646M366.47-422.892l84.258 48.646M365.177-420.651l84.257 48.646M255.922-274.713v-97.292M253.334-274.713v-97.292M338.885-422.892l-84.257 48.646M340.18-420.651l-84.258 48.646M170.37-422.892l84.258 48.646M169.077-420.651l84.257 48.646M255.922-584.01v97.292M253.334-584.01v97.292M338.885-435.83l-84.257-48.647M340.18-438.072l-84.258-48.646M170.37-435.83l84.258-48.647M169.077-438.072l84.257-48.646M452.022-584.01v97.292M449.434-584.01v97.292M534.986-435.83l-84.258-48.647M536.28-438.072l-84.258-48.646M366.47-435.83l84.258-48.647M365.177-438.072l84.257-48.646M353.972-414.182v97.292M351.384-414.182v97.292M436.936-266.003l-84.258-48.646M438.23-268.244l-84.258-48.646M268.42-266.003l84.258-48.646M267.127-268.244l84.257-48.646M462.377-365.653l-10.355 90.94M439.079-365.653l10.355 90.94M462.7-366.213l73.58-54.438M438.755-366.213l-73.578-54.438M450.405-386.39l-83.934-36.502M451.052-386.39l83.934-36.502M266.277-365.653l-10.355 90.94M242.979-365.653l10.355 90.94M266.6-366.213l73.58-54.438M242.655-366.213l-73.578-54.438M254.305-386.39l-83.934-36.502M254.952-386.39l83.933-36.502M266.277-493.07l-10.355-90.94M242.979-493.07l10.355-90.94M266.6-492.51l73.58 54.438M242.655-492.51l-73.578 54.438M254.305-472.333 170.37-435.83M254.952-472.333l83.933 36.502M462.377-493.07l-10.355-90.94M439.079-493.07l10.355-90.94M462.7-492.51l73.58 54.438M438.755-492.51l-73.578 54.438M450.405-472.333 366.47-435.83M451.052-472.333l83.934 36.502M364.327-323.242l-10.355-90.94M341.029-323.242l10.355-90.94M364.65-322.682l73.58 54.438M340.705-322.682l-73.578 54.438M352.355-302.505l-83.934 36.502M353.002-302.505l83.934 36.502M452.669-286.112v-84.4M526.731-414.392l-73.092 42.2M448.787-286.112v-84.4M374.725-414.392l73.092 42.2M524.79-417.753l-73.091 42.2M376.666-417.753l73.092 42.2M256.569-286.112v-84.4M330.63-414.392l-73.09 42.2M252.687-286.112v-84.4M178.625-414.392l73.092 42.2M328.69-417.753l-73.092 42.2M180.566-417.753l73.092 42.2M256.569-572.61v84.398M330.63-444.331l-73.09-42.2M252.687-572.61v84.398M178.625-444.331l73.092-42.2M328.69-440.97l-73.092-42.2M180.566-440.97l73.092-42.2M452.669-572.61v84.398M526.731-444.331l-73.092-42.2M448.787-572.61v84.398M374.725-444.331l73.092-42.2M524.79-440.97l-73.091-42.2M376.666-440.97l73.092-42.2M354.619-402.783v84.399M428.681-274.504l-73.092-42.2M350.737-402.783v84.399M276.675-274.504l73.092-42.2M426.74-271.142l-73.092-42.2M278.616-271.142l73.092-42.2M461.687-365.305l-9.018 79.193M462.657-366.986l64.074-47.406M438.8-366.986l-64.075-47.406M449.758-385.966l-73.092-31.787M265.587-365.305l-9.018 79.193M266.557-366.986l64.074-47.406M242.7-366.986l-64.075-47.406M253.658-385.966l-73.092-31.787M265.587-493.418l-9.018-79.193M266.557-491.737l64.074 47.406M242.7-491.737l-64.075 47.406M253.658-472.757l-73.092 31.787M461.687-493.418l-9.018-79.193M462.657-491.737l64.074 47.406M438.8-491.737l-64.075 47.406M449.758-472.757l-73.092 31.787" style="fill:none;stroke:#fff;stroke-width:.5;stroke-linecap:round;stroke-miterlimit:4;stroke-dasharray:none;stroke-opacity:1" transform="translate(-41.49 641.105)"/><path d="m363.637-323.59-9.018-79.193" style="fill:none;fill-opacity:1;stroke:#fff;stroke-width:.5;stroke-linecap:round;stroke-miterlimit:4;stroke-dasharray:none;stroke-opacity:1" transform="translate(-41.49 641.105)"/><path d="m364.607-321.91 64.074 47.406M340.75-321.91l-64.075 47.406M351.708-302.93l-73.092 31.788M450.728-374.246l-.34 1.298M254.628-374.246l-.34 1.298M254.628-484.477l-.34-1.298M450.728-484.477l-.34-1.298M352.678-314.65l-.34-1.297M450.389-372.948l-.955.943M254.289-372.948l-.955.943M254.289-485.775l-.955-.943M450.389-485.775l-.955-.943M352.339-315.947l-.955-.943M449.434-372.005l1.294-.356M253.334-372.005l1.294-.356M253.334-486.718l1.294.356M449.434-486.718l1.294.356M351.384-316.89l1.294.355M450.728-372.36l1.294.355M254.628-372.36l1.294.355M254.628-486.362l1.294-.356M450.728-486.362l1.294-.356M352.678-316.535l1.294-.355M452.022-372.005l-.955-.943M536.28-420.651l-.34-1.299M452.022-274.713l-1.294.355M366.47-422.892l-.954.942M255.922-372.005l-.955-.943M340.18-420.651l-.34-1.299M255.922-274.713l-1.294.355M170.37-422.892l-.954.942M255.922-486.718l-.955.943M340.18-438.072l-.34 1.298M255.922-584.01l-1.294-.355M170.37-435.83l-.954-.944M452.022-486.718l-.955.943M536.28-438.072l-.34 1.298M452.022-584.01l-1.294-.355M366.47-435.83l-.954-.944M353.972-316.89l-.955.943M438.23-268.244l-.34 1.298M353.972-414.182l-1.294-.356M268.42-266.003l-.954-.943M451.067-372.948l-.339-1.298M535.94-421.95l-.954-.942M450.728-274.358l-1.294-.355M365.516-421.95l-.34 1.299M254.967-372.948l-.339-1.298M339.84-421.95l-.955-.942M254.628-274.358l-1.294-.355M169.416-421.95l-.34 1.299M254.967-485.775l-.339 1.298M339.84-436.774l-.955.943M254.628-584.365l-1.294.355M169.416-436.774l-.34-1.298M451.067-485.775l-.339 1.298M535.94-436.774l-.954.943M450.728-584.365l-1.294.355M365.516-436.774l-.34-1.298M353.017-315.947l-.339 1.298M437.89-266.946l-.954.943M352.678-414.538l-1.294.356M267.466-266.946l-.34-1.298M450.21-263.473a3.973 3.973 0 0 0-2.634 1.521M447.058-261.055a3.973 3.973 0 1 0 4.188-2.418M545.626-426.944a3.973 3.973 0 1 0 0-4.835M545.108-430.883a3.973 3.973 0 0 0 0 3.043M159.73-431.78a3.973 3.973 0 1 0 0 4.836M160.248-427.84a3.973 3.973 0 0 0 0-3.043M254.11-263.473a3.973 3.973 0 1 0 4.188 2.418M257.78-261.952a3.973 3.973 0 0 0-2.634-1.52M349.526-426.944a3.973 3.973 0 0 0 2.635 1.521M352.16-433.3a3.973 3.973 0 0 0-2.634 1.52M349.008-430.883a3.973 3.973 0 0 0 0 3.043M355.83-431.78a3.973 3.973 0 0 0-2.634-1.52M353.196-425.423a3.973 3.973 0 0 0 2.635-1.52M356.348-427.84a3.973 3.973 0 0 0 0-3.043M447.576-596.772a3.973 3.973 0 0 0 2.635 1.522M451.246-595.25a3.973 3.973 0 1 0-4.188-2.418M255.146-595.25a3.973 3.973 0 0 0 2.634-1.522M258.298-597.668a3.973 3.973 0 1 0-4.187 2.418M452.022-371.632l10.355 5.979M449.434-371.632l-10.355 5.979M451.052-374.433v-11.958M255.922-371.632l10.355 5.979M253.334-371.632l-10.355 5.979M254.952-374.433v-11.958M255.922-487.091l10.355-5.979M253.334-487.091l-10.355-5.979M254.952-484.29v11.957M452.022-487.091l10.355-5.979M449.434-487.091l-10.355-5.979M451.052-484.29v11.957M353.972-317.264l10.355-5.978M351.384-317.264l-10.355-5.978M353.002-314.462v11.957M452.345-372.192l10.356 5.979M449.11-372.192l-10.355 5.979M450.405-374.433v-11.958M256.245-372.192l10.356 5.979M253.01-372.192l-10.355 5.979M254.305-374.433v-11.958M256.245-486.531l10.356-5.979M253.01-486.531l-10.355-5.979M254.305-484.29v11.957M452.345-486.531l10.356-5.979M449.11-486.531l-10.355-5.979M450.405-484.29v11.957M354.295-316.703l10.356-5.98M351.06-316.703l-10.355-5.98M352.355-314.462v11.957M452.669-370.511l9.018 5.206M448.787-370.511l-9.017 5.206M451.699-375.554v-10.412M256.569-370.511l9.018 5.206M252.687-370.511l-9.017 5.206M255.598-375.554v-10.412M256.569-488.212l9.018-5.206M252.687-488.212l-9.017-5.206M255.598-483.17v10.413M452.669-488.212l9.018-5.206M448.787-488.212l-9.017-5.206M451.699-483.17v10.413M354.619-318.384l9.018-5.207M350.737-318.384l-9.017-5.207M353.648-313.342v10.413M453.64-372.192l9.017 5.206M447.817-372.192l-9.018 5.206M449.758-375.554v-10.412M257.54-372.192l9.017 5.206M251.717-372.192l-9.018 5.206M253.658-375.554v-10.412M257.54-486.531l9.017-5.206M251.717-486.531l-9.018-5.206M253.658-483.17v10.413M453.64-486.531l9.017-5.206M447.817-486.531l-9.018-5.206M449.758-483.17v10.413M355.59-316.703l9.017-5.207M349.767-316.703l-9.018-5.207M351.708-313.342v10.413M439.77-365.305l9.017 79.193M451.699-385.966l73.091-31.787M243.67-365.305l9.017 79.193M255.598-385.966l73.092-31.787M243.67-493.418l9.017-79.193M255.598-472.757l73.092 31.787M439.77-493.418l9.017-79.193M451.699-472.757l73.091 31.787M341.72-323.59l9.017-79.193M353.648-302.93l73.092 31.788M461.73-366.774l-.323.56M439.726-366.774l.324.56M450.405-385.27h.647M265.63-366.774l-.323.56M243.626-366.774l.323.56M254.305-385.27h.647M265.63-491.95l-.323-.56M243.626-491.95l.323-.56M254.305-473.453h.647M461.73-491.95l-.323-.56M439.726-491.95l.324-.56M450.405-473.453h.647M363.68-322.122l-.323-.56M341.676-322.122l.324-.56M352.355-303.626h.647M461.17-367.097l-.324.56M440.286-367.097l.324.56M450.405-384.623h.647M265.07-367.097l-.324.56M244.186-367.097l.324.56M254.305-384.623h.647M265.07-491.626l-.324-.56M244.186-491.626l.324-.56M254.305-474.1h.647M461.17-491.626l-.324-.56M440.286-491.626l.324-.56M450.405-474.1h.647M363.12-321.798l-.324-.56M342.236-321.798l.324-.56M352.355-304.273h.647M346.209-558.89v-61.127M346.209-431.095v-1.404M346.209-433.694v-56.296M359.147-558.89v-61.127M359.147-431.095v-1.404M359.147-433.694v-56.296M471.374-236.713l-20.128-34.863M450.21-273.369 364.4-421.996M363.366-423.789l-4.219-7.306M460.169-230.244l-20.128-34.863M439.006-266.9l-85.81-148.627M245.188-230.244l20.128-34.863M266.35-266.9l85.81-148.627M341.99-423.789l4.219-7.306M233.983-236.713l20.128-34.863M255.146-273.369l85.81-148.627" style="fill:none;stroke:#fff;stroke-width:.5;stroke-linecap:round;stroke-miterlimit:4;stroke-dasharray:none;stroke-opacity:1" transform="translate(-41.49 641.105)"/><path d="M158.483-429.362a1.905 1.905 0 1 0-3.81 0 1.905 1.905 0 1 0 3.81 0zM550.683-429.362a1.905 1.905 0 1 0-3.81 0 1.905 1.905 0 1 0 3.81 0zM452.633-259.534a1.905 1.905 0 1 0-3.81 0 1.905 1.905 0 1 0 3.81 0zM256.533-259.534a1.905 1.905 0 1 0-3.81 0 1.905 1.905 0 1 0 3.81 0zM352.16-427.528v1.128M450.21-597.356v1.129M254.11-597.356v1.129M156.06-427.528v1.128M548.26-427.528v1.128M450.21-257.7v1.128M254.11-257.7v1.128M353.196-427.528v1.128M451.246-597.356v1.129M255.146-597.356v1.129M157.096-427.528v1.128M549.296-427.528v1.128M451.246-257.7v1.128M255.146-257.7v1.128M351.35-427.997l-.978.565M253.3-597.824l-.978.564M155.25-427.997l-.978.565M547.45-427.997l-.978.565M449.4-258.17l-.978.565M546.472-427.433l-10.396 6.003M253.3-258.17l-.978.565M350.372-427.433l-10.396 6.003M350.372-431.29l-10.396-6.003M546.472-431.29l-10.396-6.003M448.422-261.463l-10.396-6.002M350.832-428.893l-.978.564M252.782-598.72l-.978.563M154.732-428.893l-.978.564M546.932-428.893l-.978.564M448.882-259.066l-.978.565M545.954-428.329l-10.396 6.002M252.782-259.066l-.978.565M349.854-428.329l-10.396 6.002M349.854-430.394l-10.396-6.002M545.954-430.394l-10.396-6.002M447.904-260.567l-10.396-6.002M350.832-429.83l-.978-.564M448.882-599.658l-.978-.564M252.782-599.658l-.978-.564M154.732-429.83l-.978-.564M546.932-429.83l-.978-.564M448.882-260.002l-.978-.565M252.782-260.002l-.978-.565M351.35-430.726l-.978-.565M449.4-600.554l-.978-.564M253.3-600.554l-.978-.564M155.25-430.726l-.978-.565M547.45-430.726l-.978-.565M449.4-260.899l-.978-.564M253.3-260.899l-.978-.564M450.21-601.022v-1.129M254.11-601.022v-1.129M156.06-431.195v-1.128M254.11-601.022v-1.129M548.26-431.195v-1.128M450.21-261.367v-1.129M254.11-261.367v-1.129M451.246-601.022v-1.129M255.146-601.022v-1.129M157.096-431.195v-1.128M549.296-431.195v-1.128M451.246-261.367v-1.129M255.146-261.367v-1.129M354.984-431.29l-.977.564M453.034-601.118l-.977.564M256.934-601.118l-.977.564M158.884-431.29l-.977.564M551.084-431.29l-.977.564M453.034-261.463l-.977.564M256.934-261.463l-.977.564M355.502-430.394l-.978.564M453.552-600.222l-.977.564M257.452-600.222l-.978.564M159.402-430.394l-.978.564M551.602-430.394l-.977.564M453.552-260.567l-.977.565M257.452-260.567l-.978.565M355.502-428.329l-.978-.564M453.552-598.157l-.977-.564M159.402-428.329l-.978-.564M551.602-428.329l-.977-.564M453.552-258.501l-.977-.565M365.898-422.327l-10.396-6.002M257.452-258.501l-.978-.565M169.798-422.327l-10.396-6.002M169.798-436.396l-10.396 6.002M365.898-436.396l-10.396 6.002M267.848-266.569l-10.396 6.002M354.984-427.433l-.977-.564M453.034-597.26l-.977-.564M158.884-427.433l-.977-.564M551.084-427.433l-.977-.564M453.034-257.605l-.977-.564M365.38-421.43l-10.396-6.002M256.934-257.605l-.977-.564M169.28-421.43l-10.396-6.002M169.28-437.293l-10.396 6.002M365.38-437.293l-10.396 6.002M267.33-267.465l-10.396 6.002M353.196-426.4h-1.035M451.246-596.227h-1.035M255.146-596.227h-1.035M157.096-426.4h-1.036M549.296-426.4h-1.035M451.246-256.572h-1.035M255.146-256.572h-1.035M350.372-427.433l-.518-.896M252.322-597.26l-.518-.897M154.272-427.433l-.518-.896M546.472-427.433l-.518-.896M448.422-257.605l-.518-.896M252.322-257.605l-.518-.896M349.854-430.394l.518-.897M447.904-600.222l.518-.896M251.804-600.222l.518-.896M153.754-430.394l.518-.897M545.954-430.394l.518-.897M447.904-260.567l.518-.896M251.804-260.567l.518-.896M450.21-602.151h1.036M254.11-602.151h1.036M156.06-432.323h1.036M548.26-432.323h1.036M450.21-262.496h1.036M254.11-262.496h1.036M354.984-431.29l.518.896M453.034-601.118l.518.896M256.934-601.118l.518.896M158.884-431.29l.518.896M551.084-431.29l.518.896M453.034-261.463l.518.896M256.934-261.463l.518.896M355.502-428.329l-.518.897M453.552-598.157l-.518.897M159.402-428.329l-.518.897M551.602-428.329l-.518.897M453.552-258.501l-.518.896M257.452-258.501l-.518.896M451.246-262.496V-274.5M255.146-262.496V-274.5M255.146-596.227v12.004M451.246-596.227v12.004M353.196-426.4v12.005M450.21-262.496V-274.5M254.11-262.496V-274.5M254.11-596.227v12.004M450.21-596.227v12.004M352.16-426.4v12.005M471.374-236.713l-11.205 6.469M245.188-230.244l-11.205-6.47M359.147-620.017H346.21M352.678-444.186v-98.002M437.89-591.777l-84.873 49.001M267.466-591.777l84.873 49.001M353.972-444.54v-97.293M351.384-444.54v-97.293M436.936-592.72l-84.258 48.646M438.23-590.479l-84.258 48.646M268.42-592.72l84.258 48.646M267.127-590.479l84.257 48.646M364.327-535.48l-10.355 90.94M341.029-535.48l10.355 90.94M364.65-536.041l73.58-54.438M340.705-536.041l-73.578-54.438M352.355-556.218 268.42-592.72M353.002-556.218l83.934-36.502M354.619-455.94v-84.399M428.681-584.22l-73.092 42.2M350.737-455.94v-84.399M276.675-584.22l73.092 42.2M426.74-587.58l-73.092 42.199M278.616-587.58l73.092 42.199M363.637-535.133l-9.018 79.193M364.607-536.813l64.074-47.406M340.75-536.813l-64.075-47.406M351.708-555.794l-73.092-31.787M352.678-544.074l-.34 1.298M352.339-542.776l-.955.943M351.384-541.833l1.294-.355M352.678-542.188l1.294.355M353.972-541.833l-.955-.943M438.23-590.479l-.34-1.298M353.972-444.54l-1.294.354M268.42-592.72l-.954.943M353.017-542.776l-.339-1.298M437.89-591.777l-.954-.943M352.678-444.186l-1.294-.355M267.466-591.777l-.34 1.298M353.972-541.46l10.355 5.98M351.384-541.46l-10.355 5.98M353.002-544.26v-11.958M354.295-542.02l10.356 5.979M351.06-542.02l-10.355 5.979M352.355-544.26v-11.958M354.619-540.339l9.018 5.206M350.737-540.339l-9.017 5.206M353.648-545.381v-10.413M355.59-542.02l9.017 5.207M349.767-542.02l-9.018 5.207M351.708-545.381v-10.413M341.72-535.133l9.017 79.193M353.648-555.794l73.092-31.787M363.68-536.601l-.323.56M341.676-536.601l.324.56M352.355-555.097h.647M363.12-536.925l-.324.56M342.236-536.925l.324.56M352.355-554.45h.647M346.209-538.472v-.747M359.147-538.472v-.747M354.583-429.362a1.905 1.905 0 1 0-3.81 0 1.905 1.905 0 1 0 3.81 0zM452.633-599.19a1.905 1.905 0 1 0-3.81 0 1.905 1.905 0 1 0 3.81 0zM256.533-599.19a1.905 1.905 0 1 0-3.81 0 1.905 1.905 0 1 0 3.81 0zM449.4-597.824l-.978.564M448.422-597.26l-10.396 6.002M448.882-598.72l-.978.563M447.904-598.157l-10.396 6.003M352.16-431.195v-1.128M353.196-431.195v-1.128M267.848-592.154l-10.396-6.003M257.452-598.157l-.978-.564M267.33-591.258l-10.396-6.002M256.934-597.26l-.977-.564M448.422-597.26l-.518-.897M352.16-432.323h1.036M257.452-598.157l-.518.897M353.196-432.323v-12.005M352.16-432.323v-12.005" style="fill:none;stroke:#fff;stroke-width:.5;stroke-linecap:round;stroke-miterlimit:4;stroke-dasharray:none;stroke-opacity:1" transform="translate(-41.49 641.105)"/><path d="m655.988-540.217-24.98-.748M655.988-370.39l-24.98-.747M657.354-544.988l-26.346.788M657.354-375.16l-26.346.788M706.813-542.239l-10.22 28.204M706.813-372.41l-10.22 28.203M705.844-541.326l-9.611 26.526M705.844-371.499l-9.611 26.527M660.106-554.595l-6.448-1.63M701.813-541.109l-13.845 3.499M687.968-537.61v0M660.408-530.646l-7.72 1.95M706.733-542.352l-4.92 1.243M660.106-384.767l-6.448-1.63M701.813-371.28l-13.845 3.498M687.968-367.782v0M660.408-360.818l-7.72 1.95M706.733-372.524l-4.92 1.243M631.008-540.965v-3.235M631.008-371.137v-3.235M665.552-595.262l-.908 15.952M665.552-425.435l-.908 15.953M668.983-588.559l-.287-6.681M668.983-418.73l-.287-6.683M668.881-585.233l2.145-7.49M652.688-528.695l12.25-42.774M668.881-415.405l2.145-7.49M652.688-358.868l12.25-42.773M671.026-592.722l35.707 50.37M671.026-422.895l35.707 50.371M671.277-591.25l34.382 48.502M671.277-421.422l34.382 48.502M688.19-536.999v0M688.19-367.171v0M668.926-583.04l2.351-8.21M653.619-529.598l11.25-39.278M668.926-413.212l2.351-8.21M653.619-359.77l11.25-39.278M669.033-588.535l1.993-4.187M653.658-556.224l11.521-24.212M669.033-418.707l1.993-4.188M653.658-386.397l11.521-24.21M652.72-528.57l3.71 18.05M652.72-358.742l3.71 18.05M660.547-531.348l-6.928 1.75M660.547-361.52l-6.928 1.75M705.659-542.748l-17.85 4.51M705.659-372.92l-17.85 4.51M653.477-528.094l3.277 15.937M653.477-358.266l3.277 15.936M660.38-530.506l-7.66 1.936M660.38-360.678l-7.66 1.936M660.241-529.803l-6.764 1.709M660.241-359.976l-6.764 1.71M706.813-542.239l-4.968 1.256M706.813-372.41l-4.968 1.255M701.845-540.983 688-537.485M701.845-371.155 688-367.657M705.844-541.326l-17.686 4.469M705.844-371.499l-17.686 4.47M670.871-318.21l-2.195-107.19M701.496-315.926l-48.19 12.194M665.577-425.41l-2.851 106.213M670.955-314.09v0M662.726-319.197l-.929-.113M671.472-314.153l-.6.073M670.871-314.08l-9.074 1.099M671.39-318.148l-.519-.063M670.222-318.29l-6.851-.829M661.797-312.981v-.625M661.797-318.685v-.625M661.797-318.685l-30.789.922M661.797-313.606l-30.789-.922M666.996-261.985l-45.213-1.853M666.996-261.985l-.252-.01M667.085-257.09l-45.302 1.856M668.676-425.4a1.55 1.55 0 0 0-3.1-.01M667.063-257.09a1.665 2.449 0 0 0 .44-4.779M667.503-261.869a1.665 2.449 0 0 0-.507-.116M662.444-318.063l.632-.44M663.076-313.788l-.632-.44M670.813-314.725l-7.737.937M670.755-317.573l-7.68-.93M663.533-325.169l-.162 6.05M663.64-329.136l-.086 3.185M663.982-341.886l-.32 11.937M664.12-347.036l-.117 4.367M664.444-359.085l-.302 11.235M664.54-362.689l-.075 2.821M664.892-375.803l-.33 12.3M665.02-380.59l-.107 4.004M665.413-395.208l-.37 13.805M665.476-397.56l-.042 1.569M665.862-411.926l-.364 13.552M666.187-424.032l-.208 7.758M665.957-415.46l-.074 2.75M670.222-318.29l-.042-2.08M670.163-321.18l-.255-12.481M669.892-334.448l-.066-3.22M669.81-338.477l-.256-12.482M669.537-351.745l-.076-3.717M669.445-356.272l-.201-9.813M669.228-366.871l-.12-5.889M669.09-373.57l-.2-9.813M668.874-384.169l-.178-8.67M668.68-393.648l-.126-6.134M668.538-400.569l-.196-9.567M668.325-410.946l-.125-6.134M668.184-417.866l-.115-5.62M668.184-417.866l-2.205 1.592M668.342-410.136l-2.48-1.79M668.538-400.569l-3.04 2.195M668.696-392.838l-3.283-2.37M668.874-384.169l-3.831 2.766M669.107-372.76l-4.215-3.043M669.228-366.871l-4.666 3.368M669.461-355.462l-5.017-3.623M669.537-351.745l-5.395 3.895M669.826-337.667l-5.844-4.22M669.892-334.448l-6.23 4.499M670.18-320.37l-6.647-4.799M668.2-417.08l-2.243 1.62M668.325-410.946l-2.442-1.763M668.554-399.782l-3.078 2.222M668.68-393.648l-3.246-2.343M668.89-383.383l-3.87 2.794M669.09-373.57l-4.177-3.016M669.244-366.085l-4.704 3.396M669.445-356.272l-4.98-3.596M669.554-350.959l-5.434 3.923M669.81-338.477l-5.807-4.192M669.908-333.661l-6.268 4.525M670.163-321.18l-6.609-4.771M665.093-315.602v-1.087M665.093-315.602h34.341M665.093-316.689h34.341M662.444-318.063v1.116M662.444-315.344v1.116M634.919-315.344h27.525M634.919-316.947h27.525M634.919-316.947v1.603M668.72-423.297l-3.175-.92" style="fill:none;stroke:#fff;stroke-width:.5;stroke-linecap:round;stroke-miterlimit:4;stroke-dasharray:none;stroke-opacity:1" transform="translate(-41.418 641.127)"/><path d="M667.61-425.369a.483.483 0 1 0-.967 0 .483.483 0 1 0 .966 0zM706.6-316.358l-35.574-98.182M706.143-316.408l-.157-.433M704.512-318.324l-34.241-94.502M703.42-319.423l-32.982-91.027M671.026-414.54l-.755 1.714M669.052-407.078l1.155 1.113M669.215-399.103l1.109-1.16M670.207-405.965l.014.656M670.266-403.091l.058 2.829M670.266-403.091l1.493-.03M670.22-405.31l1.73 1.708M672.243-405.467l-.56 1.6M673.546-401.87l-2.083-1.246M671.472-314.153l-.03-1.45M671.42-316.689l-.03-1.459M670.773-316.7l-.018-.873M670.813-314.725l-.018-.888M670.943-318.662l19.836-32.7M671.496-318.327l19.837-32.7M670.943-318.662a.323.323 0 0 0 .553.335M691.333-351.027a.323.323 0 0 0-.554-.336M690.405-355.34l-.057 3.49M690.954-350.403l1.925 1.888M689.398-347.838l-.553-.336M673.5-321.63l-.554-.335M706.334-315.814l-4.521 1.142M701.813-314.672l-48.155 12.168M661.77-305.873l.313 1.24M659.248-305.235l.314 1.24M634.919-316.947v-.287M634.919-315.344v.287M634.919-317.234h-3.226M634.919-315.057h-3.226M631.693-315.057v-2.177M631.008-317.763v3.235M670.534-412.1l-.096 1.65M690.348-351.85l.27.754M671.759-403.122a.28.28 0 0 0 .191-.48M706.098-315.926h-4.602M705.986-316.841l-2.567-2.582M706.677-316.145a.332.332 0 1 0-.663 0 .332.332 0 1 0 .663 0zM663.117-306.214l-.391-6.88M665.552-263.465l-.882-15.494M670.871-314.08l-.257 5.969M668.983-270.17l-.287 6.683M667.503-262.028a1.574 1.574 0 0 0 1.193-1.46M665.552-263.465a1.574 1.574 0 0 0 1.192 1.437M671.46-314.704l6.65 4.696M671.17-314.116v0M671.17-314.116l5.997 4.346M672.535-313.127l.38-.523M667.503-263.555a.38.38 0 0 0-.76 0M667.503-263.555v1.686M666.744-601.683v.032M666.744-263.555v1.527M666.744-262.028v.033M653.352-303.745a.64.64 0 1 0 .32 1.238M699.434-315.926h6.664M699.434-316.365h6.664M699.434-315.602v-1.087M652.89-302.965l18.136 36.96M671.026-266.005l35.308-49.81M672.819-320.507l33.315 4.075M670.82-320.752l1.294.158M652.921-322.941l9.873 1.207M672.524-320.022l29.895 3.657M670.83-320.23l.99.122M652.859-322.428l9.92 1.214M669.472-406.674l1.072-5.424M652.921-322.941l11.462-57.987M652.89-322.424l1.275 3.968M655.665-313.79l2.813 8.75M659.248-321.646l.063-.514M661.77-321.337l.063-.514M671.128-267.267l33.664-47.49M704.792-314.757l-50.684 12.807M654.108-301.95l17.02 34.683M661.211-315.602v-1.087M665.093-315.602h-3.882M665.093-316.689h-3.882M621.783-263.838v8.604M621.783-594.89v161.224M621.783-425.062v10.522M621.783-414.54v150.702M621.783-603.493v-17.576M621.783-237.659v-17.575M621.783-621.069h-6.976M614.807-621.069v206.53M614.807-414.54h6.976M614.807-414.54v176.881M614.807-237.659h6.976M670.871-488.038l-2.195-107.19M701.496-485.753l-48.19 12.194M665.577-595.238l-2.851 106.213M670.955-483.918v0M662.726-489.025l-.929-.112M671.472-483.98l-.6.072M670.871-483.908l-9.074 1.099M671.39-487.975l-.519-.063M670.222-488.117l-6.851-.83M661.797-482.809v-.625M661.797-488.512v-.625M661.797-488.512l-30.789.922M661.797-483.434l-30.789-.922M666.996-601.64l-45.213-1.853M666.996-431.813l-.252-.01M666.744-431.823l-44.961-1.843M666.996-601.64l-.252-.01M667.085-596.746l-45.302 1.856M667.085-426.918l-45.302 1.856M668.676-595.228a1.55 1.55 0 0 0-3.1-.01M667.063-426.917a1.665 2.449 0 0 0 .44-4.78" style="fill:none;stroke:#fff;stroke-width:.5;stroke-linecap:round;stroke-miterlimit:4;stroke-dasharray:none;stroke-opacity:1" transform="translate(-41.418 641.127)"/><path d="M667.503-431.696a1.665 2.449 0 0 0-.507-.117M667.063-596.745a1.665 2.449 0 0 0 .44-4.78" style="fill:none;stroke:#fff;stroke-width:.5;stroke-linecap:round;stroke-miterlimit:4;stroke-dasharray:none;stroke-opacity:1" transform="translate(-41.418 641.127)"/><path d="M667.503-601.524a1.665 2.449 0 0 0-.507-.116M662.444-487.891l.632-.44M663.076-483.615l-.632-.44M670.813-484.553l-7.737.937M670.755-487.4l-7.68-.93M663.533-494.996l-.162 6.05M663.64-498.963l-.086 3.184M663.982-511.714l-.32 11.937M664.12-516.864l-.117 4.367M664.444-528.913l-.302 11.236M664.54-532.516l-.075 2.82M664.892-545.63l-.33 12.3M665.02-550.417l-.107 4.004M665.413-565.036l-.37 13.806M665.476-567.388l-.042 1.57M665.862-581.754l-.364 13.552M666.187-593.86l-.208 7.758M665.957-585.288l-.074 2.751M670.222-488.117l-.042-2.08M670.163-491.007l-.255-12.482M669.892-504.275l-.066-3.22M669.81-508.305l-.256-12.482M669.537-521.573l-.076-3.717M669.445-526.1l-.201-9.813M669.228-536.699l-.12-5.889M669.09-543.397l-.2-9.813M668.874-553.996l-.178-8.67M668.68-563.476l-.126-6.134M668.538-570.396l-.196-9.567M668.325-580.773l-.125-6.135M668.184-587.694l-.115-5.62M668.184-587.694l-2.205 1.592M668.342-579.963l-2.48-1.791M668.538-570.396l-3.04 2.194M668.696-562.666l-3.283-2.37M668.874-553.996l-3.831 2.766M669.107-542.587l-4.215-3.044M669.228-536.699l-4.666 3.369M669.461-525.29l-5.017-3.623M669.537-521.573l-5.395 3.896M669.826-507.495l-5.844-4.22M669.892-504.275l-6.23 4.498M670.18-490.197l-6.647-4.8M668.2-586.908l-2.243 1.62M668.325-580.773l-2.442-1.764M668.554-569.61l-3.078 2.222M668.68-563.476l-3.246-2.343M668.89-553.21l-3.87 2.793M669.09-543.397l-4.177-3.016M669.244-535.913l-4.704 3.397M669.445-526.1l-4.98-3.596M669.554-520.787l-5.434 3.923M669.81-508.305l-5.807-4.192M669.908-503.489l-6.268 4.526M670.163-491.007l-6.609-4.772M665.093-485.43v-1.086M665.093-485.43h34.341M665.093-486.516h34.341M662.444-487.891v1.116M662.444-485.171v1.116M634.919-485.171h27.525M634.919-486.775h27.525M634.919-486.775v1.604M668.72-593.124l-3.175-.921M667.61-595.196a.483.483 0 1 0-.967 0 .483.483 0 1 0 .966 0zM706.6-486.185l-35.574-98.183M706.143-486.235l-.157-.434M704.512-488.151l-34.241-94.503M703.42-489.25l-32.982-91.027M671.026-584.368l-.755 1.714M669.052-576.906l1.155 1.113M669.215-568.93l1.109-1.16M670.207-575.793l.014.656M670.266-572.919l.058 2.829M670.266-572.919l1.493-.03M670.22-575.137l1.73 1.707M672.243-575.295l-.56 1.6M673.546-571.698l-2.083-1.245M671.472-483.98l-.03-1.45M671.42-486.516l-.03-1.46M670.773-486.527l-.018-.874M670.813-484.553l-.018-.888M670.943-488.49l19.836-32.7M671.496-488.154l19.837-32.7M670.943-488.49a.323.323 0 0 0 .553.336M691.333-520.855a.323.323 0 0 0-.554-.335M690.405-525.169l-.057 3.491M690.954-520.23l1.925 1.888M689.398-517.666l-.553-.335M673.5-491.457l-.554-.335M706.334-485.642l-4.521 1.143M701.813-484.5l-48.155 12.169M661.77-475.7l.313 1.24M659.248-475.063l.314 1.24M634.919-486.775v-.287M634.919-485.171v.286M634.919-487.062h-3.226M634.919-484.885h-3.226M631.693-484.885v-2.177M631.008-487.59v3.234M670.534-581.928l-.096 1.65M690.348-521.678l.27.754M671.759-572.95a.28.28 0 0 0 .191-.48M706.098-485.753h-4.602M705.986-486.669l-2.567-2.581M706.677-485.973a.332.332 0 1 0-.663 0 .332.332 0 1 0 .663 0zM663.117-476.042l-.391-6.88M665.552-433.293l-.882-15.494M670.871-483.908l-.257 5.969M668.983-439.997l-.287 6.682M667.503-431.855a1.574 1.574 0 0 0 1.193-1.46M665.552-433.293a1.574 1.574 0 0 0 1.192 1.438M671.46-484.532l6.65 4.696M671.17-483.944v0M671.17-483.944l5.997 4.347M672.535-482.954l.38-.524M667.503-433.383a.38.38 0 0 0-.76 0M667.503-433.383v1.687M666.744-433.383v1.528M666.744-431.855v.032M653.352-473.573a.64.64 0 1 0 .32 1.238M699.434-485.753h6.664M699.434-486.193h6.664M699.434-485.43v-1.086M652.89-472.793l18.136 36.96M671.026-435.833l35.308-49.809M672.819-490.335l33.315 4.075M670.82-490.58l1.294.159M652.921-492.769l9.873 1.208M672.524-489.85l29.895 3.657M670.83-490.057l.99.121M652.859-492.255l9.92 1.213M669.472-576.502l1.072-5.424M652.921-492.769l11.462-57.987M652.89-492.251l1.275 3.967M655.665-483.618l2.813 8.75M659.248-491.474l.063-.513M661.77-491.165l.063-.514M671.128-437.095l33.664-47.49M704.792-484.585l-50.684 12.807M654.108-471.778l17.02 34.683M661.211-485.43v-1.086M665.093-485.43h-3.882M665.093-486.516h-3.882" style="fill:none;stroke:#fff;stroke-width:.5;stroke-linecap:round;stroke-miterlimit:4;stroke-dasharray:none;stroke-opacity:1" transform="translate(-41.418 641.127)"/></svg>