<svg xmlns="http://www.w3.org/2000/svg" width="1280" height="720" viewBox="0 0 752.941 423.529"><path d="m621.979 296.674-.678 25.253M621.979 126.846l-.678 25.253M621.301 321.927l-.928-.113M621.301 152.1l-.928-.113M622.816 327.847l-1.515.183M621.301 328.03l-.928.113M630.047 322.986l-1.672-.203M622.816 158.019l-1.515.184M621.301 158.203l-.928.112M630.047 153.158l-1.672-.202M629.966 326.98l-1.681.204M629.966 157.153l-1.681.204M622.661 322.091l-1.36-.164M622.661 152.264l-1.36-.165M620.373 328.143v-.625M620.373 158.315v-.625M620.373 322.44v-.626M620.373 152.612v-.625M620.373 322.44l-30.79.921M620.373 152.612l-30.79.922M620.373 327.518l-30.79-.922M620.373 157.69l-30.79-.922M628.798 322.835l-.21-10.456M628.798 153.007l-.21-10.456M630.018 324.435h.235M630.018 154.608h.235M629.995 325.522h.258M629.995 155.694h.258M637.788 324.978l-1.443-28.304M637.788 155.15l-1.443-28.304M630.047 322.986l-.03 1.45M630.047 153.158l-.03 1.45M630.018 324.435l-.052 2.546M630.018 154.608l-.052 2.545M637.788 324.978l-5.704 55.966M630.843 380.364l-.045.448M637.788 155.15l-5.704 55.966M630.843 210.536l-.045.449M632.043 381.114a.647.647 0 0 0 .04-.17M630.797 380.812a.647.647 0 0 0 .97.624M632.043 211.287a.647.647 0 0 0 .04-.171M630.797 210.985a.647.647 0 0 0 .97.623M589.584 323.361v3.235M589.584 153.534v3.234M624.128 377.658 621.3 328.03M624.128 207.83l-2.827-49.627M627.413 374.34l-.142 3.297M627.413 204.513l-.142 3.296M621.301 328.03v-6.103M621.301 158.203v-6.104M620.373 327.518v-5.079M620.373 157.69v-5.078M637.788 324.978l-2.734-2.95M637.788 155.15l-2.734-2.95M636.441 325.429l-3.122 30.633M636.441 155.601l-3.122 30.634M636.441 325.429l-1.48-1.597M636.441 155.601l-1.48-1.597M628.798 327.122l-1.159 39.502M628.798 157.295l-1.159 39.501M213.204 41.935l-48.702 84.353M163.855 127.409l-48.701 84.353M213.204 41.935l48.701 84.353M115.154 211.762h97.403M213.85 211.762h97.404M409.304 41.935l-48.702 84.353M409.304 41.935l48.701 84.353M458.652 127.409l48.702 84.353M311.254 211.762h97.403M115.154 211.762l48.701 84.354M164.502 297.236l48.702 84.354M409.304 381.59l48.701-84.354M458.652 296.116l48.702-84.354M409.95 211.762h97.404M311.254 211.762l-48.702-84.353M311.254 211.762l48.701-84.353M213.204 41.935h97.403M311.9 41.935h97.404M211.91 154.406l1.294.747M408.01 154.406l1.294.747M409.304 155.153l98.05 56.61M408.01 269.119l1.294-.747M409.304 268.372l98.05-56.61M211.91 269.119l1.294-.747M309.96 99.291l1.294-.747M311.254 98.544l98.05-56.61M115.154 211.762l98.05-56.609M213.204 155.153l1.293-.747M409.304 155.153l1.294-.747M409.304 268.372l1.294.747M115.154 211.762l98.05 56.61M213.204 268.372l1.293.747M213.204 41.935l98.05 56.609M311.254 98.544l1.293.747M213.204 41.935v113.218M213.204 155.153v1.494M409.304 41.935v113.218M409.304 155.153v1.494M409.304 381.59V268.372M409.304 268.372v-1.494M213.204 381.59V268.372M213.204 268.372v-1.494M311.254 98.544V97.05M116.447 209.521l95.463-55.115M312.547 209.521l95.463-55.115M312.547 214.003l95.463 55.116M116.447 214.003l95.463 55.116M214.497 44.176 309.96 99.29M117.741 211.762l95.463-55.115M313.841 211.762l95.463-55.115M313.841 211.762l95.463 55.116M117.741 211.762l95.463 55.116M215.791 41.935l95.463 55.115M211.91 44.176v110.23M408.01 44.176v110.23M408.01 379.349v-110.23M211.91 379.349v-110.23M309.96 209.521V99.291M214.497 44.176v110.23M410.598 44.176v110.23M410.598 379.349v-110.23M214.497 379.349v-110.23M312.547 209.521V99.291M214.497 154.406l95.463 55.115M410.598 154.406l95.462 55.115M410.598 269.119l95.462-55.116M214.497 269.119l95.463-55.116M312.547 99.291l95.463-55.115M213.204 156.647l95.462 55.115M409.304 156.647l95.462 55.115M409.304 266.878l95.462-55.116M213.204 266.878l95.462-55.116M311.254 97.05l95.462-55.115M210.616 49.004l-44.347 76.81M119.982 205.987l44.347-76.81M215.791 49.004l44.347 76.81M306.425 205.987l-44.346-76.81M122.57 210.469h88.693M303.837 210.469h-88.693M406.716 49.004l-44.347 76.81M316.082 205.987l44.347-76.81M411.891 49.004l44.347 76.81M502.525 205.987l-44.346-76.81M318.67 210.469h88.693M499.937 210.469h-88.693M406.716 374.52l-44.347-76.81M316.082 217.538l44.347 76.81M411.891 374.52l44.347-76.81M502.525 217.538l-44.346 76.81M318.67 213.056h88.693M499.937 213.056h-88.693M210.616 374.52l-44.347-76.81M119.982 217.538l44.347 76.81M215.791 374.52l44.347-76.81M306.425 217.538l-44.346 76.81M122.57 213.056h88.693M303.837 213.056h-88.693M308.666 204.693l-44.347-76.81M218.032 47.71l44.347 76.81M313.841 204.693l44.347-76.81M404.475 47.71l-44.346 76.81M220.62 43.229h88.693M401.887 43.229h-88.693M210.616 49.004v102.414M119.982 205.987l88.693-51.207M406.716 49.004v102.414M316.082 205.987l88.693-51.207M406.716 374.52V272.107M316.082 217.538l88.693 51.207M210.616 374.52V272.107M119.982 217.538l88.693 51.207M308.666 204.693V102.279M218.032 47.71l88.693 51.207M164.502 126.288l47.408 27.371M261.905 126.288l-47.408 27.371M212.557 211.762v-54.741M360.602 126.288l47.408 27.371M458.005 126.288l-47.407 27.371M408.657 211.762v-54.741M360.602 297.236l47.408-27.37M458.005 297.236l-47.407-27.37M408.657 211.762v54.742M164.502 297.236l47.408-27.37M261.905 297.236l-47.408-27.37M212.557 211.762v54.742M262.552 127.409l47.408-27.371M359.955 127.409l-47.408-27.371M310.607 41.935v54.741M163.855 127.409l47.408 27.37M262.552 127.409l-47.408 27.37M213.85 211.762v-54.741M359.955 127.409l47.408 27.37M458.652 127.409l-47.408 27.37M409.95 211.762v-54.741M359.955 296.116l47.408-27.37M458.652 296.116l-47.408-27.37M409.95 211.762v54.742M163.855 296.116l47.408-27.37M262.552 296.116l-47.408-27.37M213.85 211.762v54.742M261.905 126.288l47.408-27.37M360.602 126.288l-47.408-27.37M311.9 41.935v54.741M166.27 125.815l44.346 25.603M164.329 129.176l44.346 25.604M260.138 125.815l-44.347 25.603M262.079 129.176l-44.347 25.604M211.263 210.469v-51.207M215.144 210.469v-51.207M362.37 125.815l44.346 25.603M360.429 129.176l44.346 25.604M456.238 125.815l-44.347 25.603M458.179 129.176l-44.347 25.604M407.363 210.469v-51.207M411.244 210.469v-51.207M362.37 297.71l44.346-25.603M360.429 294.349l44.346-25.604M456.238 297.71l-44.347-25.603M458.179 294.349l-44.347-25.604M407.363 213.056v51.207M411.244 213.056v51.207M166.27 297.71l44.346-25.603M164.329 294.349l44.346-25.604M260.138 297.71l-44.347-25.603M262.079 294.349l-44.347-25.604M211.263 213.056v51.207M215.144 213.056v51.207M264.32 127.882l44.346-25.603M262.379 124.52l44.346-25.603M358.188 127.882 313.84 102.28M360.129 124.52l-44.347-25.603M309.313 43.229v51.206M313.194 43.229v51.206M306.425 205.987l-88.693-51.207M303.837 210.469l-88.693-51.207M502.525 205.987l-88.693-51.207M499.937 210.469l-88.693-51.207M502.525 217.538l-88.693 51.207M499.937 213.056l-88.693 51.207M306.425 217.538l-88.693 51.207M303.837 213.056l-88.693 51.207M404.475 47.71l-88.693 51.207M401.887 43.229l-88.693 51.206M215.791 49.004v102.414M122.57 210.469l88.693-51.207M411.891 49.004v102.414M318.67 210.469l88.693-51.207M411.891 374.52V272.107M318.67 213.056l88.693 51.207M215.791 374.52V272.107M122.57 213.056l88.693 51.207M313.841 204.693V102.279M220.62 43.229l88.693 51.206M169.533 130.687l.647-1.12M256.874 130.687l-.647-1.12M213.85 205.206h-1.293M365.633 130.687l.647-1.12M452.974 130.687l-.647-1.12M409.95 205.206h-1.293M365.633 292.838l.647 1.12M452.974 292.838l-.647 1.12M409.95 218.319h-1.293M169.533 292.838l.647 1.12M256.874 292.838l-.647 1.12M213.85 218.319h-1.293M267.583 123.01l.647 1.12M354.924 123.01l-.647 1.12M311.9 48.491h-1.293M171.774 131.981l.647-1.12M254.633 131.981l-.647-1.12M213.85 202.618h-1.293M367.874 131.981l.647-1.12M450.733 131.981l-.647-1.12M409.95 202.618h-1.293M367.874 291.544l.647 1.12M450.733 291.544l-.647 1.12M409.95 220.907h-1.293M171.774 291.544l.647 1.12M254.633 291.544l-.647 1.12M213.85 220.907h-1.293M269.824 121.716l.647 1.12M352.683 121.716l-.647 1.12M311.9 51.079h-1.293M311.254 211.762l98.05 56.61M311.254 211.762l98.05-56.609M311.254 211.762V98.544M213.204 155.153l98.05 56.61M311.254 211.762l-98.05 56.61M629.447 100.61l-2.195 107.19M636.028 94.036l-5.231-51.326M632.949 51.21l-.264-2.587M624.152 207.809l-2.85-106.213M629.531 96.489v0M621.301 101.596l-.928.112M630.047 96.552l-.6-.073M629.447 96.479l-9.074-1.1M629.966 100.546l-.52.063M628.798 100.688l-6.852.83M620.373 95.38v.625M620.373 101.083v.625M620.373 101.083l-30.79-.922M620.373 96.005l-30.79.922M625.572 44.384l-.253.01M625.32 44.394l-44.961 1.843M625.66 39.49l-45.301-1.857M624.152 207.809a1.55 1.55 0 0 0 3.1-.01M626.079 44.267a1.665 2.449 0 0 0-.44-4.78M625.572 44.384a1.665 2.449 0 0 0 .507-.117M621.02 100.462l.631.44M621.651 96.186l-.632.44M629.389 97.123l-7.738-.937M629.33 99.972l-7.679.93M622.109 107.567l-.163-6.05M622.215 111.534l-.085-3.184M622.557 124.285l-.32-11.937M622.696 129.434l-.118-4.366M623.019 141.484l-.302-11.236M623.116 145.087l-.076-2.82M623.468 158.202l-.33-12.301M623.596 162.988l-.107-4.004M623.989 177.607l-.37-13.806M624.052 179.959l-.042-1.57M624.438 194.325l-.364-13.552M624.762 206.43l-.208-7.757M624.532 197.86l-.074-2.752M628.798 100.688l-.043 2.08M628.739 103.578l-.256 12.482M628.467 116.846l-.066 3.22M628.385 120.876l-.256 12.481M628.113 134.144l-.076 3.717M628.02 138.67l-.2 9.813M627.803 149.27l-.12 5.888M627.666 155.968l-.2 9.813M627.449 166.567l-.177 8.67M627.255 176.046l-.126 6.135M627.113 182.967l-.196 9.567M626.9 193.344l-.125 6.135M626.759 200.265l-.115 5.62M626.759 200.265l-2.205-1.592M626.917 192.534l-2.48 1.79M627.113 182.967l-3.04-2.194M627.272 175.237l-3.283 2.37M627.449 166.567l-3.83-2.766M627.683 155.158l-4.215 3.044M627.803 149.27l-4.665-3.369M628.037 137.86l-5.018 3.624M628.113 134.144l-5.396-3.896M628.401 120.066l-5.844 4.219M628.467 116.846l-6.23-4.498M628.755 102.768l-6.646 4.799M626.775 199.479l-2.243-1.62M626.9 193.344l-2.441 1.764M627.13 182.18l-3.078-2.221M627.255 176.046l-3.245 2.344M627.465 165.781l-3.869-2.793M627.666 155.968l-4.177 3.016M627.82 148.483l-4.704-3.396M628.02 138.67l-4.98 3.596M628.129 133.357l-5.433-3.923M628.385 120.876l-5.807 4.192M628.483 116.06l-6.268-4.526M628.739 103.578l-6.61 4.772M596.203 98v1.087M596.203 98h34.342M596.203 99.087h34.342M621.02 100.462v-1.116M621.02 97.742v-1.116M593.494 97.742h27.525M593.494 99.346h27.525M593.494 99.346v-.259M593.494 98v-.258M627.295 205.695l-3.175.921" style="fill:none;stroke:#fff;stroke-width:.5;stroke-linecap:round;stroke-miterlimit:4;stroke-dasharray:none;stroke-opacity:1"/><path d="M626.185 207.767a.483.483 0 1 0-.966 0 .483.483 0 1 0 .966 0zM637.788 98.544l-5.776 113.35M636.354 101.26l-5.565 109.216M635.63 102.63l-5.377 105.525M632.012 211.894l-1.223-1.418M627.317 204.608l1.156-1.113M627.48 196.632l1.11 1.16M628.473 203.495l.013-.656M628.532 200.62l.058-2.828M628.532 200.62l1.493.031M628.486 202.839l1.73-1.707M630.523 202.862l-.866-1.179M630.718 199.041l-1.442 1.595M630.047 96.552l-.03 1.449M629.995 99.087l-.03 1.46M629.348 99.098l-.018.874M629.389 97.123l-.018.888M629.472 100.914l2.932 44.83M630.118 100.872l2.931 44.83M630.118 100.872a.323.323 0 0 0-.646.042M632.404 145.744a.323.323 0 0 0 .645-.043M633.236 149.616l-1.076-3.321M632.914 143.635l.692-1.27M632.226 144.9l.11-.201M632.806 141.98l-.646.042M630.37 104.726l-.646.043M637.788 98.544l-5.704-55.965M632.084 42.579a.647.647 0 0 0-1.287.131M631.662 51.342l1.287-.131M631.398 48.754l1.287-.131M593.494 99.346v.286M593.494 97.742v-.287M593.494 99.632h-3.226M593.494 97.455h-3.226M590.268 97.455v2.177M589.584 100.161v-3.234M630.828 209.705l-.575-1.55M632.16 146.295l.066-1.395M630.216 201.132a.28.28 0 0 0-.191-.481M637.456 99.172l-1.826 3.458M637.788 98.544a.332.332 0 1 0-.663 0 .332.332 0 1 0 .663 0zM637.456 98.875v.297M624.128 45.864 621.3 95.492M629.447 96.479l-2.176-50.593M627.271 45.886a1.574 1.574 0 0 0-1.192-1.46M625.32 44.426a1.574 1.574 0 0 0-1.192 1.438M630.06 96.594l4.428-17.668M629.433 96.437l4.862-19.403M629.82 94.894l.627.157M625.32 45.953a.38.38 0 0 0 .759 0M626.079 45.953v-1.686M625.32 45.953v-1.527M625.32 44.426v-.032M630.545 98.324h6.663M630.545 98.764h6.663M636.028 94.036l1.558 4.203M630.545 98v1.087M592.322 98v1.087M596.203 99.087h-3.881M596.203 98h-3.881M580.359 46.239v-8.604M580.359 377.29V216.068M580.359 207.463V196.94M580.359 196.94V46.24M580.359 385.894v17.576M580.359 20.06v17.575M580.359 403.47h-6.976M573.383 403.47V196.94M573.383 196.94h6.976M573.383 196.94V20.06M573.383 20.06h6.976M311.254 211.762l-48.702 84.354M261.905 297.236l-48.701 84.354M311.254 211.762l48.701 84.354M213.204 381.59h97.403M311.9 381.59h97.404M409.304 381.59l-48.702-84.354M309.96 324.234l1.294.747M311.254 324.98l98.05 56.61M213.204 381.59l98.05-56.61M311.254 324.98l1.293-.746M311.254 324.98v1.495M214.497 379.349l95.463-55.115M215.791 381.59l95.463-55.115M309.96 214.003v110.23M312.547 214.003v110.23M312.547 324.234l95.463 55.115M311.254 326.475l95.462 55.115M308.666 218.832l-44.347 76.81M218.032 375.814l44.347-76.81M313.841 218.832l44.347 76.81M404.475 375.814l-44.346-76.81M220.62 380.296h88.693M401.887 380.296h-88.693M308.666 218.832v102.414M218.032 375.814l88.693-51.207M262.552 296.116l47.408 27.37M359.955 296.116l-47.408 27.37M310.607 381.59v-54.742M261.905 297.236l47.408 27.371M360.602 297.236l-47.408 27.371M311.9 381.59v-54.742M264.32 295.642l44.346 25.604M262.379 299.004l44.346 25.603M358.188 295.642l-44.347 25.604M360.129 299.004l-44.347 25.603M309.313 380.296V329.09M313.194 380.296V329.09M404.475 375.814l-88.693-51.207M401.887 380.296l-88.693-51.207M313.841 218.832v102.414M220.62 380.296l88.693-51.207M267.583 300.515l.647-1.12M354.924 300.515l-.647-1.12M311.9 375.033h-1.293M269.824 301.809l.647-1.12M352.683 301.809l-.647-1.12M311.9 372.446h-1.293M311.254 324.98V211.763M629.447 270.437l-2.195 107.19M636.028 263.863l-5.231-51.325M632.949 221.038l-.264-2.587M624.152 377.637l-2.85-106.214M629.531 266.317v0M621.301 271.423l-.928.113M630.047 266.38l-.6-.073M629.447 266.306l-9.074-1.099M629.966 270.374l-.52.062M628.798 270.515l-6.852.83M620.373 265.207v.626M620.373 270.91v.626M620.373 270.91l-30.79-.921M620.373 265.832l-30.79.922M625.572 384.039l-45.213 1.853M625.572 214.211l-.253.01M625.32 214.222l-44.961 1.842M625.66 379.145l-45.301-1.857M625.66 209.317l-45.301-1.856M624.152 377.637a1.55 1.55 0 0 0 3.1-.01" style="fill:none;stroke:#fff;stroke-width:.5;stroke-linecap:round;stroke-miterlimit:4;stroke-dasharray:none;stroke-opacity:1"/><path d="M625.572 384.039a1.665 2.449 0 0 0 .067-4.896M626.079 214.095a1.665 2.449 0 0 0-.44-4.78M625.572 214.211a1.665 2.449 0 0 0 .507-.116M621.02 270.29l.631.44M621.651 266.014l-.632.44M629.389 266.951l-7.738-.937M629.33 269.8l-7.679.93M622.109 277.395l-.163-6.05M622.215 281.362l-.085-3.185M622.557 294.113l-.32-11.938M622.696 299.262l-.118-4.367M623.019 311.311l-.302-11.235M623.116 314.915l-.076-2.821M623.468 328.03l-.33-12.301M623.596 332.815l-.107-4.003M623.989 347.435l-.37-13.806M624.052 349.786l-.042-1.569M624.438 364.152l-.364-13.552M624.762 376.258l-.208-7.757M624.532 367.687l-.074-2.752M628.798 270.515l-.043 2.08M628.739 273.405l-.256 12.482M628.467 286.674l-.066 3.22M628.385 290.703l-.256 12.482M628.113 303.971l-.076 3.717M628.02 308.498l-.2 9.813M627.803 319.097l-.12 5.889M627.666 325.796l-.2 9.813M627.449 336.395l-.177 8.67M627.255 345.874l-.126 6.134M627.113 352.795l-.196 9.567M626.9 363.172l-.125 6.134M626.759 370.093l-.115 5.619M626.759 370.093l-2.205-1.592M626.917 362.362l-2.48 1.79M627.113 352.795l-3.04-2.195M627.272 345.064l-3.283 2.37M627.449 336.395l-3.83-2.766M627.683 324.986l-4.215 3.043M627.803 319.097l-4.665-3.368M628.037 307.688l-5.018 3.623M628.113 303.971l-5.396-3.895M628.401 289.893l-5.844 4.22M628.467 286.674l-6.23-4.499M628.755 272.596l-6.646 4.799M626.775 369.306l-2.243-1.62M626.9 363.172l-2.441 1.763M627.13 352.009l-3.078-2.223M627.255 345.874l-3.245 2.343M627.465 335.609l-3.869-2.794M627.666 325.796l-4.177 3.016M627.82 318.311l-4.704-3.396M628.02 308.498l-4.98 3.596M628.129 303.185l-5.433-3.923M628.385 290.703l-5.807 4.192M628.483 285.887l-6.268-4.525M628.739 273.405l-6.61 4.772M596.203 267.828v1.087M596.203 267.828h34.342M596.203 268.915h34.342M621.02 270.29v-1.117M621.02 267.57v-1.116M593.494 267.57h27.525M593.494 269.173h27.525M593.494 269.173v-.258M593.494 267.828v-.258M627.295 375.523l-3.175.92M626.185 377.595a.483.483 0 1 0-.966 0 .483.483 0 1 0 .966 0zM637.788 268.372l-5.776 113.35M636.354 271.088l-5.565 109.216M635.63 272.458l-5.377 105.524M632.012 381.722l-1.223-1.418M627.317 374.435l1.156-1.113M627.48 366.46l1.11 1.16M628.473 373.322l.013-.656M628.532 370.448l.058-2.829M628.532 370.448l1.493.03M628.486 372.666l1.73-1.707M630.523 372.69l-.866-1.18M630.718 368.869l-1.442 1.594M630.047 266.38l-.03 1.448M629.995 268.915l-.03 1.459M629.348 268.925l-.018.874M629.389 266.951l-.018.888M629.472 270.742l2.932 44.83M630.118 270.7l2.931 44.83M630.118 270.7a.323.323 0 0 0-.646.042M632.404 315.571a.324.324 0 0 0 .645-.043M633.236 319.444l-1.076-3.322M632.914 313.463l.692-1.27M632.226 314.727l.11-.2M632.806 311.808l-.646.042M630.37 274.554l-.646.042M637.788 268.372l-5.704-55.966M632.084 212.406a.647.647 0 0 0-1.287.132M631.662 221.17l1.287-.132M631.398 218.582l1.287-.131M593.494 269.173v.287M593.494 267.57v-.287M593.494 269.46h-3.226M593.494 267.283h-3.226M590.268 267.283v2.177M589.584 269.989v-3.235M630.828 379.532l-.575-1.55M632.16 316.122l.066-1.395M630.216 370.96a.28.28 0 0 0-.191-.481M637.456 269l-1.826 3.458M637.788 268.372a.332.332 0 1 0-.663 0 .332.332 0 1 0 .663 0zM637.456 268.703V269M624.128 215.692 621.3 265.32M629.447 266.306l-2.176-50.592M627.271 215.714a1.574 1.574 0 0 0-1.192-1.46M625.32 214.254a1.574 1.574 0 0 0-1.192 1.438M630.06 266.421l4.428-17.667M629.433 266.264l4.862-19.402M629.82 264.722l.627.157M625.32 215.781a.38.38 0 0 0 .759 0M626.079 215.781v-1.686M625.32 215.781v-1.527M625.32 214.254v-.033M630.545 268.152h6.663M630.545 268.591h6.663M636.028 263.863l1.558 4.203M630.545 267.828v1.087M592.322 267.828v1.087M596.203 268.915h-3.881M596.203 267.828h-3.881" style="fill:none;stroke:#fff;stroke-width:.5;stroke-linecap:round;stroke-miterlimit:4;stroke-dasharray:none;stroke-opacity:1"/></svg>