<svg xmlns="http://www.w3.org/2000/svg" width="1280" height="720" viewBox="0 0 213.333 120"><g style="stroke-width:.16666667;stroke-dasharray:none"><path d="M445.55 543.171a5.274 5.274 0 0 0 4.34 0M592.69 542.705a5.274 5.274 0 0 0 4.343 0M449.89 543.171a5.274 5.274 0 0 0 2.172 3.76M597.033 542.705a5.274 5.274 0 0 0 2.17 3.76" style="fill:none;stroke:#fff;stroke-width:.16666667;stroke-linecap:round;stroke-miterlimit:4;stroke-dasharray:none;stroke-opacity:1" transform="translate(-413.332 -493.579)"/><path d="M452.062 546.93a5.274 5.274 0 0 0-2.171 3.76M599.204 546.466a5.274 5.274 0 0 0-2.171 3.759M449.89 550.69a5.274 5.274 0 0 0-4.34 0" style="fill:none;stroke:#fff;stroke-width:.16666667;stroke-linecap:round;stroke-miterlimit:4;stroke-dasharray:none;stroke-opacity:1" transform="translate(-413.332 -493.579)"/><path d="M597.033 550.225a5.274 5.274 0 0 0-4.343 0M445.55 550.69a5.274 5.274 0 0 0-2.172-3.76M592.69 550.225a5.274 5.274 0 0 0-2.17-3.76M443.378 546.93a5.274 5.274 0 0 0 2.171-3.759" style="fill:none;stroke:#fff;stroke-width:.16666667;stroke-linecap:round;stroke-miterlimit:4;stroke-dasharray:none;stroke-opacity:1" transform="translate(-413.332 -493.579)"/><path d="M590.52 546.466a5.274 5.274 0 0 0 2.17-3.76M441.83 549.722l.773 9.452M447.193 553.428l8.573 4.054M453.61 544.14l-.773-9.453M448.247 540.435l-8.572-4.055M456.982 547.938l3.898-2.7M588.972 549.256l.773 9.452M594.333 552.961l8.574 4.055M600.752 543.674l-.773-9.452M595.39 539.968l-8.574-4.054M604.123 547.472l3.898-2.7M444.16 549.531l.773 9.452M448.192 551.315l8.573 4.053M451.281 544.33l-.773-9.45M447.249 542.547l-8.573-4.054M455.651 546.015l3.899-2.698M591.3 549.065l.774 9.452M595.333 550.849l8.573 4.054M598.422 543.865l-.773-9.452M594.39 542.081l-8.574-4.053M602.792 545.55l3.9-2.7M442.952 556.238l.232 2.888M442.413 549.675l.243 2.98M453.397 555.715l2.619 1.238M447.442 552.9l2.704 1.277M458.166 546.407l2.382-1.649M452.49 537.623l-.233-2.887M453.028 544.187l-.243-2.98M442.044 538.147l-2.62-1.239M447.998 540.962l-2.704-1.278M590.093 555.773l.232 2.887M589.554 549.209l.243 2.98M600.538 555.249l2.618 1.239M594.584 552.434l2.704 1.278M605.307 545.941l2.382-1.649M599.63 537.158l-.232-2.888M600.169 543.721l-.243-2.98M589.185 537.681l-2.619-1.238M595.14 540.496l-2.704-1.277M444.116 556.143l.232 2.887M443.577 549.579l.243 2.98M453.896 554.658l2.619 1.239M447.943 551.843l2.703 1.279M457.5 545.446l2.382-1.649M451.324 537.719l-.232-2.888M451.863 544.282l-.243-2.98M441.545 539.203l-2.62-1.238M447.499 542.02l-2.704-1.28M591.258 555.677l.232 2.888M590.719 549.113l.243 2.98M601.037 554.193l2.62 1.238M595.083 551.377l2.704 1.279M604.642 544.98l2.382-1.649M598.466 537.253l-.232-2.887M599.005 543.817l-.243-2.98M588.686 538.738l-2.62-1.239M594.64 541.553l-2.704-1.279M444.116 556.143a.585.585 0 0 0-1.164.11M453.896 554.658a.585.585 0 0 0-.497 1.06M457.5 545.446a.584.584 0 0 0 .662.961M451.324 537.719a.585.585 0 0 0 1.165-.11M441.545 539.203a.585.585 0 0 0 .497-1.06M591.258 555.677a.585.585 0 0 0-1.165.11M601.037 554.193a.585.585 0 0 0-.497 1.06M604.642 544.98a.584.584 0 0 0 .662.961M598.466 537.253a.585.585 0 0 0 1.164-.11M588.686 538.738a.585.585 0 0 0 .497-1.06M442.657 552.654a.585.585 0 1 0 1.165-.11M443.967 554.352a.584.584 0 1 0-1.169 0 .584.584 0 1 0 1.169 0zM450.146 554.177a.585.585 0 1 0 .497-1.06M452.563 554.398a.584.584 0 1 0-1.168 0 .584.584 0 1 0 1.168 0zM456.901 546.976a.585.585 0 1 0-1.17 0 .585.585 0 1 0 1.17 0zM452.783 541.206a.585.585 0 1 0-1.164.11M452.642 539.51a.584.584 0 1 0-1.169 0 .584.584 0 1 0 1.169 0zM445.294 539.684a.585.585 0 1 0-.497 1.06M444.046 539.464a.584.584 0 1 0-1.168 0 .584.584 0 1 0 1.168 0zM589.799 552.19a.585.585 0 1 0 1.164-.11M591.109 553.887a.584.584 0 1 0-1.169 0 .584.584 0 1 0 1.169 0zM597.288 553.712a.585.585 0 1 0 .497-1.06M599.704 553.932a.584.584 0 1 0-1.168 0 .584.584 0 1 0 1.168 0zM604.042 546.51a.584.584 0 1 0-1.168 0 .584.584 0 1 0 1.168 0zM599.925 540.74a.585.585 0 1 0-1.165.11M599.784 539.043a.584.584 0 1 0-1.169 0 .584.584 0 1 0 1.169 0zM592.436 539.219a.585.585 0 1 0-.497 1.06M591.187 538.998a.584.584 0 1 0-1.168 0 .584.584 0 1 0 1.168 0zM442.606 559.174a.293.293 0 0 0 .586 0M455.766 557.482a.294.294 0 0 0 .254-.53M460.88 545.239a.294.294 0 0 0-.331-.486M452.835 534.687a.293.293 0 0 0-.585 0M439.675 536.38a.294.294 0 0 0-.254.53M589.747 558.708a.293.293 0 0 0 .585 0M602.907 557.016a.294.294 0 0 0 .254-.53M608.021 544.773a.292.292 0 0 0-.331-.475M599.976 534.222a.293.293 0 0 0-.586 0M586.816 535.914a.294.294 0 0 0-.254.53M444.353 559.03a.293.293 0 0 0 .586 0M456.515 555.897a.294.294 0 0 0 .254-.53M459.882 543.797a.292.292 0 0 0-.331-.475M451.088 534.83a.293.293 0 0 0-.586 0M438.925 537.965a.294.294 0 0 0-.254.53M591.494 558.565a.293.293 0 0 0 .585 0M603.657 555.43a.294.294 0 0 0 .254-.53M607.024 543.331a.294.294 0 0 0-.331-.486M598.229 534.366a.293.293 0 0 0-.586 0M586.066 537.5a.294.294 0 0 0-.254.53M444.16 549.531a.293.293 0 0 0-.585 0M448.192 551.315a.294.294 0 0 0-.254.53M451.281 544.33a.293.293 0 0 0 .585 0M447.249 542.547a.294.294 0 0 0 .254-.53M591.3 549.065a.293.293 0 0 0-.584 0M595.333 550.849a.294.294 0 0 0-.254.53M598.422 543.865a.293.293 0 0 0 .585 0M594.39 542.081a.294.294 0 0 0 .254-.53M442.413 549.675a.293.293 0 0 0-.585 0M447.442 552.9a.294.294 0 0 0-.254.53M452.75 550.155a.294.294 0 0 0 .331.486M453.028 544.187a.293.293 0 0 0 .586 0M447.998 540.962a.294.294 0 0 0 .254-.53M589.554 549.209a.293.293 0 0 0-.586 0M594.584 552.434a.294.294 0 0 0-.254.53M600.169 543.721a.293.293 0 0 0 .585 0M595.14 540.496a.294.294 0 0 0 .254-.53M443.184 556.22l3.564 60.663M443.883 556.162l3.564 60.681M453.496 555.504l54.318 27.246M453.796 554.87l54.334 27.254M458.032 546.215l50.755-33.418M457.633 545.638l50.77-33.427M452.256 537.643l-3.562-60.664M451.557 537.7l-3.564-60.682M441.945 538.358l-54.318-27.246M441.644 538.992l-54.333-27.255M590.326 555.753l3.562 60.664M591.025 555.696l3.564 60.682M600.637 555.038l54.318 27.246M600.938 554.404l54.333 27.254M605.174 545.749l50.754-33.418M604.774 545.172l50.77-33.427M599.397 537.177l-3.563-60.664M598.7 537.234l-3.565-60.681M589.085 537.892l-54.317-27.246M588.785 538.526l-54.333-27.254M434.368 545.766l2.157 1.512M435.708 550.704l7.962-5.576M581.508 545.302l2.16 1.51M582.849 550.24l7.963-5.577M435.707 543.851l2.856 2M434.368 548.79l7.961-5.576M582.849 543.387l2.856 1.998M581.508 548.324l7.962-5.576M437.847 548.436a.54.54 0 0 0-.618-.884M437.985 546.262a.538.538 0 0 0-.132-.143M584.99 547.97a.54.54 0 0 0-.62-.884M585.127 545.796a.538.538 0 0 0-.143-.143M434.729 545.25a.323.323 0 0 0-.365.519M435.346 550.187a.323.323 0 0 0 .364.52M581.87 544.784a.323.323 0 0 0-.364.519M582.488 549.722a.323.323 0 0 0 .364.52M435.707 543.851a.323.323 0 0 0-.364.52M434.368 548.79a.323.323 0 0 0 .364.52M582.849 543.387a.323.323 0 0 0-.364.519M581.508 548.324a.323.323 0 0 0 .365.52M437.755 546.284l-48.711-33.355M437.239 546.78l-48.588-33.271M517.271 665.172l4.531-58.862M516.585 664.973l4.52-58.714M584.897 545.818l-48.712-33.355M584.38 546.313l-48.587-33.27M434.729 545.25l2.348 1.643M435.346 550.187l2.501-1.751M440.79 546.375l2.517-1.764M581.87 544.784l2.347 1.643M582.488 549.722l2.501-1.752M587.931 545.909l2.518-1.763M435.346 544.37l2.501 1.75M434.73 549.307l2.501-1.751M440.173 545.495l2.518-1.764M582.487 543.903l2.501 1.752M581.87 548.841l2.502-1.751M587.314 545.029l2.518-1.764M521.104 606.259a24.222 24.222 0 0 0-13.29-23.51M535.793 513.043a24.222 24.222 0 0 0-27.006-.243M521.478 487.137a24.222 24.222 0 0 0 13.29 23.51" style="fill:none;stroke:#fff;stroke-width:.16666667;stroke-linecap:round;stroke-miterlimit:4;stroke-dasharray:none;stroke-opacity:1" transform="translate(-413.332 -493.579)"/><path d="M521.802 606.31a24.918 24.918 0 0 0-13.672-24.186M536.185 512.463a24.918 24.918 0 0 0-27.782-.254" style="fill:none;stroke:#fff;stroke-width:.16666667;stroke-linecap:round;stroke-miterlimit:4;stroke-dasharray:none;stroke-opacity:1" transform="translate(-413.332 -493.579)"/><path d="M520.78 487.086a24.918 24.918 0 0 0 13.672 24.186M437.83 546.364a.43.43 0 0 0-.11-.11M584.972 545.899a.43.43 0 0 0-.11-.11M437.338 547.708l-51.87 34.319M437.74 548.282l-51.886 34.329M584.48 547.243l-51.87 34.317M584.881 547.817l-51.886 34.329M526.212 664.746l-3.785-62.08M525.513 664.807l-3.786-62.099M442.146 553.567l-3.522 1.604M450.68 555.076l-.375 3.852M453.294 540.294l3.522-1.603M444.76 538.785l.376-3.852M455.556 547.864l3.89 2.776M589.286 553.102l-3.52 1.603M597.821 554.611l-.375 3.851M600.436 539.83l3.522-1.605M591.902 538.32l.375-3.852M602.697 547.399l3.89 2.775M442.349 556.043l-2.756 1.255M452.927 556.139l-.288 3.014M458.34 546.978l2.464 1.76M453.091 537.818l2.757-1.255M442.515 537.723l.287-3.015M589.49 555.578l-2.756 1.254M600.067 555.673l-.287 3.015M605.48 546.512l2.465 1.76M600.233 537.353l2.755-1.255M589.655 537.257l.287-3.014M442.196 554.186l-3.33 1.518M451.241 555.343l-.353 3.642M456.806 548.038l2.98 2.126M453.244 539.676l3.33-1.518M444.199 538.52l.353-3.643M589.337 553.72l-3.33 1.518M598.383 554.876l-.353 3.643M603.948 547.573l2.979 2.125M600.385 539.21l3.33-1.518M591.34 538.053l.354-3.642M442.298 555.424l-2.948 1.343M452.364 555.873l-.309 3.223M457.828 547.331l2.636 1.881M453.142 538.438l2.948-1.343M443.076 537.988l.309-3.223M589.439 554.958l-2.947 1.343M599.506 555.408l-.309 3.223M604.97 546.865l2.636 1.882M600.284 537.972l2.946-1.343M590.217 537.522l.31-3.223M438.624 555.171a.297.297 0 1 0 .243.53M450.31 558.928a.298.298 0 1 0 .585.11M459.447 550.64a.297.297 0 1 0 .342-.475M456.816 538.69a.297.297 0 1 0-.243-.53M445.132 534.933a.298.298 0 1 0-.585-.11M585.766 554.705a.297.297 0 1 0 .243.53M597.45 558.462a.298.298 0 1 0 .585.11M606.588 550.174a.297.297 0 1 0 .342-.475M603.958 538.225a.297.297 0 1 0-.243-.53M592.273 534.468a.298.298 0 1 0-.586-.11M439.35 556.767a.297.297 0 1 0 .243.53M452.054 559.096a.298.298 0 1 0 .585.11M460.464 549.212a.297.297 0 1 0 .342-.475M456.09 537.095a.297.297 0 1 0-.243-.53M443.387 534.765a.298.298 0 1 0-.585-.11M586.492 556.301a.297.297 0 1 0 .243.53M599.195 558.631a.298.298 0 1 0 .585.11M607.606 548.747a.297.297 0 1 0 .342-.475M603.23 536.629a.297.297 0 1 0-.243-.53M590.528 534.299a.298.298 0 1 0-.586-.11M441.611 554.732l-55.462 28.226M451.421 556.122l-3.286 62.145M457.53 548.32l52.176 33.92M453.829 539.13l55.462-28.227M444.019 537.74l3.286-62.145M588.753 554.266l-55.462 28.227M598.563 555.656l-3.286 62.145M604.672 547.855l52.175 33.919M600.97 538.664l55.463-28.226M591.16 537.274l3.287-62.145M441.903 555.37l-55.436 28.213M452.12 556.19l-3.285 62.113M457.938 547.75l52.15 33.901M453.538 538.49l55.435-28.21M443.32 537.672l3.285-62.113M589.043 554.905l-55.434 28.212M599.261 555.724l-3.284 62.113M605.08 547.284l52.149 33.902M600.68 538.026l55.435-28.213M590.462 537.206l3.284-62.113M509.706 582.24a21.234 21.234 0 0 0 23.29-.11" style="fill:none;stroke:#fff;stroke-width:.16666667;stroke-linecap:round;stroke-miterlimit:4;stroke-dasharray:none;stroke-opacity:1" transform="translate(-413.332 -493.579)"/><path d="M509.29 510.903a21.234 21.234 0 0 0 11.565-20.215M533.291 582.493a21.234 21.234 0 0 0-11.564 20.215M510.088 581.651a20.533 20.533 0 0 0 22.522-.11" style="fill:none;stroke:#fff;stroke-width:.16666667;stroke-linecap:round;stroke-miterlimit:4;stroke-dasharray:none;stroke-opacity:1" transform="translate(-413.332 -493.579)"/><path d="M508.973 510.28a20.533 20.533 0 0 0 11.182-19.55M533.61 583.117a20.533 20.533 0 0 0-11.183 19.55M439.625 546.885a.502.502 0 1 0-1.005 0 .502.502 0 1 0 1.005 0zM586.767 546.42a.502.502 0 1 0-1.005 0 .502.502 0 1 0 1.005 0zM437.74 548.282a.35.35 0 1 0-.397-.574M584.881 547.817a.35.35 0 1 0-.397-.574M441.903 555.37a.351.351 0 0 0-.287-.64M452.12 556.19a.352.352 0 0 0-.695-.11M457.938 547.75a.352.352 0 0 0-.408.574M453.538 538.49a.351.351 0 0 0 .288.641M443.32 537.672a.352.352 0 0 0 .696.11M589.043 554.905a.351.351 0 0 0-.287-.64M599.261 555.724a.352.352 0 0 0-.696-.11M605.08 547.284a.352.352 0 0 0-.41.574M600.68 538.026a.351.351 0 0 0 .286.64M590.462 537.206a.352.352 0 0 0 .695.11M443.883 556.162a.352.352 0 0 0-.696.11M453.796 554.87a.35.35 0 0 0-.298.63M457.633 545.638a.35.35 0 0 0 .398.575M451.557 537.7a.352.352 0 0 0 .696-.11M441.644 538.992a.35.35 0 0 0 .298-.63M591.025 555.696a.352.352 0 0 0-.696.11M600.938 554.404a.35.35 0 0 0-.299.63M604.774 545.172a.35.35 0 0 0 .398.575M598.7 537.234a.352.352 0 0 0 .695-.11M588.785 538.526a.35.35 0 0 0 .298-.63M434.245 544.727a5.016 5.016 0 0 0 0 5.058M581.386 544.261a5.016 5.016 0 0 0 0 5.058M438.794 556.955a5.275 5.275 0 0 0 4.585 2.673M451.938 559.673a5.275 5.275 0 0 0 4.608-2.634M460.865 549.65a5.275 5.275 0 0 0 0-5.308M456.646 536.907a5.275 5.275 0 0 0-4.585-2.674M443.502 534.188a5.275 5.275 0 0 0-4.608 2.635M585.936 556.489a5.275 5.275 0 0 0 4.584 2.674M599.08 559.208a5.275 5.275 0 0 0 4.606-2.635M608.006 549.183a5.275 5.275 0 0 0 0-5.307M603.788 536.441a5.275 5.275 0 0 0-4.585-2.673M590.644 533.723a5.275 5.275 0 0 0-4.608 2.634M438.998 557.286l-59.012 33.31M452.328 559.662l-.663 67.762M461.05 549.306l58.354 34.452M456.442 536.575l59.013-33.31M443.113 534.2l.663-67.762M586.14 556.821l-59.014 33.31M599.469 559.196l-.663 67.762M608.19 548.84l58.355 34.452M603.583 536.11l59.013-33.31M590.254 533.734l.663-67.762M439.223 557.597l-56.163 39.68M440.502 558.772l-32.488 60.57M440.67 558.877l-29.321 62.144M440.841 558.975l-26.075 63.552M441.018 559.068l-22.762 64.787M441.2 559.155 421.81 625M441.386 559.235l-15.968 66.73M441.578 559.31l-12.508 67.43M441.773 559.377l-9.016 67.949M439.345 557.747l-54.053 42.523M439.472 557.893l-51.797 45.251M439.604 558.034l-49.4 47.858M439.741 558.17l-46.87 50.336M439.884 558.3l-44.216 52.68M440.03 558.426l-41.441 54.88M440.183 558.546l-38.557 56.933M440.34 558.662l-35.57 58.83M439.106 557.44l-58.122 36.732M441.974 559.436l-5.503 68.285M442.181 559.488l-1.981 68.438M442.39 559.534l1.544 68.404M452.709 559.623l6.282 68.478M454.366 559.102l36.211 58.42M454.54 559.01l39.16 56.465M454.711 558.91l42 54.358M454.88 558.804l44.726 52.105M455.046 558.69l47.33 49.716M455.21 558.568l49.804 47.194M455.37 558.44l52.142 44.547M455.525 558.303l54.338 41.783M452.9 559.592l9.8 68.073M453.09 559.555l13.29 67.483M453.278 559.51l16.747 66.712M453.464 559.46l20.158 65.76M453.649 559.402l23.513 64.632M453.831 559.337l26.807 63.33M454.011 559.266l30.026 61.858M454.19 559.188l33.163 60.22M452.516 559.646l2.749 68.7M455.678 558.16l56.384 38.908M455.826 558.007l58.278 35.935M455.97 557.847l60.01 32.867M461.206 548.957l62.445 28.799M461.584 547.26l68.699-2.148M461.59 547.064l68.48-5.68M461.59 546.866l68.075-9.195M461.583 546.667l67.488-12.681M461.567 546.466l66.72-16.131M461.543 546.265l65.773-19.536M461.512 546.061l64.65-22.882M461.472 545.858l63.353-26.167M461.276 548.776l63.852 25.55M461.338 548.593l65.087 22.23M461.394 548.408l66.147 18.853M461.442 548.221l67.03 15.423M461.484 548.033l67.73 11.952M461.52 547.842l68.25 8.45M461.548 547.65l68.584 4.926M461.57 547.456l68.734 1.39M461.13 549.136 522 581.104M461.424 545.654l61.888-29.377M461.366 545.45l60.258-32.503M461.299 545.245l58.468-35.538M456.218 536.264l56.163-39.679M454.938 535.09l32.488-60.57M454.77 534.986l29.321-62.146M454.6 534.886l26.074-63.551M454.423 534.793l22.761-64.787M454.24 534.707l19.391-65.847M454.054 534.627l15.97-66.73M453.863 534.553l12.507-67.43M453.667 534.485l9.016-67.949M456.095 536.114l54.054-42.523M455.968 535.968l51.797-45.25M455.837 535.828l49.4-47.86M455.699 535.692l46.872-50.337M455.557 535.56l44.216-52.678M455.41 535.435l41.442-54.88M455.257 535.315l38.558-56.932M455.1 535.2l35.571-58.83M456.335 536.42l58.121-36.732M453.466 534.426l5.504-68.285M453.26 534.373l1.981-68.437M453.05 534.328l-1.543-68.404M442.732 534.239l-6.283-68.48M441.074 534.76l-36.21-58.421M440.901 534.852l-39.159-56.465M440.729 534.951l-42-54.357M440.56 535.057l-44.725-52.105M440.394 535.172l-47.33-49.716M440.232 535.293l-49.806-47.194M440.072 535.422l-52.143-44.546M439.916 535.559l-54.339-41.783M442.541 534.27l-9.8-68.073M442.351 534.306l-13.291-67.482M442.163 534.35l-16.746-66.71M441.977 534.401l-20.157-65.76M441.792 534.46l-23.513-64.633M441.61 534.524l-26.807-63.33M441.429 534.596l-30.026-61.859M441.251 534.674l-33.163-60.22M442.925 534.216l-2.75-68.701M439.762 535.702l-56.384-38.91M439.614 535.854l-58.277-35.934M439.47 536.014l-60.01-32.865M586.364 557.13l-56.163 39.68M587.643 558.307l-32.487 60.57M587.811 558.41l-29.321 62.146M587.982 558.51l-26.075 63.551M588.159 558.603l-22.761 64.787M588.341 558.689l-19.39 65.847M588.528 558.77l-15.97 66.728M588.719 558.843l-12.507 67.43M588.915 558.91l-9.016 67.95M586.486 557.282l-54.053 42.523M586.614 557.428l-51.797 45.25M586.745 557.568l-49.4 47.858M586.883 557.704l-46.872 50.337M587.025 557.835l-44.216 52.679M587.173 557.961l-41.443 54.88M587.325 558.081l-38.558 56.932M587.482 558.196l-35.571 58.83M586.247 556.976l-58.121 36.732M589.116 558.97l-5.504 68.285M589.322 559.023l-1.981 68.437M589.532 559.068l1.542 68.404M599.85 559.157l6.283 68.48M601.508 558.637l36.21 58.42M601.68 558.544l39.16 56.465M601.853 558.445l42 54.357M602.021 558.338l44.726 52.106M602.188 558.224l47.33 49.716M602.35 558.103l49.804 47.194M602.51 557.974l52.142 44.546M602.666 557.837l54.338 41.783M600.04 559.126l9.801 68.073M600.23 559.09l13.292 67.482M600.419 559.046l16.746 66.71M600.605 558.995l20.157 65.759M600.79 558.936l23.513 64.633M600.972 558.872l26.806 63.33M601.153 558.8l30.026 61.859M601.33 558.722l33.164 60.22M599.657 559.18l2.75 68.701M602.818 557.694l56.386 38.908M602.967 557.541l58.277 35.935M603.111 557.382l60.01 32.866M608.347 548.491l62.446 28.799M608.726 546.796l68.698-2.15M608.732 546.6l68.48-5.682M608.731 546.4l68.076-9.194M608.724 546.2l67.488-12.68M608.708 546l66.72-16.131M608.685 545.798l65.772-19.535M608.653 545.595l64.65-22.882M608.613 545.392l63.354-26.166M608.417 548.31l63.851 25.55M608.48 548.128l65.086 22.23M608.535 547.942l66.146 18.853M608.584 547.755l67.028 15.424M608.626 547.567l67.73 11.952M608.662 547.377l68.248 8.45M608.69 547.184l68.583 4.926M608.711 546.991l68.734 1.39M608.27 548.67l60.872 31.97M608.564 545.188l61.889-29.376M608.507 544.983l60.258-32.501M608.44 544.78l58.469-35.539M603.358 535.8l56.164-39.68M602.08 534.624l32.488-60.57M601.913 534.52l29.32-62.145M601.74 534.421l26.076-63.552M601.564 534.328l22.762-64.787M601.383 534.241l19.39-65.847M601.196 534.16l15.968-66.728M601.004 534.087l12.508-67.43M600.808 534.02l9.015-67.95M603.237 535.648l54.053-42.522M603.11 535.503l51.796-45.251M602.977 535.362l49.4-47.858M602.84 535.226l46.871-50.336M602.698 535.096l44.216-52.68M602.551 534.97l41.442-54.88M602.399 534.85l38.557-56.933M602.242 534.734l35.57-58.83M603.476 535.955l58.122-36.731M600.607 533.96l5.504-68.285M600.4 533.907l1.982-68.437M600.191 533.862l-1.543-68.404M589.873 533.773l-6.282-68.478M588.215 534.294l-36.21-58.42M588.042 534.386l-39.16-56.465M587.87 534.485l-42-54.357M587.702 534.592l-44.727-52.106M587.536 534.706l-47.33-49.716M587.373 534.828l-49.805-47.194M587.212 534.956l-52.142-44.547M587.057 535.093l-54.338-41.783M589.682 533.804l-9.8-68.073M589.492 533.841l-13.29-67.483M589.304 533.886l-16.747-66.713M589.117 533.936l-20.157-65.76M588.933 533.994l-23.513-64.632M588.75 534.059l-26.806-63.33M588.57 534.13l-30.025-61.858M588.392 534.208l-33.163-60.22M590.066 533.75l-2.75-68.7M586.904 535.236l-56.385-38.908M586.756 535.389l-58.278-35.935M586.612 535.549 526.6 502.682M433.803 548.859l-58.682 34.079M580.945 548.394l-58.683 34.078M515.599 432.286l.177 67.86M526.983 661.11l-.177-67.86M433.551 547.456l-50.75 3.03M433.548 547.303l-50.737.43M433.55 547.15l-50.638-2.17M433.556 546.998l-50.73-4.785M433.567 546.845l-51.218-7.494M433.582 546.692l-51.692-10.29M433.602 546.538l-52.23-13.21M433.628 546.385l-52.93-16.313M433.707 548.53l-55.494 24.664M433.67 548.376l-54.082 20.788M433.638 548.221l-53.03 17.325M433.61 548.068l-52.254 14.154M433.588 547.914 381.95 559.1M433.571 547.761l-51.08 8.352M433.56 547.609l-50.668 5.639M433.659 546.23l-53.946-19.702M433.694 546.076l-55.436-23.53M433.735 545.921l-57.337-27.883M433.781 545.765l-59.954-33.055M433.834 545.609l-58.155-36.064M433.75 548.686l-57.195 29.011M514.691 661.826l-19.119-48.103M514.831 661.763l-16.934-49.913M514.975 661.704 500.3 609.866M515.12 661.649l-12.337-53.994M515.27 661.598l-9.91-56.57M515.421 661.552l-7.34-59.775M515.576 661.51l-4.52-63.597M515.735 661.471l-1.352-68.45M515.896 661.44l2.154-68.397M580.692 546.99l-50.748 3.03M580.689 546.838l-50.737.43M580.691 546.685l-50.637-2.17M580.697 546.532l-50.73-4.785M580.708 546.38l-51.217-7.494M580.723 546.227l-51.693-10.292M580.744 546.073l-52.23-13.21M580.77 545.919l-52.93-16.312M580.848 548.066l-55.494 24.662M580.81 547.91 526.73 568.7M580.778 547.757l-53.03 17.323M580.752 547.602l-52.255 14.155M580.73 547.448l-51.638 11.184M580.712 547.296l-51.08 8.351M580.7 547.143l-50.667 5.64M580.8 545.765l-53.946-19.703M580.835 545.61l-55.436-23.53M580.875 545.455l-57.336-27.883M580.923 545.3l-59.956-33.055M580.975 545.142l-58.156-36.062M580.891 548.22l-57.195 29.012M515.422 432.246l-3.472 64.038M527.315 661.19l6.39-60.39M527.468 661.235l9.038-57.23M527.618 661.284l11.512-54.587M527.765 661.337l13.869-52.33M527.908 661.396l16.133-50.311M528.05 661.457l18.307-48.413M528.188 661.523l20.45-46.699M527.16 661.149l3.472-64.037M527.006 431.886l4.52 63.597M526.847 431.924l1.352 68.45M526.686 431.957l-2.154 68.396M522.001 581.104a5.09 5.09 0 0 0-2.597 2.654" style="fill:none;stroke:#fff;stroke-width:.16666667;stroke-linecap:round;stroke-miterlimit:4;stroke-dasharray:none;stroke-opacity:1" transform="translate(-413.332 -493.579)"/><path d="M514.456 499.688a5.09 5.09 0 0 0 1.005 3.576M528.126 593.708a5.09 5.09 0 0 0-1.005-3.576M523.651 577.756a5.146 5.146 0 0 0-1.65 3.348M512.38 496.585a5.146 5.146 0 0 0 2.076 3.103M530.201 596.81a5.146 5.146 0 0 0-2.075-3.102M525.128 574.326a5.146 5.146 0 0 0-1.477 3.43M510.149 493.591a5.146 5.146 0 0 0 2.232 2.994M532.433 599.805a5.146 5.146 0 0 0-2.232-2.994M526.425 570.824a5.146 5.146 0 0 0-1.297 3.502M507.765 490.718a5.146 5.146 0 0 0 2.384 2.873M534.817 602.678a5.146 5.146 0 0 0-2.384-2.873M527.54 567.261a5.146 5.146 0 0 0-1.115 3.563M537.345 605.426a5.146 5.146 0 0 0-2.528-2.748M528.472 563.644a5.146 5.146 0 0 0-.928 3.617M540.011 608.041a5.146 5.146 0 0 0-2.666-2.615M529.215 559.985a5.146 5.146 0 0 0-.74 3.66M542.809 610.514a5.146 5.146 0 0 0-2.798-2.473M529.77 556.292a5.146 5.146 0 0 0-.553 3.693M545.73 612.84a5.146 5.146 0 0 0-2.921-2.326M530.132 552.576a5.146 5.146 0 0 0-.365 3.716M548.767 615.013a5.146 5.146 0 0 0-3.037-2.172M530.304 548.845a5.146 5.146 0 0 0-.177 3.731M551.911 617.027a5.146 5.146 0 0 0-3.144-2.014M530.283 545.112a5.146 5.146 0 0 0 0 3.733M493.7 615.475a5.146 5.146 0 0 0-3.123 2.047M530.07 541.384a5.146 5.146 0 0 0 .21 3.728M496.712 613.268a5.146 5.146 0 0 0-3.013 2.207M529.665 537.671a5.146 5.146 0 0 0 .41 3.713M499.606 610.91a5.146 5.146 0 0 0-2.894 2.358M529.071 533.986a5.146 5.146 0 0 0 .597 3.685M502.376 608.406a5.146 5.146 0 0 0-2.77 2.503M528.287 530.335a5.146 5.146 0 0 0 .784 3.651M505.014 605.762a5.146 5.146 0 0 0-2.638 2.644M527.316 526.73a5.146 5.146 0 0 0 .972 3.605M507.512 602.987a5.146 5.146 0 0 0-2.498 2.775M526.161 523.179a5.146 5.146 0 0 0 1.155 3.55M509.863 600.086a5.146 5.146 0 0 0-2.351 2.9M524.825 519.691a5.146 5.146 0 0 0 1.336 3.488M532.72 493.31a5.146 5.146 0 0 0 2.35-2.9M512.062 597.068a5.146 5.146 0 0 0-2.2 3.018M523.312 516.277a5.146 5.146 0 0 0 1.513 3.414M530.52 496.328a5.146 5.146 0 0 0 2.2-3.018M514.104 593.942a5.146 5.146 0 0 0-2.042 3.126M521.624 512.947a5.146 5.146 0 0 0 1.688 3.33M528.478 499.454a5.146 5.146 0 0 0 2.041-3.126M515.98 590.714a5.146 5.146 0 0 0-1.876 3.228M519.767 509.707a5.146 5.146 0 0 0 1.857 3.24" style="fill:none;stroke:#fff;stroke-width:.16666667;stroke-linecap:round;stroke-miterlimit:4;stroke-dasharray:none;stroke-opacity:1" transform="translate(-413.332 -493.579)"/><path d="M514.383 593.022a4.97 4.97 0 0 0 3.667 0M520.967 512.245a4.97 4.97 0 0 0 1.852-3.165M522.262 582.472a6.125 6.125 0 0 0-.541-1.232M515.771 500.147a6.125 6.125 0 0 0-1.336-.155M526.81 593.25a6.125 6.125 0 0 0 1.337.154M455.651 546.015a1.17 1.17 0 0 0 1.33 1.923M602.792 545.55a1.169 1.169 0 0 0 1.33 1.922M455.324 546.357h-1.11M602.466 545.892h-1.112M455.286 547.527h-1.072M602.426 547.06h-1.07M440.173 545.495a.54.54 0 0 0 .619.883M587.314 545.029a.54.54 0 0 0 .618.883M442.691 543.731a.317.317 0 1 0-.364-.519M589.832 543.265a.317.317 0 1 0-.364-.519M443.67 545.128a.317.317 0 1 0-.365-.519M590.812 544.663a.317.317 0 1 0-.365-.519M442.866 551.28v1.776M590.008 550.815v1.775M452.574 551.28v2.107M599.716 550.815v2.107" style="fill:none;stroke:#fff;stroke-width:.16666667;stroke-linecap:round;stroke-miterlimit:4;stroke-dasharray:none;stroke-opacity:1" transform="translate(-413.332 -493.579)"/></g></svg>