<svg xmlns="http://www.w3.org/2000/svg" width="1280" height="720" viewBox="0 0 711.111 400"><path d="M162.474 165.662a1699.478 1699.478 0 0 0 358.39-1.79M156.998 196.886a1845.375 1845.375 0 0 0 363.847-1.124" style="fill:none;stroke:#fff;stroke-width:.556547;stroke-linecap:round;stroke-miterlimit:4;stroke-dasharray:none;stroke-opacity:1" transform="translate(-34.584 -125.48)"/><path d="M156.506 200.143a735.726 735.726 0 0 0 363.923-2.268M152.568 231.197a889.242 889.242 0 0 0 367.861-1.458" style="fill:none;stroke:#fff;stroke-width:.556547;stroke-linecap:round;stroke-miterlimit:4;stroke-dasharray:none;stroke-opacity:1" transform="translate(-34.584 -125.48)"/><path d="M152.38 233.002a486.385 486.385 0 0 0 368.05-2.358" style="fill:none;stroke:#fff;stroke-width:.556547;stroke-linecap:round;stroke-miterlimit:4;stroke-dasharray:none;stroke-opacity:1" transform="translate(-34.584 -125.48)"/><path d="M150.316 265.018a665.727 665.727 0 0 0 358.21 3.413M158.59 428.985a401.156 401.156 0 0 0 361.84-6.74" style="fill:none;stroke:#fff;stroke-width:.556547;stroke-linecap:round;stroke-miterlimit:4;stroke-dasharray:none;stroke-opacity:1" transform="translate(-34.584 -125.48)"/><path d="M153.672 394.601a401.156 401.156 0 0 0 366.757-4.327" style="fill:none;stroke:#fff;stroke-width:.556547;stroke-linecap:round;stroke-miterlimit:4;stroke-dasharray:none;stroke-opacity:1" transform="translate(-34.584 -125.48)"/><path d="M150.46 361.007a401.156 401.156 0 0 0 369.97-2.706" style="fill:none;stroke:#fff;stroke-width:.556547;stroke-linecap:round;stroke-miterlimit:4;stroke-dasharray:none;stroke-opacity:1" transform="translate(-34.584 -125.48)"/><path d="M148.818 328.193a401.156 401.156 0 0 0 371.611-1.863" style="fill:none;stroke:#fff;stroke-width:.556547;stroke-linecap:round;stroke-miterlimit:4;stroke-dasharray:none;stroke-opacity:1" transform="translate(-34.584 -125.48)"/><path d="M148.635 296.126a401.156 401.156 0 0 0 371.794-1.769" style="fill:none;stroke:#fff;stroke-width:.556547;stroke-linecap:round;stroke-miterlimit:4;stroke-dasharray:none;stroke-opacity:1" transform="translate(-34.584 -125.48)"/><path d="M149.813 264.76a401.156 401.156 0 0 0 370.616-2.374" style="fill:none;stroke:#fff;stroke-width:.556547;stroke-linecap:round;stroke-miterlimit:4;stroke-dasharray:none;stroke-opacity:1" transform="translate(-34.584 -125.48)"/><path d="M155.823 299.751a550.78 550.78 0 0 0 353.68.178" style="fill:none;stroke:#fff;stroke-width:.556547;stroke-linecap:round;stroke-miterlimit:4;stroke-dasharray:none;stroke-opacity:1" transform="translate(-34.584 -125.48)"/><path d="M155.823 331.723a550.78 550.78 0 0 0 353.68.177" style="fill:none;stroke:#fff;stroke-width:.556547;stroke-linecap:round;stroke-miterlimit:4;stroke-dasharray:none;stroke-opacity:1" transform="translate(-34.584 -125.48)"/><path d="M155.823 363.695a550.78 550.78 0 0 0 353.68.177" style="fill:none;stroke:#fff;stroke-width:.556547;stroke-linecap:round;stroke-miterlimit:4;stroke-dasharray:none;stroke-opacity:1" transform="translate(-34.584 -125.48)"/><path d="M155.823 395.667a550.78 550.78 0 0 0 353.68.177" style="fill:none;stroke:#fff;stroke-width:.556547;stroke-linecap:round;stroke-miterlimit:4;stroke-dasharray:none;stroke-opacity:1" transform="translate(-34.584 -125.48)"/><path d="M158.516 428.545a550.78 550.78 0 0 0 350.986-.732" style="fill:none;stroke:#fff;stroke-width:.556547;stroke-linecap:round;stroke-miterlimit:4;stroke-dasharray:none;stroke-opacity:1" transform="translate(-34.584 -125.48)"/><path d="M136.783 452.752a550.78 550.78 0 0 0 392.276 0M520.43 450.928V420.78M520.43 418.955V388.81M520.43 386.984v-30.147M520.43 355.012v-30.147M520.43 323.04v-30.147M520.43 291.068V260.92M520.43 259.096V228.95M520.43 227.124v-30.146M520.43 195.153v-30.148M520.43 163.18h43.544M520.43 165.005h31.935M554.19 165.005h9.784M520.43 195.153h31.935M554.19 195.153h9.784M520.43 196.978h31.935M554.19 196.978h9.784M520.43 227.124h31.935M554.19 227.124h9.784M520.43 228.95h31.935M554.19 228.95h9.784M520.43 259.096h31.935M554.19 259.096h9.784M520.43 260.921h31.935M554.19 260.921h9.784M520.43 291.068h31.935M554.19 291.068h9.784M520.43 292.893h31.935M554.19 292.893h9.784M520.43 323.04h31.935M554.19 323.04h9.784M520.43 324.865h31.935M554.19 324.865h9.784M520.43 355.012h31.935M554.19 355.012h9.784M520.43 356.837h31.935M554.19 356.837h9.784M520.43 386.984h31.935M554.19 386.984h9.784M520.43 388.809h31.935M554.19 388.809h9.784M520.43 418.955h31.935M554.19 418.955h9.784M520.43 420.78h31.935M554.19 420.78h9.784M520.43 450.928h31.935M554.19 450.928h9.784M520.43 452.752h43.544M162.969 163.18h-60.184M162.672 165.005H130.07M128.214 165.005h-25.429M157.265 195.153h-32.303M123.117 195.153h-20.332M156.984 196.978h-32.292M122.848 196.978h-20.063M153.007 227.124h-32.123M119.05 227.124h-16.265M152.807 228.95h-32.114M118.858 228.95h-16.073M150.169 259.096h-32.004M116.337 259.096h-13.552M150.05 260.921h-32M116.222 260.921h-13.437M148.734 291.068H116.79M114.965 291.068h-12.18M148.694 292.893h-31.941M114.927 292.893h-12.142M148.694 323.04h-31.941M114.927 323.04h-12.142M148.734 324.865H116.79M114.965 324.865h-12.18M150.05 355.012h-32M116.222 355.012h-13.437M150.169 356.837h-32.004M116.337 356.837h-13.552M152.807 386.984h-32.114M118.858 386.984h-16.073M153.007 388.809h-32.123M119.05 388.809h-16.265M156.984 418.955h-32.292M122.848 418.955h-20.063M157.265 420.78h-32.303M123.117 420.78h-20.332M162.603 450.928h-32.532M128.214 450.928h-25.429M162.969 452.752H130.42M130.42 452.752h-27.635M157.265 420.78a733.615 733.615 0 0 0 5.338 30.148M153.007 388.809a733.615 733.615 0 0 0 3.977 30.146M150.169 356.837a733.615 733.615 0 0 0 2.638 30.147M148.734 324.865a733.615 733.615 0 0 0 1.316 30.147M148.694 292.893a733.615 733.615 0 0 0 0 30.147M150.05 260.921a733.615 733.615 0 0 0-1.316 30.147M152.807 228.95a733.615 733.615 0 0 0-2.638 30.146M156.998 196.886a733.615 733.615 0 0 0-3.991 30.238M162.603 165.005a733.615 733.615 0 0 0-5.338 30.148M130.07 165.005a765.55 765.55 0 0 0-5.108 30.148M124.692 196.978a765.55 765.55 0 0 0-3.808 30.146M120.693 228.95a765.55 765.55 0 0 0-2.528 30.146M118.05 260.921a765.55 765.55 0 0 0-1.26 30.147M116.753 292.893a765.55 765.55 0 0 0 0 30.147M116.79 324.865a765.55 765.55 0 0 0 1.26 30.147M118.165 356.837a765.55 765.55 0 0 0 2.528 30.147M120.884 388.809a765.55 765.55 0 0 0 3.808 30.146M124.962 420.78a765.55 765.55 0 0 0 5.109 30.148M552.365 195.153v-30.148M552.365 227.124v-30.146M552.365 259.096V228.95M552.365 291.068V260.92M552.365 323.04v-30.147M552.365 355.012v-30.147M552.365 386.984v-30.147M552.365 418.955V388.81M552.365 450.928V420.78M554.19 195.153v-30.148M554.19 227.124v-30.146M554.19 259.096V228.95M554.19 291.068V260.92M554.19 323.04v-30.147M554.19 355.012v-30.147M554.19 386.984v-30.147M554.19 418.955V388.81M554.19 450.928V420.78M128.214 165.005a767.375 767.375 0 0 0-5.097 30.148M122.848 196.978a767.375 767.375 0 0 0-3.799 30.146M118.858 228.95a767.375 767.375 0 0 0-2.521 30.146M116.222 260.921a767.375 767.375 0 0 0-1.257 30.147M114.927 292.893a767.375 767.375 0 0 0 0 30.147M114.965 324.865a767.375 767.375 0 0 0 1.257 30.147M116.337 356.837a767.375 767.375 0 0 0 2.52 30.147M119.05 388.809a767.375 767.375 0 0 0 3.798 30.146M123.117 420.78a767.375 767.375 0 0 0 5.097 30.148M520.43 452.752a1.14 1.14 0 0 0 0-1.824M520.43 420.78a1.14 1.14 0 0 0 0-1.825M520.43 388.809a1.14 1.14 0 0 0 0-1.825M520.43 356.837a1.14 1.14 0 0 0 0-1.825M520.43 324.865a1.14 1.14 0 0 0 0-1.825M520.43 292.893a1.14 1.14 0 0 0 0-1.825M520.43 260.921a1.14 1.14 0 0 0 0-1.825M520.43 228.95a1.14 1.14 0 0 0 0-1.826M520.43 196.978a1.14 1.14 0 0 0 0-1.825M520.43 165.005a1.14 1.14 0 0 0 0-1.825M162.969 163.18a1.177 1.177 0 0 0-.363 1.825" style="fill:none;stroke:#fff;stroke-width:.556547;stroke-linecap:round;stroke-miterlimit:4;stroke-dasharray:none;stroke-opacity:1" transform="translate(-34.584 -125.48)"/><path d="M157.265 195.153a1.162 1.162 0 0 0-.281 1.825M153.007 227.124a1.152 1.152 0 0 0-.201 1.825M150.169 259.096a1.144 1.144 0 0 0-.121 1.825M148.734 291.068a1.141 1.141 0 0 0 0 1.825M148.694 323.04a1.141 1.141 0 0 0 0 1.825M150.05 355.012a1.144 1.144 0 0 0 .12 1.825M152.807 386.984a1.152 1.152 0 0 0 .202 1.825M156.984 418.955a1.162 1.162 0 0 0 .281 1.825M162.603 450.928a1.177 1.177 0 0 0 .362 1.824M663.644 162.101l-59.6 12.929M604.045 175.03l8.829 30.272M612.874 205.302l43.201-9.775M656.075 195.527l7.569-33.426M660.763 194.713a252.49 252.49 0 0 0-60.545 28.223M656.075 230.228a359.53 359.53 0 0 0-38.687 19.435M656.075 230.228l4.688-35.515M600.218 222.936l17.17 26.727M658.148 226.67a211.035 211.035 0 0 0-1.715.854" style="fill:none;stroke:#fff;stroke-width:.556547;stroke-linecap:round;stroke-miterlimit:4;stroke-dasharray:none;stroke-opacity:1" transform="translate(-34.584 -125.48)"/><path d="M633.977 240.611a211.035 211.035 0 0 0-33.851 28.157M656.075 263.68a359.366 359.366 0 0 0-33.636 27.593M658.148 226.67l-2.073 37.01M622.439 291.273l-22.313-22.505M619.121 287.926a166.192 166.192 0 0 0-18.252 22.225M617.197 321.899a166.192 166.192 0 0 0-16.328 20.223M617.197 353.87a166.192 166.192 0 0 0-16.328 20.225M617.197 385.843a166.192 166.192 0 0 0-16.328 20.223M617.197 417.814a166.192 166.192 0 0 0-16.328 20.224M617.197 449.786a166.192 166.192 0 0 0-16.328 20.224M656.075 297.085a150.39 150.39 0 0 0-29.106 31.844M656.075 329.057A150.39 150.39 0 0 0 626.97 360.9M656.075 361.03a150.39 150.39 0 0 0-29.106 31.843M656.075 393a150.39 150.39 0 0 0-29.106 31.845M656.075 424.973a150.39 150.39 0 0 0-29.106 31.844M656.075 456.944a150.39 150.39 0 0 0-29.106 31.845M656.075 297.085l-.112-33.32M656.075 329.057l-.112-31.88M656.075 361.03l-.112-31.881M656.075 393l-.112-31.879M656.075 424.973l-.112-31.88M656.075 456.944l-.112-31.88M626.969 328.929l-26.1-18.778M626.969 360.901l-26.1-18.779M626.969 392.873l-26.1-18.778M626.969 424.845l-26.1-18.779M626.969 456.817l-26.1-18.779M626.969 488.789l-26.1-18.78M605.796 174.519l8.83 30.272M601.754 221.95l17.169 26.727M623.735 289.988l-22.313-22.505M628.034 327.448l-26.099-18.779M628.034 359.42l-26.099-18.78M628.034 391.392l-26.099-18.779M628.034 423.364l-26.099-18.78M628.034 455.336l-26.099-18.78M628.034 487.307l-26.099-18.779M663.644 162.101l13.849 1.59M660.763 194.713l15.924 2.523M658.148 226.67l18.353 4.163M656.313 259.428l20.34 4.73M656.075 297.085l20.34 4.73M656.075 329.057l20.34 4.73M656.075 361.03l20.34 4.73M656.075 393l20.34 4.73M656.075 424.973l20.34 4.73M656.075 456.944l20.34 4.73" style="fill:none;stroke:#fff;stroke-width:.556547;stroke-linecap:round;stroke-miterlimit:4;stroke-dasharray:none;stroke-opacity:1" transform="translate(-34.584 -125.48)"/></svg>