<svg xmlns="http://www.w3.org/2000/svg" width="1280" height="720" viewBox="0 0 711.111 400"><path d="M1003.179 831.188H632.858M1003.179 863.16H631.463M1003.635 959.076H635.2M1003.635 927.104H632.402M1003.635 895.132H631.007M1003.635 799.216H637.512M1003.635 767.245h-364.22M1003.635 735.272h-358.56M635.222 927.104h367.957M634.08 895.132h369.099M635.656 959.076h367.523M639.873 767.245h363.306M635.199 799.216h367.98M645.074 1023.02h358.561M639.415 991.047h364.22M634.08 863.16h369.555M632.402 831.188h371.233M1003.179 1022.107V991.96M1003.179 990.135v-30.147M1003.179 958.163v-30.147M1003.179 926.191v-30.146M1003.179 894.22v-30.148M1003.179 862.248v-30.147M1003.179 830.276v-30.147M1003.179 798.304v-30.147M1003.179 766.332v-30.147M1003.179 734.36h43.544M1003.179 736.185h31.935M1036.94 736.185h9.783M1003.179 766.332h31.935M1036.94 766.332h9.783M1003.179 768.157h31.935M1036.94 768.157h9.783M1003.179 798.304h31.935M1036.94 798.304h9.783M1003.179 800.129h31.935M1036.94 800.129h9.783M1003.179 830.276h31.935M1036.94 830.276h9.783M1003.179 832.1h31.935M1036.94 832.1h9.783M1003.179 862.248h31.935M1036.94 862.248h9.783M1003.179 864.072h31.935M1036.94 864.072h9.783M1003.179 894.22h31.935M1036.94 894.22h9.783M1003.179 896.045h31.935M1036.94 896.045h9.783M1003.179 926.191h31.935M1036.94 926.191h9.783M1036.94 928.016h9.783M1003.179 928.016h31.935M1003.179 958.163h31.935M1036.94 958.163h9.783M1003.179 959.988h31.935M1036.94 959.988h9.783M1003.179 990.135h31.935M1036.94 990.135h9.783M1003.179 991.96h31.935M1036.94 991.96h9.783M1003.179 1022.107h31.935M1036.94 1022.107h9.783M1003.179 1023.932h43.544M645.718 734.36h-60.183M645.353 736.185H612.82M610.963 736.185h-25.428M640.015 766.332h-32.304M605.867 766.332h-20.332M639.733 768.157h-32.291M605.597 768.157h-20.062M635.757 798.304h-32.123M601.799 798.304h-16.264M635.557 800.129h-32.115M601.607 800.129h-16.072M632.918 830.276h-32.003M599.086 830.276h-13.551M632.8 832.1h-32M598.972 832.1h-13.437M631.483 862.248H599.54M597.715 862.248h-12.18M631.444 864.072h-31.942M597.676 864.072h-12.141M631.444 894.22h-31.942M597.676 894.22h-12.141M631.483 896.045H599.54M597.715 896.045h-12.18M632.8 926.191h-32M598.972 926.191h-13.437M632.918 928.016h-32.003M599.086 928.016h-13.551M635.557 958.163h-32.115M601.607 958.163h-16.072M635.757 959.988h-32.123M601.799 959.988h-16.264M639.733 990.135h-32.291M605.597 990.135h-20.062M640.015 991.96h-32.304M605.867 991.96h-20.332M610.963 1022.107h-25.428M645.353 1022.107H612.82M645.718 1023.932h-60.183M640.015 991.96a733.615 733.615 0 0 0 5.338 30.147M635.757 959.988a733.615 733.615 0 0 0 3.976 30.147M632.918 928.016a733.615 733.615 0 0 0 2.639 30.147M631.483 896.045a733.615 733.615 0 0 0 1.316 30.146M631.444 864.072a733.615 733.615 0 0 0 0 30.148M632.8 832.1a733.615 733.615 0 0 0-1.317 30.148M635.557 800.129a733.615 733.615 0 0 0-2.639 30.147M639.733 768.157a733.615 733.615 0 0 0-3.976 30.147M645.353 736.185a733.615 733.615 0 0 0-5.338 30.147M612.82 736.185a765.55 765.55 0 0 0-5.109 30.147M607.442 768.157a765.55 765.55 0 0 0-3.808 30.147M603.442 800.129a765.55 765.55 0 0 0-2.527 30.147M600.8 832.1a765.55 765.55 0 0 0-1.26 30.148M599.502 864.072a765.55 765.55 0 0 0 0 30.148M599.54 896.045a765.55 765.55 0 0 0 1.26 30.146M600.915 928.016a765.55 765.55 0 0 0 2.527 30.147M603.634 959.988a765.55 765.55 0 0 0 3.808 30.147M607.711 991.96a765.55 765.55 0 0 0 5.11 30.147M1035.114 766.332v-30.147M1035.114 798.304v-30.147M1035.114 830.276v-30.147M1035.114 862.248v-30.147M1035.114 894.22v-30.148M1035.114 926.191v-30.146M1035.114 958.163v-30.147M1035.114 990.135v-30.147M1035.114 1022.107V991.96M610.963 736.185a767.375 767.375 0 0 0-5.096 30.147M605.597 768.157a767.375 767.375 0 0 0-3.798 30.147M601.607 800.129a767.375 767.375 0 0 0-2.52 30.147M598.972 832.1a767.375 767.375 0 0 0-1.257 30.148M597.676 864.072a767.375 767.375 0 0 0 0 30.148M597.715 896.045a767.375 767.375 0 0 0 1.257 30.146M599.086 928.016a767.375 767.375 0 0 0 2.521 30.147M601.799 959.988a767.375 767.375 0 0 0 3.798 30.147M605.867 991.96a767.375 767.375 0 0 0 5.096 30.147M1036.94 766.332v-30.147M1036.94 798.304v-30.147M1036.94 830.276v-30.147M1036.94 862.248v-30.147M1036.94 894.22v-30.148M1036.94 926.191v-30.146M1036.94 958.163v-30.147M1036.94 990.135v-30.147M1036.94 1022.107V991.96M645.718 734.36a1.177 1.177 0 0 0-.362 1.825M640.015 766.332a1.162 1.162 0 0 0-.282 1.825M635.757 798.304a1.152 1.152 0 0 0-.202 1.825M632.918 830.276a1.144 1.144 0 0 0-.12 1.825M631.483 862.248a1.141 1.141 0 0 0 0 1.824M631.444 894.22a1.141 1.141 0 0 0 0 1.825M632.8 926.191a1.144 1.144 0 0 0 .12 1.825M635.557 958.163a1.152 1.152 0 0 0 .201 1.825" style="fill:none;stroke:#fff;stroke-width:.556547;stroke-linecap:round;stroke-miterlimit:4;stroke-dasharray:none;stroke-opacity:1" transform="translate(-512.593 -679.146)"/><path d="M639.733 990.135a1.162 1.162 0 0 0 .282 1.825M645.353 1022.107a1.177 1.177 0 0 0 .362 1.825M1003.179 736.185a1.14 1.14 0 0 0 0-1.824M1003.179 768.157a1.14 1.14 0 0 0 0-1.825M1003.179 800.129a1.14 1.14 0 0 0 0-1.825M1003.179 832.1a1.14 1.14 0 0 0 0-1.824M1003.179 864.072a1.14 1.14 0 0 0 0-1.824M1003.179 896.045a1.14 1.14 0 0 0 0-1.825M1003.179 928.016a1.14 1.14 0 0 0 0-1.825M1003.179 959.988a1.14 1.14 0 0 0 0-1.825M1003.179 991.96a1.14 1.14 0 0 0 0-1.825M1003.179 1023.932a1.14 1.14 0 0 0 0-1.825M1136.911 735.272l-8.357 31.657M1136.911 767.245l-8.357 31.656M1136.911 799.216l-8.357 31.657M1136.911 831.188l-8.357 31.657M1136.911 863.16l-8.357 31.657M1136.911 895.132l-8.357 31.656M1136.911 927.104l-8.357 31.656M1136.911 959.076l-8.357 31.656M1136.911 991.047l-8.357 31.657M1128.554 766.93l-44.935.313M1128.554 798.901l-44.935.314M1128.554 830.873l-44.935.314M1128.554 862.845l-44.935.314M1128.554 894.817l-44.935.313M1128.554 926.788l-44.935.314M1128.554 958.76l-44.935.314M1128.554 990.732l-44.935.314M1128.554 1022.704l-44.935.314M1083.619 767.245v-31.973M1083.619 799.216v-31.971M1083.619 831.188v-31.972M1083.619 863.16v-31.972M1083.619 895.132V863.16M1083.619 927.104v-31.972M1083.619 959.076v-31.972M1083.619 991.047v-31.971M1083.619 1023.02v-31.973M1083.619 735.272h53.292M1083.619 767.245h53.292M1083.619 799.216h53.292M1083.619 831.188h53.292M1083.619 863.16h53.292M1083.619 895.132h53.292M1083.619 927.104h53.292M1083.619 959.076h53.292M1083.619 991.047h53.292M1085.444 767.245v-31.973M1085.444 799.216v-31.971M1085.444 831.188v-31.972M1085.444 863.16v-31.972M1085.444 895.132V863.16M1085.444 927.104v-31.972M1085.444 959.076v-31.972M1085.444 991.047v-31.971M1085.444 1023.02v-31.973M1136.911 735.272h13.852M1136.911 767.245h13.852M1136.911 799.216h13.852M1136.911 831.188h13.852M1136.911 863.16h13.852M1136.911 895.132h13.852M1136.911 927.104h13.852M1136.911 959.076h13.852M1136.911 991.047h13.852" style="fill:none;stroke:#fff;stroke-width:.556547;stroke-linecap:round;stroke-miterlimit:4;stroke-dasharray:none;stroke-opacity:1" transform="translate(-512.593 -679.146)"/></svg>