<svg xmlns="http://www.w3.org/2000/svg" id="chart-psychro" width="1518.5" height="871.4" class="large no-select no-touch" preserveAspectRatio="xMinYMin" style="font-family:sans-serif;font-size:14px"><defs><marker id="markerBlueArrow" stroke-dasharray="10 0" markerHeight="20" markerWidth="25" orient="auto" refX="20" refY="10" viewBox="0 0 25 20"><path d="m5 15 15-5L5 5" class="line-blue" style="stroke-width:1px;stroke-linejoin:round;stroke-linecap:round;stroke:#00f;fill:none"/></marker><marker id="markerBlackArrow" stroke-dasharray="10 0" markerHeight="20" markerWidth="25" orient="auto" refX="20" refY="10" viewBox="0 0 25 20"><path d="m5 15 15-5L5 5" class="line-marker"/></marker><marker id="markerSelectedProcessPt" markerHeight="20" markerWidth="20" refX="10" refY="10" viewBox="0 0 20 20"><circle cx="10" cy="10" r="5.5" fill="none" stroke="#00F" stroke-opacity=".15" stroke-width="2.5"/><circle cx="10" cy="10" r="4" fill="none" stroke="#00F"/></marker><marker id="markerProcessPt" markerHeight="6" markerWidth="6" refX="3" refY="3" viewBox="0 0 6 6"><circle cx="3" cy="3" r="2" fill="#00F"/></marker><clipPath id="rectClipPath"><path d="M5 40h1473.45v791.364H5z"/></clipPath><clipPath id="psychroClipPath"><path d="m5 795.2 24.6-3.3 24.5-3.7 24.6-3.9 24.5-4.3 24.6-4.6 24.5-5 24.6-5.4 24.6-5.8 24.5-6.3 24.6-6.8 24.5-6.5 24.6-6.9 24.5-7.3 24.6-7.8 24.6-8.3 24.5-8.9 24.6-9.4 24.5-10.1 24.6-10.6 24.6-11.4 24.5-12 24.6-12.8 24.5-13.6 24.6-14.5 24.5-15.3 24.6-16.2 24.6-17.2 24.5-18.3 24.6-19.3 24.5-20.5 24.6-21.6 24.5-23 24.6-24.2 24.6-25.7 24.5-27.2 24.6-28.7 24.5-30.4 24.6-32.1 24.5-33.9 24.6-35.8 24.6-37.9 24.5-40 24.6-42.3 24.5-44.6 5.7-11.8h387.3v791.4H5Z"/></clipPath><filter id="shadow"><feGaussianBlur in="SourceAlpha" stdDeviation="6"/><feOffset dx="3" dy="3" result="offsetblur"/><feFlood flood-color="#000" flood-opacity=".15"/><feComposite in2="offsetblur" operator="in"/><feMerge><feMergeNode/><feMergeNode in="SourceGraphic"/></feMerge></filter></defs><style></style><g class="background"><path d="m5 795.2 24.6-3.3 24.5-3.7 24.6-3.9 24.5-4.3 24.6-4.6 24.5-5 24.6-5.4 24.6-5.8 24.5-6.3 24.6-6.8 24.5-6.5 24.6-6.9 24.5-7.3 24.6-7.8 24.6-8.3 24.5-8.9 24.6-9.4 24.5-10.1 24.6-10.6 24.6-11.4 24.5-12 24.6-12.8 24.5-13.6 24.6-14.5 24.5-15.3 24.6-16.2 24.6-17.2 24.5-18.3 24.6-19.3 24.5-20.5 24.6-21.6 24.5-23 24.6-24.2 24.6-25.7 24.5-27.2 24.6-28.7 24.5-30.4 24.6-32.1 24.5-33.9 24.6-35.8 24.6-37.9 24.5-40 24.6-42.3 24.5-44.6 5.7-11.8h387.3v791.4H5Z" class="stroke-grid fill-white" style="filter:url(#shadow);stroke:#888!important;stroke-width:.5px;stroke-opacity:.5;fill:#fff"/><text x="5" y="10" dy=".4em" font-size="1.1em">Psychrometric Chart</text><text x="1478" y="10" fill="gray" dy=".4em" font-size="1.1em" font-style="italic" font-weight="lighter" text-anchor="end">Temperature/Humidity Distribution Hrs</text></g><g class="data" clip-path="url(#psychroClipPath)"><path fill="#E6E6FF" d="M7 806.8h20.6v-18.7H7z"/><path fill="#E5E5FF" d="M31.6 806.8h20.5v-18.7H31.6z"/><path fill="#DFDFFF" d="M56.1 806.8h20.6v-18.7H56.1z"/><path fill="#E4E4FF" d="M80.7 806.8h20.5v-18.7H80.7z"/><path fill="#E5E5FF" d="M105.2 806.8h20.6v-18.7h-20.6zM129.8 806.8h20.5v-18.7h-20.5zM154.3 806.8h20.6v-18.7h-20.6z"/><path fill="#E4E4FF" d="M178.9 806.8h20.6v-18.7h-20.6z"/><path fill="#E3E3FF" d="M203.5 806.8H224v-18.7h-20.5z"/><path fill="#E4E4FF" d="M228 806.8h20.6v-18.7H228z"/><path fill="#E5E5FF" d="M252.6 806.8h20.5v-18.7h-20.5z"/><path fill="#E3E3FF" d="M301.7 806.8h20.5v-18.7h-20.5z"/><path fill="#E6E6FF" d="M350.8 806.8h20.6v-18.7h-20.6zM56.1 784.1h20.6v-18.6H56.1z"/><path fill="#E0E0FF" d="M80.7 784.1h20.5v-18.6H80.7z"/><path fill="#E1E1FF" d="M105.2 784.1h20.6v-18.6h-20.6z"/><path fill="#DDF" d="M129.8 784.1h20.5v-18.6h-20.5z"/><path fill="#D3D3FF" d="M154.3 784.1h20.6v-18.6h-20.6z"/><path fill="#BBF" d="M178.9 784.1h20.6v-18.6h-20.6z"/><path fill="#A0A0FF" d="M203.5 784.1H224v-18.6h-20.5z"/><path fill="#C7C7FF" d="M228 784.1h20.6v-18.6H228z"/><path fill="#DBDBFF" d="M252.6 784.1h20.5v-18.6h-20.5z"/><path fill="#DDF" d="M277.1 784.1h20.6v-18.6h-20.6z"/><path fill="#E1E1FF" d="M301.7 784.1h20.5v-18.6h-20.5z"/><path fill="#E4E4FF" d="M326.2 784.1h20.6v-18.6h-20.6z"/><path fill="#E3E3FF" d="M350.8 784.1h20.6v-18.6h-20.6z"/><path fill="#E5E5FF" d="M375.4 784.1h20.5v-18.6h-20.5z"/><path fill="#E6E6FF" d="M399.9 784.1h20.6v-18.6h-20.6z"/><path fill="#E4E4FF" d="M424.5 784.1H445v-18.6h-20.5z"/><path fill="#E6E6FF" d="M449 784.1h20.6v-18.6H449zM473.6 784.1h20.6v-18.6h-20.6z"/><path fill="#E3E3FF" d="M178.9 761.5h20.6v-18.6h-20.6z"/><path fill="#B8B8FF" d="M203.5 761.5H224v-18.6h-20.5z"/><path fill="#7373FF" d="M228 761.5h20.6v-18.6H228z"/><path fill="#0606FF" d="M252.6 761.5h20.5v-18.6h-20.5z"/><path fill="#1E1EFF" d="M277.1 761.5h20.6v-18.6h-20.6z"/><path fill="#7F7FFF" d="M301.7 761.5h20.5v-18.6h-20.5z"/><path fill="#9F9FFF" d="M326.2 761.5h20.6v-18.6h-20.6z"/><path fill="#AEAEFF" d="M350.8 761.5h20.6v-18.6h-20.6z"/><path fill="#B2B2FF" d="M375.4 761.5h20.5v-18.6h-20.5z"/><path fill="#CACAFF" d="M399.9 761.5h20.6v-18.6h-20.6z"/><path fill="#D6D6FF" d="M424.5 761.5H445v-18.6h-20.5z"/><path fill="#DEDEFF" d="M449 761.5h20.6v-18.6H449z"/><path fill="#DFDFFF" d="M473.6 761.5h20.6v-18.6h-20.6z"/><path fill="#E3E3FF" d="M498.2 761.5h20.5v-18.6h-20.5z"/><path fill="#E6E6FF" d="M252.6 738.9h20.5v-18.6h-20.5z"/><path fill="#C9C9FF" d="M277.1 738.9h20.6v-18.6h-20.6z"/><path fill="#6969FF" d="M301.7 738.9h20.5v-18.6h-20.5z"/><path fill="#3C3CFF" d="M326.2 738.9h20.6v-18.6h-20.6z"/><path fill="#1818FF" d="M350.8 738.9h20.6v-18.6h-20.6z"/><path fill="#2C2CFF" d="M375.4 738.9h20.5v-18.6h-20.5z"/><path fill="#5151FF" d="M399.9 738.9h20.6v-18.6h-20.6z"/><path fill="#8D8DFF" d="M424.5 738.9H445v-18.6h-20.5z"/><path fill="#B7B7FF" d="M449 738.9h20.6v-18.6H449z"/><path fill="#CACAFF" d="M473.6 738.9h20.6v-18.6h-20.6z"/><path fill="#CDCDFF" d="M498.2 738.9h20.5v-18.6h-20.5z"/><path fill="#E1E1FF" d="M522.7 738.9h20.6v-18.6h-20.6zM547.3 738.9h20.5v-18.6h-20.5z"/><path fill="#E2E2FF" d="M571.8 738.9h20.6v-18.6h-20.6z"/><path fill="#E3E3FF" d="M596.4 738.9h20.5v-18.6h-20.5z"/><path fill="#E4E4FF" d="M620.9 738.9h20.6v-18.6h-20.6z"/><path fill="#E2E2FF" d="M645.5 738.9h20.6v-18.6h-20.6z"/><path fill="#E5E5FF" d="M719.2 738.9h20.5v-18.6h-20.5z"/><path fill="#D1D1FF" d="M350.8 716.3h20.6v-18.6h-20.6z"/><path fill="#8585FF" d="M375.4 716.3h20.5v-18.6h-20.5z"/><path fill="#2C2CFF" d="M399.9 716.3h20.6v-18.6h-20.6z"/><path fill="#00F" d="M424.5 716.3H445v-18.6h-20.5z"/><path fill="#3737FF" d="M449 716.3h20.6v-18.6H449z"/><path fill="#6969FF" d="M473.6 716.3h20.6v-18.6h-20.6z"/><path fill="#AFAFFF" d="M498.2 716.3h20.5v-18.6h-20.5z"/><path fill="#C3C3FF" d="M522.7 716.3h20.6v-18.6h-20.6z"/><path fill="#CECEFF" d="M547.3 716.3h20.5v-18.6h-20.5z"/><path fill="#D2D2FF" d="M571.8 716.3h20.6v-18.6h-20.6z"/><path fill="#DDF" d="M596.4 716.3h20.5v-18.6h-20.5z"/><path fill="#D6D6FF" d="M620.9 716.3h20.6v-18.6h-20.6z"/><path fill="#D8D8FF" d="M645.5 716.3h20.6v-18.6h-20.6z"/><path fill="#DDF" d="M670.1 716.3h20.5v-18.6h-20.5zM694.6 716.3h20.6v-18.6h-20.6z"/><path fill="#E3E3FF" d="M719.2 716.3h20.5v-18.6h-20.5z"/><path fill="#E6E6FF" d="M842 716.3h20.5v-18.6H842zM866.5 716.3h20.6v-18.6h-20.6z"/><path fill="#E4E4FF" d="M891.1 716.3h20.5v-18.6h-20.5z"/><path fill="#E1E1FF" d="M399.9 693.7h20.6v-18.6h-20.6z"/><path fill="#9F9FFF" d="M424.5 693.7H445v-18.6h-20.5z"/><path fill="#6060FF" d="M449 693.7h20.6v-18.6H449z"/><path fill="#4B4BFF" d="M473.6 693.7h20.6v-18.6h-20.6z"/><path fill="#6464FF" d="M498.2 693.7h20.5v-18.6h-20.5z"/><path fill="#8787FF" d="M522.7 693.7h20.6v-18.6h-20.6z"/><path fill="#ABABFF" d="M547.3 693.7h20.5v-18.6h-20.5z"/><path fill="#ACACFF" d="M571.8 693.7h20.6v-18.6h-20.6z"/><path fill="#B6B6FF" d="M596.4 693.7h20.5v-18.6h-20.5z"/><path fill="#BABAFF" d="M620.9 693.7h20.6v-18.6h-20.6z"/><path fill="#CDCDFF" d="M645.5 693.7h20.6v-18.6h-20.6z"/><path fill="#D0D0FF" d="M670.1 693.7h20.5v-18.6h-20.5z"/><path fill="#D8D8FF" d="M694.6 693.7h20.6v-18.6h-20.6z"/><path fill="#DEDEFF" d="M719.2 693.7h20.5v-18.6h-20.5z"/><path fill="#E2E2FF" d="M743.7 693.7h20.6v-18.6h-20.6z"/><path fill="#E5E5FF" d="M768.3 693.7h20.5v-18.6h-20.5z"/><path fill="#E6E6FF" d="M792.8 693.7h20.6v-18.6h-20.6z"/><path fill="#E1E1FF" d="M817.4 693.7H838v-18.6h-20.6z"/><path fill="#E4E4FF" d="M842 693.7h20.5v-18.6H842zM866.5 693.7h20.6v-18.6h-20.6zM891.1 693.7h20.5v-18.6h-20.5z"/><path fill="#E2E2FF" d="M449 671.1h20.6v-18.6H449z"/><path fill="#B7B7FF" d="M473.6 671.1h20.6v-18.6h-20.6z"/><path fill="#5B5BFF" d="M498.2 671.1h20.5v-18.6h-20.5z"/><path fill="#2323FF" d="M522.7 671.1h20.6v-18.6h-20.6z"/><path fill="#5454FF" d="M547.3 671.1h20.5v-18.6h-20.5z"/><path fill="#6161FF" d="M571.8 671.1h20.6v-18.6h-20.6z"/><path fill="#9E9EFF" d="M596.4 671.1h20.5v-18.6h-20.5z"/><path fill="#BABAFF" d="M620.9 671.1h20.6v-18.6h-20.6z"/><path fill="#B9B9FF" d="M645.5 671.1h20.6v-18.6h-20.6z"/><path fill="#BFBFFF" d="M670.1 671.1h20.5v-18.6h-20.5z"/><path fill="#C7C7FF" d="M694.6 671.1h20.6v-18.6h-20.6z"/><path fill="#C8C8FF" d="M719.2 671.1h20.5v-18.6h-20.5z"/><path fill="#D6D6FF" d="M743.7 671.1h20.6v-18.6h-20.6zM768.3 671.1h20.5v-18.6h-20.5z"/><path fill="#E0E0FF" d="M792.8 671.1h20.6v-18.6h-20.6z"/><path fill="#E5E5FF" d="M817.4 671.1H838v-18.6h-20.6z"/><path fill="#E3E3FF" d="M842 671.1h20.5v-18.6H842z"/><path fill="#E5E5FF" d="M866.5 671.1h20.6v-18.6h-20.6z"/><path fill="#BFBFFF" d="M522.7 648.5h20.6v-18.6h-20.6z"/><path fill="#6F6FFF" d="M547.3 648.5h20.5v-18.6h-20.5z"/><path fill="#5454FF" d="M571.8 648.5h20.6v-18.6h-20.6z"/><path fill="#8585FF" d="M596.4 648.5h20.5v-18.6h-20.5z"/><path fill="#A6A6FF" d="M620.9 648.5h20.6v-18.6h-20.6z"/><path fill="#A8A8FF" d="M645.5 648.5h20.6v-18.6h-20.6z"/><path fill="#B9B9FF" d="M670.1 648.5h20.5v-18.6h-20.5z"/><path fill="#C7C7FF" d="M694.6 648.5h20.6v-18.6h-20.6z"/><path fill="#C5C5FF" d="M719.2 648.5h20.5v-18.6h-20.5z"/><path fill="#D9D9FF" d="M743.7 648.5h20.6v-18.6h-20.6z"/><path fill="#DBDBFF" d="M768.3 648.5h20.5v-18.6h-20.5z"/><path fill="#D8D8FF" d="M792.8 648.5h20.6v-18.6h-20.6z"/><path fill="#DFDFFF" d="M817.4 648.5H838v-18.6h-20.6z"/><path fill="#E1E1FF" d="M842 648.5h20.5v-18.6H842z"/><path fill="#E4E4FF" d="M866.5 648.5h20.6v-18.6h-20.6z"/><path fill="#E6E6FF" d="M940.2 648.5h20.5v-18.6h-20.5z"/><path fill="#E1E1FF" d="M547.3 625.9h20.5v-18.6h-20.5z"/><path fill="#B2B2FF" d="M571.8 625.9h20.6v-18.6h-20.6z"/><path fill="#7171FF" d="M596.4 625.9h20.5v-18.6h-20.5z"/><path fill="#8787FF" d="M620.9 625.9h20.6v-18.6h-20.6z"/><path fill="#BABAFF" d="M645.5 625.9h20.6v-18.6h-20.6z"/><path fill="#B2B2FF" d="M670.1 625.9h20.5v-18.6h-20.5z"/><path fill="#CCF" d="M694.6 625.9h20.6v-18.6h-20.6z"/><path fill="#CBCBFF" d="M719.2 625.9h20.5v-18.6h-20.5z"/><path fill="#C3C3FF" d="M743.7 625.9h20.6v-18.6h-20.6z"/><path fill="#D3D3FF" d="M768.3 625.9h20.5v-18.6h-20.5z"/><path fill="#D8D8FF" d="M792.8 625.9h20.6v-18.6h-20.6z"/><path fill="#DEDEFF" d="M817.4 625.9H838v-18.6h-20.6z"/><path fill="#DFDFFF" d="M842 625.9h20.5v-18.6H842z"/><path fill="#E0E0FF" d="M866.5 625.9h20.6v-18.6h-20.6z"/><path fill="#E1E1FF" d="M891.1 625.9h20.5v-18.6h-20.5z"/><path fill="#E3E3FF" d="M915.6 625.9h20.6v-18.6h-20.6z"/><path fill="#E5E5FF" d="M940.2 625.9h20.5v-18.6h-20.5z"/><path fill="#E6E6FF" d="M989.3 625.9h20.6v-18.6h-20.6zM1013.9 625.9h20.5v-18.6h-20.5z"/><path fill="#CFCFFF" d="M596.4 603.3h20.5v-18.7h-20.5z"/><path fill="#9898FF" d="M620.9 603.3h20.6v-18.7h-20.6z"/><path fill="#A9A9FF" d="M645.5 603.3h20.6v-18.7h-20.6z"/><path fill="#BBF" d="M670.1 603.3h20.5v-18.7h-20.5z"/><path fill="#C7C7FF" d="M694.6 603.3h20.6v-18.7h-20.6z"/><path fill="#D3D3FF" d="M719.2 603.3h20.5v-18.7h-20.5z"/><path fill="#D9D9FF" d="M743.7 603.3h20.6v-18.7h-20.6z"/><path fill="#DDF" d="M768.3 603.3h20.5v-18.7h-20.5z"/><path fill="#D2D2FF" d="M792.8 603.3h20.6v-18.7h-20.6z"/><path fill="#DDF" d="M817.4 603.3H838v-18.7h-20.6z"/><path fill="#DFDFFF" d="M842 603.3h20.5v-18.7H842z"/><path fill="#E1E1FF" d="M866.5 603.3h20.6v-18.7h-20.6z"/><path fill="#E0E0FF" d="M891.1 603.3h20.5v-18.7h-20.5z"/><path fill="#E2E2FF" d="M915.6 603.3h20.6v-18.7h-20.6z"/><path fill="#E6E6FF" d="M940.2 603.3h20.5v-18.7h-20.5z"/><path fill="#E5E5FF" d="M964.7 603.3h20.6v-18.7h-20.6z"/><path fill="#E6E6FF" d="M989.3 603.3h20.6v-18.7h-20.6zM1013.9 603.3h20.5v-18.7h-20.5z"/><path fill="#C5C5FF" d="M645.5 580.6h20.6V562h-20.6zM670.1 580.6h20.5V562h-20.5z"/><path fill="#CCF" d="M694.6 580.6h20.6V562h-20.6z"/><path fill="#D2D2FF" d="M719.2 580.6h20.5V562h-20.5z"/><path fill="#D8D8FF" d="M743.7 580.6h20.6V562h-20.6z"/><path fill="#D7D7FF" d="M768.3 580.6h20.5V562h-20.5z"/><path fill="#D9D9FF" d="M792.8 580.6h20.6V562h-20.6z"/><path fill="#E1E1FF" d="M817.4 580.6H838V562h-20.6z"/><path fill="#DCDCFF" d="M842 580.6h20.5V562H842z"/><path fill="#E2E2FF" d="M866.5 580.6h20.6V562h-20.6z"/><path fill="#E0E0FF" d="M891.1 580.6h20.5V562h-20.5z"/><path fill="#E1E1FF" d="M915.6 580.6h20.6V562h-20.6z"/><path fill="#E4E4FF" d="M940.2 580.6h20.5V562h-20.5z"/><path fill="#E5E5FF" d="M964.7 580.6h20.6V562h-20.6z"/><path fill="#E6E6FF" d="M989.3 580.6h20.6V562h-20.6zM1013.9 580.6h20.5V562h-20.5z"/><path fill="#E5E5FF" d="M1038.4 580.6h20.6V562h-20.6z"/><path fill="#E6E6FF" d="M1063 580.6h20.5V562H1063zM1087.5 580.6h20.6V562h-20.6z"/><path fill="#E2E2FF" d="M670.1 558h20.5v-18.6h-20.5z"/><path fill="#D6D6FF" d="M694.6 558h20.6v-18.6h-20.6z"/><path fill="#D7D7FF" d="M719.2 558h20.5v-18.6h-20.5z"/><path fill="#E1E1FF" d="M743.7 558h20.6v-18.6h-20.6z"/><path fill="#DFDFFF" d="M768.3 558h20.5v-18.6h-20.5z"/><path fill="#DDF" d="M792.8 558h20.6v-18.6h-20.6z"/><path fill="#DEDEFF" d="M817.4 558H838v-18.6h-20.6z"/><path fill="#E2E2FF" d="M842 558h20.5v-18.6H842z"/><path fill="#DCDCFF" d="M866.5 558h20.6v-18.6h-20.6z"/><path fill="#E3E3FF" d="M891.1 558h20.5v-18.6h-20.5z"/><path fill="#E1E1FF" d="M915.6 558h20.6v-18.6h-20.6z"/><path fill="#E5E5FF" d="M1013.9 558h20.5v-18.6h-20.5zM694.6 535.4h20.6v-18.6h-20.6z"/><path fill="#E1E1FF" d="M719.2 535.4h20.5v-18.6h-20.5z"/><path fill="#DEDEFF" d="M743.7 535.4h20.6v-18.6h-20.6z"/><path fill="#E1E1FF" d="M768.3 535.4h20.5v-18.6h-20.5z"/><path fill="#E4E4FF" d="M792.8 535.4h20.6v-18.6h-20.6z"/><path fill="#E1E1FF" d="M817.4 535.4H838v-18.6h-20.6z"/><path fill="#DBDBFF" d="M842 535.4h20.5v-18.6H842z"/><path fill="#DFDFFF" d="M866.5 535.4h20.6v-18.6h-20.6z"/><path fill="#E2E2FF" d="M891.1 535.4h20.5v-18.6h-20.5z"/><path fill="#E4E4FF" d="M915.6 535.4h20.6v-18.6h-20.6zM940.2 535.4h20.5v-18.6h-20.5zM964.7 535.4h20.6v-18.6h-20.6z"/><path fill="#E5E5FF" d="M989.3 535.4h20.6v-18.6h-20.6zM1013.9 535.4h20.5v-18.6h-20.5z"/><path fill="#E6E6FF" d="M1038.4 535.4h20.6v-18.6h-20.6zM1087.5 535.4h20.6v-18.6h-20.6zM743.7 512.8h20.6v-18.6h-20.6z"/><path fill="#E2E2FF" d="M768.3 512.8h20.5v-18.6h-20.5z"/><path fill="#E5E5FF" d="M792.8 512.8h20.6v-18.6h-20.6z"/><path fill="#E4E4FF" d="M817.4 512.8H838v-18.6h-20.6z"/><path fill="#E2E2FF" d="M842 512.8h20.5v-18.6H842z"/><path fill="#E5E5FF" d="M866.5 512.8h20.6v-18.6h-20.6zM891.1 512.8h20.5v-18.6h-20.5z"/><path fill="#E4E4FF" d="M915.6 512.8h20.6v-18.6h-20.6zM940.2 512.8h20.5v-18.6h-20.5zM1013.9 512.8h20.5v-18.6h-20.5z"/><path fill="#E6E6FF" d="M1038.4 512.8h20.6v-18.6h-20.6zM1063 512.8h20.5v-18.6H1063z"/><path fill="#E5E5FF" d="M940.2 490.2h20.5v-18.6h-20.5z"/><path fill="#E6E6FF" d="M989.3 490.2h20.6v-18.6h-20.6z"/></g><g class="grid"><path d="M5 831.364v-36.149" class="line-grid"/><path d="M5 838.364v-7" class="line-axis"/><text x="5" y="838.364" class="text-grid" dy="1em" text-anchor="middle">-10</text><path d="M127.788 831.364v-55.959" class="line-grid"/><path d="M127.788 838.364v-7" class="line-axis"/><text x="127.788" y="838.364" class="text-grid" dy="1em" text-anchor="middle">-5</text><path d="M250.575 831.364v-85.3" class="line-grid"/><path d="M250.575 838.364v-7" class="line-axis"/><text x="250.575" y="838.364" class="text-grid" dy="1em" text-anchor="middle">0</text><path d="M373.363 831.364V709.273" class="line-grid"/><path d="M373.363 838.364v-7" class="line-axis"/><text x="373.363" y="838.364" class="text-grid" dy="1em" text-anchor="middle">5</text><path d="M496.15 831.364v-172.45" class="line-grid"/><path d="M496.15 838.364v-7" class="line-axis"/><text x="496.15" y="838.364" class="text-grid" dy="1em" text-anchor="middle">10</text><path d="M618.938 831.364V590.717" class="line-grid"/><path d="M618.938 838.364v-7" class="line-axis"/><text x="618.938" y="838.364" class="text-grid" dy="1em" text-anchor="middle">15</text><path d="M741.725 831.364V499.237" class="line-grid"/><path d="M741.725 838.364v-7" class="line-axis"/><text x="741.725" y="838.364" class="text-grid" dy="1em" text-anchor="middle">20</text><path d="M864.513 831.364V377.507" class="line-grid"/><path d="M864.513 838.364v-7" class="line-axis"/><text x="864.513" y="838.364" class="text-grid" dy="1em" text-anchor="middle">25</text><path d="M987.3 831.364V216.556" class="line-grid"/><path d="M987.3 838.364v-7" class="line-axis"/><text x="987.3" y="838.364" class="text-grid" dy="1em" text-anchor="middle">30</text><path d="M1110.088 831.364V40" class="line-grid"/><path d="M1110.088 838.364v-7" class="line-axis"/><text x="1110.088" y="838.364" class="text-grid" dy="1em" text-anchor="middle">35</text><path d="M1232.875 831.364V40" class="line-grid"/><path d="M1232.875 838.364v-7" class="line-axis"/><text x="1232.875" y="838.364" class="text-grid" dy="1em" text-anchor="middle">40</text><path d="M1355.663 831.364V40" class="line-grid"/><path d="M1355.663 838.364v-7" class="line-axis"/><text x="1355.663" y="838.364" class="text-grid" dy="1em" text-anchor="middle">45</text><path d="M1478.45 831.364V40" class="line-grid"/><path d="M1478.45 838.364v-7" class="line-axis"/><path d="M5 831.364v-36.149" class="line-grid"/><path d="M5 831.364v4" class="line-axis"/><path d="M29.558 831.364v-39.501" class="line-grid"/><path d="M29.558 831.364v4" class="line-axis"/><path d="M54.115 831.364v-43.136" class="line-grid"/><path d="M54.115 831.364v4" class="line-axis"/><path d="M78.672 831.364v-47.075" class="line-grid"/><path d="M78.672 831.364v4" class="line-axis"/><path d="M103.23 831.364v-51.341" class="line-grid"/><path d="M103.23 831.364v4" class="line-axis"/><path d="M127.788 831.364v-55.959" class="line-grid"/><path d="M127.788 831.364v4" class="line-axis"/><path d="M152.345 831.364V770.41" class="line-grid"/><path d="M152.345 831.364v4" class="line-axis"/><path d="M176.903 831.364v-66.355" class="line-grid"/><path d="M176.903 831.364v4" class="line-axis"/><path d="M201.46 831.364v-72.192" class="line-grid"/><path d="M201.46 831.364v4" class="line-axis"/><path d="M226.018 831.364v-78.495" class="line-grid"/><path d="M226.018 831.364v4" class="line-axis"/><path d="M250.575 831.364v-85.3" class="line-grid"/><path d="M250.575 831.364v4" class="line-axis"/><path d="M275.132 831.364v-91.751" class="line-grid"/><path d="M275.132 831.364v4" class="line-axis"/><path d="M299.69 831.364V732.74" class="line-grid"/><path d="M299.69 831.364v4" class="line-axis"/><path d="M324.248 831.364V725.41" class="line-grid"/><path d="M324.248 831.364v4" class="line-axis"/><path d="M348.805 831.364V717.596" class="line-grid"/><path d="M348.805 831.364v4" class="line-axis"/><path d="M373.363 831.364V709.273" class="line-grid"/><path d="M373.363 831.364v4" class="line-axis"/><path d="M397.92 831.364V700.409" class="line-grid"/><path d="M397.92 831.364v4" class="line-axis"/><path d="M422.478 831.364v-140.39" class="line-grid"/><path d="M422.478 831.364v4" class="line-axis"/><path d="M447.035 831.364V680.936" class="line-grid"/><path d="M447.035 831.364v4" class="line-axis"/><path d="M471.593 831.364V670.261" class="line-grid"/><path d="M471.593 831.364v4" class="line-axis"/><path d="M496.15 831.364v-172.45" class="line-grid"/><path d="M496.15 831.364v4" class="line-axis"/><path d="M520.707 831.364V646.857" class="line-grid"/><path d="M520.707 831.364v4" class="line-axis"/><path d="M545.265 831.364V634.051" class="line-grid"/><path d="M545.265 831.364v4" class="line-axis"/><path d="M569.822 831.364V620.455" class="line-grid"/><path d="M569.822 831.364v4" class="line-axis"/><path d="M594.38 831.364V606.026" class="line-grid"/><path d="M594.38 831.364v4" class="line-axis"/><path d="M618.938 831.364V590.717" class="line-grid"/><path d="M618.938 831.364v4" class="line-axis"/><path d="M643.495 831.364V574.482" class="line-grid"/><path d="M643.495 831.364v4" class="line-axis"/><path d="M668.053 831.364V557.271" class="line-grid"/><path d="M668.053 831.364v4" class="line-axis"/><path d="M692.61 831.364V539.03" class="line-grid"/><path d="M692.61 831.364v4" class="line-axis"/><path d="M717.168 831.364V519.705" class="line-grid"/><path d="M717.168 831.364v4" class="line-axis"/><path d="M741.725 831.364V499.237" class="line-grid"/><path d="M741.725 831.364v4" class="line-axis"/><path d="M766.283 831.364V477.566" class="line-grid"/><path d="M766.283 831.364v4" class="line-axis"/><path d="M790.84 831.364V454.626" class="line-grid"/><path d="M790.84 831.364v4" class="line-axis"/><path d="M815.398 831.364V430.351" class="line-grid"/><path d="M815.398 831.364v4" class="line-axis"/><path d="M839.955 831.364V404.67" class="line-grid"/><path d="M839.955 831.364v4" class="line-axis"/><path d="M864.513 831.364V377.507" class="line-grid"/><path d="M864.513 831.364v4" class="line-axis"/><path d="M889.07 831.364V348.783" class="line-grid"/><path d="M889.07 831.364v4" class="line-axis"/><path d="M913.628 831.364V318.417" class="line-grid"/><path d="M913.628 831.364v4" class="line-axis"/><path d="M938.185 831.364V286.319" class="line-grid"/><path d="M938.185 831.364v4" class="line-axis"/><path d="M962.743 831.364V252.398" class="line-grid"/><path d="M962.743 831.364v4" class="line-axis"/><path d="M987.3 831.364V216.556" class="line-grid"/><path d="M987.3 831.364v4" class="line-axis"/><path d="M1011.858 831.364V178.691" class="line-grid"/><path d="M1011.858 831.364v4" class="line-axis"/><path d="M1036.415 831.364V138.693" class="line-grid"/><path d="M1036.415 831.364v4" class="line-axis"/><path d="M1060.973 831.364V96.447" class="line-grid"/><path d="M1060.973 831.364v4" class="line-axis"/><path d="M1085.53 831.364V51.831" class="line-grid"/><path d="M1085.53 831.364v4" class="line-axis"/><path d="M1110.088 831.364V40" class="line-grid"/><path d="M1110.088 831.364v4" class="line-axis"/><path d="M1134.645 831.364V40" class="line-grid"/><path d="M1134.645 831.364v4" class="line-axis"/><path d="M1159.203 831.364V40" class="line-grid"/><path d="M1159.203 831.364v4" class="line-axis"/><path d="M1183.76 831.364V40" class="line-grid"/><path d="M1183.76 831.364v4" class="line-axis"/><path d="M1208.318 831.364V40" class="line-grid"/><path d="M1208.318 831.364v4" class="line-axis"/><path d="M1232.875 831.364V40" class="line-grid"/><path d="M1232.875 831.364v4" class="line-axis"/><path d="M1257.433 831.364V40" class="line-grid"/><path d="M1257.433 831.364v4" class="line-axis"/><path d="M1281.99 831.364V40" class="line-grid"/><path d="M1281.99 831.364v4" class="line-axis"/><path d="M1306.548 831.364V40" class="line-grid"/><path d="M1306.548 831.364v4" class="line-axis"/><path d="M1331.105 831.364V40" class="line-grid"/><path d="M1331.105 831.364v4" class="line-axis"/><path d="M1355.663 831.364V40" class="line-grid"/><path d="M1355.663 831.364v4" class="line-axis"/><path d="M1380.22 831.364V40" class="line-grid"/><path d="M1380.22 831.364v4" class="line-axis"/><path d="M1404.778 831.364V40" class="line-grid"/><path d="M1404.778 831.364v4" class="line-axis"/><path d="M1429.335 831.364V40" class="line-grid"/><path d="M1429.335 831.364v4" class="line-axis"/><path d="M1453.893 831.364V40" class="line-grid"/><path d="M1453.893 831.364v4" class="line-axis"/><path d="M1478.45 831.364V40" class="line-grid"/><path d="M1478.45 831.364v4" class="line-axis"/><text x="1478.45" y="838.364" class="text-axis" dy="1em" text-anchor="middle">°C</text><text x="741.725" y="858.031" fill="slate" dy=".4em" font-size=".8em" text-anchor="middle">Dry Bulb Temperature (°C)</text><path d="M5 831.364h1473.45" class="line-grid"/><path d="M1485.45 831.364h-7" class="line-axis"/><text x="1487.45" y="831.364" class="text-grid" dy=".4em">0</text><path d="M346.864 718.312H1478.45" class="line-grid"/><path d="M1485.45 718.312h-7" class="line-axis"/><text x="1487.45" y="718.312" class="text-grid" dy=".4em">5</text><path d="M596.356 605.26h882.094" class="line-grid"/><path d="M1485.45 605.26h-7" class="line-axis"/><text x="1487.45" y="605.26" class="text-grid" dy=".4em">10</text><path d="M750.17 492.208h728.28" class="line-grid"/><path d="M1485.45 492.208h-7" class="line-axis"/><text x="1487.45" y="492.208" class="text-grid" dy=".4em">15</text><path d="M863.031 379.156h615.419" class="line-grid"/><path d="M1485.45 379.156h-7" class="line-axis"/><text x="1487.45" y="379.156" class="text-grid" dy=".4em">20</text><path d="M952.696 266.104h525.754" class="line-grid"/><path d="M1485.45 266.104h-7" class="line-axis"/><text x="1487.45" y="266.104" class="text-grid" dy=".4em">25</text><path d="M1027.29 153.052h451.16" class="line-grid"/><path d="M1485.45 153.052h-7" class="line-axis"/><text x="1487.45" y="153.052" class="text-grid" dy=".4em">30</text><path d="M1091.247 40h387.203" class="line-grid"/><path d="M1485.45 40h-7" class="line-axis"/><text x="1487.45" y="40" class="text-grid" dy=".4em">35</text><path d="M5 831.364h1473.45" class="line-grid"/><path d="M1478.45 831.364h4" class="line-axis"/><path d="M5 808.754h1473.45" class="line-grid"/><path d="M1478.45 808.754h4" class="line-axis"/><path d="M67.449 786.143H1478.45" class="line-grid"/><path d="M1478.45 786.143h4" class="line-axis"/><path d="M183.422 763.533H1478.45" class="line-grid"/><path d="M1478.45 763.533h4" class="line-axis"/><path d="M269.803 740.922H1478.45" class="line-grid"/><path d="M1478.45 740.922h4" class="line-axis"/><path d="M346.864 718.312H1478.45" class="line-grid"/><path d="M1478.45 718.312h4" class="line-axis"/><path d="M410.946 695.702H1478.45" class="line-grid"/><path d="M1478.45 695.702h4" class="line-axis"/><path d="M465.96 673.091h1012.49" class="line-grid"/><path d="M1478.45 673.091h4" class="line-axis"/><path d="M514.258 650.481h964.192" class="line-grid"/><path d="M1478.45 650.481h4" class="line-axis"/><path d="M557.372 627.87h921.078" class="line-grid"/><path d="M1478.45 627.87h4" class="line-axis"/><path d="M596.356 605.26h882.094" class="line-grid"/><path d="M1478.45 605.26h4" class="line-axis"/><path d="M631.967 582.65h846.483" class="line-grid"/><path d="M1478.45 582.65h4" class="line-axis"/><path d="M664.767 560.039h813.683" class="line-grid"/><path d="M1478.45 560.039h4" class="line-axis"/><path d="M695.187 537.429h783.263" class="line-grid"/><path d="M1478.45 537.429h4" class="line-axis"/><path d="M723.565 514.818h754.885" class="line-grid"/><path d="M1478.45 514.818h4" class="line-axis"/><path d="M750.17 492.208h728.28" class="line-grid"/><path d="M1478.45 492.208h4" class="line-axis"/><path d="M775.218 469.598h703.232" class="line-grid"/><path d="M1478.45 469.598h4" class="line-axis"/><path d="M798.89 446.987h679.56" class="line-grid"/><path d="M1478.45 446.987h4" class="line-axis"/><path d="M821.336 424.377h657.114" class="line-grid"/><path d="M1478.45 424.377h4" class="line-axis"/><path d="M842.68 401.766h635.77" class="line-grid"/><path d="M1478.45 401.766h4" class="line-axis"/><path d="M863.031 379.156h615.419" class="line-grid"/><path d="M1478.45 379.156h4" class="line-axis"/><path d="M882.479 356.546h595.971" class="line-grid"/><path d="M1478.45 356.546h4" class="line-axis"/><path d="M901.105 333.935h577.345" class="line-grid"/><path d="M1478.45 333.935h4" class="line-axis"/><path d="M918.977 311.325h559.473" class="line-grid"/><path d="M1478.45 311.325h4" class="line-axis"/><path d="M936.156 288.714h542.294" class="line-grid"/><path d="M1478.45 288.714h4" class="line-axis"/><path d="M952.696 266.104h525.754" class="line-grid"/><path d="M1478.45 266.104h4" class="line-axis"/><path d="M968.643 243.494h509.807" class="line-grid"/><path d="M1478.45 243.494h4" class="line-axis"/><path d="M984.04 220.883h494.41" class="line-grid"/><path d="M1478.45 220.883h4" class="line-axis"/><path d="M998.925 198.273h479.525" class="line-grid"/><path d="M1478.45 198.273h4" class="line-axis"/><path d="M1013.332 175.662h465.118" class="line-grid"/><path d="M1478.45 175.662h4" class="line-axis"/><path d="M1027.29 153.052h451.16" class="line-grid"/><path d="M1478.45 153.052h4" class="line-axis"/><path d="M1040.828 130.442h437.622" class="line-grid"/><path d="M1478.45 130.442h4" class="line-axis"/><path d="M1053.971 107.831h424.479" class="line-grid"/><path d="M1478.45 107.831h4" class="line-axis"/><path d="M1066.741 85.221h411.709" class="line-grid"/><path d="M1478.45 85.221h4" class="line-axis"/><path d="M1079.16 62.61h399.29" class="line-grid"/><path d="M1478.45 62.61h4" class="line-axis"/><path d="M1091.247 40h387.203" class="line-grid"/><path d="M1478.45 40h4" class="line-axis"/><text x="1480.45" y="40" class="text-axis" dy="-.8em">g/kg</text><text x="1505.117" y="435.682" fill="slate" dy="0em" font-size=".8em" text-anchor="middle" transform="rotate(90 1505.117 435.682)">Absolute Humidity (g/kg)</text><path fill="none" d="m5 827.7 24.6-.3 24.5-.3 24.6-.4 24.5-.5 24.6-.4 24.5-.5 24.6-.6 24.6-.6 24.5-.6 24.6-.7 24.5-.6 24.6-.7 24.5-.7 24.6-.8 24.6-.8 24.5-.9 24.6-1 24.5-1 24.6-1 24.6-1.2 24.5-1.2 24.6-1.3 24.5-1.3 24.6-1.5 24.5-1.5 24.6-1.6 24.6-1.7 24.5-1.9 24.6-1.9 24.5-2 24.6-2.2 24.5-2.3 24.6-2.4 24.6-2.6 24.5-2.7 24.6-2.9 24.5-3 24.6-3.2 24.5-3.4 24.6-3.6 24.6-3.8 24.5-4 24.6-4.2 24.5-4.5 24.6-4.7 24.5-5 24.6-5.2 24.6-5.6 24.5-5.8 24.6-6.2 24.5-6.5 24.6-6.9 24.5-7.3 24.6-7.7 24.6-8.1 24.5-8.6 24.6-9.1 24.5-9.6 24.6-10.1 24.6-10.7" class="line-axis stroke-dashed"/><path d="M1473.45 636.264h5" class="line-axis"/><text x="1471.45" y="636.264" class="text-grid" dy=".4em" text-anchor="end">10%</text><path fill="none" d="m5 824.1 24.6-.6 24.5-.8 24.6-.8 24.5-.8 24.6-.9 24.5-1 24.6-1.1 24.6-1.2 24.5-1.2 24.6-1.4 24.5-1.3 24.6-1.4 24.5-1.4 24.6-1.6 24.6-1.7 24.5-1.7 24.6-1.9 24.5-2 24.6-2.2 24.6-2.2 24.5-2.4 24.6-2.6 24.5-2.7 24.6-2.9 24.5-3.1 24.6-3.2 24.6-3.5 24.5-3.6 24.6-3.9 24.5-4.1 24.6-4.3 24.5-4.6 24.6-4.8L840 746l24.5-5.4 24.6-5.8 24.5-6 24.6-6.4 24.5-6.8 24.6-7.2 24.6-7.6 24.5-8 24.6-8.4 24.5-8.9 24.6-9.5 24.5-9.9 24.6-10.5 24.6-11.1 24.5-11.7 24.6-12.4 24.5-13.1 24.6-13.7 24.5-14.6 24.6-15.4 24.6-16.2 24.5-17.2 24.6-18.1 24.5-19.2 24.6-20.3 24.6-21.4" class="line-axis stroke-dashed"/><path d="M1473.45 441.163h5" class="line-axis"/><text x="1471.45" y="441.163" class="text-grid" dy=".4em" text-anchor="end">20%</text><path fill="none" d="m5 820.5 24.6-1 24.5-1.1 24.6-1.2 24.5-1.2 24.6-1.4 24.5-1.5 24.6-1.6 24.6-1.8 24.5-1.9 24.6-2 24.5-2 24.6-2 24.5-2.2 24.6-2.4 24.6-2.5 24.5-2.6 24.6-2.9 24.5-3 24.6-3.2 24.6-3.4 24.5-3.6 24.6-3.8 24.5-4.1 24.6-4.3 24.5-4.6 24.6-4.9 24.6-5.2 24.5-5.4 24.6-5.8 24.5-6.2 24.6-6.5 24.5-6.9 24.6-7.2 24.6-7.7 24.5-8.2 24.6-8.6 24.5-9.1 24.6-9.6 24.5-10.2 24.6-10.8 24.6-11.3 24.5-12 24.6-12.7 24.5-13.4 24.6-14.1 24.5-15 24.6-15.7 24.6-16.7 24.5-17.5 24.6-18.6 24.5-19.6 24.6-20.6 24.5-21.9 24.6-23.1 24.6-24.3 24.5-25.8 24.6-27.2 24.5-28.8 24.6-30.4 24.6-32.1" class="line-axis stroke-dashed"/><path d="M1473.45 246.063h5" class="line-axis"/><text x="1471.45" y="246.063" class="text-grid" dy=".4em" text-anchor="end">30%</text><path fill="none" d="m5 816.9 24.6-1.3 24.5-1.5 24.6-1.6 24.5-1.7 24.6-1.8 24.5-2 24.6-2.2 24.6-2.3L226 800l24.6-2.8 24.5-2.5 24.6-2.8 24.5-2.9 24.6-3.1 24.6-3.4 24.5-3.5 24.6-3.8 24.5-4 24.6-4.3 24.6-4.5 24.5-4.8 24.6-5.2 24.5-5.4 24.6-5.8 24.5-6.1 24.6-6.5 24.6-6.9 24.5-7.3 24.6-7.7 24.5-8.2 24.6-8.7 24.5-9.1 24.6-9.7 24.6-10.3 24.5-10.9 24.6-11.5 24.5-12.1 24.6-12.9 24.5-13.5 24.6-14.4 24.6-15.1 24.5-16 24.6-16.9 24.5-17.8 24.6-18.9 24.5-19.9 24.6-21 24.6-22.2 24.5-23.4 24.6-24.7 24.5-26.2 24.6-27.5 24.5-29.2 24.6-30.7 24.6-32.5 24.5-34.4 24.6-36.3 24.5-38.3 24.6-40.6 24.6-42.8" class="line-axis stroke-dashed"/><path d="M1473.45 50.962h5" class="line-axis"/><text x="1471.45" y="50.962" class="text-grid" dy=".4em" text-anchor="end">40%</text><path fill="none" d="m5 813.3 24.6-1.7 24.5-1.8 24.6-2 24.5-2.1 24.6-2.3 24.5-2.5 24.6-2.7 24.6-2.9 24.5-3.2 24.6-3.4 24.5-3.2 24.6-3.4 24.5-3.7 24.6-3.9 24.6-4.2 24.5-4.4 24.6-4.7 24.5-5 24.6-5.4 24.6-5.7 24.5-6 24.6-6.4 24.5-6.8 24.6-7.2 24.5-7.7 24.6-8.1 24.6-8.6 24.5-9.1 24.6-9.7 24.5-10.2 24.6-10.8 24.5-11.5 24.6-12.1L840 618l24.5-13.6 24.6-14.3 24.5-15.2 24.6-16.1 24.5-16.9 24.6-17.9 24.6-19 24.5-20 24.6-21.1 24.5-22.3 24.6-23.6 24.5-24.8 24.6-26.3 24.6-27.7 24.5-29.3 24.6-30.9 24.5-32.7 24.6-34.4 24.5-36.5 24.6-38.4 24.6-40.6 24.5-43 7.3-13.4" class="line-axis stroke-dashed"/><path d="M1387.502 35v5" class="line-axis"/><text x="1387.502" y="35" class="text-grid" dy="-.4em" text-anchor="middle">50%</text><path fill="none" d="m5 809.7 24.6-2 24.5-2.2 24.6-2.4 24.5-2.5 24.6-2.8 24.5-3 24.6-3.2 24.6-3.6 24.5-3.7 24.6-4.1 24.5-3.9 24.6-4.1 24.5-4.4 24.6-4.7 24.6-5 24.5-5.3 24.6-5.7 24.5-6 24.6-6.4 24.6-6.8 24.5-7.2 24.6-7.7 24.5-8.2 24.6-8.6 24.5-9.2 24.6-9.8 24.6-10.3 24.5-10.9 24.6-11.6 24.5-12.3 24.6-13 24.5-13.8 24.6-14.5 24.6-15.5 24.5-16.3 24.6-17.2 24.5-18.2 24.6-19.3 24.5-20.3 24.6-21.5 24.6-22.7 24.5-24 24.6-25.4 24.5-26.8 24.6-28.2 24.5-29.9 24.6-31.5 24.6-33.3 24.5-35.1 24.6-37.1 24.5-39.2 24.6-41.4 24.5-43.6 2.3-4.3" class="line-axis stroke-dashed"/><path d="M1308.814 35v5" class="line-axis"/><text x="1308.814" y="35" class="text-grid" dy="-.4em" text-anchor="middle">60%</text><path fill="none" d="m5 806.1 24.6-2.4 24.5-2.5 24.6-2.8 24.5-3 24.6-3.2 24.5-3.5 24.6-3.8 24.6-4.1 24.5-4.4 24.6-4.7 24.5-4.6 24.6-4.8 24.5-5.1 24.6-5.5 24.6-5.8 24.5-6.2 24.6-6.6 24.5-7 24.6-7.5 24.6-8 24.5-8.4 24.6-9 24.5-9.5 24.6-10.1 24.5-10.7 24.6-11.4 24.6-12 24.5-12.8 24.6-13.5 24.5-14.3 24.6-15.2 24.5-16.1 24.6-16.9 24.6-18 24.5-19 24.6-20.1 24.5-21.3 24.6-22.5 24.5-23.7 24.6-25.1 24.6-26.5 24.5-28 24.6-29.6 24.5-31.2 24.6-33 24.5-34.8 24.6-36.8 24.6-38.8 24.5-41 24.6-43.3 9.7-18" class="line-axis stroke-dashed"/><path d="M1242.555 35v5" class="line-axis"/><text x="1242.555" y="35" class="text-grid" dy="-.4em" text-anchor="middle">70%</text><path fill="none" d="m5 802.4 24.6-2.6 24.5-2.9 24.6-3.2 24.5-3.4 24.6-3.7 24.5-4 24.6-4.3 24.6-4.7 24.5-5 24.6-5.5 24.5-5.1 24.6-5.5 24.5-5.9 24.6-6.3 24.6-6.6 24.5-7.1 24.6-7.5L447 711l24.6-8.5 24.6-9.1 24.5-9.6 24.6-10.3 24.5-10.9 24.6-11.5 24.5-12.3 24.6-12.9 24.6-13.8 24.5-14.6 24.6-15.5 24.5-16.3 24.6-17.4 24.5-18.3 24.6-19.4L840 490l24.5-21.7 24.6-23 24.5-24.3 24.6-25.7 24.5-27.1 24.6-28.7 24.6-30.3 24.5-32 24.6-33.8 24.5-35.7 24.6-37.7 24.5-39.8 24.6-42 24.6-44.3 2-3.9" class="line-axis stroke-dashed"/><path d="M1185.78 35v5" class="line-axis"/><text x="1185.78" y="35" class="text-grid" dy="-.4em" text-anchor="middle">80%</text><path fill="none" d="m5 798.8 24.6-3 24.5-3.3 24.6-3.5 24.5-3.8 24.6-4.2 24.5-4.5 24.6-4.9 24.6-5.2 24.5-5.7 24.6-6.1 24.5-5.8 24.6-6.2 24.5-6.6 24.6-7 24.6-7.5 24.5-8 24.6-8.5 24.5-9 24.6-9.6 24.6-10.2 24.5-10.9 24.6-11.5 24.5-12.3 24.6-12.9 24.5-13.8 24.6-14.6 24.6-15.5 24.5-16.4 24.6-17.4 24.5-18.5 24.6-19.5 24.5-20.6 24.6-21.8 24.6-23.2 24.5-24.4 24.6-25.9 24.5-27.3 24.6-28.9 24.5-30.5 24.6-32.3 24.6-34 24.5-36 24.6-38.1 24.5-40.1 24.6-42.4 24.5-44.8 1.4-2.6" class="line-axis stroke-dashed"/><path d="M1136 35v5" class="line-axis"/><text x="1136" y="35" class="text-grid" dy="-.4em" text-anchor="middle">90%</text><path fill="none" d="m5 795.2 24.6-3.3 24.5-3.7 24.6-3.9 24.5-4.3 24.6-4.6 24.5-5 24.6-5.4 24.6-5.8 24.5-6.3 24.6-6.8 24.5-6.5 24.6-6.9 24.5-7.3 24.6-7.8 24.6-8.3 24.5-8.9 24.6-9.4 24.5-10.1 24.6-10.6 24.6-11.4 24.5-12 24.6-12.8 24.5-13.6 24.6-14.5 24.5-15.3 24.6-16.2 24.6-17.2 24.5-18.3 24.6-19.3 24.5-20.5 24.6-21.6 24.5-23 24.6-24.2 24.6-25.7 24.5-27.2 24.6-28.7 24.5-30.4 24.6-32.1 24.5-33.9 24.6-35.8 24.6-37.9 24.5-40 24.6-42.3 24.5-44.6 6.2-11.8" class="line-axis" opacity=".6"/><path d="M1091.697 35v5" class="line-axis"/><text x="1091.697" y="35" class="text-grid" dy="-.4em" text-anchor="middle">100%</text></g><g class="overlay opacity-transition"><path d="m6.626 794.993 97.483 36.371M42.001 790.021l110.93 41.343M76.324 784.666l125.429 46.698" class="line-axis" opacity=".4"/><path d="m109.411 778.861 141.164 52.503M109.411 778.861l-8.221-3" class="line-axis"/><text x="99.19" y="773.861" class="text-grid" dy=".4em" text-anchor="end" transform="rotate(20 99.2 773.9)">0</text><path d="m141.364 772.644 158.033 58.72M172.236 766.035l175.983 65.329M202.014 759.03l195.027 72.334M230.607 751.597l215.256 79.767" class="line-axis" opacity=".4"/><path d="m258.605 743.955 236.08 87.409M258.605 743.955l-8.221-3" class="line-axis"/><text x="248.384" y="738.955" class="text-grid" dy=".4em" text-anchor="end" transform="rotate(20 248.4 739)">10</text><path d="m286.722 736.37 256.785 94.994M313.976 728.476l278.353 102.888M340.379 720.277l300.773 111.087M365.954 711.784l324.02 119.58" class="line-axis" opacity=".4"/><path d="m390.728 703.004 348.068 128.36M390.728 703.004l-8.221-3" class="line-axis"/><text x="380.507" y="698.004" class="text-grid" dy=".4em" text-anchor="end" transform="rotate(20 380.5 698)">20</text><path d="m414.729 693.951 372.889 137.413M437.989 684.634l398.451 146.73M460.54 675.066l424.722 156.298M482.418 665.259l451.666 166.105" class="line-axis" opacity=".4"/><path d="m503.658 655.228 479.248 176.136M503.658 655.228l-8.221-3" class="line-axis"/><text x="493.437" y="650.228" class="text-grid" dy=".4em" text-anchor="end" transform="rotate(20 493.4 650.2)">30</text><path d="m524.298 644.985 507.43 186.379M544.342 634.533l536.208 196.831M563.707 623.841l565.665 207.523M582.56 612.971l595.634 218.393" class="line-axis" opacity=".4"/><path d="m600.941 601.936 626.075 229.428M600.941 601.936l-8.221-3" class="line-axis"/><text x="590.72" y="596.936" class="text-grid" dy=".4em" text-anchor="end" transform="rotate(20 590.7 596.9)">40</text><path d="m618.888 590.748 656.95 240.616M636.166 579.328l688.494 252.036M653.065 567.776l720.418 263.588M669.623 556.105l752.682 275.259" class="line-axis" opacity=".4"/><path d="m685.604 544.234 785.523 287.13M685.604 544.234l-8.221-3" class="line-axis"/><text x="675.383" y="539.234" class="text-grid" dy=".4em" text-anchor="end" transform="rotate(20 675.4 539.2)">50</text><path d="m701.236 532.242 777.214 283.96M716.595 520.156 1478.45 798.38M731.37 507.868l747.08 272.705M745.946 495.512l732.504 267.269" class="line-axis" opacity=".4"/><path d="m760.109 483.014 718.341 261.99M760.109 483.014l-8.221-3" class="line-axis"/><text x="749.888" y="478.014" class="text-grid" dy=".4em" text-anchor="end" transform="rotate(20 749.9 478)">60</text><path d="m773.949 470.405 704.501 256.836M787.539 457.71l690.911 251.781M800.708 444.872l677.742 246.883M813.743 431.987 1478.45 674.03" class="line-axis" opacity=".4"/><path d="m826.307 418.942 652.143 237.377M826.307 418.942l-8.221-3" class="line-axis"/><text x="816.086" y="413.942" class="text-grid" dy=".4em" text-anchor="end" transform="rotate(20 816.1 413.9)">70</text><path d="m838.804 405.874 639.646 232.744M850.826 392.645l627.624 228.286M862.801 379.4l615.649 223.852M874.344 366.008l604.106 219.578" class="line-axis" opacity=".4"/><path d="m885.814 352.592 592.636 215.337M885.814 352.592l-8.221-3" class="line-axis"/><text x="875.593" y="347.592" class="text-grid" dy=".4em" text-anchor="end" transform="rotate(20 875.6 347.6)">80</text><path d="m896.935 339.058 581.515 211.226M907.917 325.478l570.533 207.169M918.674 311.821l559.776 203.198M929.185 298.082l549.265 199.32" class="line-axis" opacity=".4"/><path d="m939.631 284.321 538.819 195.471M939.631 284.321l-8.221-3" class="line-axis"/><text x="929.41" y="279.321" class="text-grid" dy=".4em" text-anchor="end" transform="rotate(20 929.4 279.3)">90</text><path d="m949.688 270.43 528.762 191.764M959.744 256.539 1478.45 444.6M969.493 242.546l508.957 184.472M979.111 228.508l499.339 180.935" class="line-axis" opacity=".4"/><path d="m988.666 214.45 489.784 177.424M988.666 214.45l-8.221-3" class="line-axis"/><text x="978.445" y="209.45" class="text-grid" dy=".4em" text-anchor="end" transform="rotate(20 978.4 209.5)">100</text><path d="m997.861 200.272 480.589 174.044M1007.056 186.095l471.394 170.668M1016.056 171.853l462.394 167.365M1024.843 157.54l453.607 164.141" class="line-axis" opacity=".4"/><path d="m1033.631 143.228 444.819 160.92M1033.631 143.228l-8.221-3" class="line-axis"/><text x="1023.41" y="138.228" class="text-grid" dy=".4em" text-anchor="end" transform="rotate(20 1023.4 138.2)">110</text><path d="m1042.15 128.827 436.3 157.798M1050.545 114.386l427.905 154.723M1058.94 99.944l419.51 151.651M1067.048 85.409l411.402 148.683" class="line-axis" opacity=".4"/><path d="m1075.065 70.843 403.385 145.752" class="line-axis"/><path d="M1083.082 56.278 1478.45 199.1M1090.847 41.631l387.603 139.984M1134.651 40l343.799 124.136M1182.989 40l295.461 106.659" class="line-axis" opacity=".4"/><path d="m1231.328 40 247.122 89.189" class="line-axis"/><path d="m1279.666 40 198.784 71.728M1328.02 40l150.43 54.268M1376.387 40l102.063 36.812M1424.741 40l53.709 19.368" class="line-axis" opacity=".4"/><path d="m1473.11 40 5.34 1.925" class="line-axis"/><text x="1081.247" y="40" class="text-axis" dy=".6em" text-anchor="end">kJ/kg</text><text x="810.258" y="429.273" class="text-axis large" dy="-4em" text-anchor="middle" transform="rotate(-45.3 810.3 429.3)">Enthalpy (kJ/kg)</text><path fill="#35FE4C" fill-opacity=".2" stroke="#444" stroke-linejoin="round" stroke-width="2.5" d="m741.7 565.7 20.5-14.4 20.5-15.1 20.4-15.8 20.5-16.6 20.4-17.3 19-16.9h1.5l49.1 105.3v153.9l-24.5 6-24.6 5.8L840 746l-24.6 5.2-24.6 4.8-24.5 4.6-24.6 4.3z"/><text x="827.676" y="599.186" fill="#444" class="font-overlay" dy=".4em" font-size=".9em" font-weight="bold" text-anchor="middle"><tspan x="827.676" dy=".4em">COMFORT</tspan><tspan x="827.676" dy="1.1em">ZONE</tspan></text><path fill="none" fill-opacity=".2" stroke="#444" stroke-linejoin="round" stroke-width="2.5" d="m741.7 499.2 24.6-21.6 24.5-23 24.6-24.2 24.6-25.7 24.5-27.2 24.6-28.7 24.5-30.4L1036.4 485v207.8l-24.5 8-24.6 7.6-24.6 7.2-24.5 6.8-24.6 6.4-24.5 6-24.6 5.8L840 746l-24.6 5.2-24.6 4.8-24.5 4.6-24.6 4.3z"/><text x="827.676" y="408.827" fill="#444" class="font-overlay" dy="1.6em" font-size=".9em" font-weight="bold" text-anchor="middle" transform="rotate(313.6 827.7 408.8)">NATURAL VENTILATION</text><path fill="none" fill-opacity=".2" stroke="#444" stroke-linejoin="round" stroke-width="2.5" d="m680.3 774.7-18.4 2.7-18.4 2.6-18.4 2.4-18.4 2.4-18.5 2.2-18.4 2.2-12.3 1.4V668.2l20.5-9.3 20.5-9.8 20.4-10.3 20.5-10.7 20.5-11.3 20.4-11.9"/><text x="583.009" y="729.359" fill="#444" class="font-overlay" dy=".4em" font-size=".9em" font-weight="bold" text-anchor="middle" transform="rotate(90 583 729.4)"><tspan x="583.009" dy=".4em">INTERNAL</tspan><tspan x="583.009" dy="1.1em">GAINS</tspan></text><path fill="none" fill-opacity=".2" stroke="#444" stroke-linejoin="round" stroke-width="2.5" d="M827.7 831.4H447V680.9l24.6-10.6 24.6-11.4 24.5-12 24.6-12.8 24.5-13.6 24.6-14.5 24.5-15.3 24.6-16.2 24.6-17.2 24.5-18.3 24.6-19.3"/><text x="472.5" y="756.15" fill="#444" class="font-overlay" dy=".4em" font-size=".9em" font-weight="bold" text-anchor="middle" transform="rotate(90 472.5 756.2)"><tspan x="472.5" dy=".4em">PASSIVE SOLAR</tspan><tspan x="472.5" dy="1.1em">HEATING</tspan></text><path fill="none" fill-opacity=".2" stroke="#444" stroke-linejoin="round" stroke-width="2.5" d="M422.5 831.4h-73.7V717.6l12.3-4.1 12.3-4.2 12.2-4.4 12.3-4.5 12.3-4.6 12.3-4.8"/><text x="374.27" y="774.48" fill="#444" class="font-overlay" dy=".4em" font-size=".9em" font-weight="bold" text-anchor="middle" transform="rotate(90 374.3 774.5)"><tspan x="374.27" dy=".4em">ACTIVE</tspan><tspan x="374.27" dy="1.1em">SOLAR</tspan></text><text x="323.805" y="780.169" fill="#444" class="font-overlay" dy=".4em" font-size=".9em" font-weight="bold" text-anchor="middle" transform="rotate(90 323.8 780.2)">HEATING</text><path fill="none" fill-opacity=".2" stroke="#444" stroke-linejoin="round" stroke-width="2.5" d="m864.5 469.6 270.1 98.8 73.7 54.4 49.1 91.6v117H918.7l-177-66.5"/><text x="1088.058" y="817.722" fill="#444" class="font-overlay" dy=".4em" font-size=".9em" font-weight="bold" text-anchor="middle">EVAPORATIVE COOLING</text><path fill="none" fill-opacity=".2" stroke="#444" stroke-linejoin="round" stroke-width="2.5" d="M864.5 469.6H1061l98.2 83.1v212.2H741.7"/><text x="1148.289" y="658.813" fill="#444" class="font-overlay" dy=".4em" font-size=".9em" font-weight="bold" text-anchor="middle" transform="rotate(90 1148.3 658.8)">MASS COOLING</text><path fill="none" fill-opacity=".2" stroke="#444" stroke-linejoin="round" stroke-width="2.5" d="M1061 469.6h171.9l98.2 84v211.3H741.7"/><text x="1320.191" y="659.276" fill="#444" class="font-overlay" dy=".4em" font-size=".9em" font-weight="bold" text-anchor="middle" transform="rotate(90 1320.2 659.3)"><tspan x="1320.191" dy=".4em">MASS COOLING &amp;</tspan><tspan x="1320.191" dy="1.1em">NIGHT VENTILATION</tspan></text><path fill="none" fill-opacity=".2" stroke="#444" stroke-dasharray="4, 4" stroke-linejoin="round" stroke-width="2.5" d="m729.4 767-6.1 1-6.1 1-6.2 1-6.1 1-6.2 1-6.1.9V597.5l6.1-3.8 6.2-3.8 6.1-3.9 6.2-4 6.1-4 6.1-4"/><text x="703.524" y="685.197" fill="#444" class="font-overlay" dy=".4em" font-size=".9em" font-weight="bold" text-anchor="middle" transform="rotate(90 703.5 685.2)">WINTER</text><path fill="none" fill-opacity=".2" stroke="#444" stroke-dasharray="8, 4" stroke-linejoin="round" stroke-width="2.5" d="M1232.9 469.6h245.6v361.8h-221.1"/><text x="1467.536" y="650.481" fill="#444" class="font-overlay" dy=".4em" font-size=".9em" font-weight="bold" text-anchor="middle" transform="rotate(90 1467.5 650.5)">AIR-CONDITIONING</text><text x="1208.318" y="311.325" fill="#444" class="font-overlay" dy=".4em" font-size=".9em" font-weight="bold" text-anchor="middle"><tspan x="1208.318" dy=".4em">AIR-CONDITIONING &amp;</tspan><tspan x="1208.318" dy="1.1em">DEHUMIDIFICATION</tspan></text><text x="618.938" y="817.722" fill="#444" class="font-overlay" dy=".4em" font-size=".9em" font-weight="bold" text-anchor="middle">HUMIDIFICATION</text><path fill="none" fill-opacity=".2" stroke="#444" stroke-dasharray="2, 4" stroke-linejoin="round" stroke-width="1.5" d="M717.2 846.4V474.7"/><text x="717.168" y="515.705" fill="#444" class="text-axis font-overlay" dy="1.1em" font-size=".9em" font-weight="bold" text-anchor="end" transform="rotate(90 717.2 515.7)">19.0 °C</text></g><g class="legend"><g class="data-scale"><text x="-154" y="-6" class="text-axis" dy=".3em" text-anchor="end" transform="translate(1473.45 826.364)">Hrs</text><text x="-3" y="-12" class="text-axis" dy="-.3em" text-anchor="end" transform="translate(1473.45 826.364)">284</text><text x="-147" y="-12" class="text-axis" dy="-.3em" transform="translate(1473.45 826.364)">1</text><path d="M1473.45 826.364v-20M1323.45 826.364v-20" class="line-axis"/><path fill="#E6E6FF" d="M1323.45 814.364h15v12h-15z" class="stroke-axis"/><path fill="#CFCFFF" d="M1338.45 814.364h15v12h-15z" class="stroke-axis"/><path fill="#B8B8FF" d="M1353.45 814.364h15v12h-15z" class="stroke-axis"/><path fill="#A1A1FF" d="M1368.45 814.364h15v12h-15z" class="stroke-axis"/><path fill="#8A8AFF" d="M1383.45 814.364h15v12h-15z" class="stroke-axis"/><path fill="#7373FF" d="M1398.45 814.364h15v12h-15z" class="stroke-axis"/><path fill="#5C5CFF" d="M1413.45 814.364h15v12h-15z" class="stroke-axis"/><path fill="#4545FF" d="M1428.45 814.364h15v12h-15z" class="stroke-axis"/><path fill="#2E2EFF" d="M1443.45 814.364h15v12h-15z" class="stroke-axis"/><path fill="#1717FF" d="M1458.45 814.364h15v12h-15z" class="stroke-axis"/></g></g></svg>