<svg xmlns="http://www.w3.org/2000/svg" width="1280" height="720" viewBox="0 0 256 144"><g fill="none" stroke="silver" stroke-linecap="round" stroke-linejoin="round" stroke-width=".318" style="stroke-width:.2;stroke-dasharray:none"><path d="M159.744 501.277V438.82M157.299 438.82h9.78M167.08 238.51h-9.781M159.744 238.51v-62.458M157.299 438.82v-49.978M157.299 388.84v-2.591M157.299 365.426v-17.734M157.299 347.692l9.78 5.652M157.299 238.51v49.978M157.299 288.49v2.59M157.299 311.904v17.733M167.08 323.986l-9.781 5.651M167.08 338.665h-24.452M142.628 338.665v-13.4M142.628 352.065v-13.4M157.299 353.37v0M157.299 329.15v0M149.963 318.77l-.09.002-.09.002-.09.004-.09.005-.089.007-.09.009-.088.01-.088.012-.088.013-.088.015-.087.016-.086.018-.086.019-.085.02-.085.023-.083.024-.083.025-.082.026-.08.028-.08.03-.08.03-.077.032-.077.034-.075.034-.075.036-.073.038-.071.038-.07.04-.07.04-.067.043-.066.043-.064.045-.063.046-.061.046-.06.048-.058.049-.056.05-.055.05-.052.052-.051.052-.05.054-.047.054-.045.055-.043.056-.042.056-.04.057-.037.058-.035.059-.034.059-.03.06-.03.06-.027.06-.025.062-.023.062-.021.061-.019.063-.016.062-.015.063-.012.063-.01.064-.007.063-.006.064-.004.063v.064M149.963 285.894h-.09l-.09.003-.09.004-.09.005-.089.007-.09.009-.088.01-.088.012-.088.013-.088.015-.087.016-.086.018-.086.019-.085.02-.085.023-.083.023-.083.026-.082.026-.08.028-.08.03-.08.03-.077.032-.077.034-.075.034-.075.036-.073.038-.071.038-.07.04-.07.04-.067.043-.066.043-.064.045-.063.046-.061.046-.06.048-.058.049-.056.05-.055.05-.052.051-.051.053-.05.053-.047.054-.045.055-.043.056-.042.057-.04.057-.037.058-.035.058-.034.06-.03.06-.03.06-.027.06-.025.061-.023.062-.021.062-.019.062-.016.063-.015.063-.012.063-.01.063-.007.064-.006.063-.004.064v.063" style="stroke:#fff;stroke-width:.2;stroke-miterlimit:4;stroke-dasharray:none;stroke-opacity:1" transform="rotate(90 242.272 223.505)"/><path d="m146.295 321.366.001.064.004.063.006.064.007.063.01.063.013.064.014.062.016.063.019.062.02.062.024.062.025.061.027.06.03.061.03.06.034.059.035.058.038.058.04.058.04.056.044.056.046.055.047.054.049.053.05.053.054.052.054.05.056.05.058.049.06.047.061.047.063.046.064.044.066.044.068.042.069.04.07.04.072.039.073.037.074.036.075.035.077.033.078.032.079.031.08.03.08.028.082.026.083.025.083.024.085.022.085.02.086.02.086.017.087.017.088.014.088.013.088.013.09.01.088.009.09.007.09.005.09.004.09.002h.18l.09-.002.09-.004.089-.005.09-.007.089-.01.089-.01.088-.012.088-.013.088-.014.087-.017.086-.017.086-.02.085-.02.084-.022.084-.024.083-.025.082-.026.08-.028.08-.03.08-.03.077-.033.077-.033.075-.035.074-.036.073-.037.072-.039.07-.04.07-.04.067-.043.065-.043.065-.044.063-.046.061-.047.06-.047.058-.05.056-.049.054-.05.053-.052.051-.053.05-.053.046-.054.046-.055.043-.056.042-.057.04-.057.037-.058.035-.058.033-.06.032-.06.029-.06.027-.06.025-.061.023-.062.021-.062.019-.062.016-.063.014-.063.013-.063.01-.063.007-.063.006-.064.004-.064v-.063" style="stroke:#fff;stroke-width:.2;stroke-miterlimit:4;stroke-dasharray:none;stroke-opacity:1" transform="rotate(90 242.272 223.505)"/><path d="M153.63 321.366v-.064l-.004-.063-.006-.064-.007-.063-.01-.064-.012-.063-.015-.063-.016-.062-.019-.063-.02-.062-.023-.061-.026-.061-.027-.061-.029-.06-.031-.06-.034-.06-.035-.058-.038-.058-.04-.057-.04-.056-.044-.056-.045-.055-.048-.054-.049-.054-.05-.052-.053-.052-.055-.05-.056-.05-.058-.05-.06-.047-.06-.047-.064-.045-.064-.045-.066-.043-.067-.042-.07-.041-.07-.04-.071-.038-.073-.038-.074-.036-.076-.035-.077-.033-.077-.032-.08-.03-.08-.03-.08-.028-.082-.026-.083-.026-.083-.023-.085-.022-.085-.021-.085-.02-.087-.017-.087-.016-.087-.015-.088-.013-.089-.012-.089-.01-.09-.01-.089-.006-.09-.005-.09-.004-.09-.002-.09-.001h0M157.299 348.18v0M149.963 358.559l.09-.001.09-.002.09-.004.09-.005.09-.007.088-.009.09-.01.088-.012.088-.013.087-.015.087-.016.087-.018.086-.02.085-.02.084-.022.084-.024.082-.025.082-.026.081-.028.08-.03.079-.03.078-.032.076-.034.076-.034.074-.037.073-.037.071-.038.07-.04.07-.041.067-.042.066-.043.064-.045.063-.046.061-.046.06-.048.058-.049.056-.05.055-.05.052-.052.051-.052.05-.053.047-.055.045-.055.044-.056.041-.056.04-.057.037-.058.035-.059.034-.059.031-.06.03-.06.027-.06.025-.062.023-.061.02-.062.02-.063.016-.062.014-.063.012-.063.01-.063.007-.064.006-.063.004-.064.001-.064M153.63 355.964v-.064l-.004-.063-.006-.064-.007-.063-.01-.064-.012-.063-.015-.063-.016-.062-.019-.063-.02-.062-.023-.061-.026-.061-.027-.06-.029-.061-.031-.06-.034-.059-.035-.058-.038-.058-.04-.058-.04-.056-.044-.056-.045-.055-.048-.054-.049-.054-.05-.052-.053-.052-.055-.05-.056-.05-.058-.049-.06-.048-.061-.046-.063-.046-.064-.044-.066-.043-.068-.043-.068-.04-.07-.04-.072-.039-.073-.037-.074-.036-.076-.035-.077-.033-.077-.032-.08-.031-.08-.03-.08-.027-.082-.027-.083-.025-.083-.024-.085-.022-.085-.02-.086-.02-.086-.018-.087-.016-.088-.015-.088-.013-.088-.012-.09-.01-.088-.009-.09-.007-.09-.005-.09-.004-.09-.002h-.18l-.09.002-.09.004-.089.005-.09.007-.089.01-.089.01-.088.011-.088.013-.088.015-.087.016-.086.018-.086.02-.085.02-.084.022-.084.024-.083.025-.082.027-.08.027-.08.03-.08.03-.077.033-.077.033-.075.035-.074.036-.073.037-.072.039-.07.04-.07.04-.067.043-.066.043-.064.044-.063.046-.061.046-.06.048-.058.049-.056.05-.054.05-.053.052-.051.052-.05.054-.046.054-.046.055-.043.056-.042.056-.04.058-.037.057-.035.059-.033.06-.032.059-.029.06-.027.06-.025.062-.023.062-.021.062-.019.062-.016.062-.014.063-.013.063-.01.064-.007.063-.006.064-.004.063v.064" style="stroke:#fff;stroke-width:.2;stroke-miterlimit:4;stroke-dasharray:none;stroke-opacity:1" transform="rotate(90 242.272 223.505)"/><path d="m146.295 355.964.001.064.004.063.006.064.007.063.01.063.013.064.014.062.016.063.019.062.02.062.024.062.025.061.027.06.03.061.03.06.034.059.035.058.038.058.04.058.04.056.044.056.046.055.047.054.049.054.05.052.054.052.054.05.056.05.058.049.06.048.061.046.063.046.064.044.066.044.068.042.069.04.07.04.072.04.073.036.074.036.075.035.077.034.078.032.079.03.08.03.08.028.082.026.083.025.084.024.084.022.085.02.086.02.086.017.087.017.088.014.088.014.088.012.09.01.089.009.09.007.089.005.09.004.09.002h.09M157.299 353.37v0M137.72 383.63v6.466M137.72 391.621v2.39M137.72 394.01l12.928 4.907M137.72 383.63l4.908-6.472M139.742 383.558l2.886-3.806M139.742 388.747v-5.19M142.628 384.942l-2.886 3.805M137.72 394.01l5.068-6.685M150.648 398.917l5.78-7.622M157.299 388.84l-.002-.126-.006-.128-.011-.127-.016-.127-.02-.126-.024-.127-.028-.125-.033-.126-.038-.124-.041-.124-.013-.037M156.427 391.294l.083-.113.08-.114.075-.116.071-.117.067-.118.063-.12.059-.12.055-.121.05-.123.046-.123.042-.123.037-.125.034-.125.029-.126.024-.126.02-.127.016-.127.01-.127.008-.127.002-.127v-.007M157.299 381.056v0M139.742 383.558l2.886 1.095M157.299 386.246v0M137.72 283.32v2.388M137.72 287.234v6.466M137.72 283.32l12.928-4.907M137.72 283.32l5.068 6.684M139.742 288.583l2.886 3.804M139.742 293.772v-5.189M142.628 297.578l-2.886-3.806M137.72 293.7l4.908 6.472M150.648 278.413l5.78 7.623M157.066 289.786l.043-.123.038-.125.034-.125.03-.126.026-.126.021-.126.017-.127.012-.127.007-.127.004-.128v-.036M157.299 288.488l-.002-.128-.006-.127-.011-.127-.016-.127-.02-.126-.024-.127-.029-.125-.033-.126-.037-.124-.042-.124-.046-.123-.05-.123-.054-.121-.059-.12-.062-.12-.067-.118-.071-.117-.075-.116-.08-.115-.082-.113-.005-.006M139.742 293.772l2.886-1.095M137.72 359.346l-.075.031-.074.033-.058.029M13.844 340.545a1.962 1.962 0 0 0-.016-.075 1.015 1.015 0 0 1-.008-.138.554.554 0 0 1 .025-.12.43.43 0 0 1 .054-.099l.037-.041a.46.46 0 0 1 .222-.103.827.827 0 0 1 .146-.014M14.304 339.955h.002M133.567 356.292l-.995 1.156M138.19 350.194l-.995 1.156M133.567 356.292l4.624-6.098M132.572 357.448l4.623-6.098M136.518 360.596l-3.946-3.148M136.518 360.596l-.023.074-.02.076-.017.077-.015.078-.012.08-.01.08-.007.083-.005.083-.002.084v.085l.004.086.006.087.01.088.01.089.014.089.016.09.019.09.02.092.025.091.026.093.029.092.03.093.035.094.036.093.038.094.042.094.043.094.046.093.048.094.05.094.053.094.055.093.057.093.06.093.06.093.064.092.066.091.067.091.07.09.071.09.074.09.075.088.077.087.079.087.08.085.082.085.084.084.085.082.087.082.088.08.09.079.09.078.093.076.094.075.095.074.095.073.097.07.098.07.099.067.1.066.1.065.102.062.102.061.103.06.103.057.104.055.104.054.105.052.105.05.105.047.105.046.106.044.106.042.106.04.105.037.106.035.105.034.105.03.105.03.105.026.104.025.104.022.103.02.102.018.102.016.1.013.101.01.1.01.098.006.097.004h.192M144.167 366.351l.063-.045.06-.047.058-.048.056-.051.053-.053.052-.055.049-.056.047-.059.009-.01M144.612 365.927l.044-.061.042-.062.04-.064.036-.066.035-.067.031-.07.03-.07.027-.072.024-.073.022-.075.02-.076.016-.077.014-.08.013-.08.009-.08.006-.082.004-.084V364.518l-.004-.086-.006-.087-.01-.088-.012-.09-.014-.089-.017-.09-.02-.09-.005-.027" style="stroke:#fff;stroke-width:.2;stroke-miterlimit:4;stroke-dasharray:none;stroke-opacity:1" transform="rotate(90 242.272 223.505)"/><path d="m137.72 359.346-.075.031-.074.034-.058.028M137.513 359.44l-3.946-3.148M137.72 360.86l-.03.048-.026.05-.025.05-.024.053-.021.053-.02.054-.017.056-.016.056-.014.058-.012.058-.01.06-.01.06-.005.061-.004.062-.002.063v.128l.005.065.006.065.007.066.01.067.01.068.014.067.015.069.017.068.019.07.02.069.024.07.024.07.027.07.028.07.03.07.032.07.034.07.035.071.037.07.04.07.04.07.042.07.044.07.045.07.047.07.049.068.05.068.052.068.053.068.054.067.056.066.057.066.059.065.06.065.06.064.063.063.064.062.065.061.065.06.067.06.068.06.069.057.07.057.07.055.072.055.073.053.073.053.074.05.074.05.075.05.076.047.077.046.077.045.077.044.078.042.078.04.078.04.079.038.079.036.079.035.08.034.079.032.079.03.08.029.078.027.08.026.079.024.078.022.079.02.078.02.078.017.077.016.077.014.077.012.076.011.075.01.075.006.074.005.074.004.072.002h.143l.07-.005.07-.005.068-.006.067-.009.066-.01.065-.012.064-.013.063-.016.061-.017.06-.018.06-.02.057-.022.056-.024.055-.025.053-.027.053-.028.05-.03.049-.031.047-.033.046-.035.045-.036.042-.037.042-.039.039-.04.038-.042.036-.043.022-.03M138.19 350.194l-2.376-9.594M135.814 340.6l-.006-.026-.007-.026-.007-.025-.007-.026-.007-.024-.009-.025-.009-.023-.009-.024-.009-.023-.01-.022-.01-.022-.01-.022-.01-.02-.01-.02-.01-.02-.01-.02-.012-.019-.01-.018-.012-.017-.01-.017-.012-.017-.012-.016-.012-.015-.012-.014-.012-.014-.013-.013-.013-.012-.012-.013-.013-.01-.013-.012-.013-.01-.013-.009-.014-.009-.013-.007-.014-.007-.013-.006-.014-.005-.014-.005-.013-.004-.014-.004-.014-.002h-.014l-.013-.002h-.013M135.317 339.955h-.014l-.014.002-.014.002-.013.002-.014.004-.014.004-.014.005-.013.006-.014.006-.013.007-.014.007-.013.009-.013.009-.013.01-.013.01-.013.012-.013.012-.012.012-.013.014-.012.013-.012.015-.013.015-.012.016-.012.016-.011.017-.011.018-.011.018-.011.019-.011.019-.01.02-.01.02-.01.021-.01.022-.01.022-.01.022-.01.023-.008.024-.01.024-.008.024-.007.025-.007.025-.007.025-.007.026-.006.027-.006.026-.006.027-.006.028-.005.027-.005.028-.005.028-.005.029-.004.028-.004.029-.004.029-.004.03-.002.029-.002.03-.002.029-.002.03-.001.03-.001.029v.03l-.001.03v.12l.002.03v.03l.003.03.002.03.002.029.002.03.004.028.004.03.004.028.004.029.005.028.005.028.005.028.005.028.006.027.006.027.006.027h0M137.195 351.35l-2.376-9.593M134.819 341.757H14.762M37.834 434.907l-23.072-93.15M136.518 360.596l-28.681 37.828M14.762 341.757a3.6 3.6 0 0 1-.604-.61 1.776 1.776 0 0 1-.314-.602M13.844 340.545a1.962 1.962 0 0 0-.016-.075 1.015 1.015 0 0 1-.008-.138.554.554 0 0 1 .025-.12.43.43 0 0 1 .054-.099l.037-.041a.46.46 0 0 1 .222-.103.827.827 0 0 1 .146-.014M137.513 317.89l.072.036.074.033.06.025M137.513 317.89l-3.946 3.148M135.317 337.374h.014l.013-.001.014-.002.014-.002.014-.004.013-.004.014-.005.014-.006.013-.006.004-.001M13.844 336.785l-.016.076a.992.992 0 0 0-.008.137.534.534 0 0 0 .025.12c.014.035.032.069.054.1a.843.843 0 0 1 .037.04.493.493 0 0 0 .098.065c.038.016.079.03.124.039.045.007.094.011.146.012M138.19 327.136l-2.376 9.594M133.567 321.038l4.624 6.098M137.513 317.89l-3.946 3.148M37.834 242.423l-23.072 93.15M134.819 335.574H14.762M137.195 325.98l-2.376 9.594M132.572 319.882l4.623 6.098M136.518 316.733l-3.946 3.149M107.837 278.907l28.681 37.826M142.628 310.534h-.192l-.098.004-.098.006-.1.01-.1.01-.1.014-.103.015-.102.018-.103.02-.104.022-.104.025-.104.027-.105.029-.105.031-.106.033-.105.036-.106.037-.106.04-.106.042-.105.044-.106.045-.105.048-.105.05-.105.052-.104.053-.104.056-.103.057-.103.06-.102.06-.101.063-.1.064-.1.066-.1.068-.098.07-.096.07-.096.072-.095.074-.094.075-.092.077-.09.077-.09.08-.089.08-.087.081-.085.083-.084.083-.082.085-.08.086-.079.086-.077.088-.075.088-.074.09-.071.089-.07.09-.067.091-.066.092-.063.092-.061.092-.06.093-.057.093-.055.094-.052.093-.05.094-.049.094-.046.094-.043.094-.04.094-.04.093-.036.094-.033.093-.032.093-.028.093-.027.092-.023.092-.022.091-.018.09-.016.09-.014.09-.011.089-.009.087-.006.087-.004.086v.086l.001.084.005.083.007.082.01.08.013.08.015.079.017.077.02.076.023.073M144.612 311.403l-.046-.059-.049-.056-.05-.055-.054-.054-.055-.051-.058-.05-.06-.047-.062-.045-.01-.007M144.937 313.458l.02-.09.018-.091.015-.09.012-.09.01-.087.007-.088.005-.086.002-.086v-.085l-.004-.084-.006-.082-.01-.082-.01-.08-.014-.08-.016-.077-.018-.077-.022-.075-.023-.074-.027-.072-.028-.07-.031-.07-.034-.068-.036-.066-.039-.064-.04-.063-.044-.061-.013-.017" style="stroke:#fff;stroke-width:.2;stroke-miterlimit:4;stroke-dasharray:none;stroke-opacity:1" transform="rotate(90 242.272 223.505)"/><path d="m137.513 317.89.072.036.074.033.06.025M143.638 312.142l-.034-.044-.037-.042-.038-.042-.04-.04-.042-.038-.043-.037-.045-.035-.046-.034-.048-.033-.05-.03-.051-.03-.053-.028-.054-.026-.055-.025-.057-.023-.058-.021-.06-.02-.06-.018-.062-.016-.063-.015-.064-.013-.065-.01-.067-.01-.067-.008-.069-.006-.07-.005-.07-.002h-.143l-.073.002-.074.005-.074.006-.075.007-.075.01-.077.011-.076.013-.077.015-.078.016-.078.018-.078.02-.079.02-.079.024-.079.024-.08.027-.078.027-.08.03-.079.03-.08.033-.078.034-.08.035-.078.037-.079.038-.078.04-.078.042-.078.042-.077.044-.077.046-.076.046-.076.048-.075.05-.074.05-.074.051-.073.053-.072.054-.071.055-.07.056-.07.057-.068.058-.068.059-.066.06-.066.06-.064.062-.063.063-.062.063-.06.064-.06.065-.058.065-.057.066-.056.067-.054.067-.052.068-.051.068-.05.068-.048.07-.047.068-.044.07-.044.07-.041.07-.04.07-.039.07-.036.07-.035.07-.033.071-.031.07-.03.071-.028.07-.025.07-.024.07-.022.07-.02.069-.019.069-.016.068-.015.068-.013.068-.01.067-.01.067-.007.066-.005.065-.002.065v.127l.002.063.005.062.007.06.01.06.01.06.013.058.015.057.016.056.018.055.02.054.023.052.024.052.025.05.028.05.019.031M134.819 335.573l-.006.027-.006.026-.006.028-.005.027-.005.028-.005.028-.005.029-.004.028-.004.03-.004.028-.004.03-.002.029-.002.03-.002.029-.002.03-.001.03-.001.03v.03l-.001.03v.12l.002.03v.029l.003.03.002.03.002.029.002.03.004.028.004.03.004.028.004.029.005.028.005.028.005.028.005.028.006.027.006.027.006.027.006.026.007.026.007.026.007.025.007.025.009.024.009.024.009.023.009.023.009.023.01.022.01.021.01.021.01.02.01.02.01.02.012.019.01.018.012.018.01.017.013.016.012.016.012.015.013.015.012.013.012.014.013.012.013.012.012.011.013.011.014.01.013.01.013.008.014.007.013.007.014.006.013.006.014.005.014.004.013.004.014.002.014.002.014.001h.014" style="stroke:#fff;stroke-width:.2;stroke-miterlimit:4;stroke-dasharray:none;stroke-opacity:1" transform="rotate(90 242.272 223.505)"/><path d="M135.317 337.374h.014l.013-.001.014-.002.014-.002.014-.004.013-.004.014-.005.014-.006.013-.006.014-.007.013-.007.014-.009.013-.009.013-.01.013-.011.013-.011.012-.012.013-.013.013-.013.012-.014.012-.014.012-.015.012-.016.011-.017.011-.017.011-.017.011-.018.011-.019.011-.02.01-.02.01-.02.01-.02.01-.022.01-.022.01-.022.01-.023.008-.024.01-.024.008-.024.007-.025.007-.025.007-.026.007-.026.006-.024M14.762 335.574a3.549 3.549 0 0 0-.604.609c-.16.212-.27.42-.314.602M13.844 336.785l-.016.076a.992.992 0 0 0-.008.137.534.534 0 0 0 .025.12c.014.035.032.069.054.1a.843.843 0 0 1 .037.04.493.493 0 0 0 .098.065c.038.016.079.03.124.039.045.007.094.011.146.012M138.19 327.136l-.995-1.156M133.567 321.038l-.995-1.156M157.299 310.978h-14.671M157.299 310.978v-2.744M157.299 303.341v-7.067M142.628 310.978v-14.704M157.299 303.341v0M157.299 296.274v-5.19M142.628 296.274v-3.887M157.299 366.352h-14.671M157.299 381.056v-6.603M142.628 381.056v-14.704M157.299 386.246v-5.19M142.628 384.942v-3.886M157.299 311.904h9.78M157.299 311.904v-3.67M157.299 303.341v-.464M157.299 302.877v-15.438M167.08 287.44h-9.781M157.299 365.426v3.67M157.299 373.988v.465M157.299 365.426h9.78M157.299 389.89h9.78M157.299 374.453v15.437M137.72 317.984v8.53M138.18 327.182l4.448 5.867M150.648 366.04l-5.711-2.168M137.72 350.815v8.531M156.427 358.418l-5.779 7.622M138.18 350.147l4.448-5.866M156.427 358.417l.083-.113.08-.114.075-.116.071-.117.067-.118.063-.12.059-.12.055-.121.05-.122.046-.124.042-.123.037-.125.034-.125.029-.126.024-.126.02-.127.016-.127.01-.127.008-.127.002-.127v-.007M133.567 280.23l4.624 6.099M136.518 282.296l-1.427-.055M136.518 282.296l-.023.092-.02.09-.017.091-.015.09-.012.089-.01.088-.007.088-.005.086-.002.086v.084l.004.084.006.083.01.081.01.08.014.08.016.077.019.077.02.075.025.074.026.072.029.07.03.07.035.068.036.066.038.064.042.063.043.06.012.017M136.82 284.44l.047.06.048.056.051.055.053.053.056.052.058.049.06.047.061.046.065.043.066.041.068.04.07.036.072.035.074.033.05.021M144.937 280.581l.02-.09.018-.091.015-.09.012-.09.01-.087.007-.088.005-.086.002-.086v-.085l-.004-.084-.006-.082-.01-.082-.01-.08-.014-.08-.016-.077-.018-.076-.022-.076-.023-.073-.027-.073-.028-.07-.031-.07-.034-.068-.036-.066-.039-.064-.04-.063-.044-.06-.013-.018" style="stroke:#fff;stroke-width:.2;stroke-miterlimit:4;stroke-dasharray:none;stroke-opacity:1" transform="rotate(90 242.272 223.505)"/><path d="m144.612 278.526-.046-.059-.049-.057-.05-.055-.054-.053-.055-.05-.058-.05-.06-.048-.062-.045-.064-.043-.066-.041-.068-.04-.07-.037-.072-.035-.074-.032-.076-.03-.077-.03-.08-.026-.08-.024-.083-.021-.084-.02-.086-.017-.087-.015-.088-.013-.09-.01-.092-.009-.092-.006-.094-.004h-.192l-.097.004-.098.006-.1.01-.1.01-.1.012-.102.015-.102.017-.103.02-.103.021-.104.024-.105.026-.104.028-.105.031-.106.033-.105.035-.106.036-.106.04-.105.04-.106.044-.106.045-.105.047-.105.05-.105.05-.104.054-.104.055-.104.057-.103.058-.102.06-.102.063-.1.064-.1.066-.1.067-.098.069-.097.07-.096.072-.095.073-.094.075-.093.076-.091.077-.09.08-.089.08-.087.08-.086.082-.084.084-.083.084-.08.085-.08.087-.077.087-.076.088-.074.089-.072.09-.01.013M137.513 280.384l-3.946-.153M137.85 281.372l-.036.07-.034.071-.032.07-.03.071-.03.07-.026.07-.025.07-.023.07-.021.07-.02.069-.017.068-.016.069-.014.068-.012.067-.01.067-.007.066-.006.066-.004.065-.002.065v.063l.001.063.004.063.006.06.007.061.01.06.011.059.013.057.016.057.017.056.02.054.02.054.023.052.025.05.027.05.028.05.006.01" style="stroke:#fff;stroke-width:.2;stroke-miterlimit:4;stroke-dasharray:none;stroke-opacity:1" transform="rotate(90 242.272 223.505)"/><path d="m143.638 279.265-.034-.044-.037-.042-.038-.041-.04-.04-.042-.039-.043-.037-.045-.035-.046-.034-.048-.033-.05-.03-.05-.03-.054-.028-.054-.026-.055-.025-.057-.022-.058-.022-.06-.02-.06-.017-.062-.017-.063-.014-.064-.013-.066-.011-.066-.01-.068-.007-.068-.006-.07-.005-.07-.002-.071-.001h-.072l-.073.003-.074.005-.074.006-.075.007-.076.01-.076.01-.077.013-.077.015-.077.016-.078.018-.079.02-.078.021-.08.023-.078.025-.08.026-.079.028-.079.029-.08.03-.079.033-.079.034-.079.036-.079.036-.078.039-.079.04-.078.04-.077.044-.078.044-.076.045-.076.047-.076.048-.075.049-.075.05-.073.052-.073.052-.072.054-.071.055-.07.056-.07.057-.069.058-.067.06-.067.06-.065.06-.065.062-.063.062-.062.064-.06.064-.06.065-.058.065-.057.066-.055.067-.054.067-.053.067-.05.068-.05.069-.048.069-.047.069-.045.07-.043.07-.042.07-.04.07-.038.07-.016.031M138.19 286.329l-2.376 4.565M135.814 290.893l-.006.013-.007.013-.007.014-.007.015-.007.015-.009.016-.009.016-.009.016-.009.018-.01.017-.01.018-.01.02-.01.018-.01.02-.01.02-.01.02-.012.02-.01.022-.012.022-.01.022-.013.022-.012.023-.012.023-.012.023-.013.024-.012.024-.013.024-.013.024-.012.025-.013.025-.013.025-.014.026-.013.025-.013.026-.014.026-.014.026-.013.026-.014.027-.014.026-.013.026-.014.027-.014.026-.014.027-.014.027-.013.026-.014.027-.014.026-.014.027-.014.026-.013.027-.014.026-.014.026-.013.026-.014.026-.013.026-.013.025-.014.026-.013.025-.013.025-.013.025-.012.024-.013.024-.012.024-.013.024-.012.023-.012.023-.012.023-.012.022-.011.022-.011.021-.011.022-.011.02-.011.02-.01.02-.01.02-.01.02-.01.018-.01.018-.01.017-.008.018-.01.016-.008.016-.01.016-.006.015-.007.014-.007.014-.007.013-.006.013-.006.012-.006.013-.006.01-.005.012-.005.01-.005.01-.005.009-.004.009-.004.007-.004.006-.004.006-.002.006-.002.005-.002.004-.002.004-.001.002-.001.002h-.001v.002h0" style="stroke:#fff;stroke-width:.2;stroke-miterlimit:4;stroke-dasharray:none;stroke-opacity:1" transform="rotate(90 242.272 223.505)"/><path d="M134.752 292.934h0v-.001l.001-.001.001-.002.001-.002.002-.004.002-.004.002-.005.002-.006.004-.006.004-.007.004-.007.004-.01.005-.008.005-.01.005-.01.005-.011.006-.011.006-.013.006-.012h0M63.54 182.82l73.973 97.564M135.814 290.894 15.758 228.32M45.32 171.54 15.758 228.32M14.762 230.235a1.411 1.411 0 0 1-.58-.139M14.182 230.096l-.07-.041a.757.757 0 0 1-.21-.205.72.72 0 0 1-.057-.126.662.662 0 0 1 .063-.499M13.908 229.225l.065-.106.08-.105.096-.1.109-.098.122-.09.134-.085.143-.076.15-.067.155-.057.16-.047.162-.036.16-.023.159-.012.155-.001M137.513 396.946 63.54 494.51M45.32 505.79l-29.562-56.782M135.814 386.437 15.758 449.008M138.19 391.001l-2.376-4.564M133.567 397.099l4.624-6.098M137.513 396.946l-3.946.153M136.518 395.034l-1.427.055M136.82 392.89l-.044.06-.041.062-.04.064-.036.066-.035.067-.032.069-.03.07-.026.072-.025.074-.022.074-.019.076-.017.078-.014.079-.012.08-.009.08-.006.083-.004.083-.001.085.001.085.004.087.006.087.009.088.012.089.014.09.017.09.02.09.022.092.006.024M137.72 392.223l-.075.031-.074.033-.071.036-.07.038-.067.04-.065.041-.064.044-.061.046-.06.048-.056.05-.055.052-.053.054-.05.056-.048.057-.031.04M144.612 398.804l.044-.061.042-.062.04-.064.036-.066.034-.067.032-.07.03-.07.027-.071.024-.074.022-.074.02-.077.016-.077.014-.079.013-.08.009-.081.006-.082.004-.084v-.169l-.004-.087-.006-.087-.01-.088-.012-.089-.014-.09-.017-.09-.02-.09-.005-.027" style="stroke:#fff;stroke-width:.2;stroke-miterlimit:4;stroke-dasharray:none;stroke-opacity:1" transform="rotate(90 242.272 223.505)"/><path d="m137.513 396.946.072.09.074.088.075.088.078.088.079.086.08.086.083.084.084.084.085.082.087.081.089.08.09.08.09.077.093.076.094.075.095.074.096.072.097.07.098.07.1.067.099.065.1.065.102.062.102.06.103.06.104.057.104.055.104.054.105.051.105.05.105.047.106.046.105.043.106.042.106.04.106.036.105.036.106.033.105.03.105.029.104.026.104.025.104.022.103.02.102.017.102.015.1.013.101.011.1.01.098.005.097.004.096.001h.095l.094-.005.093-.005.092-.007.09-.01.089-.012.087-.015.086-.017.085-.019.082-.021.082-.024.08-.026.077-.028.076-.03.074-.032.072-.035.07-.037.069-.038.066-.041.065-.043.062-.045.06-.047.058-.05.056-.05.053-.053.052-.055.049-.057.046-.058.006-.01M137.72 393.737l-.03.048-.026.05-.025.05-.024.053-.021.053-.02.054-.017.056-.016.056-.014.058-.012.058-.01.06-.01.06-.005.061-.004.062-.002.063v.128l.005.065.006.066.007.066.01.067.01.067.014.068.015.068.017.069.019.069.02.07.024.069.024.07.027.07.028.07.03.07.032.07.034.071.035.07.007.016M143.638 398.064l.033-.045.032-.047.03-.048.027-.049.026-.05.024-.052.022-.053.02-.054.018-.055.017-.056.014-.057.013-.058.01-.059.01-.06.007-.06.005-.063.002-.062v-.128l-.002-.064-.005-.066-.007-.066-.01-.066-.01-.068-.013-.067-.014-.068-.017-.069-.018-.069-.02-.069-.002-.007" style="stroke:#fff;stroke-width:.2;stroke-miterlimit:4;stroke-dasharray:none;stroke-opacity:1" transform="rotate(90 242.272 223.505)"/><path d="m137.85 395.957.037.07.04.07.04.07.043.07.044.07.046.07.047.069.05.069.05.068.052.068.053.067.055.067.056.067.057.065.06.065.06.065.06.063.063.063.064.062.065.061.066.06.067.06.068.059.07.057.07.057.07.055.072.055.073.053.073.052.074.05.075.05.075.049.076.047.077.046.077.045.077.043.078.042.078.04.079.04.078.037.08.036.078.034.08.034.079.031.08.03.079.029.079.026.079.026.079.023.079.022.078.02.078.02.078.016.077.015.077.014.077.012.076.01.075.01.075.006.074.005.073.004.072.001h.072l.07-.002.07-.004.07-.005.068-.007.067-.009.065-.01.065-.013.064-.014.062-.015.062-.018.06-.019.058-.02.058-.023.056-.023.054-.026.054-.027.051-.028.05-.03.05-.032.046-.034.046-.035.044-.036.042-.038.041-.039.039-.04.037-.043.036-.043.015-.02M134.819 384.525l-.006-.013-.006-.012-.006-.01-.005-.012-.005-.01-.005-.01-.005-.009-.004-.009-.004-.007-.004-.007-.004-.006-.002-.006-.002-.005-.002-.005-.002-.004-.001-.002-.001-.002h0l-.001-.002h0" style="stroke:#fff;stroke-width:.2;stroke-miterlimit:4;stroke-dasharray:none;stroke-opacity:1" transform="rotate(90 242.272 223.505)"/><path d="M134.752 384.396h0v.001l.001.001.001.002.001.002.002.004.002.004.002.005.002.006.004.006.004.007.004.007.004.01.005.008.005.01.005.01.005.011.006.011.006.012.006.012.006.013.007.014.007.014.007.014.007.015.01.016.008.016.01.017.008.017.01.017.01.018.01.02.01.018.01.02.01.02.011.02.011.02.011.022.011.022.011.021.013.023.012.022.012.023.012.024.013.023.012.024.013.025.012.024.013.025.013.025.013.025.013.025.014.026.013.026.014.026.013.026.014.026.014.026.013.027.014.026.014.027.014.026.013.027.014.027.014.026.014.027.014.026.013.027.014.026.014.027.014.026.013.026.014.026.013.026.014.026.013.026.013.025.014.025.013.025.012.025.013.024.013.024.012.024.012.024.013.023.012.023.012.023.011.022.011.022.011.022.011.021.011.02.011.021.01.02.01.02.01.019.01.018.01.018.01.018.009.017.009.017.009.016.009.015.007.015.007.015.007.014.007.013.006.012M14.762 447.096a1.392 1.392 0 0 0-.58.139M14.182 447.235l-.07.04a.71.71 0 0 0-.21.207.64.64 0 0 0-.057.125.66.66 0 0 0 .063.497" style="stroke:#fff;stroke-width:.2;stroke-miterlimit:4;stroke-dasharray:none;stroke-opacity:1" transform="rotate(90 242.272 223.505)"/><path d="m13.908 448.104.065.107.08.105.096.102.109.096.122.09.134.085.143.076.15.067.155.058.16.046.162.036.16.024.159.012h.155M157.299 336.83v10.862M157.299 347.692l9.78 5.652M157.299 336.83v-7.193M137.72 350.815v10.318M137.72 361.133l12.928 4.907M138.18 350.147l4.448-5.866M139.742 350.68l2.886-3.805M139.742 355.871v-5.19M143.499 350.916l-3.757 4.955M143.499 383.793l-3.757 4.955M137.72 361.133l5.779-7.622M137.72 394.01l5.779-7.622M150.648 366.04l5.78-7.622M157.299 355.964l-.002-.127-.006-.128-.011-.127-.016-.127-.02-.126-.024-.127-.028-.125-.033-.126-.038-.124-.041-.124-.046-.123-.05-.123-.055-.121-.058-.12-.063-.12-.067-.118-.07-.117-.076-.116-.079-.115-.082-.113-.087-.111-.091-.11-.094-.109-.099-.106-.101-.106-.106-.103-.109-.101-.112-.1-.116-.097-.12-.096-.122-.093-.126-.09-.129-.09-.132-.086-.134-.085-.138-.082-.14-.08-.144-.077-.146-.074-.148-.072-.151-.07-.154-.066-.155-.065-.158-.06-.16-.06-.161-.056-.164-.053-.166-.05-.167-.047-.169-.044-.17-.042-.171-.038-.173-.036-.174-.032-.176-.03-.176-.026-.177-.023-.177-.02-.179-.018-.179-.014-.18-.01-.179-.008-.18-.005h-.36l-.18.005-.18.007-.179.011-.179.014-.178.017-.178.02-.177.024-.176.026-.175.03-.174.032-.173.036-.172.038-.17.042-.169.044-.167.047-.165.05-.164.053-.162.056-.16.06-.157.06-.156.065-.153.066-.151.07-.149.072-.146.074-.143.078-.14.08-.138.081-.135.085-.132.086-.129.09-.125.09-.123.093-.12.096-.115.097-.113.1-.109.101-.105.103-.102.106-.098.106-.095.109-.09.11-.082.105M157.299 388.84l-.002-.126-.006-.128-.011-.127-.016-.127-.02-.126-.024-.127-.028-.125-.033-.126-.038-.124-.041-.124-.046-.123-.05-.123-.055-.121-.058-.12-.063-.12-.067-.118-.07-.117-.076-.116-.079-.115-.082-.113-.087-.111-.091-.11-.094-.109-.099-.107-.101-.105-.106-.103-.109-.101-.112-.1-.116-.097-.12-.096-.122-.093-.126-.09-.129-.09-.132-.087-.134-.084-.138-.082-.14-.08-.144-.077-.146-.074-.148-.072-.151-.07-.154-.067-.155-.064-.158-.061-.16-.059-.161-.056-.164-.053-.166-.05-.167-.047-.169-.044-.17-.042-.171-.038-.173-.036-.174-.032-.176-.03-.176-.026-.177-.023-.177-.02-.179-.018-.179-.014-.18-.01-.179-.008-.18-.005h-.36l-.18.005-.18.007-.179.011-.179.014-.178.017-.178.02-.177.024-.176.026-.175.03-.174.032-.173.036-.172.038-.17.042-.169.044-.167.047-.165.05-.164.053-.162.056-.16.059-.157.061-.156.064-.153.067-.151.07-.149.072-.146.074-.143.077-.14.08-.138.082-.135.084-.132.087-.129.09-.125.09-.123.093-.12.096-.115.097-.113.1-.109.101-.105.103-.102.105-.098.107-.095.109-.09.11-.082.105M156.427 358.417l.083-.113.08-.114.075-.116.071-.117.067-.118.063-.12.059-.12.055-.121.05-.123.046-.123.042-.124.037-.124.034-.125.028-.126.025-.126.02-.127.016-.127.01-.127.008-.127.002-.127v-.007M146.295 355.964l.001.064.004.063.006.064.007.063.01.063.013.064.014.062.016.063.019.062.02.062.024.062.025.061.027.06.03.061.03.06.034.059.035.058.038.058.04.058.04.056.044.056.046.055.047.054.049.053.05.053.054.052.054.05.056.05.058.049.06.047.061.047.063.046.064.044.066.043.068.043.069.04.07.04.072.039.073.037.074.036.075.035.077.033.078.032.074.03M146.295 388.84l.001.065.004.063.006.064.007.063.01.064.013.063.014.063.016.062.019.062.02.062.024.062.025.061.027.06.03.061.03.06.034.059.035.058.038.058.04.058.04.056.044.056.046.055.047.054.049.053.05.053.054.051.054.051.056.05.058.049.06.047.061.047.063.045.064.045.066.043.068.042.069.041.07.04.072.039.073.037.074.036.075.035.077.033.078.032.074.029" style="stroke:#fff;stroke-width:.2;stroke-miterlimit:4;stroke-dasharray:none;stroke-opacity:1" transform="rotate(90 242.272 223.505)"/><path d="M153.63 355.964v-.064l-.004-.063-.006-.064-.007-.064-.01-.063-.012-.063-.015-.063-.016-.063-.019-.062-.02-.062-.023-.061-.026-.062-.027-.06-.029-.06-.031-.06-.034-.06-.035-.058-.038-.058-.04-.057-.04-.056-.044-.056-.045-.055-.048-.055-.049-.053-.05-.053-.053-.051-.055-.05-.056-.05-.058-.05-.06-.047-.06-.047-.064-.045-.064-.045-.066-.043-.067-.042-.07-.041-.07-.04-.071-.038-.073-.038-.074-.036-.076-.034-.077-.034-.077-.032-.08-.03-.08-.03-.08-.028-.082-.026-.083-.025-.083-.024-.085-.022-.085-.02-.085-.02-.087-.018-.087-.016-.087-.015-.088-.013-.089-.012-.089-.01-.09-.01-.089-.006-.09-.005-.09-.004-.09-.002h-.18l-.09.002-.09.004-.089.005-.09.007-.088.009-.09.01-.088.012-.088.013-.087.015-.087.016-.087.018-.086.02-.085.02-.084.022-.084.024-.082.025-.082.026-.081.028-.08.03-.079.03-.078.032-.076.034-.076.034-.074.036-.073.038-.072.038-.07.04-.069.041-.067.042-.066.043-.065.045-.062.045-.062.047-.06.048-.057.048-.057.05-.054.05-.053.052-.05.053-.05.053-.047.055-.045.055-.044.056-.041.056-.04.057-.037.058-.036.059-.033.059-.031.06-.03.06-.027.06-.025.062-.023.061-.02.062-.02.062-.016.063-.014.063-.012.063-.01.063-.007.064-.006.064-.004.063-.001.064M153.63 388.84v-.063l-.004-.063-.006-.064-.007-.063-.01-.064-.012-.063-.015-.063-.016-.062-.019-.063-.02-.062-.023-.061-.026-.061-.027-.061-.029-.06-.031-.06-.034-.06-.035-.058-.038-.058-.04-.057-.04-.056-.044-.056-.045-.055-.048-.054-.049-.054-.05-.052-.053-.052-.055-.05-.056-.05-.058-.049-.06-.048-.06-.046-.064-.046-.064-.044-.066-.044-.067-.042-.07-.04-.07-.04-.071-.04-.073-.036-.074-.036-.076-.035-.077-.034-.077-.032-.08-.03-.08-.03-.08-.028-.082-.026-.083-.025-.083-.024-.085-.022-.085-.02-.085-.02-.087-.018-.087-.016-.087-.015-.088-.013-.089-.012-.089-.01-.09-.009-.089-.007-.09-.005-.09-.004-.09-.002h-.18l-.09.002-.09.004-.089.005-.09.007-.088.009-.09.01-.088.012-.088.013-.087.015-.087.016-.087.018-.086.02-.085.02-.084.022-.084.024-.082.025-.082.026-.081.028-.08.03-.079.03-.078.032-.076.034-.076.035-.074.036-.073.037-.072.038-.07.04-.069.041-.067.042-.066.044-.065.044-.062.046-.062.046-.06.048-.057.049-.057.05-.054.05-.053.052-.05.052-.05.054-.047.054-.045.055-.044.056-.041.056-.04.057-.037.058-.036.059-.033.059-.031.06-.03.06-.027.06-.025.062-.023.061-.02.062-.02.063-.016.062-.014.063-.012.063-.01.064-.007.063-.006.064-.004.063-.001.064M148.23 358.25l.08.03.08.028.082.026.082.026.084.023.084.023.085.02.086.02.087.018.087.016.087.015.088.013.089.012.089.01.089.01.09.006.089.006.09.004.09.002.09.001h.09l.09-.003.09-.004.09-.005.089-.007.09-.009.088-.01.088-.01.089-.014.087-.014.087-.016.087-.018.086-.02.085-.02.084-.022.084-.024.083-.025.082-.026.08-.028.08-.03.08-.03.077-.032.077-.033.076-.035.074-.036.073-.037.072-.039.07-.04.07-.04.067-.042.066-.044.064-.044.063-.046.061-.046.06-.048.058-.049.057-.05.054-.05.053-.051.051-.053.05-.053.047-.054.045-.055.044-.056.041-.057.04-.057.038-.058.035-.058.034-.06.031-.059.03-.06.027-.06.025-.062.023-.062.021-.062.019-.062.016-.062.015-.063.012-.063.01-.064.007-.063.006-.064.004-.064.001-.063v-.004M148.23 391.128l.08.029.08.028.082.027.082.025.084.024.084.022.085.02.086.02.087.018.087.016.087.015.088.013.089.013.089.01.089.009.09.007.089.006.09.004.09.002h.18l.09-.002.09-.004.09-.005.089-.007.09-.01.088-.01.088-.01.089-.013.087-.015.087-.016.087-.018.086-.019.085-.02.084-.023.084-.023.083-.025.082-.027.08-.028.08-.029.08-.03.077-.032.077-.034.076-.034.074-.036.073-.038.072-.038.07-.04.07-.04.067-.043.066-.043.064-.045.063-.045.061-.047.06-.047.058-.05.057-.049.054-.05.053-.052.051-.053.05-.053.047-.054.045-.055.044-.056.041-.056.04-.057.038-.058.035-.059.034-.059.031-.06.03-.06.027-.06.025-.062.023-.061.021-.062.019-.062.016-.063.015-.063.012-.063.01-.063.007-.064.006-.063.004-.064.001-.064v-.004M139.742 350.68l2.886 1.096M153.43 348.796l-.159-.059-.162-.056-.163-.053-.166-.05-.167-.048-.168-.044-.17-.042-.172-.039-.173-.035-.174-.033-.175-.03-.176-.026-.177-.023-.178-.02-.178-.018-.179-.014-.18-.011-.179-.01-.18-.004-.18-.001h-.18l-.18.006-.18.007-.179.01-.179.014-.178.017-.178.02-.177.023-.176.027-.176.029-.174.032-.173.035-.171.039-.17.04-.17.045-.167.047-.166.05-.163.053-.162.056-.16.058-.158.062-.156.064-.153.066-.151.07-.149.071-.146.075-.143.077-.141.08-.138.08-.135.085-.132.087-.13.089-.125.09-.123.094-.12.095-.115.097-.113.1-.11.101-.105.103-.102.105-.098.107-.095.108-.09.11-.088.112h0M153.43 381.673l-.159-.059-.162-.056-.163-.053-.166-.05-.167-.048-.168-.044-.17-.042-.172-.039-.173-.035-.174-.033-.175-.03-.176-.026-.177-.024-.178-.02-.178-.017-.179-.015-.18-.01-.179-.01-.18-.005h-.36l-.18.005-.18.007-.179.011-.179.014-.178.017-.178.02-.177.023-.176.027-.176.029-.174.032-.173.036-.171.038-.17.041-.17.044-.167.047-.166.05-.163.053-.162.056-.16.058-.158.062-.156.064-.153.066-.151.07-.149.071-.146.075-.143.077-.141.08-.138.081-.135.084-.132.087-.13.089-.125.09-.123.094-.12.095-.115.098-.113.099-.11.101-.105.103-.102.105-.098.107-.095.108-.09.11-.088.112h0M157.299 353.37l-.002-.128-.006-.127-.011-.127-.016-.127-.02-.127-.024-.126-.028-.126-.033-.125-.038-.125-.041-.124-.046-.123-.05-.122-.055-.122-.058-.12-.063-.12-.067-.118-.07-.117-.076-.116-.079-.114-.082-.113-.087-.112-.091-.11-.094-.108-.099-.107-.101-.105-.106-.103-.109-.102-.112-.099-.116-.097-.12-.096-.122-.093-.126-.091-.129-.09-.132-.086-.134-.084-.138-.082-.14-.08-.144-.077-.146-.075-.148-.072-.151-.07-.154-.066-.155-.064-.148-.058M157.299 386.246l-.002-.127-.006-.127-.011-.127-.016-.127-.02-.127-.024-.126-.028-.126-.033-.125-.038-.125-.041-.124-.046-.123-.05-.122-.055-.122-.058-.12-.063-.12-.067-.118-.07-.117-.076-.116-.079-.114-.082-.113-.087-.112-.091-.11-.094-.108-.099-.107-.101-.105-.106-.103-.109-.102-.112-.099-.116-.097-.12-.096-.122-.093-.126-.091-.129-.09-.132-.086-.134-.084-.138-.082-.14-.08-.144-.077-.146-.075-.148-.072-.151-.07-.154-.066-.155-.064-.148-.058M137.72 316.196v10.318M137.72 316.196l12.928-4.906M137.72 316.196l5.779 7.622M137.72 283.32l5.779 7.621M139.742 321.46l3.757 4.954M139.742 288.583l3.757 4.954M139.742 326.649v-5.189M142.628 330.454l-2.886-3.805M138.18 327.182l4.448 5.867M150.648 311.29l5.78 7.622M143.499 323.82l.087.11.09.11.095.109.099.107.102.105.106.103.109.1.112.1.117.098.12.095.122.093.126.091.129.089.132.086.135.085.138.081.14.08.144.077.146.074.149.072.15.07.154.066.156.064.158.061.16.059.162.055.163.053.166.05.167.047.169.045.17.04.172.04.173.035.174.032.175.03.177.025.177.023.177.02.179.017.179.014.18.011.179.007.18.005.18.001h.18l.18-.006.18-.009.179-.01.179-.015.178-.017.178-.02.177-.024.176-.027.175-.03.174-.032.173-.036.171-.038.17-.042.17-.045.166-.047.166-.05.163-.054.162-.056.16-.058.157-.062.156-.064.153-.067.15-.07.149-.072.145-.075.144-.077.14-.08.138-.082.134-.084.132-.087.129-.09.125-.09.123-.094.119-.096.115-.097.113-.1.108-.101.106-.104.101-.105.098-.107.094-.108.091-.11.087-.112.082-.113.079-.115.075-.116.07-.117.067-.118.062-.12.059-.12.054-.121.05-.123.045-.123.042-.124.037-.125.032-.125.029-.126.024-.126.02-.127.014-.126.011-.128.006-.127.002-.12M143.499 290.942l.087.112.09.11.095.108.099.107.102.104.106.104.109.1.112.1.117.098.12.095.122.093.126.091.129.089.132.086.135.085.138.082.14.08.144.076.146.074.149.072.15.07.154.066.156.064.158.062.16.058.162.056.163.053.166.05.167.047.169.044.17.041.172.039.173.035.174.032.175.03.177.025.177.024.177.02.179.017.179.013.18.011.179.007.18.005.18.001h.18l.18-.006.18-.009.179-.01.179-.015.178-.017.178-.02.177-.024.176-.027.175-.03.174-.032.173-.036.171-.038.17-.042.17-.044.166-.048.166-.05.163-.053.162-.056.16-.06.157-.06.156-.065.153-.067.15-.07.149-.072.145-.075.144-.077.14-.08.138-.082.134-.084.132-.087.129-.09.125-.09.123-.094.119-.096.115-.097.113-.1.108-.101.106-.104.101-.105.098-.107.094-.108.091-.11.087-.112.082-.113.079-.115.075-.115.07-.118.067-.118.062-.12.059-.12.054-.121.05-.123.045-.123.042-.124.037-.125.032-.125.029-.126.024-.126.02-.126.014-.127.011-.127.006-.128.002-.12M157.299 321.366l-.002-.128-.006-.127-.011-.127-.016-.127-.02-.126-.024-.127-.028-.125-.033-.126-.038-.124-.041-.124-.046-.123-.05-.123-.055-.121-.058-.12-.063-.12-.067-.118-.07-.117-.076-.116-.079-.115-.082-.113-.005-.007M148.23 319.08l-.08.03-.077.032-.076.034-.076.034-.074.036-.073.038-.071.039-.07.04-.07.04-.067.043-.066.043-.064.045-.063.045-.06.047-.06.048-.058.049-.056.05-.055.05-.052.052-.051.052-.05.054-.046.054-.045.055-.044.056-.041.057-.04.057-.037.058-.035.058-.033.06-.032.06-.029.06-.027.06-.025.062-.023.061-.02.062-.019.063-.016.062-.014.063-.013.063-.01.064-.007.063-.005.064-.004.063v.06" style="stroke:#fff;stroke-width:.2;stroke-miterlimit:4;stroke-dasharray:none;stroke-opacity:1" transform="rotate(90 242.272 223.505)"/><path d="m146.295 321.366.001.064.004.063.006.064.007.063.01.063.013.064.014.062.016.063.019.062.02.062.024.062.025.061.027.06.03.061.03.06.034.059.035.058.038.058.04.058.04.056.044.056.046.055.047.054.049.053.05.053.054.052.054.05.056.05.058.049.06.047.061.047.063.046.064.044.066.044.068.042.069.04.07.04.072.039.073.037.074.036.075.035.077.033.078.032.079.031.08.03.08.028.082.026.083.025.083.024.085.022.085.02.086.02.086.017.087.017.088.014.088.013.088.013.09.01.088.009.09.007.09.005.09.004.09.002h.18l.09-.002.09-.004.089-.005.09-.007.089-.01.089-.01.088-.012.088-.013.088-.014.087-.017.086-.017.086-.02.085-.02.084-.022.084-.024.083-.025.082-.026.08-.028.08-.03.08-.03.077-.033.077-.033.075-.035.074-.036.073-.037.072-.039.07-.04.07-.04.067-.043.065-.043.065-.044.063-.046.061-.047.06-.047.058-.05.056-.049.054-.05.053-.052.051-.053.05-.053.046-.054.046-.055.043-.056.042-.057.04-.057.037-.058.035-.058.033-.06.032-.06.029-.06.027-.06.025-.061.023-.062.021-.062.019-.062.016-.063.014-.063.013-.063.01-.063.007-.063.006-.064.004-.064v-.063M146.295 288.489l.001.064.004.063.006.064.007.063.01.063.013.064.014.062.016.063.019.062.02.062.024.062.025.061.027.06.03.06.03.06.034.06.035.058.038.058.04.057.04.057.044.056.046.055.047.054.049.053.05.053.054.051.054.05.056.05.058.05.06.047.061.047.063.045.064.045.066.043.068.042.069.041.07.04.072.038.073.038.074.036.075.035.077.033.078.032.079.03.08.03.08.028.082.027.083.025.083.023.085.023.085.02.086.02.086.017.087.017.088.014.088.013.088.013.09.01.088.009.09.007.09.005.09.004.09.002h.18l.09-.002.09-.004.089-.005.09-.007.089-.01.089-.01.088-.012.088-.013.088-.014.087-.017.086-.017.086-.02.085-.02.084-.023.084-.023.083-.025.082-.027.08-.028.08-.03.08-.03.077-.032.077-.033.075-.035.074-.036.073-.037.072-.039.07-.04.07-.04.067-.043.065-.043.065-.045.063-.045.061-.047.06-.047.058-.05.056-.049.054-.05.053-.052.051-.053.05-.053.046-.054.046-.055.043-.056.042-.057.04-.057.037-.058.035-.058.033-.06.032-.06.029-.06.027-.06.025-.061.023-.062.021-.062.019-.062.016-.063.014-.063.013-.063.01-.063.007-.064.006-.063.004-.064v-.064" style="stroke:#fff;stroke-width:.2;stroke-miterlimit:4;stroke-dasharray:none;stroke-opacity:1" transform="rotate(90 242.272 223.505)"/><path d="M153.63 321.366v-.064l-.004-.063-.006-.064-.007-.063-.01-.064-.012-.063-.015-.063-.016-.062-.019-.063-.02-.062-.023-.061-.026-.061-.027-.061-.029-.06-.031-.06-.034-.06-.035-.058-.038-.058-.04-.057-.04-.056-.044-.056-.045-.055-.048-.054-.049-.054-.05-.052-.053-.052-.055-.05-.056-.05-.058-.05-.06-.047-.06-.047-.064-.045-.064-.045-.066-.043-.067-.042-.07-.041-.07-.04-.071-.038-.073-.038-.074-.036-.076-.035-.077-.033-.077-.032-.08-.03-.08-.03-.08-.028-.082-.026-.083-.026-.083-.023-.085-.022-.085-.021-.085-.02-.087-.017-.087-.016-.087-.015-.088-.013-.089-.012-.089-.01-.09-.01-.089-.006-.09-.005-.09-.004-.09-.002-.09-.001h-.09l-.09.003-.09.004-.089.005-.09.007-.088.009-.09.01-.088.012-.088.013-.087.015-.087.016-.087.018-.086.019-.085.02-.084.023-.084.023-.082.026-.082.026-.081.028-.08.03h-.005M153.63 288.489v-.064l-.004-.063-.006-.064-.007-.064-.01-.063-.012-.063-.015-.063-.016-.062-.019-.063-.02-.062-.023-.061-.026-.061-.027-.061-.029-.06-.031-.06-.034-.059-.035-.059-.038-.058-.04-.057-.04-.056-.044-.056-.045-.055-.048-.054-.049-.054-.05-.052-.053-.052-.055-.05-.056-.05-.058-.049-.06-.047-.06-.047-.064-.046-.064-.044-.066-.043-.067-.043-.07-.04-.07-.04-.071-.039-.073-.037-.074-.036-.076-.035-.077-.033-.077-.032-.08-.031-.08-.03-.08-.027-.082-.027-.083-.025-.083-.024-.085-.022-.085-.02-.085-.02-.087-.017-.087-.017-.087-.014-.088-.014-.089-.012-.089-.01-.09-.009-.089-.007-.09-.005-.09-.004-.09-.002h-.18l-.09.002-.09.004-.089.005-.09.007-.088.01-.09.01-.088.011-.088.014-.087.014-.087.017-.087.017-.086.02-.085.02-.084.022-.084.024-.082.025-.082.027-.081.027-.08.03h-.005M153.43 328.534l.158-.062.156-.064.153-.067.15-.07.149-.072.146-.075.143-.077.14-.08.138-.082.134-.084.132-.087.129-.09.125-.09.123-.094.119-.096.115-.097.113-.1.108-.101.106-.104.101-.105.098-.107.095-.108.09-.11.087-.112.082-.113.079-.115.075-.116.07-.117.067-.118.063-.12.058-.12.054-.121.05-.123.045-.123.042-.124.037-.125.032-.125.029-.126.024-.126.02-.127.014-.126.011-.128.006-.127.002-.12M153.43 295.657l.158-.062.156-.064.153-.067.15-.07.149-.072.146-.075.143-.077.14-.08.138-.082.134-.084.132-.087.129-.09.125-.09.123-.094.119-.096.115-.097.113-.1.108-.101.106-.104.101-.105.098-.107.095-.108.09-.11.087-.112.082-.113.079-.115.075-.116.07-.117.067-.118.063-.12.058-.12.054-.121.05-.123.045-.123.042-.124.037-.125.032-.125.029-.126.024-.126.02-.127.014-.127.011-.127.006-.127.002-.12" style="stroke:#fff;stroke-width:.2;stroke-miterlimit:4;stroke-dasharray:none;stroke-opacity:1" transform="rotate(90 242.272 223.505)"/><path d="m143.499 326.414.087.111.09.11.095.108.099.107.102.105.106.103.109.101.112.1.117.097.12.095.122.094.126.09.129.09.132.086.135.084.138.082.14.08.144.076.146.075.149.072.15.069.154.067.156.064.158.06.16.06.162.055.163.053.166.05.167.047.169.044.17.041.172.039.173.035.174.032.175.03.177.026.177.023.177.02.179.017.179.014.18.01.179.008.18.005h.36l.18-.005.18-.01.179-.01.179-.014.178-.018.178-.02.177-.024.176-.026.175-.03.174-.032.173-.036.171-.039.17-.041.17-.045.166-.047.166-.05.163-.054.162-.056.16-.059h0M143.499 293.537l.087.111.09.11.095.108.099.107.102.105.106.103.109.101.112.1.117.097.12.095.122.094.126.09.129.09.132.086.135.084.138.082.14.08.144.076.146.075.149.072.15.07.154.066.156.064.158.061.16.059.162.055.163.053.166.05.167.047.169.045.17.04.172.04.173.034.174.033.175.029.177.026.177.023.177.02.179.017.179.014.18.011.179.007.18.005.18.001.18-.001.18-.005.18-.009.179-.011.179-.014.178-.018.178-.02.177-.024.176-.026.175-.03.174-.032.173-.036.171-.039.17-.041.17-.045.166-.047.166-.05.163-.054.162-.056.16-.059h0M139.742 326.649l2.886-1.095M146.295 321.367v0M146.295 355.963v0M144.703 396.66l-1.065 1.404M144.703 280.67l-2.283-3.012M14.304 339.955h102.39M13.844 340.545l23.443 94.648M127.903 387.965l14.725-19.42M144.29 366.352l.323-.425M13.844 340.545l23.443 94.648M14.304 339.955h121.013M13.844 336.785l23.443-94.648M100.528 337.374h34.789M144.613 311.403l-.323-.425M142.628 308.785l-14.725-19.42M14.304 337.374h121.013M13.844 336.785l23.443-94.648M157.299 323.96v-2.594M135.154 282.243l1.666 2.197M70.639 180.961l73.974 97.565M13.908 229.225l29.83-57.295M14.182 230.096l120.57 62.838M136.82 392.89l-1.666 2.197M144.613 398.804l-73.974 97.564M14.182 447.235l120.57-62.84M13.908 448.104l29.83 57.296M144.703 363.783l-1.947 2.569M142.628 366.52l-.208.274M157.299 355.964v-2.595M144.703 313.547l-1.947-2.569M142.628 310.81l-.208-.275M157.299 323.96v-2.594M143.499 350.916v2.595M143.499 383.793v2.595M143.499 323.818v2.596M143.499 290.941v2.596M157.299 376.733h-14.671M167.08 369.095h-9.781M167.08 373.988h-9.781M157.299 300.6h-14.671M157.299 308.234h9.78M167.08 303.341h-9.781" style="stroke:#fff;stroke-width:.2;stroke-miterlimit:4;stroke-dasharray:none;stroke-opacity:1" transform="rotate(90 242.272 223.505)"/></g></svg>