<svg xmlns="http://www.w3.org/2000/svg" width="1280" height="720" viewBox="0 0 711.111 400"><g fill="none" stroke="#000" stroke-linecap="round" stroke-linejoin="round" stroke-width=".013" style="stroke:#fff;stroke-width:.375;stroke-miterlimit:4;stroke-dasharray:none;stroke-opacity:1"><path d="m358.161 109.717 93.198-.08M316.727 279.473l76.839 75.115M316.727 279.473l2.433-8.749 2.402-8.757 2.372-8.765 2.341-8.774 2.31-8.781 2.28-8.79 2.25-8.798 2.218-8.805 2.188-8.814 2.157-8.82 2.126-8.829 2.095-8.835 2.065-8.843 2.034-8.85 2.003-8.857 1.971-8.864 1.941-8.871 1.91-8.878 1.88-8.884.458-2.192M514.672 281l-3.987 2.142-3.98 2.156-3.97 2.17-3.965 2.184-3.956 2.197-3.949 2.212-3.94 2.225-3.934 2.24-3.925 2.252-3.917 2.266-3.91 2.28-3.901 2.294-3.894 2.307-3.885 2.321-3.878 2.335-3.869 2.348-3.86 2.361-3.853 2.375-3.845 2.389-3.836 2.402-3.827 2.415-3.82 2.428-3.81 2.442-3.802 2.455-3.794 2.469-3.784 2.482-3.777 2.494-3.767 2.508-3.759 2.522-3.75 2.534-3.74 2.547-1.222.836M451.36 109.638l.677 2.74.687 2.737.697 2.734.706 2.732.715 2.73.726 2.727.734 2.724.745 2.722.753 2.72.763 2.716.773 2.714.782 2.711.792 2.709.801 2.706.81 2.702.82 2.7.83 2.698.839 2.694.848 2.691.857 2.689.867 2.685.876 2.682.886 2.68.895 2.676.904 2.673.913 2.67.923 2.666.932 2.664.942 2.66.95 2.656.96 2.654.97 2.65.978 2.647.988 2.643.997 2.64 1.006 2.636 1.015 2.633 1.025 2.63 1.034 2.625 1.042 2.622 1.052 2.618 1.061 2.615 1.07 2.61 1.08 2.608 1.088 2.603 1.098 2.6 1.106 2.595 1.116 2.592 1.124 2.588 1.134 2.584 1.142 2.58 1.152 2.576 1.16 2.572 1.17 2.568 1.18 2.564 1.187 2.56 1.196 2.555 1.206 2.551 1.214 2.547 1.223 2.543 1.232 2.539 1.24 2.534 1.25 2.53 1.259 2.525L514.67 281" style="stroke:#fff;stroke-width:.375;stroke-miterlimit:4;stroke-dasharray:none;stroke-opacity:1" transform="translate(-89.117 -45.708)"/><path d="m453.129 109.204.676 2.733.685 2.73.695 2.729.705 2.726.714 2.723.723 2.721.734 2.719.742 2.716.752 2.713.762 2.71.77 2.708.781 2.705.79 2.703.799 2.7.809 2.696.818 2.694.827 2.692.837 2.688.846 2.685.856 2.683.865 2.679.874 2.676.884 2.673.893 2.67.902 2.667.911 2.664.921 2.66.93 2.658.94 2.654.948 2.651.958 2.648.967 2.644.976 2.64.986 2.638.995 2.634 1.004 2.63 1.012 2.627 1.023 2.623 1.031 2.62 1.04 2.616 1.05 2.612 1.059 2.61 1.068 2.604 1.077 2.601 1.086 2.598 1.095 2.594 1.104 2.59 1.113 2.585 1.122 2.583 1.131 2.578 1.14 2.574 1.15 2.57 1.157 2.566 1.168 2.562 1.175 2.558 1.185 2.554 1.194 2.55 1.203 2.545 1.211 2.542 1.22 2.537 1.23 2.533 1.238 2.528 1.246 2.524 1.256 2.52 1.264 2.515.267.53M515.53 282.607l-3.98 2.14-3.974 2.152-3.966 2.167-3.958 2.181-3.95 2.195-3.944 2.208-3.935 2.222-3.928 2.236-3.92 2.25-3.912 2.263-3.904 2.277-3.896 2.29-3.888 2.304-3.88 2.318-3.872 2.331-3.863 2.345-3.856 2.358-3.847 2.372-3.839 2.385-3.83 2.398-3.823 2.412-3.813 2.425-3.806 2.439-3.796 2.451-3.789 2.465-3.78 2.479-3.77 2.49-3.762 2.505-3.753 2.518-3.745 2.53-3.736 2.545-1.783 1.22M315.514 280.836l76.778 75.056M314.973 278.981l2.43-8.742 2.401-8.751 2.37-8.76 2.34-8.767 2.309-8.775 2.278-8.784 2.248-8.792 2.217-8.799 2.186-8.807 2.155-8.815 2.125-8.822 2.094-8.829 2.063-8.837 2.032-8.844 2.002-8.85 1.97-8.858 1.94-8.865 1.909-8.871 1.877-8.878.459-2.19M357.523 107.895l94.417-.08M356.378 109.344l-27.74-30.525M453.129 109.204l30.106-30.083M451.841 107.914l30.107-30.083M357.523 107.895l-27.538-30.303M314.973 278.981l-75.322-4.041M315.514 280.836l-75.96-4.076M392.292 355.892l-11.81 57.566M394.032 356.478l-11.765 57.346M515.53 282.607l59.035 13.715M516.72 281.012l58.257 13.534M394.464 194.854l11.858-.133M406.322 194.721l7.696 10.344M414.018 205.065l15.2 8.1M429.218 213.166l.583 20.563M429.801 233.729l-10.299 9.3M419.502 243.028l-4.012 11.607M415.49 254.635l-14.137 7.654M401.353 262.289l-8.993-4.76M392.36 257.529l-13.59 1.525M378.77 259.054l-13.513-11.494M365.257 247.56l2.277-14.12M367.534 233.44l-7.156-12.698M360.378 220.742l9.268-12.74M369.646 208.003l-1.893-13.598M367.753 194.405l13.895-9.844M381.648 184.56l12.816 10.294M391.416 222.03l13.303.27M404.719 222.3l2.64 12.15M407.36 234.45l-14.64 8.492M392.72 242.942l-9.305-9.766M383.415 233.176l8-11.147M391.416 222.03l-6.336-10.671M385.08 211.359l-15.434-3.356M385.08 211.359l9.384-16.505M414.018 205.065l-9.3 17.234M407.36 234.45l12.142 8.578M392.36 257.529l.36-14.587M383.415 233.176l-15.88.265M379.141 223.062l-.035-.115-.035-.114-.036-.115-.037-.114-.036-.115-.037-.114-.038-.114-.038-.114-.039-.114-.038-.113-.04-.114-.04-.113-.04-.113-.04-.113-.04-.113-.042-.113-.041-.113-.042-.112-.043-.112-.042-.113-.044-.112-.043-.112-.044-.111-.045-.112-.045-.111-.045-.111-.045-.111-.046-.111-.047-.111-.047-.11-.047-.11-.047-.111-.048-.11-.049-.11-.049-.11-.049-.11-.05-.109-.05-.109-.05-.109-.05-.109-.051-.108-.052-.109-.052-.108-.052-.108-.053-.108-.053-.108-.053-.108-.054-.107-.054-.107-.055-.107-.055-.107-.055-.106-.056-.107-.056-.106-.056-.106-.057-.106-.057-.105-.058-.105-.058-.105-.058-.105-.059-.105-.059-.105-.06-.104-.059-.104-.06-.104-.06-.103-.061-.104-.062-.103-.061-.103-.063-.103-.062-.103-.062-.102-.064-.102-.063-.102-.064-.101-.064-.102-.065-.101-.065-.101-.065-.101-.066-.1-.066-.1-.066-.1-.067-.1-.067-.1-.067-.1-.068-.098-.068-.1-.068-.098-.07-.098-.068-.099-.07-.097-.07-.098-.07-.097-.07-.097-.071-.097-.072-.097-.071-.096-.072-.096-.072-.096-.073-.096-.073-.095-.073-.095-.074-.095-.074-.094-.074-.095-.075-.094-.075-.093-.075-.094-.076-.093-.076-.093-.076-.093-.076-.092-.077-.093-.078-.091-.077-.092-.078-.091-.078-.091-.079-.091-.079-.09-.08-.09-.079-.09-.08-.09-.08-.09-.08-.088-.081-.09-.081-.087-.082-.089-.082-.088-.082-.087-.082-.087-.083-.087-.083-.087-.083-.087-.084-.086-.084-.086-.084-.085-.084-.086-.085-.085-.085-.084-.086-.084-.085-.084-.087-.084-.086-.083-.087-.083-.087-.083-.087-.082-.088-.083-.087-.082-.088-.081-.089-.081-.007-.007" style="stroke:#fff;stroke-width:.375;stroke-miterlimit:4;stroke-dasharray:none;stroke-opacity:1" transform="translate(-89.117 -45.708)"/><path d="m378.482 223.704.087-.083.087-.082.087-.083.086-.084.086-.084.085-.084.085-.085.084-.086.084-.085.083-.087.083-.087.083-.087.082-.088.081-.088.081-.089.08-.089.08-.09.08-.09.079-.09.078-.09.078-.092.078-.092.077-.092.076-.092.076-.093.076-.094.074-.094.075-.094.073-.094.074-.095.072-.096.073-.096.071-.096.072-.097.07-.097.07-.097.07-.098.068-.098.069-.099.068-.099.067-.1.067-.1.067-.1.065-.1.065-.1.065-.102.064-.101.064-.102.062-.103.063-.102.062-.103.06-.103.061-.104.06-.104.06-.104.059-.105.058-.105.058-.105.057-.106.056-.106.056-.106.055-.107.055-.107.054-.107.054-.107.053-.108.052-.108.052-.108.051-.109.05-.109.05-.109.05-.11.048-.109.049-.11.047-.11.047-.11.046-.112.046-.11.045-.112.044-.112.044-.111.043-.112.043-.113.042-.112.041-.113.04-.113.04-.113.04-.113.039-.114.038-.114.038-.114.037-.114.036-.115.036-.114.035-.115.034-.115.034-.115.033-.116.032-.115.032-.116.031-.116.03-.116.03-.116.03-.117.028-.116.028-.117.028-.117.026-.117.026-.117.025-.117.025-.118.024-.118.024-.117.022-.118.022-.118.022-.118.02-.118.02-.119.015-.087" style="stroke:#fff;stroke-width:.375;stroke-miterlimit:4;stroke-dasharray:none;stroke-opacity:1" transform="translate(-89.117 -45.708)"/><path d="m377.278 223.46.117.027.117.026.117.026.117.024.118.025.117.023.118.023.118.022.118.022.118.02.119.021.118.02.118.019.12.018.118.018.119.017.119.016.119.016.119.015.119.015.119.014.12.013.119.012.119.012.12.011.119.011.12.01.12.009.119.009.12.008.12.007.12.007.12.006.119.005.12.005.12.004.12.003.12.003.12.002.12.001h.12l.12.001h.12l.12-.001.12-.002.12-.002.12-.003.119-.004.12-.004.12-.005.12-.006.12-.006.12-.007.12-.008.119-.008.12-.01.119-.01.12-.01.119-.01.12-.012.119-.012.12-.013.118-.014.12-.014.119-.015.119-.015.119-.016.118-.017.12-.018.118-.018.118-.018.119-.02.118-.02.118-.02.119-.022.117-.021.118-.023.118-.023.118-.024.117-.024.118-.026.117-.025.117-.027.117-.027.117-.027.116-.029.117-.029.116-.03.116-.03.116-.03.116-.032.116-.032.115-.033.116-.033.115-.034.115-.035.114-.035.115-.036.114-.037.114-.037.114-.037.114-.039.113-.038.114-.04.113-.04.112-.041.113-.042.113-.042.112-.042.112-.043.112-.044.11-.045.112-.045.111-.046.111-.046.11-.047.11-.047.11-.048.11-.05.11-.048.062-.029" style="stroke:#fff;stroke-width:.375;stroke-miterlimit:4;stroke-dasharray:none;stroke-opacity:1" transform="translate(-89.117 -45.708)"/><path d="m377.07 222.311.018.12.018.118.02.119.02.118.02.118.023.118.022.118.024.118.024.118.025.117.027.117.026.117.028.117.029.117.03.116.03.116.03.116.033.116.033.115.033.116.034.115.035.115.036.114.037.114.038.114.038.114.04.113.04.114.04.112.043.113.042.112.044.112.044.112.045.111.045.111.047.11.047.111.048.11.05.11.049.11.05.108.052.109.052.108.052.108.054.107.054.107.055.107.056.106.057.106.057.106.058.105.059.104.06.104.06.104.061.104.062.103.062.102.064.102.064.101.065.102.065.1.067.1.066.1.068.099.068.099.07.098.07.098.07.097.07.097.073.096.072.095.074.095.074.095.074.094.076.094.076.093.076.092.077.092.078.091.079.09.079.09.08.09.08.09.081.088.082.088.082.087.083.087.084.086.084.086.085.085.086.084.086.083.086.083.088.083.087.082.089.08.089.081.09.08.09.08.09.078.091.078.092.078.093.076.092.076.094.076.094.074.095.074.042.033" style="stroke:#fff;stroke-width:.375;stroke-miterlimit:4;stroke-dasharray:none;stroke-opacity:1" transform="translate(-89.117 -45.708)"/><path d="m377.715 221.907-.102.063-.103.063-.102.063-.101.064-.101.064-.102.065-.1.065-.1.066-.1.066-.1.067-.1.067-.099.068-.099.068-.098.069-.099.069-.097.069-.098.07-.097.07-.097.071-.097.071-.096.072-.096.072-.095.073-.095.073-.095.073-.095.074-.094.075-.094.074-.094.076-.093.075-.093.076-.092.077-.092.077-.092.077-.092.078-.09.078-.091.079-.09.08-.09.078-.09.08-.09.08-.088.081-.088.081-.088.082-.088.082-.087.082-.087.083-.087.084-.086.083-.086.084-.085.085-.085.084-.084.085-.084.086-.084.086-.084.086-.083.087-.082.087-.082.088-.082.088-.081.088-.081.089-.08.089-.08.089-.08.09-.08.09-.079.09-.078.091-.078.092-.078.091-.077.092-.076.092-.077.093-.076.093-.075.093-.075.094-.075.094-.074.095-.073.094-.074.096-.072.095-.073.096-.072.096-.07.096-.072.097-.07.097-.07.098-.07.098-.07.098-.068.098-.069.099-.067.099-.068.1-.067.099-.066.1-.066.1-.065.101-.065.101-.065.101-.064.102-.064.101-.063.102-.063.103-.062.102-.062.103-.06.104-.062.103-.06.104-.06.104-.059.104-.059.105-.058.105-.058.105-.057.105-.057.106-.057.106-.055.106-.056.107-.055.107-.054.107-.054.107-.053.108-.053.107-.053.108-.052.109-.05.108-.052.11-.05.108-.05.11-.05.109-.006.015" style="stroke:#fff;stroke-width:.375;stroke-miterlimit:4;stroke-dasharray:none;stroke-opacity:1" transform="translate(-89.117 -45.708)"/><path d="m378.897 222.291-.126-.042-.125-.043-.126-.042-.126-.042-.126-.04-.126-.041-.127-.04-.126-.04-.127-.04-.127-.038-.126-.039-.127-.038-.128-.037-.127-.037-.127-.037-.128-.036-.128-.036-.127-.035-.128-.035-.129-.035-.128-.034-.128-.033-.128-.033-.129-.033-.129-.032-.128-.032-.13-.03-.128-.032-.13-.03-.128-.03-.13-.03-.13-.028-.129-.029-.13-.028-.129-.028-.13-.027-.13-.027-.13-.026-.13-.026-.13-.025-.13-.025-.13-.025-.13-.024-.131-.023-.13-.023-.132-.023-.13-.022-.131-.022-.13-.021-.132-.021-.13-.02-.132-.02-.131-.02-.131-.019-.131-.018-.132-.019-.131-.017-.132-.017-.131-.017-.132-.016-.132-.016-.132-.016-.131-.014-.132-.015-.132-.014-.132-.013-.132-.013-.132-.013-.132-.012-.132-.012-.132-.01-.132-.012-.132-.01-.133-.01-.132-.009-.132-.009-.133-.008-.132-.008-.132-.008-.133-.007-.132-.007-.132-.006-.133-.006-.133-.005-.132-.005-.133-.004-.132-.004-.133-.003-.133-.003-.132-.002-.133-.002-.132-.002-.133-.001h-.53l-.133.002-.133.002-.132.002-.133.003-.132.003-.133.004-.133.004-.132.005-.133.005-.133.005-.132.006-.132.006-.132.007-.133.007-.132.008-.132.008-.133.009-.132.009-.132.01-.133.01-.132.01-.132.011-.132.012-.132.012-.132.012-.132.013-.132.013-.132.014-.132.014-.132.015-.131.015-.132.016-.132.016-.131.016-.132.017-.131.018-.132.018-.131.018-.131.019-.132.02-.13.019-.132.02-.13.02-.131.022-.077.013M383.997 200.538l.025-.117.025-.118.023-.117.023-.118.023-.118.022-.118.021-.118.02-.118.02-.119.02-.118.019-.119.018-.119.018-.119.017-.118.016-.12.016-.118.015-.12.014-.119.014-.119.013-.12.013-.119.012-.119.011-.12.01-.12.011-.119.01-.12.009-.12.008-.119.008-.12.007-.12.006-.12.006-.12.005-.12.005-.12.004-.12.003-.12.003-.12.002-.119.001-.12v-.48l-.003-.12-.002-.12-.003-.12-.004-.12-.004-.12-.005-.12-.006-.12-.006-.12-.007-.12-.007-.12-.008-.12-.009-.12-.009-.119-.01-.12-.01-.12-.011-.119-.012-.12-.012-.119-.013-.119-.014-.12-.014-.119-.015-.119-.016-.119-.016-.119-.016-.119-.018-.119-.018-.118-.018-.119-.02-.118-.02-.119-.02-.118-.02-.118-.022-.118-.023-.118-.023-.118-.023-.118-.024-.118-.025-.117-.025-.118-.026-.117-.027-.117-.027-.117-.028-.117-.028-.116-.029-.117-.03-.116-.03-.116-.03-.116-.032-.116-.032-.116-.033-.116-.033-.115-.033-.115-.035-.115-.035-.115-.036-.115-.036-.114-.037-.114-.037-.114-.038-.114-.039-.114-.039-.113-.04-.114-.04-.113-.04-.113-.042-.112-.043-.113-.042-.112-.044-.112-.044-.112-.044-.11-.045-.112-.046-.111-.046-.111-.047-.11-.047-.111-.048-.11-.048-.11-.05-.11-.05-.109-.05-.109-.05-.109-.051-.108-.052-.109-.053-.108-.053-.107-.053-.108-.054-.107-.055-.107-.055-.106-.056-.107-.056-.106-.057-.106-.058-.105-.025-.045" style="stroke:#fff;stroke-width:.375;stroke-miterlimit:4;stroke-dasharray:none;stroke-opacity:1" transform="translate(-89.117 -45.708)"/><path d="m381.704 200.755.12-.004.12-.005.12-.006.12-.006.12-.007.12-.008.12-.009.119-.01.12-.01.119-.011.12-.012.118-.013.12-.014.119-.014.119-.015.119-.016.118-.017.12-.018.118-.018.118-.02.118-.02.119-.02.118-.022.118-.022.117-.023.118-.024.118-.025.117-.025.117-.027.117-.027.117-.028.116-.028.117-.03.116-.03.116-.03.115-.033.116-.032.115-.034.115-.034.115-.034.114-.036.115-.036.114-.037.114-.039.114-.038.113-.04.113-.04.113-.04.112-.042.112-.043.112-.043.112-.044.111-.045.111-.045.111-.046.11-.047.111-.048.11-.048.11-.05.108-.05.11-.05.108-.051.108-.052.108-.053.107-.054.107-.054.107-.055.106-.055.106-.057.106-.057.105-.057.105-.059.104-.06.104-.059.104-.06.103-.062.103-.062.102-.063.102-.063.101-.064.102-.065.1-.065.1-.066.1-.067.1-.067.098-.068.099-.069.098-.07.097-.07.097-.07.097-.071.096-.072.095-.073.095-.073.095-.074.094-.075.094-.075.092-.075.093-.077.092-.077.092-.078.09-.078.091-.079.09-.079.09-.08.089-.08.088-.082.088-.081.087-.083.087-.083.086-.084.086-.084.085-.085.084-.085.084-.086.083-.086.083-.087.082-.088.082-.088.08-.089.03-.033" style="stroke:#fff;stroke-width:.375;stroke-miterlimit:4;stroke-dasharray:none;stroke-opacity:1" transform="translate(-89.117 -45.708)"/><path d="m381.96 198.656-.022.118-.02.118-.021.118-.02.119-.018.118-.018.12-.016.118-.016.119-.015.12-.014.118-.013.12-.012.12-.01.12-.011.119-.01.12-.007.119-.008.12-.007.12-.006.12-.005.12-.004.12-.003.12-.002.12-.001.12v.24l.002.12.003.12.003.12.004.12.005.119.006.12.007.12.008.12.01.12.01.119.01.12.012.119.013.12.013.119.015.119.015.119.016.119.018.119.018.119.019.118.02.119.02.118.022.118.023.118.023.118.025.117.025.118.026.117.027.116.028.117.03.117.029.116.03.116.032.116.033.116.033.115.034.115.035.115.036.114.037.115.038.114.038.113.04.114.04.113.041.113.042.112.043.112.044.112.045.111.045.111.046.111.047.11.048.11.05.11.049.11.05.108.052.109.052.108.053.108.053.107.055.107.056.106.056.106.057.106.058.105.058.105.06.104.06.104.061.103.062.103.063.103.063.102.065.101.065.101.065.1.067.1.067.1.068.099.069.098.07.098.07.097.07.097.072.096.073.095.073.095.074.095.028.035" style="stroke:#fff;stroke-width:.375;stroke-miterlimit:4;stroke-dasharray:none;stroke-opacity:1" transform="translate(-89.117 -45.708)"/><path d="m383.492 198.172-.116.033-.115.033-.115.034-.115.034-.115.035-.115.036-.114.036-.114.036-.114.037-.114.038-.114.038-.114.039-.113.04-.114.04-.113.04-.112.04-.113.042-.113.042-.112.042-.112.043-.112.044-.111.044-.112.045-.11.045-.112.045-.11.047-.111.046-.11.048-.11.048-.11.048-.11.049-.11.049-.109.05-.108.05-.11.051-.108.052-.108.051-.108.053-.108.053-.107.053-.107.055-.107.054-.106.055-.107.056-.106.056-.106.056-.106.057-.105.058-.105.058-.105.058-.104.06-.105.059-.104.06-.103.06-.104.062-.103.061-.103.062-.102.063-.103.063-.101.063-.102.064-.101.064-.101.065-.1.066-.101.066-.1.066-.1.067-.1.067-.098.068-.1.068-.097.069-.098.069-.098.07-.098.07-.097.07-.096.071-.097.072-.096.072-.096.072-.095.073-.095.073-.095.074-.094.074-.094.075-.094.075-.093.076-.093.076-.092.076-.092.077-.092.077-.092.078-.09.078-.091.079-.09.079-.09.08-.09.08-.09.08-.088.08-.088.081-.089.082-.087.082-.087.082-.087.083-.087.083-.086.084-.086.084-.085.085-.085.084-.084.086-.084.085-.084.086-.083.087-.083.087-.082.087-.082.088-.082.088-.08.088-.082.09-.08.088-.08.09-.08.09-.078.09-.079.091-.078.091-.077.092-.078.091-.077.093-.076.092-.076.093-.076.094-.075.093-.074.094-.074.095-.074.094-.073.095-.073.096-.072.096-.072.096-.072.096-.071.097-.07.097-.07.098-.07.097-.07.098-.02.03" style="stroke:#fff;stroke-width:.375;stroke-miterlimit:4;stroke-dasharray:none;stroke-opacity:1" transform="translate(-89.117 -45.708)"/><path d="m384.317 198.694-.1-.065-.101-.066-.101-.065-.101-.064-.102-.064-.102-.064-.102-.063-.102-.062-.102-.062-.103-.062-.103-.061-.104-.06-.103-.061-.104-.06-.105-.06-.104-.058-.105-.058-.105-.058-.106-.057-.105-.057-.106-.057-.107-.056-.106-.055-.107-.055-.106-.055-.108-.054-.107-.053-.108-.053-.108-.053-.108-.052-.108-.052-.109-.05-.108-.051-.11-.05-.109-.05-.11-.049-.109-.049-.11-.048-.11-.047-.11-.048-.111-.046-.11-.046-.112-.046-.111-.045-.112-.044-.111-.045-.112-.043-.112-.043-.112-.043-.113-.042-.112-.042-.113-.04-.113-.041-.113-.04-.113-.04-.114-.038-.113-.039-.114-.038-.114-.037-.114-.037-.115-.037-.114-.036-.115-.035-.115-.035-.115-.034-.115-.034-.115-.033-.116-.033-.115-.032-.116-.032-.116-.031-.116-.03-.116-.03-.116-.03-.116-.03-.117-.028-.117-.028-.116-.028-.117-.027-.117-.026-.118-.026-.117-.025-.117-.025-.118-.024-.117-.024-.118-.023-.118-.023-.118-.022-.118-.022-.118-.021-.118-.02-.119-.02-.118-.02-.119-.019-.118-.018-.119-.018-.119-.018-.118-.016-.12-.017-.118-.015-.12-.016-.118-.014-.12-.014-.119-.014-.12-.013-.119-.013-.119-.011-.12-.012-.119-.01-.12-.011-.12-.01-.119-.009-.12-.009-.12-.008-.119-.008-.12-.007-.12-.007-.12-.006-.12-.005-.12-.005-.12-.004-.119-.004-.12-.003-.12-.003-.12-.002-.12-.002-.12-.001h-.36l-.12.001-.12.002-.119.002-.12.003-.12.003-.12.004-.12.004-.12.005-.119.005-.12.006-.12.007-.12.007-.12.008-.12.008-.119.01-.022.001M400.946 209.59l-.011-.119-.012-.12-.012-.119-.013-.12-.013-.119-.014-.119-.014-.119-.015-.119-.016-.12-.016-.118-.017-.119-.017-.119-.018-.118-.018-.119-.02-.118-.019-.119-.02-.118-.02-.119-.022-.118-.021-.118-.023-.118-.023-.118-.023-.118-.024-.117-.025-.118-.025-.117-.026-.118-.026-.117-.027-.117-.027-.117-.028-.116-.029-.117-.029-.117-.03-.116-.03-.117-.03-.115-.031-.116-.032-.116-.032-.116-.033-.115-.034-.116-.034-.115-.034-.115-.035-.115-.036-.114-.036-.115-.037-.114-.037-.114-.038-.114-.038-.114-.039-.113-.04-.114-.04-.113-.04-.113-.04-.113-.043-.112-.042-.113-.043-.112-.043-.112-.044-.112-.044-.111-.045-.112-.045-.11-.046-.112-.046-.11-.047-.111-.048-.11-.048-.11-.048-.11-.049-.11-.05-.11-.05-.108-.05-.11-.051-.108-.052-.108-.052-.108-.053-.108-.053-.108-.053-.107-.054-.108-.055-.106-.055-.107-.056-.106-.056-.106-.057-.106-.057-.106-.058-.105-.058-.105-.059-.104-.059-.105-.06-.104-.06-.104-.06-.103-.062-.103-.061-.103-.062-.103-.063-.102-.063-.102-.064-.102-.064-.101-.064-.102-.065-.1-.066-.101-.066-.1-.066-.1-.067-.1-.068-.1-.068-.098-.068-.099-.069-.098-.069-.098-.07-.098-.07-.097-.07-.097-.072-.097-.071-.096-.072-.097-.073-.095-.073-.095-.073-.095-.074-.095-.074-.094-.075-.094-.076-.094-.075-.093-.076-.093-.077-.092-.077-.092-.077-.092-.078-.091-.079-.091-.078-.091-.08-.09-.079-.09-.08-.09-.08-.089-.04-.043" style="stroke:#fff;stroke-width:.375;stroke-miterlimit:4;stroke-dasharray:none;stroke-opacity:1" transform="translate(-89.117 -45.708)"/><path d="m400.466 210.202.075-.094.075-.093.074-.095.074-.094.074-.095.073-.095.073-.095.072-.096.072-.096.072-.097.07-.096.071-.098.07-.097.07-.098.07-.098.068-.098.068-.1.068-.098.068-.1.067-.099.066-.1.066-.1.066-.1.065-.101.065-.101.064-.102.064-.102.063-.102.063-.102.063-.103.062-.103.061-.103.061-.103.06-.104.06-.104.06-.104.06-.105.058-.105.058-.105.058-.105.057-.105.057-.106.056-.106.056-.107.055-.106.055-.107.054-.107.054-.108.053-.107.053-.108.052-.108.052-.108.052-.109.05-.109.05-.109.05-.109.05-.11.049-.109.048-.11.048-.11.048-.11.046-.11.047-.112.046-.11.045-.112.045-.111.044-.112.044-.111.043-.112.043-.113.042-.112.042-.112.041-.113.04-.113.041-.113.04-.114.039-.113.039-.114.038-.113.038-.114.037-.115.036-.114.036-.114.036-.115.035-.115.035-.115.034-.115.033-.116.033-.115.032-.116.032-.115.032-.116.03-.116.031-.116.03-.117.029-.116.029-.117.028-.117.028-.116.027-.117.026-.117.026-.118.026-.117.025-.117.024-.118.024-.118.024-.117.022-.118.023-.118.021-.118.022-.118.02-.118.02-.119.02-.118.02-.119.018-.118.018-.12.017-.118.017-.119.017-.119.015-.119.016-.119.014-.12.015-.118.013-.12.013-.12.013-.119.012-.119.011-.12.011-.12.01-.119.01-.12.01-.119.009-.12.008-.12.008-.12.007-.12.007-.12.006-.12.006-.12v-.027" style="stroke:#fff;stroke-width:.375;stroke-miterlimit:4;stroke-dasharray:none;stroke-opacity:1" transform="translate(-89.117 -45.708)"/><path d="m399.542 210.234.12-.002.12-.003.12-.003.12-.004.119-.005.12-.005.12-.006.12-.006.12-.007.12-.008.119-.008.12-.009.119-.009.12-.01.12-.01.119-.011.119-.012.12-.013.119-.013.119-.013.12-.014.118-.015.12-.016.118-.016.119-.016.119-.017.118-.018.119-.019.118-.019.119-.02.118-.02.118-.02.118-.022.119-.022.117-.022.118-.023.118-.024.117-.024.118-.025.117-.026.117-.026.117-.026.117-.028.117-.027.116-.029.117-.029.116-.03.116-.03.116-.03.116-.031.115-.032.116-.033.115-.033.115-.034.115-.034.115-.035.115-.035.114-.036.115-.037.114-.037.114-.038.113-.038.114-.039.113-.04.113-.04.113-.04.113-.041.113-.042.112-.042.112-.043.112-.043.112-.044.111-.044.111-.046.111-.045.111-.046.11-.047.11-.048.111-.047.11-.049.11-.049.11-.05.108-.05.109-.05.109-.05.108-.052.108-.052.107-.053.108-.053.107-.054.108-.055.106-.054.107-.056.106-.056.106-.056.106-.057.105-.058.105-.058.105-.059.105-.059.104-.06.104-.06.103-.06.103-.061.103-.062.103-.062.102-.063.102-.063.102-.064.101-.064.101-.065.101-.065.1-.066.1-.067.1-.066.1-.068.099-.067.098-.069.099-.069.098-.069.098-.07.097-.07.097-.07.096-.072.097-.071.095-.073.096-.072.095-.073.095-.074.094-.074.038-.03" style="stroke:#fff;stroke-width:.375;stroke-miterlimit:4;stroke-dasharray:none;stroke-opacity:1" transform="translate(-89.117 -45.708)"/><path d="m399.486 208.986.002.12.003.12.003.12.004.12.005.12.006.12.006.12.007.12.008.12.008.12.01.119.01.12.01.12.011.119.012.12.013.118.013.12.014.12.015.118.015.12.016.118.017.12.018.118.018.119.019.118.02.119.02.118.021.118.022.119.023.118.023.118.024.117.024.118.026.117.025.118.027.117.027.116.029.117.028.117.03.116.03.117.03.115.032.116.032.116.033.115.034.116.034.115.035.115.036.114.036.115.037.114.037.114.039.114.039.113.04.114.04.113.04.113.042.112.043.113.043.112.043.111.045.112.045.111.045.111.046.111.047.11.048.111.048.11.05.11.049.11.05.108.05.11.052.108.052.108.053.107.054.108.054.107.055.107.055.106.056.107.056.105.058.106.057.105.059.105.059.105.06.104.06.103.06.104.062.103.062.103.063.102.063.102.064.102.065.1.065.102.066.1.066.1.067.1.067.1.068.098.069.098.07.099.07.097.07.097.07.097.072.096.073.096.072.096.074.095.074.094.074.094.075.094.076.094.076.093.077.092.077.092.077.091.078.091.08.09.079.091.08.09.062.07" style="stroke:#fff;stroke-width:.375;stroke-miterlimit:4;stroke-dasharray:none;stroke-opacity:1" transform="translate(-89.117 -45.708)"/><path d="m400.262 208.347-.094.074-.093.076-.094.075-.092.076-.093.077-.092.077-.092.077-.091.078-.091.078-.091.078-.09.08-.09.079-.09.08-.09.08-.088.08-.088.082-.088.082-.088.081-.087.083-.087.083-.086.083-.086.084-.086.084-.085.084-.085.085-.085.085-.084.086-.083.086-.084.087-.082.086-.083.088-.082.087-.081.089-.081.088-.081.089-.08.089-.08.09-.08.09-.08.09-.078.09-.078.092-.078.091-.077.092-.077.092-.077.093-.076.093-.075.093-.075.093-.075.094-.074.095-.074.094-.073.095-.073.096-.072.096-.072.096-.072.096-.071.097-.07.097-.07.097-.07.098-.07.098-.068.099-.069.098-.067.1-.068.098-.067.1-.066.1-.066.1-.065.101-.065.101-.065.101-.064.102-.063.102-.063.102-.063.102-.062.103-.061.103-.062.103-.06.104-.06.104-.06.104-.059.104-.059.105-.058.105-.057.105-.057.106-.057.106-.056.106-.056.106-.055.107-.055.106-.054.108-.054.107-.053.108-.053.108-.052.108-.051.108-.051.109-.05.109-.051.109-.05.11-.049.109-.048.11-.048.11-.047.11-.047.11-.047.111-.046.111-.045.111-.045.112-.044.111-.044.112-.043.112-.042.112-.043.113-.041.112-.041.113-.041.113-.04.113-.04.114-.038.114-.039.113-.038.114-.037.114-.037.115-.036.114-.036.115-.035.115-.035.114-.034.115-.033.116-.033.115-.032.116-.032.116-.032.115-.03.116-.031.117-.03.116-.005.02" style="stroke:#fff;stroke-width:.375;stroke-miterlimit:4;stroke-dasharray:none;stroke-opacity:1" transform="translate(-89.117 -45.708)"/><path d="m400.812 208.41-.12-.014-.118-.015-.12-.013-.119-.013-.12-.013-.118-.012-.12-.012-.12-.01-.12-.01-.119-.01-.12-.01-.119-.009-.12-.008-.12-.008-.12-.007-.119-.007-.12-.006-.12-.005-.12-.005-.12-.004-.12-.004-.12-.003-.119-.003-.12-.002-.12-.002h-.12l-.12-.001h-.24l-.12.001-.12.002-.12.002-.12.003-.119.003-.12.004-.12.004-.12.005-.12.006-.12.006-.12.007-.119.007-.12.008-.12.008-.119.01-.12.008-.12.01-.119.01-.12.012-.119.011-.12.013-.118.012-.12.013-.119.014-.12.015-.118.014-.12.016-.118.016-.12.016-.118.017-.119.018-.118.018-.119.019-.118.02-.119.019-.118.02-.118.021-.118.021-.118.022-.118.023-.118.023-.117.023-.118.025-.118.024-.117.025-.117.026-.117.026-.117.027-.117.028-.117.027-.116.029-.117.029-.116.03-.116.03-.116.03-.116.031-.116.032-.115.032-.116.032-.115.034-.115.033-.115.035-.115.035-.115.035-.114.036-.115.036-.114.037-.114.037-.114.038-.114.039-.113.039-.113.039-.114.04-.113.04-.112.042-.113.041-.112.042-.113.043-.111.043-.112.044-.112.044-.111.045-.111.045-.112.045-.11.046-.11.047-.111.048-.11.047-.11.048-.11.05-.11.049-.109.05-.109.05-.108.05-.109.051-.108.052-.108.052-.108.053-.108.053-.107.054-.107.054-.107.055-.106.055-.107.055-.106.057-.105.056-.059.032M417.62 224.994l.018-.119.017-.119.016-.119.016-.119.016-.119.015-.119.015-.119.014-.119.014-.12.013-.119.013-.119.012-.12.012-.119.012-.12.011-.12.01-.119.01-.12.01-.12.01-.119.009-.12.008-.119.008-.12.007-.12.007-.12.006-.12.006-.12.006-.12.005-.12.005-.12.004-.12.004-.12.003-.12.003-.119.002-.12.002-.12v-.12l.002-.12v-.48l-.002-.12-.002-.12-.002-.12-.003-.12-.003-.12-.004-.12-.004-.12-.004-.12-.005-.12-.005-.12-.006-.12-.006-.12-.007-.12-.007-.12-.008-.12-.008-.12-.009-.12-.009-.119-.009-.12-.01-.119-.01-.12-.01-.12-.012-.119-.012-.12-.012-.119-.013-.12-.013-.119-.013-.119-.014-.12-.015-.118-.014-.12-.016-.119-.016-.119-.016-.119-.017-.118-.017-.12-.017-.118-.018-.119-.019-.119-.019-.118-.02-.119-.02-.118-.02-.118-.02-.119-.021-.118-.022-.118-.022-.118-.023-.118-.023-.118-.023-.117-.024-.118-.024-.118-.025-.117-.026-.117-.025-.118-.026-.117-.027-.117-.027-.117-.027-.117-.028-.117-.028-.116-.03-.117-.028-.116-.03-.116-.03-.117-.03-.116-.032-.116-.031-.116-.032-.115-.033-.116-.032-.116-.034-.115-.033-.115-.034-.115-.035-.115-.035-.115-.035-.115-.036-.115-.036-.114-.037-.114-.037-.115-.037-.114-.038-.114-.039-.113-.038-.114-.04-.113-.04-.114-.04-.113-.04-.113-.041-.113-.042-.113-.042-.112-.042-.112-.043-.113-.043-.112-.043-.112-.044-.111-.045-.112-.045-.111-.045-.111-.045-.111-.047-.111-.046-.11-.047-.111-.047-.11-.048-.111-.049-.11-.048-.11-.05-.11-.049-.109-.05-.109-.05-.11-.05-.108-.052-.109-.051-.108-.052-.108-.052-.108-.053-.108-.053-.108-.054-.107-.054-.107-.054-.107-.055-.107-.055-.107-.056-.106-.056-.107-.056-.106-.057-.105-.057-.106-.058-.105-.04-.075M415.3 223.064l-.013.12-.013.12-.012.119-.012.119-.012.12-.011.119-.011.12-.01.12-.01.119-.01.12-.008.12-.01.12-.007.119-.008.12-.007.12-.007.12-.006.12-.006.12-.005.12-.005.12-.005.119-.004.12-.004.12-.003.12-.003.12-.002.12-.002.12-.001.12-.001.12v.48l.002.12.002.12.002.12.003.12.003.12.004.12.004.12.004.12.005.12.005.12.006.119.006.12.007.12.007.12.008.12.008.12.008.12.009.119.009.12.01.12.01.119.01.12.012.119.011.12.012.119.012.12.013.119.014.12.013.118.015.12.014.119.015.119.016.119.016.119.016.12.017.118.017.119.018.118.018.12.019.118.019.118.02.119.02.118.02.118.02.119.022.118.022.118.022.118.022.118.023.118.024.118.024.117.024.118.025.117.025.118.025.117.027.117.026.117.027.117.027.117.028.117.028.117.029.116.03.117.029.116.03.116.03.116.03.116.032.116.032.116.032.116.032.115.033.116.034.115.033.115.035.115.034.115.035.115.036.115.036.114.036.115.037.114.037.114.038.114.038.114.038.114.039.114.04.113.039.113.04.113.04.113.042.113.041.113.042.112.042.112.043.113.043.112.044.112.044.111.044.112.045.111.045.112.046.11.046.112.046.11.047.11.047.111.048.11.048.11.049.11.049.11.049.11.05.108.05.11.05.108.051.109.052.108.051.109.053.108.052.108.053.108.054.107.053.108.054.107.055.107.055.107.055.106.056.106.056.107.056.106.057.105.058.106.057.105.058.105.059.105.059.105.059.104.06.104.06.104.053.092" style="stroke:#fff;stroke-width:.375;stroke-miterlimit:4;stroke-dasharray:none;stroke-opacity:1" transform="translate(-89.117 -45.708)"/><path d="m416.436 225.647.107-.056.106-.056.105-.057.106-.057.105-.057.105-.058.105-.059.105-.058.104-.06.105-.06.104-.059.103-.06.104-.061.103-.061.104-.062.102-.062.103-.062.102-.063.102-.063.102-.063.102-.064.101-.064.101-.065.101-.065.1-.066.101-.066.1-.066.1-.066.1-.067.099-.068.1-.068.098-.068.099-.068.098-.07.098-.068.098-.07.097-.07.097-.07.097-.071.097-.071.096-.072.096-.072.096-.072.096-.073.095-.073.095-.073.094-.074.095-.074.094-.075.094-.074.093-.075.093-.076.093-.076.093-.076.092-.077.092-.077.092-.077.092-.078.09-.078.092-.078.09-.08.09-.078.09-.08.09-.08.09-.08.089-.08.088-.08.089-.082.088-.081.088-.082.087-.082.088-.083.086-.083.087-.083.086-.083.086-.084.085-.085.086-.084.085-.085.084-.085.084-.086.084-.085.084-.087.083-.086.083-.087.082-.087.083-.087.082-.088.081-.088.081-.089.081-.088.08-.09.08-.089.08-.09.08-.09.08-.09.078-.09.079-.09.078-.092.078-.091.077-.092.077-.092.077-.093.076-.092.076-.093.076-.094.075-.093.075-.094.075-.094.074-.095.073-.094.074-.095.073-.096.073-.095.072-.096.072-.096.072-.096.07-.097.072-.097.07-.097.07-.098.07-.098.07-.098.068-.098.069-.098.068-.1.068-.098.067-.1.067-.099.067-.1.066-.1.066-.1.066-.1.065-.102.064-.1.065-.102.064-.101.063-.102.063-.102.063-.103.063-.102.062-.103.061-.103.061-.104.061-.103.06-.104.06-.104.06-.104.06-.105.058-.104.056-.101" style="stroke:#fff;stroke-width:.375;stroke-miterlimit:4;stroke-dasharray:none;stroke-opacity:1" transform="translate(-89.117 -45.708)"/><path d="m415.191 224.195.075.094.076.093.076.093.077.093.076.092.077.092.078.092.078.09.078.092.079.09.079.09.08.09.08.09.08.09.08.088.081.089.082.088.082.088.082.087.082.087.083.087.083.087.084.086.084.085.085.086.084.085.085.084.086.084.086.084.086.084.087.083.087.083.087.082.088.082.088.082.088.081.089.081.089.08.089.08.09.08.09.08.09.078.091.079.091.078.092.078.091.077.093.077.092.077.093.076.093.076.093.075.094.075.094.075.095.074.094.074.095.073.095.073.096.073.096.072.097.071.096.072.097.07.097.071.098.07.098.07.098.07.098.068.098.068.1.068.099.068.1.067.099.066.1.066.1.066.1.065.102.065.1.065.102.064.102.063.102.063.102.063.103.062.103.062.103.062.103.06.104.061.104.06.104.06.105.06.104.058.105.058.105.058.106.057.105.057.106.056.106.056.107.056.106.055.107.054.107.055.108.053.107.053.108.053.108.052.108.052.109.052.108.05.11.051.108.05.11.05.11.049.109.048.11.048.11.048.11.047.111.047.11.046.112.046.111.045.111.044.112.045.112.043.112.044.112.043.112.042.113.042.112.041.113.04.113.041.113.04.114.04.113.039.114.038.114.038.114.038.114.036.114.037.115.036.114.035.115.035.115.035.115.034.116.033.115.034.116.032.115.032.116.032.097.026M416.443 222.305l-.102.064-.101.064-.102.064-.1.066-.1.065-.1.067-.1.067-.1.067-.099.068-.098.069-.098.069-.098.07-.097.07-.097.07-.096.072-.096.072-.096.073-.095.073-.095.074-.094.074-.094.075-.094.075-.093.076-.092.076-.092.077-.092.077-.091.078-.091.079-.09.079-.09.08-.09.08-.089.08-.088.081-.088.082-.088.082-.087.082-.087.084-.086.083-.085.084-.085.085-.085.085-.084.086-.084.086-.083.086-.082.087-.083.088-.081.088-.081.089-.08.089-.08.09-.08.09-.08.09-.078.09-.078.092-.077.091-.077.093-.077.092-.076.093-.075.094-.075.094-.074.094-.074.095-.073.095-.072.095-.072.096-.072.097-.07.097-.07.097-.07.098-.07.098-.068.098-.068.1-.068.098-.067.1-.066.1-.066.1-.065.102-.064.1-.064.102-.064.102-.063.103-.062.102-.062.103-.06.104-.06.103-.06.104-.06.105-.059.105-.058.105-.057.105-.057.106-.056.106-.055.106-.055.107-.055.107-.053.108-.053.108-.052.108-.052.108-.052.109-.05.108-.05.11-.05.109-.048.11-.048.11-.047.11-.047.11-.046.111-.045.111-.045.112-.044.112-.044.112-.043.112-.042.112-.042.113-.04.112-.04.114-.04.113-.04.114-.038.113-.037.114-.037.115-.036.114-.036.115-.035.114-.034.116-.034.115-.033.115-.032.116-.011.041" style="stroke:#fff;stroke-width:.375;stroke-miterlimit:4;stroke-dasharray:none;stroke-opacity:1" transform="translate(-89.117 -45.708)"/><path d="m417.857 222.938-.107-.054-.108-.053-.108-.052-.108-.051-.11-.051-.108-.05-.11-.049-.11-.048-.11-.048-.11-.046-.112-.046-.111-.044-.112-.044-.112-.044-.112-.042-.112-.042-.113-.04-.113-.04-.114-.04-.114-.038-.114-.037-.114-.037-.115-.036-.114-.034-.115-.034-.116-.034-.115-.032-.116-.031-.116-.03-.116-.03-.117-.029-.117-.028-.117-.027-.117-.026-.117-.025-.118-.025-.117-.023-.118-.023-.118-.021-.118-.021-.119-.02-.118-.02-.119-.018-.119-.017-.119-.016-.119-.016-.119-.015-.119-.014-.12-.012-.119-.012-.12-.012-.119-.01-.12-.009-.119-.008-.12-.008-.12-.007-.12-.006-.12-.005-.12-.004-.119-.003-.12-.002h-.12l-.12-.001h-.12l-.12.001-.12.002-.12.003-.12.004-.119.005-.12.006-.12.007-.12.008-.119.008-.12.01-.12.01-.119.01-.12.013-.119.013-.119.014-.119.014-.119.016-.119.017-.118.017-.12.018-.118.02-.118.02-.118.02-.118.022-.118.023-.117.023-.118.025-.117.025-.117.026-.117.027-.117.028-.117.029-.116.03-.116.03-.116.032-.115.032-.116.033-.115.034-.114.035-.115.036-.114.036-.115.038-.114.038-.113.04-.113.04-.113.04-.112.042-.112.042-.102.04M395.234 232.29l.1.066.101.065.102.064.102.064.102.062.103.062.103.061.104.06.104.06.104.059.106.058.105.057.106.056.107.055.107.055.107.054.108.053.108.052.108.051.11.05.109.05.11.049.11.048.11.047.11.046.111.046.112.044.112.044.112.043.112.042.113.04.113.04.114.04.113.038.114.037.114.037.115.036.115.035.115.034.115.033.116.032.115.031.117.03.116.03.116.028.117.028.117.027.118.026.117.024.117.024.118.024.118.022.118.021.118.02.119.02.118.018.12.018.118.017.119.016.119.014.12.014.118.013.12.013.12.01.119.011.12.01.119.007.12.007.12.007.12.006.12.005.12.004.12.003.119.002.12.001h.24l.12-.003.12-.003.12-.004.12-.005.12-.006.12-.006.119-.007.12-.008.12-.009.119-.01.12-.011.119-.012.12-.013.118-.014.12-.015.118-.015.12-.017.118-.017.118-.019.119-.02.118-.02.118-.02.118-.023.118-.023.118-.024.117-.024.117-.026.117-.027.064-.015" style="stroke:#fff;stroke-width:.375;stroke-miterlimit:4;stroke-dasharray:none;stroke-opacity:1" transform="translate(-89.117 -45.708)"/><path d="m395.974 231.33-.077.092-.076.093-.075.094-.075.094-.073.094-.073.096-.072.095-.072.097-.07.097-.07.098-.069.098-.068.1-.067.099-.067.1-.065.1-.065.1-.064.102-.063.102-.063.103-.061.103-.06.104-.06.104-.06.104-.058.106-.057.105-.056.106-.056.106-.054.107-.054.108-.053.107-.052.109-.051.108-.05.11-.05.109-.048.11-.047.11-.047.11-.045.112-.045.111-.044.112-.043.112-.042.112-.041.113-.04.113-.04.114-.038.113-.037.114-.036.115-.036.115-.034.115-.034.115-.033.116-.031.116-.031.116-.03.116-.029.116-.028.117-.026.117-.026.117-.025.118-.024.117-.023.118-.023.118-.02.118-.02.119-.02.118-.018.12-.017.118-.017.119-.015.12-.014.118-.014.12-.012.119-.011.12-.01.12-.01.119-.008.12-.007.12-.006.12-.005.12-.005.12-.004.119-.003.12-.002.12v.24l.001.12.002.12.003.12.004.12.005.12.006.12.007.12.008.119.009.12.01.12.011.119.013.12.013.119.014.119.015.119.016.12.017.118.01.063" style="stroke:#fff;stroke-width:.375;stroke-miterlimit:4;stroke-dasharray:none;stroke-opacity:1" transform="translate(-89.117 -45.708)"/><path d="m396.795 231.519-.116-.03-.117-.028-.117-.028-.117-.027-.117-.026-.117-.025-.117-.025-.118-.024-.118-.023-.118-.022-.118-.022-.118-.02-.118-.02-.119-.02-.118-.019-.119-.018-.119-.017-.119-.016-.119-.015-.119-.015-.119-.014-.12-.013-.119-.013-.12-.011-.119-.011-.12-.01-.119-.01-.12-.008-.12-.008-.12-.007-.119-.006-.12-.005-.12-.005-.12-.004-.12-.003-.12-.002-.12-.002-.12-.001h-.24l-.12.003-.12.002-.12.003-.12.004-.119.005-.12.005-.12.006-.12.007-.12.008-.119.009-.12.009-.119.01-.12.01-.119.013-.12.012-.119.013-.119.014-.119.015-.119.015-.119.017-.119.017-.118.018-.119.018-.118.02-.119.02-.118.02-.118.022-.118.023-.118.023-.117.024-.118.025-.117.025-.117.026-.117.027-.117.028-.116.029-.117.029-.116.03-.116.03-.116.032-.115.033-.115.033-.115.033-.116.035-.114.035-.115.036-.114.037-.114.037-.114.038-.113.04-.114.039-.113.04-.113.042-.112.042-.112.042-.112.043-.112.044-.111.045-.111.046-.111.046-.11.047-.11.047-.11.049-.11.049-.11.05-.108.05-.108.052-.109.052-.108.052-.107.054-.107.054-.107.054-.106.056-.107.056-.104.056" style="stroke:#fff;stroke-width:.375;stroke-miterlimit:4;stroke-dasharray:none;stroke-opacity:1" transform="translate(-89.117 -45.708)"/><path d="m396.868 232.418-.006-.12-.007-.12-.008-.12-.01-.12-.01-.119-.011-.12-.013-.119-.013-.12-.015-.118-.015-.12-.017-.118-.018-.119-.018-.118-.02-.119-.02-.118-.022-.118-.023-.118-.024-.118-.025-.118-.026-.117-.026-.117-.028-.117-.029-.116-.03-.117-.03-.116-.032-.115-.033-.116-.034-.115-.035-.115-.036-.114-.036-.114-.038-.114-.039-.114-.04-.113-.04-.113-.042-.113-.042-.112-.044-.112-.045-.111-.045-.112-.047-.11-.047-.11-.049-.11-.049-.11-.05-.109-.052-.109-.052-.108-.053-.107-.054-.107-.055-.107-.056-.107-.056-.105-.058-.106-.059-.104-.06-.105-.06-.104-.06-.103-.063-.102-.063-.102-.064-.102-.064-.101-.066-.1-.067-.1-.067-.1-.068-.098-.07-.099-.07-.097-.07-.097-.072-.096-.073-.096-.073-.095-.074-.095-.074-.093-.076-.094-.077-.092-.077-.092-.078-.091-.079-.09-.08-.09-.08-.09-.08-.088-.083-.088-.082-.087-.084-.086-.084-.085-.085-.085-.085-.084-.087-.084-.087-.082-.088-.082-.088-.081-.09-.08-.09-.08-.09-.079-.091-.078-.092-.077-.092-.077-.094-.075-.093-.075-.095-.074-.084-.065" style="stroke:#fff;stroke-width:.375;stroke-miterlimit:4;stroke-dasharray:none;stroke-opacity:1" transform="translate(-89.117 -45.708)"/><path d="m396.144 232.848.104-.06.104-.06.104-.06.103-.061.103-.063.102-.062.102-.063.102-.064.1-.065.101-.065.1-.066.1-.067.1-.067.099-.068.098-.068.098-.07.098-.07.097-.07.097-.07.096-.072.096-.072.096-.073.094-.074.095-.074.094-.074.093-.076.093-.076.093-.076.092-.077.091-.078.091-.078.09-.08.09-.079.09-.08.09-.08.087-.081.088-.082.088-.082.086-.083.086-.083.086-.084.085-.085.085-.085.084-.085.084-.087.083-.086.082-.088.082-.088.082-.088.08-.089.08-.089.08-.09.08-.09.078-.091.078-.092.077-.092.076-.092.076-.093.075-.093.075-.094.074-.095.074-.095.073-.095.073-.096.071-.096.071-.097.071-.097.07-.097.069-.098.068-.1.068-.098.068-.1.066-.1.066-.1.066-.1.064-.102.064-.101.064-.102.062-.102.062-.103.062-.103.06-.104.06-.104.06-.104.059-.105.058-.105.057-.105.057-.106.056-.106.055-.107.055-.107.054-.107.053-.108.052-.108.052-.108.051-.109.05-.109.05-.109.05-.11.048-.11.048-.11.047-.11.046-.111.045-.111.045-.112.044-.111.043-.112.043-.113.042-.112.04-.113.041-.113.04-.113.039-.114.038-.114.038-.114.034-.107M380.727 246.27l.117.024.118.022.118.02.119.02.118.02.12.018.118.017.119.015.119.015.12.014.118.013.12.012.12.01.12.01.119.01.12.007.12.007.12.005.12.004.12.003.12.002.119.001h.24l.12-.002.12-.003.12-.004.12-.005.12-.006.12-.007.119-.008.12-.01.119-.01.12-.01.119-.013.119-.013.12-.015.118-.015.119-.016.119-.018.118-.018.119-.02.118-.02.118-.022.118-.023.117-.023.118-.025.117-.026.117-.026.117-.028.116-.029.116-.03.116-.03.116-.032.115-.033.115-.034.115-.035.114-.036.115-.036.113-.038.114-.039.113-.04.113-.04.113-.042.112-.043.111-.044.112-.044.11-.046.111-.047.11-.047.11-.049.11-.049.108-.05.109-.052.108-.052.108-.054.107-.054.106-.055.107-.056.105-.057.105-.058.105-.058.104-.06.104-.06.103-.062.102-.063.102-.063.102-.064.1-.065.1-.066.1-.067.1-.068.098-.069.098-.07.098-.07.096-.07.096-.073.096-.072.095-.074.094-.075.093-.075.093-.076.092-.077.092-.077.09-.079.09-.079.09-.08.055-.05" style="stroke:#fff;stroke-width:.375;stroke-miterlimit:4;stroke-dasharray:none;stroke-opacity:1" transform="translate(-89.117 -45.708)"/><path d="m380.02 244.926.054.108.053.107.054.107.055.107.055.107.055.106.056.107.056.106.057.105.058.106.057.105.059.105.058.105.06.105.059.104.06.104.06.104.06.103.062.103.062.103.062.103.062.102.063.102.064.102.064.102.064.101.064.102.066.1.065.101.066.1.067.1.067.1.067.1.068.1.068.098.068.099.069.098.07.098.07.098.07.097.07.097.071.097.072.096.072.096.072.096.072.095.073.096.074.095.074.094.074.095.075.094.075.093.075.094.076.093.077.092.076.093.077.092.078.091.078.092.078.09.078.091.08.09.079.09.08.09.08.09.08.089.081.088.082.089.081.088.082.087.083.088.083.087.083.086.083.086.084.086.084.086.085.085.085.085.085.084.086.084.086.084.086.083.087.083.087.083.088.082.088.082.088.081.089.081.089.081.089.08.09.08.089.08.09.079.09.079.092.078.091.078.092.078.091.077.093.077.092.076.093.076.093.076.094.075.094.075.094.075.094.074.095.073.095.073.095.073.096.073.096.072.097.072.096.07.097.072.097.07.098.07.098.07.098.069.098.068.098.069.1.067.099.068.099.067.1.066.1.066.1.066.1.065.101.065.102.065.101.064.102.063.102.064.102.062.103.063.102.061.104.062.103.06.104.061.104.06.104.06.104.059.105.059.105.058.105.058.105.057.106.057.106.057.106.056.106.055.049.025" style="stroke:#fff;stroke-width:.375;stroke-miterlimit:4;stroke-dasharray:none;stroke-opacity:1" transform="translate(-89.117 -45.708)"/><path d="m380.527 243.843-.053.108-.053.108-.052.108-.052.108-.052.108-.05.11-.05.108-.05.11-.049.11-.048.11-.048.11-.047.11-.046.11-.046.112-.045.11-.045.112-.044.112-.044.112-.043.112-.042.113-.042.112-.04.113-.041.113-.04.113-.04.114-.038.113-.038.114-.037.114-.037.114-.036.115-.036.114-.035.115-.034.115-.034.115-.033.116-.033.116-.032.115-.03.116-.032.116-.03.116-.029.117-.029.116-.028.117-.028.117-.026.117-.027.117-.025.118-.025.117-.025.118-.023.117-.023.118-.023.118-.022.118-.02.118-.021.118-.02.119-.02.118-.018.119-.018.119-.017.118-.017.12-.016.118-.016.12-.014.118-.015.12-.013.12-.013.119-.012.119-.012.12-.01.12-.01.119-.01.12-.009.12-.008.119-.008.12-.007.12-.006.12-.006.12-.005.12-.005.12-.004.12-.003.12-.003.12-.002.12v.12l-.001.12v.24l.001.12.002.12.003.12.003.12.004.12.005.12.005.12.006.119.006.12.007.12.008.12.008.12.01.12.01.119.01.12.01.119.012.12.012.119.013.12.014.119.014.119.015.12.015.118.016.12.017.118.017.119.018.119.019.118.02.119.019.118.02.118.022.118.021.119.023.118.023.118.024.117.024.118.025.117.026.118.026.117.027.117.027.117.005.02" style="stroke:#fff;stroke-width:.375;stroke-miterlimit:4;stroke-dasharray:none;stroke-opacity:1" transform="translate(-89.117 -45.708)"/><path d="m382.554 244.019-.119-.015-.12-.014-.118-.013-.12-.013-.119-.013-.12-.011-.12-.012-.119-.01-.12-.011-.119-.01-.12-.009-.119-.009-.12-.008-.12-.008-.12-.007-.119-.007-.12-.006-.12-.006-.12-.005-.12-.005-.12-.004-.12-.004-.119-.003-.12-.003-.12-.002-.12-.001-.12-.001h-.36l-.12.001-.12.002-.12.002-.119.003-.12.003-.121.004-.12.004-.12.005-.12.005-.12.006-.12.006-.12.007-.119.007-.12.008-.12.008-.12.01-.119.008-.12.01-.119.01-.12.012-.119.011-.12.012-.119.013-.119.013-.12.013-.118.015-.12.014-.118.015-.12.016-.118.016-.12.017-.118.017-.119.018-.118.018-.119.019-.118.019-.119.02-.118.02-.118.02-.118.022-.118.022-.118.022-.118.023-.117.024-.118.023-.117.025-.118.025-.117.025-.117.026-.117.026-.117.027-.117.028-.117.028-.116.028-.117.029-.116.03-.116.03-.117.03-.115.03-.116.032-.116.032-.116.033-.115.033-.115.033-.115.034-.115.035-.115.035-.115.035-.114.036-.115.037-.114.036-.114.038-.114.038-.113.038-.114.04-.113.039-.113.04-.113.04-.113.04-.113.042-.112.042-.113.043-.112.042-.112.044-.111.044-.112.044-.111.045-.111.045-.111.046-.111.046-.11.047-.111.047-.11.048-.11.048-.11.049-.11.049-.109.05-.109.05-.108.05-.109.05-.108.052-.109.052-.108.053-.107.053-.108.053-.107.054-.107.054-.107.055-.107.055-.106.056-.106.056-.105.057-.106.057-.106.057-.105.058-.105.059-.104.059-.104.059-.104.06-.078.045" style="stroke:#fff;stroke-width:.375;stroke-miterlimit:4;stroke-dasharray:none;stroke-opacity:1" transform="translate(-89.117 -45.708)"/><path d="m383.28 244.916-.076-.097-.078-.098-.077-.097-.078-.097-.078-.097-.078-.096-.08-.096-.078-.096-.08-.096-.08-.095-.08-.095-.08-.095-.08-.094-.082-.094-.081-.094-.082-.093-.082-.094-.083-.093-.082-.092-.083-.093-.084-.092-.083-.092-.084-.091-.085-.092-.084-.09-.085-.091-.086-.09-.085-.09-.086-.09-.086-.09-.087-.09-.086-.089-.088-.088-.087-.088-.088-.088-.088-.088-.088-.087-.09-.087-.088-.087-.09-.086-.089-.087-.09-.086-.09-.085-.09-.085-.09-.085-.092-.085-.091-.084-.092-.084-.092-.083-.093-.084-.092-.083-.093-.082-.093-.082-.094-.082-.094-.082-.094-.081-.094-.081-.095-.081-.095-.08-.095-.08-.095-.08-.096-.08-.096-.079-.096-.078-.097-.078-.097-.078-.097-.078-.097-.078-.097-.076-.098-.077-.098-.076-.098-.076-.099-.076-.099-.075-.1-.075-.098-.074-.1-.075-.1-.073-.1-.074-.101-.073-.1-.073-.102-.072-.1-.072-.102-.072-.102-.071-.102-.072-.102-.07-.103-.07-.102-.07-.103-.07-.103-.07-.104-.068-.103-.069-.104-.068-.105-.068-.104-.067-.104-.067-.105-.067-.105-.066-.106-.066-.106-.066-.105-.065-.106-.065-.106-.065-.107-.064-.106-.063-.107-.064-.107-.063-.108-.063-.107-.062-.108-.062-.108-.061-.108-.061-.109-.061-.108-.06-.11-.06-.108-.06-.11-.06-.109-.058-.11-.059-.11-.058-.11-.058-.11-.057-.11-.057-.111-.056-.11-.057-.112-.055-.111-.056-.112-.055-.111-.054-.112-.055-.112-.053-.112-.054-.113-.053-.112-.052-.113-.053-.113-.052-.113-.051-.113-.051-.114-.05-.113-.051-.114-.05-.114-.05-.114-.048-.115-.049-.114-.048-.115-.048-.115-.047-.115-.048-.115-.046-.115-.047-.116-.045-.115-.046-.116-.045-.116-.044-.116-.045-.117-.044-.116-.043-.095-.035" style="stroke:#fff;stroke-width:.375;stroke-miterlimit:4;stroke-dasharray:none;stroke-opacity:1" transform="translate(-89.117 -45.708)"/><path d="m382.557 246.512.055-.107.054-.107.054-.108.052-.108.052-.108.05-.109.051-.109.05-.11.048-.109.048-.11.047-.11.046-.111.046-.112.044-.111.044-.112.043-.112.043-.112.04-.113.041-.113.04-.113.039-.114.038-.114.037-.114.037-.115.036-.114.034-.115.034-.115.034-.116.032-.115.031-.116.03-.116.03-.117.03-.116.028-.117.027-.117.026-.117.026-.117.024-.118.024-.117.023-.118.022-.118.022-.118.02-.118.02-.119.018-.118.018-.12.017-.118.016-.12.016-.118.014-.12.014-.119.012-.119.012-.12.011-.119.01-.12.01-.12.007-.119.008-.12.007-.12.006-.12.005-.12.004-.12.003-.12.002-.12.001-.12v-.36l-.002-.12-.003-.12-.004-.12-.005-.12-.005-.12-.006-.119-.007-.12-.008-.12-.01-.12-.01-.12-.01-.119-.012-.12-.012-.119-.013-.12-.015-.118-.015-.12-.015-.119-.017-.118-.018-.12-.018-.118-.02-.118-.02-.119-.02-.118-.023-.118-.022-.118-.024-.117-.024-.118-.026-.117-.026-.117-.027-.118-.027-.116-.03-.117-.029-.116-.03-.117-.031-.116-.032-.115-.033-.116-.034-.115-.034-.115-.036-.115-.036-.114-.037-.114-.038-.114-.038-.114-.04-.113-.04-.114-.022-.061M404.92 248.446l.07.096.073.096.072.095.074.095.074.094.075.094.076.093.077.092.077.092.078.091.078.091.08.09.08.09.08.088.082.088.082.088.083.087.083.086.084.086.085.085.086.084.086.084.087.083.087.082.088.082.089.08.089.08.09.08.09.079.091.078.092.077.092.077.093.076.094.075.094.075.095.073.095.073.096.073.096.071.097.071.097.07.098.07.099.068.099.068.1.067.1.066.1.065.101.065.102.064.102.062.103.063.103.061.104.061.104.06.104.059.105.058.106.057.106.057.106.055.107.055.107.055.108.053.107.052.109.052.109.05.109.05.11.05.11.048.11.047.11.047.111.045.112.045.111.044.112.043.113.042.112.041.113.04.114.04.113.038.114.038.115.037.114.036.115.035.115.034.115.033.116.033.116.031.116.03.116.03.116.03.117.027.117.027.117.026.117.025.118.024.118.023.118.023.118.021.118.02.119.02.118.019.119.017.118.017.12.016.113.014" style="stroke:#fff;stroke-width:.375;stroke-miterlimit:4;stroke-dasharray:none;stroke-opacity:1" transform="translate(-89.117 -45.708)"/><path d="m405.718 247.287-.07.097-.071.097-.07.098-.07.098-.068.098-.069.099-.067.099-.067.1-.067.1-.067.1-.065.1-.066.1-.064.102-.064.101-.064.102-.063.102-.062.103-.062.103-.062.103-.06.103-.061.104-.06.104-.059.104-.059.105-.058.105-.057.106-.057.106-.057.106-.055.106-.056.107-.054.106-.055.108-.053.107-.053.108-.052.108-.052.108-.052.109-.05.109-.05.109-.05.11-.049.109-.049.11-.047.11-.048.11-.047.11-.046.112-.045.11-.045.112-.044.112-.044.111-.043.112-.043.113-.041.112-.042.113-.04.113-.04.113-.04.113-.04.114-.038.114-.037.114-.037.114-.037.114-.036.115-.035.115-.035.114-.034.116-.034.115-.033.115-.032.116-.032.116-.03.116-.031.116-.03.116-.029.117-.029.116-.028.117-.027.117-.027.117-.026.117-.025.117-.025.118-.024.117-.024.118-.023.118-.022.118-.022.118-.021.118-.02.118-.02.119-.02.118-.018.119-.018.118-.018.12-.016.118-.017.119-.015.12-.015.118-.014.12-.014.119-.013.12-.012.119-.012.119-.01.12-.011.12-.01.119-.01.12-.008.12-.008.119-.007.12-.007.12-.006.12-.005.12-.005.12-.004.12-.003.12-.003.12-.002.12-.002.12-.001.12v.36l.003.12.002.12.003.12.004.12.004.119.005.12.005.12.006.12.007.12.007.12.007.102" style="stroke:#fff;stroke-width:.375;stroke-miterlimit:4;stroke-dasharray:none;stroke-opacity:1" transform="translate(-89.117 -45.708)"/><path d="m406.043 247.168-.113.04-.113.042-.112.042-.112.042-.113.043-.112.044-.111.043-.112.044-.111.045-.111.045-.111.046-.111.046-.11.047-.111.047-.11.047-.11.048-.11.049-.11.048-.11.05-.108.05-.11.05-.108.05-.109.051-.108.052-.108.052-.108.052-.108.053-.107.053-.108.054-.107.054-.107.055-.106.055-.107.056-.106.056-.106.056-.106.057-.105.057-.105.058-.105.058-.104.059-.105.059-.104.06-.104.06-.104.06-.103.06-.104.062-.102.061-.103.063-.102.062-.102.063-.102.064-.102.063-.102.065-.1.064-.102.065-.1.066-.1.066-.1.066-.1.067-.1.067-.099.067-.099.068-.098.069-.099.068-.098.07-.097.07-.098.07-.097.07-.097.07-.097.072-.096.071-.096.072-.096.073-.095.073-.095.073-.095.073-.095.074-.094.075-.094.074-.093.076-.093.075-.093.076-.093.077-.092.076-.092.077-.092.078-.091.078-.091.078-.091.079-.09.079-.09.079-.09.08-.09.08-.088.08-.089.081-.088.082-.088.081-.088.082-.088.082-.087.083-.086.083-.087.084-.086.084-.085.084-.085.084-.085.085-.085.085-.084.086-.084.086-.084.086-.083.086-.082.087-.083.088-.082.087-.082.088-.08.088-.082.089-.08.089-.08.09-.08.089-.08.09-.079.09-.079.09-.078.092-.078.09-.078.092-.077.092-.077.092-.076.093-.076.093-.076.093-.075.094-.075.094-.074.094-.074.094-.074.095-.073.095-.073.095-.073.096-.072.096-.071.096-.072.097-.07.097-.071.097-.07.097-.013.019" style="stroke:#fff;stroke-width:.375;stroke-miterlimit:4;stroke-dasharray:none;stroke-opacity:1" transform="translate(-89.117 -45.708)"/><path d="m406.853 247.783-.094-.075-.095-.074-.095-.073-.095-.073-.096-.073-.096-.072-.096-.071-.097-.07-.097-.071-.098-.07-.098-.07-.098-.068-.099-.068-.099-.068-.1-.067-.099-.067-.1-.066-.1-.065-.101-.065-.102-.065-.101-.064-.102-.063-.102-.063-.103-.063-.103-.061-.103-.062-.104-.06-.104-.06-.104-.06-.104-.059-.105-.058-.105-.058-.106-.057-.105-.057-.107-.056-.106-.056-.107-.055-.107-.054-.107-.054-.108-.053-.108-.053-.108-.052-.109-.052-.108-.05-.11-.05-.109-.05-.11-.05-.109-.048-.11-.048-.11-.047-.11-.047-.111-.046-.111-.046-.112-.045-.111-.044-.112-.044-.112-.043-.112-.042-.113-.042-.112-.042-.113-.04-.113-.04-.114-.04-.113-.039-.114-.038-.114-.038-.114-.037-.114-.036-.115-.036-.115-.035-.115-.035-.115-.034-.115-.033-.116-.033-.115-.032-.116-.031-.116-.031-.116-.03-.117-.03-.116-.028-.117-.029-.117-.027-.117-.027-.117-.027-.117-.026-.117-.025-.118-.024-.117-.024-.118-.023-.118-.023-.118-.022-.118-.021-.118-.021-.119-.02-.118-.02-.119-.018-.118-.019-.12-.017-.118-.017-.119-.016-.119-.016-.119-.015-.119-.014-.12-.014-.118-.013-.12-.012-.12-.012-.119-.01-.12-.011-.119-.01-.12-.01-.12-.008-.119-.008-.12-.007-.12-.007-.12-.006-.12-.005-.12-.005-.12-.004-.119-.003-.12-.003-.12-.002-.12-.001-.12-.001h-.24l-.114.001" style="stroke:#fff;stroke-width:.375;stroke-miterlimit:4;stroke-dasharray:none;stroke-opacity:1" transform="translate(-89.117 -45.708)"/><path d="m406.39 248.893.05-.11.048-.11.048-.11.047-.11.046-.11.046-.111.045-.111.045-.112.044-.111.043-.112.043-.113.042-.112.041-.113.04-.113.04-.113.04-.113.039-.114.038-.114.037-.114.037-.114.036-.115.035-.115.035-.114.034-.116.033-.115.033-.115.032-.116.032-.116.03-.116.03-.116.03-.117.028-.116.028-.117.028-.117.026-.117.026-.117.026-.117.024-.118.024-.118.023-.117.023-.118.022-.118.021-.118.02-.119.02-.118.02-.119.018-.118.018-.119.017-.119.016-.119.016-.119.015-.119.014-.119.014-.12.013-.119.012-.119.012-.12.01-.12.011-.119.009-.12.009-.12.008-.119.007-.12.007-.12.006-.12.005-.12.005-.12.004-.12.003-.12.003-.12.002-.12.001-.12v-.36l-.003-.12-.002-.12-.003-.12-.004-.12-.004-.12-.005-.12-.006-.119-.007-.12-.007-.12-.008-.12-.009-.12-.009-.119-.01-.12-.01-.12-.012-.119-.012-.12-.013-.119-.013-.119-.014-.12-.015-.118-.015-.12-.017-.119-.016-.118-.018-.12-.018-.118-.02-.118-.019-.119-.02-.118-.021-.118-.022-.119-.022-.117-.023-.118-.024-.118-.024-.118-.026-.117-.025-.117-.027-.118-.027-.117-.028-.116-.028-.117-.03-.116-.03-.117-.03-.116-.031-.116-.032-.116-.032-.115-.033-.116-.034-.115-.006-.018" style="stroke:#fff;stroke-width:.375;stroke-miterlimit:4;stroke-dasharray:none;stroke-opacity:1" transform="translate(-89.117 -45.708)"/><path d="m405.328 248.979.12-.007.12-.008.12-.008.119-.01.12-.01.12-.01.119-.01.12-.012.119-.012.119-.013.12-.014.118-.014.12-.014.118-.016.12-.016.118-.016.119-.017.119-.018.118-.018.119-.02.118-.019.118-.02.118-.021.118-.021.118-.022.118-.023.118-.023.117-.024.118-.025.117-.025.117-.026.117-.026.117-.027.117-.028.117-.028.116-.029.117-.03.116-.03.116-.03.116-.031.115-.032.116-.032.115-.033.116-.034.115-.034.115-.035.114-.035.115-.036.114-.037.114-.037.114-.038.114-.038.113-.04.114-.039.113-.04.112-.041.113-.041.113-.042.112-.043.112-.043.111-.044.112-.044.111-.045.112-.045.11-.046.11-.046.111-.048.11-.047.11-.048.11-.05.11-.048.108-.05.11-.05.108-.052.108-.051.108-.053.107-.052.108-.054.107-.054.107-.054.106-.055.107-.056.106-.056.105-.056.106-.058.105-.057.105-.059.104-.059.104-.06.104-.06.104-.06.104-.061.102-.062.103-.062.102-.062.102-.064.102-.063.101-.065.101-.065.1-.065.101-.066.1-.066.1-.067.1-.067.098-.068.099-.069.098-.068.098-.07.097-.07.098-.07.096-.071.097-.072.096-.072.096-.072.095-.073.095-.074.094-.074.094-.074.094-.075.093-.076.093-.076.093-.076.092-.077.092-.077.091-.078.091-.078.09-.08.09-.079.09-.08.09-.08.053-.047M637.02 233.433l-.088 1.978-.08 1.979-.073 1.98-.066 1.978-.06 1.98-.05 1.98-.045 1.98-.04 1.98-.031 1.98-.025 1.98-.017 1.98-.011 1.98-.004 1.981.003 1.98.01 1.981.017 1.98.024 1.98.03 1.981.038 1.98.045 1.98.051 1.98.06 1.98.065 1.979.07 1.979.08 1.979.085 1.978.093 1.979.1 1.977.107 1.978.114 1.977.121 1.977.128 1.976.133 1.976.142 1.976.147 1.974.156 1.975.161 1.974.018.21M649.726 137.132l-.424 1.94-.416 1.942-.41 1.943-.403 1.944-.396 1.946-.39 1.948-.383 1.948-.376 1.95-.37 1.952-.361 1.952-.356 1.954-.349 1.955-.342 1.956-.335 1.958-.328 1.958-.321 1.96-.315 1.961-.307 1.962-.301 1.963-.294 1.964-.287 1.965-.28 1.966-.273 1.967-.266 1.968-.26 1.969-.253 1.97-.246 1.97-.238 1.972-.233 1.972-.226 1.973-.219 1.974-.212 1.975-.204 1.975-.198 1.976-.19 1.977-.184 1.977-.179 1.978-.17 1.979-.164 1.979-.156 1.98-.15 1.98-.142 1.98-.136 1.982-.127 1.982-.122 1.982-.117 1.983-.107 1.983-.102 1.983-.09 1.928M638.43 306.856l.17 1.973.176 1.972.184 1.972.19 1.972.198 1.97.204 1.97.21 1.97.218 1.968.224 1.967.232 1.967.238 1.966.244 1.966.252 1.964.258 1.963.266 1.963.272 1.961.28 1.961.287 1.96.293 1.958.3 1.958.306 1.956.314 1.956.32 1.954.327 1.953.334 1.952.34 1.951.348 1.95.354 1.948.361 1.948.368 1.946.375 1.944.381 1.944.389 1.941.395 1.941.401 1.94.409 1.937.415 1.936.423 1.935.04.186" style="stroke:#fff;stroke-width:.375;stroke-miterlimit:4;stroke-dasharray:none;stroke-opacity:1" transform="translate(-89.117 -45.708)"/><path d="m643.508 137.132-.423 1.956-.416 1.958-.409 1.96-.402 1.96-.395 1.962-.389 1.964-.381 1.964-.375 1.967-.368 1.967-.361 1.97-.354 1.97-.348 1.97-.34 1.973-.333 1.974-.327 1.974-.32 1.976-.313 1.977-.306 1.979-.299 1.979-.292 1.98-.285 1.981-.278 1.982-.272 1.983-.264 1.984-.258 1.985-.249 1.986-.244 1.987-.238 1.988-.23 1.988-.223 1.99-.215 1.99-.21 1.99-.201 1.991-.196 1.992-.187 1.993-.18 1.993-.177 1.994-.167 1.995-.161 1.995-.153 1.996-.148 1.996-.138 1.997-.134 1.997-.124 1.998-.12 1.998-.11 1.999-.105 1.999-.096 1.999-.09 2-.086 2-.076 2-.071 2-.062 2-.057 2.002-.048 2-.043 2.002-.034 2.001-.027 2.002-.021 2.001-.014 2.002-.007 2.001v2.002l.007 2.002.014 2.001.021 2.002.028 2.001.034 2.002.043 2 .048 2.002.056 2 .063 2.001.07 2 .077 2 .085 2 .09 2 .1 2 .105 1.999.11 1.998.12 1.998.124 1.998.133 1.997.139 1.997.147 1.996.153 1.996.162 1.995.167 1.995.176 1.994.181 1.993.187 1.993.196 1.992.2 1.991.21 1.991.216 1.99.224 1.99.229 1.987.238 1.988.244 1.987.252 1.986.258 1.985.263 1.984.272 1.983.278 1.982.285 1.981.293 1.98.299 1.98.306 1.977.313 1.977.32 1.976.327 1.975.334 1.974.34 1.972.348 1.971.354 1.97.362 1.969.368 1.968.375 1.966.381 1.965.39 1.963.395 1.962.402 1.96.41 1.96.415 1.958.412 1.904M648.86 136.828h-4.353M648.86 381.7h-4.353M636.474 252.317H630.4M636.48 266.734h-6.073M636.593 272.792h-6.075M637.195 288.689h-6.082M636.433 258.24h0M636.522 269.387h0M636.813 280.057h0M637.659 296.562h0M638.43 306.856h0M649.726 137.132l-.128 1.342-.122 1.343-.116 1.343-.113 1.343-.108 1.344-.105 1.344-.099 1.345-.093 1.345-.091 1.345-.085 1.346-.08 1.345-.076 1.346-.07 1.347-.066 1.346-.062 1.347-.057 1.347-.05 1.347-.05 1.348-.042 1.347-.036 1.348-.034 1.348-.029 1.348-.023 1.348-.02 1.348-.014 1.348-.01 1.348-.005 1.349v1.348l.005 1.348.01 1.348.013 1.348.019 1.348.023 1.348.028 1.349.034 1.347.037 1.348.043 1.347.048 1.348.051 1.347.057 1.347.062 1.347.065 1.347.071 1.346.074 1.346.079 1.346.085 1.345.088 1.345.093 1.345.1 1.345.101 1.344.108 1.344.113 1.344.117 1.343.122 1.342.127 1.343.077.773M649.793 211.943l-.287 6.883-.263 6.883-.238 6.884-.215 6.885-.19 6.886-.167 6.886-.142 6.887-.12 6.887-.093 6.888-.07 6.888-.046 6.888-.022 6.888.002 6.888.026 6.889.051 6.888.074 6.888.1 6.887.12 6.888.148 6.886.17 6.886.196 6.886.218 6.885.24 6.884.267 6.883.173 4.181M644.053 161.134h-4.316M641.163 179.364h-4.294M638.875 197.593h-4.276M637.182 215.823h-4.263M636.08 234.053h-4.256M635.596 268.532h-4.252M636.39 290.693h-4.258M637.693 308.923h-4.267M639.588 327.153h-4.282M642.08 345.382h-4.3M645.178 363.612h-4.324M647.554 142.905h-4.342M647.766 130.752h-4.353M645.115 112.522h-4.353M643.392 94.292h-4.352M646.564 399.787h-4.353M643.529 164.172h-4.312M640.74 182.402h-4.29M638.552 200.632h-4.274M636.958 218.861h-4.262M635.953 237.09h-4.255M635.654 271.57H631.4M636.566 293.732h-4.259M637.968 311.961h-4.27M639.962 330.191h-4.285M642.554 348.42h-4.304M645.754 366.65h-4.329M646.928 145.943h-4.338M647.259 127.713h-4.353M644.764 109.484h-4.353M643.195 91.254h-4.353M646.808 396.748h-4.353M642.532 170.249h-4.304M639.944 188.479h-4.285M637.955 206.708h-4.27M636.558 224.938h-4.26M635.748 243.167h-4.253M636.968 299.808h-4.262M638.566 318.038h-4.274M640.759 336.267h-4.29M643.553 354.497h-4.312M646.957 372.727h-4.338M645.726 152.02h-4.328M644.139 103.407h-4.353M646.323 121.637h-4.352M642.875 85.177h-4.352M646.169 408.901h-4.353M647.467 390.672h-4.353M642.059 173.287h-4.301M639.57 191.517h-4.28M637.68 209.746h-4.267M636.382 227.976h-4.258M635.67 246.206h-4.252M637.193 302.847h-4.263M638.89 321.076h-4.276M641.183 339.306h-4.294M644.078 357.535h-4.316M647.584 375.765h-4.343M645.151 155.058h-4.324M645.895 118.598h-4.353M643.864 100.369h-4.352M642.754 82.14H638.4M646.244 405.863h-4.352M647.882 387.633h-4.353" style="stroke:#fff;stroke-width:.375;stroke-miterlimit:4;stroke-dasharray:none;stroke-opacity:1" transform="translate(-89.117 -45.708)"/><path d="m636.382 227.976-.105 1.98-.1 1.982-.056 1.182M636.958 218.861l-.14 1.98-.13 1.978-.124 1.98-.008.139M637.68 209.746l-.17 1.977-.16 1.977-.157 1.977-.01.146M638.552 200.632l-.202 1.973-.195 1.974-.187 1.975-.014.154M639.57 191.517l-.231 1.97-.227 1.97-.218 1.972-.018.164M640.74 182.402l-.264 1.966-.258 1.967-.252 1.967-.022.176M642.059 173.287l-.297 1.961-.29 1.963-.283 1.963-.027.19M643.529 164.172l-.329 1.957-.321 1.957-.315 1.958-.031.204M645.151 155.058l-.36 1.95-.353 1.952-.347 1.953-.04.221M648.86 136.828l-.424 1.938-.417 1.94-.41 1.94-.054.258M646.928 145.943l-.392 1.944-.385 1.946-.378 1.947-.046.238M635.582 267.646l.014.886M635.654 271.57l.007.31M635.67 246.206l-.042 1.983-.034 1.983-.019 1.233M636.122 233.12l-.043.933M635.953 237.09l-.074 1.983-.068 1.983-.06 1.982-.003.13M636.33 289.6l.06 1.093M636.566 293.732l.125 1.98.13 1.979.139 1.979.01.138M637.193 302.847l.156 1.977.162 1.977.17 1.976.012.146M637.968 311.961l.187 1.975.195 1.974.202 1.974.016.154M638.89 321.076l.219 1.972.226 1.97.233 1.97.02.165M639.962 330.191l.252 1.968.258 1.966.263 1.966.024.177M641.183 339.306l.283 1.963.29 1.962.296 1.962.028.19M642.554 348.42l.315 1.96.321 1.956.328 1.957.034.204M644.078 357.535l.346 1.954.353 1.951.36 1.951.042.22M645.754 366.65l.378 1.947.385 1.946.391 1.945.048.239M647.584 375.765l.41 1.94.417 1.94.423 1.938.026.116M631.33 267.646l.014.886M631.401 271.57l.007.31M631.418 246.206l-.043 1.998-.034 1.998-.017 1.203M631.698 237.09l-.073 1.998-.068 1.997-.06 1.998-.002.084M632.124 227.976l-.105 1.996-.099 1.996-.09 1.996-.005.089M632.696 218.861l-.14 1.994-.13 1.994-.124 1.995-.006.094M633.413 209.746l-.17 1.992-.161 1.992-.156 1.992-.008.101M634.278 200.632l-.201 1.988-.196 1.989-.187 1.99-.01.11M635.29 191.517l-.233 1.985-.227 1.985-.218 1.987-.013.119M636.45 182.402l-.264 1.98-.258 1.983-.252 1.982-.017.13M637.758 173.287l-.296 1.977-.29 1.977-.283 1.978-.02.145M639.217 164.172l-.328 1.972-.322 1.972-.314 1.974-.025.159M640.827 155.058l-.36 1.965-.353 1.967-.347 1.969-.03.175M644.507 136.828l-.424 1.953-.417 1.954-.41 1.956-.045.213M642.59 145.943l-.392 1.96-.385 1.96-.378 1.963-.037.192M632.073 289.6l.06 1.093M632.307 293.732l.125 1.994.13 1.995.139 1.993.007.094M632.93 302.847l.155 1.992.162 1.992.17 1.991.009.101M633.698 311.961l.187 1.99.196 1.989.201 1.988.011.11M634.614 321.076l.218 1.987.227 1.985.232 1.985.014.12M635.677 330.191l.252 1.983.258 1.981.264 1.981.018.131M636.889 339.306l.283 1.978.29 1.977.296 1.977.022.144M638.25 348.42l.315 1.974.32 1.973.33 1.97.026.16M639.762 357.535l.346 1.969.353 1.967.36 1.965.031.176M641.425 366.65l.378 1.963.385 1.96.392 1.96.04.194M643.241 375.765l.41 1.956.417 1.954.424 1.953.015.071M635.563 252.317h-4.252M635.681 272.792h-4.252M635.57 266.734h-4.252M635.582 267.646h-4.252M635.66 271.88h-4.252M635.575 251.405h-4.252M636.33 289.6h-4.257M637.323 233.446l-.088 1.978-.08 1.978-.073 1.978-.065 1.978-.06 1.979-.05 1.978-.046 1.98-.04 1.978-.03 1.98-.025 1.978-.018 1.98-.01 1.98-.005 1.978.003 1.98.01 1.98.017 1.978.024 1.98.031 1.979.037 1.979.045 1.979.051 1.978.06 1.979.065 1.978.07 1.978.08 1.978.085 1.978.094 1.977.099 1.977.108 1.976.113 1.976.122 1.976.127 1.975.133 1.975.142 1.974.147 1.974.156 1.973.162 1.973.017.211M637.323 233.446l-.304-.013M638.733 306.83l-.303.026M637.077 239.565h-.303M636.968 243.016h-.304M636.861 247.31h-.303M636.557 253.617h-.099M636.763 253.62h-.207M636.742 262.143h-.303M636.847 270.552h-.303M637.112 279.944h-.3M636.812 281.07l.342-.014M637.154 281.056h-.304M636.739 261.243h-.304M637.507 288.854h-.303M638.013 297.324h-.303M637.287 234.239h-.303M646.169 408.901l-.008.576-.006.575-.004.576-.002.575v.575l.002.576.004.575.006.576.004.32M641.816 408.901l-.008.576-.006.575-.004.576-.002.575v.575l.002.576.004.575.006.576.004.32M646.564 399.787l-.04.574-.037.574-.037.574-.034.575-.03.574-.032.575-.028.574-.025.575-.024.575-.022.575-.012.331M642.211 399.787l-.04.574-.037.574-.036.574-.034.575-.032.574-.03.575-.029.574-.025.575-.024.575-.022.575-.011.331M648.86 381.7l-.102.565-.102.567-.1.567-.096.567-.096.567-.094.568-.09.568-.088.569-.088.569-.085.569-.037.258M647.467 390.672l-.071.57-.071.572-.068.571-.065.572-.063.572-.062.572-.06.572-.056.573-.057.573-.054.572-.03.357M644.507 381.7l-.102.565-.102.567-.1.567-.096.567-.096.567-.093.568-.091.568-.088.569-.088.569-.085.569-.036.258M643.114 390.672l-.071.57-.07.572-.069.571-.065.572-.062.572-.063.572-.06.572-.056.573-.057.573-.053.572-.032.357M649.737 382.003l-.102.566-.099.567-.1.567-.096.567-.093.568-.09.568-.091.569-.088.568-.085.57-.085.568-.082.57-.08.57-.079.57-.077.57-.073.57-.071.572-.07.57-.069.572-.065.572-.065.572-.063.572-.059.572-.06.573-.056.572-.054.573-.051.573-.051.573-.048.574-.046.573-.045.574-.042.574-.04.574-.037.574-.037.575-.034.574-.03.574-.032.575-.028.575-.026.575-.024.575-.022.575-.02.575-.019.575-.016.575-.014.575-.012.576-.01.575-.008.575-.006.576-.004.575-.002.576v.575l.002.575.004.576.006.575.004.332M643.519 382.003l-.102.566-.1.567-.098.567-.097.567-.093.568-.091.568-.09.569-.088.568-.085.57-.085.568-.083.57-.079.57-.08.57-.076.57-.073.57-.071.572-.071.57-.068.572-.065.572-.065.572-.063.572-.06.572-.056.573-.057.572-.053.573-.051.573-.051.573-.049.574-.045.573-.045.574-.043.574-.04.574-.036.574-.037.575-.034.574-.031.574-.031.575-.029.575-.026.575-.024.575-.022.575-.02.575-.018.575-.016.575-.014.575-.012.576-.01.575-.008.575-.006.576-.004.575-.002.576v.575l.002.575.004.576.006.575.004.332M642.619 77.592l.03 1.276.038 1.275.04 1.275.024.721M638.266 77.592l.031 1.276.037 1.275.04 1.275.025.721M642.875 85.177l.06 1.275.062 1.274.068 1.274.07 1.274.06.98M638.523 85.177l.059 1.275.062 1.274.068 1.274.071 1.274.06.98M643.392 94.292l.091 1.273.094 1.272.099 1.272.105 1.272.085.988M639.04 94.292l.09 1.273.094 1.272.1 1.272.104 1.272.085.988M644.139 103.407l.121 1.27.128 1.27.13 1.269.136 1.268.11 1M639.786 103.407l.122 1.27.127 1.27.13 1.269.136 1.268.111 1M645.115 112.522l.153 1.267.159 1.266.161 1.265.167 1.265.136 1.014M640.762 112.522l.153 1.267.159 1.266.161 1.265.167 1.265.136 1.014M647.766 130.752l.218 1.257.221 1.256.227 1.256.23 1.255.198 1.052M646.323 121.637l.187 1.262.19 1.262.196 1.26.198 1.261.167 1.031M643.413 130.752l.219 1.257.22 1.256.227 1.256.23 1.255.198 1.052M641.97 121.637l.188 1.262.19 1.262.195 1.26.198 1.261.167 1.031M643.552 77.592l.03 1.276.038 1.275.042 1.275.045 1.275.051 1.275.054 1.275.06 1.275.062 1.274.068 1.274.07 1.274.077 1.274.082 1.273.085 1.273.091 1.273.094 1.273.099 1.272.102 1.271.107 1.272.114 1.27.116 1.271.122 1.27.125 1.27.13 1.27.133 1.268.139 1.269.144 1.267.148 1.268.153 1.267.156 1.266.161 1.266.164 1.265.17 1.265.173 1.264.179 1.263.184 1.263.187 1.262.193 1.261.195 1.26.201 1.26.204 1.26.21 1.259.212 1.258.219 1.257.22 1.256.227 1.256.233 1.255.116.618" style="stroke:#fff;stroke-width:.375;stroke-miterlimit:4;stroke-dasharray:none;stroke-opacity:1" transform="translate(-89.117 -45.708)"/><path d="m637.333 77.592.032 1.276.036 1.275.04 1.275.045 1.275.051 1.275.054 1.275.06 1.275.062 1.274.068 1.274.07 1.274.077 1.274.082 1.273.085 1.273.091 1.273.094 1.273.099 1.272.102 1.271.107 1.272.114 1.27.116 1.271.122 1.27.124 1.27.13 1.27.134 1.268.139 1.269.144 1.267.148 1.268.153 1.267.156 1.266.161 1.266.164 1.265.17 1.265.173 1.264.179 1.263.184 1.263.187 1.262.193 1.261.195 1.26.201 1.26.204 1.26.21 1.259.212 1.258.219 1.257.22 1.256.227 1.256.233 1.255.116.618M649.737 382.003h-.933M644.451 382.003h-.932M649.735 136.524h-.933M644.45 136.524h-.933M649.726 137.132h-.933M644.44 137.132h-.932M649.726 381.395h-.933M644.44 381.395h-.932M647.098 413.824h-.933M641.813 413.824h-.933M643.552 77.592h-.933M638.266 77.592h-.933M643.552 77.592h4.198M647.098 413.824h1.675M649.737 382.003l-.076.725-.074.725-.07.725-.069.726-.065.726-.062.726-.063.726-.06.726-.056.727-.054.727-.05.727-.049.727-.045.728-.043.727-.04.728-.04.728-.036.728-.034.728-.031.728-.028.728-.026.728-.023.729-.02.728-.018.73-.015.728-.013.728-.01.73-.009.728-.005.729-.003.729v.728l.002.73.005.728.008.729.01.729.013.728.015.729.018.729.02.728.023.729.025.728.028.728.031.728.024.527M647.75 77.592l-.014 2.498-.006 2.497.003 2.498.011 2.498.02 2.498.03 2.497.036 2.497.045 2.498.057 2.497.065 2.496.074 2.497.082 2.497.09 2.496.1 2.496.108 2.495.116 2.495.124 2.495.134 2.494.141 2.493.15 2.493.16 2.493.166 2.492.179 2.491.113 1.531M642.619 77.592h-4.353M646.165 413.824h-4.352" style="stroke:#fff;stroke-width:.375;stroke-miterlimit:4;stroke-dasharray:none;stroke-opacity:1" transform="translate(-89.117 -45.708)"/></g></svg>