<svg xmlns="http://www.w3.org/2000/svg" width="1280" height="720" viewBox="0 0 914.286 514.286"><path d="M205.697 252.141a6.518 6.518 0 0 0-3.377.928M208.203 252.655a6.518 6.518 0 0 0-1.485-.431M209.6 263.857a6.518 6.518 0 0 0 1.114-1.07M205.638 265.177a6.518 6.518 0 0 0 3.379-.927M203.132 264.664a6.518 6.518 0 0 0 1.485.43M200.008 261.893a6.518 6.518 0 0 0 2.49 2.463M200.038 255.375a6.518 6.518 0 0 0-.884 3.388M199.2 259.466a6.518 6.518 0 0 0 .375 1.5M211.298 261.944a6.518 6.518 0 0 0-2.461-8.981M353.47 251.666a6.518 6.518 0 0 0-3.378.928M355.976 252.179a6.518 6.518 0 0 0-1.484-.431M357.374 263.381a6.518 6.518 0 0 0 1.113-1.07M353.412 264.702a6.518 6.518 0 0 0 3.377-.927M350.906 264.189a6.518 6.518 0 0 0 1.484.43M359.07 261.469a6.518 6.518 0 0 0-2.46-8.981M501.244 251.19a6.518 6.518 0 0 0-3.378.928M503.75 251.704a6.518 6.518 0 0 0-1.484-.43M505.147 262.907a6.518 6.518 0 0 0 1.113-1.072M501.186 264.227a6.518 6.518 0 0 0 3.377-.927M498.68 263.714a6.518 6.518 0 0 0 1.484.43M506.844 260.994a6.518 6.518 0 0 0-2.46-8.981M649.018 250.715a6.518 6.518 0 0 0-3.379.928M651.524 251.229a6.518 6.518 0 0 0-1.486-.43M652.92 262.432a6.518 6.518 0 0 0 1.114-1.072M648.958 263.751a6.518 6.518 0 0 0 3.378-.927M646.453 263.239a6.518 6.518 0 0 0 1.485.43M654.618 260.518a6.518 6.518 0 0 0-2.462-8.98M346.995 259.156a6.518 6.518 0 0 0 .475 1.651M348.103 261.924a6.518 6.518 0 0 0 2.17 1.956M347.81 254.9a6.518 6.518 0 0 0-.883 3.51M495.876 261.449a6.518 6.518 0 0 0 2.17 1.956M494.77 258.681a6.518 6.518 0 0 0 .474 1.651M495.584 254.424a6.518 6.518 0 0 0-.883 3.51M643.65 260.974a6.518 6.518 0 0 0 2.17 1.956M643.358 253.949a6.518 6.518 0 0 0-.884 3.51M642.543 258.205a6.518 6.518 0 0 0 .475 1.651" style="fill:none;stroke:#fff;stroke-width:.5;stroke-linecap:round;stroke-miterlimit:4;stroke-dasharray:none;stroke-opacity:1"/><path d="M294.056 188.672a6.518 6.518 0 0 0-1.112 1.071M291.522 194.678a6.518 6.518 0 0 0 .375 1.5M295.454 199.875a6.518 6.518 0 0 0 1.485.43M301.923 199.069a6.518 6.518 0 0 0 1.113-1.071M300.525 187.866a6.518 6.518 0 0 0-1.485-.43M441.83 188.197a6.518 6.518 0 0 0-1.112 1.072M443.228 199.4a6.518 6.518 0 0 0 1.484.43M449.696 198.593a6.518 6.518 0 0 0 1.112-1.071M448.298 187.39a6.518 6.518 0 0 0-1.484-.43M589.603 187.722a6.518 6.518 0 0 0-1.113 1.072M591.002 198.925a6.518 6.518 0 0 0 1.484.431M597.469 198.118a6.518 6.518 0 0 0 1.113-1.071M596.072 186.915a6.518 6.518 0 0 0-1.485-.43M737.377 187.248a6.518 6.518 0 0 0-1.113 1.07M738.775 198.45a6.518 6.518 0 0 0 1.484.431M745.242 197.643a6.518 6.518 0 0 0 1.114-1.071M743.845 186.44a6.518 6.518 0 0 0-1.485-.43M292.36 181.793v9.627M284.715 192.708l8.337 4.814M290.345 204.785l8.337-4.814M303.62 205.948v-9.628M305.635 182.956l-8.339 4.814M432.584 191.946l8.028 5.314M311.267 192.206l-4.346 2.496M440.132 181.318v9.627M438.12 204.31l8.336-4.814M451.393 205.473v-9.628M453.407 182.481l-8.337 4.814M580.358 191.47l8.027 5.314M459.04 191.73l-4.345 2.497M587.906 180.842v9.628M585.892 203.834l8.338-4.813M599.166 204.998v-9.628M601.18 182.006l-8.336 4.813M728.131 190.996l8.028 5.313M606.814 191.255l-4.346 2.497M735.68 180.367v9.628M733.665 203.36l8.338-4.815M746.94 204.522v-9.627M748.954 181.53l-8.338 4.814M875.904 190.52l4.014 2.657M754.588 190.78l-4.346 2.497M294.642 191.42v-9.627M294.193 195.546l-8.337-4.814M297.542 197.995l-8.337 4.814M301.338 196.32v9.628M298.437 189.746l8.338-4.814M441.872 195.357l-8.03-5.314M305.785 192.724l4.345-2.497M442.414 190.945v-9.627M445.315 197.52l-8.337 4.814M449.111 195.845v9.628M446.21 189.27l8.338-4.813M589.645 194.882l-8.028-5.314M453.558 192.25l4.346-2.498M590.188 190.47v-9.628M593.089 197.046l-8.338 4.812M596.885 195.37v9.628M593.985 188.795l8.336-4.813M737.418 194.406l-8.028-5.313M601.332 191.773l4.346-2.496M737.961 189.995v-9.628M740.862 196.57l-8.338 4.814M744.658 194.895v9.627M741.757 188.32l8.338-4.814M881.177 191.274l-4.013-2.656M749.104 191.298l4.347-2.497M292.944 181.793v3.166M292.944 188.255v3.165M285.007 192.202l2.742 1.582M290.603 195.432l2.742 1.583M290.053 204.28l2.742-1.584M295.649 201.048l2.742-1.583M303.036 205.948v-3.166M303.036 199.486v-3.166M310.976 191.7l-2.745 1.576M305.926 183.462l-2.742 1.583M300.33 186.693l-2.74 1.583M432.906 191.459l2.641 1.747M438.295 195.025l2.64 1.747M440.718 181.318v3.165M440.718 187.779v3.166M437.826 203.803l2.743-1.582M443.422 200.573l2.742-1.583M450.808 205.473v-3.166M450.808 199.011v-3.166M458.749 191.224l-2.744 1.577M453.7 182.987l-2.743 1.582M448.104 186.217l-2.742 1.584M580.68 190.984l2.64 1.747M586.068 194.55l2.64 1.747M588.49 180.842v3.166M588.49 187.304v3.166M585.6 203.328l2.742-1.582M591.196 200.098l2.741-1.584M598.582 204.998v-3.166M598.582 198.537v-3.167M606.523 190.748l-2.745 1.577M601.473 182.512l-2.742 1.583M595.877 185.742l-2.742 1.584M728.454 190.508l2.64 1.748M733.842 194.075l2.64 1.747M736.264 180.367v3.167M736.264 186.829v3.166M733.374 202.854l2.74-1.583M738.97 199.623l2.74-1.583M746.356 204.522v-3.165M746.356 198.062v-3.167M754.296 190.274l-2.745 1.577M749.247 182.036l-2.742 1.584M743.651 185.267l-2.742 1.583M876.227 190.033l2.64 1.747M294.056 184.96v-3.167M294.056 191.42v-3.165M288.306 192.82l-2.742-1.582M293.902 196.052l-2.743-1.584M292.238 201.733l-2.742 1.582M297.834 198.501l-2.742 1.584M301.923 202.782v3.166M301.923 196.32v3.166M307.676 192.311l2.746-1.577M303.74 186.008l2.743-1.582M298.145 189.24l2.742-1.584M436.161 192.278l-2.64-1.747M441.55 195.844l-2.641-1.747M441.83 184.483v-3.165M441.83 190.945v-3.166M440.012 201.257l-2.742 1.583M445.608 198.026l-2.742 1.583M449.696 202.307v3.166M449.696 195.845v3.166M455.45 191.836l2.744-1.577M451.514 185.534l2.742-1.583M445.918 188.764l2.742-1.583M583.935 191.803l-2.64-1.748M589.322 195.37l-2.64-1.748M589.603 184.008v-3.166M589.603 190.47v-3.166M587.786 200.782l-2.743 1.583M593.381 197.551l-2.742 1.583M597.469 201.832v3.166M597.469 195.37v3.167M603.224 191.361l2.744-1.577M599.288 185.059l2.742-1.584M593.692 188.289l2.742-1.583M731.707 191.327l-2.64-1.747M737.095 194.894l-2.64-1.748M737.377 183.534v-3.167M737.377 189.995v-3.166M735.558 200.307l-2.74 1.582M741.154 197.077l-2.741 1.582M745.242 201.357v3.165M745.242 194.895v3.167M750.996 190.885l2.746-1.577M747.061 184.584l2.741-1.584M741.465 187.814l2.741-1.582M879.48 190.852l-2.639-1.747M292.944 184.96a.556.556 0 0 0 1.112 0M287.75 193.784a.556.556 0 0 0 .551-.96M292.795 202.696a.556.556 0 0 0-.552-.961M303.036 202.782a.557.557 0 0 0-1.113 0M307.676 192.311a.556.556 0 1 0 .553.96M303.184 185.045a.556.556 0 0 0 .552.961M435.547 193.206a.557.557 0 0 0 .618-.928M440.718 184.483a.556.556 0 0 0 1.112 0M440.569 202.22a.556.556 0 0 0-.553-.96M450.808 202.307a.556.556 0 0 0-1.112 0M455.45 191.836a.556.556 0 1 0 .552.961M450.957 184.57a.556.556 0 0 0 .553.96M583.32 192.73a.557.557 0 0 0 .618-.927M588.49 184.008a.557.557 0 0 0 1.113 0M588.342 201.746a.556.556 0 0 0-.552-.961M598.582 201.832a.557.557 0 0 0-1.113 0M603.224 191.361a.556.556 0 1 0 .552.961M598.731 184.095a.556.556 0 0 0 .552.96M731.093 192.256a.557.557 0 0 0 .619-.928M736.264 183.534a.557.557 0 0 0 1.113 0M736.115 201.271a.556.556 0 0 0-.552-.96M746.356 201.357a.557.557 0 0 0-1.114 0M750.996 190.885a.556.556 0 1 0 .552.961M746.505 183.62a.556.556 0 0 0 .552.96M878.867 191.78a.557.557 0 0 0 .618-.928M294.056 186.607a.556.556 0 1 0-1.112 0 .556.556 0 1 0 1.112 0zM294.056 188.255a.556.556 0 0 0-1.112 0M290.01 194.127a.557.557 0 1 0-1.112 0 .557.557 0 1 0 1.113 0zM291.16 194.468a.556.556 0 0 0-.553.96M294.5 201.39a.557.557 0 1 0-1.113 0 .557.557 0 1 0 1.113 0zM295.092 200.085a.556.556 0 0 0 .552.96M303.036 201.134a.557.557 0 1 0-1.113 0 .557.557 0 1 0 1.113 0zM301.923 199.486a.557.557 0 0 0 1.113 0M306.909 193.714a.556.556 0 1 0-1.112 0 .556.556 0 1 0 1.112 0zM302.592 186.35a.557.557 0 1 0-1.113 0 .557.557 0 1 0 1.113 0zM300.887 187.656a.556.556 0 0 0-.552-.96M437.784 193.652a.557.557 0 1 0-1.113 0 .557.557 0 1 0 1.113 0zM438.909 194.097a.557.557 0 0 0-.619.928M441.83 186.131a.556.556 0 1 0-1.112 0 .556.556 0 1 0 1.112 0zM441.83 187.779a.556.556 0 0 0-1.112 0M442.274 200.915a.557.557 0 1 0-1.113 0 .557.557 0 1 0 1.113 0zM442.866 199.609a.556.556 0 0 0 .552.96M450.808 200.66a.556.556 0 1 0-1.112 0 .556.556 0 1 0 1.112 0zM449.696 199.011a.556.556 0 0 0 1.112 0M454.683 193.238a.556.556 0 1 0-1.113 0 .556.556 0 1 0 1.113 0zM450.366 185.876a.557.557 0 1 0-1.114 0 .557.557 0 1 0 1.114 0zM448.66 187.181a.556.556 0 0 0-.552-.96M585.558 193.176a.557.557 0 1 0-1.113 0 .557.557 0 1 0 1.113 0zM586.682 193.622a.557.557 0 0 0-.618.928M589.603 185.656a.557.557 0 1 0-1.113 0 .557.557 0 1 0 1.113 0zM589.603 187.304a.557.557 0 0 0-1.113 0M590.047 200.44a.557.557 0 1 0-1.113 0 .557.557 0 1 0 1.113 0zM590.64 199.134a.556.556 0 0 0 .552.96M598.582 200.184a.557.557 0 1 0-1.113 0 .557.557 0 1 0 1.113 0zM597.469 198.537a.557.557 0 0 0 1.113 0M602.456 192.763a.557.557 0 1 0-1.113 0 .557.557 0 1 0 1.113 0zM598.14 185.4a.557.557 0 1 0-1.114 0 .557.557 0 1 0 1.113 0zM596.434 186.706a.556.556 0 0 0-.552-.96M733.33 192.701a.556.556 0 1 0-1.112 0 .556.556 0 1 0 1.113 0zM734.456 193.146a.557.557 0 0 0-.619.928M737.377 185.181a.557.557 0 1 0-1.113 0 .557.557 0 1 0 1.113 0zM737.377 186.829a.557.557 0 0 0-1.113 0M737.82 199.964a.556.556 0 1 0-1.112 0 .556.556 0 1 0 1.112 0zM738.413 198.66a.556.556 0 0 0 .552.96M746.356 199.71a.557.557 0 1 0-1.114 0 .557.557 0 1 0 1.114 0zM745.242 198.062a.557.557 0 0 0 1.114 0M750.23 192.288a.557.557 0 1 0-1.113 0 .557.557 0 1 0 1.113 0zM745.912 184.925a.556.556 0 1 0-1.112 0 .556.556 0 1 0 1.112 0zM744.207 186.232a.556.556 0 0 0-.553-.961M881.104 192.226a.557.557 0 1 0-1.113 0 .557.557 0 1 0 1.113 0zM231.833 76.434l-4.243-2.28M163.21 192.446l-4.097 2.534M229.365 309.881l.144 4.815M364.146 311.307l4.244 2.28M366.614 77.86l-.144-4.815M379.607 75.96l-4.244-2.28M377.139 309.406l.143 4.815M511.92 310.83l4.243 2.281M514.387 77.385l-.143-4.816M527.38 75.484l-4.244-2.28M524.912 308.931l.144 4.815M659.693 310.356l4.243 2.28M662.161 76.91l-.143-4.816M675.154 75.01l-4.244-2.281M672.686 308.455l.143 4.815M807.466 309.881l4.243 2.28M809.935 76.434l-.144-4.815M232.11 75.92l-2.628-1.412M162.901 191.949l-2.535 1.57M228.78 309.899l.111 2.982M363.87 311.822l2.627 1.41M367.198 77.842l-.11-2.982M379.883 75.445l-2.627-1.412M376.554 309.424l.11 2.982M511.643 311.346l2.627 1.412M514.972 77.366l-.11-2.98M527.657 74.97l-2.628-1.412M524.328 308.949l.11 2.98M659.416 310.87l2.628 1.412M662.745 76.891l-.11-2.98M675.43 74.495l-2.627-1.413M672.102 308.474l.11 2.98M807.19 310.396l2.627 1.411M810.518 76.417l-.11-2.982M232.94 74.376l-4.244-2.28M161.98 190.458l-4.097 2.536M227.03 309.953l.143 4.815M363.039 313.365l4.244 2.281M368.95 77.788l-.143-4.815M380.713 73.9l-4.244-2.28M374.802 309.478l.143 4.815M510.813 312.89l4.244 2.28M516.723 77.313l-.143-4.815M528.486 73.425l-4.243-2.28M522.575 309.002l.144 4.816M658.586 312.416l4.244 2.28M664.497 76.838l-.144-4.816M676.26 72.95l-4.243-2.28M670.349 308.527l.144 4.815M806.36 311.94l4.244 2.28M812.27 76.362l-.143-4.815M232.663 74.89l-2.628-1.411M162.286 190.955l-2.536 1.57M227.613 309.935l.11 2.98M363.316 312.85l2.628 1.412M368.367 77.806l-.111-2.98M380.436 74.415l-2.627-1.411M375.386 309.46l.11 2.981M511.09 312.376l2.627 1.411M516.14 77.331l-.11-2.982M528.21 73.94l-2.627-1.412M523.16 308.984l.11 2.982M658.862 311.9l2.629 1.412M663.913 76.856l-.11-2.982M675.984 73.465l-2.628-1.412M670.933 308.51l.11 2.981M806.636 311.425l2.627 1.411M811.686 76.38l-.11-2.98M228.696 72.095a1.169 1.169 0 0 0-1.106 2.06M157.883 192.994a1.169 1.169 0 0 0 1.23 1.986M227.176 314.768a1.17 1.17 0 0 0 2.337-.11M367.283 315.646a1.17 1.17 0 0 0 1.107-2.06M368.803 72.973a1.17 1.17 0 0 0-2.336.11M376.47 71.62a1.17 1.17 0 0 0-1.107 2.06M374.95 314.293a1.17 1.17 0 0 0 2.337-.11M515.057 315.17a1.169 1.169 0 0 0 1.106-2.059M516.576 72.498a1.17 1.17 0 0 0-2.336.11M524.243 71.145a1.169 1.169 0 0 0-1.107 2.059M522.723 313.818a1.17 1.17 0 0 0 2.336-.11M662.83 314.695a1.169 1.169 0 0 0 1.106-2.06M664.35 72.022a1.17 1.17 0 0 0-2.337.11M672.017 70.67a1.169 1.169 0 0 0-1.107 2.059M670.497 313.342a1.17 1.17 0 0 0 2.336-.11M810.604 314.22a1.169 1.169 0 0 0 1.105-2.06M812.124 71.547a1.17 1.17 0 0 0-2.337.11M230.035 73.479a.584.584 0 0 0-.552 1.027M159.75 192.524a.585.585 0 0 0 .619.994M227.704 312.916a.584.584 0 0 0 1.168 0M365.944 314.262a.584.584 0 0 0 .552-1.027M368.275 74.825a.584.584 0 0 0-1.169 0M377.809 73.004a.584.584 0 0 0-.552 1.027M375.478 312.441a.584.584 0 0 0 1.168 0M513.717 313.787a.584.584 0 0 0 .552-1.027M516.048 74.35a.584.584 0 0 0-1.168 0M525.583 72.528a.584.584 0 0 0-.553 1.027M523.251 311.966a.584.584 0 0 0 1.169 0M661.49 313.312a.584.584 0 0 0 .553-1.027M663.822 73.874a.584.584 0 0 0-1.168 0M673.356 72.053a.584.584 0 0 0-.552 1.027M671.025 311.491a.584.584 0 0 0 1.167 0M809.263 312.836a.584.584 0 0 0 .552-1.027M811.596 73.4a.584.584 0 0 0-1.169 0" style="fill:none;stroke:#fff;stroke-width:.5;stroke-linecap:round;stroke-miterlimit:4;stroke-dasharray:none;stroke-opacity:1" transform="translate(-92.322 64.789)"/><path d="M228.808 73.125a.666.666 0 1 0-1.331 0 .666.666 0 1 0 1.331 0zM159.164 193.986a.666.666 0 1 0-1.332 0 .666.666 0 1 0 1.332 0zM229.01 314.733a.666.666 0 1 0-1.331 0 .666.666 0 1 0 1.331 0zM368.502 314.616a.666.666 0 1 0-1.332 0 .666.666 0 1 0 1.332 0zM368.3 73.008a.666.666 0 1 0-1.332 0 .666.666 0 1 0 1.332 0zM376.582 72.65a.666.666 0 1 0-1.332 0 .666.666 0 1 0 1.332 0zM376.784 314.257a.666.666 0 1 0-1.332 0 .666.666 0 1 0 1.332 0zM516.276 314.14a.666.666 0 1 0-1.332 0 .666.666 0 1 0 1.332 0zM516.074 72.534a.666.666 0 1 0-1.332 0 .666.666 0 1 0 1.332 0zM524.356 72.175a.666.666 0 1 0-1.332 0 .666.666 0 1 0 1.332 0zM524.558 313.782a.666.666 0 1 0-1.332 0 .666.666 0 1 0 1.332 0zM664.05 313.666a.666.666 0 1 0-1.332 0 .666.666 0 1 0 1.332 0zM663.847 72.059a.666.666 0 1 0-1.331 0 .666.666 0 1 0 1.331 0zM672.13 71.7a.666.666 0 1 0-1.333 0 .666.666 0 1 0 1.332 0zM672.33 313.307a.666.666 0 1 0-1.332 0 .666.666 0 1 0 1.332 0zM811.822 313.19a.666.666 0 1 0-1.332 0 .666.666 0 1 0 1.332 0zM811.621 71.584a.666.666 0 1 0-1.332 0 .666.666 0 1 0 1.332 0zM231.833 76.434a.294.294 0 0 0 .276-.519M163.21 192.446a.293.293 0 0 0-.31-.497M229.365 309.881a.293.293 0 0 0-.585 0M364.146 311.307a.294.294 0 0 0-.276.519M366.614 77.86a.293.293 0 0 0 .585 0M379.607 75.96a.294.294 0 0 0 .276-.52M377.139 309.406a.293.293 0 0 0-.586 0M511.92 310.83a.294.294 0 0 0-.277.52M514.387 77.385a.293.293 0 0 0 .586 0M527.38 75.484a.294.294 0 0 0 .277-.519M524.912 308.931a.293.293 0 0 0-.585 0M659.693 310.356a.294.294 0 0 0-.276.519M662.161 76.91a.293.293 0 0 0 .585 0M675.154 75.01a.294.294 0 0 0 .276-.52M672.686 308.455a.293.293 0 0 0-.585 0M807.466 309.881a.294.294 0 0 0-.276.52M809.935 76.434a.293.293 0 0 0 .585 0M232.663 74.89a.294.294 0 0 0 .276-.519M162.286 190.955a.293.293 0 0 0-.31-.497M227.613 309.935a.293.293 0 0 0-.585 0M363.316 312.85a.294.294 0 0 0-.276.52M368.367 77.806a.293.293 0 0 0 .585 0M380.436 74.415a.294.294 0 0 0 .276-.519M375.386 309.46a.293.293 0 0 0-.585 0M511.09 312.376a.294.294 0 0 0-.276.519M516.14 77.331a.293.293 0 0 0 .585 0M528.21 73.94a.294.294 0 0 0 .276-.519M523.16 308.984a.293.293 0 0 0-.586 0M658.862 311.9a.294.294 0 0 0-.276.519M663.913 76.856a.293.293 0 0 0 .585 0M675.984 73.465a.294.294 0 0 0 .276-.52M670.933 308.51a.293.293 0 0 0-.585 0M806.636 311.425a.294.294 0 0 0-.276.52M811.686 76.38a.293.293 0 0 0 .586 0M228.73 72.114V40.137M371.406 315.12v22.13M808.962 313.338v32.842M519.18 314.643v22.607M666.952 314.168v23.082M227.56 72.112V40.137M372.574 315.12v22.13M810.13 313.966v32.214M520.348 314.643v22.607M668.121 314.168v23.082M229.591 74.305l56.09 28.207M229.926 73.682l56.062 28.193M159.872 192.72l52.446-34.454M160.244 193.322l52.472-34.471M227.935 312.91l-3.615-62.648M228.642 312.887l-3.617-62.678M366.053 314.059l-56.062-28.193M366.387 313.436l-56.09-28.207M436.11 192.486l-52.373-34.566M435.737 193.085l-52.4-34.583M368.044 74.832l3.615 62.647M367.338 74.854l3.617 62.678M377.365 73.829l56.09 28.208M377.7 73.207 433.76 101.4M375.708 312.434l-3.614-62.647M376.415 312.412l-3.617-62.679M513.826 313.584l-56.061-28.194M514.161 312.961l-56.09-28.207M583.884 192.01l-52.373-34.566M583.51 192.61l-52.399-34.583M515.818 74.357l3.614 62.647M515.11 74.378l3.618 62.679M525.139 73.354l56.09 28.207M525.473 72.732l56.062 28.193M523.482 311.958l-3.615-62.647M524.188 311.937l-3.617-62.679M661.6 313.108l-56.062-28.192M661.934 312.486l-56.09-28.207M731.656 191.535l-52.371-34.566M731.284 192.134l-52.4-34.582M663.591 73.882l3.615 62.647M662.884 73.903l3.617 62.679M672.912 72.88l56.09 28.206M673.247 72.256l56.061 28.194M671.256 311.484l-3.616-62.647M671.961 311.463l-3.616-62.68M809.374 312.633l-56.062-28.192M809.707 312.011l-56.089-28.208M879.43 191.06l-52.373-34.566M879.057 191.66l-52.399-34.584M811.364 73.406l3.616 62.647M810.658 73.428l3.617 62.68M293.68 177.692l1.202-59.913M281.825 189.514l-51.286-31M286.133 205.69l-52.487 28.917M302.3 210.049l-1.203 59.913M314.165 189.018l51.351-30.888M309.846 182.05l52.487-28.916M441.454 177.218l1.202-59.914M433.907 205.216l-52.488 28.916M450.072 209.573l-1.202 59.914M461.937 188.543l51.353-30.89M457.62 181.574l52.487-28.916M589.227 176.743l1.202-59.915M581.68 204.74l-52.487 28.917M597.845 209.098l-1.201 59.914M609.71 188.067l51.353-30.888M605.392 181.1l52.489-28.916M737 176.268l1.203-59.915M729.454 204.266l-52.489 28.916M745.619 208.623l-1.203 59.913M757.484 187.592l51.353-30.888M753.165 180.625l52.49-28.916M294.354 179.042l1.23-61.244M283.33 189.604l-52.424-31.687M286.965 204.433l-53.654 29.557M301.624 208.699l-1.229 61.244M312.658 189.105l52.493-31.574M309.014 183.308l53.654-29.557M442.128 178.567l1.23-61.245M434.739 203.958l-53.654 29.558M449.398 208.224l-1.23 61.245M460.432 188.63l52.492-31.575M456.788 182.833l53.654-29.558M589.902 178.092l1.229-61.245M582.512 203.482l-53.654 29.559M597.172 207.748l-1.23 61.246M608.206 188.155l52.492-31.575M604.561 182.358l53.654-29.558M737.675 177.616l1.23-61.244M730.286 203.007l-53.654 29.559M744.944 207.273l-1.228 61.245M755.978 187.68l52.493-31.575M752.334 181.882l53.654-29.557M229.926 73.682a.363.363 0 0 0-.331.619M159.872 192.72a.363.363 0 0 0 .375.597M227.935 312.91a.363.363 0 0 0 .707 0M366.053 314.059a.363.363 0 0 0 .331-.618M435.737 193.085a.363.363 0 0 0 .375-.596M368.044 74.832a.363.363 0 0 0-.707 0M377.7 73.207a.363.363 0 0 0-.332.619M375.708 312.434a.363.363 0 0 0 .707 0M513.826 313.584a.363.363 0 0 0 .332-.618M583.51 192.61a.363.363 0 0 0 .376-.596M515.818 74.357a.363.363 0 0 0-.707 0M525.473 72.732a.363.363 0 0 0-.331.619M523.482 311.958a.363.363 0 0 0 .707 0M661.6 313.108a.363.363 0 0 0 .331-.618M731.284 192.134a.363.363 0 0 0 .376-.596M663.591 73.882a.363.363 0 0 0-.707 0M673.247 72.256a.363.363 0 0 0-.331.619M671.256 311.484a.363.363 0 0 0 .706 0M809.374 312.633a.363.363 0 0 0 .331-.618M879.057 191.66a.363.363 0 0 0 .375-.597M811.364 73.406a.363.363 0 0 0-.707 0M293.715 179.168a.36.36 0 0 0 .64-.122M283.12 190.22a.36.36 0 0 0 .21-.618M287.393 204.924a.36.36 0 0 0-.43-.486M302.264 208.573a.36.36 0 0 0-.64.122M312.658 189.105a.36.36 0 0 0 .21.619M308.585 182.817a.36.36 0 0 0 .431.486M441.489 178.692a.36.36 0 0 0 .64-.122M435.167 204.448a.36.36 0 0 0-.43-.486M450.038 208.098a.36.36 0 0 0-.641.122M460.432 188.63a.36.36 0 0 0 .21.619M456.359 182.342a.36.36 0 0 0 .43.486M589.262 178.217a.36.36 0 0 0 .64-.121M582.94 203.973a.36.36 0 0 0-.43-.486M597.811 207.623a.36.36 0 0 0-.64.122M608.206 188.155a.36.36 0 0 0 .21.619M604.133 181.867a.36.36 0 0 0 .43.486M737.036 177.742a.36.36 0 0 0 .64-.121M730.714 203.499a.36.36 0 0 0-.43-.486M745.585 207.148a.36.36 0 0 0-.64.122M755.978 187.68a.36.36 0 0 0 .21.618M751.906 181.392a.36.36 0 0 0 .43.486M295.584 117.798a17.43 17.43 0 0 0-9.596-15.923M230.906 157.917a17.43 17.43 0 0 0-18.588.354M233.31 233.99a17.43 17.43 0 0 0-8.99 16.272M300.395 269.943a17.43 17.43 0 0 0 9.596 15.923M383.737 157.92a17.43 17.43 0 0 0-18.586-.387M362.668 153.75a17.43 17.43 0 0 0 8.99-16.271M443.357 117.322a17.43 17.43 0 0 0-9.596-15.922M381.085 233.516a17.43 17.43 0 0 0-8.991 16.271M448.169 269.469a17.43 17.43 0 0 0 9.596 15.921M531.51 157.444a17.43 17.43 0 0 0-18.586-.387M510.442 153.275a17.43 17.43 0 0 0 8.99-16.271M591.13 116.847a17.43 17.43 0 0 0-9.595-15.922M528.858 233.04a17.43 17.43 0 0 0-8.99 16.271M595.943 268.994a17.43 17.43 0 0 0 9.595 15.922M679.284 156.969a17.43 17.43 0 0 0-18.586-.387M658.215 152.8a17.43 17.43 0 0 0 8.99-16.271M738.904 116.372a17.43 17.43 0 0 0-9.596-15.922M676.632 232.566a17.43 17.43 0 0 0-8.992 16.27M743.716 268.518a17.43 17.43 0 0 0 9.596 15.923M827.057 156.494a17.43 17.43 0 0 0-18.586-.387M805.988 152.325a17.43 17.43 0 0 0 8.992-16.272" style="fill:none;stroke:#fff;stroke-width:.5;stroke-linecap:round;stroke-miterlimit:4;stroke-dasharray:none;stroke-opacity:1" transform="translate(-92.322 64.789)"/><path d="M294.882 117.779a16.713 16.713 0 0 0-9.2-15.267M230.539 158.515a16.713 16.713 0 0 0-17.823.331M233.646 234.607a16.713 16.713 0 0 0-8.621 15.602M301.097 269.962a16.713 16.713 0 0 0 9.2 15.267M383.337 158.502a16.713 16.713 0 0 0-17.82-.376M362.333 153.134a16.713 16.713 0 0 0 8.622-15.602M442.656 117.304a16.713 16.713 0 0 0-9.2-15.267M381.42 234.132a16.713 16.713 0 0 0-8.622 15.601M448.87 269.487a16.713 16.713 0 0 0 9.2 15.267M531.111 158.027a16.713 16.713 0 0 0-17.821-.376M510.107 152.658a16.713 16.713 0 0 0 8.62-15.601M590.43 116.828a16.713 16.713 0 0 0-9.201-15.267M529.193 233.657a16.713 16.713 0 0 0-8.622 15.601M596.644 269.012a16.713 16.713 0 0 0 9.2 15.267M678.885 157.552a16.713 16.713 0 0 0-17.822-.376M657.88 152.184a16.713 16.713 0 0 0 8.621-15.602M738.203 116.353a16.713 16.713 0 0 0-9.202-15.267M676.965 233.182a16.713 16.713 0 0 0-8.62 15.602M744.416 268.536a16.713 16.713 0 0 0 9.202 15.267M826.658 157.076a16.713 16.713 0 0 0-17.821-.376M805.654 151.709a16.713 16.713 0 0 0 8.62-15.602M235.109 77.08l41.836 24.736M165.405 189.931l42.34-23.862M228.286 306.723l.508-48.6M360.871 310.662l-41.837-24.737M430.583 189.684l-42.29-23.953M367.694 81.018l-.508 48.6M382.882 76.604l41.837 24.737M376.059 306.248l.508-48.6M508.644 310.187l-41.836-24.738M578.356 189.209l-42.29-23.953M515.466 80.544l-.508 48.599M530.655 76.128l41.836 24.738M523.832 305.773l.508-48.6M656.417 309.712l-41.836-24.738M726.13 188.733l-42.29-23.952M663.24 80.068l-.508 48.6M678.429 75.653l41.836 24.738M671.606 305.297l.508-48.6M804.19 309.236 762.356 284.5M873.904 188.258l-42.291-23.953M811.014 79.593l-.508 48.6M293.15 184.96l-1.327-56.545M293.85 184.96l-1.326-56.561M287.852 193.607l-49.631-27.124M288.203 193l-49.646-27.132M292.692 202.518l-48.305 29.42M292.341 201.91l-48.319 29.43M302.83 202.782l1.326 56.544M302.128 202.782l1.326 56.56M308.128 193.097l49.69-27.017M307.78 192.49l49.703-27.025M303.288 185.223l48.304-29.42M303.638 185.83l48.32-29.429M440.923 184.483l-1.326-56.543M441.624 184.483l-1.326-56.56M440.466 202.043l-48.306 29.42M440.115 201.436l-48.32 29.429M450.603 202.307l1.326 56.543M449.902 202.307l1.326 56.56M455.902 192.623l49.69-27.018M455.553 192.014l49.703-27.025M451.06 184.748l48.306-29.42M451.411 185.356l48.32-29.43M588.697 184.008l-1.327-56.543M589.398 184.008l-1.327-56.56M588.238 201.567l-48.304 29.42M587.888 200.96l-48.32 29.429M598.377 201.832l1.326 56.543M597.675 201.832l1.327 56.56M603.675 192.148l49.689-27.018M603.325 191.54l49.705-27.026M598.834 184.273l48.305-29.42M599.185 184.88l48.319-29.429M736.47 183.534l-1.326-56.544M737.172 183.534l-1.328-56.561M736.012 201.092l-48.304 29.42M735.662 200.485l-48.32 29.43M746.15 201.357l1.327 56.543M745.449 201.357l1.326 56.56M751.449 191.673l49.688-27.018M751.099 191.064l49.704-27.025M746.607 183.797l48.306-29.419M746.959 184.405l48.318-29.43M234.752 77.682l41.836 24.738M165.75 190.542l42.34-23.862M228.987 306.73l.508-48.6M361.228 310.059l-41.836-24.738M430.237 190.293l-42.29-23.951M366.993 81.01l-.508 48.601M382.525 77.207l41.836 24.737M376.76 306.255l.508-48.6M509.001 309.583l-41.836-24.737M578.01 189.819l-42.29-23.952M514.766 80.536l-.508 48.6M530.298 76.732l41.836 24.737M524.533 305.78l.508-48.6M656.774 309.108l-41.836-24.737M725.784 189.344l-42.29-23.953M662.539 80.061l-.508 48.6M678.072 76.258l41.836 24.736M672.307 305.305l.508-48.6M804.548 308.633l-41.837-24.738M873.558 188.869l-42.29-23.953M810.312 79.585l-.508 48.6M292.524 128.399a31.746 31.746 0 0 0-15.58-26.583M238.557 165.868a31.746 31.746 0 0 0-30.811.199M244.022 231.34a31.746 31.746 0 0 0-15.231 26.783M303.454 259.343a31.746 31.746 0 0 0 15.58 26.582M388.293 165.731a31.746 31.746 0 0 0-30.81-.265M351.958 156.401a31.746 31.746 0 0 0 15.23-26.783M440.298 127.924a31.746 31.746 0 0 0-15.58-26.583M391.795 230.865a31.746 31.746 0 0 0-15.23 26.782M451.228 258.868a31.746 31.746 0 0 0 15.58 26.58M536.066 165.256a31.746 31.746 0 0 0-30.81-.265M499.731 155.926a31.746 31.746 0 0 0 15.23-26.783M588.07 127.448a31.746 31.746 0 0 0-15.579-26.582M539.568 230.389a31.746 31.746 0 0 0-15.23 26.783M599.002 258.392a31.746 31.746 0 0 0 15.58 26.582M683.84 164.781a31.746 31.746 0 0 0-30.81-.265M647.504 155.451a31.746 31.746 0 0 0 15.231-26.783M735.844 126.973a31.746 31.746 0 0 0-15.58-26.582M687.342 229.914a31.746 31.746 0 0 0-15.23 26.784M746.775 257.917a31.746 31.746 0 0 0 15.58 26.582M831.613 164.305a31.746 31.746 0 0 0-30.81-.265M795.277 154.975a31.746 31.746 0 0 0 15.232-26.782" style="fill:none;stroke:#fff;stroke-width:.5;stroke-linecap:round;stroke-miterlimit:4;stroke-dasharray:none;stroke-opacity:1" transform="translate(-92.322 64.789)"/><path d="M291.823 128.415a31.046 31.046 0 0 0-15.235-25.995M238.221 166.483a31.046 31.046 0 0 0-30.13.199M244.387 231.938a31.046 31.046 0 0 0-14.895 26.192M304.156 259.326a31.046 31.046 0 0 0 15.236 25.995M387.947 166.342a31.046 31.046 0 0 0-30.13-.265M351.592 155.803a31.046 31.046 0 0 0 14.895-26.192M439.597 127.94a31.046 31.046 0 0 0-15.236-25.996M392.16 231.462a31.046 31.046 0 0 0-14.894 26.193M451.93 258.85a31.046 31.046 0 0 0 15.235 25.996M535.72 165.867a31.046 31.046 0 0 0-30.129-.265M499.366 155.328a31.046 31.046 0 0 0 14.894-26.193M587.37 127.465a31.046 31.046 0 0 0-15.236-25.996M539.934 230.988a31.046 31.046 0 0 0-14.895 26.192M599.703 258.375a31.046 31.046 0 0 0 15.235 25.996M683.494 165.39a31.046 31.046 0 0 0-30.13-.264M647.14 154.853a31.046 31.046 0 0 0 14.894-26.193M735.144 126.99a31.046 31.046 0 0 0-15.236-25.996M687.708 230.513a31.046 31.046 0 0 0-14.896 26.192M747.477 257.9a31.046 31.046 0 0 0 15.234 25.995M831.268 164.916a31.046 31.046 0 0 0-30.13-.265M794.913 154.378a31.046 31.046 0 0 0 14.895-26.193M293.15 184.96a.36.36 0 0 0 .706 0M287.852 193.607a.36.36 0 0 0 .353-.608M292.692 202.518a.36.36 0 0 0-.353-.608M302.83 202.782a.36.36 0 0 0-.707 0M307.78 192.49a.36.36 0 0 0 .353.607M303.288 185.223a.36.36 0 0 0 .353.608M440.923 184.483a.36.36 0 0 0 .696 0M440.466 202.043a.36.36 0 0 0-.354-.607M450.603 202.307a.36.36 0 0 0-.707 0M455.553 192.014a.36.36 0 0 0 .353.607M451.06 184.748a.36.36 0 0 0 .354.608M588.697 184.008a.36.36 0 0 0 .707 0M588.238 201.567a.36.36 0 0 0-.353-.607M598.377 201.832a.36.36 0 0 0-.696 0M603.325 191.54a.36.36 0 0 0 .354.607M598.834 184.273a.36.36 0 0 0 .353.608M736.47 183.534a.36.36 0 0 0 .707 0M736.012 201.092a.36.36 0 0 0-.353-.607M746.15 201.357a.36.36 0 0 0-.707 0M751.099 191.064a.36.36 0 0 0 .353.608M746.607 183.797a.36.36 0 0 0 .354.608M235.109 77.08a.36.36 0 0 0-.354.607M165.405 189.931a.36.36 0 0 0 .342.608M228.286 306.723a.36.36 0 0 0 .707.008M360.871 310.662a.36.36 0 0 0 .354-.608M430.237 190.293a.36.36 0 0 0 .342-.607M367.694 81.018a.36.36 0 0 0-.696-.007M382.882 76.604a.36.36 0 0 0-.353.608M376.059 306.248a.36.36 0 0 0 .706.008M508.644 310.187a.36.36 0 0 0 .353-.607M578.01 189.819a.36.36 0 0 0 .343-.608M515.466 80.544a.36.36 0 0 0-.695-.008M530.655 76.128a.36.36 0 0 0-.353.608M523.832 305.773a.36.36 0 0 0 .707.006M656.417 309.712a.36.36 0 0 0 .354-.607M725.784 189.344a.36.36 0 0 0 .343-.608M663.24 80.068a.36.36 0 0 0-.707-.007M678.429 75.653a.36.36 0 0 0-.354.608M671.606 305.297a.36.36 0 0 0 .696.008M804.19 309.236a.36.36 0 0 0 .354-.607M873.558 188.869a.36.36 0 0 0 .342-.608M811.014 79.593a.36.36 0 0 0-.707-.007M292.944 181.793a.293.293 0 0 0-.585 0M285.007 192.202a.292.292 0 0 0-.287.508M290.053 204.28a.292.292 0 0 0 .287.507M303.036 205.948a.293.293 0 0 0 .585 0M311.267 192.206a.292.292 0 0 0-.287-.508M305.926 183.462a.292.292 0 0 0-.287-.508M432.906 191.459a.292.292 0 0 0-.32.485M440.718 181.318a.293.293 0 0 0-.586 0M437.826 203.803a.292.292 0 0 0 .288.508M450.808 205.473a.293.293 0 0 0 .586 0M459.04 191.73a.292.292 0 0 0-.287-.508M453.7 182.987a.295.295 0 0 0-.299-.508M580.68 190.984a.292.292 0 0 0-.32.486M588.49 180.842a.293.293 0 0 0-.585 0M585.6 203.328a.292.292 0 0 0 .287.508M598.582 204.998a.293.293 0 0 0 .585 0M606.814 191.255a.292.292 0 0 0-.287-.508M601.473 182.512a.292.292 0 0 0-.287-.508M728.454 190.508a.292.292 0 0 0-.32.486M736.264 180.367a.293.293 0 0 0-.586 0M733.374 202.854a.292.292 0 0 0 .287.508M746.356 204.522a.293.293 0 0 0 .585 0M754.588 190.78a.292.292 0 0 0-.287-.508M749.247 182.036a.292.292 0 0 0-.287-.508M876.227 190.033a.292.292 0 0 0-.32.486M294.642 181.793a.293.293 0 0 0-.586 0M285.856 190.732a.292.292 0 0 0-.287.508M289.205 202.81a.292.292 0 0 0 .287.507M301.338 205.948a.293.293 0 0 0 .586 0M310.422 190.734a.292.292 0 0 0-.287-.508M306.775 184.932a.292.292 0 0 0-.287-.508M433.843 190.043a.292.292 0 0 0-.32.486M442.414 181.318a.293.293 0 0 0-.585 0M436.978 202.334a.292.292 0 0 0 .287.509M449.111 205.473a.293.293 0 0 0 .585 0M458.194 190.26a.292.292 0 0 0-.287-.509M454.548 184.457a.292.292 0 0 0-.287-.508M581.617 189.568a.292.292 0 0 0-.32.486M590.188 180.842a.293.293 0 0 0-.586 0M584.75 201.858a.295.295 0 0 0 .299.509M596.885 204.998a.293.293 0 0 0 .585 0M605.968 189.784a.292.292 0 0 0-.287-.508M602.321 183.982a.292.292 0 0 0-.287-.508M729.39 189.093a.292.292 0 0 0-.32.486M737.961 180.367a.293.293 0 0 0-.585 0M732.524 201.384a.292.292 0 0 0 .288.508M744.658 204.522a.293.293 0 0 0 .586 0M753.742 189.308a.292.292 0 0 0-.287-.508M750.095 183.506a.292.292 0 0 0-.287-.508M877.164 188.618a.292.292 0 0 0-.32.486M292.36 191.42a.293.293 0 0 0 .585 0M293.052 197.522a.292.292 0 0 0 .287-.508M298.682 199.971a.292.292 0 0 0-.287-.508M303.62 196.32a.293.293 0 0 0-.585 0M297.296 187.77a.292.292 0 0 0 .288.508M440.612 197.26a.292.292 0 0 0 .32-.486M440.132 190.945a.293.293 0 0 0 .586 0M446.456 199.496a.292.292 0 0 0-.287-.508M451.393 195.845a.293.293 0 0 0-.586 0M445.07 187.295a.292.292 0 0 0 .287.508M588.385 196.784a.292.292 0 0 0 .32-.486M587.906 190.47a.293.293 0 0 0 .585 0M594.23 199.021a.292.292 0 0 0-.287-.508M599.166 195.37a.293.293 0 0 0-.585 0M592.844 186.82a.292.292 0 0 0 .287.507M736.159 196.309a.292.292 0 0 0 .32-.486M735.68 189.995a.293.293 0 0 0 .585 0M742.003 198.545a.292.292 0 0 0-.287-.508M746.94 194.895a.293.293 0 0 0-.585 0M740.616 186.344a.292.292 0 0 0 .287.508M294.056 191.42a.293.293 0 0 0 .586 0M293.902 196.052a.292.292 0 0 0 .287-.508M297.834 198.501a.292.292 0 0 0-.287-.508M301.923 196.32a.293.293 0 0 0-.586 0M298.145 189.24a.292.292 0 0 0 .287.508M441.55 195.844a.292.292 0 0 0 .32-.486M441.83 190.945a.293.293 0 0 0 .585 0M445.608 198.026a.292.292 0 0 0-.287-.508M449.696 195.845a.293.293 0 0 0-.585 0M445.918 188.764a.292.292 0 0 0 .287.508M589.322 195.37a.292.292 0 0 0 .32-.487M589.603 190.47a.293.293 0 0 0 .586 0M593.381 197.551a.292.292 0 0 0-.287-.508M597.469 195.37a.293.293 0 0 0-.586 0M593.692 188.289a.292.292 0 0 0 .287.508M737.095 194.894a.292.292 0 0 0 .32-.486M737.377 189.995a.293.293 0 0 0 .585 0M741.154 197.077a.292.292 0 0 0-.287-.508M745.242 194.895a.293.293 0 0 0-.585 0M741.465 187.814a.292.292 0 0 0 .288.508M239.424 79.63l.154-.298M169.773 187.47l-.188-.288M228.338 301.71h-.342M356.555 308.11l-.154.31M426.22 187.213l.188-.287M367.641 86.031h.342M387.197 79.155l.155-.309M376.112 301.235h-.343M504.329 307.635l-.155.309M573.994 186.737l.188-.287M515.415 85.556h.342M534.97 78.68l.156-.309M523.884 300.759h-.342M652.101 307.16l-.154.31M721.768 186.262l.187-.287M663.188 85.081h.343M682.745 78.206l.154-.31M671.658 300.284h-.343M799.875 306.685l-.155.31M869.541 185.788l.188-.288M810.962 84.605h.342M284.724 108.291l5.964 6.037M217.243 162.57l8.21-2.147M230.508 248.149l2.246-8.184M311.255 279.45l-5.964-6.037M378.803 162.21l-8.205-2.162M365.47 139.593l-2.245 8.183M432.498 107.816l5.963 6.037M378.282 247.673l2.246-8.183M459.028 278.975l-5.963-6.038M526.577 161.735l-8.206-2.163M513.244 139.118l-2.246 8.183M580.271 107.341l5.964 6.037M526.055 247.198l2.247-8.183M606.802 278.5l-5.964-6.037M674.35 161.26l-8.205-2.163M661.018 138.643l-2.246 8.182M728.045 106.865l5.963 6.038M673.829 246.723l2.246-8.184M754.574 278.024l-5.962-6.036M822.124 160.786l-8.206-2.164M808.792 138.168l-2.248 8.182M290.688 114.328l.894 7.124M225.453 160.423l6.619 2.783M232.754 239.965l5.721-4.34M305.291 273.413l-.895-7.124M370.598 160.048l-6.625 2.768M363.225 147.776l-5.72 4.34M438.461 113.853l.895 7.124M380.528 239.49l5.72-4.341M453.065 272.937l-.895-7.123M518.371 159.572l-6.625 2.77M510.998 147.301l-5.72 4.34M586.235 113.378l.895 7.124M528.302 239.015l5.72-4.341M600.838 272.463l-.894-7.125M666.145 159.097l-6.626 2.769M658.772 146.825l-5.72 4.341M734.008 112.903l.905 7.123M676.075 238.54l5.72-4.34M748.612 271.988l-.906-7.125M813.918 158.622l-6.625 2.769M806.544 146.35l-5.72 4.342M293.39 110.532l-5.204-5.193M223.516 156.185l-7.099 1.91M228.116 239.523l-1.896 7.103M302.59 277.21l5.202 5.192M372.543 155.814l7.096 1.923M367.863 148.218l1.896-7.103M441.164 110.057l-5.204-5.194M375.89 239.048l-1.897 7.103M450.362 276.734l5.204 5.193M520.317 155.338l7.094 1.925M515.637 147.743l1.896-7.102M588.936 109.581l-5.202-5.193M523.663 238.572l-1.896 7.104M598.136 276.26l5.203 5.192M668.09 154.863l7.095 1.925M663.41 147.268l1.896-7.103M736.71 109.106l-5.203-5.193M671.436 238.098l-1.895 7.102M745.91 275.783l5.202 5.194M815.864 154.388l7.095 1.925M811.184 146.792l1.895-7.102M288.186 105.34l-7.408-5.294M216.417 158.094l-8.288 3.77M226.22 246.626l-.884 9.062M307.792 282.402l7.41 5.293M379.639 157.737l8.28 3.788M369.76 141.115l.883-9.062M435.96 104.863l-7.408-5.292M373.993 246.15l-.883 9.063M455.566 281.927l7.408 5.293M527.411 157.263l8.281 3.788M517.533 140.64l.883-9.063M583.734 104.388l-7.41-5.293M521.767 245.676l-.884 9.062M603.339 281.452l7.409 5.293M675.185 156.788l8.28 3.787M665.306 140.165l.884-9.063M731.507 103.913l-7.409-5.293M669.54 245.2l-.883 9.063M751.112 280.977l7.41 5.292M822.959 156.313l8.28 3.787M813.079 139.69l.883-9.063M290.963 114.042l-7.913-7.815M225.342 160.041l-10.724 2.947M232.369 239.87l-2.81 10.761M305.016 273.7l7.914 7.814M370.71 159.667l10.717 2.968M363.61 147.87l2.81-10.76M438.736 113.567l-7.914-7.815M380.143 239.395l-2.811 10.76M452.79 273.225l7.914 7.814M518.483 159.19l10.718 2.97M511.384 147.395l2.81-10.76M586.509 113.09l-7.913-7.813M527.916 238.92l-2.81 10.76M600.563 272.75l7.913 7.813M666.256 158.716l10.718 2.969M659.157 146.92l2.81-10.76M734.283 112.616l-7.913-7.815M675.69 238.445l-2.81 10.76M748.337 272.274l7.913 7.814M814.03 158.241l10.718 2.969M806.93 146.445l2.811-10.76M283.05 106.227l-3.795-3.217M214.618 162.988l-4.683 1.677M229.558 250.631l-.894 4.895M312.93 281.514l3.795 3.217M381.427 162.635l4.68 1.688M366.42 137.11l.895-4.895M430.822 105.752l-3.793-3.217M377.332 250.155l-.895 4.895M460.704 281.04l3.793 3.216M529.2 162.16l4.68 1.687M514.194 136.635l.895-4.895M578.596 105.277l-3.795-3.218M525.105 249.68l-.894 4.895M608.476 280.563l3.795 3.218M676.974 161.685l4.68 1.687M661.968 136.16l.894-4.895M726.37 104.801l-3.795-3.217M672.88 249.205l-.895 4.895M756.25 280.088l3.794 3.217M824.748 161.21l4.679 1.687M809.741 135.685l.895-4.895M279.255 103.01l-39.8-23.442M209.935 164.665l-40.2 22.746M228.67 255.526l-.398 46.187M316.725 284.731l39.798 23.442M386.107 164.323l40.152 22.832M367.31 132.215l.397-46.187M427.029 102.535l-39.8-23.443M376.443 255.05l-.398 46.188M464.497 284.256l39.8 23.442M533.88 163.847l40.153 22.832M515.083 131.74l.398-46.188M574.801 102.06l-39.798-23.442M524.216 254.575l-.397 46.188M612.27 283.781l39.8 23.442M681.654 163.372l40.152 22.832M662.857 131.265l.397-46.188M722.575 101.584l-39.8-23.441M671.989 254.1l-.398 46.188M760.044 283.305l39.8 23.443M829.427 162.897l40.153 22.832M810.63 130.79l.398-46.188M239.479 79.52l39.885 23.2M169.705 187.367l40.034-22.94M228.215 301.716l.155-46.14M356.5 308.22l-39.885-23.2M426.288 187.11l-39.984-23.026M367.764 86.025l-.155 46.14M387.252 79.046l39.885 23.2M375.989 301.242l.155-46.141M504.274 307.745l-39.885-23.2M574.061 186.636l-39.984-23.027M515.537 85.55l-.154 46.14M535.026 78.571l39.885 23.2M523.761 300.767l.155-46.141M652.047 307.27l-39.884-23.2M721.835 186.16l-39.984-23.025M663.31 85.074l-.154 46.14M682.8 78.095l39.883 23.2M671.535 300.29l.155-46.14M799.82 306.794l-39.884-23.2M869.609 185.685l-39.985-23.026M811.084 84.599l-.154 46.14M279.364 102.72l11.83 11.07M209.74 164.427l15.5-4.71M228.364 255.577l3.672-15.78M316.615 285.02l-11.829-11.07M386.304 164.084l-15.492-4.742M367.614 132.164l-3.672 15.78M427.137 102.246l11.83 11.07M376.138 255.1l3.672-15.779M464.389 284.546l-11.83-11.07M534.077 163.61l-15.492-4.744M515.388 131.69l-3.672 15.78M574.91 101.77l11.83 11.071M523.912 254.626l3.672-15.78M612.163 284.07 600.333 273M681.851 163.135l-15.492-4.744M663.162 131.215l-3.672 15.78M722.683 101.295l11.83 11.07M671.685 254.15l3.672-15.78M759.936 283.595l-11.83-11.07M829.624 162.659l-15.492-4.743M810.935 130.74l-3.673 15.78M291.601 113.615l-6.698-6.215M225.292 159.276l-8.732 2.692M231.68 239.531l-2.033 8.908M304.379 274.126l6.698 6.215M370.762 158.9l8.726 2.712M364.3 148.21l2.032-8.908M439.375 113.14l-6.698-6.215M379.454 239.056l-2.034 8.908M452.151 273.65l6.698 6.216M518.534 158.425l8.727 2.712M512.072 147.735l2.034-8.909M587.147 112.664l-6.698-6.215M527.227 238.581l-2.033 8.908M599.925 273.176l6.698 6.215M666.308 157.95l8.726 2.712M659.845 147.26l2.034-8.909M734.92 112.19l-6.697-6.216M675 238.105l-2.033 8.91M747.699 272.701l6.698 6.214M814.082 157.475l8.725 2.712M807.619 146.784l2.033-8.908M284.903 107.4l-5.358-4.916M216.56 161.968l-6.936 2.183M229.647 248.439l-1.579 7.098M311.077 280.341l5.357 4.916M379.488 161.612l6.93 2.197M366.332 139.302l1.578-7.098M432.677 106.925l-5.359-4.917M377.42 247.964l-1.578 7.098M458.85 279.866l5.358 4.916M527.261 161.137l6.931 2.196M514.106 138.826l1.578-7.098M580.45 106.449l-5.358-4.916M525.194 247.49l-1.578 7.097M606.623 279.391l5.358 4.916M675.034 160.662l6.932 2.196M661.88 138.351l1.578-7.098M728.223 105.974l-5.358-4.915M672.967 247.014l-1.578 7.098M754.397 278.915l5.357 4.917M822.807 160.187l6.931 2.197M809.652 137.876l1.58-7.098M279.545 102.484 239.49 79.498M209.624 164.15l-39.933 23.196M228.068 255.537l.122 46.182M316.434 285.257l40.054 22.986M386.419 163.81l39.883 23.279M367.91 132.204l-.121-46.182M427.318 102.008l-40.053-22.985M375.842 255.062l.122 46.18M464.208 284.782l40.053 22.986M534.192 163.333l39.884 23.28M515.684 131.728l-.121-46.18M575.092 101.533l-40.054-22.985M523.616 254.587l.121 46.18M611.981 284.307l40.054 22.985M681.966 162.858l39.883 23.28M663.458 131.253l-.122-46.18M722.865 101.059l-40.054-22.987M671.39 254.112l.12 46.18M759.754 283.832l40.055 22.986M829.738 162.384l39.885 23.279M811.231 130.778l-.121-46.18M239.491 79.498h.01M169.691 187.346v0M228.189 301.719v0M356.488 308.243h-.01M426.302 187.089v0M367.79 86.022v0M387.265 79.023h.01M375.962 301.243v0M504.261 307.768h-.01M574.076 186.614v0M515.564 85.548v-.001M535.038 78.548h.01M523.736 300.768v0M652.035 307.292h-.01M721.85 186.139v0M663.337 85.073v-.001M682.81 78.072h.01M671.51 300.293v0M799.809 306.818h-.01M869.623 185.663v0M811.11 84.598v-.001M239.501 79.479l40.242 22.716M169.679 187.327l39.794-23.492M228.168 301.72l-.453-46.21M356.479 308.262l-40.242-22.716M426.314 187.07l-39.744-23.577M367.812 86.021l.453 46.21M387.275 79.003l40.242 22.717M375.941 301.244l-.452-46.21M504.252 307.787l-40.243-22.717M574.088 186.596l-39.744-23.577M515.585 85.546l.452 46.21M535.047 78.528l40.243 22.717M523.714 300.769l-.453-46.21M652.025 307.312l-40.242-22.717M721.862 186.12l-39.745-23.577M663.358 85.072l.453 46.209M682.82 78.053l40.243 22.717M671.488 300.294l-.453-46.21M799.799 306.837l-40.243-22.717M869.635 185.645l-39.744-23.577M811.132 84.597l.453 46.21M279.743 102.195l6.157 5.384M209.473 163.835l7.742-2.64M227.72 255.51l1.583-8.024M316.237 285.546l-6.158-5.384M386.57 163.493l-7.735-2.657M368.26 132.23l-1.584 8.025M427.517 101.72l6.157 5.384M375.493 255.034l1.584-8.023M464.01 285.07l-6.158-5.383M534.344 163.019l-7.735-2.658M516.033 131.756l-1.584 8.024M575.29 101.245l6.158 5.383M523.267 254.56l1.583-8.025M611.783 284.595l-6.157-5.383M682.117 162.543l-7.735-2.658M663.807 131.281l-1.584 8.024M723.063 100.77l6.158 5.383M671.04 254.085l1.584-8.025M759.556 284.12l-6.157-5.383M829.89 162.068l-7.734-2.657M811.58 130.806l-1.583 8.023M285.9 107.579l5.98 5.775M217.215 161.194l7.99-2.291M229.303 247.486l2.011-8.066M310.079 280.162l-5.98-5.775M378.835 160.836l-7.986-2.308M366.676 140.255l-2.011 8.067M433.674 107.104l5.98 5.775M377.077 247.011l2.01-8.066M457.852 279.687l-5.98-5.774M526.609 160.361l-7.987-2.309M514.45 139.78l-2.012 8.067M581.448 106.628l5.98 5.776M524.85 246.535l2.011-8.065M605.626 279.212l-5.98-5.775M674.382 159.885l-7.987-2.308M662.223 139.305l-2.011 8.066M729.221 106.153l5.98 5.775M672.624 246.06l2.011-8.066M753.4 278.737l-5.98-5.775M822.156 159.41l-7.987-2.308M809.997 138.83l-2.013 8.066M292.151 113.327l-6.134-6.417M225.317 158.655l-8.624 2.103M231.156 239.199l-2.49 8.52M303.828 274.414l6.133 6.418M370.738 158.28l8.618 2.121M364.824 148.542l2.49-8.52M439.925 112.851l-6.134-6.416M378.929 238.724l-2.49 8.52M451.601 273.94l6.134 6.416M518.511 157.805l8.619 2.121M512.597 148.068l2.49-8.52M587.698 112.376l-6.133-6.416M526.702 238.249l-2.49 8.52M599.375 273.464l6.134 6.417M666.284 157.33l8.62 2.121M660.37 147.592l2.49-8.52M735.47 111.901l-6.132-6.416M674.476 237.773l-2.49 8.52M747.149 272.99l6.132 6.416M814.057 156.854l8.62 2.121M808.143 147.117l2.49-8.52M286.017 106.91l-6.437-5.334M216.693 160.758l-7.837 2.909M228.666 247.719l-1.4 8.242M309.961 280.832l6.438 5.333M379.356 160.401l7.832 2.926M367.314 140.022l1.4-8.242M433.791 106.435l-6.437-5.333M376.438 247.244l-1.399 8.24M457.735 280.356l6.437 5.334M527.13 159.926l7.831 2.925M515.088 139.547l1.399-8.242M581.565 105.96l-6.438-5.333M524.212 246.768l-1.4 8.242M605.509 279.88l6.437 5.334M674.903 159.451l7.832 2.925M662.86 139.072l1.4-8.242M729.338 105.485l-6.437-5.334M671.986 246.293l-1.4 8.242M753.281 279.406l6.438 5.333M822.677 158.975l7.831 2.926M810.634 138.596l1.4-8.24M279.58 101.576l-40.064-22.13M208.856 163.667l-39.196 23.631M227.266 255.96l.861 45.76M316.399 286.165l40.063 22.13M387.188 163.327l39.146 23.714M368.714 131.78l-.872-45.76M427.354 101.102l-40.064-22.13M375.04 255.485l.872 45.761M464.172 285.69l40.064 22.13M534.961 162.85l39.147 23.716M516.487 131.305l-.862-45.76M575.127 100.627l-40.063-22.13M522.812 255.01l.872 45.761M611.946 285.214l40.064 22.13M682.735 162.376l39.145 23.715M664.26 130.83l-.872-45.76M722.9 100.15l-40.064-22.129M670.585 254.535l.873 45.761M759.719 284.739l40.064 22.13M830.508 161.901l39.146 23.715M812.034 130.355l-.861-45.76M239.537 79.405l40.077 21.708M169.634 187.259l38.837-23.854M228.085 301.724l-1.24-45.561M356.441 308.336l-40.076-21.708M426.36 187.002l-38.786-23.937M367.894 86.017l1.239 45.561M387.311 78.93l40.077 21.707M375.859 301.25l-1.24-45.562M504.215 307.861l-40.077-21.707M574.133 186.526l-38.787-23.936M515.667 85.542l1.24 45.561M535.085 78.454l40.076 21.708M523.632 300.773l-1.239-45.56M651.989 307.386l-40.077-21.707M721.907 186.052l-38.787-23.937M663.441 85.067l1.24 45.561M682.858 77.98l40.077 21.707M671.406 300.298l-1.24-45.56M799.761 306.91l-40.076-21.706M869.68 185.577l-38.786-23.937M811.214 84.591l1.239 45.561M279.614 101.113l6.818 5.406M208.471 163.405l8.09-3.2M226.846 256.163l1.273-8.608M316.365 286.628l-6.818-5.406M387.574 163.065l-8.084-3.217M369.133 131.578l-1.273 8.608M427.388 100.637l6.817 5.407M374.62 255.688l1.273-8.607M464.138 286.154l-6.817-5.406M535.346 162.59l-8.083-3.217M516.907 131.103l-1.274 8.607M575.161 100.162l6.818 5.407M522.393 255.212l1.273-8.606M611.912 285.679l-6.817-5.407M683.12 162.115l-8.084-3.218M664.68 130.628l-1.274 8.607M722.935 99.687l6.816 5.406M670.167 254.737l1.273-8.606M759.685 285.204l-6.817-5.407M830.894 161.64l-8.084-3.218M812.453 130.152l-1.274 8.608M286.432 106.519l3.608 3.577M216.562 160.205l4.902-1.337M228.12 247.555l1.294-4.913M309.547 281.222l-3.608-3.577M379.49 159.848l-4.9-1.347M367.86 140.186l-1.295 4.913M434.205 106.044l3.608 3.577M375.893 247.08l1.294-4.913M457.32 280.748l-3.607-3.579M527.263 159.373l-4.9-1.347M515.633 139.71l-1.294 4.914M581.979 105.569l3.608 3.577M523.666 246.606l1.295-4.914M605.095 280.272l-3.61-3.577M675.036 158.897l-4.9-1.346M663.406 139.235l-1.293 4.913M729.751 105.093l3.61 3.578M671.44 246.13l1.293-4.914M752.868 279.797l-3.609-3.577M822.81 158.422l-4.9-1.346M811.18 138.76l-1.294 4.913M290.04 110.096l2.03 2.467M221.464 158.868l3.151-.519M229.414 242.642l1.122-2.99M305.94 277.645l-2.03-2.468M374.59 158.5l-3.15-.53M366.565 145.099l-1.122 2.99M437.813 109.62l2.03 2.468M377.187 242.167l1.122-2.99M453.713 277.17l-2.03-2.468M522.363 158.026l-3.15-.53M514.339 144.624l-1.122 2.99M585.587 109.146l2.029 2.467M524.96 241.692l1.123-2.991M601.485 276.695l-2.028-2.468M670.137 157.55l-3.15-.53M662.112 144.148l-1.122 2.992M733.36 108.671l2.03 2.467M672.733 241.216l1.123-2.99M749.259 276.22l-2.029-2.468M817.91 157.076l-3.15-.53M809.886 143.673l-1.122 2.99M239.554 79.372l40.374 21.421M169.614 187.228l38.738-24.255M228.049 301.726l-1.636-45.676M356.425 308.37l-40.374-21.422M426.38 186.971l-38.687-24.337M367.93 86.015l1.636 45.676M387.328 78.897l40.373 21.422M375.822 301.251l-1.635-45.676M504.198 307.893l-40.373-21.42M574.153 186.497l-38.686-24.338M515.704 85.54l1.635 45.676M535.101 78.422l40.374 21.42M523.596 300.775l-1.636-45.674M651.972 307.418l-40.374-21.42M721.927 186.022l-38.687-24.337M663.478 85.065l1.635 45.675M682.875 77.947l40.374 21.42M671.37 300.3l-1.636-45.675M799.746 306.943l-40.375-21.421M869.7 185.546l-38.686-24.337M811.25 84.589l1.637 45.676M280.135 100.557 239.566 79.35M208.251 162.676l-38.652 24.53M226.105 255.99l1.917 45.737M315.844 287.184l40.569 21.208M387.795 162.337l38.6 24.612M369.874 131.751l-1.917-45.737M427.91 100.082l-40.57-21.208M373.878 255.514l1.918 45.739M463.617 286.708l40.57 21.21M535.568 161.862l38.6 24.613M517.648 131.277l-1.918-45.74M575.682 99.607l-40.569-21.21M521.652 255.039l1.917 45.739M611.39 286.233l40.57 21.21M683.342 161.387l38.6 24.612M665.42 130.802l-1.916-45.74M723.455 99.133l-40.57-21.21M669.426 254.564l1.917 45.739M759.164 285.758l40.57 21.209M831.116 160.913l38.599 24.61M813.194 130.327l-1.916-45.74M280.384 100.198l-40.807-20.871M208.065 162.28l-38.48 24.905M225.67 255.953l2.328 45.777M315.595 287.543l40.807 20.871M387.982 161.943l38.426 24.985M370.31 131.788l-2.328-45.777M428.158 99.723 387.35 78.851M373.443 255.478l2.328 45.776M463.368 287.067l40.807 20.873M535.756 161.468l38.426 24.986M518.083 131.313l-2.328-45.777M575.931 99.248l-40.807-20.872M521.217 255.003l2.327 45.776M611.142 286.592l40.807 20.873M683.53 160.993l38.425 24.986M665.856 130.837l-2.328-45.775M723.705 98.774 682.898 77.9M668.99 254.527l2.328 45.777M758.916 286.117l40.807 20.873M831.302 160.517l38.427 24.986M813.629 130.362l-2.327-45.775M279.928 100.793l5.724 4.471M208.352 162.973l6.733-2.722M226.413 256.05l1.005-7.191M316.051 286.948l-5.724-4.471M387.693 162.634l-6.728-2.735M369.566 131.69l-1.005 7.192M427.701 100.319l5.724 4.47M374.187 255.575l1.005-7.192M463.825 286.473l-5.724-4.47M535.467 162.16l-6.728-2.737M517.34 131.216l-1.006 7.192M575.475 99.843l5.724 4.47M521.96 255.1l1.005-7.192M611.598 285.998l-5.725-4.47M683.24 161.685l-6.728-2.737M665.113 130.74l-1.005 7.193M723.249 99.368l5.724 4.47M669.734 254.625l1.005-7.192M759.37 285.522l-5.723-4.47M831.014 161.209l-6.728-2.736M812.887 130.265l-1.005 7.193M285.652 105.264l4.61 4.233M215.085 160.251l5.972-1.875M227.422 248.859l1.362-6.11M310.327 282.477l-4.61-4.233M380.965 159.899l-5.966-1.89M368.556 138.882l-1.36 6.11M433.425 104.79l4.611 4.232M375.196 248.383l1.36-6.109M458.1 282.002l-4.61-4.233M528.739 159.423l-5.967-1.889M516.33 138.408l-1.36 6.109M581.2 104.313l4.609 4.233M522.97 247.908l1.36-6.109M605.873 281.527l-4.61-4.233M676.513 158.948l-5.967-1.889M664.104 137.933l-1.362 6.108M728.973 103.838l4.61 4.233M670.743 247.433l1.36-6.11M753.647 281.051l-4.61-4.233M824.286 158.473l-5.967-1.889M811.877 137.458l-1.361 6.108M290.263 109.497l2.207 2.873M221.057 158.376l3.591-.475M228.784 242.75l1.384-3.35M305.717 278.244l-2.207-2.873M375 158.01l-3.592-.487M367.196 144.992l-1.385 3.348M438.036 109.022l2.208 2.873M376.557 242.274l1.384-3.348M453.49 277.77l-2.208-2.875M522.772 157.534l-3.59-.486M514.97 144.517l-1.385 3.348M585.809 108.546l2.207 2.874M524.33 241.8l1.385-3.349M601.263 277.294l-2.207-2.873M670.546 157.06l-3.59-.487M662.742 144.041l-1.384 3.348M733.582 108.071l2.208 2.874M672.104 241.323l1.384-3.348M749.037 276.818l-2.208-2.872M818.32 156.584l-3.592-.485M810.516 143.566l-1.384 3.349M280.135 100.557l5.94 4.33M208.251 162.676l6.72-2.978M226.105 255.99l.784-7.31M315.844 287.184l-5.939-4.33M387.795 162.337l-6.713-2.993M369.874 131.751l-.784 7.31M427.91 100.082l5.937 4.33M373.878 255.514l.785-7.308M463.617 286.708l-5.94-4.33M535.568 161.862l-6.712-2.993M517.648 131.277l-.785 7.307M575.682 99.607l5.939 4.33M521.652 255.039l.784-7.308M611.39 286.233l-5.939-4.33M683.342 161.387l-6.712-2.992M665.42 130.802l-.784 7.307M723.455 99.133l5.94 4.329M669.426 254.564l.784-7.308M759.164 285.758l-5.94-4.329M831.116 160.913l-6.714-2.994M813.194 130.327l-.784 7.307M286.075 104.887l4.122 3.636M214.97 159.698l5.211-1.753M226.886 248.68l1.082-5.387M309.905 282.854l-4.124-3.636M381.082 159.344l-5.206-1.763M369.094 139.06l-1.093 5.388M433.847 104.411l4.124 3.637M374.658 248.206l1.094-5.388M457.678 282.379l-4.123-3.636M528.856 158.87l-5.207-1.764M516.868 138.584l-1.093 5.39M581.621 103.937l4.124 3.635M522.432 247.731l1.093-5.39M605.451 281.904l-4.122-3.636M676.63 158.395l-5.208-1.764M664.64 138.11l-1.082 5.389M729.395 103.462l4.122 3.635M670.205 247.256l1.094-5.39M753.225 281.429l-4.123-3.637M824.402 157.919l-5.206-1.764M812.414 137.634l-1.082 5.389M290.197 108.523l2.257 2.986M220.181 157.945l3.714-.464M227.972 243.293l1.46-3.448M305.781 279.218l-2.256-2.986M375.876 157.58l-3.714-.463M368.007 144.448l-1.458 3.448M437.971 108.048l2.256 2.986M375.746 242.818l1.459-3.448M453.555 278.743l-2.256-2.987M523.649 157.106l-3.713-.464M515.78 143.974l-1.459 3.446M585.745 107.572 588 110.56M523.52 242.342l1.457-3.447M601.329 278.268l-2.257-2.987M671.422 156.63l-3.714-.474M663.554 143.499l-1.46 3.446M733.517 107.097l2.256 2.988M671.293 241.867l1.458-3.447M749.102 277.792l-2.256-2.986M819.196 156.155l-3.714-.464M811.327 143.023l-1.459 3.448M280.384 100.198l7.233 5.24M208.065 162.28l8.153-3.642M225.67 255.953l.927-8.883M315.595 287.543l-7.233-5.24M387.982 161.943l-8.147-3.661M370.31 131.788l-.929 8.883M428.158 99.723l7.232 5.24M373.443 255.478l.917-8.883M463.368 287.067l-7.232-5.24M535.756 161.468l-8.147-3.661M518.083 131.313l-.917 8.884M575.931 99.248l7.233 5.24M521.217 255.003l.917-8.883M611.142 286.592l-7.232-5.24M683.53 160.993l-8.147-3.66M665.856 130.837l-.916 8.884M723.705 98.774l7.231 5.24M668.99 254.527l.928-8.883M758.916 286.117l-7.233-5.24M831.302 160.517l-8.146-3.66M813.629 130.362l-.917 8.884M287.617 105.439l2.905 2.776M216.218 158.638l3.858-1.128M226.592 247.07l.95-3.904M308.362 282.303l-2.905-2.777M379.836 158.282l-3.855-1.136M369.387 140.671l-.95 3.904M435.39 104.964l2.906 2.775M374.365 246.595l.95-3.904M456.136 281.827l-2.906-2.776M527.61 157.807l-3.855-1.136M517.16 140.197l-.95 3.904M583.164 104.489l2.905 2.775M522.14 246.12l.949-3.905M603.91 281.352l-2.906-2.776M675.383 157.332l-3.855-1.136M664.934 139.72l-.95 3.906M730.936 104.014l2.906 2.775M669.913 245.644l.95-3.904M751.683 280.877l-2.905-2.776M823.156 156.857l-3.854-1.137M812.708 139.246l-.95 3.904M290.522 108.215l2.484 3.1M220.076 157.51l3.926-.596M227.543 243.166l1.443-3.701M305.457 279.526l-2.483-3.1M375.981 157.146l-3.925-.608M368.436 144.575l-1.443 3.701M438.296 107.739l2.484 3.101M375.316 242.69l1.444-3.7M453.23 279.051l-2.483-3.1M523.755 156.67l-3.925-.607M516.21 144.1l-1.444 3.701M586.07 107.264l2.482 3.101M523.09 242.215l1.443-3.701M601.004 278.576l-2.484-3.1M671.528 156.196l-3.926-.608M663.983 143.626l-1.443 3.7M733.842 106.79l2.484 3.1M670.864 241.74l1.443-3.701M748.778 278.101l-2.484-3.1M819.302 155.72l-3.926-.608M811.756 143.15l-1.442 3.7M290.963 114.042l.408 2.175M225.342 160.041l2.087.74M232.369 239.87l1.682-1.438M305.016 273.7l-.409-2.176M370.71 159.667l-2.088.729M363.61 147.87l-1.68 1.439M438.736 113.567l.41 2.175M380.143 239.395l1.681-1.438M452.79 273.225l-.409-2.176M518.483 159.19l-2.088.73M511.384 147.395l-1.682 1.439M586.509 113.09l.409 2.176M527.916 238.92l1.681-1.439M600.563 272.75l-.408-2.176M666.256 158.716l-2.088.729M659.157 146.92l-1.682 1.44M734.283 112.616l.408 2.175M675.69 238.445l1.68-1.439M748.337 272.274l-.409-2.176M814.03 158.241l-2.089.729M806.93 146.445l-1.681 1.438M291.368 116.217l.43 4.33M227.429 160.779l3.967 1.787M234.05 238.432l3.532-2.542M304.612 271.524l-.43-4.33M368.622 160.399l-3.972 1.778M361.93 149.309l-3.533 2.542M439.14 115.742l.442 4.328M381.824 237.957l3.531-2.542M452.385 271.049l-.43-4.33M516.395 159.924l-3.971 1.778M509.702 148.834l-3.531 2.542M586.914 115.266l.431 4.33M529.597 237.481l3.532-2.542M600.158 270.574l-.43-4.33M664.168 159.448l-3.97 1.78M657.475 148.36l-3.53 2.541M734.688 114.791l.43 4.33M677.37 237.006l3.531-2.542M747.932 270.098l-.431-4.328M811.941 158.973l-3.97 1.778M805.249 147.883l-3.53 2.542M291.803 120.546l.552 5.276M231.396 162.566l4.846 2.157M237.582 235.89l4.291-3.119M304.176 267.195l-.553-5.276M364.65 162.177l-4.85 2.147M358.397 151.851l-4.291 3.119M439.577 120.07l.552 5.277M385.355 235.415l4.292-3.119M451.95 266.72l-.553-5.276M512.424 161.702l-4.852 2.147M506.17 151.376l-4.29 3.119M587.35 119.596l.553 5.275M533.129 234.94l4.291-3.119M599.722 266.245l-.552-5.276M660.198 161.227l-4.852 2.147M653.945 150.901l-4.292 3.118M735.124 119.12l.552 5.276M680.901 234.464l4.292-3.119M747.495 265.77l-.552-5.277M807.971 160.751l-4.851 2.147M801.718 150.425l-4.291 3.12M291.194 113.79l.452 1.437M225.24 159.717l1.468.33M232.036 239.796l1.017-1.105M304.786 273.95l-.452-1.436M370.812 159.342l-1.468.331M363.942 147.945l-1.016 1.105M438.966 113.316l.453 1.435M379.81 239.321l1.016-1.106M452.559 273.475l-.453-1.435M518.585 158.866l-1.468.331M511.716 147.47l-1.016 1.106M586.74 112.841l.453 1.435M527.584 238.845l1.016-1.105M600.332 273l-.452-1.435M666.359 158.391l-1.468.332M659.49 146.995l-1.016 1.106M734.513 112.365l.453 1.436M675.357 238.37l1.016-1.105M748.106 272.524l-.453-1.434M814.132 157.916l-1.467.32M807.262 146.52l-1.016 1.106M291.642 115.227l.53 5.826M226.708 160.046l5.314 2.45M233.056 238.69l4.778-3.378M304.338 272.514l-.53-5.826M369.344 159.668l-5.32 2.438M362.924 149.05l-4.78 3.379M439.415 114.75l.53 5.828M380.83 238.215l4.778-3.378M452.112 272.04l-.53-5.827M517.117 159.193l-5.32 2.438M510.697 148.576l-4.779 3.377M587.188 114.276l.53 5.828M528.602 237.74l4.78-3.377M599.884 271.565l-.53-5.828M664.891 158.717l-5.32 2.439M658.47 148.1l-4.778 3.378M734.962 113.8l.53 5.828M676.376 237.265l4.778-3.377M747.658 271.09l-.53-5.828M812.665 158.242l-5.32 2.439M806.244 147.626l-4.779 3.377M292.178 121.053l.684 13.853M232.022 162.496l12.336 6.336M237.834 235.312l11.656-7.515M303.802 266.688l-.684-13.852M364.024 162.106l-12.349 6.31M358.144 152.429l-11.654 7.515M439.95 120.578l.685 13.852M385.608 234.837l11.656-7.515M451.576 266.213l-.685-13.852M511.798 161.631l-12.35 6.31M505.918 151.953l-11.656 7.515M587.724 120.104l.684 13.85M533.382 234.363l11.654-7.516M599.348 265.737l-.684-13.851M659.571 161.156l-12.349 6.31M653.692 151.478l-11.656 7.515M735.497 119.628l.685 13.852M681.154 233.888l11.656-7.516M747.122 265.262l-.685-13.851M807.345 160.68l-12.35 6.311M801.465 151.003l-11.655 7.515M292.872 134.883l.751 39.198M244.346 168.809l34.323 18.947M249.464 227.796l33.57-20.251M303.108 252.858l-.751-39.198M351.687 168.393l-34.364 18.874M346.515 159.945l-33.57 20.251M440.646 134.407l.75 39.2M397.237 227.321l33.57-20.25M450.88 252.383l-.75-39.198M499.46 167.918l-34.363 18.875M494.289 159.47l-33.571 20.25M588.418 133.933l.751 39.198M545.01 226.846l33.57-20.25M598.654 251.908l-.751-39.199M647.234 167.443l-34.364 18.874M642.063 158.994l-33.571 20.251M736.192 133.458l.751 39.197M692.784 226.371l33.57-20.25M746.427 251.433l-.75-39.199M795.007 166.968l-34.363 18.874M789.836 158.52l-33.57 20.25M293.596 174.081l.154.004M278.655 187.781l.11-.133M283.048 207.57l-.11-.132M302.383 213.66l-.154-.003M317.339 187.292l-.11-.133M312.931 180.17l.11.133M441.37 173.605l.154.004M430.821 207.095l-.11-.132M450.157 213.185l-.155-.003M465.112 186.817l-.11-.133M460.705 179.695l.11.143M589.143 173.13l.154.004M578.595 206.62l-.11-.143M597.93 212.71l-.154-.003M612.885 186.342l-.11-.133M608.478 179.22l.11.143M736.917 172.655l.154.004M726.369 206.146l-.11-.144M745.704 212.235l-.155-.003M760.658 185.866l-.11-.133M756.252 178.745l.11.133M293.646 174.081l-.11-6.51M278.681 187.737l-5.676-3.187M283.023 207.526l-5.598 3.322M302.332 213.66l.11 6.51M317.312 187.248l5.683-3.174M312.955 180.215l5.599-3.322M441.42 173.606l-.11-6.509M430.797 207.05l-5.598 3.323M450.106 213.184l.11 6.51M465.086 186.773l5.683-3.175M460.729 179.74l5.598-3.322M589.194 173.131l-.11-6.509M578.57 206.575l-5.597 3.322M597.88 212.709l.11 6.51M612.86 186.298l5.681-3.175M608.503 179.265l5.598-3.322M736.967 172.657l-.11-6.51M726.343 206.1l-5.598 3.322M745.652 212.234l.11 6.51M760.632 185.823l5.683-3.175M756.276 178.79l5.598-3.323M293.57 167.572l-.233-16.858M273.005 184.55l-14.716-8.23M277.425 210.848l-14.485 8.63M302.41 220.17l.233 16.857M322.995 184.074l14.734-8.2M318.554 176.893l14.486-8.63M441.343 167.097l-.232-16.86M425.199 210.373l-14.485 8.63M450.183 219.693l.232 16.86M470.769 183.598l14.733-8.198M466.327 176.418l14.485-8.63M589.115 166.622l-.232-16.86M572.973 209.897l-14.487 8.63M597.957 219.218l.232 16.86M618.541 183.123l14.734-8.198M614.1 175.943l14.486-8.63M736.889 166.147l-.232-16.86M720.745 209.422l-14.485 8.63M745.73 218.743l.232 16.86M766.315 182.648l14.734-8.2M761.874 175.467l14.485-8.63M293.338 150.714l-.11-14.19M258.289 176.32l-12.338-7.01M262.94 219.478l-12.24 7.18M302.64 237.027l.111 14.19M337.729 175.875l12.353-6.983M333.04 168.263l12.238-7.18M441.112 150.238l-.11-14.19M410.714 219.003l-12.24 7.18M450.414 236.553l.11 14.19M485.502 175.4l12.353-6.983M480.812 167.788l12.24-7.18M588.884 149.763l-.11-14.19M558.486 218.527l-12.238 7.18M598.188 236.078l.11 14.19M633.275 174.925l12.354-6.984M628.586 167.314l12.24-7.181M736.658 149.288l-.11-14.19M706.26 218.052l-12.24 7.18M745.961 235.603l.11 14.19M781.049 174.449l12.353-6.983M776.36 166.838l12.24-7.181M293.239 136.523l-.387-10.712M245.95 169.31l-9.47-5.02M250.7 226.658l-9.082 5.691M302.74 251.218l.386 10.712M350.082 168.892l9.482-5M345.278 161.083l9.084-5.691M441.013 136.047l-.387-10.71M398.474 226.184l-9.083 5.69M450.514 250.743l.386 10.711M497.855 168.417l9.481-5M493.052 160.608l9.084-5.692M588.786 135.573l-.386-10.712M546.248 225.708l-9.084 5.692M598.287 250.268l.387 10.711M645.629 167.94l9.48-4.999M640.826 160.133l9.082-5.692M736.56 135.098l-.387-10.712M694.02 225.233l-9.082 5.692M746.06 249.793l.387 10.711M793.402 167.466l9.481-5M788.6 159.657l9.082-5.691M292.851 125.811l-.475-7.965M236.48 164.29l-7.135-3.572M241.618 232.35l-6.662 4.393M303.128 261.93l.474 7.965M359.564 163.891l7.142-3.557M354.362 155.392l6.661-4.393M440.625 125.336l-.475-7.965M389.39 231.874l-6.66 4.393M450.901 261.454l.475 7.966M507.336 163.416l7.143-3.557M502.136 154.916l6.66-4.392M588.399 124.861l-.475-7.966M537.164 231.4l-6.661 4.392M598.675 260.98l.475 7.964M655.11 162.941l7.142-3.557M649.908 154.44l6.662-4.391M736.172 124.386l-.475-7.966M684.938 230.925l-6.662 4.392M746.447 260.504l.475 7.965M802.883 162.466l7.142-3.558M797.682 153.966l6.661-4.392M292.379 117.846l-.2-2.38M229.345 160.718l-2.163-1.016M234.956 236.743l-1.96 1.366M303.601 269.895l.2 2.38M366.706 160.334l2.164-1.005M361.024 150.999l1.96-1.367M440.152 117.371l-.199-2.38M382.73 236.267l-1.96 1.366M451.374 269.42l.199 2.38M514.48 159.859l2.164-1.005M508.796 150.524l1.96-1.366M587.925 116.895l-.199-2.38M530.503 235.792l-1.96 1.366M599.147 268.944l.2 2.381M662.252 159.384l2.165-1.005M656.57 150.049l1.96-1.366M735.698 116.42l-.198-2.38M678.276 235.317l-1.96 1.366M746.921 268.47l.199 2.38M810.025 158.908l2.166-1.005M804.343 149.574l1.96-1.366M292.175 115.465l-.287-1.204M227.182 159.703l-1.185-.353M232.996 238.109l-.905.85M303.803 272.276l.288 1.204M368.87 159.324l1.186-.353M362.984 149.632l.905-.85M439.95 114.99l-.288-1.203M380.77 237.633l-.906.85M451.577 271.8l.287 1.205M516.644 158.848l1.186-.353M510.756 149.158l.906-.85M587.723 114.515l-.287-1.203M528.542 237.158l-.905.85M599.35 271.325l.288 1.204M664.417 158.374l1.185-.354M658.53 148.683l.905-.85M735.496 114.04l-.287-1.204M676.316 236.683l-.906.85M747.124 270.85l.287 1.204M812.19 157.899l1.186-.354M806.304 148.208l.905-.85M291.892 114.261l-.288-.651M225.997 159.348l-.707-.11M232.095 238.956l-.409.574M304.087 273.48l.287.651M370.056 158.971l.707-.11M363.884 148.785l.42-.574M439.665 113.787l-.287-.652M379.869 238.48l-.42.575M451.86 273.005l.288.64M517.83 158.495l.707-.11M511.657 148.31l.42-.575M587.438 113.312l-.287-.652M527.642 238.006l-.42.574M599.634 272.529l.288.651M665.602 158.02l.707-.11M659.431 147.834l.42-.574M735.211 112.836l-.287-.64M675.416 237.531l-.42.574M747.408 272.054l.287.652M813.376 157.545l.707-.11M807.204 147.36l.42-.575M291.88 113.354l.354.519M225.206 158.903h.618M231.314 239.42l.265-.564M304.098 274.387l-.353-.519M370.85 158.528h-.62M364.665 148.322l-.265.563M439.654 112.879l.354.508M379.088 238.945l.265-.564M451.872 273.913l-.353-.52M518.622 158.052h-.619M512.438 147.847l-.276.563M587.428 112.404l.353.508M526.861 238.47l.277-.563M599.646 273.437l-.354-.508M666.395 157.577h-.618M660.212 147.37l-.265.564M735.2 111.928l.354.519M674.635 237.994l.265-.563M747.42 272.962l-.354-.508M814.169 157.102h-.619M807.984 146.896l-.276.563M292.23 113.868l.254 1.109M225.825 158.857l1.094.332M231.585 238.86l.828-.773M303.75 273.873l-.255-1.109M370.229 158.48l-1.094.332M364.394 148.881l-.828.774M440.003 113.392l.254 1.11M379.358 238.385l.829-.773M451.523 273.398l-.254-1.109M518.002 158.006l-1.093.331M512.168 148.405l-.829.774M587.777 112.917l.254 1.11M527.132 237.91l.828-.773M599.297 272.923l-.254-1.11M665.776 157.53l-1.094.332M659.941 147.93l-.828.774M735.55 112.442l.254 1.11M674.906 237.435l.828-.773M747.07 272.448l-.254-1.11M813.55 157.056l-1.094.331M807.714 147.456l-.828.773M292.487 114.977l.22 1.61M226.914 159.19l1.502.618M232.417 238.083l1.286-.994M303.492 272.764l-.22-1.61M369.14 158.81l-1.505.62M363.561 149.658l-1.285.994M440.26 114.502l.221 1.61M380.191 237.607l1.286-.994M451.266 272.29l-.221-1.611M516.912 158.336l-1.503.618M511.335 149.183l-1.286.994M588.033 114.027l.22 1.61M527.964 237.132l1.286-.994M599.04 271.813l-.222-1.609M664.686 157.86l-1.503.619M659.109 148.708l-1.286.994M735.807 113.551l.22 1.61M675.737 236.657l1.287-.993M746.813 271.338l-.221-1.609M812.46 157.385l-1.504.619M806.882 148.233l-1.285.994M292.703 116.587l.597 13.43M228.416 159.807l11.932 6.198M233.703 237.09l11.333-7.233M303.276 271.154l-.597-13.43M367.635 159.425l-11.943 6.172M362.276 150.65l-11.333 7.234M440.477 116.111l.596 13.432M381.477 236.615l11.333-7.233M451.05 270.679l-.597-13.431M515.409 158.95l-11.944 6.172M510.05 150.176l-11.334 7.233M588.25 115.636l.596 13.432M529.25 236.14l11.332-7.233M598.823 270.204l-.597-13.431M663.183 158.475l-11.945 6.171M657.823 149.7l-11.333 7.233M736.023 115.161l.596 13.432M677.024 235.665l11.332-7.234M746.596 269.73 746 256.297M810.956 158l-11.945 6.172M805.597 149.225l-11.333 7.234M293.3 130.018l.244 11.52M240.348 166.005l10.096 5.554M245.036 229.857l9.858-5.966M302.678 257.724l-.243-11.521M355.692 165.597l-10.109 5.533M350.943 157.884l-9.858 5.966M441.074 129.543l.243 11.52M392.81 229.382l9.857-5.967M450.452 257.248l-.243-11.52M503.465 165.122l-10.108 5.532M498.716 157.41l-9.857 5.965M588.848 129.068l.243 11.52M540.582 228.907l9.859-5.967M598.224 256.773l-.232-11.521M651.238 164.646l-10.108 5.533M646.49 156.933l-9.858 5.967M736.622 128.593l.232 11.52M688.356 228.43l9.859-5.965M745.998 256.298l-.243-11.521M799.011 164.172l-10.107 5.533M794.264 156.459l-9.858 5.967M293.54 141.538v14.664M250.444 171.559l12.715 7.303M254.894 223.89l12.682-7.36M302.44 246.203v-14.664M345.583 171.13l-12.731 7.276M341.085 163.85l-12.683 7.36M441.313 141.064v14.663M402.667 223.415l12.683-7.36M450.213 245.728v-14.664M493.357 170.654l-12.731 7.277M488.859 163.375l-12.683 7.361M589.087 140.589v14.662M550.441 222.94l12.683-7.36M597.987 245.252v-14.663M641.13 170.18l-12.73 7.276M636.632 162.9l-12.682 7.361M736.86 140.113v14.664M698.215 222.465l12.682-7.36M745.76 244.777v-14.664M788.904 169.705l-12.731 7.275M784.406 162.426l-12.683 7.36M293.572 156.202l.11 12.824M263.159 178.862l11.148 6.34M267.577 216.53l11.064-6.483M302.406 231.539l-.11-12.824M332.852 178.406l-11.16 6.317M328.402 171.21l-11.064 6.484M441.346 155.727l.11 12.823M415.35 216.055l11.065-6.484M450.18 231.064l-.11-12.824M480.626 177.931l-11.16 6.317M476.176 170.736l-11.065 6.483M589.12 155.251l.11 12.825M563.124 215.58l11.064-6.483M597.954 230.589l-.11-12.824M628.4 177.456l-11.162 6.316M623.95 170.261l-11.065 6.483M736.892 154.777l.11 12.824M710.897 215.104l11.064-6.482M745.727 230.113l-.11-12.823M776.173 176.98l-11.161 6.317M771.723 169.785l-11.065 6.484M293.654 169.026v5.056M274.307 185.202l4.387 2.512M278.641 210.047l4.37-2.545M302.325 218.715v-5.056M321.692 184.723l-4.394 2.501M317.338 177.694l-4.37 2.545M441.428 168.55v5.057M426.415 209.571l4.369-2.544M450.098 218.24v-5.056M469.466 184.248l-4.395 2.501M465.111 177.219l-4.369 2.545M589.201 168.076v5.055M574.188 209.097l4.37-2.546M597.872 217.765v-5.056M617.238 183.772l-4.393 2.503M612.885 176.744l-4.37 2.545M736.975 167.6v5.057M721.961 208.622l4.369-2.546M745.644 217.29v-5.057M765.012 183.297l-4.393 2.502M760.658 176.269l-4.368 2.544M293.7 174.082v-4.77M278.708 187.692l-4.122-2.4M282.998 207.48l-4.14 2.37M302.28 213.659v4.77M317.285 187.202l4.128-2.39M312.982 180.261l4.14-2.37M441.473 173.607v-4.77M430.772 207.004l-4.14 2.37M450.053 213.183v4.77M465.058 186.727l4.128-2.39M460.754 179.786l4.14-2.37M589.247 173.132v-4.77M578.544 206.529l-4.139 2.37M597.827 212.708v4.77M612.832 186.253l4.127-2.391M608.528 179.312l4.14-2.37M737.02 172.658v-4.771M726.318 206.054l-4.14 2.37M745.6 212.233v4.77M760.605 185.778l4.127-2.392M756.302 178.837l4.14-2.371M293.717 169.312v-4.203M274.586 185.292l-3.641-2.1M278.858 209.85l-3.64 2.103M302.262 218.429l.003 4.203M321.413 184.811l3.645-2.093M317.121 177.891l3.64-2.102M441.49 168.838v-4.204M426.631 209.375l-3.64 2.103M450.035 217.954l.001 4.203M469.186 184.336l3.645-2.092M464.895 177.416l3.639-2.102M589.264 168.363l-.004-4.205M574.405 208.899l-3.64 2.103M597.809 217.478v4.204M616.959 183.862l3.645-2.093M612.668 176.941l3.64-2.102M737.037 167.887v-4.204M722.179 208.424l-3.64 2.103M745.583 217.003v4.203M764.732 183.386l3.646-2.093M760.442 176.466l3.639-2.103M293.716 165.11v-7.438M270.945 183.191l-6.42-3.752M275.219 211.953l-6.46 3.683M302.264 222.632v7.437M325.058 182.719l6.428-3.74M320.761 175.789l6.46-3.684M441.49 164.634v-7.437M422.991 211.478l-6.46 3.683M450.036 222.157v7.436M472.83 182.244l6.43-3.74M468.534 175.314l6.46-3.683M589.262 164.158v-7.435M570.765 211.002l-6.46 3.684M597.81 221.682v7.436M620.604 181.769l6.429-3.74M616.307 174.839l6.46-3.684M737.036 163.683v-7.435M718.539 210.527l-6.461 3.683M745.584 221.206v7.437M768.378 181.293l6.428-3.74M764.08 174.363l6.462-3.683M293.756 157.672V137.01M264.525 179.439l-17.895-10.332M268.758 215.636l-17.894 10.332M302.223 230.069l.001 20.663M331.486 178.98l17.917-10.294M327.22 172.105l17.895-10.332M441.53 157.197l-.001-20.663M416.532 215.16l-17.894 10.333M449.997 229.593v20.663M479.26 178.504l17.916-10.293M474.994 171.63l17.895-10.332M589.303 156.723V136.06M564.305 214.686l-17.894 10.331M597.77 229.118v20.663M627.033 178.03l17.916-10.293M622.768 171.155l17.894-10.332M737.077 156.248l-.001-20.663M712.078 214.21l-17.894 10.332M745.544 228.643v20.663M774.806 177.553l17.917-10.291M770.542 170.68l17.894-10.333M293.756 137.01l-.265-11.41M246.63 169.107l-10.015-5.473M250.864 225.968l-9.747 5.936M302.224 250.732l.265 11.409M349.403 168.686l10.026-5.452M345.115 161.773l9.748-5.936M441.528 136.534l-.265-11.409M398.638 225.493l-9.749 5.936M449.998 250.256l.265 11.41M497.176 168.211l10.026-5.452M492.889 161.298l9.747-5.936M589.302 136.06l-.265-11.41M546.411 225.017l-9.748 5.937M597.77 249.78l.265 11.411M644.95 167.737l10.026-5.453M640.662 160.823l9.747-5.937M737.076 135.585l-.266-11.41M694.184 224.542l-9.748 5.936M745.544 249.306l.265 11.41M792.723 167.262l10.027-5.453M788.436 160.347l9.747-5.936M293.489 125.6l-.299-9.355M236.615 163.634l-8.248-4.423M241.117 231.904l-7.955 4.932M302.491 262.141l.299 9.355M359.429 163.234l8.258-4.405M354.863 155.837l7.955-4.932M441.261 125.125l-.298-9.355M388.89 231.43l-7.955 4.932M450.265 261.666l.298 9.355M507.202 162.76l8.259-4.406M502.636 155.362l7.955-4.932M589.035 124.65l-.299-9.355M536.663 230.954l-7.955 4.932M598.038 261.191l.298 9.354M654.976 162.284l8.259-4.405M650.41 154.886l7.954-4.931M736.808 124.174l-.298-9.355M684.436 230.478l-7.954 4.933M745.811 260.715l.298 9.355M802.75 161.81l8.257-4.406M798.183 154.411l7.955-4.932M293.195 116.245l-.243-1.296M228.367 159.21l-1.244-.441M233.162 236.836l-1.005.862M302.785 271.496l.243 1.296M367.687 158.829l1.244-.431M362.818 150.905l1.005-.862M440.967 115.77l-.243-1.295M380.935 236.362l-1.005.86M450.559 271.021l.243 1.296M515.46 158.354l1.244-.431M510.59 150.43l1.006-.862M588.74 115.295l-.242-1.295M528.708 235.886l-1.005.86M598.331 270.545l.243 1.296M663.235 157.879l1.243-.43M658.364 149.955l1.005-.862M736.515 114.82l-.243-1.296M676.482 235.41l-1.005.862M746.105 270.07l.243 1.296M811.007 157.404l1.245-.43M806.138 149.479l1.005-.862M292.952 114.95l-.32-.928M227.123 158.772l-.96-.187M232.161 237.693l-.651.74M303.027 272.792l.32.927M368.93 158.393l.962-.187M363.819 150.048l.651-.74M440.725 114.475l-.32-.928M379.934 237.219l-.652.74M450.8 272.317l.32.927M516.704 157.919l.961-.188M511.592 149.573l.652-.74M588.499 114l-.32-.928M527.707 236.744l-.651.74M598.574 271.84l.31.928M664.478 157.444l.96-.188M659.365 149.097l.651-.74M736.273 113.524l-.32-.928M675.481 236.268l-.652.74M746.347 271.366l.32.928M812.252 156.968l.96-.188M807.138 148.622l.652-.74M292.637 114.018l-.232-.43M226.159 158.58h-.486M231.512 238.432l-.265.409M303.343 273.723l.232.43M369.896 158.203h.486M364.467 149.309l.265-.409M440.41 113.544l-.221-.431M379.286 237.957l-.266.409M451.117 273.248l.22.43M517.67 157.729h.486M512.24 148.833l.255-.409M588.183 113.068l-.22-.431M527.06 237.482l-.255.41M598.889 272.773l.232.43M665.442 157.253h.486M660.014 148.358l.265-.409M735.957 112.593l-.232-.431M674.833 237.008l-.265.408M746.663 272.297l.232.43M813.216 156.778h.486M807.788 147.883l.254-.409M292.41 113.588l-.254-.265M225.673 158.561l-.353.11M231.252 238.844l-.11.354M303.57 274.153l.253.265M370.382 158.186l.353.11M364.726 148.897l.111-.354M440.183 113.113l-.254-.265M379.026 238.37l-.11.353M451.343 273.678l.254.265M518.156 157.711l.353.11M512.5 148.42l.11-.352M587.957 112.637l-.254-.265M526.8 237.894l-.11.354M599.117 273.204l.254.265M665.93 157.235l.353.11M660.274 147.946l.11-.353M735.73 112.162l-.255-.265M674.573 237.42l-.11.353M746.89 272.728l.254.265M813.703 156.76l.353.11M808.046 147.471l.11-.353M292.07 112.563l.651.718M224.615 158.344l.95-.21M230.536 239.651l.298-.927M303.91 275.177l-.651-.718M371.44 157.97l-.95-.21M365.443 148.09l-.298.927M439.843 112.088l.652.718M378.31 239.177l.297-.917M451.683 274.702l-.652-.718M519.214 157.496l-.95-.21M513.217 147.615l-.298.916M587.616 111.613l.651.718M526.083 238.7l.298-.916M599.457 274.227l-.652-.718M666.987 157.02l-.95-.21M660.99 147.14l-.298.916M735.39 111.138l.65.718M673.856 238.226l.299-.917M747.23 273.752l-.651-.717M814.76 156.545l-.95-.21M808.764 146.664l-.298.917M292.721 113.28l.486 1.049M225.56 158.138l1.152.11M230.83 238.73l.663-.94M303.259 274.461l-.486-1.049M370.495 157.763l-1.151.11M365.15 149.012l-.674.938M440.493 112.804l.486 1.049M378.603 238.254l.663-.938M451.033 273.987l-.486-1.05M518.268 157.287l-1.15.11M512.923 148.537l-.663.939M588.267 112.329l.486 1.049M526.377 237.78l.662-.95M598.805 273.512l-.486-1.05M666.042 156.812l-1.152.11M660.696 148.06l-.674.94M736.04 111.854l.487 1.049M674.15 237.304l.674-.94M746.579 273.037l-.486-1.05M813.816 156.337l-1.152.11M808.47 147.586l-.663.939M293.204 114.33l.22 1.239M226.712 158.245l1.184.431M231.499 237.786l.96-.806M302.776 273.411l-.22-1.239M369.344 157.867l-1.185.42M364.481 149.955l-.96.806M440.977 113.854l.221 1.24M379.271 237.311l.961-.817M450.549 272.936l-.221-1.239M517.117 157.392l-1.186.43M512.255 149.48l-.96.817M588.75 113.379l.22 1.24M527.045 236.835l.96-.806M598.322 272.461l-.22-1.239M664.89 156.917l-1.185.43M660.027 149.004l-.96.817M736.523 112.904l.221 1.24M674.818 236.36l.961-.817M746.096 271.987l-.22-1.24M812.664 156.442l-1.185.42M807.801 148.53l-.96.816M293.426 115.569l.11.872M227.896 158.673l.784.386M232.46 236.974l.718-.485M302.554 272.172l-.11-.872M368.159 158.292l-.784.386M363.518 150.767l-.718.486M441.198 115.094l.11.873M380.234 236.5l.718-.486M450.328 271.697l-.11-.872M515.931 157.817l-.784.375M511.292 150.292l-.718.486M588.972 114.618l.11.873M528.008 236.024l.718-.486M598.1 271.222l-.11-.872M663.705 157.342l-.784.387M659.066 149.817l-.718.486M736.745 114.143l.11.873M675.781 235.549l.718-.486M745.874 270.746l-.11-.872M811.479 156.866l-.784.387M806.84 149.34l-.719.487M292.47 112.37l.586.806M224.648 157.9l.994-.11M230.168 239.4l.408-.916M303.51 275.371l-.586-.806M371.408 157.527l-.994-.11M365.811 148.34l-.409.917M440.244 111.895l.585.806M377.941 238.926l.41-.917M451.282 274.895l-.585-.806M519.182 157.052l-.994-.11M513.585 147.865l-.409.917M588.016 111.42l.586.806M525.715 238.451l.409-.917M599.056 274.42l-.586-.806M666.955 156.577l-.994-.11M661.358 147.39l-.408.916M735.79 110.945l.585.806M673.488 237.975l.408-.917M746.83 273.946l-.586-.806M814.728 156.1l-.994-.11M809.132 146.915l-.409.916M293.057 113.18l.408 1.015M225.642 157.797l1.082.155M230.575 238.489l.674-.862M302.923 274.562l-.408-1.016M370.414 157.422l-1.082.154M365.403 149.253l-.673.86M440.83 112.704l.408 1.016M378.349 238.014l.674-.862M450.696 274.087l-.398-1.016M518.188 156.946l-1.083.154M513.177 148.778l-.674.861M588.603 112.228l.408 1.016M526.123 237.539l.673-.862M598.47 273.612l-.41-1.016M665.961 156.47l-1.082.155M660.95 148.302l-.673.861M736.376 111.753l.41 1.016M673.895 237.063l.674-.862M746.243 273.136l-.409-1.016M813.735 155.996l-1.082.154M808.724 147.827l-.673.861M293.46 114.194l.22 1.408M226.722 157.955l1.333.508M231.252 237.632l1.108-.906M302.519 273.547l-.22-1.408M369.334 157.576l-1.334.508M364.728 150.11l-1.108.894M441.233 113.718l.221 1.41M379.025 237.157l1.108-.906M450.293 273.072l-.221-1.409M517.106 157.101l-1.334.508M512.5 149.635l-1.106.894M589.007 113.243l.22 1.41M526.798 236.682l1.108-.895M598.066 272.597l-.22-1.409M664.88 156.626l-1.334.508M660.274 149.159l-1.108.894M736.78 112.768l.222 1.41M674.572 236.206l1.108-.895M745.839 272.122l-.221-1.409M812.654 156.15l-1.334.508M808.047 148.684l-1.107.905M293.686 115.602l.11 1.438M228.055 158.464l1.278.663M232.36 236.731l1.212-.773M302.294 272.139l-.11-1.438M368 158.083l-1.279.663M363.62 151.01l-1.212.773M441.459 115.127l.11 1.438M380.133 236.257l1.212-.773M450.067 271.663l-.11-1.437M515.772 157.608l-1.278.663M511.394 150.534l-1.213.773M589.232 114.652l.11 1.437M527.906 235.782l1.212-.773M597.84 271.188l-.11-1.437M663.546 157.132l-1.279.663M659.166 150.059l-1.211.773M737.006 114.177l.11 1.437M675.68 235.307l1.211-.773M745.613 270.713l-.11-1.438M811.32 156.657l-1.28.663M806.94 149.584l-1.212.773M292.454 111.51l.707 1.152M223.895 157.485h1.352M229.431 239.845l.64-1.188M303.525 276.232l-.707-1.153M372.162 157.112h-1.351M366.549 147.896l-.652 1.188M440.227 111.034l.707 1.153M377.205 239.37l.64-1.187M451.299 275.756l-.707-1.152M519.936 156.637h-1.352M514.321 147.42l-.64 1.189M588.001 110.56l.707 1.152M524.977 238.895l.652-1.188M599.072 275.28l-.706-1.152M667.708 156.162h-1.35M662.095 146.945l-.64 1.189M735.773 110.085l.707 1.151M672.751 238.42l.64-1.188M746.846 274.806l-.707-1.153M815.482 155.687h-1.35M809.868 146.47l-.64 1.188M293.16 112.662l.574 1.128M225.247 157.45l1.262.11M230.076 238.657l.685-1.06M302.82 275.079l-.575-1.128M370.81 157.075l-1.262.11M365.903 149.084l-.685 1.06M440.933 112.187l.574 1.128M377.85 238.183l.685-1.06M450.593 274.604l-.574-1.128M518.584 156.599l-1.262.11M513.676 148.609l-.684 1.06M588.707 111.712l.574 1.127M525.623 237.707l.685-1.06M598.367 274.128l-.575-1.127M666.358 156.124l-1.264.11M661.45 148.134l-.685 1.06M736.48 111.236l.575 1.128M673.396 237.232l.685-1.06M746.14 273.653l-.574-1.128M814.131 155.65l-1.263.11M809.223 147.658l-.684 1.06M293.733 113.79l.276 1.286M226.51 157.517l1.255.397M230.766 237.597l.972-.883M302.246 273.951l-.276-1.286M369.548 157.139l-1.257.397M365.214 150.144l-.972.883M441.506 113.315l.276 1.287M378.539 237.122l.972-.883M450.02 273.476l-.287-1.286M517.322 156.664l-1.257.398M512.987 149.668l-.972.883M589.28 112.839l.287 1.288M526.313 236.648l.971-.884M597.793 273.001l-.276-1.287M665.094 156.19l-1.255.397M660.76 149.193l-.972.883M737.052 112.364l.287 1.287M674.086 236.173l.972-.884M745.567 272.525l-.276-1.286M812.868 155.713l-1.256.398M808.533 148.718l-.972.884M294.014 115.076l.11 1.083M227.765 157.916l.983.464M231.74 236.71l.894-.618M301.965 272.665l-.11-1.083M368.291 157.535l-.982.464M364.24 151.03l-.895.619M441.788 114.602l.11 1.082M379.513 236.234l.895-.607M449.738 272.19l-.11-1.083M516.065 157.06l-.983.464M512.013 150.556l-.894.607M589.561 114.127l.11 1.082M527.287 235.76l.894-.608M597.512 271.714l-.11-1.083M663.839 156.586l-.983.463M659.787 150.08l-.895.608M737.335 113.65l.11 1.083M675.06 235.285l.895-.619M745.285 271.239l-.11-1.082M811.612 156.11l-.983.465M807.56 149.606l-.894.607M294.1 116.156v1.06M228.742 158.384l.906.54M232.633 236.096l.928-.519M301.88 271.585v-1.06M367.313 158l-.906.541M363.346 151.645l-.928.519M441.873 115.682v1.06M380.406 235.622l.928-.52M449.653 271.109v-1.06M515.087 157.525l-.906.542M511.12 151.169l-.928.519M589.645 115.207v1.06M528.18 235.147l.928-.52M597.427 270.634v-1.06M662.86 157.05l-.916.542M658.893 150.694l-.927.519M737.419 114.732v1.06M675.953 234.67l.927-.507M745.2 270.159v-1.06M810.633 156.576l-.906.54M806.667 150.219l-.928.519M293.006 111.315l.453.674M224.002 156.91l.806-.111M228.986 239.465l.354-.73M302.974 276.426l-.453-.674M372.056 156.537l-.806-.11M366.993 148.276l-.354.73M440.78 110.84l.452.674M376.76 238.99l.353-.729M450.747 275.951l-.453-.673M519.83 156.061l-.806-.11M514.766 147.801l-.353.73M588.552 110.365l.453.674M524.533 238.514l.354-.729M598.52 275.475l-.453-.673M667.602 155.586l-.806-.11M662.54 147.326l-.354.73M736.326 109.89l.452.673M672.307 238.04l.353-.73M746.294 275l-.453-.673M815.376 155.111l-.806-.11M810.314 146.85l-.354.73M293.46 111.986l.508 1.156M224.81 156.85l1.255.133M229.34 238.735l.752-1.016M302.519 275.755l-.508-1.156M371.248 156.476l-1.255.133M366.64 149.006l-.752 1.016M441.233 111.51l.508 1.157M377.113 238.26l.751-1.016M450.293 275.28l-.508-1.155M519.021 156.001l-1.254.133M514.413 148.53l-.751 1.016M589.007 111.035l.508 1.156M524.887 237.785l.75-1.016M598.066 274.805l-.508-1.155M666.794 155.526l-1.255.133M662.185 148.055l-.75 1.016M736.78 110.56l.509 1.156M672.66 237.31l.751-1.016M745.839 274.33l-.508-1.156M814.568 155.052l-1.255.132M809.959 147.58l-.751 1.017M293.968 113.142l.287 1.005M226.065 156.989l1.016.254M230.087 237.719l.73-.751M302.012 274.6l-.287-1.005M369.993 156.612l-1.016.254M365.892 150.022l-.73.751M441.741 112.667l.288 1.005M377.86 237.243l.73-.751M449.785 274.125l-.288-1.005M517.767 156.137l-1.016.254M513.665 149.547l-.729.751M589.514 112.19l.287 1.006M525.634 236.768l.73-.751M597.558 273.65l-.287-1.005M665.54 155.662l-1.017.254M661.439 149.073l-.73.75M737.288 111.716l.287 1.005M673.407 236.293l.729-.751M745.332 273.174l-.287-1.005M813.313 155.187l-1.016.243M809.212 148.598l-.728.75M294.258 114.147l.265 1.484M227.081 157.24l1.417.518M230.812 236.963l1.154-.971M301.72 273.595l-.264-1.485M368.976 156.86l-1.418.509M365.167 150.778l-1.154.972M442.032 113.672l.265 1.484M378.585 236.489l1.154-.972M449.494 273.12l-.265-1.485M516.75 156.386l-1.418.508M512.94 150.303l-1.153.972M589.806 113.197l.265 1.483M526.359 236.014l1.154-.972M597.268 272.644l-.265-1.484M664.523 155.91l-1.418.509M660.714 149.827l-1.154.972M737.58 112.72l.264 1.485M674.133 235.538l1.154-.972M745.04 272.169l-.265-1.485M812.297 155.435l-1.418.508M808.487 149.352l-1.153.972M294.522 115.63v1.269M228.498 157.754l1.112.607M231.966 235.994l1.082-.663M301.458 272.11v-1.268M367.558 157.372l-1.113.607M364.013 151.747l-1.082.663M442.295 115.156v1.268M379.74 235.519l1.082-.663M449.231 271.635v-1.269M515.332 156.897l-1.113.607M511.787 151.272l-1.083.663M590.068 114.68v1.269M527.513 235.043l1.082-.663M597.004 271.16v-1.268M663.105 156.422l-1.113.608M659.56 150.798l-1.082.662M737.842 114.205v1.269M675.287 234.568l1.082-.663M744.777 270.684v-1.267M810.879 155.946l-1.114.608M807.334 150.322l-1.082.662M293.484 116.437v3.244M228.677 159.056l2.834 1.58M233.183 236.49l2.785-1.665M302.496 271.304v-3.244M367.377 158.673l-2.837 1.575M362.796 151.251l-2.785 1.665M441.258 115.961v3.245M380.956 236.015l2.786-1.665M450.268 270.83v-3.246M515.15 158.198l-2.837 1.575M510.57 150.777l-2.786 1.664M589.03 115.486v3.245M528.73 235.54l2.785-1.664M598.042 270.354v-3.244M662.924 157.723l-2.838 1.575M658.343 150.3l-2.785 1.665M736.804 115.011v3.245M676.503 235.064l2.786-1.664M745.816 269.88v-3.245M810.697 157.248l-2.837 1.574M806.117 149.826l-2.786 1.664M293.751 117.04v4.078M229.333 159.126l3.554 2M233.572 235.956l3.51-2.077M302.228 270.701v-4.078M366.721 158.741l-3.558 1.995M362.408 151.785l-3.51 2.077M441.525 116.565v4.079M381.345 235.481l3.51-2.077M450.001 270.226v-4.078M514.494 158.266l-3.559 1.995M510.18 151.31l-3.509 2.076M589.299 116.09v4.078M529.118 235.006l3.51-2.077M597.775 269.751v-4.078M662.267 157.792l-3.558 1.993M657.955 150.834l-3.51 2.077M737.071 115.614v4.079M676.891 234.53l3.511-2.077M745.548 269.275v-4.078M810.04 157.317l-3.558 1.993M805.728 150.36l-3.51 2.076M294.08 117.218v4.764M229.652 158.93l4.1 2.425M233.562 235.582l4.151-2.338M301.9 270.523v-4.764M366.402 158.546l-4.106 2.416M362.417 152.16l-4.15 2.337M441.854 116.743v4.764M381.335 235.107l4.15-2.338M449.672 270.047v-4.764M514.175 158.071l-4.106 2.416M510.19 151.683l-4.15 2.34M589.627 116.268v4.764M529.109 234.632l4.15-2.339M597.446 269.572v-4.764M661.95 157.595l-4.107 2.417M657.964 151.208l-4.15 2.34M737.4 115.793v4.764M676.881 234.157l4.152-2.339M745.22 269.097v-4.764M809.723 157.12l-4.106 2.418M805.738 150.733l-4.151 2.338M294.548 116.797l-.122 5.12M229.52 158.315l4.373 2.666M232.963 235.389l4.495-2.454M301.431 270.944l.122-5.12M366.534 157.93l-4.377 2.658M363.016 152.353l-4.495 2.453M442.321 116.322l-.121 5.12M380.737 234.913l4.494-2.453M449.205 270.47l.121-5.12M514.308 157.456l-4.378 2.657M510.79 151.878l-4.495 2.454M590.095 115.847l-.122 5.12M528.51 234.438l4.495-2.453M596.978 269.993l.122-5.119M662.08 156.98l-4.377 2.657M658.563 151.403l-4.496 2.453M737.867 115.371l-.121 5.12M676.283 233.963l4.496-2.454M744.752 269.518l.122-5.12M809.854 156.505l-4.378 2.657M806.337 150.928l-4.496 2.453M293.532 119.68l.21 6.957M231.51 160.636l6.131 3.295M235.968 234.825l5.92-3.66M302.447 268.06l-.21-6.956M364.54 160.248l-6.137 3.282M360.01 152.916l-5.918 3.66M441.305 119.206l.21 6.956M383.742 234.35l5.918-3.66M450.22 267.584l-.209-6.956M512.313 159.773l-6.137 3.282M507.784 152.44l-5.918 3.662M589.079 118.73l.21 6.957M531.515 233.876l5.919-3.661M597.993 267.11l-.21-6.957M660.086 159.298l-6.137 3.281M655.558 151.965l-5.92 3.66M736.852 118.256l.21 6.956M679.289 233.4l5.918-3.661M745.767 266.635l-.21-6.957M807.86 158.822l-6.137 3.282M803.33 151.49l-5.918 3.661M293.796 121.118l.11 6.06M232.887 161.127l5.302 2.939M237.081 233.879l5.195-3.122M302.184 266.623l-.11-6.06M363.163 160.736l-5.308 2.926M358.898 153.862l-5.195 3.122M441.568 120.644l.11 6.06M384.855 233.404l5.195-3.122M449.958 266.148l-.11-6.061M510.935 160.261l-5.306 2.927M506.671 153.386l-5.195 3.122M589.342 120.168l.11 6.06M532.629 232.93l5.195-3.123M597.73 265.673l-.11-6.061M658.709 159.785l-5.308 2.928M654.445 152.911l-5.195 3.122M737.115 119.693l.11 6.06M680.402 232.453l5.195-3.12M745.504 265.197l-.11-6.06M806.482 159.31l-5.307 2.927M802.217 152.436l-5.195 3.123M294.03 121.982v5.343M233.753 161.355l4.647 2.637M237.713 233.244l4.606-2.707M301.95 265.759v-5.343M362.296 160.962l-4.653 2.626M358.267 154.497l-4.606 2.707M441.803 121.507v5.343M385.485 232.769l4.608-2.707M449.723 265.283v-5.342M510.07 160.487l-4.653 2.627M506.04 154.022l-4.607 2.706M589.577 121.032v5.342M533.26 232.293l4.605-2.706M597.496 264.808v-5.342M657.843 160.012l-4.653 2.627M653.813 153.547l-4.606 2.706M737.35 120.557v5.342M681.033 231.818l4.606-2.706M745.269 264.333v-5.343M805.617 159.538l-4.653 2.626M801.587 153.071l-4.607 2.707M294.425 121.917l-.11 5.374M233.893 160.981l4.607 2.77M237.458 232.935l4.702-2.606M301.555 265.824l.11-5.374M362.157 160.588l-4.613 2.76M358.521 154.806l-4.702 2.606M442.198 121.442l-.11 5.374M385.231 232.46l4.703-2.606M449.329 265.35l.11-5.376M509.93 160.113l-4.613 2.759M506.295 154.332l-4.703 2.604M589.971 120.966l-.11 5.375M533.005 231.985l4.701-2.605M597.101 264.874l.11-5.375M657.703 159.637l-4.612 2.76M654.067 153.856l-4.701 2.605M737.745 120.491l-.11 5.375M680.779 231.509l4.701-2.604M744.875 264.398l.11-5.374M805.476 159.162l-4.613 2.76M801.84 153.38l-4.7 2.606M293.744 126.637l.11 6.855M237.641 163.93l5.985 3.345M241.888 231.164l5.887-3.51M302.235 261.104l-.11-6.855M358.403 163.53l-5.993 3.33M354.092 156.577l-5.887 3.51M441.517 126.162l.11 6.855M389.66 230.69l5.889-3.513M450.009 260.628l-.11-6.854M506.176 163.055l-5.992 3.33M501.866 156.102l-5.889 3.51M589.29 125.687l.11 6.854M537.434 230.215l5.887-3.512M597.782 260.153l-.11-6.854M653.949 162.58l-5.991 3.33M649.639 155.626l-5.888 3.512M737.063 125.212l.11 6.854M685.207 229.739l5.888-3.511M745.556 259.678l-.11-6.855M801.723 162.104l-5.992 3.331M797.412 155.151l-5.887 3.512M293.902 127.178l.11 7.896M238.189 164.066l6.896 3.847M242.276 230.757l6.781-4.048M302.078 260.563l-.121-7.896M357.855 163.662l-6.905 3.834M353.703 156.984l-6.781 4.048M441.675 126.703l.11 7.897M390.05 230.282l6.78-4.048M449.85 260.087l-.11-7.895M505.629 163.188l-6.905 3.833M501.476 156.508l-6.78 4.049M589.448 126.228l.11 7.897M537.824 229.807l6.78-4.048M597.625 259.612l-.111-7.896M653.401 162.713l-6.903 3.833M649.25 156.033l-6.781 4.048M737.221 125.754l.11 7.895M685.597 229.332l6.781-4.049M745.398 259.137l-.11-7.896M801.175 162.237l-6.904 3.834M797.022 155.559l-6.78 4.047M294.07 127.325l.111 7.844M238.4 163.992l6.847 3.828M242.32 230.537l6.738-4.016M301.908 260.416l-.11-7.844M357.643 163.588l-6.855 3.815M353.66 157.204l-6.74 4.016M441.844 126.85l.11 7.845M390.093 230.062l6.739-4.015M449.682 259.941l-.11-7.844M505.417 163.114l-6.855 3.813M501.433 156.728l-6.739 4.017M589.617 126.374l.11 7.845M537.865 229.587l6.74-4.016M597.456 259.466l-.11-7.844M653.19 162.639l-6.856 3.813M649.207 156.253l-6.74 4.016M737.39 125.9l.11 7.844M685.64 229.112l6.738-4.016M745.23 258.99l-.111-7.844M800.964 162.164l-6.856 3.813M796.98 155.778l-6.739 4.016M294.33 127.29v8.042M238.5 163.75l6.976 3.999M242.16 230.33l6.951-4.042M301.65 260.45v-8.04M357.544 163.348l-6.984 3.983M353.819 157.412l-6.95 4.04M442.103 126.816v8.04M389.934 229.855l6.95-4.043M449.422 259.974v-8.04M505.317 162.872l-6.984 3.983M501.592 156.936l-6.95 4.042M589.876 126.341v8.04M537.706 229.38l6.951-4.042M597.196 259.5v-8.04M653.09 162.397l-6.983 3.983M649.366 156.46l-6.951 4.043M737.65 125.866v8.04M685.48 228.905l6.951-4.042M744.97 259.024v-8.04M800.863 161.922l-6.984 3.983M797.14 155.986l-6.952 4.042M293.84 133.492l.111 10.464M243.626 167.275l9.098 5.17M247.775 227.653l9.027-5.293M302.14 254.25l-.111-10.465M352.41 166.86l-9.107 5.153M348.205 160.088l-9.028 5.293M441.614 133.017l.11 10.464M395.549 227.177l9.027-5.292M449.912 253.774l-.11-10.465M500.184 166.385l-9.109 5.152M495.977 159.613l-9.027 5.293M589.387 132.541l.11 10.465M543.321 226.703l9.028-5.294M597.685 253.3l-.11-10.466M647.958 165.91l-9.11 5.152M643.751 159.138l-9.027 5.293M737.16 132.066l.111 10.465M691.095 226.228l9.027-5.294M745.459 252.823l-.11-10.464M795.731 165.435l-9.109 5.152M791.525 158.663l-9.027 5.292M294.016 135.074v9.356M245.085 167.913l8.116 4.653M249.057 226.71l8.088-4.704M301.962 252.667v-9.356M350.95 167.496l-8.126 4.635M346.922 161.032l-8.088 4.703M441.79 134.6v9.355M396.83 226.234l8.088-4.703M449.736 252.192v-9.356M498.724 167.02l-8.126 4.636M494.695 160.557l-8.087 4.702M589.564 134.125v9.355M544.604 225.76l8.088-4.704M597.51 251.716v-9.356M646.498 166.546l-8.127 4.635M642.469 160.081l-8.087 4.704M737.336 133.649v9.355M692.378 225.283l8.086-4.702M745.283 251.24v-9.354M794.271 166.071l-8.127 4.634M790.243 159.606l-8.088 4.704M294.179 135.17v8.948M245.247 167.82l7.758 4.461M249.058 226.521l7.743-4.488M301.8 252.572v-8.95M350.788 167.403l-7.768 4.444M346.92 161.22l-7.741 4.488M441.952 134.695v8.948M396.832 226.047l7.742-4.49M449.574 252.097v-8.95M498.562 166.927l-7.768 4.445M494.694 160.745l-7.743 4.488M589.726 134.219v8.95M544.606 225.57l7.741-4.488M597.347 251.622v-8.95M646.334 166.452l-7.767 4.444M642.468 160.269l-7.743 4.489M737.499 133.744v8.95M692.378 225.096l7.743-4.488M745.12 251.146v-8.949M794.108 165.977l-7.768 4.444M790.241 159.794l-7.742 4.49M294.354 135.332l-.243 20.985M245.476 167.749l18.052 10.706M249.111 226.288l18.297-10.28M301.624 252.41l.243-20.986M350.56 167.331l-18.075 10.666M346.869 161.453l-18.298 10.28M442.128 134.856l-.243 20.986M396.884 225.812l18.297-10.28M449.398 251.934l.243-20.986M498.333 166.855l-18.075 10.667M494.642 160.978l-18.297 10.28M589.902 134.381l-.243 20.986M544.657 225.338l18.298-10.281M597.172 251.46l.243-20.987M646.107 166.38l-18.076 10.668M642.415 160.503l-18.296 10.28M737.675 133.906l-.243 20.987M692.431 224.863l18.297-10.281M744.945 250.985l.243-20.987M793.88 165.905l-18.075 10.668M790.188 160.028l-18.297 10.28M293.91 143.956l-.187 30.127M252.724 172.446l25.993 15.23M256.802 222.36l26.187-14.897M302.068 243.785l.188-30.127M343.303 172.013l-26.027 15.174M339.177 165.38l-26.186 14.898M441.684 143.481l-.188 30.127M404.576 221.885l26.186-14.897M449.842 243.31l.188-30.127M491.075 171.537l-26.027 15.175M486.95 164.906l-26.186 14.897M589.458 143.006l-.188 30.126M552.35 221.41l26.185-14.898M597.616 242.834l.187-30.126M638.849 171.062l-26.027 15.174M634.724 164.431l-26.187 14.897M737.231 142.531l-.187 30.127M700.122 220.934l26.187-14.897M745.39 242.36l.187-30.128M786.622 170.587l-26.027 15.174M782.498 163.955l-26.188 14.897M294.046 144.43l-.309 29.653M253.2 172.566l25.527 15.093M257.145 222.006l25.834-14.56M301.934 243.311l.309-29.653M342.824 172.13l-25.558 15.04M338.834 165.735 313 180.295M441.82 143.955l-.31 29.653M404.918 221.53l25.835-14.558M449.706 242.836l.31-29.653M490.598 171.656l-25.559 15.04M486.608 165.26l-25.835 14.56M589.592 143.48l-.309 29.654M552.692 221.056l25.834-14.56M597.48 242.36l.31-29.653M638.37 171.181l-25.558 15.04M634.382 164.785l-25.835 14.56M737.366 143.004l-.31 29.654M700.464 220.581l25.836-14.56M745.253 241.886l.31-29.654M786.144 170.705l-25.558 15.04M782.155 164.31l-25.836 14.559M294.194 144.118l-.43 29.346M253.005 172.281l25.2 15.045M256.801 222.033l25.628-14.301M301.785 243.623l.43-29.346M343.02 171.847l-25.232 14.99M339.179 165.708l-25.63 14.301M441.968 143.643l-.43 29.346M404.574 221.557l25.629-14.3M449.558 243.147l.43-29.346M490.794 171.372l-25.232 14.991M486.951 165.233l-25.628 14.3M589.741 143.168l-.43 29.346M552.347 221.082l25.63-14.3M597.33 242.672l.431-29.346M638.567 170.896l-25.232 14.991M634.725 164.758l-25.628 14.3M737.515 142.694l-.43 29.345M700.12 220.608l25.63-14.301M745.104 242.197l.431-29.346M786.34 170.421l-25.231 14.991M782.499 164.283l-25.629 14.3M157.537 193.32h-18.316M157.442 194.49h-18.22M227.76 315.744v21.506M228.929 315.744v21.506M371.192 72.342V39.954M810.37 70.571V38.53M518.964 71.868V39.479M666.738 71.393V39.005M372.36 72.342V39.954M811.54 70.571V38.53M520.134 71.868V39.479M667.907 71.393V39.005M305.785 192.724a1.14 1.14 0 1 0 1.136 1.978M453.558 192.25a1.14 1.14 0 1 0 1.137 1.977M601.332 191.773a1.141 1.141 0 1 0 1.136 1.98M749.104 191.298a1.141 1.141 0 1 0 1.138 1.98M305.312 193.248h-.828M453.086 192.772h-.829M600.858 192.297h-.828M748.632 191.822h-.829M305.454 194.416h-.971M453.228 193.941h-.972M601 193.465h-.971M748.774 192.99h-.972M295.819 190.11a5.274 5.274 0 0 0 4.341 0M443.592 189.635a5.274 5.274 0 0 0 4.342 0M591.366 189.16a5.274 5.274 0 0 0 4.341 0M739.139 188.685a5.274 5.274 0 0 0 4.342 0M300.16 190.11a5.274 5.274 0 0 0 2.171 3.76M447.934 189.635a5.274 5.274 0 0 0 2.17 3.76M595.707 189.16a5.274 5.274 0 0 0 2.172 3.76" style="fill:none;stroke:#fff;stroke-width:.5;stroke-linecap:round;stroke-miterlimit:4;stroke-dasharray:none;stroke-opacity:1" transform="translate(-92.322 64.789)"/><path d="M743.48 188.685a5.274 5.274 0 0 0 2.171 3.76M302.331 193.87a5.274 5.274 0 0 0-2.17 3.76M450.105 193.396a5.274 5.274 0 0 0-2.171 3.759M597.879 192.92a5.274 5.274 0 0 0-2.172 3.76M745.651 192.445a5.274 5.274 0 0 0-2.17 3.76M300.16 197.63a5.274 5.274 0 0 0-4.341 0M447.934 197.155a5.274 5.274 0 0 0-4.342 0M595.707 196.68a5.274 5.274 0 0 0-4.341 0M743.48 196.205a5.274 5.274 0 0 0-4.342 0M295.819 197.63a5.274 5.274 0 0 0-2.171-3.76M443.592 197.155a5.274 5.274 0 0 0-2.17-3.76M591.366 196.68a5.274 5.274 0 0 0-2.171-3.76" style="fill:none;stroke:#fff;stroke-width:.5;stroke-linecap:round;stroke-miterlimit:4;stroke-dasharray:none;stroke-opacity:1" transform="translate(-92.322 64.789)"/><path d="M739.139 196.205a5.274 5.274 0 0 0-2.17-3.76M293.648 193.87a5.274 5.274 0 0 0 2.17-3.76M441.421 193.396a5.274 5.274 0 0 0 2.171-3.76M589.195 192.92a5.274 5.274 0 0 0 2.171-3.76M736.968 192.445a5.274 5.274 0 0 0 2.17-3.76M368.595 72.342h2.597M372.36 72.342h2.428M516.369 71.868h2.595M520.134 71.868h2.428M664.142 71.393h2.596M667.907 71.393h2.429M368.82 73.512h6.306M516.593 73.036h6.307M664.367 72.561h6.307M879.918 193.177a1.14 1.14 0 0 0 1.26-1.903M881.544 191.67h27.087M881.51 192.838h27.12M368.797 313.95h6.142M516.57 313.475h6.142M664.343 313h6.143M368.891 315.12h2.515M372.574 315.12h2.755M516.665 314.643h2.514M520.348 314.643h2.753M664.438 314.168h2.514M668.121 314.168h2.754M293.135 198.22v2.32M293.135 203.174V337.25M440.909 197.745v2.32M440.909 202.699v134.076M588.682 197.27v2.319M588.682 202.224V336.3M736.456 196.795v2.32M736.456 201.75v134.074M302.844 198.22v1.686M302.844 279.208v58.042M450.617 197.745v1.686M450.617 278.733v58.042M598.391 197.27v1.686M598.391 278.257V336.3M746.165 196.795v1.686M746.165 277.782v58.042M293.135 337.25h9.709M440.909 336.775h9.708M588.682 336.3h9.709M736.456 335.824h9.709M955.589 335.884v-136.86M955.589 199.023v-13.036M957.302 199.023v-13.036M955.589 187.775h-5.479M950.11 187.775v148.11M950.11 335.884h5.479M957.302 185.987h-1.713M957.302 199.023h-1.713M957.798 195.797h-.497M957.798 189.213h-.497M957.798 195.797v-6.584M958.842 196.597v6.823M958.842 196.176v-16.029M958.842 203.42h-1.54M957.302 203.42v-4.397M958.842 190.335h-1.049M958.842 180.147h-1.54M957.302 180.147v5.84M958.842 196.176h-1.54M958.842 198.332h-1.54M957.302 199.023h1.54M958.842 197.136h-1.54M958.842 196.597h-1.54M958.842 195.712h-1.049M958.842 194.72h-1.049M958.842 194.18h-1.049M958.842 75.069v-1.544M958.842 73.525v-2.932M957.302 75.069V48.015M957.302 314.534v21.35M958.072 73.525h.773M958.072 73.525h-.773M958.842 75.069h-.298M957.604 75.069h-.298M958.842 70.593h-1.54M957.302 72.106h-1.526M957.302 313.021h-1.526M955.776 72.106V48.015M955.776 313.021v22.863M958.842 74.554h-.298M957.604 74.554h-.298M958.842 73.01h-1.54M959.708 177.944h-3.272M959.708 205.623h-3.272M959.708 75.714h-3.272M959.708 177.944V75.714M959.708 205.623V305.64M956.436 177.944V75.714M956.436 205.623V305.64M958.54 180.147v-2.203M958.54 203.42v2.203M957.604 180.147v-2.203M957.604 203.42v2.203M957.604 75.714v-2.19M958.54 75.714v-2.19M958.54 203.42h-.939M959.708 305.64h-3.272M958.842 308.244h-1.54M958.842 314.534h-1.54M958.54 305.64v2.604M957.604 305.64v2.604M958.842 308.244v6.29M957.302 308.244v6.29M959.242 200.581h-.397M959.242 199.47h-.397M959.242 193.309h-.397M959.242 192.205h-.397M959.242 185.786h-.397M959.242 184.685h-.397M959.242 72.426h-.397M959.242 71.094h-.397M959.242 314.033h-.397M959.242 312.701h-.397M959.242 72.426v-1.332M959.242 185.786v-1.104M959.242 193.309v-1.104M959.242 314.033v-1.332M959.242 200.581v-1.112M955.589 192.972h1.713M955.589 192.038h1.713M955.589 194.375h-4.172M955.589 190.635h-1.481M952.297 190.635h-.884M951.417 194.375v-3.74M951.417 193.673h-.299M951.417 191.337h-.299M951.115 193.673v-2.336M950.811 188.476v147.408M954.888 335.884v-141.51M954.888 188.476h-.784M952.297 188.476h-1.486M954.888 190.635v-2.159M953.503 194.375v141.51M953.036 194.375v141.51M952.802 194.375v141.51M952.567 194.375v141.51M954.108 194.375v-5.899M952.297 194.375v-5.899" style="fill:none;stroke:#fff;stroke-width:.5;stroke-linecap:round;stroke-miterlimit:4;stroke-dasharray:none;stroke-opacity:1" transform="translate(-92.322 64.789)"/></svg>