<?xml version="1.0" encoding="UTF-8" standalone="no"?>
<svg
   width="447.86832pt"
   height="334.64981pt"
   viewBox="0 0 447.86832 334.64981"
   version="1.1"
   id="svg1022"
   sodipodi:docname="class_comp.svg"
   inkscape:version="1.3 (0e150ed6c4, 2023-07-21)"
   inkscape:export-filename="comparison_10foldCV_accuracy_classifiers.pdf"
   inkscape:export-xdpi="400"
   inkscape:export-ydpi="400"
   xmlns:inkscape="http://www.inkscape.org/namespaces/inkscape"
   xmlns:sodipodi="http://sodipodi.sourceforge.net/DTD/sodipodi-0.dtd"
   xmlns="http://www.w3.org/2000/svg"
   xmlns:svg="http://www.w3.org/2000/svg"
   xmlns:rdf="http://www.w3.org/1999/02/22-rdf-syntax-ns#"
   xmlns:cc="http://creativecommons.org/ns#"
   xmlns:dc="http://purl.org/dc/elements/1.1/">
  <sodipodi:namedview
     id="namedview1024"
     pagecolor="#121212"
     bordercolor="#666666"
     borderopacity="1.0"
     inkscape:showpageshadow="2"
     inkscape:pageopacity="0.0"
     inkscape:pagecheckerboard="0"
     inkscape:deskcolor="#d1d1d1"
     inkscape:document-units="pt"
     showgrid="false"
     showguides="true"
     inkscape:zoom="0.93155626"
     inkscape:cx="268.90485"
     inkscape:cy="221.13533"
     inkscape:window-width="1920"
     inkscape:window-height="1043"
     inkscape:window-x="0"
     inkscape:window-y="0"
     inkscape:window-maximized="1"
     inkscape:current-layer="svg1022" />
  <metadata
     id="metadata2">
    <rdf:RDF>
      <cc:Work>
        <dc:type
           rdf:resource="http://purl.org/dc/dcmitype/StillImage" />
        <dc:date>2023-05-02T15:42:02.638167</dc:date>
        <dc:format>image/svg+xml</dc:format>
        <dc:creator>
          <cc:Agent>
            <dc:title>Matplotlib v3.6.3, https://matplotlib.org/</dc:title>
          </cc:Agent>
        </dc:creator>
      </cc:Work>
    </rdf:RDF>
  </metadata>
  <defs
     id="defs6">
    <rect
       x="903.46893"
       y="97.072662"
       width="238.4837"
       height="45.431919"
       id="rect2431" />
    <style
       type="text/css"
       id="style4">*{stroke-linejoin: round; stroke-linecap: butt}</style>
    <rect
       x="903.46893"
       y="97.072662"
       width="238.4837"
       height="45.431919"
       id="rect2431-3" />
    <rect
       x="903.46893"
       y="97.072662"
       width="238.4837"
       height="45.431919"
       id="rect2431-7" />
    <rect
       x="903.46893"
       y="97.072662"
       width="238.4837"
       height="45.431919"
       id="rect2431-35" />
    <rect
       x="903.46893"
       y="97.072662"
       width="238.4837"
       height="45.431919"
       id="rect2431-9" />
    <rect
       x="903.46893"
       y="97.072662"
       width="238.4837"
       height="45.431919"
       id="rect2431-2" />
    <rect
       x="903.46893"
       y="97.072662"
       width="238.4837"
       height="45.431919"
       id="rect2431-0" />
    <rect
       x="903.46893"
       y="97.072662"
       width="238.4837"
       height="45.431919"
       id="rect2431-0-3" />
    <clipPath
       id="p4b27010d5b-2">
      <rect
         x="90"
         y="51.84"
         width="558"
         height="332.64001"
         id="rect1017-0" />
    </clipPath>
    <clipPath
       id="clipPath4578">
      <rect
         x="90"
         y="51.84"
         width="558"
         height="332.64001"
         id="rect4576" />
    </clipPath>
    <clipPath
       id="clipPath4582">
      <rect
         x="90"
         y="51.84"
         width="558"
         height="332.64001"
         id="rect4580" />
    </clipPath>
    <clipPath
       id="clipPath4586">
      <rect
         x="90"
         y="51.84"
         width="558"
         height="332.64001"
         id="rect4584" />
    </clipPath>
    <clipPath
       id="clipPath4590">
      <rect
         x="90"
         y="51.84"
         width="558"
         height="332.64001"
         id="rect4588" />
    </clipPath>
    <clipPath
       id="clipPath4594">
      <rect
         x="90"
         y="51.84"
         width="558"
         height="332.64001"
         id="rect4592" />
    </clipPath>
    <clipPath
       id="clipPath4598">
      <rect
         x="90"
         y="51.84"
         width="558"
         height="332.64001"
         id="rect4596" />
    </clipPath>
    <clipPath
       id="clipPath4602">
      <rect
         x="90"
         y="51.84"
         width="558"
         height="332.64001"
         id="rect4600" />
    </clipPath>
    <clipPath
       id="clipPath4606">
      <rect
         x="90"
         y="51.84"
         width="558"
         height="332.64001"
         id="rect4604" />
    </clipPath>
    <clipPath
       id="clipPath4610">
      <rect
         x="90"
         y="51.84"
         width="558"
         height="332.64001"
         id="rect4608" />
    </clipPath>
    <clipPath
       id="clipPath4614">
      <rect
         x="90"
         y="51.84"
         width="558"
         height="332.64001"
         id="rect4612" />
    </clipPath>
    <clipPath
       id="clipPath4618">
      <rect
         x="90"
         y="51.84"
         width="558"
         height="332.64001"
         id="rect4616" />
    </clipPath>
    <clipPath
       id="clipPath4622">
      <rect
         x="90"
         y="51.84"
         width="558"
         height="332.64001"
         id="rect4620" />
    </clipPath>
    <clipPath
       id="clipPath4626">
      <rect
         x="90"
         y="51.84"
         width="558"
         height="332.64001"
         id="rect4624" />
    </clipPath>
    <clipPath
       id="clipPath4630">
      <rect
         x="90"
         y="51.84"
         width="558"
         height="332.64001"
         id="rect4628" />
    </clipPath>
    <clipPath
       id="clipPath4634">
      <rect
         x="90"
         y="51.84"
         width="558"
         height="332.64001"
         id="rect4632" />
    </clipPath>
    <clipPath
       id="clipPath4638">
      <rect
         x="90"
         y="51.84"
         width="558"
         height="332.64001"
         id="rect4636" />
    </clipPath>
    <clipPath
       id="clipPath4642">
      <rect
         x="90"
         y="51.84"
         width="558"
         height="332.64001"
         id="rect4640" />
    </clipPath>
    <clipPath
       id="clipPath4646">
      <rect
         x="90"
         y="51.84"
         width="558"
         height="332.64001"
         id="rect4644" />
    </clipPath>
    <clipPath
       id="clipPath4650">
      <rect
         x="90"
         y="51.84"
         width="558"
         height="332.64001"
         id="rect4648" />
    </clipPath>
    <clipPath
       id="clipPath4654">
      <rect
         x="90"
         y="51.84"
         width="558"
         height="332.64001"
         id="rect4652" />
    </clipPath>
    <clipPath
       id="clipPath4658">
      <rect
         x="90"
         y="51.84"
         width="558"
         height="332.64001"
         id="rect4656" />
    </clipPath>
    <clipPath
       id="clipPath4662">
      <rect
         x="90"
         y="51.84"
         width="558"
         height="332.64001"
         id="rect4660" />
    </clipPath>
    <clipPath
       id="clipPath4666">
      <rect
         x="90"
         y="51.84"
         width="558"
         height="332.64001"
         id="rect4664" />
    </clipPath>
    <clipPath
       id="clipPath4670">
      <rect
         x="90"
         y="51.84"
         width="558"
         height="332.64001"
         id="rect4668" />
    </clipPath>
    <clipPath
       id="clipPath4674">
      <rect
         x="90"
         y="51.84"
         width="558"
         height="332.64001"
         id="rect4672" />
    </clipPath>
    <clipPath
       id="clipPath4678">
      <rect
         x="90"
         y="51.84"
         width="558"
         height="332.64001"
         id="rect4676" />
    </clipPath>
    <clipPath
       id="clipPath4682">
      <rect
         x="90"
         y="51.84"
         width="558"
         height="332.64001"
         id="rect4680" />
    </clipPath>
    <clipPath
       id="clipPath4686">
      <rect
         x="90"
         y="51.84"
         width="558"
         height="332.64001"
         id="rect4684" />
    </clipPath>
    <clipPath
       id="clipPath4690">
      <rect
         x="90"
         y="51.84"
         width="558"
         height="332.64001"
         id="rect4688" />
    </clipPath>
    <clipPath
       id="clipPath4694">
      <rect
         x="90"
         y="51.84"
         width="558"
         height="332.64001"
         id="rect4692" />
    </clipPath>
    <clipPath
       id="clipPath4698">
      <rect
         x="90"
         y="51.84"
         width="558"
         height="332.64001"
         id="rect4696" />
    </clipPath>
    <clipPath
       id="clipPath4702">
      <rect
         x="90"
         y="51.84"
         width="558"
         height="332.64001"
         id="rect4700" />
    </clipPath>
    <clipPath
       id="clipPath4706">
      <rect
         x="90"
         y="51.84"
         width="558"
         height="332.64001"
         id="rect4704" />
    </clipPath>
    <clipPath
       id="clipPath4710">
      <rect
         x="90"
         y="51.84"
         width="558"
         height="332.64001"
         id="rect4708" />
    </clipPath>
    <clipPath
       id="clipPath4714">
      <rect
         x="90"
         y="51.84"
         width="558"
         height="332.64001"
         id="rect4712" />
    </clipPath>
    <clipPath
       id="clipPath4718">
      <rect
         x="90"
         y="51.84"
         width="558"
         height="332.64001"
         id="rect4716" />
    </clipPath>
    <clipPath
       id="clipPath4722">
      <rect
         x="90"
         y="51.84"
         width="558"
         height="332.64001"
         id="rect4720" />
    </clipPath>
    <clipPath
       id="clipPath4726">
      <rect
         x="90"
         y="51.84"
         width="558"
         height="332.64001"
         id="rect4724" />
    </clipPath>
    <clipPath
       id="clipPath4730">
      <rect
         x="90"
         y="51.84"
         width="558"
         height="332.64001"
         id="rect4728" />
    </clipPath>
    <clipPath
       id="clipPath4734">
      <rect
         x="90"
         y="51.84"
         width="558"
         height="332.64001"
         id="rect4732" />
    </clipPath>
    <clipPath
       id="clipPath4738">
      <rect
         x="90"
         y="51.84"
         width="558"
         height="332.64001"
         id="rect4736" />
    </clipPath>
    <clipPath
       id="clipPath4742">
      <rect
         x="90"
         y="51.84"
         width="558"
         height="332.64001"
         id="rect4740" />
    </clipPath>
    <clipPath
       id="clipPath4746">
      <rect
         x="90"
         y="51.84"
         width="558"
         height="332.64001"
         id="rect4744" />
    </clipPath>
    <clipPath
       id="clipPath4750">
      <rect
         x="90"
         y="51.84"
         width="558"
         height="332.64001"
         id="rect4748" />
    </clipPath>
    <clipPath
       id="clipPath4754">
      <rect
         x="90"
         y="51.84"
         width="558"
         height="332.64001"
         id="rect4752" />
    </clipPath>
    <clipPath
       id="clipPath4758">
      <rect
         x="90"
         y="51.84"
         width="558"
         height="332.64001"
         id="rect4756" />
    </clipPath>
    <clipPath
       id="clipPath4762">
      <rect
         x="90"
         y="51.84"
         width="558"
         height="332.64001"
         id="rect4760" />
    </clipPath>
    <clipPath
       id="clipPath4766">
      <rect
         x="90"
         y="51.84"
         width="558"
         height="332.64001"
         id="rect4764" />
    </clipPath>
    <clipPath
       id="clipPath4770">
      <rect
         x="90"
         y="51.84"
         width="558"
         height="332.64001"
         id="rect4768" />
    </clipPath>
    <clipPath
       id="clipPath4774">
      <rect
         x="90"
         y="51.84"
         width="558"
         height="332.64001"
         id="rect4772" />
    </clipPath>
    <clipPath
       id="clipPath4778">
      <rect
         x="90"
         y="51.84"
         width="558"
         height="332.64001"
         id="rect4776" />
    </clipPath>
    <clipPath
       id="clipPath4782">
      <rect
         x="90"
         y="51.84"
         width="558"
         height="332.64001"
         id="rect4780" />
    </clipPath>
    <clipPath
       id="clipPath4786">
      <rect
         x="90"
         y="51.84"
         width="558"
         height="332.64001"
         id="rect4784" />
    </clipPath>
    <clipPath
       id="clipPath4790">
      <rect
         x="90"
         y="51.84"
         width="558"
         height="332.64001"
         id="rect4788" />
    </clipPath>
    <clipPath
       id="clipPath4794">
      <rect
         x="90"
         y="51.84"
         width="558"
         height="332.64001"
         id="rect4792" />
    </clipPath>
    <clipPath
       id="clipPath4798">
      <rect
         x="90"
         y="51.84"
         width="558"
         height="332.64001"
         id="rect4796" />
    </clipPath>
    <clipPath
       id="clipPath4802">
      <rect
         x="90"
         y="51.84"
         width="558"
         height="332.64001"
         id="rect4800" />
    </clipPath>
    <clipPath
       id="clipPath4806">
      <rect
         x="90"
         y="51.84"
         width="558"
         height="332.64001"
         id="rect4804" />
    </clipPath>
    <path
       id="m43731210ed-9"
       d="M 0,0 H -3.5"
       style="stroke:#000000;stroke-width:0.8" />
    <path
       id="DejaVuSans-30-9"
       d="m 2034,4250 q -487,0 -733,-480 -245,-479 -245,-1442 0,-959 245,-1439 246,-480 733,-480 491,0 736,480 246,480 246,1439 0,963 -246,1442 -245,480 -736,480 z m 0,500 q 785,0 1199,-621 414,-620 414,-1801 0,-1178 -414,-1799 -414,-620 -1199,-620 -784,0 -1198,620 -414,621 -414,1799 0,1181 414,1801 414,621 1198,621 z"
       transform="scale(0.015625)" />
    <path
       id="DejaVuSans-2e-3"
       d="m 684,794 h 660 V 0 H 684 Z"
       transform="scale(0.015625)" />
    <path
       id="DejaVuSans-35-1"
       d="M 691,4666 H 3169 V 4134 H 1269 V 2991 q 137,47 274,70 138,23 276,23 781,0 1237,-428 457,-428 457,-1159 Q 3513,744 3044,326 2575,-91 1722,-91 1428,-91 1123,-41 819,9 494,109 v 635 q 281,-153 581,-228 300,-75 634,-75 541,0 856,284 316,284 316,772 0,487 -316,771 -315,285 -856,285 -253,0 -505,-56 -251,-56 -513,-175 z"
       transform="scale(0.015625)" />
    <path
       id="DejaVuSans-36-3"
       d="m 2113,2584 q -425,0 -674,-291 -248,-290 -248,-796 0,-503 248,-796 249,-292 674,-292 425,0 673,292 248,293 248,796 0,506 -248,796 -248,291 -673,291 z m 1253,1979 v -575 q -238,112 -480,171 -242,60 -480,60 -625,0 -955,-422 -329,-422 -376,-1275 184,272 462,417 279,145 613,145 703,0 1111,-427 408,-426 408,-1160 0,-719 -425,-1154 -425,-434 -1131,-434 -810,0 -1238,620 -428,621 -428,1799 0,1106 525,1764 525,658 1409,658 238,0 480,-47 242,-47 505,-140 z"
       transform="scale(0.015625)" />
    <path
       id="DejaVuSans-37-9"
       d="M 525,4666 H 3525 V 4397 L 1831,0 H 1172 L 2766,4134 H 525 Z"
       transform="scale(0.015625)" />
    <path
       id="DejaVuSans-38-0"
       d="m 2034,2216 q -450,0 -708,-241 -257,-241 -257,-662 0,-422 257,-663 258,-241 708,-241 450,0 709,242 260,243 260,662 0,421 -258,662 -257,241 -711,241 z m -631,268 q -406,100 -633,378 -226,279 -226,679 0,559 398,884 399,325 1092,325 697,0 1094,-325 397,-325 397,-884 0,-400 -227,-679 -226,-278 -629,-378 456,-106 710,-416 255,-309 255,-755 Q 3634,634 3220,271 2806,-91 2034,-91 1263,-91 848,271 434,634 434,1313 q 0,446 256,755 257,310 713,416 z m -231,997 q 0,-362 226,-565 227,-203 636,-203 407,0 636,203 230,203 230,565 0,363 -230,566 -229,203 -636,203 -409,0 -636,-203 -226,-203 -226,-566 z"
       transform="scale(0.015625)" />
    <path
       id="DejaVuSans-41-8"
       d="M 2188,4044 1331,1722 h 1716 z m -357,622 h 716 L 4325,0 H 3669 L 3244,1197 H 1141 L 716,0 H 50 Z"
       transform="scale(0.015625)" />
    <path
       id="DejaVuSans-79-1"
       d="m 2059,-325 q -243,-625 -475,-815 -231,-191 -618,-191 H 506 v 481 h 338 q 237,0 368,113 132,112 291,531 L 1606,56 191,3500 H 800 L 1894,763 2988,3500 h 609 z"
       transform="scale(0.015625)" />
    <path
       id="mbfd4c8936d-4"
       d="M 0,3 C 0.795609,3 1.55874,2.683901 2.12132,2.12132 2.683901,1.55874 3,0.795609 3,0 3,-0.795609 2.683901,-1.55874 2.12132,-2.12132 1.55874,-2.683901 0.795609,-3 0,-3 -0.795609,-3 -1.55874,-2.683901 -2.12132,-2.12132 -2.683901,-1.55874 -3,-0.795609 -3,0 -3,0.795609 -2.683901,1.55874 -2.12132,2.12132 -1.55874,2.683901 -0.795609,3 0,3 Z"
       style="stroke:#000000" />
    <defs
       id="defs716">
      <path
         id="mbfd4c8936d"
         d="M 0,3 C 0.795609,3 1.55874,2.683901 2.12132,2.12132 2.683901,1.55874 3,0.795609 3,0 3,-0.795609 2.683901,-1.55874 2.12132,-2.12132 1.55874,-2.683901 0.795609,-3 0,-3 -0.795609,-3 -1.55874,-2.683901 -2.12132,-2.12132 -2.683901,-1.55874 -3,-0.795609 -3,0 -3,0.795609 -2.683901,1.55874 -2.12132,2.12132 -1.55874,2.683901 -0.795609,3 0,3 Z"
         style="stroke:#000000" />
    </defs>
    <clipPath
       clipPathUnits="userSpaceOnUse"
       id="clipPath1">
      <g
         id="g2"
         transform="translate(177,48)">
        <rect
           x="-87"
           y="3.8400002"
           width="558"
           height="332.64001"
           id="rect2" />
      </g>
    </clipPath>
    <clipPath
       clipPathUnits="userSpaceOnUse"
       id="clipPath2">
      <g
         id="g3"
         transform="translate(177,48)">
        <rect
           x="-87"
           y="3.8400002"
           width="558"
           height="332.64001"
           id="rect3" />
      </g>
    </clipPath>
    <clipPath
       clipPathUnits="userSpaceOnUse"
       id="clipPath4">
      <g
         id="g5"
         transform="translate(70.5,48)">
        <rect
           x="19.5"
           y="3.8400002"
           width="558"
           height="332.64001"
           id="rect5" />
      </g>
    </clipPath>
    <clipPath
       clipPathUnits="userSpaceOnUse"
       id="clipPath6">
      <g
         id="g7"
         transform="translate(48,48)">
        <rect
           x="42"
           y="3.8400002"
           width="558"
           height="332.64001"
           id="rect7" />
      </g>
    </clipPath>
    <defs
       id="defs503">
      <path
         id="m43731210ed"
         d="M 0,0 H -3.5"
         style="stroke:#000000;stroke-width:0.8" />
    </defs>
  </defs>
  <path
     id="rect1"
     style="opacity:0.187239;fill:#ffffff;stroke-width:1.27889;stroke-linecap:round;stroke-miterlimit:10"
     d="m 399.84872,0 h 48.0196 v 334.64981 h -48.0196 z" />
  <path
     d="M 90,379.40955 H 483.12287"
     clip-path="url(#p4b27010d5b)"
     style="fill:none;stroke:#b0b0b0;stroke-width:0.8;stroke-linecap:square;stroke-dasharray:1.60000003,3.20000005;stroke-dashoffset:0;stroke-opacity:1"
     id="path499"
     sodipodi:nodetypes="cc"
     transform="matrix(0.99019278,0,0,1,-30.606755,-58.314983)" />
  <g
     transform="matrix(0.1,0,0,-0.1,29.244971,324.89379)"
     id="g523">
    <defs
       id="defs513">
      <path
         id="DejaVuSans-30"
         d="m 2034,4250 q -487,0 -733,-480 -245,-479 -245,-1442 0,-959 245,-1439 246,-480 733,-480 491,0 736,480 246,480 246,1439 0,963 -246,1442 -245,480 -736,480 z m 0,500 q 785,0 1199,-621 414,-620 414,-1801 0,-1178 -414,-1799 -414,-620 -1199,-620 -784,0 -1198,620 -414,621 -414,1799 0,1181 414,1801 414,621 1198,621 z"
         transform="scale(0.015625)" />
      <path
         id="DejaVuSans-2e"
         d="m 684,794 h 660 V 0 H 684 Z"
         transform="scale(0.015625)" />
      <path
         id="DejaVuSans-35"
         d="M 691,4666 H 3169 V 4134 H 1269 V 2991 q 137,47 274,70 138,23 276,23 781,0 1237,-428 457,-428 457,-1159 Q 3513,744 3044,326 2575,-91 1722,-91 1428,-91 1123,-41 819,9 494,109 v 635 q 281,-153 581,-228 300,-75 634,-75 541,0 856,284 316,284 316,772 0,487 -316,771 -315,285 -856,285 -253,0 -505,-56 -251,-56 -513,-175 z"
         transform="scale(0.015625)" />
    </defs>
    <path
       id="use515"
       d="m 31.78125,66.40625 q -7.609375,0 -11.453125,-7.5 Q 16.5,51.421875 16.5,36.375 q 0,-14.984375 3.828125,-22.484375 3.84375,-7.5 11.453125,-7.5 7.671875,0 11.5,7.5 3.84375,7.5 3.84375,22.484375 0,15.046875 -3.84375,22.53125 -3.828125,7.5 -11.5,7.5 z m 0,7.8125 q 12.265625,0 18.734375,-9.703125 6.46875,-9.6875 6.46875,-28.140625 0,-18.40625 -6.46875,-28.109375 -6.46875,-9.6875 -18.734375,-9.6875 -12.25,0 -18.71875,9.6875 Q 6.59375,17.96875 6.59375,36.375 q 0,18.453125 6.46875,28.140625 6.46875,9.703125 18.71875,9.703125 z"
       style="fill:#e5e5e5;fill-opacity:1;stroke-width:0.015625" />
    <path
       id="use517"
       d="m 74.310547,12.40625 h 10.3125 V 0 h -10.3125 z"
       style="fill:#e5e5e5;fill-opacity:1;stroke-width:0.015625" />
    <path
       id="use519"
       d="m 106.20703,72.90625 h 38.71875 v -8.3125 h -29.6875 V 46.734375 q 2.14063,0.734375 4.28125,1.09375 2.15625,0.359375 4.3125,0.359375 12.20313,0 19.32813,-6.6875 7.14062,-6.6875 7.14062,-18.109375 0,-11.765625 -7.32812,-18.296875 -7.32813,-6.515625 -20.65625,-6.515625 -4.59375,0 -9.35938,0.78125 -4.75,0.78125 -9.82812,2.34375 V 11.625 q 4.39062,-2.390625 9.07812,-3.5625 4.6875,-1.171875 9.90625,-1.171875 8.45313,0 13.375,4.4375 4.9375,4.4375 4.9375,12.0625 0,7.609375 -4.9375,12.046875 -4.92187,4.453125 -13.375,4.453125 -3.95312,0 -7.89062,-0.875 -3.92188,-0.875 -8.01563,-2.734375 z"
       style="fill:#e5e5e5;fill-opacity:1;stroke-width:0.015625" />
    <path
       id="use521"
       d="m 190.81445,66.40625 q -7.60937,0 -11.45312,-7.5 -3.82813,-7.484375 -3.82813,-22.53125 0,-14.984375 3.82813,-22.484375 3.84375,-7.5 11.45312,-7.5 7.67188,0 11.5,7.5 3.84375,7.5 3.84375,22.484375 0,15.046875 -3.84375,22.53125 -3.82812,7.5 -11.5,7.5 z m 0,7.8125 q 12.26563,0 18.73438,-9.703125 6.46875,-9.6875 6.46875,-28.140625 0,-18.40625 -6.46875,-28.109375 -6.46875,-9.6875 -18.73438,-9.6875 -12.25,0 -18.71875,9.6875 -6.46875,9.703125 -6.46875,28.109375 0,18.453125 6.46875,28.140625 6.46875,9.703125 18.71875,9.703125 z"
       style="fill:#e5e5e5;fill-opacity:1;stroke-width:0.015625" />
  </g>
  <path
     d="M 90,335.55698 H 483.0473"
     clip-path="url(#p4b27010d5b)"
     style="fill:none;stroke:#b0b0b0;stroke-width:0.8;stroke-linecap:square;stroke-dasharray:1.60000003,3.20000005;stroke-dashoffset:0;stroke-opacity:1"
     id="path527"
     sodipodi:nodetypes="cc"
     transform="matrix(0.99019278,0,0,1,-30.606755,-58.314983)" />
  <g
     transform="matrix(0.1,0,0,-0.1,29.244971,281.04122)"
     id="g543">
    <path
       id="use535"
       d="m 31.78125,66.40625 q -7.609375,0 -11.453125,-7.5 Q 16.5,51.421875 16.5,36.375 q 0,-14.984375 3.828125,-22.484375 3.84375,-7.5 11.453125,-7.5 7.671875,0 11.5,7.5 3.84375,7.5 3.84375,22.484375 0,15.046875 -3.84375,22.53125 -3.828125,7.5 -11.5,7.5 z m 0,7.8125 q 12.265625,0 18.734375,-9.703125 6.46875,-9.6875 6.46875,-28.140625 0,-18.40625 -6.46875,-28.109375 -6.46875,-9.6875 -18.734375,-9.6875 -12.25,0 -18.71875,9.6875 Q 6.59375,17.96875 6.59375,36.375 q 0,18.453125 6.46875,28.140625 6.46875,9.703125 18.71875,9.703125 z"
       style="fill:#e5e5e5;fill-opacity:1;stroke-width:0.015625" />
    <path
       id="use537"
       d="m 74.310547,12.40625 h 10.3125 V 0 h -10.3125 z"
       style="fill:#e5e5e5;fill-opacity:1;stroke-width:0.015625" />
    <path
       id="use539"
       d="m 106.20703,72.90625 h 38.71875 v -8.3125 h -29.6875 V 46.734375 q 2.14063,0.734375 4.28125,1.09375 2.15625,0.359375 4.3125,0.359375 12.20313,0 19.32813,-6.6875 7.14062,-6.6875 7.14062,-18.109375 0,-11.765625 -7.32812,-18.296875 -7.32813,-6.515625 -20.65625,-6.515625 -4.59375,0 -9.35938,0.78125 -4.75,0.78125 -9.82812,2.34375 V 11.625 q 4.39062,-2.390625 9.07812,-3.5625 4.6875,-1.171875 9.90625,-1.171875 8.45313,0 13.375,4.4375 4.9375,4.4375 4.9375,12.0625 0,7.609375 -4.9375,12.046875 -4.92187,4.453125 -13.375,4.453125 -3.95312,0 -7.89062,-0.875 -3.92188,-0.875 -8.01563,-2.734375 z"
       style="fill:#e5e5e5;fill-opacity:1;stroke-width:0.015625" />
    <path
       id="use541"
       d="m 169.83008,72.90625 h 38.71875 v -8.3125 h -29.6875 V 46.734375 q 2.14062,0.734375 4.28125,1.09375 2.15625,0.359375 4.3125,0.359375 12.20312,0 19.32812,-6.6875 7.14063,-6.6875 7.14063,-18.109375 0,-11.765625 -7.32813,-18.296875 -7.32812,-6.515625 -20.65625,-6.515625 -4.59375,0 -9.35937,0.78125 -4.75,0.78125 -9.82813,2.34375 V 11.625 q 4.39063,-2.390625 9.07813,-3.5625 4.6875,-1.171875 9.90625,-1.171875 8.45312,0 13.375,4.4375 4.9375,4.4375 4.9375,12.0625 0,7.609375 -4.9375,12.046875 -4.92188,4.453125 -13.375,4.453125 -3.95313,0 -7.89063,-0.875 -3.92187,-0.875 -8.01562,-2.734375 z"
       style="fill:#e5e5e5;fill-opacity:1;stroke-width:0.015625" />
  </g>
  <path
     d="M 90,291.70441 H 483.21407"
     clip-path="url(#p4b27010d5b)"
     style="fill:none;stroke:#b0b0b0;stroke-width:0.8;stroke-linecap:square;stroke-dasharray:1.60000003,3.20000005;stroke-dashoffset:0;stroke-opacity:1"
     id="path547"
     sodipodi:nodetypes="cc"
     transform="matrix(0.99019278,0,0,1,-30.606755,-58.314983)" />
  <g
     transform="matrix(0.1,0,0,-0.1,29.244971,237.18865)"
     id="g566">
    <defs
       id="defs556">
      <path
         id="DejaVuSans-36"
         d="m 2113,2584 q -425,0 -674,-291 -248,-290 -248,-796 0,-503 248,-796 249,-292 674,-292 425,0 673,292 248,293 248,796 0,506 -248,796 -248,291 -673,291 z m 1253,1979 v -575 q -238,112 -480,171 -242,60 -480,60 -625,0 -955,-422 -329,-422 -376,-1275 184,272 462,417 279,145 613,145 703,0 1111,-427 408,-426 408,-1160 0,-719 -425,-1154 -425,-434 -1131,-434 -810,0 -1238,620 -428,621 -428,1799 0,1106 525,1764 525,658 1409,658 238,0 480,-47 242,-47 505,-140 z"
         transform="scale(0.015625)" />
    </defs>
    <path
       id="use558"
       d="m 31.78125,66.40625 q -7.609375,0 -11.453125,-7.5 Q 16.5,51.421875 16.5,36.375 q 0,-14.984375 3.828125,-22.484375 3.84375,-7.5 11.453125,-7.5 7.671875,0 11.5,7.5 3.84375,7.5 3.84375,22.484375 0,15.046875 -3.84375,22.53125 -3.828125,7.5 -11.5,7.5 z m 0,7.8125 q 12.265625,0 18.734375,-9.703125 6.46875,-9.6875 6.46875,-28.140625 0,-18.40625 -6.46875,-28.109375 -6.46875,-9.6875 -18.734375,-9.6875 -12.25,0 -18.71875,9.6875 Q 6.59375,17.96875 6.59375,36.375 q 0,18.453125 6.46875,28.140625 6.46875,9.703125 18.71875,9.703125 z"
       style="fill:#e5e5e5;fill-opacity:1;stroke-width:0.015625" />
    <path
       id="use560"
       d="m 74.310547,12.40625 h 10.3125 V 0 h -10.3125 z"
       style="fill:#e5e5e5;fill-opacity:1;stroke-width:0.015625" />
    <path
       id="use562"
       d="m 128.42578,40.375 q -6.64062,0 -10.53125,-4.546875 -3.875,-4.53125 -3.875,-12.4375 0,-7.859375 3.875,-12.4375 3.89063,-4.5625 10.53125,-4.5625 6.64063,0 10.51563,4.5625 3.875,4.578125 3.875,12.4375 0,7.90625 -3.875,12.4375 -3.875,4.546875 -10.51563,4.546875 z m 19.57813,30.921875 V 62.3125 q -3.71875,1.75 -7.5,2.671875 -3.78125,0.9375 -7.5,0.9375 -9.76563,0 -14.92188,-6.59375 -5.14062,-6.59375 -5.875,-19.921875 2.875,4.25 7.21875,6.515625 4.35938,2.265625 9.57813,2.265625 10.98437,0 17.35937,-6.671875 6.375,-6.65625 6.375,-18.125 0,-11.234375 -6.64062,-18.03125 -6.64063,-6.78125 -17.67188,-6.78125 -12.65625,0 -19.34375,9.6875 -6.6875,9.703125 -6.6875,28.109375 0,17.28125 8.20313,27.5625 8.20312,10.28125 22.01562,10.28125 3.71875,0 7.5,-0.734375 3.78125,-0.734375 7.89063,-2.1875 z"
       style="fill:#e5e5e5;fill-opacity:1;stroke-width:0.015625" />
    <path
       id="use564"
       d="m 190.81445,66.40625 q -7.60937,0 -11.45312,-7.5 -3.82813,-7.484375 -3.82813,-22.53125 0,-14.984375 3.82813,-22.484375 3.84375,-7.5 11.45312,-7.5 7.67188,0 11.5,7.5 3.84375,7.5 3.84375,22.484375 0,15.046875 -3.84375,22.53125 -3.82812,7.5 -11.5,7.5 z m 0,7.8125 q 12.26563,0 18.73438,-9.703125 6.46875,-9.6875 6.46875,-28.140625 0,-18.40625 -6.46875,-28.109375 -6.46875,-9.6875 -18.73438,-9.6875 -12.25,0 -18.71875,9.6875 -6.46875,9.703125 -6.46875,28.109375 0,18.453125 6.46875,28.140625 6.46875,9.703125 18.71875,9.703125 z"
       style="fill:#e5e5e5;fill-opacity:1;stroke-width:0.015625" />
  </g>
  <path
     d="M 90,247.85184 H 482.60043"
     clip-path="url(#p4b27010d5b)"
     style="fill:none;stroke:#b0b0b0;stroke-width:0.8;stroke-linecap:square;stroke-dasharray:1.60000003,3.20000005;stroke-dashoffset:0;stroke-opacity:1"
     id="path570"
     sodipodi:nodetypes="cc"
     transform="matrix(0.99019278,0,0,1,-30.606755,-58.314983)" />
  <g
     transform="matrix(0.1,0,0,-0.1,29.244971,193.33608)"
     id="g586">
    <path
       id="use578"
       d="m 31.78125,66.40625 q -7.609375,0 -11.453125,-7.5 Q 16.5,51.421875 16.5,36.375 q 0,-14.984375 3.828125,-22.484375 3.84375,-7.5 11.453125,-7.5 7.671875,0 11.5,7.5 3.84375,7.5 3.84375,22.484375 0,15.046875 -3.84375,22.53125 -3.828125,7.5 -11.5,7.5 z m 0,7.8125 q 12.265625,0 18.734375,-9.703125 6.46875,-9.6875 6.46875,-28.140625 0,-18.40625 -6.46875,-28.109375 -6.46875,-9.6875 -18.734375,-9.6875 -12.25,0 -18.71875,9.6875 Q 6.59375,17.96875 6.59375,36.375 q 0,18.453125 6.46875,28.140625 6.46875,9.703125 18.71875,9.703125 z"
       style="fill:#e5e5e5;fill-opacity:1;stroke-width:0.015625" />
    <path
       id="use580"
       d="m 74.310547,12.40625 h 10.3125 V 0 h -10.3125 z"
       style="fill:#e5e5e5;fill-opacity:1;stroke-width:0.015625" />
    <path
       id="use582"
       d="m 128.42578,40.375 q -6.64062,0 -10.53125,-4.546875 -3.875,-4.53125 -3.875,-12.4375 0,-7.859375 3.875,-12.4375 3.89063,-4.5625 10.53125,-4.5625 6.64063,0 10.51563,4.5625 3.875,4.578125 3.875,12.4375 0,7.90625 -3.875,12.4375 -3.875,4.546875 -10.51563,4.546875 z m 19.57813,30.921875 V 62.3125 q -3.71875,1.75 -7.5,2.671875 -3.78125,0.9375 -7.5,0.9375 -9.76563,0 -14.92188,-6.59375 -5.14062,-6.59375 -5.875,-19.921875 2.875,4.25 7.21875,6.515625 4.35938,2.265625 9.57813,2.265625 10.98437,0 17.35937,-6.671875 6.375,-6.65625 6.375,-18.125 0,-11.234375 -6.64062,-18.03125 -6.64063,-6.78125 -17.67188,-6.78125 -12.65625,0 -19.34375,9.6875 -6.6875,9.703125 -6.6875,28.109375 0,17.28125 8.20313,27.5625 8.20312,10.28125 22.01562,10.28125 3.71875,0 7.5,-0.734375 3.78125,-0.734375 7.89063,-2.1875 z"
       style="fill:#e5e5e5;fill-opacity:1;stroke-width:0.015625" />
    <path
       id="use584"
       d="m 169.83008,72.90625 h 38.71875 v -8.3125 h -29.6875 V 46.734375 q 2.14062,0.734375 4.28125,1.09375 2.15625,0.359375 4.3125,0.359375 12.20312,0 19.32812,-6.6875 7.14063,-6.6875 7.14063,-18.109375 0,-11.765625 -7.32813,-18.296875 -7.32812,-6.515625 -20.65625,-6.515625 -4.59375,0 -9.35937,0.78125 -4.75,0.78125 -9.82813,2.34375 V 11.625 q 4.39063,-2.390625 9.07813,-3.5625 4.6875,-1.171875 9.90625,-1.171875 8.45312,0 13.375,4.4375 4.9375,4.4375 4.9375,12.0625 0,7.609375 -4.9375,12.046875 -4.92188,4.453125 -13.375,4.453125 -3.95313,0 -7.89063,-0.875 -3.92187,-0.875 -8.01562,-2.734375 z"
       style="fill:#e5e5e5;fill-opacity:1;stroke-width:0.015625" />
  </g>
  <path
     d="M 90,203.99927 H 483.07162"
     clip-path="url(#p4b27010d5b)"
     style="fill:none;stroke:#b0b0b0;stroke-width:0.8;stroke-linecap:square;stroke-dasharray:1.60000003,3.20000005;stroke-dashoffset:0;stroke-opacity:1"
     id="path590"
     sodipodi:nodetypes="cc"
     transform="matrix(0.99019278,0,0,1,-30.606755,-58.314983)" />
  <g
     transform="matrix(0.1,0,0,-0.1,29.244971,149.48351)"
     id="g609">
    <defs
       id="defs599">
      <path
         id="DejaVuSans-37"
         d="M 525,4666 H 3525 V 4397 L 1831,0 H 1172 L 2766,4134 H 525 Z"
         transform="scale(0.015625)" />
    </defs>
    <path
       id="use601"
       d="m 31.78125,66.40625 q -7.609375,0 -11.453125,-7.5 Q 16.5,51.421875 16.5,36.375 q 0,-14.984375 3.828125,-22.484375 3.84375,-7.5 11.453125,-7.5 7.671875,0 11.5,7.5 3.84375,7.5 3.84375,22.484375 0,15.046875 -3.84375,22.53125 -3.828125,7.5 -11.5,7.5 z m 0,7.8125 q 12.265625,0 18.734375,-9.703125 6.46875,-9.6875 6.46875,-28.140625 0,-18.40625 -6.46875,-28.109375 -6.46875,-9.6875 -18.734375,-9.6875 -12.25,0 -18.71875,9.6875 Q 6.59375,17.96875 6.59375,36.375 q 0,18.453125 6.46875,28.140625 6.46875,9.703125 18.71875,9.703125 z"
       style="fill:#e5e5e5;fill-opacity:1;stroke-width:0.015625" />
    <path
       id="use603"
       d="m 74.310547,12.40625 h 10.3125 V 0 h -10.3125 z"
       style="fill:#e5e5e5;fill-opacity:1;stroke-width:0.015625" />
    <path
       id="use605"
       d="m 103.61328,72.90625 h 46.875 V 68.703125 L 124.01953,0 h -10.29687 l 24.90625,64.59375 h -35.01563 z"
       style="fill:#e5e5e5;fill-opacity:1;stroke-width:0.015625" />
    <path
       id="use607"
       d="m 190.81445,66.40625 q -7.60937,0 -11.45312,-7.5 -3.82813,-7.484375 -3.82813,-22.53125 0,-14.984375 3.82813,-22.484375 3.84375,-7.5 11.45312,-7.5 7.67188,0 11.5,7.5 3.84375,7.5 3.84375,22.484375 0,15.046875 -3.84375,22.53125 -3.82812,7.5 -11.5,7.5 z m 0,7.8125 q 12.26563,0 18.73438,-9.703125 6.46875,-9.6875 6.46875,-28.140625 0,-18.40625 -6.46875,-28.109375 -6.46875,-9.6875 -18.73438,-9.6875 -12.25,0 -18.71875,9.6875 -6.46875,9.703125 -6.46875,28.109375 0,18.453125 6.46875,28.140625 6.46875,9.703125 18.71875,9.703125 z"
       style="fill:#e5e5e5;fill-opacity:1;stroke-width:0.015625" />
  </g>
  <path
     d="M 90,160.14671 H 482.5942"
     clip-path="url(#p4b27010d5b)"
     style="fill:none;stroke:#b0b0b0;stroke-width:0.8;stroke-linecap:square;stroke-dasharray:1.60000003,3.20000005;stroke-dashoffset:0;stroke-opacity:1"
     id="path613"
     sodipodi:nodetypes="cc"
     transform="matrix(0.99019278,0,0,1,-30.606755,-58.314983)" />
  <g
     transform="matrix(0.1,0,0,-0.1,29.244971,105.63095)"
     id="g629">
    <path
       id="use621"
       d="m 31.78125,66.40625 q -7.609375,0 -11.453125,-7.5 Q 16.5,51.421875 16.5,36.375 q 0,-14.984375 3.828125,-22.484375 3.84375,-7.5 11.453125,-7.5 7.671875,0 11.5,7.5 3.84375,7.5 3.84375,22.484375 0,15.046875 -3.84375,22.53125 -3.828125,7.5 -11.5,7.5 z m 0,7.8125 q 12.265625,0 18.734375,-9.703125 6.46875,-9.6875 6.46875,-28.140625 0,-18.40625 -6.46875,-28.109375 -6.46875,-9.6875 -18.734375,-9.6875 -12.25,0 -18.71875,9.6875 Q 6.59375,17.96875 6.59375,36.375 q 0,18.453125 6.46875,28.140625 6.46875,9.703125 18.71875,9.703125 z"
       style="fill:#e5e5e5;fill-opacity:1;stroke-width:0.015625" />
    <path
       id="use623"
       d="m 74.310547,12.40625 h 10.3125 V 0 h -10.3125 z"
       style="fill:#e5e5e5;fill-opacity:1;stroke-width:0.015625" />
    <path
       id="use625"
       d="m 103.61328,72.90625 h 46.875 V 68.703125 L 124.01953,0 h -10.29687 l 24.90625,64.59375 h -35.01563 z"
       style="fill:#e5e5e5;fill-opacity:1;stroke-width:0.015625" />
    <path
       id="use627"
       d="m 169.83008,72.90625 h 38.71875 v -8.3125 h -29.6875 V 46.734375 q 2.14062,0.734375 4.28125,1.09375 2.15625,0.359375 4.3125,0.359375 12.20312,0 19.32812,-6.6875 7.14063,-6.6875 7.14063,-18.109375 0,-11.765625 -7.32813,-18.296875 -7.32812,-6.515625 -20.65625,-6.515625 -4.59375,0 -9.35937,0.78125 -4.75,0.78125 -9.82813,2.34375 V 11.625 q 4.39063,-2.390625 9.07813,-3.5625 4.6875,-1.171875 9.90625,-1.171875 8.45312,0 13.375,4.4375 4.9375,4.4375 4.9375,12.0625 0,7.609375 -4.9375,12.046875 -4.92188,4.453125 -13.375,4.453125 -3.95313,0 -7.89063,-0.875 -3.92187,-0.875 -8.01562,-2.734375 z"
       style="fill:#e5e5e5;fill-opacity:1;stroke-width:0.015625" />
  </g>
  <path
     d="M 90,116.29414 H 482.88065"
     clip-path="url(#p4b27010d5b)"
     style="fill:none;stroke:#b0b0b0;stroke-width:0.8;stroke-linecap:square;stroke-dasharray:1.60000003,3.20000005;stroke-dashoffset:0;stroke-opacity:1"
     id="path633"
     sodipodi:nodetypes="cc"
     transform="matrix(0.99019278,0,0,1,-30.606755,-58.314983)" />
  <g
     transform="matrix(0.1,0,0,-0.1,29.244971,61.778377)"
     id="g652">
    <defs
       id="defs642">
      <path
         id="DejaVuSans-38"
         d="m 2034,2216 q -450,0 -708,-241 -257,-241 -257,-662 0,-422 257,-663 258,-241 708,-241 450,0 709,242 260,243 260,662 0,421 -258,662 -257,241 -711,241 z m -631,268 q -406,100 -633,378 -226,279 -226,679 0,559 398,884 399,325 1092,325 697,0 1094,-325 397,-325 397,-884 0,-400 -227,-679 -226,-278 -629,-378 456,-106 710,-416 255,-309 255,-755 Q 3634,634 3220,271 2806,-91 2034,-91 1263,-91 848,271 434,634 434,1313 q 0,446 256,755 257,310 713,416 z m -231,997 q 0,-362 226,-565 227,-203 636,-203 407,0 636,203 230,203 230,565 0,363 -230,566 -229,203 -636,203 -409,0 -636,-203 -226,-203 -226,-566 z"
         transform="scale(0.015625)" />
    </defs>
    <path
       id="use644"
       d="m 31.78125,66.40625 q -7.609375,0 -11.453125,-7.5 Q 16.5,51.421875 16.5,36.375 q 0,-14.984375 3.828125,-22.484375 3.84375,-7.5 11.453125,-7.5 7.671875,0 11.5,7.5 3.84375,7.5 3.84375,22.484375 0,15.046875 -3.84375,22.53125 -3.828125,7.5 -11.5,7.5 z m 0,7.8125 q 12.265625,0 18.734375,-9.703125 6.46875,-9.6875 6.46875,-28.140625 0,-18.40625 -6.46875,-28.109375 -6.46875,-9.6875 -18.734375,-9.6875 -12.25,0 -18.71875,9.6875 Q 6.59375,17.96875 6.59375,36.375 q 0,18.453125 6.46875,28.140625 6.46875,9.703125 18.71875,9.703125 z"
       style="fill:#e5e5e5;fill-opacity:1;stroke-width:0.015625" />
    <path
       id="use646"
       d="m 74.310547,12.40625 h 10.3125 V 0 h -10.3125 z"
       style="fill:#e5e5e5;fill-opacity:1;stroke-width:0.015625" />
    <path
       id="use648"
       d="m 127.19141,34.625 q -7.03125,0 -11.0625,-3.765625 -4.01563,-3.765625 -4.01563,-10.34375 0,-6.59375 4.01563,-10.359375 4.03125,-3.765625 11.0625,-3.765625 7.03125,0 11.07812,3.78125 4.0625,3.796875 4.0625,10.34375 0,6.578125 -4.03125,10.34375 Q 134.28516,34.625 127.19141,34.625 Z m -9.85938,4.1875 q -6.34375,1.5625 -9.89062,5.90625 -3.53125,4.359375 -3.53125,10.609375 0,8.734375 6.21875,13.8125 6.23437,5.078125 17.0625,5.078125 10.89062,0 17.09375,-5.078125 6.20312,-5.078125 6.20312,-13.8125 0,-6.25 -3.54687,-10.609375 -3.53125,-4.34375 -9.82813,-5.90625 7.125,-1.65625 11.09375,-6.5 3.98438,-4.828125 3.98438,-11.796875 0,-10.609375 -6.46875,-16.28125 -6.46875,-5.65625 -18.53125,-5.65625 -12.04688,0 -18.53125,5.65625 -6.46875,5.671875 -6.46875,16.28125 0,6.96875 4,11.796875 4.01562,4.84375 11.14062,6.5 z m -3.60937,15.578125 q 0,-5.65625 3.53125,-8.828125 3.54687,-3.171875 9.9375,-3.171875 6.35937,0 9.9375,3.171875 3.59375,3.171875 3.59375,8.828125 0,5.671875 -3.59375,8.84375 -3.57813,3.171875 -9.9375,3.171875 -6.39063,0 -9.9375,-3.171875 -3.53125,-3.171875 -3.53125,-8.84375 z"
       style="fill:#e5e5e5;fill-opacity:1;stroke-width:0.015625" />
    <path
       id="use650"
       d="m 190.81445,66.40625 q -7.60937,0 -11.45312,-7.5 -3.82813,-7.484375 -3.82813,-22.53125 0,-14.984375 3.82813,-22.484375 3.84375,-7.5 11.45312,-7.5 7.67188,0 11.5,7.5 3.84375,7.5 3.84375,22.484375 0,15.046875 -3.84375,22.53125 -3.82812,7.5 -11.5,7.5 z m 0,7.8125 q 12.26563,0 18.73438,-9.703125 6.46875,-9.6875 6.46875,-28.140625 0,-18.40625 -6.46875,-28.109375 -6.46875,-9.6875 -18.73438,-9.6875 -12.25,0 -18.71875,9.6875 -6.46875,9.703125 -6.46875,28.109375 0,18.453125 6.46875,28.140625 6.46875,9.703125 18.71875,9.703125 z"
       style="fill:#e5e5e5;fill-opacity:1;stroke-width:0.015625" />
  </g>
  <path
     d="M 90,72.441571 H 483.05721"
     clip-path="url(#p4b27010d5b)"
     style="fill:none;stroke:#b0b0b0;stroke-width:0.8;stroke-linecap:square;stroke-dasharray:1.60000003,3.20000005;stroke-dashoffset:0;stroke-opacity:1"
     id="path656"
     sodipodi:nodetypes="cc"
     transform="matrix(0.99019278,0,0,1,-30.606755,-58.314983)" />
  <g
     transform="matrix(0.1,0,0,-0.1,29.244971,17.925807)"
     id="g672">
    <path
       id="use664"
       d="m 31.78125,66.40625 q -7.609375,0 -11.453125,-7.5 Q 16.5,51.421875 16.5,36.375 q 0,-14.984375 3.828125,-22.484375 3.84375,-7.5 11.453125,-7.5 7.671875,0 11.5,7.5 3.84375,7.5 3.84375,22.484375 0,15.046875 -3.84375,22.53125 -3.828125,7.5 -11.5,7.5 z m 0,7.8125 q 12.265625,0 18.734375,-9.703125 6.46875,-9.6875 6.46875,-28.140625 0,-18.40625 -6.46875,-28.109375 -6.46875,-9.6875 -18.734375,-9.6875 -12.25,0 -18.71875,9.6875 Q 6.59375,17.96875 6.59375,36.375 q 0,18.453125 6.46875,28.140625 6.46875,9.703125 18.71875,9.703125 z"
       style="fill:#e5e5e5;fill-opacity:1;stroke-width:0.015625" />
    <path
       id="use666"
       d="m 74.310547,12.40625 h 10.3125 V 0 h -10.3125 z"
       style="fill:#e5e5e5;fill-opacity:1;stroke-width:0.015625" />
    <path
       id="use668"
       d="m 127.19141,34.625 q -7.03125,0 -11.0625,-3.765625 -4.01563,-3.765625 -4.01563,-10.34375 0,-6.59375 4.01563,-10.359375 4.03125,-3.765625 11.0625,-3.765625 7.03125,0 11.07812,3.78125 4.0625,3.796875 4.0625,10.34375 0,6.578125 -4.03125,10.34375 Q 134.28516,34.625 127.19141,34.625 Z m -9.85938,4.1875 q -6.34375,1.5625 -9.89062,5.90625 -3.53125,4.359375 -3.53125,10.609375 0,8.734375 6.21875,13.8125 6.23437,5.078125 17.0625,5.078125 10.89062,0 17.09375,-5.078125 6.20312,-5.078125 6.20312,-13.8125 0,-6.25 -3.54687,-10.609375 -3.53125,-4.34375 -9.82813,-5.90625 7.125,-1.65625 11.09375,-6.5 3.98438,-4.828125 3.98438,-11.796875 0,-10.609375 -6.46875,-16.28125 -6.46875,-5.65625 -18.53125,-5.65625 -12.04688,0 -18.53125,5.65625 -6.46875,5.671875 -6.46875,16.28125 0,6.96875 4,11.796875 4.01562,4.84375 11.14062,6.5 z m -3.60937,15.578125 q 0,-5.65625 3.53125,-8.828125 3.54687,-3.171875 9.9375,-3.171875 6.35937,0 9.9375,3.171875 3.59375,3.171875 3.59375,8.828125 0,5.671875 -3.59375,8.84375 -3.57813,3.171875 -9.9375,3.171875 -6.39063,0 -9.9375,-3.171875 -3.53125,-3.171875 -3.53125,-8.84375 z"
       style="fill:#e5e5e5;fill-opacity:1;stroke-width:0.015625" />
    <path
       id="use670"
       d="m 169.83008,72.90625 h 38.71875 v -8.3125 h -29.6875 V 46.734375 q 2.14062,0.734375 4.28125,1.09375 2.15625,0.359375 4.3125,0.359375 12.20312,0 19.32812,-6.6875 7.14063,-6.6875 7.14063,-18.109375 0,-11.765625 -7.32813,-18.296875 -7.32812,-6.515625 -20.65625,-6.515625 -4.59375,0 -9.35937,0.78125 -4.75,0.78125 -9.82813,2.34375 V 11.625 q 4.39063,-2.390625 9.07813,-3.5625 4.6875,-1.171875 9.90625,-1.171875 8.45312,0 13.375,4.4375 4.9375,4.4375 4.9375,12.0625 0,7.609375 -4.9375,12.046875 -4.92188,4.453125 -13.375,4.453125 -3.95313,0 -7.89063,-0.875 -3.92187,-0.875 -8.01562,-2.734375 z"
       style="fill:#e5e5e5;fill-opacity:1;stroke-width:0.015625" />
  </g>
  <path
     d="m 107.4375,254.58961 h 34.875 v -10.96315 h -34.875 z"
     clip-path="url(#p4b27010d5b)"
     style="fill:#99c1f1;fill-opacity:1;stroke:#e5e5e5;stroke-linejoin:miter;stroke-opacity:1"
     id="path700"
     transform="translate(104.26059,-58.314983)" />
  <path
     d="m 124.875,254.58961 v 1.48459"
     clip-path="url(#p4b27010d5b)"
     style="fill:none;stroke:#e5e5e5;stroke-linecap:square;stroke-opacity:1"
     id="path703"
     transform="translate(104.26059,-58.314983)" />
  <path
     d="m 124.875,243.62646 v -9.47855"
     clip-path="url(#p4b27010d5b)"
     style="fill:none;stroke:#e5e5e5;stroke-linecap:square;stroke-opacity:1"
     id="path706"
     transform="translate(104.26059,-58.314983)" />
  <path
     d="m 116.15625,256.0742 h 17.4375"
     clip-path="url(#p4b27010d5b)"
     style="fill:none;stroke:#e5e5e5;stroke-linecap:square;stroke-opacity:1"
     id="path709"
     transform="translate(104.26059,-58.314983)" />
  <path
     d="m 116.15625,234.14791 h 17.4375"
     clip-path="url(#p4b27010d5b)"
     style="fill:none;stroke:#e5e5e5;stroke-linecap:square;stroke-opacity:1"
     id="path712"
     transform="translate(104.26059,-58.314983)" />
  <path
     d="m 177.1875,283.93885 h 34.875 v -15.98791 h -34.875 z"
     clip-path="url(#p4b27010d5b)"
     style="fill:#8ff0a4;fill-opacity:1;stroke:#e5e5e5;stroke-linejoin:miter;stroke-opacity:1"
     id="path723"
     transform="translate(-14.239409,-58.314983)" />
  <path
     d="m 194.625,283.93885 v 8.67916"
     clip-path="url(#p4b27010d5b)"
     style="fill:none;stroke:#e5e5e5;stroke-linecap:square;stroke-opacity:1"
     id="path726"
     transform="translate(-14.239409,-58.314983)" />
  <path
     d="m 194.625,267.95094 v -9.13596"
     clip-path="url(#p4b27010d5b)"
     style="fill:none;stroke:#e5e5e5;stroke-linecap:square;stroke-opacity:1"
     id="path729"
     transform="translate(-14.239409,-58.314983)" />
  <path
     d="m 185.90625,292.61801 h 17.4375"
     clip-path="url(#p4b27010d5b)"
     style="fill:none;stroke:#e5e5e5;stroke-linecap:square;stroke-opacity:1"
     id="path732"
     transform="translate(-14.239409,-58.314983)" />
  <path
     d="m 185.90625,258.81498 h 17.4375"
     clip-path="url(#p4b27010d5b)"
     style="fill:none;stroke:#e5e5e5;stroke-linecap:square;stroke-opacity:1"
     id="path735"
     transform="translate(-14.239409,-58.314983)" />
  <path
     d="m 246.9375,322.76665 h 34.875 v -12.21934 h -34.875 z"
     clip-path="url(#p4b27010d5b)"
     style="fill:#f9f06b;fill-opacity:1;stroke:#e5e5e5;stroke-linejoin:miter;stroke-opacity:1"
     id="path743"
     transform="translate(-131.23941,-58.314983)" />
  <path
     d="m 264.375,322.76665 v 5.93836"
     clip-path="url(#p4b27010d5b)"
     style="fill:none;stroke:#e5e5e5;stroke-linecap:square;stroke-opacity:1"
     id="path746"
     transform="translate(-131.23941,-58.314983)" />
  <path
     d="m 264.375,310.54731 v -5.13897"
     clip-path="url(#p4b27010d5b)"
     style="fill:none;stroke:#e5e5e5;stroke-linecap:square;stroke-opacity:1"
     id="path749"
     transform="translate(-131.23941,-58.314983)" />
  <path
     d="m 255.65625,328.70501 h 17.4375"
     clip-path="url(#p4b27010d5b)"
     style="fill:none;stroke:#e5e5e5;stroke-linecap:square;stroke-opacity:1"
     id="path752"
     transform="translate(-131.23941,-58.314983)" />
  <path
     d="m 255.65625,305.40834 h 17.4375"
     clip-path="url(#p4b27010d5b)"
     style="fill:none;stroke:#e5e5e5;stroke-linecap:square;stroke-opacity:1"
     id="path755"
     transform="translate(-131.23941,-58.314983)" />
  <path
     d="m 316.6875,367.87541 h 34.875 v -6.85197 h -34.875 z"
     clip-path="url(#p4b27010d5b)"
     style="fill:#ffbe6f;fill-opacity:1;stroke:#e5e5e5;stroke-linejoin:miter;stroke-opacity:1"
     id="path759"
     transform="translate(-248.23941,-58.314983)" />
  <path
     d="M 334.125,367.87541 V 369.36"
     clip-path="url(#p4b27010d5b)"
     style="fill:none;stroke:#e5e5e5;stroke-linecap:square;stroke-opacity:1"
     id="path762"
     transform="translate(-248.23941,-58.314983)" />
  <path
     d="m 334.125,361.02344 v -2.16978"
     clip-path="url(#p4b27010d5b)"
     style="fill:none;stroke:#e5e5e5;stroke-linecap:square;stroke-opacity:1"
     id="path765"
     transform="translate(-248.23941,-58.314983)" />
  <path
     d="m 325.40625,369.36 h 17.4375"
     clip-path="url(#p4b27010d5b)"
     style="fill:none;stroke:#e5e5e5;stroke-linecap:square;stroke-opacity:1"
     id="path768"
     transform="translate(-248.23941,-58.314983)" />
  <path
     d="m 325.40625,358.85366 h 17.4375"
     clip-path="url(#p4b27010d5b)"
     style="fill:none;stroke:#e5e5e5;stroke-linecap:square;stroke-opacity:1"
     id="path771"
     transform="translate(-248.23941,-58.314983)" />
  <path
     d="m 386.4375,131.14006 h 34.875 v -15.64532 h -34.875 z"
     clip-path="url(#p4b27010d5b)"
     style="fill:#f99085;fill-opacity:1;stroke:#e5e5e5;stroke-linejoin:miter;stroke-opacity:1"
     id="path775"
     transform="translate(-77.239409,-58.314983)" />
  <path
     d="m 403.875,131.14006 v 7.53716"
     clip-path="url(#p4b27010d5b)"
     style="fill:none;stroke:#e5e5e5;stroke-linecap:square;stroke-opacity:1"
     id="path778"
     transform="translate(-77.239409,-58.314983)" />
  <path
     d="m 403.875,115.49474 v -6.05256"
     clip-path="url(#p4b27010d5b)"
     style="fill:none;stroke:#e5e5e5;stroke-linecap:square;stroke-opacity:1"
     id="path781"
     transform="translate(-77.239409,-58.314983)" />
  <path
     d="m 395.15625,138.67722 h 17.4375"
     clip-path="url(#p4b27010d5b)"
     style="fill:none;stroke:#e5e5e5;stroke-linecap:square;stroke-opacity:1"
     id="path784"
     transform="translate(-77.239409,-58.314983)" />
  <path
     d="m 395.15625,109.44218 h 17.4375"
     clip-path="url(#p4b27010d5b)"
     style="fill:none;stroke:#e5e5e5;stroke-linecap:square;stroke-opacity:1"
     id="path787"
     transform="translate(-77.239409,-58.314983)" />
  <path
     d="m 456.1875,102.01922 h 34.875 V 90.599275 h -34.875 z"
     clip-path="url(#p4b27010d5b)"
     style="fill:#ebbbeb;fill-opacity:1;stroke:#e5e5e5;stroke-linejoin:miter;stroke-opacity:1"
     id="path791"
     transform="translate(-98.239409,-58.314983)" />
  <path
     d="m 473.625,102.01922 v 11.99093"
     clip-path="url(#p4b27010d5b)"
     style="fill:none;stroke:#e5e5e5;stroke-linecap:square;stroke-opacity:1"
     id="path794"
     transform="translate(-98.239409,-58.314983)" />
  <path
     d="m 473.625,90.599275 v -7.65136"
     clip-path="url(#p4b27010d5b)"
     style="fill:none;stroke:#e5e5e5;stroke-linecap:square;stroke-opacity:1"
     id="path797"
     transform="translate(-98.239409,-58.314983)" />
  <path
     d="m 464.90625,114.01015 h 17.4375"
     clip-path="url(#p4b27010d5b)"
     style="fill:none;stroke:#e5e5e5;stroke-linecap:square;stroke-opacity:1"
     id="path800"
     transform="translate(-98.239409,-58.314983)" />
  <path
     d="m 464.90625,82.947915 h 17.4375"
     clip-path="url(#p4b27010d5b)"
     style="fill:none;stroke:#e5e5e5;stroke-linecap:square;stroke-opacity:1"
     id="path803"
     transform="translate(-98.239409,-58.314983)" />
  <path
     d="m 525.9375,126.68628 h 34.875 v -5.13897 h -34.875 z"
     clip-path="url(#p4b27010d5b)"
     style="fill:#b9f5e2;fill-opacity:1;stroke:#e5e5e5;stroke-linejoin:miter;stroke-opacity:1"
     id="path807"
     transform="translate(-265.48941,-58.314983)" />
  <path
     d="m 543.375,126.68628 v 2.85499"
     clip-path="url(#p4b27010d5b)"
     style="fill:none;stroke:#e5e5e5;stroke-linecap:square;stroke-opacity:1"
     id="path810"
     transform="translate(-265.48941,-58.314983)" />
  <path
     d="m 543.375,121.54731 v -1.14199"
     clip-path="url(#p4b27010d5b)"
     style="fill:none;stroke:#e5e5e5;stroke-linecap:square;stroke-opacity:1"
     id="path813"
     transform="translate(-265.48941,-58.314983)" />
  <path
     d="m 534.65625,129.54127 h 17.4375"
     clip-path="url(#p4b27010d5b)"
     style="fill:none;stroke:#e5e5e5;stroke-linecap:square;stroke-opacity:1"
     id="path816"
     transform="translate(-265.48941,-58.314983)" />
  <path
     d="m 534.65625,120.40532 h 17.4375"
     clip-path="url(#p4b27010d5b)"
     style="fill:none;stroke:#e5e5e5;stroke-linecap:square;stroke-opacity:1"
     id="path819"
     transform="translate(-265.48941,-58.314983)" />
  <path
     d="m 595.6875,96.537644 h 34.875 V 82.719517 h -34.875 z"
     clip-path="url(#p4b27010d5b)"
     style="fill:none;fill-opacity:1;stroke:#e5e5e5;stroke-linejoin:miter;stroke-opacity:1"
     id="path829"
     transform="translate(-188.9894,-58.314983)" />
  <path
     d="m 613.125,96.537644 v 4.225376"
     clip-path="url(#p4b27010d5b)"
     style="fill:none;stroke:#e5e5e5;stroke-linecap:square;stroke-opacity:1"
     id="path832"
     transform="translate(-188.9894,-58.314983)" />
  <path
     d="M 613.125,82.719517 V 66.96"
     clip-path="url(#p4b27010d5b)"
     style="fill:none;stroke:#e5e5e5;stroke-linecap:square;stroke-opacity:1"
     id="path835"
     transform="translate(-188.9894,-58.314983)" />
  <path
     d="m 604.40625,100.76302 h 17.4375"
     clip-path="url(#p4b27010d5b)"
     style="fill:none;stroke:#e5e5e5;stroke-linecap:square;stroke-opacity:1"
     id="path838"
     transform="translate(-188.9894,-58.314983)" />
  <path
     d="m 604.40625,66.96 h 17.4375"
     clip-path="url(#p4b27010d5b)"
     style="fill:none;stroke:#e5e5e5;stroke-linecap:square;stroke-opacity:1"
     id="path841"
     transform="translate(-188.9894,-58.314983)" />
  <path
     d="m 107.4375,249.67903 h 34.875"
     clip-path="url(#p4b27010d5b)"
     style="fill:none;stroke:#e5e5e5;stroke-linecap:square;stroke-opacity:1"
     id="path845"
     transform="translate(104.26059,-58.314983)" />
  <path
     d="m 177.1875,281.42646 h 34.875"
     clip-path="url(#p4b27010d5b)"
     style="fill:none;stroke:#e5e5e5;stroke-linecap:square;stroke-opacity:1"
     id="path848"
     transform="translate(-14.239409,-58.314983)" />
  <path
     d="m 246.9375,318.88387 h 34.875"
     clip-path="url(#p4b27010d5b)"
     style="fill:none;stroke:#e5e5e5;stroke-linecap:square;stroke-opacity:1"
     id="path851"
     transform="translate(-131.23941,-58.314983)" />
  <path
     d="m 316.6875,363.87843 h 34.875"
     clip-path="url(#p4b27010d5b)"
     style="fill:none;stroke:#e5e5e5;stroke-linecap:square;stroke-opacity:1"
     id="path854"
     transform="translate(-248.23941,-58.314983)" />
  <path
     d="m 386.4375,121.54731 h 34.875"
     clip-path="url(#p4b27010d5b)"
     style="fill:none;stroke:#e5e5e5;stroke-linecap:square;stroke-opacity:1"
     id="path857"
     transform="translate(-77.239409,-58.314983)" />
  <path
     d="m 456.1875,96.423444 h 34.875"
     clip-path="url(#p4b27010d5b)"
     style="fill:none;stroke:#e5e5e5;stroke-linecap:square;stroke-opacity:1"
     id="path860"
     transform="translate(-98.239409,-58.314983)" />
  <path
     d="m 525.9375,124.0597 h 34.875"
     clip-path="url(#p4b27010d5b)"
     style="fill:none;stroke:#e5e5e5;stroke-linecap:square;stroke-opacity:1"
     id="path863"
     transform="translate(-265.48941,-58.314983)" />
  <path
     d="m 595.6875,89.57148 h 34.875"
     clip-path="url(#p4b27010d5b)"
     style="fill:none;stroke:#e5e5e5;stroke-linecap:square;stroke-opacity:1"
     id="path866"
     transform="translate(-188.9894,-58.314983)" />
  <path
     style="font-size:13px;line-height:1.25;font-family:Roboto;-inkscape-font-specification:Roboto;fill:#e5e5e5;stroke-width:0.75"
     d="m -186.74615,6.8300781 h -3.87208 l -0.86962,2.4121094 h -1.25684 L -189.21539,0 h 1.0664 l 3.53565,9.2421875 h -1.25049 z m -3.50391,-1.0029297 h 3.14209 l -1.57422,-4.3227539 z m 9.45166,2.5834961 q 0.62842,0 1.09814,-0.3808593 0.46973,-0.3808594 0.52051,-0.9521485 h 1.11084 q -0.0317,0.590332 -0.40625,1.1235352 -0.37451,0.5332031 -1.00293,0.8505859 -0.62207,0.3173828 -1.32031,0.3173828 -1.40283,0 -2.23438,-0.9331054 -0.82519,-0.9394532 -0.82519,-2.5644532 V 5.6748047 q 0,-1.0029297 0.36816,-1.7836914 0.36817,-0.7807617 1.05371,-1.2124024 0.6919,-0.4316406 1.63135,-0.4316406 1.15527,0 1.91699,0.6918945 0.76807,0.6918946 0.81885,1.7963868 h -1.11084 q -0.0508,-0.6665039 -0.50781,-1.0917969 -0.45068,-0.4316406 -1.11719,-0.4316406 -0.89502,0 -1.39014,0.6474609 -0.48876,0.6411133 -0.48876,1.8598633 v 0.2221679 q 0,1.1870118 0.48876,1.828125 0.48877,0.6411133 1.39649,0.6411133 z m 6.80469,0 q 0.62841,0 1.09814,-0.3808593 0.46973,-0.3808594 0.52051,-0.9521485 h 1.11084 q -0.0317,0.590332 -0.40625,1.1235352 -0.37451,0.5332031 -1.00293,0.8505859 -0.62207,0.3173828 -1.32031,0.3173828 -1.40284,0 -2.23438,-0.9331054 -0.82519,-0.9394532 -0.82519,-2.5644532 V 5.6748047 q 0,-1.0029297 0.36816,-1.7836914 0.36816,-0.7807617 1.05371,-1.2124024 0.6919,-0.4316406 1.63135,-0.4316406 1.15527,0 1.91699,0.6918945 0.76807,0.6918946 0.81885,1.7963868 h -1.11084 q -0.0508,-0.6665039 -0.50781,-1.0917969 -0.45069,-0.4316406 -1.11719,-0.4316406 -0.89502,0 -1.39014,0.6474609 -0.48877,0.6411133 -0.48877,1.8598633 v 0.2221679 q 0,1.1870118 0.48877,1.828125 0.48877,0.6411133 1.39649,0.6411133 z m 8.29004,0.1523438 q -0.68555,0.8061523 -2.01221,0.8061523 -1.09815,0 -1.67578,-0.6347656 -0.57129,-0.6411133 -0.57764,-1.8916016 v -4.46875 h 1.17432 v 4.4370118 q 0,1.5615234 1.26953,1.5615234 1.3457,0 1.79004,-1.0029297 V 2.3740234 h 1.17431 v 6.8681641 h -1.11718 z m 6.24609,-5.1352539 q -0.2666,-0.044434 -0.57764,-0.044434 -1.15527,0 -1.56787,0.9838867 v 4.875 h -1.17431 V 2.3740234 h 1.14257 l 0.019,0.7934571 q 0.57763,-0.9204102 1.63769,-0.9204102 0.34278,0 0.52051,0.088867 z m 5.06543,5.8144531 q -0.10156,-0.203125 -0.16504,-0.7236328 -0.81885,0.8505859 -1.95508,0.8505859 -1.01562,0 -1.66943,-0.571289 -0.64746,-0.5776368 -0.64746,-1.459961 0,-1.0727539 0.8125,-1.6630859 0.81885,-0.5966797 2.29785,-0.5966797 h 1.14258 V 4.5385742 q 0,-0.6157226 -0.36817,-0.977539 -0.36816,-0.3681641 -1.08545,-0.3681641 -0.62841,0 -1.05371,0.3173828 -0.42529,0.3173828 -0.42529,0.7680664 h -1.18066 q 0,-0.5141601 0.36181,-0.9902344 0.36817,-0.4824218 0.99024,-0.7617187 0.62841,-0.2792969 1.37744,-0.2792969 1.18701,0 1.85986,0.5966797 0.67285,0.590332 0.69824,1.6313477 v 3.1611328 q 0,0.9458008 0.24121,1.5043945 v 0.1015625 z m -1.94873,-0.8950195 q 0.55224,0 1.04736,-0.2856446 0.49512,-0.2856445 0.71729,-0.7426757 V 5.909668 h -0.92041 q -2.15821,0 -2.15821,1.2631836 0,0.5522461 0.36817,0.8632812 0.36816,0.3110352 0.9458,0.3110352 z m 7.53467,0.063477 q 0.62841,0 1.09814,-0.3808593 0.46973,-0.3808594 0.52051,-0.9521485 h 1.11084 q -0.0317,0.590332 -0.40625,1.1235352 -0.37451,0.5332031 -1.00293,0.8505859 -0.62207,0.3173828 -1.32031,0.3173828 -1.40284,0 -2.23438,-0.9331054 -0.82519,-0.9394532 -0.82519,-2.5644532 V 5.6748047 q 0,-1.0029297 0.36816,-1.7836914 0.36816,-0.7807617 1.05371,-1.2124024 0.6919,-0.4316406 1.63135,-0.4316406 1.15527,0 1.91699,0.6918945 0.76807,0.6918946 0.81885,1.7963868 h -1.11084 q -0.0508,-0.6665039 -0.50781,-1.0917969 -0.45069,-0.4316406 -1.11719,-0.4316406 -0.89502,0 -1.39014,0.6474609 -0.48877,0.6411133 -0.48877,1.8598633 v 0.2221679 q 0,1.1870118 0.48877,1.828125 0.48877,0.6411133 1.39649,0.6411133 z m 6.29687,-0.8886718 1.59961,-5.1479493 h 1.25684 l -2.76123,7.9282226 q -0.64112,1.713867 -2.0376,1.713867 l -0.22217,-0.01904 -0.43799,-0.08252 v -0.952149 l 0.31739,0.02539 q 0.59668,0 0.92675,-0.241211 0.33643,-0.241211 0.55225,-0.8823242 l 0.26025,-0.6982422 -2.45019,-6.7919922 h 1.28222 z"
     id="text8941"
     transform="rotate(-90)"
     aria-label="Accuracy" />
  <defs
     id="defs1020">
    <clipPath
       id="p4b27010d5b">
      <rect
         x="90"
         y="51.84"
         width="558"
         height="332.64001"
         id="rect1017" />
    </clipPath>
  </defs>
  <path
     id="path8"
     style="fill:none;stroke:#e5e5e5;stroke-width:0.892641;stroke-linecap:round;stroke-miterlimit:10"
     d="m 232.1415,214.25383 a 3.0225444,3.0225444 0 0 1 -3.02254,3.02254 3.0225444,3.0225444 0 0 1 -3.02255,-3.02254 3.0225444,3.0225444 0 0 1 3.02255,-3.02254 3.0225444,3.0225444 0 0 1 3.02254,3.02254 z" />
  <path
     id="path8-3"
     style="fill:none;stroke:#e5e5e5;stroke-width:0.892641;stroke-linecap:round;stroke-miterlimit:10"
     d="m 183.4779,255.22694 a 3.0225444,3.0225444 0 0 1 -3.02255,3.02255 3.0225444,3.0225444 0 0 1 -3.02254,-3.02255 3.0225444,3.0225444 0 0 1 3.02254,-3.02254 3.0225444,3.0225444 0 0 1 3.02255,3.02254 z" />
  <path
     id="path8-6"
     style="fill:none;stroke:#e5e5e5;stroke-width:0.892641;stroke-linecap:round;stroke-miterlimit:10"
     d="m 280.92434,77.67366 a 3.0225444,3.0225444 0 0 1 -3.02255,3.022545 3.0225444,3.0225444 0 0 1 -3.02254,-3.022545 3.0225444,3.0225444 0 0 1 3.02254,-3.022544 3.0225444,3.0225444 0 0 1 3.02255,3.022544 z" />
  <path
     id="path8-7"
     style="fill:none;stroke:#e5e5e5;stroke-width:0.892641;stroke-linecap:round;stroke-miterlimit:10"
     d="m 280.92495,47.493179 a 3.0225444,3.0225444 0 0 1 -3.02255,3.022545 3.0225444,3.0225444 0 0 1 -3.02254,-3.022545 3.0225444,3.0225444 0 0 1 3.02254,-3.022544 3.0225444,3.0225444 0 0 1 3.02255,3.022544 z" />
</svg>
