<?xml version="1.0" encoding="UTF-8" standalone="no"?>
<svg
   width="1555pt"
   height="595pt"
   viewBox="0 0 1555 595"
   version="1.1"
   id="svg420"
   sodipodi:docname="dist.svg"
   inkscape:version="1.3 (0e150ed6c4, 2023-07-21)"
   inkscape:export-filename="total_site_energy_consumption_per_surface_MJm2.pdf"
   inkscape:export-xdpi="400"
   inkscape:export-ydpi="400"
   xmlns:inkscape="http://www.inkscape.org/namespaces/inkscape"
   xmlns:sodipodi="http://sodipodi.sourceforge.net/DTD/sodipodi-0.dtd"
   xmlns:xlink="http://www.w3.org/1999/xlink"
   xmlns="http://www.w3.org/2000/svg"
   xmlns:svg="http://www.w3.org/2000/svg"
   xmlns:rdf="http://www.w3.org/1999/02/22-rdf-syntax-ns#"
   xmlns:cc="http://creativecommons.org/ns#"
   xmlns:dc="http://purl.org/dc/elements/1.1/">
  <sodipodi:namedview
     id="namedview422"
     pagecolor="#121212"
     bordercolor="#666666"
     borderopacity="1.0"
     inkscape:showpageshadow="2"
     inkscape:pageopacity="0.0"
     inkscape:pagecheckerboard="0"
     inkscape:deskcolor="#d1d1d1"
     inkscape:document-units="pt"
     showgrid="false"
     inkscape:zoom="0.32690575"
     inkscape:cx="741.80402"
     inkscape:cy="256.9548"
     inkscape:window-width="1920"
     inkscape:window-height="1043"
     inkscape:window-x="0"
     inkscape:window-y="0"
     inkscape:window-maximized="1"
     inkscape:current-layer="axes_1" />
  <metadata
     id="metadata2">
    <rdf:RDF>
      <cc:Work>
        <dc:type
           rdf:resource="http://purl.org/dc/dcmitype/StillImage" />
        <dc:date>2023-05-02T20:57:50.208067</dc:date>
        <dc:format>image/svg+xml</dc:format>
        <dc:creator>
          <cc:Agent>
            <dc:title>Matplotlib v3.7.1, https://matplotlib.org/</dc:title>
          </cc:Agent>
        </dc:creator>
      </cc:Work>
    </rdf:RDF>
  </metadata>
  <defs
     id="defs6">
    <style
       type="text/css"
       id="style4">*{stroke-linejoin: round; stroke-linecap: butt}</style>
    <clipPath
       id="pbbca6e5ec2">
      <rect
         x="270"
         y="86.400002"
         width="1674"
         height="554.40002"
         id="rect977" />
    </clipPath>
    <path
       id="DejaVuSans-32-5"
       d="M 1228,531 H 3431 V 0 H 469 v 531 q 359,372 979,998 621,627 780,809 303,340 423,576 121,236 121,464 0,372 -261,606 -261,235 -680,235 -297,0 -627,-103 -329,-103 -704,-313 v 638 q 381,153 712,231 332,78 607,78 725,0 1156,-363 431,-362 431,-968 0,-288 -108,-546 -107,-257 -392,-607 -78,-91 -497,-524 Q 1991,1309 1228,531 Z"
       transform="scale(0.015625)" />
    <path
       id="DejaVuSans-30-3"
       d="m 2034,4250 q -487,0 -733,-480 -245,-479 -245,-1442 0,-959 245,-1439 246,-480 733,-480 491,0 736,480 246,480 246,1439 0,963 -246,1442 -245,480 -736,480 z m 0,500 q 785,0 1199,-621 414,-620 414,-1801 0,-1178 -414,-1799 -414,-620 -1199,-620 -784,0 -1198,620 -414,621 -414,1799 0,1181 414,1801 414,621 1198,621 z"
       transform="scale(0.015625)" />
    <path
       id="DejaVuSans-34-2"
       d="M 2419,4116 825,1625 h 1594 z m -166,550 h 794 V 1625 h 666 V 1100 H 3047 V 0 H 2419 V 1100 H 313 v 609 z"
       transform="scale(0.015625)" />
    <path
       id="DejaVuSans-36-2"
       d="m 2113,2584 q -425,0 -674,-291 -248,-290 -248,-796 0,-503 248,-796 249,-292 674,-292 425,0 673,292 248,293 248,796 0,506 -248,796 -248,291 -673,291 z m 1253,1979 v -575 q -238,112 -480,171 -242,60 -480,60 -625,0 -955,-422 -329,-422 -376,-1275 184,272 462,417 279,145 613,145 703,0 1111,-427 408,-426 408,-1160 0,-719 -425,-1154 -425,-434 -1131,-434 -810,0 -1238,620 -428,621 -428,1799 0,1106 525,1764 525,658 1409,658 238,0 480,-47 242,-47 505,-140 z"
       transform="scale(0.015625)" />
    <path
       id="DejaVuSans-38-9"
       d="m 2034,2216 q -450,0 -708,-241 -257,-241 -257,-662 0,-422 257,-663 258,-241 708,-241 450,0 709,242 260,243 260,662 0,421 -258,662 -257,241 -711,241 z m -631,268 q -406,100 -633,378 -226,279 -226,679 0,559 398,884 399,325 1092,325 697,0 1094,-325 397,-325 397,-884 0,-400 -227,-679 -226,-278 -629,-378 456,-106 710,-416 255,-309 255,-755 Q 3634,634 3220,271 2806,-91 2034,-91 1263,-91 848,271 434,634 434,1313 q 0,446 256,755 257,310 713,416 z m -231,997 q 0,-362 226,-565 227,-203 636,-203 407,0 636,203 230,203 230,565 0,363 -230,566 -229,203 -636,203 -409,0 -636,-203 -226,-203 -226,-566 z"
       transform="scale(0.015625)" />
    <path
       id="DejaVuSans-31-0"
       d="M 794,531 H 1825 V 4091 L 703,3866 v 575 l 1116,225 h 631 V 531 H 3481 V 0 H 794 Z"
       transform="scale(0.015625)" />
  </defs>
  <g
     id="figure_1">
    <g
       id="axes_1">
      <g
         id="patch_2" />
      <g
         id="matplotlib.axis_1"
         transform="translate(-15)">
        <g
           id="xtick_1"
           transform="matrix(2,0,0,2,-671.95372,-739.25445)"
           style="fill:#e5e5e5;fill-opacity:1">
          <g
             id="text_1"
             style="fill:#e5e5e5;fill-opacity:1">
            <!-- 200 -->
            <g
               style="fill:#e5e5e5;fill-opacity:1"
               transform="matrix(0.11,0,0,-0.11,346.418,660.75828)"
               id="g27">
              <defs
                 id="defs19">
                <path
                   id="DejaVuSans-32"
                   d="M 1228,531 H 3431 V 0 H 469 v 531 q 359,372 979,998 621,627 780,809 303,340 423,576 121,236 121,464 0,372 -261,606 -261,235 -680,235 -297,0 -627,-103 -329,-103 -704,-313 v 638 q 381,153 712,231 332,78 607,78 725,0 1156,-363 431,-362 431,-968 0,-288 -108,-546 -107,-257 -392,-607 -78,-91 -497,-524 Q 1991,1309 1228,531 Z"
                   transform="scale(0.015625)" />
                <path
                   id="DejaVuSans-30"
                   d="m 2034,4250 q -487,0 -733,-480 -245,-479 -245,-1442 0,-959 245,-1439 246,-480 733,-480 491,0 736,480 246,480 246,1439 0,963 -246,1442 -245,480 -736,480 z m 0,500 q 785,0 1199,-621 414,-620 414,-1801 0,-1178 -414,-1799 -414,-620 -1199,-620 -784,0 -1198,620 -414,621 -414,1799 0,1181 414,1801 414,621 1198,621 z"
                   transform="scale(0.015625)" />
              </defs>
              <use
                 xlink:href="#DejaVuSans-32"
                 id="use21"
                 style="fill:#e5e5e5;fill-opacity:1" />
              <use
                 xlink:href="#DejaVuSans-30"
                 x="63.623047"
                 id="use23"
                 style="fill:#e5e5e5;fill-opacity:1" />
              <use
                 xlink:href="#DejaVuSans-30"
                 x="127.24609"
                 id="use25"
                 style="fill:#e5e5e5;fill-opacity:1" />
            </g>
          </g>
        </g>
        <g
           id="xtick_2"
           transform="matrix(2,0,0,2,-901.28907,-739.25445)"
           style="fill:#e5e5e5;fill-opacity:1">
          <g
             id="text_2"
             style="fill:#e5e5e5;fill-opacity:1">
            <!-- 400 -->
            <g
               style="fill:#e5e5e5;fill-opacity:1"
               transform="matrix(0.11,0,0,-0.11,575.88741,660.75828)"
               id="g43">
              <defs
                 id="defs35">
                <path
                   id="DejaVuSans-34"
                   d="M 2419,4116 825,1625 h 1594 z m -166,550 h 794 V 1625 h 666 V 1100 H 3047 V 0 H 2419 V 1100 H 313 v 609 z"
                   transform="scale(0.015625)" />
              </defs>
              <use
                 xlink:href="#DejaVuSans-34"
                 id="use37"
                 style="fill:#e5e5e5;fill-opacity:1" />
              <use
                 xlink:href="#DejaVuSans-30"
                 x="63.623047"
                 id="use39"
                 style="fill:#e5e5e5;fill-opacity:1" />
              <use
                 xlink:href="#DejaVuSans-30"
                 x="127.24609"
                 id="use41"
                 style="fill:#e5e5e5;fill-opacity:1" />
            </g>
          </g>
        </g>
        <g
           id="xtick_3"
           transform="matrix(2,0,0,2,-1130.8736,-739.25445)"
           style="fill:#e5e5e5;fill-opacity:1">
          <g
             id="text_3"
             style="fill:#e5e5e5;fill-opacity:1">
            <!-- 600 -->
            <g
               style="fill:#e5e5e5;fill-opacity:1"
               transform="matrix(0.11,0,0,-0.11,805.35682,660.75828)"
               id="g59">
              <defs
                 id="defs51">
                <path
                   id="DejaVuSans-36"
                   d="m 2113,2584 q -425,0 -674,-291 -248,-290 -248,-796 0,-503 248,-796 249,-292 674,-292 425,0 673,292 248,293 248,796 0,506 -248,796 -248,291 -673,291 z m 1253,1979 v -575 q -238,112 -480,171 -242,60 -480,60 -625,0 -955,-422 -329,-422 -376,-1275 184,272 462,417 279,145 613,145 703,0 1111,-427 408,-426 408,-1160 0,-719 -425,-1154 -425,-434 -1131,-434 -810,0 -1238,620 -428,621 -428,1799 0,1106 525,1764 525,658 1409,658 238,0 480,-47 242,-47 505,-140 z"
                   transform="scale(0.015625)" />
              </defs>
              <use
                 xlink:href="#DejaVuSans-36"
                 id="use53"
                 style="fill:#e5e5e5;fill-opacity:1" />
              <use
                 xlink:href="#DejaVuSans-30"
                 x="63.623047"
                 id="use55"
                 style="fill:#e5e5e5;fill-opacity:1" />
              <use
                 xlink:href="#DejaVuSans-30"
                 x="127.24609"
                 id="use57"
                 style="fill:#e5e5e5;fill-opacity:1" />
            </g>
          </g>
        </g>
        <g
           id="xtick_4"
           transform="matrix(2,0,0,2,-1360.3318,-739.25445)"
           style="fill:#e5e5e5;fill-opacity:1">
          <g
             id="text_4"
             style="fill:#e5e5e5;fill-opacity:1">
            <!-- 800 -->
            <g
               style="fill:#e5e5e5;fill-opacity:1"
               transform="matrix(0.11,0,0,-0.11,1034.8262,660.75828)"
               id="g75">
              <defs
                 id="defs67">
                <path
                   id="DejaVuSans-38"
                   d="m 2034,2216 q -450,0 -708,-241 -257,-241 -257,-662 0,-422 257,-663 258,-241 708,-241 450,0 709,242 260,243 260,662 0,421 -258,662 -257,241 -711,241 z m -631,268 q -406,100 -633,378 -226,279 -226,679 0,559 398,884 399,325 1092,325 697,0 1094,-325 397,-325 397,-884 0,-400 -227,-679 -226,-278 -629,-378 456,-106 710,-416 255,-309 255,-755 Q 3634,634 3220,271 2806,-91 2034,-91 1263,-91 848,271 434,634 434,1313 q 0,446 256,755 257,310 713,416 z m -231,997 q 0,-362 226,-565 227,-203 636,-203 407,0 636,203 230,203 230,565 0,363 -230,566 -229,203 -636,203 -409,0 -636,-203 -226,-203 -226,-566 z"
                   transform="scale(0.015625)" />
              </defs>
              <use
                 xlink:href="#DejaVuSans-38"
                 id="use69"
                 style="fill:#e5e5e5;fill-opacity:1" />
              <use
                 xlink:href="#DejaVuSans-30"
                 x="63.623047"
                 id="use71"
                 style="fill:#e5e5e5;fill-opacity:1" />
              <use
                 xlink:href="#DejaVuSans-30"
                 x="127.24609"
                 id="use73"
                 style="fill:#e5e5e5;fill-opacity:1" />
            </g>
          </g>
        </g>
        <g
           id="xtick_5"
           transform="matrix(2,0,0,2,-1590.0324,-739.25445)"
           style="fill:#e5e5e5;fill-opacity:1">
          <g
             id="text_5"
             style="fill:#e5e5e5;fill-opacity:1">
            <!-- 1000 -->
            <g
               style="fill:#e5e5e5;fill-opacity:1"
               transform="matrix(0.11,0,0,-0.11,1260.7963,660.75828)"
               id="g93">
              <defs
                 id="defs83">
                <path
                   id="DejaVuSans-31"
                   d="M 794,531 H 1825 V 4091 L 703,3866 v 575 l 1116,225 h 631 V 531 H 3481 V 0 H 794 Z"
                   transform="scale(0.015625)" />
              </defs>
              <use
                 xlink:href="#DejaVuSans-31"
                 id="use85"
                 style="fill:#e5e5e5;fill-opacity:1" />
              <use
                 xlink:href="#DejaVuSans-30"
                 x="63.623047"
                 id="use87"
                 style="fill:#e5e5e5;fill-opacity:1" />
              <use
                 xlink:href="#DejaVuSans-30"
                 x="127.24609"
                 id="use89"
                 style="fill:#e5e5e5;fill-opacity:1" />
              <use
                 xlink:href="#DejaVuSans-30"
                 x="190.86914"
                 id="use91"
                 style="fill:#e5e5e5;fill-opacity:1" />
            </g>
          </g>
        </g>
        <g
           id="xtick_6"
           transform="matrix(2,0,0,2,-1819.5018,-739.25445)"
           style="fill:#e5e5e5;fill-opacity:1">
          <g
             id="text_6"
             style="fill:#e5e5e5;fill-opacity:1">
            <!-- 1200 -->
            <g
               style="fill:#e5e5e5;fill-opacity:1"
               transform="matrix(0.11,0,0,-0.11,1490.2657,660.75828)"
               id="g108">
              <use
                 xlink:href="#DejaVuSans-31"
                 id="use100"
                 style="fill:#e5e5e5;fill-opacity:1" />
              <use
                 xlink:href="#DejaVuSans-32"
                 x="63.623047"
                 id="use102"
                 style="fill:#e5e5e5;fill-opacity:1" />
              <use
                 xlink:href="#DejaVuSans-30"
                 x="127.24609"
                 id="use104"
                 style="fill:#e5e5e5;fill-opacity:1" />
              <use
                 xlink:href="#DejaVuSans-30"
                 x="190.86914"
                 id="use106"
                 style="fill:#e5e5e5;fill-opacity:1" />
            </g>
          </g>
        </g>
        <g
           id="xtick_7"
           transform="matrix(2,0,0,2,-1418.9712,-544.25445)"
           style="fill:#e5e5e5;fill-opacity:1">
          <g
             id="text_7"
             transform="translate(-315,-97.5)"
             style="fill:#e5e5e5;fill-opacity:1">
            <!-- 1400 -->
            <g
               style="fill:#e5e5e5;fill-opacity:1"
               transform="matrix(0.11,0,0,-0.11,1719.7351,660.75828)"
               id="g123">
              <use
                 xlink:href="#DejaVuSans-31"
                 id="use115"
                 style="fill:#e5e5e5;fill-opacity:1" />
              <use
                 xlink:href="#DejaVuSans-34"
                 x="63.623047"
                 id="use117"
                 style="fill:#e5e5e5;fill-opacity:1" />
              <use
                 xlink:href="#DejaVuSans-30"
                 x="127.24609"
                 id="use119"
                 style="fill:#e5e5e5;fill-opacity:1" />
              <use
                 xlink:href="#DejaVuSans-30"
                 x="190.86914"
                 id="use121"
                 style="fill:#e5e5e5;fill-opacity:1" />
            </g>
          </g>
        </g>
      </g>
      <g
         id="patch_3"
         transform="translate(-330,-97.5)"
         style="fill:#35b996;fill-opacity:1;stroke:#e5e5e5;stroke-opacity:1">
        <path
           d="m 726.54545,640.8 h 19.02273 v -19.87837 h -19.02273 z"
           clip-path="url(#pa5b49a8172)"
           style="fill:#35b996;stroke:#e5e5e5;stroke-linejoin:miter;fill-opacity:1;stroke-opacity:1"
           id="path278" />
      </g>
      <g
         id="patch_4"
         transform="translate(-330,-97.5)"
         style="fill:#35b996;fill-opacity:1;stroke:#e5e5e5;stroke-opacity:1">
        <path
           d="m 745.56818,640.8 h 19.02273 V 529.48115 h -19.02273 z"
           clip-path="url(#pa5b49a8172)"
           style="fill:#35b996;stroke:#e5e5e5;stroke-linejoin:miter;fill-opacity:1;stroke-opacity:1"
           id="path281" />
      </g>
      <g
         id="patch_5"
         transform="translate(-330,-97.5)"
         style="fill:#35b996;fill-opacity:1;stroke:#e5e5e5;stroke-opacity:1">
        <path
           d="m 764.59091,640.8 h 19.02273 V 425.19618 h -19.02273 z"
           clip-path="url(#pa5b49a8172)"
           style="fill:#35b996;stroke:#e5e5e5;stroke-linejoin:miter;fill-opacity:1;stroke-opacity:1"
           id="path284" />
      </g>
      <g
         id="patch_6"
         transform="translate(-330,-97.5)"
         style="fill:#35b996;fill-opacity:1;stroke:#e5e5e5;stroke-opacity:1">
        <path
           d="m 783.61364,640.8 h 19.02272 V 353.02242 h -19.02272 z"
           clip-path="url(#pa5b49a8172)"
           style="fill:#35b996;stroke:#e5e5e5;stroke-linejoin:miter;fill-opacity:1;stroke-opacity:1"
           id="path287" />
      </g>
      <g
         id="patch_7"
         transform="translate(-330,-97.5)"
         style="fill:#35b996;fill-opacity:1;stroke:#e5e5e5;stroke-opacity:1">
        <path
           d="m 802.63636,640.8 h 19.02273 V 319.3821 h -19.02273 z"
           clip-path="url(#pa5b49a8172)"
           style="fill:#35b996;stroke:#e5e5e5;stroke-linejoin:miter;fill-opacity:1;stroke-opacity:1"
           id="path290" />
      </g>
      <g
         id="patch_8"
         transform="translate(-330,-97.5)"
         style="fill:#35b996;fill-opacity:1;stroke:#e5e5e5;stroke-opacity:1">
        <path
           d="m 821.65909,640.8 h 19.02273 V 266.16924 h -19.02273 z"
           clip-path="url(#pa5b49a8172)"
           style="fill:#35b996;stroke:#e5e5e5;stroke-linejoin:miter;fill-opacity:1;stroke-opacity:1"
           id="path293" />
      </g>
      <g
         id="patch_9"
         transform="translate(-330,-97.5)"
         style="fill:#35b996;fill-opacity:1;stroke:#e5e5e5;stroke-opacity:1">
        <path
           d="m 840.68182,640.8 h 19.02273 V 192.31347 h -19.02273 z"
           clip-path="url(#pa5b49a8172)"
           style="fill:#35b996;stroke:#e5e5e5;stroke-linejoin:miter;fill-opacity:1;stroke-opacity:1"
           id="path296" />
      </g>
      <g
         id="patch_10"
         transform="translate(-330,-97.5)"
         style="fill:#35b996;fill-opacity:1;stroke:#e5e5e5;stroke-opacity:1">
        <path
           d="m 859.70455,640.8 h 19.02272 V 135.73658 h -19.02272 z"
           clip-path="url(#pa5b49a8172)"
           style="fill:#35b996;stroke:#e5e5e5;stroke-linejoin:miter;fill-opacity:1;stroke-opacity:1"
           id="path299" />
      </g>
      <g
         id="patch_11"
         transform="translate(-330,-97.5)"
         style="fill:#35b996;fill-opacity:1;stroke:#e5e5e5;stroke-opacity:1">
        <path
           d="M 878.72727,640.8 H 897.75 v -528 h -19.02273 z"
           clip-path="url(#pa5b49a8172)"
           style="fill:#35b996;stroke:#e5e5e5;stroke-linejoin:miter;fill-opacity:1;stroke-opacity:1"
           id="path302" />
      </g>
      <g
         id="patch_12"
         transform="translate(-330,-97.5)"
         style="fill:#35b996;fill-opacity:1;stroke:#e5e5e5;stroke-opacity:1">
        <path
           d="m 897.75,640.8 h 19.02273 V 163.87211 H 897.75 Z"
           clip-path="url(#pa5b49a8172)"
           style="fill:#35b996;stroke:#e5e5e5;stroke-linejoin:miter;fill-opacity:1;stroke-opacity:1"
           id="path305" />
      </g>
      <g
         id="patch_13"
         transform="translate(-330,-97.5)"
         style="fill:#35b996;fill-opacity:1;stroke:#e5e5e5;stroke-opacity:1">
        <path
           d="m 916.77273,640.8 h 19.02272 V 220.75482 h -19.02272 z"
           clip-path="url(#pa5b49a8172)"
           style="fill:#35b996;stroke:#e5e5e5;stroke-linejoin:miter;fill-opacity:1;stroke-opacity:1"
           id="path308" />
      </g>
      <g
         id="patch_14"
         transform="translate(-330,-97.5)"
         style="fill:#35b996;fill-opacity:1;stroke:#e5e5e5;stroke-opacity:1">
        <path
           d="m 935.79545,640.8 h 19.02273 V 270.90947 h -19.02273 z"
           clip-path="url(#pa5b49a8172)"
           style="fill:#35b996;stroke:#e5e5e5;stroke-linejoin:miter;fill-opacity:1;stroke-opacity:1"
           id="path311" />
      </g>
      <g
         id="patch_15"
         transform="translate(-330,-97.5)"
         style="fill:#35b996;fill-opacity:1;stroke:#e5e5e5;stroke-opacity:1">
        <path
           d="m 954.81818,640.8 h 19.02273 V 346.60017 h -19.02273 z"
           clip-path="url(#pa5b49a8172)"
           style="fill:#35b996;stroke:#e5e5e5;stroke-linejoin:miter;fill-opacity:1;stroke-opacity:1"
           id="path314" />
      </g>
      <g
         id="patch_16"
         transform="translate(-330,-97.5)"
         style="fill:#35b996;fill-opacity:1;stroke:#e5e5e5;stroke-opacity:1">
        <path
           d="m 973.84091,640.8 h 19.02273 V 408.0702 h -19.02273 z"
           clip-path="url(#pa5b49a8172)"
           style="fill:#35b996;stroke:#e5e5e5;stroke-linejoin:miter;fill-opacity:1;stroke-opacity:1"
           id="path317" />
      </g>
      <g
         id="patch_17"
         transform="translate(-330,-97.5)"
         style="fill:#35b996;fill-opacity:1;stroke:#e5e5e5;stroke-opacity:1">
        <path
           d="m 992.86364,640.8 h 19.02276 V 434.06499 h -19.02276 z"
           clip-path="url(#pa5b49a8172)"
           style="fill:#35b996;stroke:#e5e5e5;stroke-linejoin:miter;fill-opacity:1;stroke-opacity:1"
           id="path320" />
      </g>
      <g
         id="patch_18"
         transform="translate(-330,-97.5)"
         style="fill:#35b996;fill-opacity:1;stroke:#e5e5e5;stroke-opacity:1">
        <path
           d="m 1011.8864,640.8 h 19.0227 V 456.84865 h -19.0227 z"
           clip-path="url(#pa5b49a8172)"
           style="fill:#35b996;stroke:#e5e5e5;stroke-linejoin:miter;fill-opacity:1;stroke-opacity:1"
           id="path323" />
      </g>
      <g
         id="patch_19"
         transform="translate(-330,-97.5)"
         style="fill:#35b996;fill-opacity:1;stroke:#e5e5e5;stroke-opacity:1">
        <path
           d="m 1030.9091,640.8 h 19.0227 V 484.21963 h -19.0227 z"
           clip-path="url(#pa5b49a8172)"
           style="fill:#35b996;stroke:#e5e5e5;stroke-linejoin:miter;fill-opacity:1;stroke-opacity:1"
           id="path326" />
      </g>
      <g
         id="patch_20"
         transform="translate(-330,-97.5)"
         style="fill:#35b996;fill-opacity:1;stroke:#e5e5e5;stroke-opacity:1">
        <path
           d="m 1049.9318,640.8 h 19.0227 V 494.46464 h -19.0227 z"
           clip-path="url(#pa5b49a8172)"
           style="fill:#35b996;stroke:#e5e5e5;stroke-linejoin:miter;fill-opacity:1;stroke-opacity:1"
           id="path329" />
      </g>
      <g
         id="patch_21"
         transform="translate(-330,-97.5)"
         style="fill:#35b996;fill-opacity:1;stroke:#e5e5e5;stroke-opacity:1">
        <path
           d="m 1068.9545,640.8 h 19.0228 V 521.37689 h -19.0228 z"
           clip-path="url(#pa5b49a8172)"
           style="fill:#35b996;stroke:#e5e5e5;stroke-linejoin:miter;fill-opacity:1;stroke-opacity:1"
           id="path332" />
      </g>
      <g
         id="patch_22"
         transform="translate(-330,-97.5)"
         style="fill:#35b996;fill-opacity:1;stroke:#e5e5e5;stroke-opacity:1">
        <path
           d="M 1087.9773,640.8 H 1107 V 532.69227 h -19.0227 z"
           clip-path="url(#pa5b49a8172)"
           style="fill:#35b996;stroke:#e5e5e5;stroke-linejoin:miter;fill-opacity:1;stroke-opacity:1"
           id="path335" />
      </g>
      <g
         id="patch_23"
         transform="translate(-330,-97.5)"
         style="fill:#35b996;fill-opacity:1;stroke:#e5e5e5;stroke-opacity:1">
        <path
           d="m 1107,640.8 h 19.0227 V 550.12407 H 1107 Z"
           clip-path="url(#pa5b49a8172)"
           style="fill:#35b996;stroke:#e5e5e5;stroke-linejoin:miter;fill-opacity:1;stroke-opacity:1"
           id="path338" />
      </g>
      <g
         id="patch_24"
         transform="translate(-330,-97.5)"
         style="fill:#35b996;fill-opacity:1;stroke:#e5e5e5;stroke-opacity:1">
        <path
           d="m 1126.0227,640.8 h 19.0228 v -82.26586 h -19.0228 z"
           clip-path="url(#pa5b49a8172)"
           style="fill:#35b996;stroke:#e5e5e5;stroke-linejoin:miter;fill-opacity:1;stroke-opacity:1"
           id="path341" />
      </g>
      <g
         id="patch_25"
         transform="translate(-330,-97.5)"
         style="fill:#35b996;fill-opacity:1;stroke:#e5e5e5;stroke-opacity:1">
        <path
           d="m 1145.0455,640.8 h 19.0227 v -77.0669 h -19.0227 z"
           clip-path="url(#pa5b49a8172)"
           style="fill:#35b996;stroke:#e5e5e5;stroke-linejoin:miter;fill-opacity:1;stroke-opacity:1"
           id="path344" />
      </g>
      <g
         id="patch_26"
         transform="translate(-330,-97.5)"
         style="fill:#35b996;fill-opacity:1;stroke:#e5e5e5;stroke-opacity:1">
        <path
           d="m 1164.0682,640.8 h 19.0227 v -73.85578 h -19.0227 z"
           clip-path="url(#pa5b49a8172)"
           style="fill:#35b996;stroke:#e5e5e5;stroke-linejoin:miter;fill-opacity:1;stroke-opacity:1"
           id="path347" />
      </g>
      <g
         id="patch_27"
         transform="translate(-330,-97.5)"
         style="fill:#35b996;fill-opacity:1;stroke:#e5e5e5;stroke-opacity:1">
        <path
           d="m 1183.0909,640.8 h 19.0227 v -54.58905 h -19.0227 z"
           clip-path="url(#pa5b49a8172)"
           style="fill:#35b996;stroke:#e5e5e5;stroke-linejoin:miter;fill-opacity:1;stroke-opacity:1"
           id="path350" />
      </g>
      <g
         id="patch_28"
         transform="translate(-330,-97.5)"
         style="fill:#35b996;fill-opacity:1;stroke:#e5e5e5;stroke-opacity:1">
        <path
           d="m 1202.1136,640.8 h 19.0228 v -47.24935 h -19.0228 z"
           clip-path="url(#pa5b49a8172)"
           style="fill:#35b996;stroke:#e5e5e5;stroke-linejoin:miter;fill-opacity:1;stroke-opacity:1"
           id="path353" />
      </g>
      <g
         id="patch_29"
         transform="translate(-330,-97.5)"
         style="fill:#35b996;fill-opacity:1;stroke:#e5e5e5;stroke-opacity:1">
        <path
           d="m 1221.1364,640.8 h 19.0227 v -40.98002 h -19.0227 z"
           clip-path="url(#pa5b49a8172)"
           style="fill:#35b996;stroke:#e5e5e5;stroke-linejoin:miter;fill-opacity:1;stroke-opacity:1"
           id="path356" />
      </g>
      <g
         id="patch_30"
         transform="translate(-330,-97.5)"
         style="fill:#35b996;fill-opacity:1;stroke:#e5e5e5;stroke-opacity:1">
        <path
           d="m 1240.1591,640.8 h 19.0227 v -37.15726 h -19.0227 z"
           clip-path="url(#pa5b49a8172)"
           style="fill:#35b996;stroke:#e5e5e5;stroke-linejoin:miter;fill-opacity:1;stroke-opacity:1"
           id="path359" />
      </g>
      <g
         id="patch_31"
         transform="translate(-330,-97.5)"
         style="fill:#35b996;fill-opacity:1;stroke:#e5e5e5;stroke-opacity:1">
        <path
           d="m 1259.1818,640.8 h 19.0227 v -28.59427 h -19.0227 z"
           clip-path="url(#pa5b49a8172)"
           style="fill:#35b996;stroke:#e5e5e5;stroke-linejoin:miter;fill-opacity:1;stroke-opacity:1"
           id="path362" />
      </g>
      <g
         id="patch_32"
         transform="translate(-330,-97.5)"
         style="fill:#35b996;fill-opacity:1;stroke:#e5e5e5;stroke-opacity:1">
        <path
           d="m 1278.2045,640.8 h 19.0228 v -18.19635 h -19.0228 z"
           clip-path="url(#pa5b49a8172)"
           style="fill:#35b996;stroke:#e5e5e5;stroke-linejoin:miter;fill-opacity:1;stroke-opacity:1"
           id="path365" />
      </g>
      <g
         id="patch_33"
         transform="translate(-330,-97.5)"
         style="fill:#35b996;fill-opacity:1;stroke:#e5e5e5;stroke-opacity:1">
        <path
           d="m 1297.2273,640.8 h 19.0227 v -12.84448 h -19.0227 z"
           clip-path="url(#pa5b49a8172)"
           style="fill:#35b996;stroke:#e5e5e5;stroke-linejoin:miter;fill-opacity:1;stroke-opacity:1"
           id="path368" />
      </g>
      <g
         id="patch_34"
         transform="translate(-330,-97.5)"
         style="fill:#35b996;fill-opacity:1;stroke:#e5e5e5;stroke-opacity:1">
        <path
           d="m 1316.25,640.8 h 19.0227 v -9.32754 H 1316.25 Z"
           clip-path="url(#pa5b49a8172)"
           style="fill:#35b996;stroke:#e5e5e5;stroke-linejoin:miter;fill-opacity:1;stroke-opacity:1"
           id="path371" />
      </g>
      <g
         id="patch_35"
         transform="translate(-330,-97.5)"
         style="fill:#35b996;fill-opacity:1;stroke:#e5e5e5;stroke-opacity:1">
        <path
           d="m 1335.2727,640.8 h 19.0228 v -6.26933 h -19.0228 z"
           clip-path="url(#pa5b49a8172)"
           style="fill:#35b996;stroke:#e5e5e5;stroke-linejoin:miter;fill-opacity:1;stroke-opacity:1"
           id="path374" />
      </g>
      <g
         id="patch_36"
         transform="translate(-330,-97.5)"
         style="fill:#35b996;fill-opacity:1;stroke:#e5e5e5;stroke-opacity:1">
        <path
           d="m 1354.2955,640.8 h 19.0227 v -4.28149 h -19.0227 z"
           clip-path="url(#pa5b49a8172)"
           style="fill:#35b996;stroke:#e5e5e5;stroke-linejoin:miter;fill-opacity:1;stroke-opacity:1"
           id="path377" />
      </g>
      <g
         id="patch_37"
         transform="translate(-330,-97.5)"
         style="fill:#35b996;fill-opacity:1;stroke:#e5e5e5;stroke-opacity:1">
        <path
           d="m 1373.3182,640.8 h 19.0227 v -1.98784 h -19.0227 z"
           clip-path="url(#pa5b49a8172)"
           style="fill:#35b996;stroke:#e5e5e5;stroke-linejoin:miter;fill-opacity:1;stroke-opacity:1"
           id="path380" />
      </g>
      <g
         id="patch_38"
         transform="translate(-330,-97.5)"
         style="fill:#35b996;fill-opacity:1;stroke:#e5e5e5;stroke-opacity:1">
        <path
           d="m 1392.3409,640.8 h 19.0227 v -1.83493 h -19.0227 z"
           clip-path="url(#pa5b49a8172)"
           style="fill:#35b996;stroke:#e5e5e5;stroke-linejoin:miter;fill-opacity:1;stroke-opacity:1"
           id="path383" />
      </g>
      <g
         id="patch_39"
         transform="translate(-330,-97.5)"
         style="fill:#35b996;fill-opacity:1;stroke:#e5e5e5;stroke-opacity:1">
        <path
           d="m 1411.3636,640.8 h 19.0228 v -0.91746 h -19.0228 z"
           clip-path="url(#pa5b49a8172)"
           style="fill:#35b996;stroke:#e5e5e5;stroke-linejoin:miter;fill-opacity:1;stroke-opacity:1"
           id="path386" />
      </g>
      <g
         id="patch_40"
         transform="translate(-330,-97.5)"
         style="fill:#35b996;fill-opacity:1;stroke:#e5e5e5;stroke-opacity:1">
        <path
           d="m 1430.3864,640.8 h 19.0227 v -0.61164 h -19.0227 z"
           clip-path="url(#pa5b49a8172)"
           style="fill:#35b996;stroke:#e5e5e5;stroke-linejoin:miter;fill-opacity:1;stroke-opacity:1"
           id="path389" />
      </g>
      <g
         id="patch_41"
         transform="translate(-330,-97.5)"
         style="fill:#35b996;fill-opacity:1;stroke:#e5e5e5;stroke-opacity:1">
        <path
           d="m 1449.4091,640.8 h 19.0227 v -0.30582 h -19.0227 z"
           clip-path="url(#pa5b49a8172)"
           style="fill:#35b996;stroke:#e5e5e5;stroke-linejoin:miter;fill-opacity:1;stroke-opacity:1"
           id="path392" />
      </g>
      <g
         id="patch_42"
         transform="translate(-330,-97.5)"
         style="fill:#35b996;fill-opacity:1;stroke:#e5e5e5;stroke-opacity:1">
        <path
           d="m 1468.4318,640.8 h 19.0227 v -0.30582 h -19.0227 z"
           clip-path="url(#pa5b49a8172)"
           style="fill:#35b996;stroke:#e5e5e5;stroke-linejoin:miter;fill-opacity:1;stroke-opacity:1"
           id="path395" />
      </g>
      <g
         id="line2d_1-8"
         style="stroke-linecap:butt;stroke-linejoin:round;stroke:#000000;stroke-opacity:1;stroke-width:2;stroke-dasharray:none"
         transform="translate(-329.93326,-73.335636)">
        <path
           d="m 346.09091,615.6 347.32187,-0.0872 6.09336,-0.21163 4.57003,-0.38877 3.04668,-0.46244 3.04668,-0.71326 3.04669,-1.06417 1.52334,-0.70102 1.52334,-0.83613 1.52334,-0.98952 1.52334,-1.162 1.52334,-1.35419 1.52334,-1.56633 1.52335,-1.79834 1.52334,-2.0497 1.52334,-2.31946 1.52334,-2.60626 1.52334,-2.90825 1.52334,-3.22323 1.52335,-3.54856 1.52334,-3.88132 1.52334,-4.21829 3.04668,-9.44731 3.04669,-10.75966 3.04668,-11.98182 3.04668,-13.06412 3.04668,-13.96548 4.57003,-22.17095 13.71007,-68.09226 4.57003,-20.94383 3.04668,-13.05807 3.04668,-12.25238 3.04669,-11.41832 3.04668,-10.59091 3.04668,-9.80214 3.04669,-9.08055 3.04668,-8.45051 3.04668,-7.93141 4.57003,-11.1975 15.23341,-36.29649 4.57003,-11.8942 3.04668,-8.41845 3.04668,-8.86887 3.04668,-9.35106 4.57003,-14.93155 4.57002,-15.87207 13.71008,-48.58112 3.04668,-9.73504 3.04668,-8.92463 3.04669,-7.9624 3.04668,-6.88218 1.52334,-3.00791 1.52334,-2.70762 1.52334,-2.40054 1.52335,-2.0879 1.52334,-1.77077 1.52334,-1.45017 1.52334,-1.12702 1.52334,-0.80236 1.52334,-0.47729 1.52335,-0.15309 1.52334,0.16874 1.52334,0.48654 1.52334,0.79839 1.52334,1.1023 1.52334,1.39617 1.52334,1.67795 1.52335,1.94572 1.52334,2.19781 1.52334,2.43288 3.04668,5.49894 3.04668,6.22183 3.04669,6.80788 3.04668,7.27737 4.57003,11.60437 4.57002,12.24914 6.09337,17.08364 7.6167,22.17095 7.61671,22.88635 6.09337,19.06903 6.09336,20.00738 7.61671,26.11282 7.61671,26.16187 4.57002,14.95948 3.04669,9.4087 3.04668,8.83169 3.04668,8.17422 3.04669,7.47122 3.04668,6.76427 3.04668,6.09614 3.04668,5.50432 3.04669,5.01512 3.04668,4.64027 4.57002,6.49703 7.6167,10.27322 12.1867,16.02933 6.0934,7.60995 4.57,5.31454 4.5701,4.87516 4.57,4.42305 4.57,4.06398 10.6634,9.2245 4.57,4.33181 4.5701,4.66899 13.71,14.49104 4.57,4.34144 4.5701,3.96901 4.57,3.68128 10.6634,8.16899 9.14,6.88997 4.5701,3.2008 3.0466,1.94251 3.0467,1.74631 3.0467,1.52979 3.0467,1.31109 3.0467,1.1073 4.57,1.34265 4.57,1.07372 12.1868,2.62184 4.57,1.31487 3.0467,1.08708 3.0466,1.28467 3.0467,1.4899 3.0467,1.68564 4.57,2.837 6.0934,4.14268 7.6167,5.21796 4.57,2.88673 4.5701,2.57973 4.57,2.24431 4.57,1.94711 6.0934,2.27432 7.6167,2.573 9.14,2.87109 19.8035,6.04786 6.0933,2.1338 7.6167,2.93838 9.1401,3.82956 15.2334,6.47328 6.0934,2.31157 6.0933,2.02294 6.0934,1.72879 6.0934,1.47908 7.6167,1.58257 7.6167,1.35855 9.14,1.39015 10.6634,1.36883 19.8035,2.25682 10.6634,1.06318 7.6167,0.55536 7.6167,0.33535 13.7101,0.29626 68.5503,1.25487 190.4177,0.18391 h 201.0811 v 0"
           clip-path="url(#pbbca6e5ec2)"
           style="fill:none;stroke:#e5e5e5;stroke-width:2;stroke-linecap:round;stroke-linejoin:round;stroke-opacity:1;stroke-dasharray:none"
           id="path960" />
      </g>
    </g>
  </g>
  <defs
     id="defs418">
    <clipPath
       id="pa5b49a8172">
      <rect
         x="270"
         y="86.400002"
         width="1674"
         height="554.40002"
         id="rect415" />
    </clipPath>
  </defs>
</svg>
