<?xml version="1.0" encoding="UTF-8" standalone="no"?>
<svg
   width="186.728pt"
   height="262.345pt"
   viewBox="0 0 186.728 262.345"
   version="1.1"
   id="svg12135"
   sodipodi:docname="legend_reg.svg"
   inkscape:version="1.3 (0e150ed6c4, 2023-07-21)"
   inkscape:export-filename="comparison_10foldCV_rmse_regressors.pdf"
   inkscape:export-xdpi="400"
   inkscape:export-ydpi="400"
   xmlns:inkscape="http://www.inkscape.org/namespaces/inkscape"
   xmlns:sodipodi="http://sodipodi.sourceforge.net/DTD/sodipodi-0.dtd"
   xmlns="http://www.w3.org/2000/svg"
   xmlns:svg="http://www.w3.org/2000/svg"
   xmlns:rdf="http://www.w3.org/1999/02/22-rdf-syntax-ns#"
   xmlns:cc="http://creativecommons.org/ns#"
   xmlns:dc="http://purl.org/dc/elements/1.1/">
  <sodipodi:namedview
     id="namedview12137"
     pagecolor="#121212"
     bordercolor="#666666"
     borderopacity="1.0"
     inkscape:showpageshadow="2"
     inkscape:pageopacity="0.0"
     inkscape:pagecheckerboard="0"
     inkscape:deskcolor="#d1d1d1"
     inkscape:document-units="pt"
     showgrid="false"
     inkscape:zoom="3.54675"
     inkscape:cx="70.346091"
     inkscape:cy="318.31959"
     inkscape:window-width="1920"
     inkscape:window-height="1043"
     inkscape:window-x="0"
     inkscape:window-y="0"
     inkscape:window-maximized="1"
     inkscape:current-layer="svg12135"
     showguides="true" />
  <metadata
     id="metadata11072">
    <rdf:RDF>
      <cc:Work>
        <dc:type
           rdf:resource="http://purl.org/dc/dcmitype/StillImage" />
        <dc:date>2023-05-02T11:15:02.769979</dc:date>
        <dc:format>image/svg+xml</dc:format>
        <dc:creator>
          <cc:Agent>
            <dc:title>Matplotlib v3.6.3, https://matplotlib.org/</dc:title>
          </cc:Agent>
        </dc:creator>
      </cc:Work>
    </rdf:RDF>
  </metadata>
  <defs
     id="defs11076">
    <style
       type="text/css"
       id="style11074">*{stroke-linejoin: round; stroke-linecap: butt}</style>
    <rect
       x="903.46893"
       y="97.072662"
       width="238.4837"
       height="45.431919"
       id="rect2431" />
    <rect
       x="903.46893"
       y="97.072662"
       width="238.4837"
       height="45.431919"
       id="rect2431-3" />
    <rect
       x="903.46893"
       y="97.072662"
       width="238.4837"
       height="45.431919"
       id="rect2431-7" />
    <rect
       x="903.46893"
       y="97.072662"
       width="238.4837"
       height="45.431919"
       id="rect2431-35" />
    <rect
       x="903.46893"
       y="97.072662"
       width="238.4837"
       height="45.431919"
       id="rect2431-9" />
    <rect
       x="903.46893"
       y="97.072662"
       width="238.4837"
       height="45.431919"
       id="rect2431-2" />
    <rect
       x="903.46893"
       y="97.072662"
       width="238.4837"
       height="45.431919"
       id="rect2431-0" />
    <rect
       x="903.46893"
       y="97.072662"
       width="238.4837"
       height="45.431919"
       id="rect2431-0-3" />
    <rect
       x="903.46893"
       y="97.072662"
       width="238.4837"
       height="45.431919"
       id="rect12540" />
    <rect
       x="903.46893"
       y="97.072662"
       width="238.4837"
       height="45.431919"
       id="rect12542" />
    <rect
       x="903.46893"
       y="97.072662"
       width="238.4837"
       height="45.431919"
       id="rect12544" />
    <defs
       id="defs11788">
      <path
         id="m5581c67dd0"
         d="M 0,3 C 0.795609,3 1.55874,2.683901 2.12132,2.12132 2.683901,1.55874 3,0.795609 3,0 3,-0.795609 2.683901,-1.55874 2.12132,-2.12132 1.55874,-2.683901 0.795609,-3 0,-3 -0.795609,-3 -1.55874,-2.683901 -2.12132,-2.12132 -2.683901,-1.55874 -3,-0.795609 -3,0 -3,0.795609 -2.683901,1.55874 -2.12132,2.12132 -1.55874,2.683901 -0.795609,3 0,3 Z"
         style="stroke:#000000" />
    </defs>
    <clipPath
       clipPathUnits="userSpaceOnUse"
       id="clipPath1">
      <g
         id="g2"
         transform="translate(141,39)">
        <rect
           x="-51"
           y="12.84"
           width="558"
           height="332.64001"
           id="rect2" />
      </g>
    </clipPath>
    <clipPath
       clipPathUnits="userSpaceOnUse"
       id="clipPath3">
      <g
         id="g4"
         transform="translate(105,39)">
        <rect
           x="-15"
           y="12.84"
           width="558"
           height="332.64001"
           id="rect4" />
      </g>
    </clipPath>
    <clipPath
       clipPathUnits="userSpaceOnUse"
       id="clipPath5">
      <g
         id="g6"
         transform="translate(93,39)">
        <rect
           x="-3"
           y="12.84"
           width="558"
           height="332.64001"
           id="rect6" />
      </g>
    </clipPath>
    <clipPath
       clipPathUnits="userSpaceOnUse"
       id="clipPath7">
      <g
         id="g8"
         transform="translate(153,39)">
        <rect
           x="-63"
           y="12.84"
           width="558"
           height="332.64001"
           id="rect8" />
      </g>
    </clipPath>
    <clipPath
       clipPathUnits="userSpaceOnUse"
       id="clipPath8">
      <g
         id="g9"
         transform="translate(153,39)">
        <rect
           x="-63"
           y="12.84"
           width="558"
           height="332.64001"
           id="rect9" />
      </g>
    </clipPath>
    <clipPath
       clipPathUnits="userSpaceOnUse"
       id="clipPath10">
      <g
         id="g11"
         transform="translate(69,39)">
        <rect
           x="21"
           y="12.84"
           width="558"
           height="332.64001"
           id="rect11" />
      </g>
    </clipPath>
    <rect
       x="903.46893"
       y="97.072662"
       width="238.4837"
       height="45.431919"
       id="rect2431-36" />
    <rect
       x="903.46893"
       y="97.072662"
       width="238.4837"
       height="45.431919"
       id="rect2431-3-7" />
    <rect
       x="903.46893"
       y="97.072662"
       width="238.4837"
       height="45.431919"
       id="rect2431-7-5" />
    <rect
       x="903.46893"
       y="97.072662"
       width="238.4837"
       height="45.431919"
       id="rect2431-35-3" />
    <rect
       x="903.46893"
       y="97.072662"
       width="238.4837"
       height="45.431919"
       id="rect2431-9-5" />
    <rect
       x="903.46893"
       y="97.072662"
       width="238.4837"
       height="45.431919"
       id="rect2431-2-6" />
    <rect
       x="903.46893"
       y="97.072662"
       width="238.4837"
       height="45.431919"
       id="rect2431-0-2" />
    <rect
       x="903.46893"
       y="97.072662"
       width="238.4837"
       height="45.431919"
       id="rect2431-0-3-9" />
    <rect
       x="903.46893"
       y="97.072662"
       width="238.4837"
       height="45.431919"
       id="rect12540-1" />
    <rect
       x="903.46893"
       y="97.072662"
       width="238.4837"
       height="45.431919"
       id="rect12544-2" />
  </defs>
  <defs
     id="defs12133">
    <clipPath
       id="p671270d349">
      <rect
         x="90"
         y="51.84"
         width="558"
         height="332.64001"
         id="rect12130" />
    </clipPath>
  </defs>
  <path
     style="font-size:16px;line-height:1.25;font-family:Roboto;-inkscape-font-specification:Roboto;white-space:pre;fill:#e5e5e5"
     d="m 908.96094,107.18303 h -2.67188 v 4.60156 h -1.50781 v -11.375 h 3.76562 q 1.92188,0 2.95313,0.875 1.03906,0.875 1.03906,2.54688 0,1.0625 -0.57812,1.85156 -0.57032,0.78906 -1.59375,1.17969 l 2.67187,4.82812 v 0.0937 h -1.60937 z m -2.67188,-1.22656 h 2.30469 q 1.11719,0 1.77344,-0.57813 0.66406,-0.57812 0.66406,-1.54687 0,-1.05469 -0.63281,-1.61719 -0.625,-0.5625 -1.8125,-0.57031 h -2.29688 z m 13.34375,5.82812 q -0.125,-0.25 -0.20312,-0.89062 -1.00782,1.04687 -2.40625,1.04687 -1.25,0 -2.05469,-0.70312 -0.79688,-0.71094 -0.79688,-1.79688 0,-1.32031 1,-2.04687 1.00782,-0.73438 2.82813,-0.73438 h 1.40625 v -0.66406 q 0,-0.75781 -0.45313,-1.20312 -0.45312,-0.45313 -1.33593,-0.45313 -0.77344,0 -1.29688,0.39063 -0.52344,0.39062 -0.52344,0.94531 h -1.45312 q 0,-0.63281 0.44531,-1.21875 0.45313,-0.59375 1.21875,-0.9375 0.77344,-0.34375 1.69531,-0.34375 1.46094,0 2.28907,0.73437 0.82812,0.72657 0.85937,2.00782 v 3.89062 q 0,1.16406 0.29688,1.85156 v 0.125 z m -2.39844,-1.10156 q 0.67969,0 1.28907,-0.35156 0.60937,-0.35156 0.88281,-0.91406 v -1.73438 h -1.13281 q -2.65625,0 -2.65625,1.55469 0,0.67969 0.45312,1.0625 0.45313,0.38281 1.16406,0.38281 z m 7.25,-7.35156 0.0469,1.0625 q 0.96875,-1.21875 2.53125,-1.21875 2.67969,0 2.70312,3.02344 v 5.58593 h -1.44531 v -5.59375 q -0.008,-0.91406 -0.42187,-1.35156 -0.40625,-0.4375 -1.27344,-0.4375 -0.70313,0 -1.23438,0.375 -0.53125,0.375 -0.82812,0.98438 v 6.02343 h -1.44531 v -8.45312 z m 7.10938,4.15625 q 0,-1.94531 0.92187,-3.125 0.92188,-1.1875 2.41407,-1.1875 1.48437,0 2.35156,1.01562 v -4.406246 h 1.44531 v 11.999996 h -1.32812 l -0.0703,-0.90625 q -0.86718,1.0625 -2.41406,1.0625 -1.46875,0 -2.39844,-1.20312 -0.92187,-1.20313 -0.92187,-3.14063 z m 1.44531,0.16406 q 0,1.4375 0.59375,2.25 0.59375,0.8125 1.64063,0.8125 1.375,0 2.00781,-1.23437 v -3.88282 q -0.64844,-1.19531 -1.99219,-1.19531 -1.0625,0 -1.65625,0.82031 -0.59375,0.82032 -0.59375,2.42969 z m 7.54688,-0.17187 q 0,-1.24219 0.48437,-2.23438 0.49219,-0.99219 1.35938,-1.53125 0.875,-0.53906 1.99218,-0.53906 1.72657,0 2.78907,1.19531 1.07031,1.19531 1.07031,3.17969 v 0.10156 q 0,1.23438 -0.47656,2.21875 -0.46875,0.97656 -1.35157,1.52344 -0.875,0.54687 -2.01562,0.54687 -1.71875,0 -2.78906,-1.19531 -1.0625,-1.19531 -1.0625,-3.16406 z m 1.45312,0.17187 q 0,1.40625 0.64844,2.25781 0.65625,0.85157 1.75,0.85157 1.10156,0 1.75,-0.85938 0.64844,-0.86719 0.64844,-2.42187 0,-1.39063 -0.66407,-2.25 -0.65625,-0.86719 -1.75,-0.86719 -1.07031,0 -1.72656,0.85156 -0.65625,0.85156 -0.65625,2.4375 z m 9.41406,-4.32031 0.0391,0.9375 q 0.92968,-1.09375 2.50781,-1.09375 1.77344,0 2.41406,1.35937 0.42188,-0.60937 1.09375,-0.98437 0.67969,-0.375 1.60156,-0.375 2.78125,0 2.82813,2.94531 v 5.66406 h -1.44531 v -5.57812 q 0,-0.90625 -0.41407,-1.35156 -0.41406,-0.45313 -1.39062,-0.45313 -0.80469,0 -1.33594,0.48438 -0.53125,0.47656 -0.61719,1.28906 v 5.60937 h -1.45312 v -5.53906 q 0,-1.84375 -1.80469,-1.84375 -1.42187,0 -1.94531,1.21094 v 6.17187 h -1.44531 v -8.45312 z m 19.16407,3.42969 h -4.77344 v 5.02343 h -1.5 v -11.375 h 7.04687 v 1.23438 h -5.54687 v 3.89062 h 4.77344 z m 1.79687,0.71875 q 0,-1.24219 0.48438,-2.23438 0.49218,-0.99219 1.35937,-1.53125 0.875,-0.53906 1.99219,-0.53906 1.72656,0 2.78906,1.19531 1.07031,1.19531 1.07031,3.17969 v 0.10156 q 0,1.23438 -0.47656,2.21875 -0.46875,0.97656 -1.35156,1.52344 -0.875,0.54687 -2.01563,0.54687 -1.71875,0 -2.78906,-1.19531 -1.0625,-1.19531 -1.0625,-3.16406 z m 1.45313,0.17187 q 0,1.40625 0.64843,2.25781 0.65625,0.85157 1.75,0.85157 1.10157,0 1.75,-0.85938 0.64844,-0.86719 0.64844,-2.42187 0,-1.39063 -0.66406,-2.25 -0.65625,-0.86719 -1.75,-0.86719 -1.07031,0 -1.72656,0.85156 -0.65625,0.85156 -0.65625,2.4375 z m 12.14062,-3.02344 q -0.32812,-0.0547 -0.71094,-0.0547 -1.42187,0 -1.92968,1.21093 v 6 h -1.44532 v -8.45312 h 1.40625 l 0.0234,0.97656 q 0.71094,-1.13281 2.01563,-1.13281 0.42187,0 0.64062,0.10937 z m 4.83594,7.3125 q -1.71875,0 -2.79688,-1.125 -1.07812,-1.13281 -1.07812,-3.02343 v -0.26563 q 0,-1.25781 0.47656,-2.24219 0.48438,-0.99218 1.34375,-1.54687 0.86719,-0.5625 1.875,-0.5625 1.64844,0 2.5625,1.08594 0.91406,1.08593 0.91406,3.10937 v 0.60156 h -5.72656 q 0.0312,1.25 0.72656,2.02344 0.70313,0.76563 1.78125,0.76563 0.76563,0 1.29688,-0.3125 0.53125,-0.3125 0.92969,-0.82813 l 0.88281,0.6875 q -1.0625,1.63281 -3.1875,1.63281 z m -0.17969,-7.57812 q -0.875,0 -1.46875,0.64062 -0.59375,0.63282 -0.73437,1.78125 h 4.23437 v -0.10937 q -0.0625,-1.10156 -0.59375,-1.70313 -0.53125,-0.60937 -1.4375,-0.60937 z m 10.07034,5.17969 q 0,-0.58594 -0.4453,-0.90625 -0.43754,-0.32813 -1.5391,-0.5625 -1.09375,-0.23438 -1.74219,-0.5625 -0.64062,-0.32813 -0.95312,-0.78125 -0.30469,-0.45313 -0.30469,-1.07813 0,-1.03906 0.875,-1.75781 0.88281,-0.71875 2.25,-0.71875 1.4375,0 2.3281,0.74219 0.8985,0.74218 0.8985,1.89843 h -1.4532 q 0,-0.59375 -0.5078,-1.02343 -0.49998,-0.42969 -1.2656,-0.42969 -0.78906,0 -1.23438,0.34375 -0.44531,0.34375 -0.44531,0.89844 0,0.52343 0.41406,0.78906 0.41407,0.26562 1.49219,0.50781 1.08594,0.24219 1.75784,0.57813 0.6718,0.33593 0.9922,0.8125 0.3281,0.46875 0.3281,1.14843 0,1.13282 -0.9063,1.82032 -0.9062,0.67968 -2.35153,0.67968 -1.01562,0 -1.79687,-0.35937 -0.78125,-0.35938 -1.22656,-1 -0.4375,-0.64844 -0.4375,-1.39844 h 1.44531 q 0.0391,0.72656 0.57812,1.15625 0.54688,0.42188 1.4375,0.42188 0.82032,0 1.31253,-0.32813 0.5,-0.33594 0.5,-0.89062 z m 5.289,-8.25782 v 2.04688 h 1.5782 v 1.11719 h -1.5782 v 5.24218 q 0,0.50782 0.211,0.76563 0.2109,0.25 0.7187,0.25 0.25,0 0.6875,-0.0937 v 1.17187 q -0.5703,0.15625 -1.1094,0.15625 -0.9687,0 -1.4609,-0.58593 -0.4922,-0.58594 -0.4922,-1.66407 v -5.24218 h -1.539 v -1.11719 h 1.539 v -2.04688 z"
     id="text2429"
     transform="matrix(0.75,0,0,0.75,-592.6998,75.749911)"
     aria-label="RandomForest" />
  <path
     style="font-size:16px;line-height:1.25;font-family:Roboto;-inkscape-font-specification:Roboto;white-space:pre;fill:#e5e5e5"
     d="m 913.1875,110.29241 q -0.57813,0.82812 -1.61719,1.24218 -1.03125,0.40625 -2.40625,0.40625 -1.39062,0 -2.46875,-0.64843 -1.07812,-0.65625 -1.67187,-1.85938 -0.58594,-1.20312 -0.60157,-2.78906 v -0.99219 q 0,-2.57031 1.19532,-3.98437 1.20312,-1.41407 3.375,-1.41407 1.78125,0 2.86718,0.91407 1.08594,0.90625 1.32813,2.57812 h -1.5 q -0.42188,-2.25781 -2.6875,-2.25781 -1.50781,0 -2.28906,1.0625 -0.77344,1.05469 -0.78125,3.0625 v 0.92969 q 0,1.91406 0.875,3.04687 0.875,1.125 2.36718,1.125 0.84375,0 1.47657,-0.1875 0.63281,-0.1875 1.04687,-0.63281 v -2.55469 h -2.63281 v -1.21875 h 4.125 z m 6.35937,-5.66407 q -0.32812,-0.0547 -0.71093,-0.0547 -1.42188,0 -1.92969,1.21093 v 6 h -1.44531 v -8.45312 h 1.40625 l 0.0234,0.97656 q 0.71094,-1.13281 2.01563,-1.13281 0.42187,0 0.64062,0.10937 z m 6.23438,7.15625 q -0.125,-0.25 -0.20313,-0.89062 -1.00781,1.04687 -2.40625,1.04687 -1.25,0 -2.05468,-0.70312 -0.79688,-0.71094 -0.79688,-1.79688 0,-1.32031 1,-2.04687 1.00781,-0.73438 2.82813,-0.73438 h 1.40625 v -0.66406 q 0,-0.75781 -0.45313,-1.20312 -0.45312,-0.45313 -1.33594,-0.45313 -0.77343,0 -1.29687,0.39063 -0.52344,0.39062 -0.52344,0.94531 h -1.45312 q 0,-0.63281 0.44531,-1.21875 0.45312,-0.59375 1.21875,-0.9375 0.77344,-0.34375 1.69531,-0.34375 1.46094,0 2.28906,0.73437 0.82813,0.72657 0.85938,2.00782 v 3.89062 q 0,1.16406 0.29687,1.85156 v 0.125 z m -2.39844,-1.10156 q 0.67969,0 1.28906,-0.35156 0.60938,-0.35156 0.88282,-0.91406 v -1.73438 h -1.13282 q -2.65625,0 -2.65625,1.55469 0,0.67969 0.45313,1.0625 0.45312,0.38281 1.16406,0.38281 z m 5.53125,-3.19531 q 0,-1.94531 0.92188,-3.125 0.92187,-1.1875 2.41406,-1.1875 1.48437,0 2.35156,1.01562 v -4.406246 h 1.44531 v 11.999996 h -1.32812 l -0.0703,-0.90625 q -0.86719,1.0625 -2.41407,1.0625 -1.46875,0 -2.39843,-1.20312 -0.92188,-1.20313 -0.92188,-3.14063 z m 1.44531,0.16406 q 0,1.4375 0.59375,2.25 0.59375,0.8125 1.64063,0.8125 1.375,0 2.00781,-1.23437 v -3.88282 q -0.64844,-1.19531 -1.99219,-1.19531 -1.0625,0 -1.65625,0.82031 -0.59375,0.82032 -0.59375,2.42969 z m 9.5,4.13281 h -1.44531 v -8.45312 h 1.44531 z m -1.5625,-10.69531 q 0,-0.35156 0.21094,-0.59375 0.21875,-0.24219 0.64063,-0.24219 0.42187,0 0.64062,0.24219 0.21875,0.24219 0.21875,0.59375 0,0.35156 -0.21875,0.58594 -0.21875,0.23437 -0.64062,0.23437 -0.42188,0 -0.64063,-0.23437 -0.21094,-0.23438 -0.21094,-0.58594 z m 7.38282,10.85156 q -1.71875,0 -2.79688,-1.125 -1.07812,-1.13281 -1.07812,-3.02343 v -0.26563 q 0,-1.25781 0.47656,-2.24219 0.48437,-0.99218 1.34375,-1.54687 0.86719,-0.5625 1.875,-0.5625 1.64844,0 2.5625,1.08594 0.91406,1.08593 0.91406,3.10937 v 0.60156 H 943.25 q 0.0312,1.25 0.72656,2.02344 0.70313,0.76563 1.78125,0.76563 0.76563,0 1.29688,-0.3125 0.53125,-0.3125 0.92968,-0.82813 l 0.88282,0.6875 q -1.0625,1.63281 -3.1875,1.63281 z M 945.5,104.36272 q -0.875,0 -1.46875,0.64062 -0.59375,0.63282 -0.73438,1.78125 h 4.23438 v -0.10937 q -0.0625,-1.10156 -0.59375,-1.70313 -0.53125,-0.60937 -1.4375,-0.60937 z m 6.51562,-1.03125 0.0469,1.0625 q 0.96875,-1.21875 2.53125,-1.21875 2.67969,0 2.70312,3.02344 v 5.58593 h -1.44531 v -5.59375 q -0.008,-0.91406 -0.42187,-1.35156 -0.40625,-0.4375 -1.27344,-0.4375 -0.70313,0 -1.23438,0.375 -0.53125,0.375 -0.82812,0.98438 v 6.02343 h -1.44531 v -8.45312 z m 9.42188,-2.04688 v 2.04688 h 1.57812 v 1.11719 h -1.57812 v 5.24218 q 0,0.50782 0.21094,0.76563 0.21093,0.25 0.71875,0.25 0.25,0 0.6875,-0.0937 v 1.17187 q -0.57032,0.15625 -1.10938,0.15625 -0.96875,0 -1.46094,-0.58593 -0.49218,-0.58594 -0.49218,-1.66407 v -5.24218 h -1.53907 v -1.11719 h 1.53907 v -2.04688 z m 3.49219,10.5 v -11.375 h 3.71875 q 1.85156,0 2.78125,0.76563 0.9375,0.76562 0.9375,2.26562 0,0.79688 -0.45313,1.41407 -0.45312,0.60937 -1.23437,0.94531 0.92187,0.25781 1.45312,0.98437 0.53906,0.71875 0.53906,1.71875 0,1.53125 -0.99218,2.40625 -0.99219,0.875 -2.80469,0.875 z m 1.5,-5.32031 v 4.09375 h 2.47656 q 1.04687,0 1.64844,-0.53906 0.60937,-0.54688 0.60937,-1.5 0,-2.05469 -2.23437,-2.05469 z m 0,-1.20312 h 2.26562 q 0.98438,0 1.57031,-0.49219 0.59375,-0.49219 0.59375,-1.33594 0,-0.9375 -0.54687,-1.35937 -0.54688,-0.42969 -1.66406,-0.42969 h -2.21875 z m 7.85156,2.21875 q 0,-1.24219 0.48437,-2.23438 0.49219,-0.99219 1.35938,-1.53125 0.875,-0.53906 1.99219,-0.53906 1.72656,0 2.78906,1.19531 1.07031,1.19531 1.07031,3.17969 v 0.10156 q 0,1.23438 -0.47656,2.21875 -0.46875,0.97656 -1.35156,1.52344 -0.875,0.54687 -2.01563,0.54687 -1.71875,0 -2.78906,-1.19531 -1.0625,-1.19531 -1.0625,-3.16406 z m 1.45312,0.17187 q 0,1.40625 0.64844,2.25781 0.65625,0.85157 1.75,0.85157 1.10156,0 1.75,-0.85938 0.64844,-0.86719 0.64844,-2.42187 0,-1.39063 -0.66406,-2.25 -0.65625,-0.86719 -1.75,-0.86719 -1.07032,0 -1.72657,0.85156 -0.65625,0.85156 -0.65625,2.4375 z m 7.67188,-0.17187 q 0,-1.24219 0.48437,-2.23438 0.49219,-0.99219 1.35938,-1.53125 0.875,-0.53906 1.99219,-0.53906 1.72656,0 2.78906,1.19531 1.07031,1.19531 1.07031,3.17969 v 0.10156 q 0,1.23438 -0.47656,2.21875 -0.46875,0.97656 -1.35156,1.52344 -0.875,0.54687 -2.01563,0.54687 -1.71875,0 -2.78906,-1.19531 -1.0625,-1.19531 -1.0625,-3.16406 z m 1.45312,0.17187 q 0,1.40625 0.64844,2.25781 0.65625,0.85157 1.75,0.85157 1.10156,0 1.75,-0.85938 0.64844,-0.86719 0.64844,-2.42187 0,-1.39063 -0.66406,-2.25 -0.65625,-0.86719 -1.75,-0.86719 -1.07032,0 -1.72657,0.85156 -0.65625,0.85156 -0.65625,2.4375 z m 12.97657,1.89063 q 0,-0.58594 -0.44532,-0.90625 -0.4375,-0.32813 -1.53906,-0.5625 -1.09375,-0.23438 -1.74219,-0.5625 -0.64062,-0.32813 -0.95312,-0.78125 -0.30469,-0.45313 -0.30469,-1.07813 0,-1.03906 0.875,-1.75781 0.88281,-0.71875 2.25,-0.71875 1.4375,0 2.32813,0.74219 0.89843,0.74218 0.89843,1.89843 H 997.75 q 0,-0.59375 -0.50781,-1.02343 -0.5,-0.42969 -1.26563,-0.42969 -0.78906,0 -1.23437,0.34375 -0.44532,0.34375 -0.44532,0.89844 0,0.52343 0.41407,0.78906 0.41406,0.26562 1.49218,0.50781 1.08594,0.24219 1.75782,0.57813 0.67187,0.33593 0.99218,0.8125 0.32813,0.46875 0.32813,1.14843 0,1.13282 -0.90625,1.82032 -0.90625,0.67968 -2.35156,0.67968 -1.01563,0 -1.79688,-0.35937 -0.78125,-0.35938 -1.22656,-1 -0.4375,-0.64844 -0.4375,-1.39844 h 1.44531 q 0.0391,0.72656 0.57813,1.15625 0.54687,0.42188 1.4375,0.42188 0.82031,0 1.3125,-0.32813 0.5,-0.33594 0.5,-0.89062 z m 5.28906,-8.25782 v 2.04688 h 1.5781 v 1.11719 h -1.5781 v 5.24218 q 0,0.50782 0.2109,0.76563 0.211,0.25 0.7188,0.25 0.25,0 0.6875,-0.0937 v 1.17187 q -0.5703,0.15625 -1.1094,0.15625 -0.9687,0 -1.4609,-0.58593 -0.4922,-0.58594 -0.4922,-1.66407 v -5.24218 h -1.5391 v -1.11719 h 1.5391 v -2.04688 z m 4.8359,10.5 h -1.4453 v -8.45312 h 1.4453 z m -1.5625,-10.69531 q 0,-0.35156 0.211,-0.59375 0.2187,-0.24219 0.6406,-0.24219 0.4219,0 0.6406,0.24219 0.2188,0.24219 0.2188,0.59375 0,0.35156 -0.2188,0.58594 -0.2187,0.23437 -0.6406,0.23437 -0.4219,0 -0.6406,-0.23437 -0.211,-0.23438 -0.211,-0.58594 z m 5.2422,2.24219 0.047,1.0625 q 0.9687,-1.21875 2.5312,-1.21875 2.6797,0 2.7032,3.02344 v 5.58593 h -1.4453 v -5.59375 q -0.01,-0.91406 -0.4219,-1.35156 -0.4063,-0.4375 -1.2735,-0.4375 -0.7031,0 -1.2343,0.375 -0.5313,0.375 -0.8282,0.98438 v 6.02343 h -1.4453 v -8.45312 z m 7.1172,4.15625 q 0,-1.97656 0.9141,-3.14063 0.914,-1.17187 2.4218,-1.17187 1.5469,0 2.4141,1.09375 l 0.07,-0.9375 h 1.3203 v 8.25 q 0,1.64062 -0.9765,2.58594 -0.9688,0.94531 -2.6094,0.94531 -0.9141,0 -1.7891,-0.39063 -0.875,-0.39062 -1.3359,-1.07031 l 0.75,-0.86719 q 0.9297,1.14844 2.2734,1.14844 1.0547,0 1.6407,-0.59375 0.5937,-0.59375 0.5937,-1.67187 v -0.72657 q -0.8672,1 -2.3672,1 -1.4844,0 -2.4062,-1.19531 -0.9141,-1.19531 -0.9141,-3.25781 z m 1.4531,0.16406 q 0,1.42969 0.586,2.25 0.5859,0.8125 1.6406,0.8125 1.3672,0 2.0078,-1.24219 v -3.85937 q -0.6641,-1.21094 -1.9922,-1.21094 -1.0547,0 -1.6484,0.82031 -0.5938,0.82032 -0.5938,2.42969 z"
     id="text2429-6"
     transform="matrix(0.75,0,0,0.75,-592.1959,43.120001)"
     aria-label="GradientBoosting" />
  <path
     style="font-size:16px;line-height:1.25;font-family:Roboto;-inkscape-font-specification:Roboto;white-space:pre;fill:#e5e5e5"
     d="m 904.78906,111.78459 v -11.375 H 908 q 1.48437,0 2.625,0.65625 1.14062,0.65625 1.75781,1.86719 0.625,1.21094 0.63281,2.78125 v 0.72656 q 0,1.60938 -0.625,2.82032 -0.61718,1.21093 -1.77343,1.85937 -1.14844,0.64844 -2.67969,0.66406 z m 1.5,-10.14062 v 8.91406 h 1.57813 q 1.73437,0 2.69531,-1.07812 0.96875,-1.07813 0.96875,-3.07032 v -0.66406 q 0,-1.9375 -0.91406,-3.00781 -0.90625,-1.07813 -2.57813,-1.09375 z m 12.27344,10.29687 q -1.71875,0 -2.79688,-1.125 -1.07812,-1.13281 -1.07812,-3.02343 v -0.26563 q 0,-1.25781 0.47656,-2.24219 0.48438,-0.99218 1.34375,-1.54687 0.86719,-0.5625 1.875,-0.5625 1.64844,0 2.5625,1.08594 0.91406,1.08593 0.91406,3.10937 v 0.60156 h -5.72656 q 0.0312,1.25 0.72656,2.02344 0.70313,0.76563 1.78125,0.76563 0.76563,0 1.29688,-0.3125 0.53125,-0.3125 0.92969,-0.82813 l 0.88281,0.6875 q -1.0625,1.63281 -3.1875,1.63281 z m -0.17969,-7.57812 q -0.875,0 -1.46875,0.64062 -0.59375,0.63282 -0.73437,1.78125 h 4.23437 v -0.10937 q -0.0625,-1.10156 -0.59375,-1.70313 -0.53125,-0.60937 -1.4375,-0.60937 z m 8.53906,6.39844 q 0.77344,0 1.35157,-0.46875 0.57812,-0.46875 0.64062,-1.17188 h 1.36719 q -0.0391,0.72656 -0.5,1.38281 -0.46094,0.65625 -1.23438,1.04688 -0.76562,0.39062 -1.625,0.39062 -1.72656,0 -2.75,-1.14843 -1.01562,-1.15625 -1.01562,-3.15625 v -0.24219 q 0,-1.23438 0.45312,-2.19531 0.45313,-0.96094 1.29688,-1.49219 0.85156,-0.53125 2.00781,-0.53125 1.42188,0 2.35938,0.85156 0.94531,0.85156 1.00781,2.21094 h -1.36719 q -0.0625,-0.82031 -0.625,-1.34375 -0.55469,-0.53125 -1.375,-0.53125 -1.10156,0 -1.71094,0.79687 -0.60156,0.78907 -0.60156,2.28907 v 0.27343 q 0,1.46094 0.60156,2.25 0.60157,0.78907 1.71875,0.78907 z m 6.55469,1.02343 h -1.44531 v -8.45312 h 1.44531 z m -1.5625,-10.69531 q 0,-0.35156 0.21094,-0.59375 0.21875,-0.24219 0.64062,-0.24219 0.42188,0 0.64063,0.24219 0.21875,0.24219 0.21875,0.59375 0,0.35156 -0.21875,0.58594 -0.21875,0.23437 -0.64063,0.23437 -0.42187,0 -0.64062,-0.23437 -0.21094,-0.23438 -0.21094,-0.58594 z m 8.79688,8.45313 q 0,-0.58594 -0.44532,-0.90625 -0.4375,-0.32813 -1.53906,-0.5625 -1.09375,-0.23438 -1.74219,-0.5625 -0.64062,-0.32813 -0.95312,-0.78125 -0.30469,-0.45313 -0.30469,-1.07813 0,-1.03906 0.875,-1.75781 0.88281,-0.71875 2.25,-0.71875 1.4375,0 2.32813,0.74219 0.89843,0.74218 0.89843,1.89843 H 940.625 q 0,-0.59375 -0.50781,-1.02343 -0.5,-0.42969 -1.26563,-0.42969 -0.78906,0 -1.23437,0.34375 -0.44532,0.34375 -0.44532,0.89844 0,0.52343 0.41407,0.78906 0.41406,0.26562 1.49218,0.50781 1.08594,0.24219 1.75782,0.57813 0.67187,0.33593 0.99218,0.8125 0.32813,0.46875 0.32813,1.14843 0,1.13282 -0.90625,1.82032 -0.90625,0.67968 -2.35156,0.67968 -1.01563,0 -1.79688,-0.35937 -0.78125,-0.35938 -1.22656,-1 -0.4375,-0.64844 -0.4375,-1.39844 h 1.44531 q 0.0391,0.72656 0.57813,1.15625 0.54687,0.42188 1.4375,0.42188 0.82031,0 1.3125,-0.32813 0.5,-0.33594 0.5,-0.89062 z m 4.89843,2.24218 h -1.44531 v -8.45312 h 1.44531 z m -1.5625,-10.69531 q 0,-0.35156 0.21094,-0.59375 0.21875,-0.24219 0.64063,-0.24219 0.42187,0 0.64062,0.24219 0.21875,0.24219 0.21875,0.59375 0,0.35156 -0.21875,0.58594 -0.21875,0.23437 -0.64062,0.23437 -0.42188,0 -0.64063,-0.23437 -0.21094,-0.23438 -0.21094,-0.58594 z m 3.49219,6.39063 q 0,-1.24219 0.48438,-2.23438 0.49218,-0.99219 1.35937,-1.53125 0.875,-0.53906 1.99219,-0.53906 1.72656,0 2.78906,1.19531 1.07031,1.19531 1.07031,3.17969 v 0.10156 q 0,1.23438 -0.47656,2.21875 -0.46875,0.97656 -1.35156,1.52344 -0.875,0.54687 -2.01563,0.54687 -1.71875,0 -2.78906,-1.19531 -1.0625,-1.19531 -1.0625,-3.16406 z m 1.45313,0.17187 q 0,1.40625 0.64843,2.25781 0.65625,0.85157 1.75,0.85157 1.10157,0 1.75,-0.85938 0.64844,-0.86719 0.64844,-2.42187 0,-1.39063 -0.66406,-2.25 -0.65625,-0.86719 -1.75,-0.86719 -1.07031,0 -1.72656,0.85156 -0.65625,0.85156 -0.65625,2.4375 z m 9.42187,-4.32031 0.0469,1.0625 q 0.96875,-1.21875 2.53125,-1.21875 2.67968,0 2.70312,3.02344 v 5.58593 H 962.25 v -5.59375 q -0.008,-0.91406 -0.42188,-1.35156 -0.40625,-0.4375 -1.27343,-0.4375 -0.70313,0 -1.23438,0.375 -0.53125,0.375 -0.82812,0.98438 v 6.02343 h -1.44532 v -8.45312 z m 15.54688,-1.6875 h -3.65625 v 10.14062 h -1.49219 v -10.14062 h -3.64844 v -1.23438 h 8.79688 z m 4.96093,2.98437 q -0.32812,-0.0547 -0.71093,-0.0547 -1.42188,0 -1.92969,1.21093 v 6 h -1.44531 v -8.45312 h 1.40625 l 0.0234,0.97656 q 0.71094,-1.13281 2.01563,-1.13281 0.42187,0 0.64062,0.10937 z m 4.83594,7.3125 q -1.71875,0 -2.79687,-1.125 -1.07813,-1.13281 -1.07813,-3.02343 v -0.26563 q 0,-1.25781 0.47656,-2.24219 0.48438,-0.99218 1.34375,-1.54687 0.86719,-0.5625 1.875,-0.5625 1.64844,0 2.5625,1.08594 0.91407,1.08593 0.91407,3.10937 v 0.60156 h -5.72657 q 0.0312,1.25 0.72657,2.02344 0.70312,0.76563 1.78125,0.76563 0.76562,0 1.29687,-0.3125 0.53125,-0.3125 0.92969,-0.82813 l 0.88281,0.6875 q -1.0625,1.63281 -3.1875,1.63281 z m -0.17969,-7.57812 q -0.875,0 -1.46875,0.64062 -0.59375,0.63282 -0.73437,1.78125 h 4.23437 v -0.10937 q -0.0625,-1.10156 -0.59375,-1.70313 -0.53125,-0.60937 -1.4375,-0.60937 z m 8.65625,7.57812 q -1.71875,0 -2.79687,-1.125 -1.07813,-1.13281 -1.07813,-3.02343 v -0.26563 q 0,-1.25781 0.47657,-2.24219 0.48437,-0.99218 1.34375,-1.54687 0.86718,-0.5625 1.875,-0.5625 1.64843,0 2.5625,1.08594 0.91406,1.08593 0.91406,3.10937 v 0.60156 h -5.72656 q 0.0312,1.25 0.72656,2.02344 0.70312,0.76563 1.78125,0.76563 0.76562,0 1.29687,-0.3125 0.53125,-0.3125 0.92969,-0.82813 l 0.88281,0.6875 q -1.0625,1.63281 -3.1875,1.63281 z m -0.17968,-7.57812 q -0.875,0 -1.46875,0.64062 -0.59375,0.63282 -0.73438,1.78125 h 4.23438 v -0.10937 q -0.0625,-1.10156 -0.59375,-1.70313 -0.53125,-0.60937 -1.4375,-0.60937 z"
     id="text2429-5"
     transform="matrix(0.75,0,0,0.75,-592.6998,138.74646)"
     aria-label="DecisionTree" />
  <path
     style="font-size:16px;line-height:1.25;font-family:Roboto;-inkscape-font-specification:Roboto;white-space:pre;fill:#e5e5e5"
     d="m 907.67969,106.49553 -1.39063,1.44531 v 3.84375 h -1.5 v -11.375 h 1.5 v 5.625 l 5.05469,-5.625 h 1.8125 l -4.47656,5.02344 4.82812,6.35156 h -1.79687 z m 15.88281,5.28906 h -1.50781 l -5.72657,-8.76562 v 8.76562 h -1.50781 v -11.375 h 1.50781 l 5.74219,8.80469 v -8.80469 h 1.49219 z m 5.94531,0.15625 q -1.71875,0 -2.79687,-1.125 -1.07813,-1.13281 -1.07813,-3.02343 v -0.26563 q 0,-1.25781 0.47656,-2.24219 0.48438,-0.99218 1.34375,-1.54687 0.86719,-0.5625 1.875,-0.5625 1.64844,0 2.5625,1.08594 0.91407,1.08593 0.91407,3.10937 v 0.60156 h -5.72657 q 0.0312,1.25 0.72657,2.02344 0.70312,0.76563 1.78125,0.76563 0.76562,0 1.29687,-0.3125 0.53125,-0.3125 0.92969,-0.82813 l 0.88281,0.6875 q -1.0625,1.63281 -3.1875,1.63281 z m -0.17969,-7.57812 q -0.875,0 -1.46875,0.64062 -0.59375,0.63282 -0.73437,1.78125 h 4.23437 v -0.10937 q -0.0625,-1.10156 -0.59375,-1.70313 -0.53125,-0.60937 -1.4375,-0.60937 z m 6.71875,7.42187 h -1.44531 v -8.45312 h 1.44531 z m -1.5625,-10.69531 q 0,-0.35156 0.21094,-0.59375 0.21875,-0.24219 0.64063,-0.24219 0.42187,0 0.64062,0.24219 0.21875,0.24219 0.21875,0.59375 0,0.35156 -0.21875,0.58594 -0.21875,0.23437 -0.64062,0.23437 -0.42188,0 -0.64063,-0.23437 -0.21094,-0.23438 -0.21094,-0.58594 z m 3.53125,6.39844 q 0,-1.97656 0.91407,-3.14063 0.91406,-1.17187 2.42187,-1.17187 1.54688,0 2.41406,1.09375 l 0.0703,-0.9375 h 1.32031 v 8.25 q 0,1.64062 -0.97656,2.58594 -0.96875,0.94531 -2.60938,0.94531 -0.91406,0 -1.78906,-0.39063 -0.875,-0.39062 -1.33594,-1.07031 l 0.75,-0.86719 q 0.92969,1.14844 2.27344,1.14844 1.05469,0 1.64062,-0.59375 0.59375,-0.59375 0.59375,-1.67187 v -0.72657 q -0.86718,1 -2.36718,1 -1.48438,0 -2.40625,-1.19531 -0.91407,-1.19531 -0.91407,-3.25781 z m 1.45313,0.16406 q 0,1.42969 0.58594,2.25 0.58593,0.8125 1.64062,0.8125 1.36719,0 2.00781,-1.24219 v -3.85937 q -0.66406,-1.21094 -1.99218,-1.21094 -1.05469,0 -1.64844,0.82031 -0.59375,0.82032 -0.59375,2.42969 z m 9.3125,-3.29687 q 0.96094,-1.17969 2.5,-1.17969 2.67969,0 2.70312,3.02344 v 5.58593 h -1.44531 v -5.59375 q -0.008,-0.91406 -0.42187,-1.35156 -0.40625,-0.4375 -1.27344,-0.4375 -0.70313,0 -1.23438,0.375 -0.53125,0.375 -0.82812,0.98438 v 6.02343 h -1.44531 V 99.784594 h 1.44531 z m 14.52344,3.29687 q 0,1.9375 -0.89063,3.11719 -0.89062,1.17187 -2.39062,1.17187 -1.60157,0 -2.47657,-1.13281 l -0.0703,0.97656 h -1.32812 V 99.784594 h 1.44531 v 4.476566 q 0.875,-1.08594 2.41406,-1.08594 1.53906,0 2.41406,1.16406 0.88282,1.16406 0.88282,3.1875 z m -1.44532,-0.16406 q 0,-1.47656 -0.57031,-2.28125 -0.57031,-0.80469 -1.64062,-0.80469 -1.42969,0 -2.05469,1.32813 v 3.65625 q 0.66406,1.32812 2.07031,1.32812 1.03906,0 1.61719,-0.80469 0.57812,-0.80468 0.57812,-2.42187 z m 2.88282,-0.008 q 0,-1.24219 0.48437,-2.23438 0.49219,-0.99219 1.35938,-1.53125 0.875,-0.53906 1.99218,-0.53906 1.72657,0 2.78907,1.19531 1.07031,1.19531 1.07031,3.17969 v 0.10156 q 0,1.23438 -0.47656,2.21875 -0.46875,0.97656 -1.35157,1.52344 -0.875,0.54687 -2.01562,0.54687 -1.71875,0 -2.78906,-1.19531 -1.0625,-1.19531 -1.0625,-3.16406 z m 1.45312,0.17187 q 0,1.40625 0.64844,2.25781 0.65625,0.85157 1.75,0.85157 1.10156,0 1.75,-0.85938 0.64844,-0.86719 0.64844,-2.42187 0,-1.39063 -0.66407,-2.25 -0.65625,-0.86719 -1.75,-0.86719 -1.07031,0 -1.72656,0.85156 -0.65625,0.85156 -0.65625,2.4375 z m 12.14063,-3.02344 q -0.32813,-0.0547 -0.71094,-0.0547 -1.42188,0 -1.92969,1.21093 v 6 H 974.25 v -8.45312 h 1.40625 l 0.0234,0.97656 q 0.71093,-1.13281 2.01562,-1.13281 0.42188,0 0.64063,0.10937 z m 6.25,4.91407 q 0,-0.58594 -0.44532,-0.90625 -0.4375,-0.32813 -1.53906,-0.5625 -1.09375,-0.23438 -1.74219,-0.5625 -0.64062,-0.32813 -0.95312,-0.78125 -0.30469,-0.45313 -0.30469,-1.07813 0,-1.03906 0.875,-1.75781 0.88281,-0.71875 2.25,-0.71875 1.4375,0 2.32813,0.74219 0.89843,0.74218 0.89843,1.89843 H 984.5 q 0,-0.59375 -0.50781,-1.02343 -0.5,-0.42969 -1.26563,-0.42969 -0.78906,0 -1.23437,0.34375 -0.44532,0.34375 -0.44532,0.89844 0,0.52343 0.41407,0.78906 0.41406,0.26562 1.49218,0.50781 1.08594,0.24219 1.75782,0.57813 0.67187,0.33593 0.99218,0.8125 0.32813,0.46875 0.32813,1.14843 0,1.13282 -0.90625,1.82032 -0.90625,0.67968 -2.35156,0.67968 -1.01563,0 -1.79688,-0.35937 -0.78125,-0.35938 -1.22656,-1 -0.4375,-0.64844 -0.4375,-1.39844 h 1.44531 q 0.0391,0.72656 0.57813,1.15625 0.54687,0.42188 1.4375,0.42188 0.82031,0 1.3125,-0.32813 0.5,-0.33594 0.5,-0.89062 z"
     id="text2429-62"
     transform="matrix(0.75,0,0,0.75,-592.6998,170.43898)"
     aria-label="KNeighbors" />
  <path
     style="font-size:16px;line-height:1.25;font-family:Roboto;-inkscape-font-specification:Roboto;white-space:pre;fill:#e5e5e5"
     d="m 908.14062,106.71428 q -1.92968,-0.55469 -2.8125,-1.35937 -0.875,-0.8125 -0.875,-2 0,-1.34375 1.07032,-2.21875 1.07812,-0.88282 2.79687,-0.88282 1.17188,0 2.08594,0.45313 0.92187,0.45312 1.42187,1.25 0.50782,0.79687 0.50782,1.74219 h -1.50782 q 0,-1.03125 -0.65625,-1.61719 -0.65625,-0.59375 -1.85156,-0.59375 -1.10937,0 -1.73437,0.49219 -0.61719,0.48437 -0.61719,1.35156 0,0.69531 0.58594,1.17969 0.59375,0.47656 2.00781,0.875 1.42187,0.39843 2.21875,0.88281 0.80469,0.47656 1.1875,1.11719 0.39062,0.64062 0.39062,1.50781 0,1.38281 -1.07812,2.21875 -1.07813,0.82812 -2.88281,0.82812 -1.17188,0 -2.1875,-0.44531 -1.01563,-0.45312 -1.57032,-1.23437 -0.54687,-0.78125 -0.54687,-1.77344 h 1.50781 q 0,1.03125 0.75781,1.63281 0.76563,0.59375 2.03907,0.59375 1.1875,0 1.82031,-0.48437 0.63281,-0.48438 0.63281,-1.32032 0,-0.83593 -0.58594,-1.28906 -0.58593,-0.46094 -2.125,-0.90625 z m 11.13282,4.23438 q -0.84375,0.99218 -2.47657,0.99218 -1.35156,0 -2.0625,-0.78125 -0.70312,-0.78906 -0.71093,-2.32812 v -5.5 h 1.44531 v 5.46094 q 0,1.92187 1.5625,1.92187 1.65625,0 2.20312,-1.23437 v -6.14844 h 1.44532 v 8.45312 h -1.375 z m 10.74218,-3.29688 q 0,1.92969 -0.88281,3.10938 -0.88281,1.17968 -2.39062,1.17968 -1.53907,0 -2.42188,-0.97656 v 4.07031 H 922.875 v -11.70312 h 1.32031 l 0.0703,0.9375 q 0.88282,-1.09375 2.45313,-1.09375 1.52344,0 2.40625,1.14844 0.89062,1.14843 0.89062,3.19531 z m -1.44531,-0.16406 q 0,-1.42969 -0.60937,-2.25781 -0.60938,-0.82813 -1.67188,-0.82813 -1.3125,0 -1.96875,1.16406 v 4.03907 q 0.64844,1.15625 1.98438,1.15625 1.03906,0 1.64843,-0.82032 0.61719,-0.82812 0.61719,-2.45312 z m 10.42188,0.16406 q 0,1.92969 -0.88282,3.10938 -0.88281,1.17968 -2.39062,1.17968 -1.53906,0 -2.42188,-0.97656 v 4.07031 h -1.44531 v -11.70312 h 1.32031 l 0.0703,0.9375 q 0.88281,-1.09375 2.45312,-1.09375 1.52344,0 2.40625,1.14844 0.89063,1.14843 0.89063,3.19531 z m -1.44532,-0.16406 q 0,-1.42969 -0.60937,-2.25781 -0.60938,-0.82813 -1.67188,-0.82813 -1.3125,0 -1.96875,1.16406 v 4.03907 q 0.64844,1.15625 1.98438,1.15625 1.03906,0 1.64844,-0.82032 0.61718,-0.82812 0.61718,-2.45312 z m 2.89844,-0.008 q 0,-1.24219 0.48438,-2.23438 0.49218,-0.99219 1.35937,-1.53125 0.875,-0.53906 1.99219,-0.53906 1.72656,0 2.78906,1.19531 1.07031,1.19531 1.07031,3.17969 v 0.10156 q 0,1.23438 -0.47656,2.21875 -0.46875,0.97656 -1.35156,1.52344 -0.875,0.54687 -2.01563,0.54687 -1.71875,0 -2.78906,-1.19531 -1.0625,-1.19531 -1.0625,-3.16406 z m 1.45313,0.17187 q 0,1.40625 0.64843,2.25781 0.65625,0.85157 1.75,0.85157 1.10157,0 1.75,-0.85938 0.64844,-0.86719 0.64844,-2.42187 0,-1.39063 -0.66406,-2.25 -0.65625,-0.86719 -1.75,-0.86719 -1.07031,0 -1.72656,0.85156 -0.65625,0.85156 -0.65625,2.4375 z m 12.14062,-3.02344 q -0.32812,-0.0547 -0.71094,-0.0547 -1.42187,0 -1.92968,1.21093 v 6 h -1.44532 v -8.45312 h 1.40625 l 0.0234,0.97656 q 0.71094,-1.13281 2.01563,-1.13281 0.42187,0 0.64062,0.10937 z m 3.67969,-3.34375 v 2.04688 h 1.57812 v 1.11719 h -1.57812 v 5.24218 q 0,0.50782 0.21094,0.76563 0.21093,0.25 0.71875,0.25 0.25,0 0.6875,-0.0937 v 1.17187 q -0.57032,0.15625 -1.10938,0.15625 -0.96875,0 -1.46094,-0.58593 -0.49218,-0.58594 -0.49218,-1.66407 v -5.24218 h -1.53907 v -1.11719 h 1.53907 v -2.04688 z m 7.25781,8.50782 3.25,-9.38282 h 1.64063 l -4.21875,11.375 h -1.32813 l -4.21094,-11.375 h 1.63282 z m 9.69531,2.14843 q -1.71875,0 -2.79687,-1.125 -1.07813,-1.13281 -1.07813,-3.02343 v -0.26563 q 0,-1.25781 0.47657,-2.24219 0.48437,-0.99218 1.34375,-1.54687 0.86718,-0.5625 1.875,-0.5625 1.64843,0 2.5625,1.08594 0.91406,1.08593 0.91406,3.10937 v 0.60156 h -5.72656 q 0.0312,1.25 0.72656,2.02344 0.70312,0.76563 1.78125,0.76563 0.76562,0 1.29687,-0.3125 0.53125,-0.3125 0.92969,-0.82813 l 0.88281,0.6875 q -1.0625,1.63281 -3.1875,1.63281 z m -0.17968,-7.57812 q -0.875,0 -1.46875,0.64062 -0.59375,0.63282 -0.73438,1.78125 h 4.23438 v -0.10937 q -0.0625,-1.10156 -0.59375,-1.70313 -0.53125,-0.60937 -1.4375,-0.60937 z m 8.53906,6.39844 q 0.77344,0 1.35156,-0.46875 0.57813,-0.46875 0.64063,-1.17188 h 1.36718 q -0.0391,0.72656 -0.5,1.38281 -0.46093,0.65625 -1.23437,1.04688 -0.76563,0.39062 -1.625,0.39062 -1.72656,0 -2.75,-1.14843 -1.01563,-1.15625 -1.01563,-3.15625 v -0.24219 q 0,-1.23438 0.45313,-2.19531 0.45312,-0.96094 1.29687,-1.49219 0.85157,-0.53125 2.00782,-0.53125 1.42187,0 2.35937,0.85156 0.94531,0.85156 1.00781,2.21094 h -1.36718 q -0.0625,-0.82031 -0.625,-1.34375 -0.55469,-0.53125 -1.375,-0.53125 -1.10157,0 -1.71094,0.79687 -0.60156,0.78907 -0.60156,2.28907 v 0.27343 q 0,1.46094 0.60156,2.25 0.60156,0.78907 1.71875,0.78907 z m 6.94531,-9.47657 v 2.04688 h 1.57813 v 1.11719 h -1.57813 v 5.24218 q 0,0.50782 0.21094,0.76563 0.21094,0.25 0.71875,0.25 0.25,0 0.6875,-0.0937 v 1.17187 q -0.57031,0.15625 -1.10938,0.15625 -0.96875,0 -1.46093,-0.58593 -0.49219,-0.58594 -0.49219,-1.66407 v -5.24218 h -1.53906 v -1.11719 h 1.53906 v -2.04688 z m 2.72656,6.19532 q 0,-1.24219 0.48438,-2.23438 0.49219,-0.99219 1.35937,-1.53125 0.875,-0.53906 1.99219,-0.53906 1.72656,0 2.78906,1.19531 1.07028,1.19531 1.07028,3.17969 v 0.10156 q 0,1.23438 -0.47653,2.21875 -0.46875,0.97656 -1.35156,1.52344 -0.875,0.54687 -2.01562,0.54687 -1.71875,0 -2.78907,-1.19531 -1.0625,-1.19531 -1.0625,-3.16406 z m 1.45313,0.17187 q 0,1.40625 0.64844,2.25781 0.65625,0.85157 1.75,0.85157 1.10156,0 1.75,-0.85938 0.64843,-0.86719 0.64843,-2.42187 0,-1.39063 -0.66406,-2.25 -0.65625,-0.86719 -1.75,-0.86719 -1.07031,0 -1.72656,0.85156 -0.65625,0.85156 -0.65625,2.4375 z m 12.14065,-3.02344 q -0.3282,-0.0547 -0.711,-0.0547 -1.4218,0 -1.9297,1.21093 v 6 h -1.4453 v -8.45312 h 1.4063 l 0.023,0.97656 q 0.711,-1.13281 2.0156,-1.13281 0.4219,0 0.6407,0.10937 z"
     id="text2429-1"
     transform="matrix(0.75,0,0,0.75,-592.31308,107.26759)"
     aria-label="SupportVector" />
  <path
     style="font-size:16px;line-height:1.25;font-family:Roboto;-inkscape-font-specification:Roboto;white-space:pre;fill:#e5e5e5"
     d="m 906.29687,110.55803 h 5.39063 v 1.22656 h -6.89844 v -11.375 h 1.50781 z m 8.44532,1.22656 h -1.44532 v -8.45312 h 1.44532 z m -1.5625,-10.69531 q 0,-0.35156 0.21093,-0.59375 0.21875,-0.24219 0.64063,-0.24219 0.42187,0 0.64062,0.24219 0.21875,0.24219 0.21875,0.59375 0,0.35156 -0.21875,0.58594 -0.21875,0.23437 -0.64062,0.23437 -0.42188,0 -0.64063,-0.23437 -0.21093,-0.23438 -0.21093,-0.58594 z m 5.24218,2.24219 0.0469,1.0625 q 0.96875,-1.21875 2.53125,-1.21875 2.67969,0 2.70312,3.02344 v 5.58593 h -1.44531 v -5.59375 q -0.008,-0.91406 -0.42187,-1.35156 -0.40625,-0.4375 -1.27344,-0.4375 -0.70313,0 -1.23438,0.375 -0.53125,0.375 -0.82812,0.98438 v 6.02343 h -1.44531 v -8.45312 z m 10.96875,8.60937 q -1.71875,0 -2.79687,-1.125 -1.07813,-1.13281 -1.07813,-3.02343 v -0.26563 q 0,-1.25781 0.47657,-2.24219 0.48437,-0.99218 1.34375,-1.54687 0.86718,-0.5625 1.875,-0.5625 1.64843,0 2.5625,1.08594 0.91406,1.08593 0.91406,3.10937 v 0.60156 h -5.72656 q 0.0312,1.25 0.72656,2.02344 0.70312,0.76563 1.78125,0.76563 0.76562,0 1.29687,-0.3125 0.53125,-0.3125 0.92969,-0.82813 l 0.88281,0.6875 q -1.0625,1.63281 -3.1875,1.63281 z m -0.17968,-7.57812 q -0.875,0 -1.46875,0.64062 -0.59375,0.63282 -0.73438,1.78125 h 4.23438 v -0.10937 q -0.0625,-1.10156 -0.59375,-1.70313 -0.53125,-0.60937 -1.4375,-0.60937 z m 10.36718,7.42187 q -0.125,-0.25 -0.20312,-0.89062 -1.00781,1.04687 -2.40625,1.04687 -1.25,0 -2.05469,-0.70312 -0.79687,-0.71094 -0.79687,-1.79688 0,-1.32031 1,-2.04687 1.00781,-0.73438 2.82812,-0.73438 h 1.40625 v -0.66406 q 0,-0.75781 -0.45312,-1.20312 -0.45313,-0.45313 -1.33594,-0.45313 -0.77344,0 -1.29688,0.39063 -0.52343,0.39062 -0.52343,0.94531 h -1.45313 q 0,-0.63281 0.44531,-1.21875 0.45313,-0.59375 1.21875,-0.9375 0.77344,-0.34375 1.69532,-0.34375 1.46093,0 2.28906,0.73437 0.82812,0.72657 0.85937,2.00782 v 3.89062 q 0,1.16406 0.29688,1.85156 v 0.125 z m -2.39843,-1.10156 q 0.67968,0 1.28906,-0.35156 0.60937,-0.35156 0.88281,-0.91406 v -1.73438 h -1.13281 q -2.65625,0 -2.65625,1.55469 0,0.67969 0.45312,1.0625 0.45313,0.38281 1.16407,0.38281 z m 9.96875,-6.05469 q -0.32813,-0.0547 -0.71094,-0.0547 -1.42188,0 -1.92969,1.21093 v 6 h -1.44531 v -8.45312 h 1.40625 l 0.0234,0.97656 q 0.71093,-1.13281 2.01562,-1.13281 0.42188,0 0.64063,0.10937 z m 5.72656,2.55469 h -2.67188 v 4.60156 h -1.50781 v -11.375 h 3.76563 q 1.92187,0 2.95312,0.875 1.03906,0.875 1.03906,2.54688 0,1.0625 -0.57812,1.85156 -0.57031,0.78906 -1.59375,1.17969 l 2.67187,4.82812 v 0.0937 h -1.60937 z m -2.67188,-1.22656 h 2.30469 q 1.11719,0 1.77344,-0.57813 0.66406,-0.57812 0.66406,-1.54687 0,-1.05469 -0.63281,-1.61719 -0.625,-0.5625 -1.8125,-0.57031 h -2.29688 z m 11.63282,5.98437 q -1.71875,0 -2.79688,-1.125 -1.07812,-1.13281 -1.07812,-3.02343 v -0.26563 q 0,-1.25781 0.47656,-2.24219 0.48437,-0.99218 1.34375,-1.54687 0.86719,-0.5625 1.875,-0.5625 1.64844,0 2.5625,1.08594 0.91406,1.08593 0.91406,3.10937 v 0.60156 h -5.72656 q 0.0312,1.25 0.72656,2.02344 0.70313,0.76563 1.78125,0.76563 0.76563,0 1.29688,-0.3125 0.53125,-0.3125 0.92968,-0.82813 l 0.88282,0.6875 q -1.0625,1.63281 -3.1875,1.63281 z m -0.17969,-7.57812 q -0.875,0 -1.46875,0.64062 -0.59375,0.63282 -0.73438,1.78125 h 4.23438 v -0.10937 q -0.0625,-1.10156 -0.59375,-1.70313 -0.53125,-0.60937 -1.4375,-0.60937 z m 4.80469,3.125 q 0,-1.97656 0.91406,-3.14063 0.91406,-1.17187 2.42187,-1.17187 1.54688,0 2.41407,1.09375 l 0.0703,-0.9375 h 1.32031 v 8.25 q 0,1.64062 -0.97656,2.58594 -0.96875,0.94531 -2.60938,0.94531 -0.91406,0 -1.78906,-0.39063 -0.875,-0.39062 -1.33594,-1.07031 l 0.75,-0.86719 q 0.92969,1.14844 2.27344,1.14844 1.05469,0 1.64063,-0.59375 0.59375,-0.59375 0.59375,-1.67187 v -0.72657 q -0.86719,1 -2.36719,1 -1.48438,0 -2.40625,-1.19531 -0.91406,-1.19531 -0.91406,-3.25781 z m 1.45312,0.16406 q 0,1.42969 0.58594,2.25 0.58594,0.8125 1.64062,0.8125 1.36719,0 2.00782,-1.24219 v -3.85937 q -0.66407,-1.21094 -1.99219,-1.21094 -1.05469,0 -1.64844,0.82031 -0.59375,0.82032 -0.59375,2.42969 z m 11.95313,-3.02344 q -0.32813,-0.0547 -0.71094,-0.0547 -1.42188,0 -1.92969,1.21093 v 6 h -1.44531 v -8.45312 h 1.40625 l 0.0234,0.97656 q 0.71093,-1.13281 2.01562,-1.13281 0.42188,0 0.64063,0.10937 z m 4.83593,7.3125 q -1.71875,0 -2.79687,-1.125 -1.07813,-1.13281 -1.07813,-3.02343 v -0.26563 q 0,-1.25781 0.47657,-2.24219 0.48437,-0.99218 1.34375,-1.54687 0.86718,-0.5625 1.875,-0.5625 1.64843,0 2.5625,1.08594 Q 988,105.34709 988,107.37053 v 0.60156 h -5.72656 q 0.0312,1.25 0.72656,2.02344 0.70312,0.76563 1.78125,0.76563 0.76562,0 1.29687,-0.3125 0.53125,-0.3125 0.92969,-0.82813 l 0.88281,0.6875 q -1.0625,1.63281 -3.1875,1.63281 z m -0.17968,-7.57812 q -0.875,0 -1.46875,0.64062 -0.59375,0.63282 -0.73438,1.78125 h 4.23438 v -0.10937 q -0.0625,-1.10156 -0.59375,-1.70313 -0.53125,-0.60937 -1.4375,-0.60937 z m 10.07031,5.17969 q 0,-0.58594 -0.44531,-0.90625 -0.4375,-0.32813 -1.53907,-0.5625 -1.09375,-0.23438 -1.74218,-0.5625 -0.64063,-0.32813 -0.95313,-0.78125 -0.30469,-0.45313 -0.30469,-1.07813 0,-1.03906 0.875,-1.75781 0.88282,-0.71875 2.25,-0.71875 1.4375,0 2.32813,0.74219 0.89844,0.74218 0.89844,1.89843 h -1.45313 q 0,-0.59375 -0.50781,-1.02343 -0.5,-0.42969 -1.26563,-0.42969 -0.78906,0 -1.23437,0.34375 -0.44531,0.34375 -0.44531,0.89844 0,0.52343 0.41406,0.78906 0.41406,0.26562 1.49219,0.50781 1.08593,0.24219 1.75781,0.57813 0.67187,0.33593 0.99219,0.8125 0.32812,0.46875 0.32812,1.14843 0,1.13282 -0.90625,1.82032 -0.90625,0.67968 -2.35156,0.67968 -1.01563,0 -1.79688,-0.35937 -0.78125,-0.35938 -1.22656,-1 -0.4375,-0.64844 -0.4375,-1.39844 h 1.44531 q 0.0391,0.72656 0.57813,1.15625 0.54687,0.42188 1.4375,0.42188 0.82031,0 1.3125,-0.32813 0.5,-0.33594 0.5,-0.89062 z m 8.24995,0 q 0,-0.58594 -0.4453,-0.90625 -0.4375,-0.32813 -1.539,-0.5625 -1.09378,-0.23438 -1.74221,-0.5625 -0.64063,-0.32813 -0.95313,-0.78125 -0.30469,-0.45313 -0.30469,-1.07813 0,-1.03906 0.875,-1.75781 0.88282,-0.71875 2.25003,-0.71875 1.4375,0 2.3281,0.74219 0.8984,0.74218 0.8984,1.89843 h -1.4531 q 0,-0.59375 -0.5078,-1.02343 -0.5,-0.42969 -1.2656,-0.42969 -0.7891,0 -1.2344,0.34375 -0.44531,0.34375 -0.44531,0.89844 0,0.52343 0.41406,0.78906 0.41405,0.26562 1.49215,0.50781 1.086,0.24219 1.7578,0.57813 0.6719,0.33593 0.9922,0.8125 0.3282,0.46875 0.3282,1.14843 0,1.13282 -0.9063,1.82032 -0.9062,0.67968 -2.3516,0.67968 -1.0156,0 -1.79683,-0.35937 -0.78125,-0.35938 -1.22656,-1 -0.4375,-0.64844 -0.4375,-1.39844 h 1.44531 q 0.0391,0.72656 0.57813,1.15625 0.54685,0.42188 1.43745,0.42188 0.8204,0 1.3125,-0.32813 0.5,-0.33594 0.5,-0.89062 z m 4.8985,2.24218 h -1.4453 v -8.45312 h 1.4453 z m -1.5625,-10.69531 q 0,-0.35156 0.2109,-0.59375 0.2188,-0.24219 0.6406,-0.24219 0.4219,0 0.6407,0.24219 0.2187,0.24219 0.2187,0.59375 0,0.35156 -0.2187,0.58594 -0.2188,0.23437 -0.6407,0.23437 -0.4218,0 -0.6406,-0.23437 -0.2109,-0.23438 -0.2109,-0.58594 z m 3.4922,6.39063 q 0,-1.24219 0.4843,-2.23438 0.4922,-0.99219 1.3594,-1.53125 0.875,-0.53906 1.9922,-0.53906 1.7266,0 2.7891,1.19531 1.0703,1.19531 1.0703,3.17969 v 0.10156 q 0,1.23438 -0.4766,2.21875 -0.4687,0.97656 -1.3515,1.52344 -0.875,0.54687 -2.0157,0.54687 -1.7187,0 -2.789,-1.19531 -1.0625,-1.19531 -1.0625,-3.16406 z m 1.4531,0.17187 q 0,1.40625 0.6484,2.25781 0.6563,0.85157 1.75,0.85157 1.1016,0 1.75,-0.85938 0.6485,-0.86719 0.6485,-2.42187 0,-1.39063 -0.6641,-2.25 -0.6562,-0.86719 -1.75,-0.86719 -1.0703,0 -1.7266,0.85156 -0.6562,0.85156 -0.6562,2.4375 z m 9.4219,-4.32031 0.047,1.0625 q 0.9688,-1.21875 2.5313,-1.21875 2.6797,0 2.7031,3.02344 v 5.58593 h -1.4453 v -5.59375 q -0.01,-0.91406 -0.4219,-1.35156 -0.4062,-0.4375 -1.2734,-0.4375 -0.7031,0 -1.2344,0.375 -0.5312,0.375 -0.8281,0.98438 v 6.02343 h -1.4453 v -8.45312 z"
     id="text2429-7"
     transform="matrix(0.75,0,0,0.75,-592.6998,10.969694)"
     aria-label="LinearRegression" />
  <path
     id="rect2725"
     style="opacity:1;fill:#99c1f1;stroke:#e5e5e5;stroke-width:0.7;stroke-linecap:round;stroke-miterlimit:10"
     d="m 47.094566,142.52318 h 26.969817 v 23.54898 H 47.094566 Z" />
  <path
     id="rect2725-0"
     style="opacity:1;fill:#8ff0a4;stroke:#e5e5e5;stroke-width:0.7;stroke-linecap:round;stroke-miterlimit:10"
     d="M 46.997704,110.96542 H 73.96752 v 23.54899 H 46.997704 Z" />
  <path
     id="rect2725-6"
     style="opacity:1;fill:#f9f06b;stroke:#e5e5e5;stroke-width:0.7;stroke-linecap:round;stroke-miterlimit:10"
     d="M 46.997704,206.5246 H 73.96752 v 23.54898 H 46.997704 Z" />
  <path
     id="rect2725-2"
     style="opacity:1;fill:#ffbe6f;stroke:#e5e5e5;stroke-width:0.7;stroke-linecap:round;stroke-miterlimit:10"
     d="M 46.997704,238.43304 H 73.96752 v 23.54899 H 46.997704 Z" />
  <path
     id="rect2725-61"
     style="opacity:1;fill:#f99085;stroke:#e5e5e5;stroke-width:0.7;stroke-linecap:round;stroke-miterlimit:10"
     d="m 46.849998,174.96683 h 26.969817 v 23.54898 H 46.849998 Z" />
  <path
     id="rect2725-8"
     style="opacity:1;fill:#ebbbeb;stroke:#e5e5e5;stroke-width:0.7;stroke-linecap:round;stroke-miterlimit:10"
     d="M 46.997704,79.260017 H 73.96752 V 102.809 H 46.997704 Z" />
  <path
     style="font-size:16px;line-height:1.25;font-family:Roboto;-inkscape-font-specification:Roboto;white-space:pre;fill:#e5e5e5"
     d="m 906.72656,100.40959 3.71875,9.28125 3.71875,-9.28125 h 1.94531 v 11.375 h -1.5 v -4.42968 l 0.14063,-4.78125 -3.73438,9.21093 h -1.14843 l -3.72657,-9.1875 0.14844,4.75782 v 4.42968 h -1.5 v -11.375 z m 13.53906,10.14844 h 5.39063 v 1.22656 h -6.89844 v -11.375 h 1.50781 z m 8.60157,-3.22656 v 4.45312 h -1.5 v -11.375 h 4.19531 q 1.86719,0 2.92187,0.95313 1.0625,0.95312 1.0625,2.52344 0,1.65625 -1.03906,2.55468 -1.03125,0.89063 -2.96094,0.89063 z m 0,-1.22656 h 2.69531 q 1.20312,0 1.84375,-0.5625 0.64062,-0.57032 0.64062,-1.64063 0,-1.01562 -0.64062,-1.625 -0.64063,-0.60937 -1.75781,-0.63281 h -2.78125 z"
     id="text12524"
     transform="matrix(0.75,0,0,0.75,-592.6998,-67.940282)"
     aria-label="MLP" />
  <path
     style="font-size:16px;line-height:1.25;font-family:Roboto;-inkscape-font-specification:Roboto;white-space:pre;fill:#e5e5e5"
     d="m 904.78906,111.78459 v -11.375 H 908 q 1.48437,0 2.625,0.65625 1.14062,0.65625 1.75781,1.86719 0.625,1.21094 0.63281,2.78125 v 0.72656 q 0,1.60938 -0.625,2.82032 -0.61718,1.21093 -1.77343,1.85937 -1.14844,0.64844 -2.67969,0.66406 z m 1.5,-10.14062 v 8.91406 h 1.57813 q 1.73437,0 2.69531,-1.07812 0.96875,-1.07813 0.96875,-3.07032 v -0.66406 q 0,-1.9375 -0.91406,-3.00781 -0.90625,-1.07813 -2.57813,-1.09375 z m 17.39063,8.64844 q -0.57813,0.82812 -1.61719,1.24218 -1.03125,0.40625 -2.40625,0.40625 -1.39063,0 -2.46875,-0.64843 -1.07813,-0.65625 -1.67188,-1.85938 -0.58593,-1.20312 -0.60156,-2.78906 v -0.99219 q 0,-2.57031 1.19531,-3.98437 1.20313,-1.41407 3.375,-1.41407 1.78125,0 2.86719,0.91407 1.08594,0.90625 1.32813,2.57812 h -1.5 q -0.42188,-2.25781 -2.6875,-2.25781 -1.50782,0 -2.28907,1.0625 -0.77343,1.05469 -0.78125,3.0625 v 0.92969 q 0,1.91406 0.875,3.04687 0.875,1.125 2.36719,1.125 0.84375,0 1.47656,-0.1875 0.63282,-0.1875 1.04688,-0.63281 v -2.55469 h -2.63281 v -1.21875 h 4.125 z m 10.86718,-2.11719 q -0.21093,1.80469 -1.33593,2.78906 -1.11719,0.97656 -2.97657,0.97656 -2.01562,0 -3.23437,-1.44531 -1.21094,-1.44531 -1.21094,-3.86719 v -1.09375 q 0,-1.58593 0.5625,-2.78906 0.57031,-1.20312 1.60938,-1.84375 1.03906,-0.64844 2.40625,-0.64844 1.8125,0 2.90625,1.01563 1.09375,1.00781 1.27343,2.79687 h -1.50781 q -0.19531,-1.35937 -0.85156,-1.96875 -0.64844,-0.60937 -1.82031,-0.60937 -1.4375,0 -2.25782,1.0625 -0.8125,1.0625 -0.8125,3.02344 v 1.10156 q 0,1.85156 0.77344,2.94531 0.77344,1.09375 2.16406,1.09375 1.25,0 1.91407,-0.5625 0.67187,-0.57031 0.89062,-1.97656 z m 10.78907,3.60937 h -1.50782 l -5.72656,-8.76562 v 8.76562 h -1.50781 v -11.375 h 1.50781 l 5.74219,8.80469 v -8.80469 h 1.49219 z m 11.40625,0 h -1.50782 l -5.72656,-8.76562 v 8.76562 H 948 v -11.375 h 1.50781 l 5.74219,8.80469 v -8.80469 h 1.49219 z"
     id="text12532"
     transform="matrix(0.75,0,0,0.75,-592.6998,-34.718857)"
     aria-label="DGCNN" />
  <path
     id="rect12534"
     style="opacity:1;fill:#b9f5e2;stroke:#e5e5e5;stroke-width:0.7;stroke-linecap:round;stroke-miterlimit:10"
     d="M 46.997704,0.34999999 H 73.96752 V 23.898985 H 46.997704 Z" />
  <path
     id="rect12538"
     style="opacity:1;fill:none;stroke:#e5e5e5;stroke-linecap:round;stroke-miterlimit:10"
     d="M 47.145351,32.261646 H 74.115168 V 55.810631 H 47.145351 Z" />
</svg>
