<?xml version="1.0" encoding="UTF-8" standalone="no"?>
<svg
   width="659.99988pt"
   height="342.67734pt"
   viewBox="0 0 659.99988 342.67734"
   version="1.1"
   id="svg12135"
   sodipodi:docname="reg_comp.svg"
   inkscape:version="1.3 (0e150ed6c4, 2023-07-21)"
   inkscape:export-filename="comparison_10foldCV_rmse_regressors.pdf"
   inkscape:export-xdpi="400"
   inkscape:export-ydpi="400"
   xmlns:inkscape="http://www.inkscape.org/namespaces/inkscape"
   xmlns:sodipodi="http://sodipodi.sourceforge.net/DTD/sodipodi-0.dtd"
   xmlns="http://www.w3.org/2000/svg"
   xmlns:svg="http://www.w3.org/2000/svg"
   xmlns:rdf="http://www.w3.org/1999/02/22-rdf-syntax-ns#"
   xmlns:cc="http://creativecommons.org/ns#"
   xmlns:dc="http://purl.org/dc/elements/1.1/">
  <sodipodi:namedview
     id="namedview12137"
     pagecolor="#121212"
     bordercolor="#666666"
     borderopacity="1.0"
     inkscape:showpageshadow="2"
     inkscape:pageopacity="0.0"
     inkscape:pagecheckerboard="0"
     inkscape:deskcolor="#d1d1d1"
     inkscape:document-units="pt"
     showgrid="false"
     inkscape:zoom="0.87257384"
     inkscape:cx="213.16248"
     inkscape:cy="171.90522"
     inkscape:window-width="1920"
     inkscape:window-height="1043"
     inkscape:window-x="0"
     inkscape:window-y="0"
     inkscape:window-maximized="1"
     inkscape:current-layer="svg12135"
     showguides="true" />
  <metadata
     id="metadata11072">
    <rdf:RDF>
      <cc:Work>
        <dc:type
           rdf:resource="http://purl.org/dc/dcmitype/StillImage" />
        <dc:date>2023-05-02T11:15:02.769979</dc:date>
        <dc:format>image/svg+xml</dc:format>
        <dc:creator>
          <cc:Agent>
            <dc:title>Matplotlib v3.6.3, https://matplotlib.org/</dc:title>
          </cc:Agent>
        </dc:creator>
      </cc:Work>
    </rdf:RDF>
  </metadata>
  <defs
     id="defs11076">
    <style
       type="text/css"
       id="style11074">*{stroke-linejoin: round; stroke-linecap: butt}</style>
    <rect
       x="903.46893"
       y="97.072662"
       width="238.4837"
       height="45.431919"
       id="rect2431" />
    <rect
       x="903.46893"
       y="97.072662"
       width="238.4837"
       height="45.431919"
       id="rect2431-3" />
    <rect
       x="903.46893"
       y="97.072662"
       width="238.4837"
       height="45.431919"
       id="rect2431-7" />
    <rect
       x="903.46893"
       y="97.072662"
       width="238.4837"
       height="45.431919"
       id="rect2431-35" />
    <rect
       x="903.46893"
       y="97.072662"
       width="238.4837"
       height="45.431919"
       id="rect2431-9" />
    <rect
       x="903.46893"
       y="97.072662"
       width="238.4837"
       height="45.431919"
       id="rect2431-2" />
    <rect
       x="903.46893"
       y="97.072662"
       width="238.4837"
       height="45.431919"
       id="rect2431-0" />
    <rect
       x="903.46893"
       y="97.072662"
       width="238.4837"
       height="45.431919"
       id="rect2431-0-3" />
    <rect
       x="903.46893"
       y="97.072662"
       width="238.4837"
       height="45.431919"
       id="rect12540" />
    <rect
       x="903.46893"
       y="97.072662"
       width="238.4837"
       height="45.431919"
       id="rect12542" />
    <rect
       x="903.46893"
       y="97.072662"
       width="238.4837"
       height="45.431919"
       id="rect12544" />
    <defs
       id="defs11788">
      <path
         id="m5581c67dd0"
         d="M 0,3 C 0.795609,3 1.55874,2.683901 2.12132,2.12132 2.683901,1.55874 3,0.795609 3,0 3,-0.795609 2.683901,-1.55874 2.12132,-2.12132 1.55874,-2.683901 0.795609,-3 0,-3 -0.795609,-3 -1.55874,-2.683901 -2.12132,-2.12132 -2.683901,-1.55874 -3,-0.795609 -3,0 -3,0.795609 -2.683901,1.55874 -2.12132,2.12132 -1.55874,2.683901 -0.795609,3 0,3 Z"
         style="stroke:#000000" />
    </defs>
    <clipPath
       clipPathUnits="userSpaceOnUse"
       id="clipPath1">
      <g
         id="g2"
         transform="translate(141,39)">
        <rect
           x="-51"
           y="12.84"
           width="558"
           height="332.64001"
           id="rect2" />
      </g>
    </clipPath>
    <clipPath
       clipPathUnits="userSpaceOnUse"
       id="clipPath3">
      <g
         id="g4"
         transform="translate(105,39)">
        <rect
           x="-15"
           y="12.84"
           width="558"
           height="332.64001"
           id="rect4" />
      </g>
    </clipPath>
    <clipPath
       clipPathUnits="userSpaceOnUse"
       id="clipPath5">
      <g
         id="g6"
         transform="translate(93,39)">
        <rect
           x="-3"
           y="12.84"
           width="558"
           height="332.64001"
           id="rect6" />
      </g>
    </clipPath>
    <clipPath
       clipPathUnits="userSpaceOnUse"
       id="clipPath7">
      <g
         id="g8"
         transform="translate(153,39)">
        <rect
           x="-63"
           y="12.84"
           width="558"
           height="332.64001"
           id="rect8" />
      </g>
    </clipPath>
    <clipPath
       clipPathUnits="userSpaceOnUse"
       id="clipPath8">
      <g
         id="g9"
         transform="translate(153,39)">
        <rect
           x="-63"
           y="12.84"
           width="558"
           height="332.64001"
           id="rect9" />
      </g>
    </clipPath>
    <clipPath
       clipPathUnits="userSpaceOnUse"
       id="clipPath10">
      <g
         id="g11"
         transform="translate(69,39)">
        <rect
           x="21"
           y="12.84"
           width="558"
           height="332.64001"
           id="rect11" />
      </g>
    </clipPath>
  </defs>
  <g
     id="line2d_23"
     style="stroke:#b0b0b0;stroke-dasharray:2, 4;stroke-dashoffset:0;stroke-opacity:1"
     transform="matrix(1,0,0,1.1026754,-42,-70.020207)">
    <path
       d="M 90,359.36097 H 519.61501"
       clip-path="url(#p671270d349)"
       style="fill:none;stroke:#b0b0b0;stroke-width:0.8;stroke-linecap:square;stroke-dasharray:2, 4;stroke-dashoffset:0;stroke-opacity:1"
       id="path11626"
       sodipodi:nodetypes="cc" />
  </g>
  <g
     id="line2d_25"
     style="stroke:#b0b0b0;stroke-dasharray:2, 4;stroke-dashoffset:0;stroke-opacity:1"
     transform="matrix(1,0,0,1.1026754,-42,-70.020207)">
    <path
       d="M 90,303.12377 H 519.98936"
       clip-path="url(#p671270d349)"
       style="fill:none;stroke:#b0b0b0;stroke-width:0.8;stroke-linecap:square;stroke-dasharray:2, 4;stroke-dashoffset:0;stroke-opacity:1"
       id="path11649"
       sodipodi:nodetypes="cc" />
  </g>
  <g
     id="line2d_27"
     style="stroke:#b0b0b0;stroke-dasharray:2, 4;stroke-dashoffset:0;stroke-opacity:1"
     transform="matrix(1,0,0,1.1026754,-42,-70.020207)">
    <path
       d="M 90,246.88658 H 519.7789"
       clip-path="url(#p671270d349)"
       style="fill:none;stroke:#b0b0b0;stroke-width:0.8;stroke-linecap:square;stroke-dasharray:2, 4;stroke-dashoffset:0;stroke-opacity:1"
       id="path11668"
       sodipodi:nodetypes="cc" />
  </g>
  <g
     id="line2d_29"
     style="stroke:#b0b0b0;stroke-dasharray:2, 4;stroke-dashoffset:0;stroke-opacity:1"
     transform="matrix(1,0,0,1.1026754,-42,-70.020207)">
    <path
       d="M 90,190.64938 H 519.67423"
       clip-path="url(#p671270d349)"
       style="fill:none;stroke:#b0b0b0;stroke-width:0.8;stroke-linecap:square;stroke-dasharray:2, 4;stroke-dashoffset:0;stroke-opacity:1"
       id="path11687"
       sodipodi:nodetypes="cc" />
  </g>
  <g
     id="line2d_31"
     style="stroke:#b0b0b0;stroke-dasharray:2, 4;stroke-dashoffset:0;stroke-opacity:1"
     transform="matrix(1,0,0,1.1026754,-42,-70.020207)">
    <path
       d="M 90,134.41219 H 519.73768"
       clip-path="url(#p671270d349)"
       style="fill:none;stroke:#b0b0b0;stroke-width:0.8;stroke-linecap:square;stroke-dasharray:2, 4;stroke-dashoffset:0;stroke-opacity:1"
       id="path11706"
       sodipodi:nodetypes="cc" />
  </g>
  <g
     id="line2d_33"
     style="stroke:#b0b0b0;stroke-dasharray:2, 4;stroke-dashoffset:0;stroke-opacity:1"
     transform="matrix(1,0,0,1.1026754,-42,-70.020207)">
    <path
       d="M 90,78.174992 H 519.78526"
       clip-path="url(#p671270d349)"
       style="fill:none;stroke:#b0b0b0;stroke-width:0.8;stroke-linecap:square;stroke-dasharray:2, 4;stroke-dashoffset:0;stroke-opacity:1"
       id="path11725"
       sodipodi:nodetypes="cc" />
  </g>
  <path
     d="m 102.68182,213.91407 h 25.36363 v -7.8948 h -25.36363 z"
     clip-path="url(#p671270d349)"
     style="fill:#99c1f1;fill-opacity:1;stroke:#e5e5e5;stroke-linejoin:miter;stroke-opacity:1"
     id="path11756"
     transform="matrix(1,0,0,1.1026754,-48,-70.020207)" />
  <path
     d="m 115.36364,213.91407 v 6.53007"
     clip-path="url(#p671270d349)"
     style="fill:none;stroke:#e5e5e5;stroke-linecap:square;stroke-opacity:1"
     id="path11759"
     transform="matrix(1,0,0,1.1026754,-48,-70.020207)" />
  <path
     d="m 115.36364,206.01927 v -9.74293"
     clip-path="url(#p671270d349)"
     style="fill:none;stroke:#e5e5e5;stroke-linecap:square;stroke-opacity:1"
     id="path11762"
     transform="matrix(1,0,0,1.1026754,-48,-70.020207)" />
  <path
     d="m 109.02273,220.44414 h 12.68181"
     clip-path="url(#p671270d349)"
     style="fill:none;stroke:#e5e5e5;stroke-linecap:square;stroke-opacity:1"
     id="path11765"
     transform="matrix(1,0,0,1.1026754,-48,-70.020207)" />
  <path
     d="m 109.02273,196.27634 h 12.68181"
     clip-path="url(#p671270d349)"
     style="fill:none;stroke:#e5e5e5;stroke-linecap:square;stroke-opacity:1"
     id="path11768"
     transform="matrix(1,0,0,1.1026754,-48,-70.020207)" />
  <path
     d="m 153.40909,237.97494 h 25.36364 v -3.70927 h -25.36364 z"
     clip-path="url(#p671270d349)"
     style="fill:#8ff0a4;fill-opacity:1;stroke:#e5e5e5;stroke-linejoin:miter;stroke-opacity:1"
     id="path11772"
     transform="matrix(1,0,0,1.1026754,-60,-70.020207)" />
  <path
     d="m 166.09091,237.97494 v 5.4159"
     clip-path="url(#p671270d349)"
     style="fill:none;stroke:#e5e5e5;stroke-linecap:square;stroke-opacity:1"
     id="path11775"
     transform="matrix(1,0,0,1.1026754,-60,-70.020207)" />
  <path
     d="m 166.09091,234.26567 v -1.40741"
     clip-path="url(#p671270d349)"
     style="fill:none;stroke:#e5e5e5;stroke-linecap:square;stroke-opacity:1"
     id="path11778"
     transform="matrix(1,0,0,1.1026754,-60,-70.020207)" />
  <path
     d="m 159.75,243.39084 h 12.68182"
     clip-path="url(#p671270d349)"
     style="fill:none;stroke:#e5e5e5;stroke-linecap:square;stroke-opacity:1"
     id="path11781"
     transform="matrix(1,0,0,1.1026754,-60,-70.020207)" />
  <path
     d="m 159.75,232.85826 h 12.68182"
     clip-path="url(#p671270d349)"
     style="fill:none;stroke:#e5e5e5;stroke-linecap:square;stroke-opacity:1"
     id="path11784"
     transform="matrix(1,0,0,1.1026754,-60,-70.020207)" />
  <path
     d="M 204.13636,198.28752 H 229.5 v -12.52756 h -25.36364 z"
     clip-path="url(#p671270d349)"
     style="fill:#f9f06b;fill-opacity:1;stroke:#e5e5e5;stroke-linejoin:miter;stroke-opacity:1"
     id="path11795"
     transform="matrix(1,0,0,1.1026754,-72,-70.020207)" />
  <path
     d="m 216.81818,198.28752 v 10.2765"
     clip-path="url(#p671270d349)"
     style="fill:none;stroke:#e5e5e5;stroke-linecap:square;stroke-opacity:1"
     id="path11798"
     transform="matrix(1,0,0,1.1026754,-72,-70.020207)" />
  <path
     d="m 216.81818,185.75996 v -2.96642"
     clip-path="url(#p671270d349)"
     style="fill:none;stroke:#e5e5e5;stroke-linecap:square;stroke-opacity:1"
     id="path11801"
     transform="matrix(1,0,0,1.1026754,-72,-70.020207)" />
  <path
     d="m 210.47727,208.56402 h 12.68182"
     clip-path="url(#p671270d349)"
     style="fill:none;stroke:#e5e5e5;stroke-linecap:square;stroke-opacity:1"
     id="path11804"
     transform="matrix(1,0,0,1.1026754,-72,-70.020207)" />
  <path
     d="m 210.47727,182.79354 h 12.68182"
     clip-path="url(#p671270d349)"
     style="fill:none;stroke:#e5e5e5;stroke-linecap:square;stroke-opacity:1"
     id="path11807"
     transform="matrix(1,0,0,1.1026754,-72,-70.020207)" />
  <path
     d="m 254.86364,182.29108 h 25.36363 v -6.53338 h -25.36363 z"
     clip-path="url(#p671270d349)"
     style="fill:#ffbe6f;fill-opacity:1;stroke:#e5e5e5;stroke-linejoin:miter;stroke-opacity:1"
     id="path11811"
     transform="matrix(1,0,0,1.1026754,-84,-70.020207)" />
  <path
     d="m 267.54545,182.29108 v 8.19675"
     clip-path="url(#p671270d349)"
     style="fill:none;stroke:#e5e5e5;stroke-linecap:square;stroke-opacity:1"
     id="path11814"
     transform="matrix(1,0,0,1.1026754,-84,-70.020207)" />
  <path
     d="m 267.54545,175.7577 v -4.03415"
     clip-path="url(#p671270d349)"
     style="fill:none;stroke:#e5e5e5;stroke-linecap:square;stroke-opacity:1"
     id="path11817"
     transform="matrix(1,0,0,1.1026754,-84,-70.020207)" />
  <path
     d="m 261.20454,190.48783 h 12.68182"
     clip-path="url(#p671270d349)"
     style="fill:none;stroke:#e5e5e5;stroke-linecap:square;stroke-opacity:1"
     id="path11820"
     transform="matrix(1,0,0,1.1026754,-84,-70.020207)" />
  <path
     d="m 261.20454,171.72355 h 12.68182"
     clip-path="url(#p671270d349)"
     style="fill:none;stroke:#e5e5e5;stroke-linecap:square;stroke-opacity:1"
     id="path11823"
     transform="matrix(1,0,0,1.1026754,-84,-70.020207)" />
  <path
     d="m 305.59091,209.27887 h 25.36363 v -5.94433 h -25.36363 z"
     clip-path="url(#p671270d349)"
     style="fill:#f99085;fill-opacity:1;stroke:#e5e5e5;stroke-linejoin:miter;stroke-opacity:1"
     id="path11831"
     transform="matrix(1,0,0,1.1026754,-96,-70.020207)" />
  <path
     d="m 318.27273,209.27887 v 3.90292"
     clip-path="url(#p671270d349)"
     style="fill:none;stroke:#e5e5e5;stroke-linecap:square;stroke-opacity:1"
     id="path11834"
     transform="matrix(1,0,0,1.1026754,-96,-70.020207)" />
  <path
     d="m 318.27273,203.33454 v -4.71349"
     clip-path="url(#p671270d349)"
     style="fill:none;stroke:#e5e5e5;stroke-linecap:square;stroke-opacity:1"
     id="path11837"
     transform="matrix(1,0,0,1.1026754,-96,-70.020207)" />
  <path
     d="m 311.93182,213.18179 h 12.68182"
     clip-path="url(#p671270d349)"
     style="fill:none;stroke:#e5e5e5;stroke-linecap:square;stroke-opacity:1"
     id="path11840"
     transform="matrix(1,0,0,1.1026754,-96,-70.020207)" />
  <path
     d="m 311.93182,198.62105 h 12.68182"
     clip-path="url(#p671270d349)"
     style="fill:none;stroke:#e5e5e5;stroke-linecap:square;stroke-opacity:1"
     id="path11843"
     transform="matrix(1,0,0,1.1026754,-96,-70.020207)" />
  <path
     d="m 356.31818,279.0218 h 25.36364 v -3.59769 h -25.36364 z"
     clip-path="url(#p671270d349)"
     style="fill:#ebbbeb;fill-opacity:1;stroke:#e5e5e5;stroke-linejoin:miter;stroke-opacity:1"
     id="path11851"
     transform="matrix(1,0,0,1.1026754,-108,-70.020207)" />
  <path
     d="m 369,279.0218 v 4.66433"
     clip-path="url(#p671270d349)"
     style="fill:none;stroke:#e5e5e5;stroke-linecap:square;stroke-opacity:1"
     id="path11854"
     transform="matrix(1,0,0,1.1026754,-108,-70.020207)" />
  <path
     d="m 369,275.42411 v -2.45676"
     clip-path="url(#p671270d349)"
     style="fill:none;stroke:#e5e5e5;stroke-linecap:square;stroke-opacity:1"
     id="path11857"
     transform="matrix(1,0,0,1.1026754,-108,-70.020207)" />
  <path
     d="m 362.65909,283.68613 h 12.68182"
     clip-path="url(#p671270d349)"
     style="fill:none;stroke:#e5e5e5;stroke-linecap:square;stroke-opacity:1"
     id="path11860"
     transform="matrix(1,0,0,1.1026754,-108,-70.020207)" />
  <path
     d="m 362.65909,272.96735 h 12.68182"
     clip-path="url(#p671270d349)"
     style="fill:none;stroke:#e5e5e5;stroke-linecap:square;stroke-opacity:1"
     id="path11863"
     transform="matrix(1,0,0,1.1026754,-108,-70.020207)" />
  <path
     d="m 407.04545,278.97617 h 25.36364 v -3.53544 h -25.36364 z"
     clip-path="url(#p671270d349)"
     style="fill:#e1ccbb;fill-opacity:1;stroke:#e5e5e5;stroke-linejoin:miter;stroke-opacity:1"
     id="path11867"
     transform="matrix(1,0,0,1.1026754,-120,-70.020207)" />
  <path
     d="m 419.72727,278.97617 v 4.66804"
     clip-path="url(#p671270d349)"
     style="fill:none;stroke:#e5e5e5;stroke-linecap:square;stroke-opacity:1"
     id="path11870"
     transform="matrix(1,0,0,1.1026754,-120,-70.020207)" />
  <path
     d="m 419.72727,275.44073 v -2.3503"
     clip-path="url(#p671270d349)"
     style="fill:none;stroke:#e5e5e5;stroke-linecap:square;stroke-opacity:1"
     id="path11873"
     transform="matrix(1,0,0,1.1026754,-120,-70.020207)" />
  <path
     d="m 413.38636,283.64421 h 12.68182"
     clip-path="url(#p671270d349)"
     style="fill:none;stroke:#e5e5e5;stroke-linecap:square;stroke-opacity:1"
     id="path11876"
     transform="matrix(1,0,0,1.1026754,-120,-70.020207)" />
  <path
     d="m 413.38636,273.09043 h 12.68182"
     clip-path="url(#p671270d349)"
     style="fill:none;stroke:#e5e5e5;stroke-linecap:square;stroke-opacity:1"
     id="path11879"
     transform="matrix(1,0,0,1.1026754,-120,-70.020207)" />
  <path
     d="m 457.77273,230.94721 h 25.36363 v -3.95572 h -25.36363 z"
     clip-path="url(#p671270d349)"
     style="fill:#d5d4d2;fill-opacity:1;stroke:#e5e5e5;stroke-linejoin:miter;stroke-opacity:1"
     id="path11883"
     transform="matrix(1,0,0,1.1026754,-132,-70.020207)" />
  <path
     d="m 470.45454,230.94721 v 2.31808"
     clip-path="url(#p671270d349)"
     style="fill:none;stroke:#e5e5e5;stroke-linecap:square;stroke-opacity:1"
     id="path11886"
     transform="matrix(1,0,0,1.1026754,-132,-70.020207)" />
  <path
     d="M 470.45454,226.99149 V 225.5176"
     clip-path="url(#p671270d349)"
     style="fill:none;stroke:#e5e5e5;stroke-linecap:square;stroke-opacity:1"
     id="path11889"
     transform="matrix(1,0,0,1.1026754,-132,-70.020207)" />
  <path
     d="m 464.11364,233.26529 h 12.68181"
     clip-path="url(#p671270d349)"
     style="fill:none;stroke:#e5e5e5;stroke-linecap:square;stroke-opacity:1"
     id="path11892"
     transform="matrix(1,0,0,1.1026754,-132,-70.020207)" />
  <path
     d="m 464.11364,225.5176 h 12.68181"
     clip-path="url(#p671270d349)"
     style="fill:none;stroke:#e5e5e5;stroke-linecap:square;stroke-opacity:1"
     id="path11895"
     transform="matrix(1,0,0,1.1026754,-132,-70.020207)" />
  <path
     d="m 508.5,367.59128 h 25.36364 v -1.53593 H 508.5 Z"
     clip-path="url(#p671270d349)"
     style="fill:#b9f5e2;fill-opacity:1;stroke:#e5e5e5;stroke-linejoin:miter;stroke-opacity:1"
     id="path11903"
     transform="matrix(1,0,0,1.1026754,-144,-70.020207)" />
  <path
     d="M 521.18182,367.59128 V 369.36"
     clip-path="url(#p671270d349)"
     style="fill:none;stroke:#e5e5e5;stroke-linecap:square;stroke-opacity:1"
     id="path11906"
     transform="matrix(1,0,0,1.1026754,-144,-70.020207)" />
  <path
     d="m 521.18182,366.05535 v -0.19609"
     clip-path="url(#p671270d349)"
     style="fill:none;stroke:#e5e5e5;stroke-linecap:square;stroke-opacity:1"
     id="path11909"
     transform="matrix(1,0,0,1.1026754,-144,-70.020207)" />
  <path
     d="m 514.84091,369.36 h 12.68182"
     clip-path="url(#p671270d349)"
     style="fill:none;stroke:#e5e5e5;stroke-linecap:square;stroke-opacity:1"
     id="path11912"
     transform="matrix(1,0,0,1.1026754,-144,-70.020207)" />
  <path
     d="m 514.84091,365.85926 h 12.68182"
     clip-path="url(#p671270d349)"
     style="fill:none;stroke:#e5e5e5;stroke-linecap:square;stroke-opacity:1"
     id="path11915"
     transform="matrix(1,0,0,1.1026754,-144,-70.020207)" />
  <path
     d="m 559.22727,82.19574 h 25.36364 v -8.079928 h -25.36364 z"
     clip-path="url(#p671270d349)"
     style="fill:#c7e4f8;fill-opacity:1;stroke:#e5e5e5;stroke-linejoin:miter;stroke-opacity:1"
     id="path11925"
     transform="matrix(1,0,0,1.1026754,-156,-70.020207)" />
  <path
     d="m 571.90909,82.19574 v 1.719099"
     clip-path="url(#p671270d349)"
     style="fill:none;stroke:#e5e5e5;stroke-linecap:square;stroke-opacity:1"
     id="path11928"
     transform="matrix(1,0,0,1.1026754,-156,-70.020207)" />
  <path
     d="M 571.90909,74.115812 V 66.96"
     clip-path="url(#p671270d349)"
     style="fill:none;stroke:#e5e5e5;stroke-linecap:square;stroke-opacity:1"
     id="path11931"
     transform="matrix(1,0,0,1.1026754,-156,-70.020207)" />
  <path
     d="M 565.56818,83.914839 H 578.25"
     clip-path="url(#p671270d349)"
     style="fill:none;stroke:#e5e5e5;stroke-linecap:square;stroke-opacity:1"
     id="path11934"
     transform="matrix(1,0,0,1.1026754,-156,-70.020207)" />
  <path
     d="M 565.56818,66.96 H 578.25"
     clip-path="url(#p671270d349)"
     style="fill:none;stroke:#e5e5e5;stroke-linecap:square;stroke-opacity:1"
     id="path11937"
     transform="matrix(1,0,0,1.1026754,-156,-70.020207)" />
  <path
     d="m 609.95455,366.30126 h 25.36363 v -5.82013 h -25.36363 z"
     clip-path="url(#p671270d349)"
     style="fill:#ffffff;fill-opacity:1;stroke:#e5e5e5;stroke-linejoin:miter;stroke-opacity:1"
     id="path11941"
     transform="matrix(1,0,0,1.1026754,-168,-70.020207)" />
  <path
     d="m 622.63636,366.30126 v 2.69367"
     clip-path="url(#p671270d349)"
     style="fill:none;stroke:#e5e5e5;stroke-linecap:square;stroke-opacity:1"
     id="path11944"
     transform="matrix(1,0,0,1.1026754,-168,-70.020207)" />
  <path
     d="m 622.63636,360.48113 v -2.98209"
     clip-path="url(#p671270d349)"
     style="fill:none;stroke:#e5e5e5;stroke-linecap:square;stroke-opacity:1"
     id="path11947"
     transform="matrix(1,0,0,1.1026754,-168,-70.020207)" />
  <path
     d="m 616.29545,368.99493 h 12.68182"
     clip-path="url(#p671270d349)"
     style="fill:none;stroke:#e5e5e5;stroke-linecap:square;stroke-opacity:1"
     id="path11950"
     transform="matrix(1,0,0,1.1026754,-168,-70.020207)" />
  <path
     d="m 616.29545,357.49904 h 12.68182"
     clip-path="url(#p671270d349)"
     style="fill:none;stroke:#e5e5e5;stroke-linecap:square;stroke-opacity:1"
     id="path11953"
     transform="matrix(1,0,0,1.1026754,-168,-70.020207)" />
  <path
     d="m 102.68182,208.97648 h 25.36363"
     clip-path="url(#p671270d349)"
     style="fill:none;fill-opacity:1;stroke:#e5e5e5;stroke-linecap:square;stroke-opacity:1"
     id="path11957"
     transform="matrix(1,0,0,1.1026754,-48,-70.020207)" />
  <path
     d="m 153.40909,237.69512 h 25.36364"
     clip-path="url(#p671270d349)"
     style="fill:none;fill-opacity:1;stroke:#e5e5e5;stroke-linecap:square;stroke-opacity:1"
     id="path11960"
     transform="matrix(1,0,0,1.1026754,-60,-70.020207)" />
  <path
     d="M 204.13636,193.97225 H 229.5"
     clip-path="url(#p671270d349)"
     style="fill:none;fill-opacity:1;stroke:#e5e5e5;stroke-linecap:square;stroke-opacity:1"
     id="path11963"
     transform="matrix(1,0,0,1.1026754,-72,-70.020207)" />
  <path
     d="m 254.86364,178.74145 h 25.36363"
     clip-path="url(#p671270d349)"
     style="fill:none;fill-opacity:1;stroke:#e5e5e5;stroke-linecap:square;stroke-opacity:1"
     id="path11966"
     transform="matrix(1,0,0,1.1026754,-84,-70.020207)" />
  <path
     d="m 305.59091,206.44203 h 25.36363"
     clip-path="url(#p671270d349)"
     style="fill:none;fill-opacity:1;stroke:#e5e5e5;stroke-linecap:square;stroke-opacity:1"
     id="path11969"
     transform="matrix(1,0,0,1.1026754,-96,-70.020207)" />
  <path
     d="m 356.31818,277.81797 h 25.36364"
     clip-path="url(#p671270d349)"
     style="fill:none;fill-opacity:1;stroke:#e5e5e5;stroke-linecap:square;stroke-opacity:1"
     id="path11972"
     transform="matrix(1,0,0,1.1026754,-108,-70.020207)" />
  <path
     d="m 407.04545,277.87189 h 25.36364"
     clip-path="url(#p671270d349)"
     style="fill:none;fill-opacity:1;stroke:#e5e5e5;stroke-linecap:square;stroke-opacity:1"
     id="path11975"
     transform="matrix(1,0,0,1.1026754,-120,-70.020207)" />
  <path
     d="m 457.77273,228.959 h 25.36363"
     clip-path="url(#p671270d349)"
     style="fill:none;fill-opacity:1;stroke:#e5e5e5;stroke-linecap:square;stroke-opacity:1"
     id="path11978"
     transform="matrix(1,0,0,1.1026754,-132,-70.020207)" />
  <path
     d="m 559.22727,76.954031 h 25.36364"
     clip-path="url(#p671270d349)"
     style="fill:none;fill-opacity:1;stroke:#e5e5e5;stroke-linecap:square;stroke-opacity:1"
     id="path11984"
     transform="matrix(1,0,0,1.1026754,-156,-70.020207)" />
  <path
     d="m 609.95455,362.77396 h 25.36363"
     clip-path="url(#p671270d349)"
     style="fill:none;fill-opacity:1;stroke:#e5e5e5;stroke-linecap:square;stroke-opacity:1"
     id="path11987"
     transform="matrix(1,0,0,1.1026754,-168,-70.020207)" />
  <defs
     id="defs12133">
    <clipPath
       id="p671270d349">
      <rect
         x="90"
         y="51.84"
         width="558"
         height="332.64001"
         id="rect12130" />
    </clipPath>
  </defs>
  <text
     xml:space="preserve"
     transform="matrix(0.75,0,0,0.75,-109.92785,-66.423262)"
     id="text2429"
     style="font-style:normal;font-weight:normal;font-size:16px;line-height:1.25;font-family:sans-serif;white-space:pre;shape-inside:url(#rect2431);display:inline;fill:#e5e5e5;fill-opacity:1;stroke:none;stroke-linecap:butt;stroke-linejoin:round"><tspan
       x="903.46875"
       y="111.78459"
       id="tspan2"><tspan
         style="font-family:Roboto;-inkscape-font-specification:Roboto"
         id="tspan1">RandomForest</tspan></tspan></text>
  <text
     xml:space="preserve"
     transform="matrix(0.75,0,0,0.75,-109.42395,-35.73378)"
     id="text2429-6"
     style="font-style:normal;font-weight:normal;font-size:16px;line-height:1.25;font-family:sans-serif;white-space:pre;shape-inside:url(#rect2431-3);display:inline;fill:#e5e5e5;fill-opacity:1;stroke:none;stroke-linecap:butt;stroke-linejoin:round"><tspan
       x="903.46875"
       y="111.78459"
       id="tspan4"><tspan
         style="font-family:Roboto;-inkscape-font-specification:Roboto"
         id="tspan3">GradientBoosting</tspan></tspan></text>
  <text
     xml:space="preserve"
     transform="matrix(0.75,0,0,0.75,-109.92785,-3.5181265)"
     id="text2429-5"
     style="font-style:normal;font-weight:normal;font-size:16px;line-height:1.25;font-family:sans-serif;white-space:pre;shape-inside:url(#rect2431-7);display:inline;fill:#e5e5e5;fill-opacity:1;stroke:none;stroke-linecap:butt;stroke-linejoin:round"><tspan
       x="903.46875"
       y="111.78459"
       id="tspan6"><tspan
         style="font-family:Roboto;-inkscape-font-specification:Roboto"
         id="tspan5">DecisionTree</tspan></tspan></text>
  <text
     xml:space="preserve"
     transform="matrix(0.75,0,0,0.75,-109.92785,27.971361)"
     id="text2429-62"
     style="font-style:normal;font-weight:normal;font-size:16px;line-height:1.25;font-family:sans-serif;white-space:pre;shape-inside:url(#rect2431-35);display:inline;fill:#e5e5e5;fill-opacity:1;stroke:none;stroke-linecap:butt;stroke-linejoin:round"><tspan
       x="903.46875"
       y="111.78459"
       id="tspan8"><tspan
         style="font-family:Roboto;-inkscape-font-specification:Roboto"
         id="tspan7">KNeighbors</tspan></tspan></text>
  <text
     xml:space="preserve"
     transform="matrix(0.75,0,0,0.75,-109.54113,59.823929)"
     id="text2429-1"
     style="font-style:normal;font-weight:normal;font-size:16px;line-height:1.25;font-family:sans-serif;white-space:pre;shape-inside:url(#rect2431-9);display:inline;fill:#e5e5e5;fill-opacity:1;stroke:none;stroke-linecap:butt;stroke-linejoin:round"><tspan
       x="903.46875"
       y="111.78459"
       id="tspan10"><tspan
         style="font-family:Roboto;-inkscape-font-specification:Roboto"
         id="tspan9">SupportVector</tspan></tspan></text>
  <text
     xml:space="preserve"
     transform="matrix(0.75,0,0,0.75,-109.92785,91.676499)"
     id="text2429-7"
     style="font-style:normal;font-weight:normal;font-size:16px;line-height:1.25;font-family:sans-serif;white-space:pre;shape-inside:url(#rect2431-2);display:inline;fill:#e5e5e5;fill-opacity:1;stroke:none;stroke-linecap:butt;stroke-linejoin:round"><tspan
       x="903.46875"
       y="111.78459"
       id="tspan12"><tspan
         style="font-family:Roboto;-inkscape-font-specification:Roboto"
         id="tspan11">LinearRegression</tspan></tspan></text>
  <text
     xml:space="preserve"
     transform="matrix(0.75,0,0,0.75,-109.92785,124.29216)"
     id="text2429-9"
     style="font-style:normal;font-weight:normal;font-size:16px;line-height:1.25;font-family:sans-serif;white-space:pre;shape-inside:url(#rect2431-0);display:inline;fill:#e5e5e5;fill-opacity:1;stroke:none;stroke-linecap:butt;stroke-linejoin:round"><tspan
       x="903.46875"
       y="111.78459"
       id="tspan14"><tspan
         style="font-family:Roboto;-inkscape-font-specification:Roboto"
         id="tspan13">Ridge</tspan></tspan></text>
  <text
     xml:space="preserve"
     transform="matrix(0.75,0,0,0.75,-109.92785,156.54472)"
     id="text2429-9-6"
     style="font-style:normal;font-weight:normal;font-size:16px;line-height:1.25;font-family:sans-serif;white-space:pre;shape-inside:url(#rect2431-0-3);display:inline;fill:#e5e5e5;fill-opacity:1;stroke:none;stroke-linecap:butt;stroke-linejoin:round"><tspan
       x="903.46875"
       y="111.78459"
       id="tspan16"><tspan
         style="font-family:Roboto;-inkscape-font-specification:Roboto"
         id="tspan15">Lasso</tspan></tspan></text>
  <rect
     style="fill:#99c1f1;fill-opacity:1;stroke:#e5e5e5;stroke-width:0.7;stroke-linecap:round;stroke-linejoin:round;stroke-miterlimit:10;stroke-dasharray:none;stroke-dashoffset:0;stroke-opacity:1;opacity:1"
     id="rect2725"
     width="26.969816"
     height="23.548985"
     x="529.86652"
     y="0.34999999" />
  <rect
     style="fill:#8ff0a4;fill-opacity:1;stroke:#e5e5e5;stroke-width:0.7;stroke-linecap:round;stroke-linejoin:round;stroke-miterlimit:10;stroke-dasharray:none;stroke-dashoffset:0;stroke-opacity:1;opacity:1"
     id="rect2725-0"
     width="26.969816"
     height="23.548985"
     x="529.76965"
     y="32.111645" />
  <rect
     style="fill:#f9f06b;fill-opacity:1;stroke:#e5e5e5;stroke-width:0.7;stroke-linecap:round;stroke-linejoin:round;stroke-miterlimit:10;stroke-dasharray:none;stroke-dashoffset:0;stroke-opacity:1;opacity:1"
     id="rect2725-6"
     width="26.969816"
     height="23.548985"
     x="529.76965"
     y="64.260017" />
  <rect
     style="fill:#ffbe6f;fill-opacity:1;stroke:#e5e5e5;stroke-width:0.7;stroke-linecap:round;stroke-linejoin:round;stroke-miterlimit:10;stroke-dasharray:none;stroke-dashoffset:0;stroke-opacity:1;opacity:1"
     id="rect2725-2"
     width="26.969816"
     height="23.548985"
     x="529.76965"
     y="95.965424" />
  <rect
     style="fill:#f99085;fill-opacity:1;stroke:#e5e5e5;stroke-width:0.7;stroke-linecap:round;stroke-linejoin:round;stroke-miterlimit:10;stroke-dasharray:none;stroke-dashoffset:0;stroke-opacity:1;opacity:1"
     id="rect2725-61"
     width="26.969816"
     height="23.548985"
     x="529.62195"
     y="127.52318" />
  <rect
     style="fill:#ebbbeb;fill-opacity:1;stroke:#e5e5e5;stroke-width:0.7;stroke-linecap:round;stroke-linejoin:round;stroke-miterlimit:10;stroke-dasharray:none;stroke-dashoffset:0;stroke-opacity:1;opacity:1"
     id="rect2725-8"
     width="26.969816"
     height="23.548985"
     x="529.76965"
     y="159.96683" />
  <rect
     style="fill:#e1ccbb;fill-opacity:1;stroke:#e5e5e5;stroke-width:0.7;stroke-linecap:round;stroke-linejoin:round;stroke-miterlimit:10;stroke-dasharray:none;stroke-dashoffset:0;stroke-opacity:1;opacity:1"
     id="rect2725-7"
     width="26.969816"
     height="23.548985"
     x="529.76965"
     y="191.5246" />
  <rect
     style="fill:#d5d4d2;fill-opacity:1;stroke:#e5e5e5;stroke-width:0.7;stroke-linecap:round;stroke-linejoin:round;stroke-miterlimit:10;stroke-dasharray:none;stroke-dashoffset:0;stroke-opacity:1;opacity:1"
     id="rect2725-9"
     width="26.969816"
     height="23.548985"
     x="529.9173"
     y="223.52531" />
  <text
     xml:space="preserve"
     transform="matrix(0.75,0,0,0.75,-109.92785,186.92962)"
     id="text12524"
     style="font-style:normal;font-weight:normal;font-size:16px;line-height:1.25;font-family:sans-serif;white-space:pre;shape-inside:url(#rect12540);display:inline;fill:#e5e5e5;fill-opacity:1;stroke:none;stroke-linecap:butt;stroke-linejoin:round"><tspan
       x="903.46875"
       y="111.78459"
       id="tspan18"><tspan
         style="font-family:Roboto;-inkscape-font-specification:Roboto"
         id="tspan17">MLP</tspan></tspan></text>
  <text
     xml:space="preserve"
     transform="matrix(0.75,0,0,0.75,-109.92785,219.54528)"
     id="text12528"
     style="font-style:normal;font-weight:normal;font-size:16px;line-height:1.25;font-family:sans-serif;white-space:pre;shape-inside:url(#rect12542);display:inline;fill:#e5e5e5;fill-opacity:1;stroke:none;stroke-linecap:butt;stroke-linejoin:round"><tspan
       x="903.46875"
       y="111.78459"
       id="tspan20"><tspan
         style="font-family:Roboto;-inkscape-font-specification:Roboto"
         id="tspan19">ElasticNet</tspan></tspan></text>
  <text
     xml:space="preserve"
     transform="matrix(0.75,0,0,0.75,-109.92785,251.79784)"
     id="text12532"
     style="font-style:normal;font-weight:normal;font-size:16px;line-height:1.25;font-family:sans-serif;white-space:pre;shape-inside:url(#rect12544);display:inline;fill:#e5e5e5;fill-opacity:1;stroke:none;stroke-linecap:butt;stroke-linejoin:round"><tspan
       x="903.46875"
       y="111.78459"
       id="tspan22"><tspan
         style="font-family:Roboto;-inkscape-font-specification:Roboto"
         id="tspan21">DGCNN</tspan></tspan></text>
  <rect
     style="fill:#b9f5e2;fill-opacity:1;stroke:#e5e5e5;stroke-width:0.7;stroke-linecap:round;stroke-linejoin:round;stroke-miterlimit:10;stroke-dasharray:none;stroke-dashoffset:0;stroke-opacity:1;opacity:1"
     id="rect12534"
     width="26.969816"
     height="23.548985"
     x="529.76965"
     y="255.21989" />
  <rect
     style="fill:#c7e4f8;fill-opacity:1;stroke:#e5e5e5;stroke-width:0.7;stroke-linecap:round;stroke-linejoin:round;stroke-miterlimit:10;stroke-dasharray:none;stroke-dashoffset:0;stroke-opacity:1;opacity:1"
     id="rect12536"
     width="26.969816"
     height="23.548985"
     x="529.76965"
     y="286.77765" />
  <rect
     style="fill:#ffffff;fill-opacity:1;stroke:#e5e5e5;stroke-width:0.7;stroke-linecap:round;stroke-linejoin:round;stroke-miterlimit:10;stroke-dasharray:none;stroke-dashoffset:0;stroke-opacity:1;opacity:1"
     id="rect12538"
     width="26.969816"
     height="23.548985"
     x="529.9173"
     y="318.77835" />
  <g
     id="g7"
     transform="translate(-42,-32.620531)"
     style="fill:#e5e5e5;fill-opacity:1">
    <!-- 20 -->
    <g
       transform="matrix(0.1,0,0,-0.1,70.275,363.16018)"
       id="g5"
       style="fill:#e5e5e5;fill-opacity:1">
      <defs
         id="defs4">
        <path
           id="path3"
           d="M 1228,531 H 3431 V 0 H 469 v 531 q 359,372 979,998 621,627 780,809 303,340 423,576 121,236 121,464 0,372 -261,606 -261,235 -680,235 -297,0 -627,-103 -329,-103 -704,-313 v 638 q 381,153 712,231 332,78 607,78 725,0 1156,-363 431,-362 431,-968 0,-288 -108,-546 -107,-257 -392,-607 -78,-91 -497,-524 Q 1991,1309 1228,531 Z"
           transform="scale(0.015625)" />
        <path
           id="path4"
           d="m 2034,4250 q -487,0 -733,-480 -245,-479 -245,-1442 0,-959 245,-1439 246,-480 733,-480 491,0 736,480 246,480 246,1439 0,963 -246,1442 -245,480 -736,480 z m 0,500 q 785,0 1199,-621 414,-620 414,-1801 0,-1178 -414,-1799 -414,-620 -1199,-620 -784,0 -1198,620 -414,621 -414,1799 0,1181 414,1801 414,621 1198,621 z"
           transform="scale(0.015625)" />
      </defs>
      <path
         id="use4"
         d="M 19.1875,8.296875 H 53.609375 V 0 H 7.328125 v 8.296875 q 5.609375,5.8125 15.296875,15.59375 9.703125,9.796875 12.1875,12.640625 4.734375,5.3125 6.609375,9 1.890625,3.6875 1.890625,7.25 0,5.8125 -4.078125,9.46875 -4.078125,3.671875 -10.625,3.671875 -4.640625,0 -9.796875,-1.609375 -5.140625,-1.609375 -11,-4.890625 v 9.96875 Q 13.765625,71.78125 18.9375,73 q 5.1875,1.21875 9.484375,1.21875 11.328125,0 18.0625,-5.671875 6.734375,-5.65625 6.734375,-15.125 0,-4.5 -1.6875,-8.53125 Q 49.859375,40.875 45.40625,35.40625 44.1875,33.984375 37.640625,27.21875 31.109375,20.453125 19.1875,8.296875 Z"
         style="fill:#e5e5e5;fill-opacity:1;stroke-width:0.015625" />
      <path
         id="use5"
         d="m 95.404297,66.40625 q -7.609375,0 -11.453125,-7.5 -3.828125,-7.484375 -3.828125,-22.53125 0,-14.984375 3.828125,-22.484375 3.84375,-7.5 11.453125,-7.5 7.671873,0 11.500003,7.5 3.84375,7.5 3.84375,22.484375 0,15.046875 -3.84375,22.53125 -3.82813,7.5 -11.500003,7.5 z m 0,7.8125 q 12.265623,0 18.734373,-9.703125 6.46875,-9.6875 6.46875,-28.140625 0,-18.40625 -6.46875,-28.109375 -6.46875,-9.6875 -18.734373,-9.6875 -12.25,0 -18.71875,9.6875 -6.46875,9.703125 -6.46875,28.109375 0,18.453125 6.46875,28.140625 6.46875,9.703125 18.71875,9.703125 z"
         style="fill:#e5e5e5;fill-opacity:1;stroke-width:0.015625" />
    </g>
  </g>
  <g
     id="g13"
     transform="translate(-42,-38.620531)"
     style="fill:#e5e5e5;fill-opacity:1">
    <!-- 30 -->
    <g
       transform="matrix(0.1,0,0,-0.1,70.275,306.92299)"
       id="g12"
       style="fill:#e5e5e5;fill-opacity:1">
      <defs
         id="defs10">
        <path
           id="path10"
           d="m 2597,2516 q 453,-97 707,-404 255,-306 255,-756 0,-690 -475,-1069 -475,-378 -1350,-378 -293,0 -604,58 -311,58 -642,174 v 609 q 262,-153 574,-231 313,-78 654,-78 593,0 904,234 311,234 311,681 0,413 -289,645 -289,233 -804,233 h -544 v 519 h 569 q 465,0 712,186 247,186 247,536 0,359 -255,551 -254,193 -729,193 -260,0 -557,-57 -297,-56 -653,-174 v 562 q 360,100 674,150 314,50 592,50 719,0 1137,-327 419,-326 419,-882 0,-388 -222,-655 -222,-267 -631,-370 z"
           transform="scale(0.015625)" />
      </defs>
      <path
         id="use10"
         d="M 40.578125,39.3125 Q 47.65625,37.796875 51.625,33 q 3.984375,-4.78125 3.984375,-11.8125 0,-10.78125 -7.421875,-16.703125 -7.421875,-5.90625 -21.09375,-5.90625 -4.578125,0 -9.4375,0.90625 -4.859375,0.90625 -10.03125,2.71875 v 9.515625 q 4.09375,-2.390625 8.96875,-3.609375 4.890625,-1.21875 10.21875,-1.21875 9.265625,0 14.125,3.65625 4.859375,3.65625 4.859375,10.640625 0,6.453125 -4.515625,10.078125 -4.515625,3.640625 -12.5625,3.640625 h -8.5 v 8.109375 h 8.890625 q 7.265625,0 11.125,2.90625 3.859375,2.90625 3.859375,8.375 0,5.609375 -3.984375,8.609375 -3.96875,3.015625 -11.390625,3.015625 -4.0625,0 -8.703125,-0.890625 Q 15.375,64.15625 9.8125,62.3125 v 8.78125 q 5.625,1.5625 10.53125,2.34375 4.90625,0.78125 9.25,0.78125 11.234375,0 17.765625,-5.109375 6.546875,-5.09375 6.546875,-13.78125 0,-6.0625 -3.46875,-10.234375 -3.46875,-4.171875 -9.859375,-5.78125 z"
         style="fill:#e5e5e5;fill-opacity:1;stroke-width:0.015625" />
      <path
         id="use11"
         d="m 95.404297,66.40625 q -7.609375,0 -11.453125,-7.5 -3.828125,-7.484375 -3.828125,-22.53125 0,-14.984375 3.828125,-22.484375 3.84375,-7.5 11.453125,-7.5 7.671873,0 11.500003,7.5 3.84375,7.5 3.84375,22.484375 0,15.046875 -3.84375,22.53125 -3.82813,7.5 -11.500003,7.5 z m 0,7.8125 q 12.265623,0 18.734373,-9.703125 6.46875,-9.6875 6.46875,-28.140625 0,-18.40625 -6.46875,-28.109375 -6.46875,-9.6875 -18.734373,-9.6875 -12.25,0 -18.71875,9.6875 -6.46875,9.703125 -6.46875,28.109375 0,18.453125 6.46875,28.140625 6.46875,9.703125 18.71875,9.703125 z"
         style="fill:#e5e5e5;fill-opacity:1;stroke-width:0.015625" />
    </g>
  </g>
  <g
     id="g16"
     transform="translate(-42,-44.620531)"
     style="fill:#e5e5e5;fill-opacity:1">
    <!-- 40 -->
    <g
       transform="matrix(0.1,0,0,-0.1,70.275,250.6858)"
       id="g15"
       style="fill:#e5e5e5;fill-opacity:1">
      <defs
         id="defs14">
        <path
           id="path14"
           d="M 2419,4116 825,1625 h 1594 z m -166,550 h 794 V 1625 h 666 V 1100 H 3047 V 0 H 2419 V 1100 H 313 v 609 z"
           transform="scale(0.015625)" />
      </defs>
      <path
         id="use14"
         d="M 37.796875,64.3125 12.890625,25.390625 h 24.90625 z m -2.59375,8.59375 h 12.40625 V 25.390625 h 10.40625 V 17.1875 H 47.609375 V 0 h -9.8125 V 17.1875 H 4.890625 v 9.515625 z"
         style="fill:#e5e5e5;fill-opacity:1;stroke-width:0.015625" />
      <path
         id="use15"
         d="m 95.404297,66.40625 q -7.609375,0 -11.453125,-7.5 -3.828125,-7.484375 -3.828125,-22.53125 0,-14.984375 3.828125,-22.484375 3.84375,-7.5 11.453125,-7.5 7.671873,0 11.500003,7.5 3.84375,7.5 3.84375,22.484375 0,15.046875 -3.84375,22.53125 -3.82813,7.5 -11.500003,7.5 z m 0,7.8125 q 12.265623,0 18.734373,-9.703125 6.46875,-9.6875 6.46875,-28.140625 0,-18.40625 -6.46875,-28.109375 -6.46875,-9.6875 -18.734373,-9.6875 -12.25,0 -18.71875,9.6875 -6.46875,9.703125 -6.46875,28.109375 0,18.453125 6.46875,28.140625 6.46875,9.703125 18.71875,9.703125 z"
         style="fill:#e5e5e5;fill-opacity:1;stroke-width:0.015625" />
    </g>
  </g>
  <g
     id="g19"
     transform="translate(-42,-50.620531)"
     style="fill:#e5e5e5;fill-opacity:1">
    <!-- 50 -->
    <g
       transform="matrix(0.1,0,0,-0.1,70.275,194.4486)"
       id="g18"
       style="fill:#e5e5e5;fill-opacity:1">
      <defs
         id="defs17">
        <path
           id="path17"
           d="M 691,4666 H 3169 V 4134 H 1269 V 2991 q 137,47 274,70 138,23 276,23 781,0 1237,-428 457,-428 457,-1159 Q 3513,744 3044,326 2575,-91 1722,-91 1428,-91 1123,-41 819,9 494,109 v 635 q 281,-153 581,-228 300,-75 634,-75 541,0 856,284 316,284 316,772 0,487 -316,771 -315,285 -856,285 -253,0 -505,-56 -251,-56 -513,-175 z"
           transform="scale(0.015625)" />
      </defs>
      <path
         id="use17"
         d="m 10.796875,72.90625 h 38.71875 v -8.3125 h -29.6875 V 46.734375 q 2.140625,0.734375 4.28125,1.09375 2.15625,0.359375 4.3125,0.359375 Q 40.625,48.1875 47.75,41.5 54.890625,34.8125 54.890625,23.390625 54.890625,11.625 47.5625,5.09375 40.234375,-1.421875 26.90625,-1.421875 q -4.59375,0 -9.359375,0.78125 -4.75,0.78125 -9.828125,2.34375 V 11.625 q 4.390625,-2.390625 9.078125,-3.5625 4.6875,-1.171875 9.90625,-1.171875 8.453125,0 13.375,4.4375 4.9375,4.4375 4.9375,12.0625 0,7.609375 -4.9375,12.046875 -4.921875,4.453125 -13.375,4.453125 -3.953125,0 -7.890625,-0.875 -3.921875,-0.875 -8.015625,-2.734375 z"
         style="fill:#e5e5e5;fill-opacity:1;stroke-width:0.015625" />
      <path
         id="use18"
         d="m 95.404297,66.40625 q -7.609375,0 -11.453125,-7.5 -3.828125,-7.484375 -3.828125,-22.53125 0,-14.984375 3.828125,-22.484375 3.84375,-7.5 11.453125,-7.5 7.671873,0 11.500003,7.5 3.84375,7.5 3.84375,22.484375 0,15.046875 -3.84375,22.53125 -3.82813,7.5 -11.500003,7.5 z m 0,7.8125 q 12.265623,0 18.734373,-9.703125 6.46875,-9.6875 6.46875,-28.140625 0,-18.40625 -6.46875,-28.109375 -6.46875,-9.6875 -18.734373,-9.6875 -12.25,0 -18.71875,9.6875 -6.46875,9.703125 -6.46875,28.109375 0,18.453125 6.46875,28.140625 6.46875,9.703125 18.71875,9.703125 z"
         style="fill:#e5e5e5;fill-opacity:1;stroke-width:0.015625" />
    </g>
  </g>
  <g
     id="g22"
     transform="translate(-42,-56.620531)"
     style="fill:#e5e5e5;fill-opacity:1">
    <!-- 60 -->
    <g
       transform="matrix(0.1,0,0,-0.1,70.275,138.21141)"
       id="g21"
       style="fill:#e5e5e5;fill-opacity:1">
      <defs
         id="defs20">
        <path
           id="path20"
           d="m 2113,2584 q -425,0 -674,-291 -248,-290 -248,-796 0,-503 248,-796 249,-292 674,-292 425,0 673,292 248,293 248,796 0,506 -248,796 -248,291 -673,291 z m 1253,1979 v -575 q -238,112 -480,171 -242,60 -480,60 -625,0 -955,-422 -329,-422 -376,-1275 184,272 462,417 279,145 613,145 703,0 1111,-427 408,-426 408,-1160 0,-719 -425,-1154 -425,-434 -1131,-434 -810,0 -1238,620 -428,621 -428,1799 0,1106 525,1764 525,658 1409,658 238,0 480,-47 242,-47 505,-140 z"
           transform="scale(0.015625)" />
      </defs>
      <path
         id="use20"
         d="m 33.015625,40.375 q -6.640625,0 -10.53125,-4.546875 -3.875,-4.53125 -3.875,-12.4375 0,-7.859375 3.875,-12.4375 3.890625,-4.5625 10.53125,-4.5625 6.640625,0 10.515625,4.5625 3.875,4.578125 3.875,12.4375 0,7.90625 -3.875,12.4375 Q 39.65625,40.375 33.015625,40.375 Z M 52.59375,71.296875 V 62.3125 q -3.71875,1.75 -7.5,2.671875 -3.78125,0.9375 -7.5,0.9375 -9.765625,0 -14.921875,-6.59375 -5.140625,-6.59375 -5.875,-19.921875 2.875,4.25 7.21875,6.515625 4.359375,2.265625 9.578125,2.265625 10.984375,0 17.359375,-6.671875 6.375,-6.65625 6.375,-18.125 0,-11.234375 -6.640625,-18.03125 -6.640625,-6.78125 -17.671875,-6.78125 -12.65625,0 -19.34375,9.6875 -6.6875,9.703125 -6.6875,28.109375 0,17.28125 8.203125,27.5625 8.203125,10.28125 22.015625,10.28125 3.71875,0 7.5,-0.734375 3.78125,-0.734375 7.890625,-2.1875 z"
         style="fill:#e5e5e5;fill-opacity:1;stroke-width:0.015625" />
      <path
         id="use21"
         d="m 95.404297,66.40625 q -7.609375,0 -11.453125,-7.5 -3.828125,-7.484375 -3.828125,-22.53125 0,-14.984375 3.828125,-22.484375 3.84375,-7.5 11.453125,-7.5 7.671873,0 11.500003,7.5 3.84375,7.5 3.84375,22.484375 0,15.046875 -3.84375,22.53125 -3.82813,7.5 -11.500003,7.5 z m 0,7.8125 q 12.265623,0 18.734373,-9.703125 6.46875,-9.6875 6.46875,-28.140625 0,-18.40625 -6.46875,-28.109375 -6.46875,-9.6875 -18.734373,-9.6875 -12.25,0 -18.71875,9.6875 -6.46875,9.703125 -6.46875,28.109375 0,18.453125 6.46875,28.140625 6.46875,9.703125 18.71875,9.703125 z"
         style="fill:#e5e5e5;fill-opacity:1;stroke-width:0.015625" />
    </g>
  </g>
  <g
     id="g25"
     transform="translate(-42,-62.620531)"
     style="fill:#e5e5e5;fill-opacity:1">
    <!-- 70 -->
    <g
       transform="matrix(0.1,0,0,-0.1,70.275,81.974211)"
       id="g24"
       style="fill:#e5e5e5;fill-opacity:1">
      <defs
         id="defs23">
        <path
           id="path23"
           d="M 525,4666 H 3525 V 4397 L 1831,0 H 1172 L 2766,4134 H 525 Z"
           transform="scale(0.015625)" />
      </defs>
      <path
         id="use23"
         d="m 8.203125,72.90625 h 46.875 V 68.703125 L 28.609375,0 H 18.3125 L 43.21875,64.59375 H 8.203125 Z"
         style="fill:#e5e5e5;fill-opacity:1;stroke-width:0.015625" />
      <path
         id="use24"
         d="m 95.404297,66.40625 q -7.609375,0 -11.453125,-7.5 -3.828125,-7.484375 -3.828125,-22.53125 0,-14.984375 3.828125,-22.484375 3.84375,-7.5 11.453125,-7.5 7.671873,0 11.500003,7.5 3.84375,7.5 3.84375,22.484375 0,15.046875 -3.84375,22.53125 -3.82813,7.5 -11.500003,7.5 z m 0,7.8125 q 12.265623,0 18.734373,-9.703125 6.46875,-9.6875 6.46875,-28.140625 0,-18.40625 -6.46875,-28.109375 -6.46875,-9.6875 -18.734373,-9.6875 -12.25,0 -18.71875,9.6875 -6.46875,9.703125 -6.46875,28.109375 0,18.453125 6.46875,28.140625 6.46875,9.703125 18.71875,9.703125 z"
         style="fill:#e5e5e5;fill-opacity:1;stroke-width:0.015625" />
    </g>
  </g>
  <text
     xml:space="preserve"
     style="font-style:normal;font-weight:normal;font-size:13px;line-height:1.25;font-family:sans-serif;fill:#e5e5e5;fill-opacity:1;stroke:none;stroke-width:0.75"
     x="-189.13255"
     y="9.3691406"
     id="text89"
     transform="rotate(-90)"><tspan
       sodipodi:role="line"
       id="tspan89"
       style="font-style:normal;font-variant:normal;font-weight:normal;font-stretch:normal;font-size:13px;font-family:Roboto;-inkscape-font-specification:Roboto;fill:#e5e5e5;fill-opacity:1;stroke-width:0.75"
       x="-189.13255"
       y="9.3691406">RMSE</tspan></text>
  <g
     id="g89"
     transform="translate(29.22557,-44.55119)">
    <circle
       style="fill:none;fill-opacity:1;stroke:#e5e5e5;stroke-width:0.892641;stroke-linecap:round;stroke-linejoin:round;stroke-miterlimit:10;stroke-dasharray:none;stroke-opacity:1"
       id="circle89"
       cx="76.85836"
       cy="224.56882"
       r="3.0225444" />
  </g>
  <g
     id="g90"
     transform="translate(106.63624,-115.10057)">
    <circle
       style="fill:none;fill-opacity:1;stroke:#e5e5e5;stroke-width:0.892641;stroke-linecap:round;stroke-linejoin:round;stroke-miterlimit:10;stroke-dasharray:none;stroke-opacity:1"
       id="circle90"
       cx="76.85836"
       cy="224.56882"
       r="3.0225444" />
  </g>
  <g
     id="g91"
     transform="translate(145.41439,-84.364643)">
    <circle
       style="fill:none;fill-opacity:1;stroke:#e5e5e5;stroke-width:0.892641;stroke-linecap:round;stroke-linejoin:round;stroke-miterlimit:10;stroke-dasharray:none;stroke-opacity:1"
       id="circle91"
       cx="76.85836"
       cy="224.56882"
       r="3.0225444" />
  </g>
  <g
     id="g92"
     transform="translate(261.56386,-54.318223)">
    <circle
       style="fill:none;fill-opacity:1;stroke:#e5e5e5;stroke-width:0.892641;stroke-linecap:round;stroke-linejoin:round;stroke-miterlimit:10;stroke-dasharray:none;stroke-opacity:1"
       id="circle92"
       cx="76.85836"
       cy="224.56882"
       r="3.0225444" />
  </g>
  <g
     id="g93"
     transform="translate(300.3037,103.68606)">
    <circle
       style="fill:none;fill-opacity:1;stroke:#e5e5e5;stroke-width:0.892641;stroke-linecap:round;stroke-linejoin:round;stroke-miterlimit:10;stroke-dasharray:none;stroke-opacity:1"
       id="circle93"
       cx="76.85836"
       cy="224.56882"
       r="3.0225444" />
  </g>
  <g
     id="g94"
     transform="translate(300.29934,101.91734)">
    <circle
       style="fill:none;fill-opacity:1;stroke:#e5e5e5;stroke-width:0.892641;stroke-linecap:round;stroke-linejoin:round;stroke-miterlimit:10;stroke-dasharray:none;stroke-opacity:1"
       id="circle94"
       cx="76.85836"
       cy="224.56882"
       r="3.0225444" />
  </g>
</svg>
