<?xml version="1.0" encoding="UTF-8" standalone="no"?>
<svg
   id="svg241"
   width="499.79999pt"
   height="422.20001pt"
   version="1.1"
   viewBox="0 0 499.80001 422.19995"
   sodipodi:docname="clustered.svg"
   inkscape:version="1.3 (0e150ed6c4, 2023-07-21)"
   inkscape:export-filename="clustered.pdf"
   inkscape:export-xdpi="400"
   inkscape:export-ydpi="400"
   xml:space="preserve"
   xmlns:inkscape="http://www.inkscape.org/namespaces/inkscape"
   xmlns:sodipodi="http://sodipodi.sourceforge.net/DTD/sodipodi-0.dtd"
   xmlns:xlink="http://www.w3.org/1999/xlink"
   xmlns="http://www.w3.org/2000/svg"
   xmlns:svg="http://www.w3.org/2000/svg"
   xmlns:rdf="http://www.w3.org/1999/02/22-rdf-syntax-ns#"
   xmlns:cc="http://creativecommons.org/ns#"
   xmlns:dc="http://purl.org/dc/elements/1.1/"><sodipodi:namedview
     id="namedview114"
     pagecolor="#121212"
     bordercolor="#666666"
     borderopacity="1.0"
     inkscape:showpageshadow="2"
     inkscape:pageopacity="0.0"
     inkscape:pagecheckerboard="0"
     inkscape:deskcolor="#d1d1d1"
     inkscape:document-units="pt"
     showgrid="false"
     inkscape:zoom="1.5695468"
     inkscape:cx="455.54552"
     inkscape:cy="147.17624"
     inkscape:window-width="1920"
     inkscape:window-height="1043"
     inkscape:window-x="0"
     inkscape:window-y="0"
     inkscape:window-maximized="1"
     inkscape:current-layer="layer1" /><metadata
     id="metadata2"><rdf:RDF><cc:Work><dc:type
           rdf:resource="http://purl.org/dc/dcmitype/StillImage" /><dc:date>2023-04-26T18:29:45.010885</dc:date><dc:format>image/svg+xml</dc:format><dc:creator><cc:Agent><dc:title>Matplotlib v3.7.1, https://matplotlib.org/</dc:title></cc:Agent></dc:creator></cc:Work></rdf:RDF></metadata><defs
     id="defs6"><style
       id="style4"
       type="text/css">*{stroke-linejoin: round; stroke-linecap: butt}</style></defs><path
     style="fill:#f698b8;fill-opacity:1;stroke:#e5e5e5;stroke-width:0.75px;stroke-linecap:butt;stroke-linejoin:miter;stroke-opacity:1"
     d="m 182.30133,255.13245 c -4.70506,2.32578 -8.43936,6.26486 -12.912,9.0112 -5.55571,3.41138 -12.04566,5.29763 -17.23824,9.23978 -5.37318,4.07925 -10.20972,9.03348 -14.00315,14.61213 -4.68703,6.89276 -9.61458,14.43193 -10.42937,22.72738 -0.89925,9.15533 2.32825,18.59919 6.41011,26.84341 3.88293,7.84241 9.95802,14.64482 16.61092,20.32985 7.14914,6.10908 15.89711,10.13001 24.36244,14.22504 9.14771,4.42512 18.66696,8.15583 28.39338,11.09842 10.25743,3.10324 20.77686,5.52199 31.40992,6.85726 9.01324,1.13186 18.16958,0.3774 27.23548,0.951 11.05309,0.69934 22.03122,2.37398 33.08668,3.03488 11.79994,0.70541 23.69638,-0.27705 35.44918,0.99105 11.05123,1.1924 21.74746,4.72601 32.76468,6.19989 15.59005,2.08563 31.36437,5.01895 47.03977,3.72227 12.48814,-1.03303 26.58673,-1.39061 36.4786,-9.08294 7.76374,-6.0374 12.32345,-16.29494 13.96144,-25.99251 1.65448,-9.79521 -2.07837,-19.84676 -4.69663,-29.42947 -2.48848,-9.10775 -5.26709,-18.41675 -10.37932,-26.35456 -6.53143,-10.14141 -16.49999,-17.61398 -25.16997,-26.00085 -7.01911,-6.7899 -13.81784,-13.92194 -21.71464,-19.66747 -6.59093,-4.79542 -13.74373,-8.89086 -21.19577,-12.19291 -6.49268,-2.87695 -13.17326,-6.54655 -20.27479,-6.54359 -7.78035,0.003 -15.44495,3.33912 -22.20683,7.18761 -6.73496,3.83316 -11.27078,10.68489 -17.45013,15.36125 -7.89322,5.97338 -15.19179,14.3994 -24.93973,16.12039 -8.52847,1.5057 -17.4271,-2.2377 -25.33014,-5.77944 -6.39321,-2.86512 -11.38589,-8.16693 -17.12645,-12.1829 -7.88915,-5.51906 -15.22183,-11.99256 -23.79685,-16.37065 -6.10161,-3.11527 -12.51553,-6.77203 -19.3655,-6.88396 -8.73669,-0.14275 -17.13999,4.09641 -24.97309,7.96844 z"
     id="path2449"
     sodipodi:nodetypes="aaaaaaaaaaaaaaaaaaaaaaaaaaaaaaa" /><path
     style="fill:#f698b8;fill-opacity:1;stroke:#e5e5e5;stroke-width:0.75px;stroke-linecap:butt;stroke-linejoin:miter;stroke-opacity:1"
     d="m 29.246031,59.598862 c 5.980013,-6.87589 12.761692,-13.34657 20.640172,-17.92564 7.383659,-4.29148 15.859973,-6.53238 24.172246,-8.49231 12.148868,-2.86455 24.707176,-3.72392 37.152651,-4.67829 7.23979,-0.55518 14.51808,-0.8588 21.77471,-0.60564 12.61731,0.44017 25.39665,0.8352 37.69489,3.6889 8.79875,2.04167 17.32443,5.41139 25.37519,9.50673 8.40915,4.27765 15.91852,10.14399 23.63334,15.57481 9.10305,6.40807 18.94116,12.07623 26.70659,20.05289 4.13301,4.24543 7.29258,9.38305 10.28756,14.49534 4.24881,7.25252 8.87754,14.603478 10.80143,22.785778 1.67753,7.13454 1.66785,14.7608 0.42211,21.98326 -1.59108,9.22465 -5.27871,18.14174 -9.91382,26.27448 -5.32406,9.34157 -13.83866,16.48273 -20.16301,25.17831 -6.59372,9.06595 -11.69159,19.17894 -18.49791,28.08639 -6.52305,8.53674 -12.89318,17.5055 -21.31422,24.17725 -6.64875,5.26761 -15.08327,7.77945 -22.43207,12.01605 -8.42261,4.85565 -15.9892,11.24113 -24.80125,15.3479 -9.48749,4.42156 -20.2499,5.59543 -29.82656,9.8204 -8.39692,3.70449 -15.03347,11.50962 -23.990387,13.51096 -8.492,1.89746 -18.379033,2.22638 -26.034217,-1.91035 -8.21689,-4.44028 -13.524936,-13.59384 -17.028019,-22.25188 -5.232071,-12.93133 -0.623483,-28.26975 -4.833449,-41.56899 -2.006483,-6.33846 -7.136754,-11.32068 -9.51674,-17.52855 -2.879554,-7.51093 -3.323581,-15.75889 -5.614274,-23.46984 -2.644715,-8.90265 -6.297529,-17.47451 -9.36324,-26.2411 -3.411972,-9.75675 -8.496488,-19.11575 -10.050638,-29.33438 -1.52914,-10.05419 -0.626,-20.43675 0.86091,-30.497268 1.44606,-9.78415 3.73977,-19.60526 7.778235,-28.63363 1.5193,-3.39654 3.637997,-6.554 6.07977,-9.36158 z"
     id="path2447"
     sodipodi:nodetypes="aaaaaaaaaaaaaaaaaaaaaaaaaaaaaa" /><path
     style="fill:#121212;fill-opacity:1;stroke:#e5e5e5;stroke-width:0.75px;stroke-linecap:butt;stroke-linejoin:miter;stroke-opacity:1"
     d="m 123.92789,65.923892 c -1.12732,3.1713 -1.52568,6.6537 -1.30638,10.01226 0.31626,4.84353 2.18578,9.47518 3.74563,14.07156 2.24443,6.61364 5.33306,12.910168 8.04685,19.345468 4.01171,9.51311 7.44811,19.30115 12.17455,28.48014 3.16378,6.14424 6.62668,12.18695 10.78474,17.70707 3.66815,4.86973 7.40057,9.94961 12.38811,13.45591 4.66554,3.27993 10.07609,6.26648 15.76669,6.64369 9.86443,0.65389 19.69252,-3.54462 28.61194,-7.80826 8.65415,-4.13683 15.93165,-10.74072 23.32969,-16.84617 5.219,-4.30713 11.3465,-8.08 14.79065,-13.9047 3.27292,-5.53513 5.02978,-12.25666 4.80509,-18.68311 -0.25961,-7.42502 -3.05543,-14.87871 -7.04579,-21.145708 -3.25366,-5.10998 -8.69069,-8.44604 -13.19229,-12.4999 -6.63947,-5.97909 -13.01282,-12.35185 -20.36656,-17.42677 -7.66448,-5.28937 -15.88774,-9.89063 -24.51261,-13.40252 -10.11695,-4.11944 -20.79091,-6.98676 -31.55672,-8.83601 -4.03997,-0.69395 -8.21746,-1.44449 -12.26965,-0.82588 -5.02681,0.76739 -10.3123,2.2674 -14.22172,5.51918 -4.86281,4.0448 -7.85367,10.18396 -9.97222,16.14375 z"
     id="path512"
     sodipodi:nodetypes="aaaaaaaaaaaaaaaaaaaa" /><path
     style="fill:#121212;fill-opacity:1;stroke:#e5e5e5;stroke-width:0.75px;stroke-linecap:butt;stroke-linejoin:miter;stroke-opacity:1"
     d="m 127.67736,168.91554 c -5.17758,0.26636 -10.24417,1.99551 -15.0384,3.96872 -4.00305,1.64758 -7.76815,3.9149 -11.25137,6.48514 -4.128775,3.04659 -7.988529,6.53868 -11.278501,10.47627 -3.040401,3.63889 -5.56657,7.7304 -7.674337,11.9781 -2.107361,4.24687 -3.771284,8.74806 -4.896003,13.3537 -1.591455,6.51689 -2.450528,13.25405 -2.561258,19.96153 -0.07758,4.6997 0.06877,9.51054 1.331948,14.03796 1.310033,4.69534 3.504277,9.2169 6.355366,13.17084 2.234397,3.09871 4.764119,6.35869 8.220566,7.9858 4.083943,1.9225 8.971882,1.94456 13.461059,1.47352 6.17321,-0.64775 11.82965,-3.77019 17.68696,-5.82448 7.26962,-2.54962 14.49082,-5.24131 21.65803,-8.06602 6.2699,-2.47106 12.52574,-4.99029 18.66616,-7.76753 3.65217,-1.65184 7.24574,-3.4347 10.8007,-5.28651 5.56736,-2.9001 12.19701,-4.52561 16.47888,-9.116 2.74589,-2.94374 4.27456,-7.00763 5.09774,-10.94817 0.95939,-4.59253 0.51241,-9.45672 -0.33623,-14.071 -0.91217,-4.95972 -2.10958,-10.16168 -5.04347,-14.26329 -2.6651,-3.72584 -6.94882,-6.01287 -10.78183,-8.5214 -3.96163,-2.59272 -8.38419,-4.40273 -12.5314,-6.68688 -5.16898,-2.84691 -9.82111,-6.80013 -15.39233,-8.74557 -7.31731,-2.55516 -15.23191,-3.99294 -22.97228,-3.59473 z"
     id="path2435"
     sodipodi:nodetypes="aaaaaaaaaaaaaaaaaaaaaaa" /><path
     style="fill:#121212;fill-opacity:1;stroke:#e5e5e5;stroke-width:0.75px;stroke-linecap:butt;stroke-linejoin:miter;stroke-opacity:1"
     d="m 153.06225,284.22645 c -2.00177,2.7506 -3.77542,5.7832 -4.70842,9.05465 -1.57998,5.54004 -1.61264,11.47955 -1.31425,17.23275 0.28846,5.56185 0.74815,11.33934 2.98715,16.43878 2.80242,6.38266 7.71395,11.7226 12.61753,16.67708 4.25926,4.30347 9.20722,7.94823 14.37183,11.10862 5.35834,3.27893 11.20106,5.73656 17.04871,8.0318 5.64766,2.21675 11.5525,3.71273 17.34601,5.5142 4.49518,1.39776 8.88797,3.22432 13.51179,4.10792 6.21565,1.18779 12.6246,2.20893 18.91981,1.56436 6.25299,-0.64025 12.80598,-1.9229 18.08807,-5.33015 4.41983,-2.85104 8.21215,-7.12408 10.30403,-11.94979 2.45731,-5.66871 2.40519,-12.26713 1.97019,-18.4302 -0.45538,-6.45174 -2.79274,-12.64858 -4.75207,-18.81245 -1.83764,-5.78105 -3.52534,-11.72022 -6.54884,-16.97911 -3.8929,-6.77106 -9.48733,-12.42571 -14.65026,-18.28627 -5.06131,-5.7452 -9.99021,-11.7288 -15.97277,-16.5072 -4.70845,-3.76074 -9.58882,-7.98442 -15.44896,-9.38853 -8.17337,-1.95837 -17.00452,-0.19538 -25.14186,1.90767 -5.53189,1.42969 -10.59914,4.34736 -15.5799,7.14699 -6.70088,3.76648 -13.19636,7.99655 -19.10975,12.90775 -1.43776,1.19409 -2.83829,2.47997 -3.93804,3.99113 z"
     id="path2437"
     sodipodi:nodetypes="aaaaaaaaaaaaaaaaaaaaaa" /><path
     style="fill:#121212;fill-opacity:1;stroke:#e5e5e5;stroke-width:0.75px;stroke-linecap:butt;stroke-linejoin:miter;stroke-opacity:1"
     d="m 305.72906,295.23125 c -4.74213,3.51122 -10.32062,6.40973 -13.62976,11.29502 -2.47764,3.65773 -3.73022,8.20901 -4.06781,12.61399 -0.4962,6.47449 0.71023,13.19071 3.08389,19.2348 2.76145,7.03152 7.76009,13.037 12.59865,18.8384 4.23318,5.07557 8.68243,10.21729 14.23499,13.80201 5.56725,3.59421 12.15837,5.34547 18.48683,7.31097 6.48507,2.01415 13.16141,3.41669 19.85536,4.55859 9.11292,1.55454 18.3269,2.62983 27.55918,3.10632 6.16495,0.31818 12.42963,0.8467 18.5187,-0.16872 7.74768,-1.29201 15.41372,-3.77184 22.35762,-7.44309 5.39917,-2.85455 11.65191,-5.74301 14.57121,-11.10744 2.36689,-4.34936 2.09669,-9.95101 1.14673,-14.81071 -1.63277,-8.3527 -6.69445,-15.75636 -11.41181,-22.84015 -4.60327,-6.91247 -11.13185,-12.34417 -16.27125,-18.8679 -5.65579,-7.1792 -10.36202,-15.07217 -15.99519,-22.26914 -4.66791,-5.96375 -8.92229,-12.4373 -14.7293,-17.29882 -4.8212,-4.03622 -10.2054,-7.92318 -16.28894,-9.5124 -5.34511,-1.39632 -11.26188,-1.23755 -16.57091,0.29022 -4.58016,1.31802 -8.56067,4.35989 -12.24236,7.38648 -4.61029,3.78996 -7.5067,9.37007 -12.04063,13.25106 -5.81236,4.9753 -13.01631,8.07767 -19.1652,12.63051 z"
     id="path2439"
     sodipodi:nodetypes="aaaaaaaaaaaaaaaaaaaaaa" /><path
     style="fill:#f698b8;fill-opacity:1;stroke:#e5e5e5;stroke-width:0.75px;stroke-linecap:butt;stroke-linejoin:miter;stroke-opacity:1"
     d="m 335.49344,16.645072 c -9.12264,2.49352 -18.31618,5.12769 -26.8067,9.29317 -5.8708,2.88024 -11.27598,6.69617 -16.42571,10.72635 -6.03725,4.72476 -12.77902,9.16415 -16.83448,15.66992 -3.64001,5.8393 -5.14678,12.9283 -5.97466,19.75924 -1.09834,9.06254 0.39097,18.27997 1.43485,27.34894 0.80965,7.034058 2.67567,13.909738 3.73563,20.910458 1.03738,6.85163 3.52412,13.76701 2.56604,20.63017 -0.96626,6.92174 -4.68759,13.25243 -8.18699,19.30209 -3.64478,6.30099 -9.66759,11.03695 -13.17561,17.4151 -4.19457,7.62639 -7.12979,15.98969 -9.14969,24.45588 -2.08626,8.74431 -3.96569,17.87043 -2.97148,26.80503 0.86718,7.79305 3.42301,15.64591 7.66812,22.23853 4.84314,7.52137 11.53753,14.34131 19.47728,18.46287 7.35966,3.82044 16.09385,4.97776 24.38581,4.91687 6.34225,-0.0466 12.93073,-1.18012 18.59467,-4.03427 5.44098,-2.74179 9.12497,-8.07658 13.74287,-12.05108 4.68293,-4.03047 8.8106,-8.8693 14.15999,-11.96099 4.96406,-2.869 10.44512,-5.97596 16.17712,-5.84452 4.39953,0.10089 8.17859,3.25835 12.1979,5.05034 6.02953,2.68824 12.03507,5.4511 17.86558,8.54738 5.90043,3.13341 10.9193,8.12739 17.29163,10.13406 8.74511,2.75386 18.25826,2.61359 27.41735,2.19899 8.42468,-0.38135 17.53551,-0.24355 24.93305,-4.29287 9.37948,-5.13421 17.5098,-13.82603 21.62121,-23.69675 3.55028,-8.52355 1.79411,-18.442 1.37646,-27.66594 -0.71625,-15.81855 -1.59831,-32.02698 -6.63869,-47.03811 -3.50844,-10.44876 -10.15859,-19.59624 -16.07535,-28.89558 -5.51308,-8.66488 -12.52061,-16.31544 -18.04242,-24.97476 -7.18314,-11.264608 -12.92246,-23.388408 -19.55569,-34.985348 -6.54564,-11.44381 -11.67936,-23.88932 -19.97448,-34.13613 -6.23214,-7.69845 -13.23341,-15.33233 -21.9599,-20.01785 -8.64202,-4.64017 -18.73221,-6.9483 -28.53853,-7.17593 -4.87419,-0.11314 -9.63219,1.61926 -14.33518,2.90474 z"
     id="path2451"
     sodipodi:nodetypes="aaaaaaaaaaaaaaaaaaaaaaaaaaaaaaaaaa" /><path
     style="fill:#121212;fill-opacity:1;stroke:#e5e5e5;stroke-width:0.75px;stroke-linecap:butt;stroke-linejoin:miter;stroke-opacity:1"
     d="m 284.33766,157.26424 c -4.48204,0.56303 -8.78698,2.86616 -12.2813,5.72891 -3.18986,2.61332 -5.12763,6.47893 -7.33339,9.96307 -2.82058,4.45529 -5.61338,9.00359 -7.50445,13.92589 -1.78544,4.64735 -2.60448,9.62012 -3.54045,14.50987 -1.27543,6.66312 -3.29582,13.38891 -2.81845,20.15619 0.50595,7.1724 2.70022,14.32136 5.9566,20.73192 2.22939,4.38879 5.45998,8.30378 9.05702,11.66428 4.93861,4.61386 10.45935,9.04008 16.82219,11.31862 6.51612,2.33343 13.76253,2.42686 20.66939,1.97964 4.23736,-0.27438 8.60948,-0.96233 12.41816,-2.83969 4.40883,-2.17318 8.48984,-5.41044 11.36226,-9.39914 3.12053,-4.33325 4.83731,-9.68643 5.77138,-14.94402 1.07855,-6.07085 0.41725,-12.37253 -0.31263,-18.49509 -0.76037,-6.37829 -2.91549,-12.51314 -4.21292,-18.80419 -1.30751,-6.33993 -1.13115,-13.09901 -3.59826,-19.0838 -2.01208,-4.88096 -5.39536,-9.14987 -8.88596,-13.11067 -3.1186,-3.53869 -6.38383,-7.27933 -10.62256,-9.34842 -6.38534,-3.11693 -13.89656,-4.83899 -20.94663,-3.95337 z"
     id="path2441"
     sodipodi:nodetypes="aaaaaaaaaaaaaaaaaaa" /><path
     style="fill:#121212;fill-opacity:1;stroke:#e5e5e5;stroke-width:0.75px;stroke-linecap:butt;stroke-linejoin:miter;stroke-opacity:1"
     d="m 398.12785,150.49714 c -4.7151,1.20776 -9.67701,1.77405 -14.09342,3.82006 -3.35616,1.55483 -6.10517,4.17775 -9.13959,6.29284 -3.93104,2.74006 -8.32231,4.93498 -11.74569,8.28781 -3.78758,3.70953 -7.36967,7.92017 -9.43808,12.80157 -2.17447,5.1317 -3.06525,10.92407 -2.76772,16.48951 0.29879,5.58901 2.90365,10.81284 4.5291,16.16861 1.41325,4.65657 1.66845,9.94618 4.53972,13.87515 3.75135,5.13324 10.07532,7.79274 15.47019,11.15699 5.79576,3.61424 11.87707,6.78278 18.07628,9.65043 5.87132,2.71598 11.65212,6.17428 18.05032,7.12929 5.26791,0.7863 10.81732,0.22611 15.92794,-1.27414 5.6633,-1.66249 10.75653,-4.99829 15.61294,-8.3527 4.67064,-3.2261 10.16979,-6.1842 12.8287,-11.19946 2.73637,-5.16135 1.73944,-11.56682 2.13065,-17.39556 0.50469,-7.51955 1.20333,-15.12867 0.27489,-22.60773 -0.85274,-6.86926 -3.30405,-13.4511 -5.3219,-20.07244 -2.37598,-7.79649 -2.54665,-17.03728 -7.97989,-23.11267 -4.4582,-4.98511 -11.46677,-7.92567 -18.11876,-8.61697 -9.8349,-1.02209 -19.25705,4.50587 -28.83568,6.95941 z"
     id="path2443"
     sodipodi:nodetypes="aaaaaaaaaaaaaaaaaaaa" /><path
     style="fill:#121212;fill-opacity:1;stroke:#e5e5e5;stroke-width:0.75px;stroke-linecap:butt;stroke-linejoin:miter;stroke-opacity:1"
     d="m 48.478906,61.478372 c -8.534116,5.505702 -13.085843,16.060995 -16.456607,25.64128 -3.878482,11.023308 -4.519917,23.202568 -3.710596,34.860218 0.813004,11.7107 1.466555,24.79236 8.530696,34.16782 5.928008,7.8676 15.88638,13.0736 25.587078,14.78732 6.905688,1.21995 13.945025,-1.83497 20.71903,-3.64871 6.73688,-1.8038 13.956678,-3.14166 19.661873,-7.15289 7.29731,-5.13061 13.35072,-12.48392 17.1195,-20.56911 3.88016,-8.32414 5.83688,-17.98096 4.88538,-27.1156 -1.09463,-10.50874 -6.01728,-20.609366 -11.92855,-29.366578 -5.22479,-7.740241 -11.90826,-15.056725 -20.13024,-19.4849 -7.01525,-3.778255 -15.370637,-4.900341 -23.333288,-5.19213 -7.051452,-0.258399 -15.01493,-0.75198 -20.944276,3.07328 z"
     id="path463"
     sodipodi:nodetypes="aaaaaaaaaaaaa" /><use
     id="use171"
     x="386.17526"
     y="156.3597"
     fill="#73e6c8"
     stroke="#000000"
     stroke-width="0.3"
     xlink:href="#m36042471c1"
     style="stroke:#e5e5e5;stroke-opacity:1" /><use
     id="use173"
     x="420.81323"
     y="234.17856"
     fill="#73e6c8"
     stroke="#000000"
     stroke-width="0.3"
     xlink:href="#m36042471c1"
     style="stroke:#e5e5e5;stroke-opacity:1" /><use
     id="use175"
     x="251.62889"
     y="278.72339"
     fill="#73e6c8"
     stroke="#000000"
     stroke-width="0.3"
     xlink:href="#m36042471c1"
     style="stroke:#e5e5e5;stroke-opacity:1" /><use
     id="use177"
     x="172.86256"
     y="196.48207"
     fill="#73e6c8"
     stroke="#000000"
     stroke-width="0.3"
     xlink:href="#m36042471c1"
     style="stroke:#e5e5e5;stroke-opacity:1" /><use
     id="use179"
     x="126.67552"
     y="233.22708"
     fill="#73e6c8"
     stroke="#000000"
     stroke-width="0.3"
     xlink:href="#m36042471c1"
     style="stroke:#e5e5e5;stroke-opacity:1" /><use
     id="use181"
     x="221.4158"
     y="347.09714"
     fill="#73e6c8"
     stroke="#000000"
     stroke-width="0.3"
     xlink:href="#m36042471c1"
     style="stroke:#e5e5e5;stroke-opacity:1" /><use
     id="use183"
     x="235.71761"
     y="34.98843"
     fill="#73e6c8"
     stroke="#52aa71"
     stroke-width="1.5"
     xlink:href="#m36042471c1" /><use
     id="use185"
     x="204.53307"
     y="290.16516"
     fill="#73e6c8"
     stroke="#000000"
     stroke-width="0.3"
     xlink:href="#m36042471c1"
     style="stroke:#e5e5e5;stroke-opacity:1" /><use
     id="use187"
     x="94.938301"
     y="319.7774"
     fill="#73e6c8"
     stroke="#000000"
     stroke-width="0.3"
     xlink:href="#m36042471c1"
     style="stroke:#e5e5e5;stroke-opacity:1" /><use
     id="use189"
     x="88.150352"
     y="347.66953"
     fill="#73e6c8"
     stroke="#000000"
     stroke-width="0.3"
     xlink:href="#m36042471c1"
     style="stroke:#e5e5e5;stroke-opacity:1" /><use
     id="use191"
     x="342.59735"
     y="220.36911"
     fill="#73e6c8"
     stroke="#000000"
     stroke-width="0.3"
     xlink:href="#m36042471c1"
     style="stroke:#e5e5e5;stroke-opacity:1" /><use
     id="use193"
     x="318.18445"
     y="188.5988"
     fill="#73e6c8"
     stroke="#000000"
     stroke-width="0.3"
     xlink:href="#m36042471c1"
     style="stroke:#e5e5e5;stroke-opacity:1" /><use
     id="use195"
     x="234.63745"
     y="223.55769"
     fill="#73e6c8"
     stroke="#000000"
     stroke-width="0.3"
     xlink:href="#m36042471c1"
     style="stroke:#e5e5e5;stroke-opacity:1" /><use
     id="use197"
     x="140.02924"
     y="284.32916"
     fill="#73e6c8"
     stroke="#000000"
     stroke-width="0.3"
     xlink:href="#m36042471c1"
     style="stroke:#e5e5e5;stroke-opacity:1" /><use
     id="use199"
     transform="translate(1.3644,-11.5)"
     x="277.17023"
     y="183.33649"
     fill="#73e6c8"
     stroke="#000000"
     stroke-width="0.3"
     xlink:href="#m36042471c1"
     style="stroke:#e5e5e5;stroke-opacity:1" /><use
     id="use201"
     x="47.853615"
     y="268.64764"
     fill="#73e6c8"
     stroke="#000000"
     stroke-width="0.3"
     xlink:href="#m36042471c1"
     style="stroke:#e5e5e5;stroke-opacity:1" /><use
     id="use203"
     x="185.62202"
     y="238.71745"
     fill="#73e6c8"
     stroke="#000000"
     stroke-width="0.3"
     xlink:href="#m36042471c1"
     style="stroke:#e5e5e5;stroke-opacity:1" /><use
     id="use205"
     x="270.0098"
     y="335.62817"
     fill="#73e6c8"
     stroke="#000000"
     stroke-width="0.3"
     xlink:href="#m36042471c1"
     style="stroke:#e5e5e5;stroke-opacity:1" /><use
     id="use207"
     x="281.50009"
     y="256.55746"
     fill="#73e6c8"
     stroke="#000000"
     stroke-width="0.3"
     xlink:href="#m36042471c1"
     style="stroke:#e5e5e5;stroke-opacity:1" /><use
     id="use209"
     transform="translate(4.9615,6.0185)"
     x="59.043343"
     y="205.22687"
     fill="#73e6c8"
     stroke="#000000"
     stroke-width="0.3"
     xlink:href="#m36042471c1"
     style="stroke:#e5e5e5;stroke-opacity:1" /><use
     id="use211"
     x="274.74329"
     y="112.82859"
     fill="#73e6c8"
     stroke="#000000"
     stroke-width="0.3"
     xlink:href="#m36042471c1"
     style="stroke:#e5e5e5;stroke-opacity:1" /><use
     id="use213"
     x="117.75886"
     y="205.55341"
     fill="#73e6c8"
     stroke="#000000"
     stroke-width="0.3"
     xlink:href="#m36042471c1"
     style="stroke:#e5e5e5;stroke-opacity:1" /><use
     id="use215"
     x="260.02411"
     y="201.71959"
     fill="#73e6c8"
     stroke="#000000"
     stroke-width="0.3"
     xlink:href="#m36042471c1"
     style="stroke:#e5e5e5;stroke-opacity:1" /><use
     id="use217"
     x="77.343193"
     y="158.02727"
     fill="#73e6c8"
     stroke="#000000"
     stroke-width="0.3"
     xlink:href="#m36042471c1"
     style="stroke:#e5e5e5;stroke-opacity:1" /><use
     id="use219"
     x="39.986778"
     y="244.90347"
     fill="#73e6c8"
     stroke="#000000"
     stroke-width="0.3"
     xlink:href="#m36042471c1"
     style="stroke:#e5e5e5;stroke-opacity:1" /><use
     id="use221"
     x="177.70454"
     y="110.31161"
     fill="#73e6c8"
     stroke="#000000"
     stroke-width="0.3"
     xlink:href="#m36042471c1"
     style="stroke:#e5e5e5;stroke-opacity:1" /><use
     id="use223"
     x="176.35875"
     y="368.21158"
     fill="#73e6c8"
     stroke="#000000"
     stroke-width="0.3"
     xlink:href="#m36042471c1"
     style="stroke:#e5e5e5;stroke-opacity:1" /><use
     id="use225"
     x="156.08884"
     y="157.43974"
     fill="#73e6c8"
     stroke="#000000"
     stroke-width="0.3"
     xlink:href="#m36042471c1"
     style="stroke:#e5e5e5;stroke-opacity:1" /><use
     id="use227"
     x="222.94669"
     y="186.47655"
     fill="#73e6c8"
     stroke="#000000"
     stroke-width="0.3"
     xlink:href="#m36042471c1"
     style="stroke:#e5e5e5;stroke-opacity:1" /><use
     id="use229"
     transform="translate(2.4079,18.781)"
     x="323.17801"
     y="259.28793"
     fill="#73e6c8"
     stroke="#000000"
     stroke-width="0.3"
     xlink:href="#m36042471c1"
     style="stroke:#e5e5e5;stroke-opacity:1" /><path
     style="fill:#121212;fill-opacity:1;stroke:#e5e5e5;stroke-width:0.75px;stroke-linecap:butt;stroke-linejoin:miter;stroke-opacity:1"
     d="m 346.9947,23.126742 c -5.01022,0.35004 -9.85136,2.03873 -14.65026,3.5204 -8.48979,2.62123 -17.4914,4.58931 -24.91771,9.46757 -5.36671,3.52534 -9.4213,8.79343 -13.43038,13.80909 -3.59413,4.49654 -6.96501,9.26671 -9.42274,14.47211 -3.33806,7.06991 -6.21561,14.59763 -7.04552,22.37178 -0.79447,7.44218 1.32662,14.910338 2.07166,22.357628 0.77582,7.75494 -0.22666,15.94514 2.49755,23.24717 1.83472,4.91782 4.99404,9.5219 8.98387,12.93252 5.06481,4.32954 11.4443,7.47295 17.99133,8.71135 7.81264,1.4778 15.97575,-0.32859 23.78278,-1.83571 5.59171,-1.07946 11.44191,-2.14767 16.29956,-5.12015 6.72099,-4.11268 11.99908,-10.43976 16.57209,-16.85641 4.13441,-5.80123 6.32943,-12.76438 9.51594,-19.1357 3.59213,-7.18233 7.80044,-14.083378 10.82547,-21.522358 2.10389,-5.17377 4.46427,-10.42118 5.0541,-15.97513 0.72831,-6.85781 -0.0913,-13.95743 -1.95841,-20.59624 -1.80286,-6.41019 -4.27444,-13.02899 -8.75264,-17.95713 -4.41793,-4.86181 -10.58026,-8.20288 -16.81039,-10.28632 -5.27412,-1.76373 -11.05861,-1.99207 -16.6063,-1.60447 z"
     id="path2445"
     sodipodi:nodetypes="aaaaaaaaaaaaaaaaaaaa" /><g
     inkscape:groupmode="layer"
     id="layer1"
     inkscape:label="edge"><path
       style="fill:none;stroke:#e5e5e5;stroke-width:0.75px;stroke-linecap:butt;stroke-linejoin:miter;stroke-opacity:1"
       d="m 94.818767,247.6206 36.127533,-21.71959 48.27638,-0.801 -1.97064,61.09191 -10.87266,39.86645 39.2624,-12.08074 -28.38974,-27.78571 -46.30574,-60.29091 -35.447027,-15.24131 -0.680506,36.9609"
       id="path945" /><path
       style="fill:none;stroke:#e5e5e5;stroke-width:0.75px;stroke-linecap:butt;stroke-linejoin:miter;stroke-opacity:1"
       d="M 95.499273,210.6597 132.5764,186.5326 179.22268,225.10001 94.818767,247.6206"
       id="path947" /><path
       style="fill:none;stroke:#e5e5e5;stroke-width:0.75px;stroke-linecap:butt;stroke-linejoin:miter;stroke-opacity:1"
       d="M 130.9463,225.90101 132.5764,186.5326 60.488565,154.35752 96.718927,138.27156 60.682454,116.94343 60.509561,80.355832 107.18375,105.58486 60.682454,116.94343 60.488565,154.35752"
       id="path949" /><path
       style="fill:none;stroke:#e5e5e5;stroke-width:0.75px;stroke-linecap:butt;stroke-linejoin:miter;stroke-opacity:1"
       d="m 60.509561,80.355832 36.209366,57.915728 35.857473,48.26104 19.30609,-80.94773 25.97359,41.07451 -70.67233,-41.07451 36.24222,-40.470478 8.45652,40.470478 38.65837,12.08073 -47.11489,-52.551208 59.79966,16.30899 -12.68477,36.242218 -12.68478,28.99378 59.19564,-18.12111 -46.51086,-10.87267"
       id="path951" /><path
       style="fill:none;stroke:#e5e5e5;stroke-width:0.75px;stroke-linecap:butt;stroke-linejoin:miter;stroke-opacity:1"
       d="M 203.22563,81.423382 151.88249,105.58487 96.718927,138.27156"
       id="path953" /><path
       style="fill:none;stroke:#e5e5e5;stroke-width:0.75px;stroke-linecap:butt;stroke-linejoin:miter;stroke-opacity:1"
       d="m 132.5764,186.5326 45.27968,-39.87322 1.3666,78.44063 57.82904,-96.56174 -33.82609,-47.114888"
       id="path955" /><path
       style="fill:none;stroke:#e5e5e5;stroke-width:0.75px;stroke-linecap:butt;stroke-linejoin:miter;stroke-opacity:1"
       d="m 237.05172,128.53827 -23.55746,141.94869 -36.24222,15.70496"
       id="path957" /><path
       style="fill:none;stroke:#e5e5e5;stroke-width:0.75px;stroke-linecap:butt;stroke-linejoin:miter;stroke-opacity:1"
       d="m 205.64178,313.97763 7.85248,-43.49067 25.36957,36.24222 -33.22205,7.24845 -2.41615,32.01396 -36.84625,-19.93322"
       id="path959" /><path
       style="fill:none;stroke:#e5e5e5;stroke-width:0.75px;stroke-linecap:butt;stroke-linejoin:miter;stroke-opacity:1"
       d="m 205.64178,313.97763 41.07452,28.99377 -43.49067,3.02019"
       id="path961" /><path
       style="fill:none;stroke:#e5e5e5;stroke-width:0.75px;stroke-linecap:butt;stroke-linejoin:miter;stroke-opacity:1"
       d="m 246.71631,342.9714 -7.85248,-36.24222 64.02792,9.06056 -56.17545,27.18166 85.77325,13.89286 -93.62572,-50.13508"
       id="path963" /><path
       style="fill:none;stroke:#e5e5e5;stroke-width:0.75px;stroke-linecap:butt;stroke-linejoin:miter;stroke-opacity:1"
       d="m 213.49426,270.48696 89.39749,45.30278 -33.82607,-79.12885 -55.57142,33.82607"
       id="path965" /><path
       style="fill:none;stroke:#e5e5e5;stroke-width:0.75px;stroke-linecap:butt;stroke-linejoin:miter;stroke-opacity:1"
       d="m 179.22268,225.10001 96.48739,-27.09749 -38.65835,-69.46425 56.17543,42.88663 -17.51707,26.57762 -6.6444,38.65837 42.88661,13.28881 -36.24221,-51.94718 32.01396,15.70496 4.22825,36.24222 62.21582,-34.43011 -80.94096,-44.09469 14.49689,42.28258 77.31674,-38.65837 -10.87267,40.47048 31.40993,-12.08073 1.20807,37.45029 -32.618,-25.36956"
       id="path967" /><path
       style="fill:none;stroke:#e5e5e5;stroke-width:0.75px;stroke-linecap:butt;stroke-linejoin:miter;stroke-opacity:1"
       d="m 406.78611,240.88915 36.24221,-14.49689 -37.45028,-22.9534 -20.53726,-28.38975 42.28259,-11.4767 -21.74533,39.86645"
       id="path969" /><path
       style="fill:none;stroke:#e5e5e5;stroke-width:0.75px;stroke-linecap:butt;stroke-linejoin:miter;stroke-opacity:1"
       d="m 443.02832,226.39226 -15.70495,-62.81985 -84.56519,-31.40992 42.2826,42.88662"
       id="path971" /><path
       style="fill:none;stroke:#e5e5e5;stroke-width:0.75px;stroke-linecap:butt;stroke-linejoin:miter;stroke-opacity:1"
       d="m 307.72404,213.70748 35.03414,-81.54499 -49.53103,39.26241"
       id="path973" /><path
       style="fill:none;stroke:#e5e5e5;stroke-width:0.75px;stroke-linecap:butt;stroke-linejoin:miter;stroke-opacity:1"
       d="m 374.16811,215.51959 -75.50462,-89.39746 -61.61177,2.41614"
       id="path975" /><path
       style="fill:none;stroke:#e5e5e5;stroke-width:0.75px;stroke-linecap:butt;stroke-linejoin:miter;stroke-opacity:1"
       d="m 298.66349,126.12213 1.20807,-42.282588 27.18167,23.557428 5.43632,-36.242218 28.38974,26.57763 -7.66125,-61.55798 -53.34648,47.66514"
       id="path977"
       sodipodi:nodetypes="ccccccc" /><path
       style="fill:none;stroke:#e5e5e5;stroke-width:0.75px;stroke-linecap:butt;stroke-linejoin:miter;stroke-opacity:1"
       d="M 353.21804,36.174402 427.32337,163.57241"
       id="path1075" /><path
       style="fill:none;stroke:#e5e5e5;stroke-width:0.75px;stroke-linecap:butt;stroke-linejoin:miter;stroke-opacity:1"
       d="M 342.75818,132.16249 327.05323,107.39697"
       id="path1077" /><path
       style="fill:none;stroke:#e5e5e5;stroke-width:0.75px;stroke-linecap:butt;stroke-linejoin:miter;stroke-opacity:1"
       d="m 342.75818,132.16249 18.12111,-34.430108 66.44408,65.840028"
       id="path1079" /><path
       style="fill:none;stroke:#e5e5e5;stroke-width:0.75px;stroke-linecap:butt;stroke-linejoin:miter;stroke-opacity:1"
       d="m 332.48955,71.154752 20.72849,-34.98035"
       id="path1081" /><path
       style="fill:none;stroke:#e5e5e5;stroke-width:0.75px;stroke-linecap:butt;stroke-linejoin:miter;stroke-opacity:1"
       d="m 332.48955,71.154752 -32.61799,12.68479"
       id="path1083" /><path
       style="fill:none;stroke:#e5e5e5;stroke-width:0.75px;stroke-linecap:butt;stroke-linejoin:miter;stroke-opacity:1"
       d="m 327.05323,107.39697 -28.38974,18.72516 44.09469,6.04036"
       id="path1085" /><path
       style="fill:none;stroke:#e5e5e5;stroke-width:0.75px;stroke-linecap:butt;stroke-linejoin:miter;stroke-opacity:1"
       d="m 327.05323,107.39697 33.82606,-9.664588"
       id="path1087" /><path
       style="fill:none;stroke:#e5e5e5;stroke-width:0.75px;stroke-linecap:butt;stroke-linejoin:miter;stroke-opacity:1"
       d="m 360.87929,97.732382 24.16149,77.316728"
       id="path1089" /><path
       style="fill:none;stroke:#e5e5e5;stroke-width:0.75px;stroke-linecap:butt;stroke-linejoin:miter;stroke-opacity:1"
       d="m 406.7861,240.88915 -47.71891,38.65837 -47.1149,-29.59782"
       id="path1091" /><path
       style="fill:none;stroke:#e5e5e5;stroke-width:0.75px;stroke-linecap:butt;stroke-linejoin:miter;stroke-opacity:1"
       d="m 302.89175,315.78974 56.17544,-36.24222 36.24221,34.43011 22.95339,42.28258 -44.09468,1.20808 21.14129,-43.49066 -47.71891,8.45651 26.57762,35.03415 -41.67856,-0.60403 15.10094,-34.43012 z"
       id="path1093" /><path
       style="fill:none;stroke:#e5e5e5;stroke-width:0.75px;stroke-linecap:butt;stroke-linejoin:miter;stroke-opacity:1"
       d="m 302.89175,315.78974 29.5978,41.07452"
       id="path1095" /><path
       style="fill:none;stroke:#e5e5e5;stroke-width:0.75px;stroke-linecap:butt;stroke-linejoin:miter;stroke-opacity:1"
       d="m 347.59049,322.43414 11.4767,-42.88662"
       id="path1097" /><path
       style="fill:none;stroke:#e5e5e5;stroke-width:0.75px;stroke-linecap:butt;stroke-linejoin:miter;stroke-opacity:1"
       d="m 359.06719,279.54752 15.10092,77.92077"
       id="path1099" /><path
       style="fill:none;stroke:#e5e5e5;stroke-width:0.75px;stroke-linecap:butt;stroke-linejoin:miter;stroke-opacity:1"
       d="m 347.59049,322.43414 70.6723,33.82607"
       id="path1101" /><path
       style="fill:none;stroke:#e5e5e5;stroke-width:0.75px;stroke-linecap:butt;stroke-linejoin:miter;stroke-opacity:1"
       d="m 203.22563,345.99159 35.6382,-39.26241"
       id="path1103" /><path
       style="fill:none;stroke:#e5e5e5;stroke-width:0.75px;stroke-linecap:butt;stroke-linejoin:miter;stroke-opacity:1"
       d="m 96.718927,138.27156 10.464823,-32.6867"
       id="path1105" /><path
       style="fill:none;stroke:#e5e5e5;stroke-width:0.75px;stroke-linecap:butt;stroke-linejoin:miter;stroke-opacity:1"
       d="m 269.06568,236.66089 38.65836,-22.95341"
       id="path1107" /></g><circle
     style="fill:#73e6c8;fill-opacity:1;stroke:#e5e5e5;stroke-width:0.6;stroke-linecap:butt;stroke-linejoin:round;stroke-miterlimit:10;stroke-dasharray:none;stroke-opacity:1"
     id="path395-5-6"
     cx="179.22269"
     cy="225.10001"
     r="7.7398577" /><circle
     style="fill:#73e6c8;fill-opacity:1;stroke:#e5e5e5;stroke-width:0.6;stroke-linecap:butt;stroke-linejoin:round;stroke-miterlimit:10;stroke-dasharray:none;stroke-opacity:1"
     id="path395-5-3"
     cx="96.718925"
     cy="138.27156"
     r="7.7398577" /><circle
     style="fill:#73e6c8;fill-opacity:1;stroke:#e5e5e5;stroke-width:0.6;stroke-linecap:butt;stroke-linejoin:round;stroke-miterlimit:10;stroke-dasharray:none;stroke-opacity:1"
     id="path395-5-3-3"
     cx="95.499275"
     cy="210.6597"
     r="7.7398577" /><circle
     style="fill:#73e6c8;fill-opacity:1;stroke:#e5e5e5;stroke-width:0.6;stroke-linecap:butt;stroke-linejoin:round;stroke-miterlimit:10;stroke-dasharray:none;stroke-opacity:1"
     id="path395-5-3-3-3"
     cx="130.9463"
     cy="225.901"
     r="7.7398577" /><circle
     style="fill:#73e6c8;fill-opacity:1;stroke:#e5e5e5;stroke-width:0.6;stroke-linecap:butt;stroke-linejoin:round;stroke-miterlimit:10;stroke-dasharray:none;stroke-opacity:1"
     id="path395-5-3-6"
     cx="94.818764"
     cy="247.62061"
     r="7.7398577" /><circle
     style="fill:#73e6c8;fill-opacity:1;stroke:#e5e5e5;stroke-width:0.6;stroke-linecap:butt;stroke-linejoin:round;stroke-miterlimit:10;stroke-dasharray:none;stroke-opacity:1"
     id="path395-5-3-7"
     cx="132.5764"
     cy="186.53259"
     r="7.7398577" /><circle
     style="fill:#73e6c8;fill-opacity:1;stroke:#e5e5e5;stroke-width:0.6;stroke-linecap:butt;stroke-linejoin:round;stroke-miterlimit:10;stroke-dasharray:none;stroke-opacity:1"
     id="path395-5-3-5"
     cx="60.50956"
     cy="80.355835"
     r="7.7398577" /><circle
     style="fill:#73e6c8;fill-opacity:1;stroke:#e5e5e5;stroke-width:0.6;stroke-linecap:butt;stroke-linejoin:round;stroke-miterlimit:10;stroke-dasharray:none;stroke-opacity:1"
     id="path395-5-3-5-3"
     cx="107.18375"
     cy="105.58487"
     r="7.7398577" /><circle
     style="fill:#73e6c8;fill-opacity:1;stroke:#e5e5e5;stroke-width:0.6;stroke-linecap:butt;stroke-linejoin:round;stroke-miterlimit:10;stroke-dasharray:none;stroke-opacity:1"
     id="path395-5-3-5-6"
     cx="143.42596"
     cy="65.114395"
     r="7.7398577" /><circle
     style="fill:#73e6c8;fill-opacity:1;stroke:#e5e5e5;stroke-width:0.6;stroke-linecap:butt;stroke-linejoin:round;stroke-miterlimit:10;stroke-dasharray:none;stroke-opacity:1"
     id="path395-5-3-5-7"
     cx="151.88249"
     cy="105.58487"
     r="7.7398577" /><circle
     style="fill:#73e6c8;fill-opacity:1;stroke:#e5e5e5;stroke-width:0.6;stroke-linecap:butt;stroke-linejoin:round;stroke-miterlimit:10;stroke-dasharray:none;stroke-opacity:1"
     id="path395-5-3-5-5"
     cx="177.85608"
     cy="146.65938"
     r="7.7398577" /><circle
     style="fill:#73e6c8;fill-opacity:1;stroke:#e5e5e5;stroke-width:0.6;stroke-linecap:butt;stroke-linejoin:round;stroke-miterlimit:10;stroke-dasharray:none;stroke-opacity:1"
     id="path395-5-3-5-35"
     cx="190.54086"
     cy="117.6656"
     r="7.7398577" /><circle
     style="fill:#73e6c8;fill-opacity:1;stroke:#e5e5e5;stroke-width:0.6;stroke-linecap:butt;stroke-linejoin:round;stroke-miterlimit:10;stroke-dasharray:none;stroke-opacity:1"
     id="path395-5-3-5-62"
     cx="203.22563"
     cy="81.423386"
     r="7.7398577" /><circle
     style="fill:#73e6c8;fill-opacity:1;stroke:#e5e5e5;stroke-width:0.6;stroke-linecap:butt;stroke-linejoin:round;stroke-miterlimit:10;stroke-dasharray:none;stroke-opacity:1"
     id="path395-5-3-5-9"
     cx="237.05171"
     cy="128.53827"
     r="7.7398577" /><circle
     style="fill:#73e6c8;fill-opacity:1;stroke:#e5e5e5;stroke-width:0.6;stroke-linecap:butt;stroke-linejoin:round;stroke-miterlimit:10;stroke-dasharray:none;stroke-opacity:1"
     id="path395-5-3-5-1"
     cx="213.49426"
     cy="270.48697"
     r="7.7398577" /><circle
     style="fill:#73e6c8;fill-opacity:1;stroke:#e5e5e5;stroke-width:0.6;stroke-linecap:butt;stroke-linejoin:round;stroke-miterlimit:10;stroke-dasharray:none;stroke-opacity:1"
     id="path395-5-3-5-2"
     cx="177.25204"
     cy="286.19193"
     r="7.7398577" /><circle
     style="fill:#73e6c8;fill-opacity:1;stroke:#e5e5e5;stroke-width:0.6;stroke-linecap:butt;stroke-linejoin:round;stroke-miterlimit:10;stroke-dasharray:none;stroke-opacity:1"
     id="path395-5-3-5-70"
     cx="166.37938"
     cy="326.05838"
     r="7.7398577" /><circle
     style="fill:#73e6c8;fill-opacity:1;stroke:#e5e5e5;stroke-width:0.6;stroke-linecap:butt;stroke-linejoin:round;stroke-miterlimit:10;stroke-dasharray:none;stroke-opacity:1"
     id="path395-5-3-5-93"
     cx="205.64178"
     cy="313.97763"
     r="7.7398577" /><circle
     style="fill:#73e6c8;fill-opacity:1;stroke:#e5e5e5;stroke-width:0.6;stroke-linecap:butt;stroke-linejoin:round;stroke-miterlimit:10;stroke-dasharray:none;stroke-opacity:1"
     id="path395-5-3-5-60"
     cx="203.22563"
     cy="345.99158"
     r="7.7398577" /><circle
     style="fill:#73e6c8;fill-opacity:1;stroke:#e5e5e5;stroke-width:0.6;stroke-linecap:butt;stroke-linejoin:round;stroke-miterlimit:10;stroke-dasharray:none;stroke-opacity:1"
     id="path395-5-3-5-626"
     cx="238.86383"
     cy="306.72919"
     r="7.7398577" /><circle
     style="fill:#73e6c8;fill-opacity:1;stroke:#e5e5e5;stroke-width:0.6;stroke-linecap:butt;stroke-linejoin:round;stroke-miterlimit:10;stroke-dasharray:none;stroke-opacity:1"
     id="path395-5-3-5-18"
     cx="246.71631"
     cy="342.97141"
     r="7.7398577" /><circle
     style="fill:#73e6c8;fill-opacity:1;stroke:#e5e5e5;stroke-width:0.6;stroke-linecap:butt;stroke-linejoin:round;stroke-miterlimit:10;stroke-dasharray:none;stroke-opacity:1"
     id="path395-5-3-5-79"
     cx="302.89175"
     cy="315.78973"
     r="7.7398577" /><circle
     style="fill:#73e6c8;fill-opacity:1;stroke:#e5e5e5;stroke-width:0.6;stroke-linecap:butt;stroke-linejoin:round;stroke-miterlimit:10;stroke-dasharray:none;stroke-opacity:1"
     id="path395-5-3-5-20"
     cx="332.48956"
     cy="356.86426"
     r="7.7398577" /><circle
     style="fill:#73e6c8;fill-opacity:1;stroke:#e5e5e5;stroke-width:0.6;stroke-linecap:butt;stroke-linejoin:round;stroke-miterlimit:10;stroke-dasharray:none;stroke-opacity:1"
     id="path395-5-3-5-23"
     cx="347.59048"
     cy="322.43414"
     r="7.7398577" /><circle
     style="fill:#73e6c8;fill-opacity:1;stroke:#e5e5e5;stroke-width:0.6;stroke-linecap:butt;stroke-linejoin:round;stroke-miterlimit:10;stroke-dasharray:none;stroke-opacity:1"
     id="path395-5-3-5-75"
     cx="359.0672"
     cy="279.54752"
     r="7.7398577" /><circle
     style="fill:#73e6c8;fill-opacity:1;stroke:#e5e5e5;stroke-width:0.6;stroke-linecap:butt;stroke-linejoin:round;stroke-miterlimit:10;stroke-dasharray:none;stroke-opacity:1"
     id="path395-5-3-5-92"
     cx="395.30939"
     cy="313.97763"
     r="7.7398577" /><circle
     style="fill:#73e6c8;fill-opacity:1;stroke:#e5e5e5;stroke-width:0.6;stroke-linecap:butt;stroke-linejoin:round;stroke-miterlimit:10;stroke-dasharray:none;stroke-opacity:1"
     id="path395-5-3-5-28"
     cx="374.16812"
     cy="357.46829"
     r="7.7398577" /><circle
     style="fill:#73e6c8;fill-opacity:1;stroke:#e5e5e5;stroke-width:0.6;stroke-linecap:butt;stroke-linejoin:round;stroke-miterlimit:10;stroke-dasharray:none;stroke-opacity:1"
     id="path395-5-3-5-97"
     cx="418.26279"
     cy="356.26022"
     r="7.7398577" /><circle
     style="fill:#73e6c8;fill-opacity:1;stroke:#e5e5e5;stroke-width:0.6;stroke-linecap:butt;stroke-linejoin:round;stroke-miterlimit:10;stroke-dasharray:none;stroke-opacity:1"
     id="path395-5-3-5-36"
     cx="311.9523"
     cy="249.94971"
     r="7.7398577" /><circle
     style="fill:#73e6c8;fill-opacity:1;stroke:#e5e5e5;stroke-width:0.6;stroke-linecap:butt;stroke-linejoin:round;stroke-miterlimit:10;stroke-dasharray:none;stroke-opacity:1"
     id="path395-5-3-5-12"
     cx="269.06567"
     cy="236.66089"
     r="7.7398577" /><circle
     style="fill:#73e6c8;fill-opacity:1;stroke:#e5e5e5;stroke-width:0.6;stroke-linecap:butt;stroke-linejoin:round;stroke-miterlimit:10;stroke-dasharray:none;stroke-opacity:1"
     id="path395-5-3-5-931"
     cx="275.71008"
     cy="198.00252"
     r="7.7398577" /><circle
     style="fill:#73e6c8;fill-opacity:1;stroke:#e5e5e5;stroke-width:0.6;stroke-linecap:butt;stroke-linejoin:round;stroke-miterlimit:10;stroke-dasharray:none;stroke-opacity:1"
     id="path395-5-3-5-94"
     cx="307.72403"
     cy="213.70749"
     r="7.7398577" /><circle
     style="fill:#73e6c8;fill-opacity:1;stroke:#e5e5e5;stroke-width:0.6;stroke-linecap:butt;stroke-linejoin:round;stroke-miterlimit:10;stroke-dasharray:none;stroke-opacity:1"
     id="path395-5-3-5-78"
     cx="293.22714"
     cy="171.4249"
     r="7.7398577" /><circle
     style="fill:#73e6c8;fill-opacity:1;stroke:#e5e5e5;stroke-width:0.6;stroke-linecap:butt;stroke-linejoin:round;stroke-miterlimit:10;stroke-dasharray:none;stroke-opacity:1"
     id="path395-5-3-5-4"
     cx="298.66348"
     cy="126.12213"
     r="7.7398577" /><circle
     style="fill:#73e6c8;fill-opacity:1;stroke:#e5e5e5;stroke-width:0.6;stroke-linecap:butt;stroke-linejoin:round;stroke-miterlimit:10;stroke-dasharray:none;stroke-opacity:1"
     id="path395-5-3-5-50"
     cx="299.87155"
     cy="83.839539"
     r="7.7398577" /><circle
     style="fill:#73e6c8;fill-opacity:1;stroke:#e5e5e5;stroke-width:0.6;stroke-linecap:butt;stroke-linejoin:round;stroke-miterlimit:10;stroke-dasharray:none;stroke-opacity:1"
     id="path395-5-3-5-361"
     cx="327.05322"
     cy="107.39697"
     r="7.7398577" /><circle
     style="fill:#73e6c8;fill-opacity:1;stroke:#e5e5e5;stroke-width:0.6;stroke-linecap:butt;stroke-linejoin:round;stroke-miterlimit:10;stroke-dasharray:none;stroke-opacity:1"
     id="path395-5-3-5-0"
     cx="332.48956"
     cy="71.154755"
     r="7.7398577" /><circle
     style="fill:#73e6c8;fill-opacity:1;stroke:#e5e5e5;stroke-width:0.6;stroke-linecap:butt;stroke-linejoin:round;stroke-miterlimit:10;stroke-dasharray:none;stroke-opacity:1"
     id="path395-5-3-5-63"
     cx="360.8793"
     cy="97.732391"
     r="7.7398577" /><circle
     style="fill:#73e6c8;fill-opacity:1;stroke:#e5e5e5;stroke-width:0.6;stroke-linecap:butt;stroke-linejoin:round;stroke-miterlimit:10;stroke-dasharray:none;stroke-opacity:1"
     id="path395-5-3-5-206"
     cx="342.75818"
     cy="132.16249"
     r="7.7398577" /><circle
     style="fill:#73e6c8;fill-opacity:1;stroke:#e5e5e5;stroke-width:0.6;stroke-linecap:butt;stroke-linejoin:round;stroke-miterlimit:10;stroke-dasharray:none;stroke-opacity:1"
     id="path395-5-3-5-15"
     cx="374.16812"
     cy="215.51959"
     r="7.7398577" /><circle
     style="fill:#73e6c8;fill-opacity:1;stroke:#e5e5e5;stroke-width:0.6;stroke-linecap:butt;stroke-linejoin:round;stroke-miterlimit:10;stroke-dasharray:none;stroke-opacity:1"
     id="path395-5-3-5-54"
     cx="385.04077"
     cy="175.04912"
     r="7.7398577" /><circle
     style="fill:#73e6c8;fill-opacity:1;stroke:#e5e5e5;stroke-width:0.6;stroke-linecap:butt;stroke-linejoin:round;stroke-miterlimit:10;stroke-dasharray:none;stroke-opacity:1"
     id="path395-5-3-5-76"
     cx="405.57803"
     cy="203.43886"
     r="7.7398577" /><circle
     style="fill:#73e6c8;fill-opacity:1;stroke:#e5e5e5;stroke-width:0.6;stroke-linecap:butt;stroke-linejoin:round;stroke-miterlimit:10;stroke-dasharray:none;stroke-opacity:1"
     id="path395-5-3-5-56"
     cx="406.7861"
     cy="240.88916"
     r="7.7398577" /><circle
     style="fill:#73e6c8;fill-opacity:1;stroke:#e5e5e5;stroke-width:0.6;stroke-linecap:butt;stroke-linejoin:round;stroke-miterlimit:10;stroke-dasharray:none;stroke-opacity:1"
     id="path395-5-3-5-937"
     cx="443.02832"
     cy="226.39226"
     r="7.7398577" /><circle
     style="fill:#73e6c8;fill-opacity:1;stroke:#e5e5e5;stroke-width:0.6;stroke-linecap:butt;stroke-linejoin:round;stroke-miterlimit:10;stroke-dasharray:none;stroke-opacity:1"
     id="path395-5-3-5-45"
     cx="427.32336"
     cy="163.5724"
     r="7.7398577" /><circle
     style="fill:#73e6c8;fill-opacity:1;stroke:#e5e5e5;stroke-width:0.6;stroke-linecap:butt;stroke-linejoin:round;stroke-miterlimit:10;stroke-dasharray:none;stroke-opacity:1"
     id="path395-5-3-5-25"
     cx="353.21805"
     cy="36.174408"
     r="7.7398577" /><circle
     style="fill:#73e6c8;fill-opacity:1;stroke:#e5e5e5;stroke-width:0.6;stroke-linecap:butt;stroke-linejoin:round;stroke-miterlimit:10;stroke-dasharray:none;stroke-opacity:1"
     id="path395-5-7"
     cx="60.682453"
     cy="116.94344"
     r="7.7398577" /><circle
     style="fill:#73e6c8;fill-opacity:1;stroke:#e5e5e5;stroke-width:0.6;stroke-linecap:butt;stroke-linejoin:round;stroke-miterlimit:10;stroke-dasharray:none;stroke-opacity:1"
     id="path395-5-5"
     cx="60.488564"
     cy="154.35751"
     r="7.7398577" /></svg>
