<?xml version="1.0" encoding="UTF-8" standalone="no"?>
<svg
   id="svg241"
   width="499.79999pt"
   height="422.20001pt"
   version="1.1"
   viewBox="0 0 499.80001 422.19995"
   sodipodi:docname="clustered.svg"
   inkscape:version="1.3 (0e150ed6c4, 2023-07-21)"
   inkscape:export-filename="clustered.pdf"
   inkscape:export-xdpi="400"
   inkscape:export-ydpi="400"
   xml:space="preserve"
   xmlns:inkscape="http://www.inkscape.org/namespaces/inkscape"
   xmlns:sodipodi="http://sodipodi.sourceforge.net/DTD/sodipodi-0.dtd"
   xmlns:xlink="http://www.w3.org/1999/xlink"
   xmlns="http://www.w3.org/2000/svg"
   xmlns:svg="http://www.w3.org/2000/svg"
   xmlns:rdf="http://www.w3.org/1999/02/22-rdf-syntax-ns#"
   xmlns:cc="http://creativecommons.org/ns#"
   xmlns:dc="http://purl.org/dc/elements/1.1/"><sodipodi:namedview
     id="namedview114"
     pagecolor="#121212"
     bordercolor="#666666"
     borderopacity="1.0"
     inkscape:showpageshadow="2"
     inkscape:pageopacity="0.0"
     inkscape:pagecheckerboard="0"
     inkscape:deskcolor="#d1d1d1"
     inkscape:document-units="pt"
     showgrid="false"
     inkscape:zoom="1.5695468"
     inkscape:cx="366.02923"
     inkscape:cy="330.03157"
     inkscape:window-width="1920"
     inkscape:window-height="1043"
     inkscape:window-x="0"
     inkscape:window-y="0"
     inkscape:window-maximized="1"
     inkscape:current-layer="svg241" /><metadata
     id="metadata2"><rdf:RDF><cc:Work><dc:type
           rdf:resource="http://purl.org/dc/dcmitype/StillImage" /><dc:date>2023-04-26T18:29:45.010885</dc:date><dc:format>image/svg+xml</dc:format><dc:creator><cc:Agent><dc:title>Matplotlib v3.7.1, https://matplotlib.org/</dc:title></cc:Agent></dc:creator></cc:Work></rdf:RDF></metadata><defs
     id="defs6"><style
       id="style4"
       type="text/css">*{stroke-linejoin: round; stroke-linecap: butt}</style></defs><path
     id="path2449"
     style="fill:#f47ea6;fill-opacity:1;stroke:#e5e5e5;stroke-width:0.75px;stroke-linecap:butt;stroke-linejoin:miter;stroke-opacity:1"
     d="M 207.27393 247.16455 C 198.53724 247.0218 190.13436 251.25981 182.30127 255.13184 C 177.59621 257.45761 173.86131 261.39722 169.38867 264.14355 C 163.83297 267.55493 157.34297 269.44164 152.15039 273.38379 C 146.77722 277.46303 141.94138 282.41696 138.14795 287.99561 C 133.46092 294.88836 128.53305 302.42721 127.71826 310.72266 C 126.81901 319.87798 130.04656 329.32171 134.12842 337.56592 C 138.01134 345.40832 144.08685 352.21146 150.73975 357.89648 C 157.88888 364.00556 166.63624 368.02656 175.10156 372.12158 C 184.24926 376.5467 193.76968 380.27665 203.49609 383.21924 C 213.75351 386.32248 224.27222 388.74237 234.90527 390.07764 C 243.9185 391.2095 253.07522 390.45472 262.14111 391.02832 C 273.19419 391.72766 284.17209 393.40258 295.22754 394.06348 C 307.02747 394.76889 318.92397 393.78561 330.67676 395.05371 C 341.72798 396.24611 352.42371 399.78052 363.44092 401.25439 C 379.03095 403.34002 394.80606 406.27324 410.48145 404.97656 C 422.96957 403.94353 437.06859 403.58539 446.96045 395.89307 C 454.72418 389.85567 459.28389 379.59844 460.92188 369.90088 C 462.57635 360.10568 458.84238 350.0534 456.22412 340.4707 C 453.73564 331.36296 450.95793 322.0545 445.8457 314.1167 C 439.31428 303.9753 429.34526 296.50258 420.67529 288.11572 C 413.65619 281.32583 406.85724 274.19425 398.96045 268.44873 C 392.36953 263.65332 385.21619 259.55742 377.76416 256.25537 C 371.27149 253.37842 364.59225 249.70895 357.49072 249.71191 C 349.71038 249.71491 342.04556 253.05142 335.28369 256.8999 C 328.54874 260.73306 324.01235 267.5839 317.83301 272.26025 C 309.9398 278.23363 302.64197 286.65987 292.89404 288.38086 C 284.36558 289.88656 275.46553 286.14379 267.5625 282.60205 C 261.1693 279.73693 256.17757 274.43491 250.43701 270.41895 C 242.54787 264.89989 235.21564 258.42594 226.64063 254.04785 C 220.53902 250.93258 214.12389 247.27648 207.27393 247.16455 z M 210.59912 257.44922 C 212.70357 257.52647 214.78869 257.78287 216.83203 258.27246 C 222.69217 259.67657 227.57184 263.90137 232.28027 267.66211 C 238.26283 272.44049 243.19162 278.42277 248.25293 284.16797 C 253.41584 290.02851 259.0114 295.68402 262.9043 302.45508 C 265.92778 307.71395 267.61451 313.65305 269.45215 319.43408 C 271.41148 325.59795 273.74872 331.79535 274.2041 338.24707 C 274.6391 344.41012 274.69118 351.00758 272.23389 356.67627 C 270.14201 361.50196 266.34999 365.77544 261.93018 368.62646 C 256.64809 372.03371 250.09526 373.31678 243.84229 373.95703 C 237.54708 374.6016 231.13801 373.58037 224.92236 372.39258 C 220.29856 371.50898 215.90582 369.68145 211.41064 368.28369 C 205.61715 366.48222 199.71307 364.98677 194.06543 362.77002 C 188.2178 360.47478 182.37445 358.01721 177.01611 354.73828 C 171.85152 351.57789 166.90379 347.93384 162.64453 343.63037 C 157.74097 338.67591 152.82877 333.33577 150.02637 326.95313 C 147.78737 321.85369 147.32801 316.07503 147.03955 310.51318 C 146.74116 304.76 146.77354 298.8208 148.35352 293.28076 C 149.2865 290.00931 151.05977 286.97716 153.06152 284.22656 C 154.16127 282.7154 155.56273 281.42895 157.00049 280.23486 C 162.91386 275.32368 169.4085 271.09459 176.10938 267.32813 C 181.09012 264.5285 186.15758 261.61084 191.68945 260.18115 C 197.79245 258.60387 204.2858 257.21745 210.59912 257.44922 z M 357.44971 260.72168 C 360.26065 260.66556 363.07549 260.9742 365.74805 261.67236 C 371.83157 263.26158 377.21591 267.14884 382.03711 271.18506 C 387.8441 276.04656 392.09822 282.52113 396.76611 288.48486 C 402.39928 295.68183 407.10642 303.57424 412.76221 310.75342 C 417.90159 317.27713 424.42896 322.70814 429.03223 329.62061 C 433.74957 336.70438 438.81207 344.10923 440.44482 352.46191 C 441.39478 357.32161 441.66474 362.92214 439.29785 367.27148 C 436.37855 372.63591 430.12622 375.52486 424.72705 378.37939 C 417.78317 382.05064 410.1168 384.53026 402.36914 385.82227 C 396.28009 386.83767 390.01552 386.3089 383.85059 385.99072 C 374.61833 385.51423 365.40392 384.43979 356.29102 382.88525 C 349.59707 381.74337 342.92159 380.34081 336.43652 378.32666 C 330.10808 376.36116 323.51596 374.60982 317.94873 371.01563 C 312.39619 367.43091 307.94654 362.28942 303.71338 357.21387 C 298.87482 351.41247 293.87717 345.40601 291.11572 338.37451 C 288.74208 332.33044 287.53456 325.61412 288.03076 319.13965 C 288.36835 314.73467 289.62101 310.18361 292.09863 306.52588 C 295.40777 301.64059 300.98689 298.74315 305.729 295.23193 C 311.87789 290.67911 319.08121 287.57587 324.89355 282.60059 C 329.42748 278.7196 332.32428 273.13957 336.93457 269.34961 C 340.61626 266.32302 344.59759 263.28189 349.17773 261.96387 C 351.83225 261.19998 354.63875 260.7778 357.44971 260.72168 z " /><path
     id="path2447"
     style="fill:#f47ea6;fill-opacity:1;stroke:#e5e5e5;stroke-width:0.75px;stroke-linecap:butt;stroke-linejoin:miter;stroke-opacity:1"
     d="M 127.53955 27.807129 C 122.09178 27.811744 116.64077 28.086545 111.21094 28.50293 C 98.765475 29.457299 86.206961 30.317093 74.058105 33.181641 C 65.745841 35.141569 57.27037 37.381864 49.886719 41.67334 C 42.008247 46.252405 35.225612 52.72275 29.245605 59.598633 C 26.803835 62.40621 24.685802 65.563913 23.166504 68.960449 C 19.128043 77.98881 16.834242 87.80961 15.388184 97.59375 C 13.901275 107.65426 12.997717 118.03762 14.526855 128.0918 C 16.081004 138.31042 21.16518 147.66855 24.577148 157.42529 C 27.642856 166.19187 31.295717 174.76386 33.94043 183.6665 C 36.23112 191.37745 36.675625 199.62531 39.555176 207.13623 C 41.935159 213.34409 47.065785 218.3261 49.072266 224.66455 C 53.282227 237.96378 48.672719 253.30257 53.904785 266.23389 C 57.407865 274.89192 62.716712 284.04605 70.933594 288.48633 C 78.58877 292.62305 88.47627 292.29394 96.968262 290.39648 C 105.92517 288.39515 112.5611 280.58925 120.95801 276.88477 C 130.53466 272.6598 141.29768 271.48601 150.78516 267.06445 C 159.5972 262.95769 167.16382 256.57293 175.58643 251.71729 C 182.93522 247.48069 191.36883 244.96878 198.01758 239.70117 C 206.43861 233.02943 212.80948 224.06066 219.33252 215.52393 C 226.13883 206.61648 231.23685 196.50295 237.83057 187.43701 C 244.15491 178.74144 252.66862 171.60084 257.99268 162.25928 C 262.62778 154.12655 266.31566 145.20902 267.90674 135.98438 C 269.15248 128.76192 269.16239 121.136 267.48486 114.00146 C 265.56098 105.81917 260.93191 98.468333 256.68311 91.21582 C 253.68813 86.103535 250.52851 80.965152 246.39551 76.719727 C 238.63009 68.743075 228.79298 63.075544 219.68994 56.66748 C 211.97513 51.236666 204.46529 45.370907 196.05615 41.093262 C 188.0054 36.997926 179.47941 33.628094 170.68066 31.586426 C 158.38244 28.732729 145.60314 28.336654 132.98584 27.896484 C 131.17168 27.833194 129.35547 27.80559 127.53955 27.807129 z M 151.18066 44.031738 C 154.25447 44.01438 157.36163 44.565964 160.3916 45.086426 C 171.15739 46.935672 181.8318 49.802931 191.94873 53.922363 C 200.57358 57.434247 208.79695 62.036324 216.46143 67.325684 C 223.81515 72.400594 230.1877 78.772387 236.82715 84.751465 C 241.32873 88.805317 246.76587 92.142473 250.01953 97.252441 C 254.00989 103.51942 256.80582 110.97246 257.06543 118.39746 C 257.29012 124.82389 255.53366 131.54643 252.26074 137.08154 C 248.81661 142.90624 242.68921 146.67871 237.47021 150.98584 C 230.07219 157.09127 222.79378 163.69473 214.13965 167.83154 C 205.22025 172.09518 195.39273 176.2945 185.52832 175.64063 C 179.83774 175.26342 174.42628 172.27602 169.76074 168.99609 C 164.77322 165.48981 161.04069 160.40975 157.37256 155.54004 C 153.2145 150.01992 149.75216 143.97723 146.58838 137.83301 C 141.86194 128.65404 138.42577 118.86661 134.41406 109.35352 C 131.70029 102.91822 128.61209 96.620952 126.36768 90.007324 C 124.80783 85.410954 122.93833 80.779555 122.62207 75.936035 C 122.40277 72.577483 122.79993 69.095122 123.92725 65.923828 C 126.04578 59.96405 129.03711 53.824577 133.8999 49.779785 C 137.80932 46.528011 143.09528 45.027642 148.12207 44.260254 C 149.13512 44.105602 150.15607 44.037524 151.18066 44.031738 z M 64.009277 58.237793 C 65.840107 58.260634 67.660481 58.340185 69.42334 58.404785 C 77.385975 58.696574 85.7416 59.819409 92.756836 63.597656 C 100.9788 68.025823 107.66193 75.341318 112.88672 83.081543 C 118.79797 91.838737 123.72031 101.94001 124.81494 112.44873 C 125.76644 121.58335 123.80983 131.24033 119.92969 139.56445 C 116.16091 147.64964 110.10735 155.00318 102.81006 160.13379 C 97.104873 164.14502 89.885792 165.48282 83.148926 167.28662 C 76.374935 169.10036 69.33585 172.1555 62.430176 170.93555 C 52.729496 169.22183 42.770281 164.01553 36.842285 156.14795 C 29.778158 146.77251 29.124037 133.69115 28.311035 121.98047 C 27.501716 110.32284 28.144475 98.143403 32.022949 87.120117 C 35.393707 77.539852 39.944904 66.983719 48.479004 61.478027 C 52.926004 58.609088 58.516791 58.16927 64.009277 58.237793 z M 130.58643 168.85107 C 137.3868 168.89444 144.24629 170.2745 150.64893 172.51025 C 156.22013 174.45569 160.87254 178.40846 166.0415 181.25537 C 170.18871 183.53952 174.61163 185.34968 178.57324 187.94238 C 182.40625 190.45091 186.68939 192.73902 189.35449 196.46484 C 192.28838 200.56645 193.48578 205.76831 194.39795 210.72803 C 195.24659 215.34229 195.69425 220.20534 194.73486 224.79785 C 193.91168 228.73839 192.38308 232.80237 189.63721 235.74609 C 185.35534 240.33648 178.72507 241.96318 173.15771 244.86328 C 169.60277 246.71509 166.00959 248.4966 162.35742 250.14844 C 156.21702 252.92566 149.9608 255.44546 143.69092 257.9165 C 136.52373 260.74121 129.30282 263.43233 122.0332 265.98193 C 116.17591 268.03622 110.51987 271.15987 104.34668 271.80762 C 99.857511 272.27866 94.968701 272.25648 90.884766 270.33398 C 87.428325 268.70689 84.89992 265.44635 82.665527 262.34766 C 79.814444 258.39372 77.619601 253.87257 76.30957 249.17725 C 75.046396 244.64983 74.900447 239.83933 74.978027 235.13965 C 75.088757 228.43219 75.947123 221.69363 77.538574 215.17676 C 78.663291 210.57112 80.326725 206.07011 82.434082 201.82324 C 84.541845 197.57556 87.068003 193.4841 90.108398 189.84521 C 93.398364 185.90764 97.258923 182.41669 101.3877 179.37012 C 104.8709 176.79988 108.63611 174.53137 112.63916 172.88379 C 117.43339 170.91058 122.49967 169.18189 127.67725 168.91553 C 128.64479 168.86575 129.61494 168.84488 130.58643 168.85107 z " /><path
     id="path2451"
     style="fill:#f47ea6;fill-opacity:1;stroke:#e5e5e5;stroke-width:0.75px;stroke-linecap:butt;stroke-linejoin:miter;stroke-opacity:1"
     d="M 349.82813 13.740234 C 344.95394 13.627094 340.19615 15.359541 335.49316 16.64502 C 326.37053 19.138537 317.17703 21.772512 308.68652 25.937988 C 302.81573 28.818225 297.41096 32.634863 292.26123 36.665039 C 286.22399 41.389794 279.4827 45.828709 275.42725 52.334473 C 271.78724 58.173767 270.28003 65.262817 269.45215 72.09375 C 268.35381 81.156281 269.84235 90.373422 270.88623 99.442383 C 271.69588 106.47643 273.56309 113.35231 274.62305 120.35303 C 275.66043 127.20465 278.14607 134.12073 277.18799 140.98389 C 276.22173 147.90562 272.50037 154.23648 269.00098 160.28613 C 265.3562 166.58712 259.33419 171.32205 255.82617 177.7002 C 251.63161 185.32658 248.69666 193.68958 246.67676 202.15576 C 244.5905 210.90006 242.71038 220.02635 243.70459 228.96094 C 244.57177 236.75398 247.12794 244.60758 251.37305 251.2002 C 256.21618 258.72156 262.90987 265.54153 270.84961 269.66309 C 278.20926 273.48352 286.94438 274.63999 295.23633 274.5791 C 301.57857 274.5325 308.16712 273.39907 313.83105 270.54492 C 319.27203 267.80313 322.95486 262.46815 327.57275 258.49365 C 332.25568 254.46319 336.38401 249.62489 341.7334 246.5332 C 346.69745 243.66421 352.17914 240.55704 357.91113 240.68848 C 362.31066 240.78937 366.08958 243.94727 370.10889 245.73926 C 376.13841 248.4275 382.14362 251.19034 387.97412 254.28662 C 393.87455 257.42003 398.89281 262.41374 405.26514 264.42041 C 414.01024 267.17427 423.52354 267.03374 432.68262 266.61914 C 441.10729 266.23779 450.21819 266.37646 457.61572 262.32715 C 466.99519 257.19294 475.12541 248.50108 479.23682 238.63037 C 482.78709 230.10683 481.03142 220.1878 480.61377 210.96387 C 479.89752 195.14533 479.01547 178.93738 473.9751 163.92627 C 470.46666 153.47752 463.81666 144.33009 457.8999 135.03076 C 452.38683 126.36589 445.37923 118.71449 439.85742 110.05518 C 432.67429 98.790579 426.93498 86.667241 420.30176 75.070313 C 413.75612 63.626514 408.62226 51.180394 400.32715 40.933594 C 394.09501 33.235151 387.09416 25.602019 378.36768 20.916504 C 369.72566 16.276339 359.63444 13.967864 349.82813 13.740234 z M 351.1875 22.96582 C 355.40204 22.949197 359.645 23.408162 363.60059 24.730957 C 369.8307 26.814393 375.99322 30.15529 380.41113 35.01709 C 384.88933 39.94522 387.36073 46.564433 389.16357 52.974609 C 391.03068 59.613407 391.85038 66.712515 391.12207 73.570313 C 390.53224 79.124251 388.17225 84.37214 386.06836 89.545898 C 383.04333 96.984864 378.83529 103.88652 375.24316 111.06885 C 372.05667 117.44015 369.86193 124.40289 365.72754 130.2041 C 361.15453 136.62075 355.87527 142.94738 349.1543 147.06006 C 344.29665 150.03254 338.44667 151.10169 332.85498 152.18115 C 325.04797 153.68827 316.8844 155.4944 309.07178 154.0166 C 302.52475 152.7782 296.14536 149.6347 291.08057 145.30518 C 287.09074 141.89456 283.9314 137.28989 282.09668 132.37207 C 279.37247 125.07006 280.37494 116.87992 279.59912 109.125 C 278.85408 101.67773 276.73336 94.209254 277.52783 86.76709 C 278.35774 78.992956 281.23567 71.465892 284.57373 64.395996 C 287.03146 59.190606 290.40294 54.41987 293.99707 49.92334 C 298.00615 44.90769 302.06005 39.63959 307.42676 36.114258 C 314.85305 31.236008 323.85398 29.268197 332.34375 26.646973 C 337.14265 25.165305 341.9849 23.476993 346.99512 23.126953 C 348.38204 23.030053 349.78265 22.971361 351.1875 22.96582 z M 425.12402 143.41992 C 425.73562 143.43498 426.34919 143.47323 426.96387 143.53711 C 433.61584 144.22841 440.62432 147.16968 445.08252 152.15479 C 450.51574 158.23016 450.68556 167.47062 453.06152 175.26709 C 455.07937 181.88841 457.53203 188.4706 458.38477 195.33984 C 459.31319 202.8189 458.61405 210.42871 458.10938 217.94824 C 457.71817 223.77698 458.71438 230.18193 455.97803 235.34326 C 453.31912 240.35852 447.82103 243.31591 443.15039 246.54199 C 438.294 249.8964 433.19992 253.23204 427.53662 254.89453 C 422.42602 256.39478 416.87727 256.95523 411.60938 256.16895 C 405.21118 255.21394 399.42941 251.75553 393.55811 249.03955 C 387.3589 246.1719 381.27769 243.0034 375.48193 239.38916 C 370.08708 236.02491 363.76305 233.36615 360.01172 228.23291 C 357.14045 224.30394 356.88542 219.01448 355.47217 214.35791 C 353.84672 209.00216 351.24166 203.77797 350.94287 198.18896 C 350.64534 192.62354 351.53696 186.8309 353.71143 181.69922 C 355.77982 176.81782 359.36185 172.60748 363.14941 168.89795 C 366.57279 165.54512 370.96351 163.34992 374.89453 160.60986 C 377.92895 158.49479 380.679 155.87172 384.03516 154.31689 C 388.45155 152.2709 393.41332 151.70434 398.12842 150.49658 C 407.10836 148.19639 415.95011 143.19405 425.12402 143.41992 z M 286.99951 157.05176 C 293.2475 156.83069 299.69653 158.49047 305.28369 161.21777 C 309.52242 163.28686 312.78814 167.02772 315.90674 170.56641 C 319.39732 174.52719 322.7804 178.7958 324.79248 183.67676 C 327.25959 189.66153 327.08409 196.42083 328.3916 202.76074 C 329.68903 209.05179 331.84412 215.18667 332.60449 221.56494 C 333.33437 227.6875 333.99505 233.98921 332.9165 240.06006 C 331.98243 245.31763 330.26555 250.67116 327.14502 255.00439 C 324.2726 258.99309 320.19252 262.22965 315.78369 264.40283 C 311.97503 266.28019 307.60209 266.96878 303.36475 267.24316 C 296.45789 267.69038 289.2119 267.59611 282.6958 265.2627 C 276.33298 262.98416 270.81213 258.55769 265.87354 253.94385 C 262.2765 250.58335 259.04578 246.66955 256.81641 242.28076 C 253.56003 235.87022 251.3663 228.72121 250.86035 221.54883 C 250.38298 214.78155 252.40328 208.05568 253.67871 201.39258 C 254.61468 196.50283 255.4338 191.52917 257.21924 186.88184 C 259.11031 181.95954 261.90307 177.41084 264.72363 172.95557 C 266.92939 169.47143 268.86678 165.60648 272.05664 162.99316 C 275.55096 160.13043 279.85587 157.82719 284.33789 157.26416 C 285.21915 157.15346 286.10694 157.08334 286.99951 157.05176 z " /><use
     id="use171"
     x="386.17526"
     y="156.3597"
     fill="#73e6c8"
     stroke="#000000"
     stroke-width="0.3"
     xlink:href="#m36042471c1"
     style="stroke:#e5e5e5;stroke-opacity:1" /><use
     id="use173"
     x="420.81323"
     y="234.17856"
     fill="#73e6c8"
     stroke="#000000"
     stroke-width="0.3"
     xlink:href="#m36042471c1"
     style="stroke:#e5e5e5;stroke-opacity:1" /><use
     id="use175"
     x="251.62889"
     y="278.72339"
     fill="#73e6c8"
     stroke="#000000"
     stroke-width="0.3"
     xlink:href="#m36042471c1"
     style="stroke:#e5e5e5;stroke-opacity:1" /><use
     id="use177"
     x="172.86256"
     y="196.48207"
     fill="#73e6c8"
     stroke="#000000"
     stroke-width="0.3"
     xlink:href="#m36042471c1"
     style="stroke:#e5e5e5;stroke-opacity:1" /><use
     id="use179"
     x="126.67552"
     y="233.22708"
     fill="#73e6c8"
     stroke="#000000"
     stroke-width="0.3"
     xlink:href="#m36042471c1"
     style="stroke:#e5e5e5;stroke-opacity:1" /><use
     id="use181"
     x="221.4158"
     y="347.09714"
     fill="#73e6c8"
     stroke="#000000"
     stroke-width="0.3"
     xlink:href="#m36042471c1"
     style="stroke:#e5e5e5;stroke-opacity:1" /><use
     id="use183"
     x="235.71761"
     y="34.98843"
     fill="#73e6c8"
     stroke="#52aa71"
     stroke-width="1.5"
     xlink:href="#m36042471c1" /><use
     id="use185"
     x="204.53307"
     y="290.16516"
     fill="#73e6c8"
     stroke="#000000"
     stroke-width="0.3"
     xlink:href="#m36042471c1"
     style="stroke:#e5e5e5;stroke-opacity:1" /><use
     id="use187"
     x="94.938301"
     y="319.7774"
     fill="#73e6c8"
     stroke="#000000"
     stroke-width="0.3"
     xlink:href="#m36042471c1"
     style="stroke:#e5e5e5;stroke-opacity:1" /><use
     id="use189"
     x="88.150352"
     y="347.66953"
     fill="#73e6c8"
     stroke="#000000"
     stroke-width="0.3"
     xlink:href="#m36042471c1"
     style="stroke:#e5e5e5;stroke-opacity:1" /><use
     id="use191"
     x="342.59735"
     y="220.36911"
     fill="#73e6c8"
     stroke="#000000"
     stroke-width="0.3"
     xlink:href="#m36042471c1"
     style="stroke:#e5e5e5;stroke-opacity:1" /><use
     id="use193"
     x="318.18445"
     y="188.5988"
     fill="#73e6c8"
     stroke="#000000"
     stroke-width="0.3"
     xlink:href="#m36042471c1"
     style="stroke:#e5e5e5;stroke-opacity:1" /><use
     id="use195"
     x="234.63745"
     y="223.55769"
     fill="#73e6c8"
     stroke="#000000"
     stroke-width="0.3"
     xlink:href="#m36042471c1"
     style="stroke:#e5e5e5;stroke-opacity:1" /><use
     id="use197"
     x="140.02924"
     y="284.32916"
     fill="#73e6c8"
     stroke="#000000"
     stroke-width="0.3"
     xlink:href="#m36042471c1"
     style="stroke:#e5e5e5;stroke-opacity:1" /><use
     id="use199"
     transform="translate(1.3644,-11.5)"
     x="277.17023"
     y="183.33649"
     fill="#73e6c8"
     stroke="#000000"
     stroke-width="0.3"
     xlink:href="#m36042471c1"
     style="stroke:#e5e5e5;stroke-opacity:1" /><use
     id="use201"
     x="47.853615"
     y="268.64764"
     fill="#73e6c8"
     stroke="#000000"
     stroke-width="0.3"
     xlink:href="#m36042471c1"
     style="stroke:#e5e5e5;stroke-opacity:1" /><use
     id="use203"
     x="185.62202"
     y="238.71745"
     fill="#73e6c8"
     stroke="#000000"
     stroke-width="0.3"
     xlink:href="#m36042471c1"
     style="stroke:#e5e5e5;stroke-opacity:1" /><use
     id="use205"
     x="270.0098"
     y="335.62817"
     fill="#73e6c8"
     stroke="#000000"
     stroke-width="0.3"
     xlink:href="#m36042471c1"
     style="stroke:#e5e5e5;stroke-opacity:1" /><use
     id="use207"
     x="281.50009"
     y="256.55746"
     fill="#73e6c8"
     stroke="#000000"
     stroke-width="0.3"
     xlink:href="#m36042471c1"
     style="stroke:#e5e5e5;stroke-opacity:1" /><use
     id="use209"
     transform="translate(4.9615,6.0185)"
     x="59.043343"
     y="205.22687"
     fill="#73e6c8"
     stroke="#000000"
     stroke-width="0.3"
     xlink:href="#m36042471c1"
     style="stroke:#e5e5e5;stroke-opacity:1" /><use
     id="use211"
     x="274.74329"
     y="112.82859"
     fill="#73e6c8"
     stroke="#000000"
     stroke-width="0.3"
     xlink:href="#m36042471c1"
     style="stroke:#e5e5e5;stroke-opacity:1" /><use
     id="use213"
     x="117.75886"
     y="205.55341"
     fill="#73e6c8"
     stroke="#000000"
     stroke-width="0.3"
     xlink:href="#m36042471c1"
     style="stroke:#e5e5e5;stroke-opacity:1" /><use
     id="use215"
     x="260.02411"
     y="201.71959"
     fill="#73e6c8"
     stroke="#000000"
     stroke-width="0.3"
     xlink:href="#m36042471c1"
     style="stroke:#e5e5e5;stroke-opacity:1" /><use
     id="use217"
     x="77.343193"
     y="158.02727"
     fill="#73e6c8"
     stroke="#000000"
     stroke-width="0.3"
     xlink:href="#m36042471c1"
     style="stroke:#e5e5e5;stroke-opacity:1" /><use
     id="use219"
     x="39.986778"
     y="244.90347"
     fill="#73e6c8"
     stroke="#000000"
     stroke-width="0.3"
     xlink:href="#m36042471c1"
     style="stroke:#e5e5e5;stroke-opacity:1" /><use
     id="use221"
     x="177.70454"
     y="110.31161"
     fill="#73e6c8"
     stroke="#000000"
     stroke-width="0.3"
     xlink:href="#m36042471c1"
     style="stroke:#e5e5e5;stroke-opacity:1" /><use
     id="use223"
     x="176.35875"
     y="368.21158"
     fill="#73e6c8"
     stroke="#000000"
     stroke-width="0.3"
     xlink:href="#m36042471c1"
     style="stroke:#e5e5e5;stroke-opacity:1" /><use
     id="use225"
     x="156.08884"
     y="157.43974"
     fill="#73e6c8"
     stroke="#000000"
     stroke-width="0.3"
     xlink:href="#m36042471c1"
     style="stroke:#e5e5e5;stroke-opacity:1" /><use
     id="use227"
     x="222.94669"
     y="186.47655"
     fill="#73e6c8"
     stroke="#000000"
     stroke-width="0.3"
     xlink:href="#m36042471c1"
     style="stroke:#e5e5e5;stroke-opacity:1" /><use
     id="use229"
     transform="translate(2.4079,18.781)"
     x="323.17801"
     y="259.28793"
     fill="#73e6c8"
     stroke="#000000"
     stroke-width="0.3"
     xlink:href="#m36042471c1"
     style="stroke:#e5e5e5;stroke-opacity:1" /><g
     inkscape:groupmode="layer"
     id="layer1"
     inkscape:label="edge"><path
       style="fill:none;stroke:#e5e5e5;stroke-width:0.75px;stroke-linecap:butt;stroke-linejoin:miter;stroke-opacity:1"
       d="m 94.818767,247.6206 36.127533,-21.71959 48.27638,-0.801 -1.97064,61.09191 -10.87266,39.86645 39.2624,-12.08074 -28.38974,-27.78571 -46.30574,-60.29091 -35.447027,-15.24131 -0.680506,36.9609"
       id="path945" /><path
       style="fill:none;stroke:#e5e5e5;stroke-width:0.75px;stroke-linecap:butt;stroke-linejoin:miter;stroke-opacity:1"
       d="M 95.499273,210.6597 132.5764,186.5326 179.22268,225.10001 94.818767,247.6206"
       id="path947" /><path
       style="fill:none;stroke:#e5e5e5;stroke-width:0.75px;stroke-linecap:butt;stroke-linejoin:miter;stroke-opacity:1"
       d="M 130.9463,225.90101 132.5764,186.5326 60.488565,154.35752 96.718927,138.27156 60.682454,116.94343 60.509561,80.355832 107.18375,105.58486 60.682454,116.94343 60.488565,154.35752"
       id="path949" /><path
       style="fill:none;stroke:#e5e5e5;stroke-width:0.75px;stroke-linecap:butt;stroke-linejoin:miter;stroke-opacity:1"
       d="m 60.509561,80.355832 36.209366,57.915728 35.857473,48.26104 19.30609,-80.94773 25.97359,41.07451 -70.67233,-41.07451 36.24222,-40.470478 8.45652,40.470478 38.65837,12.08073 -47.11489,-52.551208 59.79966,16.30899 -12.68477,36.242218 -12.68478,28.99378 59.19564,-18.12111 -46.51086,-10.87267"
       id="path951" /><path
       style="fill:none;stroke:#e5e5e5;stroke-width:0.75px;stroke-linecap:butt;stroke-linejoin:miter;stroke-opacity:1"
       d="M 203.22563,81.423382 151.88249,105.58487 96.718927,138.27156"
       id="path953" /><path
       style="fill:none;stroke:#e5e5e5;stroke-width:0.75px;stroke-linecap:butt;stroke-linejoin:miter;stroke-opacity:1"
       d="m 132.5764,186.5326 45.27968,-39.87322 1.3666,78.44063 57.82904,-96.56174 -33.82609,-47.114888"
       id="path955" /><path
       style="fill:none;stroke:#e5e5e5;stroke-width:0.75px;stroke-linecap:butt;stroke-linejoin:miter;stroke-opacity:1"
       d="m 237.05172,128.53827 -23.55746,141.94869 -36.24222,15.70496"
       id="path957" /><path
       style="fill:none;stroke:#e5e5e5;stroke-width:0.75px;stroke-linecap:butt;stroke-linejoin:miter;stroke-opacity:1"
       d="m 205.64178,313.97763 7.85248,-43.49067 25.36957,36.24222 -33.22205,7.24845 -2.41615,32.01396 -36.84625,-19.93322"
       id="path959" /><path
       style="fill:none;stroke:#e5e5e5;stroke-width:0.75px;stroke-linecap:butt;stroke-linejoin:miter;stroke-opacity:1"
       d="m 205.64178,313.97763 41.07452,28.99377 -43.49067,3.02019"
       id="path961" /><path
       style="fill:none;stroke:#e5e5e5;stroke-width:0.75px;stroke-linecap:butt;stroke-linejoin:miter;stroke-opacity:1"
       d="m 246.71631,342.9714 -7.85248,-36.24222 64.02792,9.06056 -56.17545,27.18166 85.77325,13.89286 -93.62572,-50.13508"
       id="path963" /><path
       style="fill:none;stroke:#e5e5e5;stroke-width:0.75px;stroke-linecap:butt;stroke-linejoin:miter;stroke-opacity:1"
       d="m 213.49426,270.48696 89.39749,45.30278 -33.82607,-79.12885 -55.57142,33.82607"
       id="path965" /><path
       style="fill:none;stroke:#e5e5e5;stroke-width:0.75px;stroke-linecap:butt;stroke-linejoin:miter;stroke-opacity:1"
       d="m 179.22268,225.10001 96.48739,-27.09749 -38.65835,-69.46425 56.17543,42.88663 -17.51707,26.57762 -6.6444,38.65837 42.88661,13.28881 -36.24221,-51.94718 32.01396,15.70496 4.22825,36.24222 62.21582,-34.43011 -80.94096,-44.09469 14.49689,42.28258 77.31674,-38.65837 -10.87267,40.47048 31.40993,-12.08073 1.20807,37.45029 -32.618,-25.36956"
       id="path967" /><path
       style="fill:none;stroke:#e5e5e5;stroke-width:0.75px;stroke-linecap:butt;stroke-linejoin:miter;stroke-opacity:1"
       d="m 406.78611,240.88915 36.24221,-14.49689 -37.45028,-22.9534 -20.53726,-28.38975 42.28259,-11.4767 -21.74533,39.86645"
       id="path969" /><path
       style="fill:none;stroke:#e5e5e5;stroke-width:0.75px;stroke-linecap:butt;stroke-linejoin:miter;stroke-opacity:1"
       d="m 443.02832,226.39226 -15.70495,-62.81985 -84.56519,-31.40992 42.2826,42.88662"
       id="path971" /><path
       style="fill:none;stroke:#e5e5e5;stroke-width:0.75px;stroke-linecap:butt;stroke-linejoin:miter;stroke-opacity:1"
       d="m 307.72404,213.70748 35.03414,-81.54499 -49.53103,39.26241"
       id="path973" /><path
       style="fill:none;stroke:#e5e5e5;stroke-width:0.75px;stroke-linecap:butt;stroke-linejoin:miter;stroke-opacity:1"
       d="m 374.16811,215.51959 -75.50462,-89.39746 -61.61177,2.41614"
       id="path975" /><path
       style="fill:none;stroke:#e5e5e5;stroke-width:0.75px;stroke-linecap:butt;stroke-linejoin:miter;stroke-opacity:1"
       d="m 298.66349,126.12213 1.20807,-42.282588 27.18167,23.557428 5.43632,-36.242218 28.38974,26.57763 -7.66125,-61.55798 -53.34648,47.66514"
       id="path977"
       sodipodi:nodetypes="ccccccc" /><path
       style="fill:none;stroke:#e5e5e5;stroke-width:0.75px;stroke-linecap:butt;stroke-linejoin:miter;stroke-opacity:1"
       d="M 353.21804,36.174402 427.32337,163.57241"
       id="path1075" /><path
       style="fill:none;stroke:#e5e5e5;stroke-width:0.75px;stroke-linecap:butt;stroke-linejoin:miter;stroke-opacity:1"
       d="M 342.75818,132.16249 327.05323,107.39697"
       id="path1077" /><path
       style="fill:none;stroke:#e5e5e5;stroke-width:0.75px;stroke-linecap:butt;stroke-linejoin:miter;stroke-opacity:1"
       d="m 342.75818,132.16249 18.12111,-34.430108 66.44408,65.840028"
       id="path1079" /><path
       style="fill:none;stroke:#e5e5e5;stroke-width:0.75px;stroke-linecap:butt;stroke-linejoin:miter;stroke-opacity:1"
       d="m 332.48955,71.154752 20.72849,-34.98035"
       id="path1081" /><path
       style="fill:none;stroke:#e5e5e5;stroke-width:0.75px;stroke-linecap:butt;stroke-linejoin:miter;stroke-opacity:1"
       d="m 332.48955,71.154752 -32.61799,12.68479"
       id="path1083" /><path
       style="fill:none;stroke:#e5e5e5;stroke-width:0.75px;stroke-linecap:butt;stroke-linejoin:miter;stroke-opacity:1"
       d="m 327.05323,107.39697 -28.38974,18.72516 44.09469,6.04036"
       id="path1085" /><path
       style="fill:none;stroke:#e5e5e5;stroke-width:0.75px;stroke-linecap:butt;stroke-linejoin:miter;stroke-opacity:1"
       d="m 327.05323,107.39697 33.82606,-9.664588"
       id="path1087" /><path
       style="fill:none;stroke:#e5e5e5;stroke-width:0.75px;stroke-linecap:butt;stroke-linejoin:miter;stroke-opacity:1"
       d="m 360.87929,97.732382 24.16149,77.316728"
       id="path1089" /><path
       style="fill:none;stroke:#e5e5e5;stroke-width:0.75px;stroke-linecap:butt;stroke-linejoin:miter;stroke-opacity:1"
       d="m 406.7861,240.88915 -47.71891,38.65837 -47.1149,-29.59782"
       id="path1091" /><path
       style="fill:none;stroke:#e5e5e5;stroke-width:0.75px;stroke-linecap:butt;stroke-linejoin:miter;stroke-opacity:1"
       d="m 302.89175,315.78974 56.17544,-36.24222 36.24221,34.43011 22.95339,42.28258 -44.09468,1.20808 21.14129,-43.49066 -47.71891,8.45651 26.57762,35.03415 -41.67856,-0.60403 15.10094,-34.43012 z"
       id="path1093" /><path
       style="fill:none;stroke:#e5e5e5;stroke-width:0.75px;stroke-linecap:butt;stroke-linejoin:miter;stroke-opacity:1"
       d="m 302.89175,315.78974 29.5978,41.07452"
       id="path1095" /><path
       style="fill:none;stroke:#e5e5e5;stroke-width:0.75px;stroke-linecap:butt;stroke-linejoin:miter;stroke-opacity:1"
       d="m 347.59049,322.43414 11.4767,-42.88662"
       id="path1097" /><path
       style="fill:none;stroke:#e5e5e5;stroke-width:0.75px;stroke-linecap:butt;stroke-linejoin:miter;stroke-opacity:1"
       d="m 359.06719,279.54752 15.10092,77.92077"
       id="path1099" /><path
       style="fill:none;stroke:#e5e5e5;stroke-width:0.75px;stroke-linecap:butt;stroke-linejoin:miter;stroke-opacity:1"
       d="m 347.59049,322.43414 70.6723,33.82607"
       id="path1101" /><path
       style="fill:none;stroke:#e5e5e5;stroke-width:0.75px;stroke-linecap:butt;stroke-linejoin:miter;stroke-opacity:1"
       d="m 203.22563,345.99159 35.6382,-39.26241"
       id="path1103" /><path
       style="fill:none;stroke:#e5e5e5;stroke-width:0.75px;stroke-linecap:butt;stroke-linejoin:miter;stroke-opacity:1"
       d="m 96.718927,138.27156 10.464823,-32.6867"
       id="path1105" /><path
       style="fill:none;stroke:#e5e5e5;stroke-width:0.75px;stroke-linecap:butt;stroke-linejoin:miter;stroke-opacity:1"
       d="m 269.06568,236.66089 38.65836,-22.95341"
       id="path1107" /></g><circle
     style="fill:#35b996;fill-opacity:1;stroke:#e5e5e5;stroke-width:0.6;stroke-linecap:butt;stroke-linejoin:round;stroke-miterlimit:10;stroke-dasharray:none;stroke-opacity:1"
     id="path395-5-6"
     cx="179.22269"
     cy="225.10001"
     r="7.7398577" /><circle
     style="fill:#35b996;fill-opacity:1;stroke:#e5e5e5;stroke-width:0.6;stroke-linecap:butt;stroke-linejoin:round;stroke-miterlimit:10;stroke-dasharray:none;stroke-opacity:1"
     id="path395-5-3"
     cx="96.718925"
     cy="138.27156"
     r="7.7398577" /><circle
     style="fill:#35b996;fill-opacity:1;stroke:#e5e5e5;stroke-width:0.6;stroke-linecap:butt;stroke-linejoin:round;stroke-miterlimit:10;stroke-dasharray:none;stroke-opacity:1"
     id="path395-5-3-3"
     cx="95.499275"
     cy="210.6597"
     r="7.7398577" /><circle
     style="fill:#35b996;fill-opacity:1;stroke:#e5e5e5;stroke-width:0.6;stroke-linecap:butt;stroke-linejoin:round;stroke-miterlimit:10;stroke-dasharray:none;stroke-opacity:1"
     id="path395-5-3-3-3"
     cx="130.9463"
     cy="225.901"
     r="7.7398577" /><circle
     style="fill:#35b996;fill-opacity:1;stroke:#e5e5e5;stroke-width:0.6;stroke-linecap:butt;stroke-linejoin:round;stroke-miterlimit:10;stroke-dasharray:none;stroke-opacity:1"
     id="path395-5-3-6"
     cx="94.818764"
     cy="247.62061"
     r="7.7398577" /><circle
     style="fill:#35b996;fill-opacity:1;stroke:#e5e5e5;stroke-width:0.6;stroke-linecap:butt;stroke-linejoin:round;stroke-miterlimit:10;stroke-dasharray:none;stroke-opacity:1"
     id="path395-5-3-7"
     cx="132.5764"
     cy="186.53259"
     r="7.7398577" /><circle
     style="fill:#35b996;fill-opacity:1;stroke:#e5e5e5;stroke-width:0.6;stroke-linecap:butt;stroke-linejoin:round;stroke-miterlimit:10;stroke-dasharray:none;stroke-opacity:1"
     id="path395-5-3-5"
     cx="60.50956"
     cy="80.355835"
     r="7.7398577" /><circle
     style="fill:#35b996;fill-opacity:1;stroke:#e5e5e5;stroke-width:0.6;stroke-linecap:butt;stroke-linejoin:round;stroke-miterlimit:10;stroke-dasharray:none;stroke-opacity:1"
     id="path395-5-3-5-3"
     cx="107.18375"
     cy="105.58487"
     r="7.7398577" /><circle
     style="fill:#35b996;fill-opacity:1;stroke:#e5e5e5;stroke-width:0.6;stroke-linecap:butt;stroke-linejoin:round;stroke-miterlimit:10;stroke-dasharray:none;stroke-opacity:1"
     id="path395-5-3-5-6"
     cx="143.42596"
     cy="65.114395"
     r="7.7398577" /><circle
     style="fill:#35b996;fill-opacity:1;stroke:#e5e5e5;stroke-width:0.6;stroke-linecap:butt;stroke-linejoin:round;stroke-miterlimit:10;stroke-dasharray:none;stroke-opacity:1"
     id="path395-5-3-5-7"
     cx="151.88249"
     cy="105.58487"
     r="7.7398577" /><circle
     style="fill:#35b996;fill-opacity:1;stroke:#e5e5e5;stroke-width:0.6;stroke-linecap:butt;stroke-linejoin:round;stroke-miterlimit:10;stroke-dasharray:none;stroke-opacity:1"
     id="path395-5-3-5-5"
     cx="177.85608"
     cy="146.65938"
     r="7.7398577" /><circle
     style="fill:#35b996;fill-opacity:1;stroke:#e5e5e5;stroke-width:0.6;stroke-linecap:butt;stroke-linejoin:round;stroke-miterlimit:10;stroke-dasharray:none;stroke-opacity:1"
     id="path395-5-3-5-35"
     cx="190.54086"
     cy="117.6656"
     r="7.7398577" /><circle
     style="fill:#35b996;fill-opacity:1;stroke:#e5e5e5;stroke-width:0.6;stroke-linecap:butt;stroke-linejoin:round;stroke-miterlimit:10;stroke-dasharray:none;stroke-opacity:1"
     id="path395-5-3-5-62"
     cx="203.22563"
     cy="81.423386"
     r="7.7398577" /><circle
     style="fill:#35b996;fill-opacity:1;stroke:#e5e5e5;stroke-width:0.6;stroke-linecap:butt;stroke-linejoin:round;stroke-miterlimit:10;stroke-dasharray:none;stroke-opacity:1"
     id="path395-5-3-5-9"
     cx="237.05171"
     cy="128.53827"
     r="7.7398577" /><circle
     style="fill:#35b996;fill-opacity:1;stroke:#e5e5e5;stroke-width:0.6;stroke-linecap:butt;stroke-linejoin:round;stroke-miterlimit:10;stroke-dasharray:none;stroke-opacity:1"
     id="path395-5-3-5-1"
     cx="213.49426"
     cy="270.48697"
     r="7.7398577" /><circle
     style="fill:#35b996;fill-opacity:1;stroke:#e5e5e5;stroke-width:0.6;stroke-linecap:butt;stroke-linejoin:round;stroke-miterlimit:10;stroke-dasharray:none;stroke-opacity:1"
     id="path395-5-3-5-2"
     cx="177.25204"
     cy="286.19193"
     r="7.7398577" /><circle
     style="fill:#35b996;fill-opacity:1;stroke:#e5e5e5;stroke-width:0.6;stroke-linecap:butt;stroke-linejoin:round;stroke-miterlimit:10;stroke-dasharray:none;stroke-opacity:1"
     id="path395-5-3-5-70"
     cx="166.37938"
     cy="326.05838"
     r="7.7398577" /><circle
     style="fill:#35b996;fill-opacity:1;stroke:#e5e5e5;stroke-width:0.6;stroke-linecap:butt;stroke-linejoin:round;stroke-miterlimit:10;stroke-dasharray:none;stroke-opacity:1"
     id="path395-5-3-5-93"
     cx="205.64178"
     cy="313.97763"
     r="7.7398577" /><circle
     style="fill:#35b996;fill-opacity:1;stroke:#e5e5e5;stroke-width:0.6;stroke-linecap:butt;stroke-linejoin:round;stroke-miterlimit:10;stroke-dasharray:none;stroke-opacity:1"
     id="path395-5-3-5-60"
     cx="203.22563"
     cy="345.99158"
     r="7.7398577" /><circle
     style="fill:#35b996;fill-opacity:1;stroke:#e5e5e5;stroke-width:0.6;stroke-linecap:butt;stroke-linejoin:round;stroke-miterlimit:10;stroke-dasharray:none;stroke-opacity:1"
     id="path395-5-3-5-626"
     cx="238.86383"
     cy="306.72919"
     r="7.7398577" /><circle
     style="fill:#35b996;fill-opacity:1;stroke:#e5e5e5;stroke-width:0.6;stroke-linecap:butt;stroke-linejoin:round;stroke-miterlimit:10;stroke-dasharray:none;stroke-opacity:1"
     id="path395-5-3-5-18"
     cx="246.71631"
     cy="342.97141"
     r="7.7398577" /><circle
     style="fill:#35b996;fill-opacity:1;stroke:#e5e5e5;stroke-width:0.6;stroke-linecap:butt;stroke-linejoin:round;stroke-miterlimit:10;stroke-dasharray:none;stroke-opacity:1"
     id="path395-5-3-5-79"
     cx="302.89175"
     cy="315.78973"
     r="7.7398577" /><circle
     style="fill:#35b996;fill-opacity:1;stroke:#e5e5e5;stroke-width:0.6;stroke-linecap:butt;stroke-linejoin:round;stroke-miterlimit:10;stroke-dasharray:none;stroke-opacity:1"
     id="path395-5-3-5-20"
     cx="332.48956"
     cy="356.86426"
     r="7.7398577" /><circle
     style="fill:#35b996;fill-opacity:1;stroke:#e5e5e5;stroke-width:0.6;stroke-linecap:butt;stroke-linejoin:round;stroke-miterlimit:10;stroke-dasharray:none;stroke-opacity:1"
     id="path395-5-3-5-23"
     cx="347.59048"
     cy="322.43414"
     r="7.7398577" /><circle
     style="fill:#35b996;fill-opacity:1;stroke:#e5e5e5;stroke-width:0.6;stroke-linecap:butt;stroke-linejoin:round;stroke-miterlimit:10;stroke-dasharray:none;stroke-opacity:1"
     id="path395-5-3-5-75"
     cx="359.0672"
     cy="279.54752"
     r="7.7398577" /><circle
     style="fill:#35b996;fill-opacity:1;stroke:#e5e5e5;stroke-width:0.6;stroke-linecap:butt;stroke-linejoin:round;stroke-miterlimit:10;stroke-dasharray:none;stroke-opacity:1"
     id="path395-5-3-5-92"
     cx="395.30939"
     cy="313.97763"
     r="7.7398577" /><circle
     style="fill:#35b996;fill-opacity:1;stroke:#e5e5e5;stroke-width:0.6;stroke-linecap:butt;stroke-linejoin:round;stroke-miterlimit:10;stroke-dasharray:none;stroke-opacity:1"
     id="path395-5-3-5-28"
     cx="374.16812"
     cy="357.46829"
     r="7.7398577" /><circle
     style="fill:#35b996;fill-opacity:1;stroke:#e5e5e5;stroke-width:0.6;stroke-linecap:butt;stroke-linejoin:round;stroke-miterlimit:10;stroke-dasharray:none;stroke-opacity:1"
     id="path395-5-3-5-97"
     cx="418.26279"
     cy="356.26022"
     r="7.7398577" /><circle
     style="fill:#35b996;fill-opacity:1;stroke:#e5e5e5;stroke-width:0.6;stroke-linecap:butt;stroke-linejoin:round;stroke-miterlimit:10;stroke-dasharray:none;stroke-opacity:1"
     id="path395-5-3-5-36"
     cx="311.9523"
     cy="249.94971"
     r="7.7398577" /><circle
     style="fill:#35b996;fill-opacity:1;stroke:#e5e5e5;stroke-width:0.6;stroke-linecap:butt;stroke-linejoin:round;stroke-miterlimit:10;stroke-dasharray:none;stroke-opacity:1"
     id="path395-5-3-5-12"
     cx="269.06567"
     cy="236.66089"
     r="7.7398577" /><circle
     style="fill:#35b996;fill-opacity:1;stroke:#e5e5e5;stroke-width:0.6;stroke-linecap:butt;stroke-linejoin:round;stroke-miterlimit:10;stroke-dasharray:none;stroke-opacity:1"
     id="path395-5-3-5-931"
     cx="275.71008"
     cy="198.00252"
     r="7.7398577" /><circle
     style="fill:#35b996;fill-opacity:1;stroke:#e5e5e5;stroke-width:0.6;stroke-linecap:butt;stroke-linejoin:round;stroke-miterlimit:10;stroke-dasharray:none;stroke-opacity:1"
     id="path395-5-3-5-94"
     cx="307.72403"
     cy="213.70749"
     r="7.7398577" /><circle
     style="fill:#35b996;fill-opacity:1;stroke:#e5e5e5;stroke-width:0.6;stroke-linecap:butt;stroke-linejoin:round;stroke-miterlimit:10;stroke-dasharray:none;stroke-opacity:1"
     id="path395-5-3-5-78"
     cx="293.22714"
     cy="171.4249"
     r="7.7398577" /><circle
     style="fill:#35b996;fill-opacity:1;stroke:#e5e5e5;stroke-width:0.6;stroke-linecap:butt;stroke-linejoin:round;stroke-miterlimit:10;stroke-dasharray:none;stroke-opacity:1"
     id="path395-5-3-5-4"
     cx="298.66348"
     cy="126.12213"
     r="7.7398577" /><circle
     style="fill:#35b996;fill-opacity:1;stroke:#e5e5e5;stroke-width:0.6;stroke-linecap:butt;stroke-linejoin:round;stroke-miterlimit:10;stroke-dasharray:none;stroke-opacity:1"
     id="path395-5-3-5-50"
     cx="299.87155"
     cy="83.839539"
     r="7.7398577" /><circle
     style="fill:#35b996;fill-opacity:1;stroke:#e5e5e5;stroke-width:0.6;stroke-linecap:butt;stroke-linejoin:round;stroke-miterlimit:10;stroke-dasharray:none;stroke-opacity:1"
     id="path395-5-3-5-361"
     cx="327.05322"
     cy="107.39697"
     r="7.7398577" /><circle
     style="fill:#35b996;fill-opacity:1;stroke:#e5e5e5;stroke-width:0.6;stroke-linecap:butt;stroke-linejoin:round;stroke-miterlimit:10;stroke-dasharray:none;stroke-opacity:1"
     id="path395-5-3-5-0"
     cx="332.48956"
     cy="71.154755"
     r="7.7398577" /><circle
     style="fill:#35b996;fill-opacity:1;stroke:#e5e5e5;stroke-width:0.6;stroke-linecap:butt;stroke-linejoin:round;stroke-miterlimit:10;stroke-dasharray:none;stroke-opacity:1"
     id="path395-5-3-5-63"
     cx="360.8793"
     cy="97.732391"
     r="7.7398577" /><circle
     style="fill:#35b996;fill-opacity:1;stroke:#e5e5e5;stroke-width:0.6;stroke-linecap:butt;stroke-linejoin:round;stroke-miterlimit:10;stroke-dasharray:none;stroke-opacity:1"
     id="path395-5-3-5-206"
     cx="342.75818"
     cy="132.16249"
     r="7.7398577" /><circle
     style="fill:#35b996;fill-opacity:1;stroke:#e5e5e5;stroke-width:0.6;stroke-linecap:butt;stroke-linejoin:round;stroke-miterlimit:10;stroke-dasharray:none;stroke-opacity:1"
     id="path395-5-3-5-15"
     cx="374.16812"
     cy="215.51959"
     r="7.7398577" /><circle
     style="fill:#35b996;fill-opacity:1;stroke:#e5e5e5;stroke-width:0.6;stroke-linecap:butt;stroke-linejoin:round;stroke-miterlimit:10;stroke-dasharray:none;stroke-opacity:1"
     id="path395-5-3-5-54"
     cx="385.04077"
     cy="175.04912"
     r="7.7398577" /><circle
     style="fill:#35b996;fill-opacity:1;stroke:#e5e5e5;stroke-width:0.6;stroke-linecap:butt;stroke-linejoin:round;stroke-miterlimit:10;stroke-dasharray:none;stroke-opacity:1"
     id="path395-5-3-5-76"
     cx="405.57803"
     cy="203.43886"
     r="7.7398577" /><circle
     style="fill:#35b996;fill-opacity:1;stroke:#e5e5e5;stroke-width:0.6;stroke-linecap:butt;stroke-linejoin:round;stroke-miterlimit:10;stroke-dasharray:none;stroke-opacity:1"
     id="path395-5-3-5-56"
     cx="406.7861"
     cy="240.88916"
     r="7.7398577" /><circle
     style="fill:#35b996;fill-opacity:1;stroke:#e5e5e5;stroke-width:0.6;stroke-linecap:butt;stroke-linejoin:round;stroke-miterlimit:10;stroke-dasharray:none;stroke-opacity:1"
     id="path395-5-3-5-937"
     cx="443.02832"
     cy="226.39226"
     r="7.7398577" /><circle
     style="fill:#35b996;fill-opacity:1;stroke:#e5e5e5;stroke-width:0.6;stroke-linecap:butt;stroke-linejoin:round;stroke-miterlimit:10;stroke-dasharray:none;stroke-opacity:1"
     id="path395-5-3-5-45"
     cx="427.32336"
     cy="163.5724"
     r="7.7398577" /><circle
     style="fill:#35b996;fill-opacity:1;stroke:#e5e5e5;stroke-width:0.6;stroke-linecap:butt;stroke-linejoin:round;stroke-miterlimit:10;stroke-dasharray:none;stroke-opacity:1"
     id="path395-5-3-5-25"
     cx="353.21805"
     cy="36.174408"
     r="7.7398577" /><circle
     style="fill:#35b996;fill-opacity:1;stroke:#e5e5e5;stroke-width:0.6;stroke-linecap:butt;stroke-linejoin:round;stroke-miterlimit:10;stroke-dasharray:none;stroke-opacity:1"
     id="path395-5-7"
     cx="60.682453"
     cy="116.94344"
     r="7.7398577" /><circle
     style="fill:#35b996;fill-opacity:1;stroke:#e5e5e5;stroke-width:0.6;stroke-linecap:butt;stroke-linejoin:round;stroke-miterlimit:10;stroke-dasharray:none;stroke-opacity:1"
     id="path395-5-5"
     cx="60.488564"
     cy="154.35751"
     r="7.7398577" /></svg>
