<?xml version="1.0" encoding="UTF-8" standalone="no"?>
<svg
   width="405.26999mm"
   height="384.37mm"
   version="1.1"
   id="svg204"
   sodipodi:docname="heating.svg"
   inkscape:version="1.3 (0e150ed6c4, 2023-07-21)"
   inkscape:export-filename="sensible_heating.pdf"
   inkscape:export-xdpi="400"
   inkscape:export-ydpi="400"
   xml:space="preserve"
   xmlns:inkscape="http://www.inkscape.org/namespaces/inkscape"
   xmlns:sodipodi="http://sodipodi.sourceforge.net/DTD/sodipodi-0.dtd"
   xmlns="http://www.w3.org/2000/svg"
   xmlns:svg="http://www.w3.org/2000/svg"><sodipodi:namedview
     id="namedview206"
     pagecolor="#ffffff"
     bordercolor="#666666"
     borderopacity="1.0"
     inkscape:showpageshadow="2"
     inkscape:pageopacity="0.0"
     inkscape:pagecheckerboard="0"
     inkscape:deskcolor="#d1d1d1"
     inkscape:document-units="mm"
     showgrid="false"
     inkscape:zoom="0.23154903"
     inkscape:cx="567.91428"
     inkscape:cy="488.01759"
     inkscape:window-width="1920"
     inkscape:window-height="1043"
     inkscape:window-x="0"
     inkscape:window-y="0"
     inkscape:window-maximized="1"
     inkscape:current-layer="svg204"
     showguides="true" /><defs
     id="defs2"><linearGradient
       x1="-1744"
       x2="-1744"
       y1="120"
       y2="0"
       id="gadd7bd-cbd0987a"
       gradientTransform="scale(0.125,8)"
       gradientUnits="userSpaceOnUse"><stop
         offset="0%"
         stop-color="rgb(228, 241, 225)"
         stop-opacity="1"
         id="stop4810" /><stop
         offset="16.666667%"
         stop-color="rgb(180, 217, 204)"
         stop-opacity="1"
         id="stop4812" /><stop
         offset="33.333333%"
         stop-color="rgb(137, 192, 182)"
         stop-opacity="1"
         id="stop4814" /><stop
         offset="50%"
         stop-color="rgb(99, 166, 160)"
         stop-opacity="1"
         id="stop4816" /><stop
         offset="66.666667%"
         stop-color="rgb(68, 140, 138)"
         stop-opacity="1"
         id="stop4818" /><stop
         offset="83.333333%"
         stop-color="rgb(40, 114, 116)"
         stop-opacity="1"
         id="stop4820" /><stop
         offset="100%"
         stop-color="rgb(13, 88, 95)"
         stop-opacity="1"
         id="stop4822" /></linearGradient></defs><g
     id="g144"
     style="fill:#73e6c8;fill-opacity:1;stroke:#e5e5e5;stroke-width:7.94402111;stroke-dasharray:none;stroke-opacity:1"
     transform="matrix(1.1894252,0,0,1.1894252,25.18202,-134.1794)"><polygon
       points="194.53532,1286.7852 194.53406,972.12093 354.82956,972.12093 354.82956,1286.7839 "
       style="mix-blend-mode:normal;fill:#388180;fill-opacity:1;stroke:#e5e5e5;stroke-width:7.94402111;stroke-linecap:butt;stroke-linejoin:bevel;stroke-dasharray:none;stroke-opacity:1;paint-order:markers fill stroke"
       id="polygon4" /><polygon
       points="441.89758,386.487 441.8982,470.12864 389.21511,470.12799 194.53406,470.12799 194.53532,165.0838 456.53787,165.0838 456.53787,228.49567 418.55755,228.49567 418.55755,386.48765 "
       style="mix-blend-mode:normal;fill:#5a9f9a;fill-opacity:1;stroke:#e5e5e5;stroke-width:7.94402111;stroke-linecap:butt;stroke-linejoin:bevel;stroke-dasharray:none;stroke-opacity:1;paint-order:markers fill stroke"
       id="polygon6" /><polygon
       points="389.21511,540.93365 194.53532,540.93365 194.53406,470.12799 389.21511,470.12799 "
       style="mix-blend-mode:normal;fill:#448c8a;fill-opacity:1;stroke:#e5e5e5;stroke-width:7.94402111;stroke-linecap:butt;stroke-linejoin:bevel;stroke-dasharray:none;stroke-opacity:1;paint-order:markers fill stroke"
       id="polygon8" /><polygon
       points="460.79818,1286.7852 354.82956,1286.7839 354.82956,972.12093 376.16431,972.12093 460.79879,972.12093 "
       style="mix-blend-mode:normal;fill:#4d9490;fill-opacity:1;stroke:#e5e5e5;stroke-width:7.94402111;stroke-linecap:butt;stroke-linejoin:bevel;stroke-dasharray:none;stroke-opacity:1;paint-order:markers fill stroke"
       id="polygon10" /><polygon
       points="376.16431,820.95468 376.16431,972.12093 354.82956,972.12093 194.53406,972.12093 194.53406,820.95468 "
       style="mix-blend-mode:normal;fill:#569b97;fill-opacity:1;stroke:#e5e5e5;stroke-width:7.94402111;stroke-linecap:butt;stroke-linejoin:bevel;stroke-dasharray:none;stroke-opacity:1;paint-order:markers fill stroke"
       id="polygon12" /><polygon
       points="194.53532,540.93365 389.21511,540.93365 389.21511,745.29413 376.16495,745.29406 376.16431,820.95468 194.53406,820.95468 "
       style="mix-blend-mode:normal;fill:#78b4ac;fill-opacity:1;stroke:#e5e5e5;stroke-width:7.94402111;stroke-linecap:butt;stroke-linejoin:bevel;stroke-dasharray:none;stroke-opacity:1;paint-order:markers fill stroke"
       id="polygon14" /><polygon
       points="770.58819,165.0838 954.80549,165.0838 954.80606,470.12799 770.58819,470.12799 770.58819,342.65054 "
       style="mix-blend-mode:normal;fill:#a7d1c5;fill-opacity:1;stroke:#e5e5e5;stroke-width:7.94402111;stroke-linecap:butt;stroke-linejoin:bevel;stroke-dasharray:none;stroke-opacity:1;paint-order:markers fill stroke"
       id="polygon16" /><polygon
       points="1213.7166,1286.7852 460.79818,1286.7852 460.79879,972.12093 709.09979,972.12093 1213.7179,972.12093 "
       style="mix-blend-mode:normal;fill:#539995;fill-opacity:1;stroke:#e5e5e5;stroke-width:7.94402111;stroke-linecap:butt;stroke-linejoin:bevel;stroke-dasharray:none;stroke-opacity:1;paint-order:markers fill stroke"
       id="polygon18" /><polygon
       points="441.8982,673.72289 496.14972,673.72282 496.14972,745.29413 441.89758,745.29413 "
       style="mix-blend-mode:normal;fill:#357e7f;fill-opacity:1;stroke:#e5e5e5;stroke-width:7.94402111;stroke-linecap:butt;stroke-linejoin:bevel;stroke-dasharray:none;stroke-opacity:1;paint-order:markers fill stroke"
       id="polygon22" /><polygon
       points="496.14972,745.29413 496.14972,673.72282 550.40156,673.72289 550.40188,745.29413 "
       style="mix-blend-mode:normal;fill:#277173;fill-opacity:1;stroke:#e5e5e5;stroke-width:7.94402111;stroke-linecap:butt;stroke-linejoin:bevel;stroke-dasharray:none;stroke-opacity:1;paint-order:markers fill stroke"
       id="polygon24" /><polygon
       points="1213.7179,972.12093 709.09979,972.12093 709.09979,872.01447 770.58819,872.01479 770.58819,470.12799 954.80606,470.12799 954.80549,165.0838 1213.7166,165.0838 "
       style="mix-blend-mode:normal;fill:#81bbb2;fill-opacity:1;stroke:#e5e5e5;stroke-width:7.94402111;stroke-linecap:butt;stroke-linejoin:bevel;stroke-dasharray:none;stroke-opacity:1;paint-order:markers fill stroke"
       id="polygon26" /><polygon
       points="550.40156,673.72289 550.40188,616.62938 647.61153,616.62873 647.61153,872.01447 709.09979,872.01447 709.09979,972.12093 460.79879,972.12093 376.16431,972.12093 376.16431,820.95468 376.16495,745.29406 389.21511,745.29413 389.21511,540.93365 389.21511,470.12799 441.8982,470.12864 441.8982,673.72289 441.89758,745.29413 496.14972,745.29413 550.40188,745.29413 "
       style="mix-blend-mode:normal;fill:#589c98;fill-opacity:1;stroke:#e5e5e5;stroke-width:7.94402111;stroke-linecap:butt;stroke-linejoin:bevel;stroke-dasharray:none;stroke-opacity:1;paint-order:markers fill stroke"
       id="polygon28" /><polygon
       points="647.61168,342.65054 647.61153,616.62873 550.40188,616.62938 550.40156,673.72289 496.14972,673.72282 441.8982,673.72289 441.8982,470.12864 441.89758,386.487 418.55755,386.48765 418.55755,228.49567 456.53787,228.49567 456.53787,165.0838 770.58819,165.0838 770.58819,342.65054 "
       style="mix-blend-mode:normal;fill:#71afa8;fill-opacity:1;stroke:#e5e5e5;stroke-width:7.94402111;stroke-linecap:butt;stroke-linejoin:bevel;stroke-dasharray:none;stroke-opacity:1;paint-order:markers fill stroke"
       id="polygon30" /><polygon
       points="647.61168,342.65054 770.58819,342.65054 770.58819,470.12799 770.58819,872.01479 709.09979,872.01447 647.61153,872.01447 647.61153,616.62873 "
       style="mix-blend-mode:normal;fill:#90c4b9;fill-opacity:1;stroke:#e5e5e5;stroke-width:7.94402111;stroke-linecap:butt;stroke-linejoin:bevel;stroke-dasharray:none;stroke-opacity:1;paint-order:markers fill stroke"
       id="polygon32" /></g></svg>
