<?xml version="1.0" encoding="UTF-8" standalone="no"?>
<svg
   width="306.63556mm"
   height="337.40964mm"
   version="1.1"
   id="svg204"
   sodipodi:docname="isovist.svg"
   inkscape:version="1.3 (0e150ed6c4, 2023-07-21)"
   inkscape:export-filename="isovist1.pdf"
   inkscape:export-xdpi="400"
   inkscape:export-ydpi="400"
   xml:space="preserve"
   xmlns:inkscape="http://www.inkscape.org/namespaces/inkscape"
   xmlns:sodipodi="http://sodipodi.sourceforge.net/DTD/sodipodi-0.dtd"
   xmlns="http://www.w3.org/2000/svg"
   xmlns:svg="http://www.w3.org/2000/svg"><sodipodi:namedview
     id="namedview206"
     pagecolor="#121212"
     bordercolor="#666666"
     borderopacity="1.0"
     inkscape:showpageshadow="2"
     inkscape:pageopacity="0.0"
     inkscape:pagecheckerboard="0"
     inkscape:deskcolor="#d1d1d1"
     inkscape:document-units="mm"
     showgrid="false"
     inkscape:zoom="0.86715762"
     inkscape:cx="377.67067"
     inkscape:cy="748.42219"
     inkscape:window-width="1920"
     inkscape:window-height="1043"
     inkscape:window-x="0"
     inkscape:window-y="0"
     inkscape:window-maximized="1"
     inkscape:current-layer="svg204" /><defs
     id="defs2" /><path
     id="rect1292"
     style="fill:#35b996;fill-opacity:1;stroke:#e5e5e5;stroke-width:3.77952756;stroke-linejoin:round;stroke-miterlimit:10;stroke-dasharray:none;stroke-opacity:1"
     d="M 522.95508 327.44336 L 472.94141 528.31836 L 447.08984 528.31836 L 425.74414 656.98438 L 317.24023 656.98438 L 264.55859 549.26758 L 264.55859 656.98438 L 251.50781 656.98438 L 251.50781 681.63867 L 69.876953 506.17383 L 69.876953 579.08203 L 251.50781 714.33984 L 251.50781 762.05859 L 251.50781 833.51562 L 251.50781 883.81055 L 284.44141 883.81055 L 230.17188 911.91992 L 230.17188 956.17969 L 322.98242 883.81055 L 441.89844 883.81055 L 667.67188 1198.4746 L 939.3418 1198.4746 L 485.07422 883.81055 L 584.44336 883.81055 L 585.11133 837.35156 L 1089.0605 872.59766 L 1089.0605 749.125 L 585.11133 803.35742 L 584.44336 783.70508 L 573.78906 783.70508 L 645.93164 766.9043 L 645.93164 751.65234 L 537.16992 783.70508 L 522.95508 783.70508 L 522.95508 528.31836 L 510.05273 528.31836 L 522.95508 493.85156 L 522.95508 327.44336 z M 399.23633 814.0332 A 10.31981 10.31981 0 0 1 409.55469 824.35156 A 10.31981 10.31981 0 0 1 399.23633 834.67188 A 10.31981 10.31981 0 0 1 388.91602 824.35156 A 10.31981 10.31981 0 0 1 399.23633 814.0332 z " /><g
     id="g144"
     style="fill:none;fill-opacity:1;stroke:#000000;stroke-width:1.00157;stroke-dasharray:none;stroke-opacity:1"
     transform="translate(-124.65715,-88.309974)"><polygon
       points="194.53406,972.12093 354.82956,972.12093 354.82956,1286.7839 194.53532,1286.7852 "
       style="mix-blend-mode:normal;fill:none;fill-opacity:1;stroke:#e5e5e5;stroke-width:3.77952756;stroke-linecap:butt;stroke-linejoin:bevel;stroke-dasharray:none;stroke-opacity:1;paint-order:markers fill stroke"
       id="polygon4" /><polygon
       points="456.53787,228.49567 418.55755,228.49567 418.55755,386.48765 441.89758,386.487 441.8982,470.12864 389.21511,470.12799 194.53406,470.12799 194.53532,165.0838 456.53787,165.0838 "
       style="mix-blend-mode:normal;fill:none;fill-opacity:1;stroke:#e5e5e5;stroke-width:3.77952756;stroke-linecap:butt;stroke-linejoin:bevel;stroke-dasharray:none;stroke-opacity:1;paint-order:markers fill stroke"
       id="polygon6" /><polygon
       points="194.53532,540.93365 194.53406,470.12799 389.21511,470.12799 389.21511,540.93365 "
       style="mix-blend-mode:normal;fill:none;fill-opacity:1;stroke:#e5e5e5;stroke-width:3.77952756;stroke-linecap:butt;stroke-linejoin:bevel;stroke-dasharray:none;stroke-opacity:1;paint-order:markers fill stroke"
       id="polygon8" /><polygon
       points="354.82956,972.12093 376.16431,972.12093 460.79879,972.12093 460.79818,1286.7852 354.82956,1286.7839 "
       style="mix-blend-mode:normal;fill:none;fill-opacity:1;stroke:#e5e5e5;stroke-width:3.77952756;stroke-linecap:butt;stroke-linejoin:bevel;stroke-dasharray:none;stroke-opacity:1;paint-order:markers fill stroke"
       id="polygon10" /><polygon
       points="354.82956,972.12093 194.53406,972.12093 194.53406,820.95468 376.16431,820.95468 376.16431,972.12093 "
       style="mix-blend-mode:normal;fill:none;fill-opacity:1;stroke:#e5e5e5;stroke-width:3.77952756;stroke-linecap:butt;stroke-linejoin:bevel;stroke-dasharray:none;stroke-opacity:1;paint-order:markers fill stroke"
       id="polygon12" /><polygon
       points="376.16495,745.29406 376.16431,820.95468 194.53406,820.95468 194.53532,540.93365 389.21511,540.93365 389.21511,745.29413 "
       style="mix-blend-mode:normal;fill:none;fill-opacity:1;stroke:#e5e5e5;stroke-width:3.77952756;stroke-linecap:butt;stroke-linejoin:bevel;stroke-dasharray:none;stroke-opacity:1;paint-order:markers fill stroke"
       id="polygon14" /><polygon
       points="954.80606,470.12799 770.58819,470.12799 770.58819,342.65054 770.58819,165.0838 954.80549,165.0838 "
       style="mix-blend-mode:normal;fill:none;fill-opacity:1;stroke:#e5e5e5;stroke-width:3.77952756;stroke-linecap:butt;stroke-linejoin:bevel;stroke-dasharray:none;stroke-opacity:1;paint-order:markers fill stroke"
       id="polygon16" /><polygon
       points="460.79879,972.12093 709.09979,972.12093 1213.7179,972.12093 1213.7166,1286.7852 460.79818,1286.7852 "
       style="mix-blend-mode:normal;fill:none;fill-opacity:1;stroke:#e5e5e5;stroke-width:3.77952756;stroke-linecap:butt;stroke-linejoin:bevel;stroke-dasharray:none;stroke-opacity:1;paint-order:markers fill stroke"
       id="polygon18" /><polygon
       points="125.97999,1362.2361 194.53532,1286.7852 354.82956,1286.7839 307.83922,1362.2348 "
       style="mix-blend-mode:normal;fill:none;fill-opacity:1;stroke:#e5e5e5;stroke-width:3.77952756;stroke-linecap:butt;stroke-linejoin:bevel;stroke-dasharray:none;stroke-opacity:1;paint-order:markers fill stroke"
       id="polygon20" /><polygon
       points="496.14972,673.72282 496.14972,745.29413 441.89758,745.29413 441.8982,673.72289 "
       style="mix-blend-mode:normal;fill:none;fill-opacity:1;stroke:#e5e5e5;stroke-width:3.77952756;stroke-linecap:butt;stroke-linejoin:bevel;stroke-dasharray:none;stroke-opacity:1;paint-order:markers fill stroke"
       id="polygon22" /><polygon
       points="496.14972,673.72282 550.40156,673.72289 550.40188,745.29413 496.14972,745.29413 "
       style="mix-blend-mode:normal;fill:none;fill-opacity:1;stroke:#e5e5e5;stroke-width:3.77952756;stroke-linecap:butt;stroke-linejoin:bevel;stroke-dasharray:none;stroke-opacity:1;paint-order:markers fill stroke"
       id="polygon24" /><polygon
       points="709.09979,972.12093 709.09979,872.01447 770.58819,872.01479 770.58819,470.12799 954.80606,470.12799 954.80549,165.0838 1213.7166,165.0838 1213.7179,972.12093 "
       style="mix-blend-mode:normal;fill:none;fill-opacity:1;stroke:#e5e5e5;stroke-width:3.77952756;stroke-linecap:butt;stroke-linejoin:bevel;stroke-dasharray:none;stroke-opacity:1;paint-order:markers fill stroke"
       id="polygon26" /><polygon
       points="441.89758,745.29413 496.14972,745.29413 550.40188,745.29413 550.40156,673.72289 550.40188,616.62938 647.61153,616.62873 647.61153,872.01447 709.09979,872.01447 709.09979,972.12093 460.79879,972.12093 376.16431,972.12093 376.16431,820.95468 376.16495,745.29406 389.21511,745.29413 389.21511,540.93365 389.21511,470.12799 441.8982,470.12864 441.8982,673.72289 "
       style="mix-blend-mode:normal;fill:none;fill-opacity:1;stroke:#e5e5e5;stroke-width:3.77952756;stroke-linecap:butt;stroke-linejoin:bevel;stroke-dasharray:none;stroke-opacity:1;paint-order:markers fill stroke"
       id="polygon28" /><polygon
       points="770.58819,342.65054 647.61168,342.65054 647.61153,616.62873 550.40188,616.62938 550.40156,673.72289 496.14972,673.72282 441.8982,673.72289 441.8982,470.12864 441.89758,386.487 418.55755,386.48765 418.55755,228.49567 456.53787,228.49567 456.53787,165.0838 770.58819,165.0838 "
       style="mix-blend-mode:normal;fill:none;fill-opacity:1;stroke:#e5e5e5;stroke-width:3.77952756;stroke-linecap:butt;stroke-linejoin:bevel;stroke-dasharray:none;stroke-opacity:1;paint-order:markers fill stroke"
       id="polygon30" /><polygon
       points="647.61153,616.62873 647.61168,342.65054 770.58819,342.65054 770.58819,470.12799 770.58819,872.01479 709.09979,872.01447 647.61153,872.01447 "
       style="mix-blend-mode:normal;fill:none;fill-opacity:1;stroke:#e5e5e5;stroke-width:3.77952756;stroke-linecap:butt;stroke-linejoin:bevel;stroke-dasharray:none;stroke-opacity:1;paint-order:markers fill stroke"
       id="polygon32" /><polygon
       points="1282.2706,89.632809 1213.7166,165.0838 954.80549,165.0838 988.52933,89.632809 "
       style="mix-blend-mode:normal;fill:none;fill-opacity:1;stroke:#e5e5e5;stroke-width:3.77952756;stroke-linecap:butt;stroke-linejoin:bevel;stroke-dasharray:none;stroke-opacity:1;paint-order:markers fill stroke"
       id="polygon34" /><polygon
       points="423.23034,89.632809 456.53787,165.0838 194.53532,165.0838 125.98125,89.632809 "
       style="mix-blend-mode:normal;fill:none;fill-opacity:1;stroke:#e5e5e5;stroke-width:3.77952756;stroke-linecap:butt;stroke-linejoin:bevel;stroke-dasharray:none;stroke-opacity:1;paint-order:markers fill stroke"
       id="polygon36" /><polygon
       points="307.83922,1362.2348 354.82956,1286.7839 460.79818,1286.7852 428.064,1362.2361 "
       style="mix-blend-mode:normal;fill:none;fill-opacity:1;stroke:#e5e5e5;stroke-width:3.77952756;stroke-linecap:butt;stroke-linejoin:bevel;stroke-dasharray:none;stroke-opacity:1;paint-order:markers fill stroke"
       id="polygon38" /><polygon
       points="428.064,1362.2361 460.79818,1286.7852 1213.7166,1286.7852 1282.2719,1362.2361 "
       style="mix-blend-mode:normal;fill:none;fill-opacity:1;stroke:#e5e5e5;stroke-width:3.77952756;stroke-linecap:butt;stroke-linejoin:bevel;stroke-dasharray:none;stroke-opacity:1;paint-order:markers fill stroke"
       id="polygon40" /><polygon
       points="125.97999,435.71469 125.98125,89.632809 194.53532,165.0838 194.53406,470.12799 "
       style="mix-blend-mode:normal;fill:none;fill-opacity:1;stroke:#e5e5e5;stroke-width:3.77952756;stroke-linecap:butt;stroke-linejoin:bevel;stroke-dasharray:none;stroke-opacity:1;paint-order:markers fill stroke"
       id="polygon42" /><polygon
       points="125.98125,1005.2405 194.53406,972.12093 194.53532,1286.7852 125.97999,1362.2361 "
       style="mix-blend-mode:normal;fill:none;fill-opacity:1;stroke:#e5e5e5;stroke-width:3.77952756;stroke-linecap:butt;stroke-linejoin:bevel;stroke-dasharray:none;stroke-opacity:1;paint-order:markers fill stroke"
       id="polygon44" /><polygon
       points="1282.2706,1005.2405 1213.7179,972.12093 1213.7166,165.0838 1282.2706,89.632809 "
       style="mix-blend-mode:normal;fill:none;fill-opacity:1;stroke:#e5e5e5;stroke-width:3.77952756;stroke-linecap:butt;stroke-linejoin:bevel;stroke-dasharray:none;stroke-opacity:1;paint-order:markers fill stroke"
       id="polygon46" /><polygon
       points="1282.2719,1362.2361 1213.7166,1286.7852 1213.7179,972.12093 1282.2706,1005.2405 "
       style="mix-blend-mode:normal;fill:none;fill-opacity:1;stroke:#e5e5e5;stroke-width:3.77952756;stroke-linecap:butt;stroke-linejoin:bevel;stroke-dasharray:none;stroke-opacity:1;paint-order:markers fill stroke"
       id="polygon48" /><polygon
       points="779.52915,89.632809 770.58819,165.0838 456.53787,165.0838 423.23034,89.632809 "
       style="mix-blend-mode:normal;fill:none;fill-opacity:1;stroke:#e5e5e5;stroke-width:3.77952756;stroke-linecap:butt;stroke-linejoin:bevel;stroke-dasharray:none;stroke-opacity:1;paint-order:markers fill stroke"
       id="polygon50" /><polygon
       points="988.52933,89.632809 954.80549,165.0838 770.58819,165.0838 779.52915,89.632809 "
       style="mix-blend-mode:normal;fill:none;fill-opacity:1;stroke:#e5e5e5;stroke-width:3.77952756;stroke-linecap:butt;stroke-linejoin:bevel;stroke-dasharray:none;stroke-opacity:1;paint-order:markers fill stroke"
       id="polygon52" /><polygon
       points="380.14072,161.57538 418.55755,228.49567 456.53787,228.49567 423.22973,161.57538 "
       style="mix-blend-mode:normal;fill:none;fill-opacity:1;stroke:#e5e5e5;stroke-width:3.77952756;stroke-linecap:butt;stroke-linejoin:bevel;stroke-dasharray:none;stroke-opacity:1;paint-order:markers fill stroke"
       id="polygon54" /><polygon
       points="423.22973,161.57538 456.53787,228.49567 456.53787,165.0838 423.23034,89.632809 "
       style="mix-blend-mode:normal;fill:none;fill-opacity:1;stroke:#e5e5e5;stroke-width:3.77952756;stroke-linecap:butt;stroke-linejoin:bevel;stroke-dasharray:none;stroke-opacity:1;paint-order:markers fill stroke"
       id="polygon56" /><polygon
       points="125.97999,435.71469 194.53406,470.12799 194.53532,540.93365 125.97999,516.04536 "
       style="mix-blend-mode:normal;fill:none;fill-opacity:1;stroke:#e5e5e5;stroke-width:3.77952756;stroke-linecap:butt;stroke-linejoin:bevel;stroke-dasharray:none;stroke-opacity:1;paint-order:markers fill stroke"
       id="polygon58" /><polygon
       points="125.97999,833.73782 194.53406,820.95468 194.53406,972.12093 125.98125,1005.2405 "
       style="mix-blend-mode:normal;fill:none;fill-opacity:1;stroke:#e5e5e5;stroke-width:3.77952756;stroke-linecap:butt;stroke-linejoin:bevel;stroke-dasharray:none;stroke-opacity:1;paint-order:markers fill stroke"
       id="polygon60" /><polygon
       points="125.97999,516.04536 194.53532,540.93365 194.53406,820.95468 125.97999,833.73782 "
       style="mix-blend-mode:normal;fill:none;fill-opacity:1;stroke:#e5e5e5;stroke-width:3.77952756;stroke-linecap:butt;stroke-linejoin:bevel;stroke-dasharray:none;stroke-opacity:1;paint-order:markers fill stroke"
       id="polygon62" /><polygon
       points="380.14072,340.82194 418.55755,386.48765 418.55755,228.49567 380.14072,161.57538 "
       style="mix-blend-mode:normal;fill:none;fill-opacity:1;stroke:#e5e5e5;stroke-width:3.77952756;stroke-linecap:butt;stroke-linejoin:bevel;stroke-dasharray:none;stroke-opacity:1;paint-order:markers fill stroke"
       id="polygon64" /><polygon
       points="406.62073,340.82194 441.89758,386.487 418.55755,386.48765 380.14072,340.82194 "
       style="mix-blend-mode:normal;fill:none;fill-opacity:1;stroke:#e5e5e5;stroke-width:3.77952756;stroke-linecap:butt;stroke-linejoin:bevel;stroke-dasharray:none;stroke-opacity:1;paint-order:markers fill stroke"
       id="polygon66" /><polygon
       points="307.83922,1005.2405 307.83922,1362.2348 354.82956,1286.7839 354.82956,972.12093 "
       style="mix-blend-mode:normal;fill:none;fill-opacity:1;stroke:#e5e5e5;stroke-width:3.77952756;stroke-linecap:butt;stroke-linejoin:bevel;stroke-dasharray:none;stroke-opacity:1;paint-order:markers fill stroke"
       id="polygon68" /><polygon
       points="125.98125,1005.2405 194.53406,972.12093 354.82956,972.12093 307.83922,1005.2405 "
       style="mix-blend-mode:normal;fill:none;fill-opacity:1;stroke:#e5e5e5;stroke-width:3.77952756;stroke-linecap:butt;stroke-linejoin:bevel;stroke-dasharray:none;stroke-opacity:1;paint-order:markers fill stroke"
       id="polygon70" /><polygon
       points="307.83922,1005.2405 354.82956,972.12093 376.16431,972.12093 332.04339,1005.2405 "
       style="mix-blend-mode:normal;fill:none;fill-opacity:1;stroke:#e5e5e5;stroke-width:3.77952756;stroke-linecap:butt;stroke-linejoin:bevel;stroke-dasharray:none;stroke-opacity:1;paint-order:markers fill stroke"
       id="polygon72" /><polygon
       points="125.97999,435.71469 194.53406,470.12799 389.21511,470.12799 346.85085,435.71469 "
       style="mix-blend-mode:normal;fill:none;fill-opacity:1;stroke:#e5e5e5;stroke-width:3.77952756;stroke-linecap:butt;stroke-linejoin:bevel;stroke-dasharray:none;stroke-opacity:1;paint-order:markers fill stroke"
       id="polygon74" /><polygon
       points="779.52915,89.632809 779.52915,291.08833 770.58819,342.65054 770.58819,165.0838 "
       style="mix-blend-mode:normal;fill:none;fill-opacity:1;stroke:#e5e5e5;stroke-width:3.77952756;stroke-linecap:butt;stroke-linejoin:bevel;stroke-dasharray:none;stroke-opacity:1;paint-order:markers fill stroke"
       id="polygon76" /><polygon
       points="640.00891,291.08833 647.61168,342.65054 770.58819,342.65054 779.52915,291.08833 "
       style="mix-blend-mode:normal;fill:none;fill-opacity:1;stroke:#e5e5e5;stroke-width:3.77952756;stroke-linecap:butt;stroke-linejoin:bevel;stroke-dasharray:none;stroke-opacity:1;paint-order:markers fill stroke"
       id="polygon78" /><polygon
       points="406.62073,435.71469 441.8982,470.12864 441.89758,386.487 406.62073,340.82194 "
       style="mix-blend-mode:normal;fill:none;fill-opacity:1;stroke:#e5e5e5;stroke-width:3.77952756;stroke-linecap:butt;stroke-linejoin:bevel;stroke-dasharray:none;stroke-opacity:1;paint-order:markers fill stroke"
       id="polygon80" /><polygon
       points="346.85085,435.71469 389.21511,470.12799 441.8982,470.12864 406.62073,435.71469 "
       style="mix-blend-mode:normal;fill:none;fill-opacity:1;stroke:#e5e5e5;stroke-width:3.77952756;stroke-linecap:butt;stroke-linejoin:bevel;stroke-dasharray:none;stroke-opacity:1;paint-order:markers fill stroke"
       id="polygon82" /><polygon
       points="125.97999,516.04536 194.53532,540.93365 389.21511,540.93365 346.84962,516.04572 "
       style="mix-blend-mode:normal;fill:none;fill-opacity:1;stroke:#e5e5e5;stroke-width:3.77952756;stroke-linecap:butt;stroke-linejoin:bevel;stroke-dasharray:none;stroke-opacity:1;paint-order:markers fill stroke"
       id="polygon84" /><polygon
       points="346.84962,516.04572 346.85085,435.71469 389.21511,470.12799 389.21511,540.93365 "
       style="mix-blend-mode:normal;fill:none;fill-opacity:1;stroke:#e5e5e5;stroke-width:3.77952756;stroke-linecap:butt;stroke-linejoin:bevel;stroke-dasharray:none;stroke-opacity:1;paint-order:markers fill stroke"
       id="polygon86" /><polygon
       points="988.52933,89.632809 954.80549,165.0838 954.80606,470.12799 988.52933,435.71469 "
       style="mix-blend-mode:normal;fill:none;fill-opacity:1;stroke:#e5e5e5;stroke-width:3.77952756;stroke-linecap:butt;stroke-linejoin:bevel;stroke-dasharray:none;stroke-opacity:1;paint-order:markers fill stroke"
       id="polygon88" /><polygon
       points="428.064,1005.2405 332.04339,1005.2405 376.16431,972.12093 460.79879,972.12093 "
       style="mix-blend-mode:normal;fill:none;fill-opacity:1;stroke:#e5e5e5;stroke-width:3.77952756;stroke-linecap:butt;stroke-linejoin:bevel;stroke-dasharray:none;stroke-opacity:1;paint-order:markers fill stroke"
       id="polygon90" /><polygon
       points="428.064,1362.2361 460.79818,1286.7852 460.79879,972.12093 428.064,1005.2405 "
       style="mix-blend-mode:normal;fill:none;fill-opacity:1;stroke:#e5e5e5;stroke-width:3.77952756;stroke-linecap:butt;stroke-linejoin:bevel;stroke-dasharray:none;stroke-opacity:1;paint-order:markers fill stroke"
       id="polygon92" /><polygon
       points="125.97999,833.73782 194.53406,820.95468 376.16431,820.95468 332.04339,833.73782 "
       style="mix-blend-mode:normal;fill:none;fill-opacity:1;stroke:#e5e5e5;stroke-width:3.77952756;stroke-linecap:butt;stroke-linejoin:bevel;stroke-dasharray:none;stroke-opacity:1;paint-order:markers fill stroke"
       id="polygon94" /><polygon
       points="332.04339,1005.2405 332.04339,833.73782 376.16431,820.95468 376.16431,972.12093 "
       style="mix-blend-mode:normal;fill:none;fill-opacity:1;stroke:#e5e5e5;stroke-width:3.77952756;stroke-linecap:butt;stroke-linejoin:bevel;stroke-dasharray:none;stroke-opacity:1;paint-order:markers fill stroke"
       id="polygon96" /><polygon
       points="332.04339,833.73782 332.04339,747.89863 376.16495,745.29406 376.16431,820.95468 "
       style="mix-blend-mode:normal;fill:none;fill-opacity:1;stroke:#e5e5e5;stroke-width:3.77952756;stroke-linecap:butt;stroke-linejoin:bevel;stroke-dasharray:none;stroke-opacity:1;paint-order:markers fill stroke"
       id="polygon98" /><polygon
       points="332.04339,747.89863 346.85024,747.89863 389.21511,745.29413 376.16495,745.29406 "
       style="mix-blend-mode:normal;fill:none;fill-opacity:1;stroke:#e5e5e5;stroke-width:3.77952756;stroke-linecap:butt;stroke-linejoin:bevel;stroke-dasharray:none;stroke-opacity:1;paint-order:markers fill stroke"
       id="polygon100" /><polygon
       points="346.85024,747.89863 346.84962,516.04572 389.21511,540.93365 389.21511,745.29413 "
       style="mix-blend-mode:normal;fill:none;fill-opacity:1;stroke:#e5e5e5;stroke-width:3.77952756;stroke-linecap:butt;stroke-linejoin:bevel;stroke-dasharray:none;stroke-opacity:1;paint-order:markers fill stroke"
       id="polygon102" /><polygon
       points="406.62073,435.71469 441.8982,470.12864 441.8982,673.72289 406.62012,666.69878 "
       style="mix-blend-mode:normal;fill:none;fill-opacity:1;stroke:#e5e5e5;stroke-width:3.77952756;stroke-linecap:butt;stroke-linejoin:bevel;stroke-dasharray:none;stroke-opacity:1;paint-order:markers fill stroke"
       id="polygon104" /><polygon
       points="779.52915,291.08833 770.58819,342.65054 770.58819,470.12799 779.52929,435.71469 "
       style="mix-blend-mode:normal;fill:none;fill-opacity:1;stroke:#e5e5e5;stroke-width:3.77952756;stroke-linecap:butt;stroke-linejoin:bevel;stroke-dasharray:none;stroke-opacity:1;paint-order:markers fill stroke"
       id="polygon106" /><polygon
       points="988.52933,435.71469 954.80606,470.12799 770.58819,470.12799 779.52929,435.71469 "
       style="mix-blend-mode:normal;fill:none;fill-opacity:1;stroke:#e5e5e5;stroke-width:3.77952756;stroke-linecap:butt;stroke-linejoin:bevel;stroke-dasharray:none;stroke-opacity:1;paint-order:markers fill stroke"
       id="polygon108" /><polygon
       points="406.62012,666.69878 406.62012,747.89863 441.89758,745.29413 441.8982,673.72289 "
       style="mix-blend-mode:normal;fill:none;fill-opacity:1;stroke:#e5e5e5;stroke-width:3.77952756;stroke-linecap:butt;stroke-linejoin:bevel;stroke-dasharray:none;stroke-opacity:1;paint-order:markers fill stroke"
       id="polygon110" /><polygon
       points="709.76892,1005.2405 428.064,1005.2405 460.79879,972.12093 709.09979,972.12093 "
       style="mix-blend-mode:normal;fill:none;fill-opacity:1;stroke:#e5e5e5;stroke-width:3.77952756;stroke-linecap:butt;stroke-linejoin:bevel;stroke-dasharray:none;stroke-opacity:1;paint-order:markers fill stroke"
       id="polygon112" /><polygon
       points="1282.2706,1005.2405 1213.7179,972.12093 709.09979,972.12093 709.76892,1005.2405 "
       style="mix-blend-mode:normal;fill:none;fill-opacity:1;stroke:#e5e5e5;stroke-width:3.77952756;stroke-linecap:butt;stroke-linejoin:bevel;stroke-dasharray:none;stroke-opacity:1;paint-order:markers fill stroke"
       id="polygon114" /><polygon
       points="406.62012,666.69878 441.8982,673.72289 496.14972,673.72282 468.17069,666.69885 "
       style="mix-blend-mode:normal;fill:none;fill-opacity:1;stroke:#e5e5e5;stroke-width:3.77952756;stroke-linecap:butt;stroke-linejoin:bevel;stroke-dasharray:none;stroke-opacity:1;paint-order:markers fill stroke"
       id="polygon116" /><polygon
       points="468.17098,747.89863 406.62012,747.89863 441.89758,745.29413 496.14972,745.29413 "
       style="mix-blend-mode:normal;fill:none;fill-opacity:1;stroke:#e5e5e5;stroke-width:3.77952756;stroke-linecap:butt;stroke-linejoin:bevel;stroke-dasharray:none;stroke-opacity:1;paint-order:markers fill stroke"
       id="polygon118" /><polygon
       points="468.17069,666.69885 468.17098,747.89863 496.14972,745.29413 496.14972,673.72282 "
       style="mix-blend-mode:normal;fill:none;fill-opacity:1;stroke:#e5e5e5;stroke-width:3.77952756;stroke-linecap:butt;stroke-linejoin:bevel;stroke-dasharray:none;stroke-opacity:1;paint-order:markers fill stroke"
       id="polygon120" /><polygon
       points="468.17069,666.69885 496.14972,673.72282 550.40156,673.72289 529.72091,666.69892 "
       style="mix-blend-mode:normal;fill:none;fill-opacity:1;stroke:#e5e5e5;stroke-width:3.77952756;stroke-linecap:butt;stroke-linejoin:bevel;stroke-dasharray:none;stroke-opacity:1;paint-order:markers fill stroke"
       id="polygon122" /><polygon
       points="529.72091,666.69892 550.40156,673.72289 550.40188,616.62938 529.72124,601.92421 "
       style="mix-blend-mode:normal;fill:none;fill-opacity:1;stroke:#e5e5e5;stroke-width:3.77952756;stroke-linecap:butt;stroke-linejoin:bevel;stroke-dasharray:none;stroke-opacity:1;paint-order:markers fill stroke"
       id="polygon124" /><polygon
       points="779.52929,435.71469 770.58819,470.12799 770.58819,872.01479 779.52929,891.66663 "
       style="mix-blend-mode:normal;fill:none;fill-opacity:1;stroke:#e5e5e5;stroke-width:3.77952756;stroke-linecap:butt;stroke-linejoin:bevel;stroke-dasharray:none;stroke-opacity:1;paint-order:markers fill stroke"
       id="polygon126" /><polygon
       points="529.72124,747.89863 529.72091,666.69892 550.40156,673.72289 550.40188,745.29413 "
       style="mix-blend-mode:normal;fill:none;fill-opacity:1;stroke:#e5e5e5;stroke-width:3.77952756;stroke-linecap:butt;stroke-linejoin:bevel;stroke-dasharray:none;stroke-opacity:1;paint-order:markers fill stroke"
       id="polygon128" /><polygon
       points="468.17098,747.89863 496.14972,745.29413 550.40188,745.29413 529.72124,747.89863 "
       style="mix-blend-mode:normal;fill:none;fill-opacity:1;stroke:#e5e5e5;stroke-width:3.77952756;stroke-linecap:butt;stroke-linejoin:bevel;stroke-dasharray:none;stroke-opacity:1;paint-order:markers fill stroke"
       id="polygon130" /><polygon
       points="709.76892,891.66663 709.76892,1005.2405 709.09979,972.12093 709.09979,872.01447 "
       style="mix-blend-mode:normal;fill:none;fill-opacity:1;stroke:#e5e5e5;stroke-width:3.77952756;stroke-linecap:butt;stroke-linejoin:bevel;stroke-dasharray:none;stroke-opacity:1;paint-order:markers fill stroke"
       id="polygon132" /><polygon
       points="640.00876,891.66663 709.76892,891.66663 709.09979,872.01447 647.61153,872.01447 "
       style="mix-blend-mode:normal;fill:none;fill-opacity:1;stroke:#e5e5e5;stroke-width:3.77952756;stroke-linecap:butt;stroke-linejoin:bevel;stroke-dasharray:none;stroke-opacity:1;paint-order:markers fill stroke"
       id="polygon134" /><polygon
       points="779.52929,891.66663 770.58819,872.01479 709.09979,872.01447 709.76892,891.66663 "
       style="mix-blend-mode:normal;fill:none;fill-opacity:1;stroke:#e5e5e5;stroke-width:3.77952756;stroke-linecap:butt;stroke-linejoin:bevel;stroke-dasharray:none;stroke-opacity:1;paint-order:markers fill stroke"
       id="polygon136" /><polygon
       points="640.00891,601.92442 640.00876,891.66663 647.61153,872.01447 647.61153,616.62873 "
       style="mix-blend-mode:normal;fill:none;fill-opacity:1;stroke:#e5e5e5;stroke-width:3.77952756;stroke-linecap:butt;stroke-linejoin:bevel;stroke-dasharray:none;stroke-opacity:1;paint-order:markers fill stroke"
       id="polygon138" /><polygon
       points="529.72124,601.92421 550.40188,616.62938 647.61153,616.62873 640.00891,601.92442 "
       style="mix-blend-mode:normal;fill:none;fill-opacity:1;stroke:#e5e5e5;stroke-width:3.77952756;stroke-linecap:butt;stroke-linejoin:bevel;stroke-dasharray:none;stroke-opacity:1;paint-order:markers fill stroke"
       id="polygon140" /><polygon
       points="640.00891,601.92442 647.61153,616.62873 647.61168,342.65054 640.00891,291.08833 "
       style="mix-blend-mode:normal;fill:none;fill-opacity:1;stroke:#e5e5e5;stroke-width:3.77952756;stroke-linecap:butt;stroke-linejoin:bevel;stroke-dasharray:none;stroke-opacity:1;paint-order:markers fill stroke"
       id="polygon142" /></g></svg>
