<?xml version="1.0" encoding="UTF-8" standalone="no"?>
<svg
   width="422.26999mm"
   height="383.37mm"
   version="1.1"
   id="svg204"
   sodipodi:docname="light.svg"
   inkscape:version="1.3 (0e150ed6c4, 2023-07-21)"
   inkscape:export-filename="light_lux.pdf"
   inkscape:export-xdpi="400"
   inkscape:export-ydpi="400"
   xml:space="preserve"
   xmlns:inkscape="http://www.inkscape.org/namespaces/inkscape"
   xmlns:sodipodi="http://sodipodi.sourceforge.net/DTD/sodipodi-0.dtd"
   xmlns="http://www.w3.org/2000/svg"
   xmlns:svg="http://www.w3.org/2000/svg"><sodipodi:namedview
     id="namedview206"
     pagecolor="#121212"
     bordercolor="#666666"
     borderopacity="1.0"
     inkscape:showpageshadow="2"
     inkscape:pageopacity="0.0"
     inkscape:pagecheckerboard="0"
     inkscape:deskcolor="#d1d1d1"
     inkscape:document-units="mm"
     showgrid="false"
     inkscape:zoom="0.32745978"
     inkscape:cx="438.22176"
     inkscape:cy="726.80682"
     inkscape:window-width="1920"
     inkscape:window-height="1043"
     inkscape:window-x="0"
     inkscape:window-y="0"
     inkscape:window-maximized="1"
     inkscape:current-layer="g5050"
     showguides="true" /><defs
     id="defs2"><linearGradient
       x1="-1744"
       x2="-1744"
       y1="120"
       y2="0"
       id="gadd7bd-cbd0987a"
       gradientTransform="scale(0.125,8)"
       gradientUnits="userSpaceOnUse"><stop
         offset="0%"
         stop-color="rgb(228, 241, 225)"
         stop-opacity="1"
         id="stop4810" /><stop
         offset="16.666667%"
         stop-color="rgb(180, 217, 204)"
         stop-opacity="1"
         id="stop4812" /><stop
         offset="33.333333%"
         stop-color="rgb(137, 192, 182)"
         stop-opacity="1"
         id="stop4814" /><stop
         offset="50%"
         stop-color="rgb(99, 166, 160)"
         stop-opacity="1"
         id="stop4816" /><stop
         offset="66.666667%"
         stop-color="rgb(68, 140, 138)"
         stop-opacity="1"
         id="stop4818" /><stop
         offset="83.333333%"
         stop-color="rgb(40, 114, 116)"
         stop-opacity="1"
         id="stop4820" /><stop
         offset="100%"
         stop-color="rgb(13, 88, 95)"
         stop-opacity="1"
         id="stop4822" /></linearGradient></defs><path
     id="rect919-1"
     style="fill:#1c676b;fill-opacity:1;stroke:#000000;stroke-width:1.19122;stroke-linejoin:round;stroke-miterlimit:10;stroke-dasharray:9.52976, 2.38244, 1.19122, 2.38244;stroke-opacity:1"
     d="m 623.02227,515.4561 24.82221,-2.05394 -6.87595,55.70407 13.86105,75.81406 11.2259,37.51097 7.82182,111.80868 8.9666,49.04278 57.21406,118.86218 54.91445,5.71353 -36.51237,12.28775 -32.81624,32.98662 h -52.46032 l 44.63759,-52.14448 -50.32355,-72.1349 -35.24245,-77.7076 15.52856,-49.47876 7.88906,-69.28232 -26.29938,-34.15076 z"
     sodipodi:nodetypes="ccccccccccccccccccc" /><path
     id="path3228"
     style="fill:#277173;fill-opacity:1;stroke:#000000;stroke-width:1.19122;stroke-linejoin:round;stroke-miterlimit:10;stroke-dasharray:9.52976, 2.38244, 1.19122, 2.38244;stroke-opacity:1"
     d="m 321.32033,833.34372 h 25.84837 l 13.1649,30.95714 27.27845,9.34834 41.71885,49.58911 33.89225,89.89449 35.59688,37.8395 44.70192,3.609 66.13366,37.8529 38.8093,5.2755 32.64203,-7.0688 -3.20272,20.3204 -39.9031,54.9155 -1.3e-4,69.6025 -54.68186,-44.3652 -51.23206,-65.8522 -20.11986,-11.8251 -50.329,-52.4792 -17.83207,-7.4264 -48.37485,-19.2666 -41.18719,-2.7195 -32.92377,13.233 z"
     sodipodi:nodetypes="ccccccccccccccccccccccc" /><path
     id="path3226"
     style="fill:#2f797a;fill-opacity:1;stroke:#000000;stroke-width:1.19122;stroke-linejoin:round;stroke-miterlimit:10;stroke-dasharray:9.52976, 2.38244, 1.19122, 2.38244;stroke-opacity:1"
     d="m 321.3202,910.23556 22.4153,-10.37127 34.96704,13.38614 26.25014,25.70079 27.17464,64.24358 11.67882,50.3364 -48.37485,-19.2666 -41.18719,-2.7195 -32.92377,13.233 z"
     sodipodi:nodetypes="cccccccccc" /><path
     id="path3170"
     style="fill:#206a6d;fill-opacity:1;stroke:#000000;stroke-width:1.19122;stroke-linejoin:round;stroke-miterlimit:10;stroke-dasharray:9.52976, 2.38244, 1.19122, 2.38244;stroke-opacity:1"
     d="m 321.32139,482.66827 24.56239,-13.69962 65.91227,14.96097 30.07668,-35.18619 44.53387,6.58366 1.05586,-15.31604 38.84108,-23.92208 -35.747,-9.9118 17.22045,-120.41932 46.413,-0.81479 33.57192,-156.23881 h 22.5859 l 14.50496,-43.165625 42.92487,71.902525 43.83016,42.24278 88.39789,55.28237 51.51435,85.68571 -115.71255,0.66201 46.03123,28.02163 -56.01139,137.61374 -102.80506,8.50671 6.35104,142.77788 26.29938,34.15076 -7.88906,69.28232 -15.52856,49.47876 35.24245,77.7076 50.32355,72.1349 -44.63759,52.14458 H 537.34163 L 508.2955,922.43691 473.20592,879.11186 373.01721,833.34372 H 321.3202 l 9.4e-4,-209.27267 z"
     sodipodi:nodetypes="ccccccccccccccccccccccccccccccccccc" /><path
     id="path3114"
     style="fill:#4e9591;fill-opacity:1;stroke:#000000;stroke-width:1.19122;stroke-linejoin:round;stroke-miterlimit:10;stroke-dasharray:9.52976, 2.38244, 1.19122, 2.38244;stroke-opacity:1"
     d="m 910.78941,328.42055 43.36009,-63.94653 h 52.2991 V 1013.1328 H 859.36106 L 862.4214,998.56531 849.88688,973.57198 740.05796,962.1449 682.8439,843.28272 l 0.84402,-66.72664 18.45238,-65.41966 -9.00355,-145.79887 26.77887,-12.04338 93.4242,-170.34873 83.4027,7.04189 z"
     sodipodi:nodetypes="cccccccccccccccc" /><path
     id="path3112"
     style="fill:#6aaaa4;fill-opacity:1;stroke:#000000;stroke-width:1.19122;stroke-linejoin:round;stroke-miterlimit:10;stroke-dasharray:9.52976, 2.38244, 1.19122, 2.38244;stroke-opacity:1"
     d="m 929.26368,341.83987 77.18492,-61.32209 V 1013.1328 H 876.42887 l 17.60023,-17.39171 -2.76842,-12.73816 -30.36849,-23.03459 -110.90989,-6.09748 -42.14571,-118.03704 -8.13228,-92.47677 17.98588,-15.62237 -2.6778,-139.07704 53.0622,-92.50896 72.62185,-123.40669 z"
     sodipodi:nodetypes="ccccccccccccccc" /><path
     id="path3056"
     style="fill:#2d7778;fill-opacity:1;stroke:#000000;stroke-width:1.19122;stroke-linejoin:round;stroke-miterlimit:10;stroke-dasharray:9.52976, 2.38244, 1.19122, 2.38244;stroke-opacity:1"
     d="m 321.32046,1076.9125 -1.3e-4,-32.1344 32.92377,-13.233 43.69824,2.8852 63.69587,26.5273 50.329,52.4792 20.11986,11.8251 51.23206,65.8522 54.68186,44.3652 -3.1e-4,151.8986 h -316.6779 z"
     sodipodi:nodetypes="cccccccccccc" /><path
     id="path3027"
     style="fill:#48908d;fill-opacity:1;stroke:#000000;stroke-width:1.19122;stroke-linejoin:round;stroke-miterlimit:10;stroke-dasharray:9.52976, 2.38244, 1.19122, 2.38244;stroke-opacity:1"
     d="m 321.32046,1076.9125 24.90908,-24.6191 46.69366,0.8335 71.89999,36.5747 47.14402,58.0218 21.38167,-2.6108 38.57891,66.0716 66.07314,52.9489 -2.5e-4,123.2448 h -316.6779 z"
     sodipodi:nodetypes="ccccccccccc" /><path
     id="path2903"
     style="fill:#509692;fill-opacity:1;stroke:#000000;stroke-width:1.19122;stroke-linejoin:round;stroke-miterlimit:10;stroke-dasharray:9.52976, 2.38244, 1.19122, 2.38244;stroke-opacity:1"
     d="m 1045.9802,371.06054 -39.5316,34.50085 V 53.285515 h 219.0984 l 5e-4,286.473395 -104.2996,-3.46736 -48.9468,37.57209 -11.9049,-6.0086 z"
     sodipodi:nodetypes="ccccccccc" /><path
     id="path2901"
     style="fill:#3a8382;fill-opacity:1;stroke:#000000;stroke-width:1.19122;stroke-linejoin:round;stroke-miterlimit:10;stroke-dasharray:9.52976, 2.38244, 1.19122, 2.38244;stroke-opacity:1"
     d="m 1056.7929,357.81459 -50.3443,5.1856 V 53.285515 h 219.0984 l 5e-4,278.910035 -109.9002,-5.27494 -30.6639,17.82627 z"
     sodipodi:nodetypes="cccccccc" /><path
     id="path2899"
     style="fill:#317b7b;fill-opacity:1;stroke:#000000;stroke-width:1.19122;stroke-linejoin:round;stroke-miterlimit:10;stroke-dasharray:9.52976, 2.38244, 1.19122, 2.38244;stroke-opacity:1"
     d="m 1058.0787,344.32922 -51.6301,-18.66739 V 53.285515 h 219.0984 l 5e-4,263.423305 -123.8697,2.1e-4 z"
     sodipodi:nodetypes="ccccccc" /><path
     id="rect919-3-6-5-3-5"
     style="fill:#287274;fill-opacity:1;stroke:#000000;stroke-width:1.19122;stroke-linejoin:round;stroke-miterlimit:10;stroke-dasharray:9.52976, 2.38244, 1.19122, 2.38244;stroke-opacity:1"
     d="m 321.3217,53.285515 h 685.1269 V 264.47402 H 860.18681 l -5e-5,90.59367 L 800.00569,254.9663 711.6078,199.68393 667.77764,157.44115 624.85277,85.538625 610.34781,128.70425 h -22.5859 l -33.57192,156.23881 -46.413,0.81479 -17.22045,120.41932 35.747,9.9118 -38.84108,23.92208 -1.05586,15.31604 -44.53387,-6.58366 -30.07668,35.18619 -65.91227,-14.96097 -24.56239,13.69962 z"
     sodipodi:nodetypes="cccccccccccccccccccccc" /><path
     id="path2762"
     style="fill:#317b7b;fill-opacity:1;stroke:#000000;stroke-width:1.19122;stroke-linejoin:round;stroke-miterlimit:10;stroke-dasharray:9.52976, 2.38244, 1.19122, 2.38244;stroke-opacity:1"
     d="m 321.3202,416.0885 10e-4,-362.802985 h 121.59886 l -17.95813,27.367938 116.74692,49.704347 -9.04655,103.15321 -40.0993,1.92059 -32.69021,52.47357 -22.78141,128.1838 z"
     sodipodi:nodetypes="cccccccccc" /><path
     id="path2733"
     style="fill:#458d8b;fill-opacity:1;stroke:#000000;stroke-width:1.19122;stroke-linejoin:round;stroke-miterlimit:10;stroke-dasharray:9.52976, 2.38244, 1.19122, 2.38244;stroke-opacity:1"
     d="m 321.29451,296.77595 0.0266,-119.50698 22.22976,30.72964 97.1694,-44.07071 -18.32644,-47.3677 84.84863,38.96697 -2.44836,25.5159 -24.74208,13.52578 -13.50835,28.93756 -42.14587,71.49133 -12.42769,121.09123 -90.64999,9.9e-4 z"
     sodipodi:nodetypes="ccccccccccccc" /><path
     id="rect919-7"
     style="fill:#277173;fill-opacity:1;stroke:#000000;stroke-width:1.19122;stroke-linejoin:round;stroke-miterlimit:10;stroke-dasharray:9.52976, 2.38244, 1.19122, 2.38244;stroke-opacity:1"
     d="m 381.30243,660.42188 30.37146,53.36331 13.43689,62.72351 -103.79058,56.83502 z"
     sodipodi:nodetypes="ccccc" /><path
     id="rect919"
     style="fill:#2e7879;fill-opacity:1;stroke:#000000;stroke-width:1.19122;stroke-linejoin:round;stroke-miterlimit:10;stroke-dasharray:9.52976, 2.38244, 1.19122, 2.38244;stroke-opacity:1"
     d="m 379.36026,704.9896 14.49901,17.81968 8.34176,35.34841 -46.90549,24.32304 z"
     sodipodi:nodetypes="ccccc" /><path
     id="rect919-36"
     style="fill:#267173;fill-opacity:1;stroke:#000000;stroke-width:1.19122;stroke-linejoin:round;stroke-miterlimit:10;stroke-dasharray:9.52976, 2.38244, 1.19122, 2.38244;stroke-opacity:1"
     d="m 735.80749,341.31402 64.74863,-0.37044 0.15217,26.59911 -47.10639,109.21739 -38.96197,65.11398 -42.24401,11.59942 7.65003,104.76044 v 64.61935 l -6.16865,71.38667 -7.82182,-111.80868 -11.2259,-37.51097 -13.86105,-75.81406 6.87595,-55.70407 77.98285,-6.45277 56.01139,-137.61374 z"
     sodipodi:nodetypes="cccccccccccccccc" /><path
     id="rect919-97"
     style="fill:#267173;fill-opacity:1;stroke:#000000;stroke-width:1.19122;stroke-linejoin:round;stroke-miterlimit:10;stroke-dasharray:9.52976, 2.38244, 1.19122, 2.38244;stroke-opacity:1"
     d="m 794.97241,967.85843 54.91447,5.71355 -36.55204,14.6842 -25.42346,1.95437 -20.68801,22.92235 h -41.58074 l 32.81741,-32.98793 z"
     sodipodi:nodetypes="cccccccc" /><path
     id="rect919-28"
     style="fill:#3d8685;fill-opacity:1;stroke:#000000;stroke-width:1.19122;stroke-linejoin:round;stroke-miterlimit:10;stroke-dasharray:9.52976, 2.38244, 1.19122, 2.38244;stroke-opacity:1"
     d="m 813.33484,988.25618 36.55204,-14.6842 12.53452,24.99333 -3.06034,14.56749 h -92.13769 l 20.68801,-22.92225 z"
     sodipodi:nodetypes="ccccccc" /><path
     id="rect919-92"
     style="fill:#3d8685;fill-opacity:1;stroke:#000000;stroke-width:1.19122;stroke-linejoin:round;stroke-miterlimit:10;stroke-dasharray:9.52976, 2.38244, 1.19122, 2.38244;stroke-opacity:1"
     d="m 800.55612,340.94358 50.96392,-0.29157 8.66672,14.41568 -1e-5,10.87391 -19.49031,6.80039 -7.01518,11.92093 -20.34144,-1.71748 -93.4242,170.34873 -26.77887,12.04338 9.00355,145.79887 -18.45238,65.41966 -0.84402,66.72664 -8.9666,-49.04278 6.16865,-71.38674 -7.25737,-151.15459 -0.39266,-18.22513 42.24401,-11.59942 38.96197,-65.11398 47.10639,-109.21739 z"
     sodipodi:nodetypes="cccccccccccccccccccc" /><path
     id="rect919-5"
     style="fill:#1c676b;fill-opacity:1;stroke:#000000;stroke-width:1.19122;stroke-linejoin:round;stroke-miterlimit:10;stroke-dasharray:9.52976, 2.38244, 1.19122, 2.38244;stroke-opacity:1"
     d="m 638.00141,1013.1328 h 46.84414 0.1418 l -46.986,30.726 z"
     sodipodi:nodetypes="ccccc" /><path
     id="rect919-37"
     style="fill:#145e64;fill-opacity:1;stroke:#000000;stroke-width:1.19122;stroke-linejoin:round;stroke-miterlimit:10;stroke-dasharray:9.52976, 2.38244, 1.19122, 2.38244;stroke-opacity:1"
     d="m 429.3309,923.23831 53.18031,61.93545 54.83042,27.95904 34.23643,25.57 16.82682,18.772 28.37343,13.6398 21.22299,1.8178 -5e-5,23.3543 -28.34564,-3.8525 -66.13366,-37.8529 -44.70192,-3.609 -35.59688,-37.8395 z"
     sodipodi:nodetypes="ccccccccccccc" /><path
     id="rect919-2"
     style="fill:#267072;fill-opacity:1;stroke:#000000;stroke-width:1.19122;stroke-linejoin:round;stroke-miterlimit:10;stroke-dasharray:9.52976, 2.38244, 1.19122, 2.38244;stroke-opacity:1"
     d="m 347.1687,833.34372 h 25.84851 l 100.18871,45.76814 35.08958,43.32505 29.04613,90.69589 -54.83042,-27.95904 -53.1803,-61.93545 -41.71886,-49.58911 -27.27845,-9.34834 z"
     sodipodi:nodetypes="cccccccccc" /><path
     id="rect919-79"
     style="fill:#317b7b;fill-opacity:1;stroke:#000000;stroke-width:1.19122;stroke-linejoin:round;stroke-miterlimit:10;stroke-dasharray:9.52976, 2.38244, 1.19122, 2.38244;stroke-opacity:1"
     d="m 321.3202,977.55779 53.13868,-16.20774 17.81771,23.10114 5.6532,11.9725 12.68557,43.28461 -15.18407,-5.4437 -41.18719,-2.7195 -32.92377,13.233 z"
     sodipodi:nodetypes="ccccccccc" /><path
     id="rect919-79-2"
     style="fill:#186267;fill-opacity:1;stroke:#000000;stroke-width:1.19122;stroke-linejoin:round;stroke-miterlimit:10;stroke-dasharray:9.52976, 2.38244, 1.19122, 2.38244;stroke-opacity:1"
     d="m 638.00135,1043.8588 46.84422,-30.726 h 40.79706 l -37.54574,33.1569 -6.98995,44.3495 -16.32101,3.5343 -16.32102,3.5344 -10.46366,-1.4223 z"
     sodipodi:nodetypes="ccccccccc" /><path
     id="rect919-79-2-0"
     style="fill:#1c676b;fill-opacity:1;stroke:#000000;stroke-width:1.19122;stroke-linejoin:round;stroke-miterlimit:10;stroke-dasharray:9.52976, 2.38244, 1.19122, 2.38244;stroke-opacity:1"
     d="m 537.34163,1013.1328 h 50.32989 50.32989 l -7e-5,43.274 -4e-5,16.5256 -21.22299,-1.8178 -28.37343,-13.6398 -16.82682,-18.772 z"
     sodipodi:nodetypes="ccccccccc" /><path
     id="rect919-61"
     style="fill:#75b2ab;fill-opacity:1;stroke:#000000;stroke-width:1.19122;stroke-linejoin:round;stroke-miterlimit:10;stroke-dasharray:9.52976, 2.38244, 1.19122, 2.38244;stroke-opacity:1"
     d="m 933.31752,1013.1328 h 600.16468 v 374.2451 H 638.00068 l 4.4e-4,-221.5011 39.9031,-54.9155 10.19267,-64.6696 37.54574,-33.157 z"
     sodipodi:nodetypes="ccccccccc" /><path
     id="rect919-6"
     style="fill:#88c0b6;fill-opacity:1;stroke:#000000;stroke-width:1.19122;stroke-linejoin:round;stroke-miterlimit:10;stroke-dasharray:9.52976, 2.38244, 1.19122, 2.38244;stroke-opacity:1"
     d="m 931.01408,368.13314 75.43452,-27.85163 V 1013.1328 H 902.1972 l 10.69972,-14.60203 -4.03999,-26.26612 -41.23447,-25.47665 -113.36435,-1.91745 -41.94983,-201.5135 h 13.01309 L 744.5706,590.33 801.87845,447.92659 860.18674,382.55453 Z"
     sodipodi:nodetypes="cccccccccccccc" /><path
     id="rect919-9"
     style="fill:#8ac0b6;fill-opacity:1;stroke:#000000;stroke-width:1.19122;stroke-linejoin:round;stroke-miterlimit:10;stroke-dasharray:9.52976, 2.38244, 1.19122, 2.38244;stroke-opacity:1"
     d="m 321.32058,1106.6291 40.89776,-35.8376 30.30106,0.055 38.43511,29.7841 30.91355,55.9981 1.40932,42.1868 48.68983,42.4354 v -40.996 l 15.30758,-12.0665 28.75573,41.0163 81.97038,49.2014 -2.2e-4,108.9721 h -316.6779 z"
     sodipodi:nodetypes="cccccccccccccc" /><path
     id="rect919-70"
     style="fill:#196469;fill-opacity:1;stroke:#000000;stroke-width:1.19122;stroke-linejoin:round;stroke-miterlimit:10;stroke-dasharray:9.52976, 2.38244, 1.19122, 2.38244;stroke-opacity:1"
     d="m 451.09292,833.34372 h 46.90548 39.34323 v 69.14639 l -33.15234,-44.99278 z"
     sodipodi:nodetypes="cccccc" /><path
     id="rect919-3"
     style="fill:#337c7d;fill-opacity:1;stroke:#000000;stroke-width:1.19122;stroke-linejoin:round;stroke-miterlimit:10;stroke-dasharray:9.52976, 2.38244, 1.19122, 2.38244;stroke-opacity:1"
     d="m 750.3657,161.02049 71.16584,-81.621893 78.68497,46.820213 17.21274,36.53723 -84.08312,53.32708 z"
     sodipodi:nodetypes="cccccc" /><path
     id="rect919-3-93"
     style="fill:#337c7d;fill-opacity:1;stroke:#000000;stroke-width:1.19122;stroke-linejoin:round;stroke-miterlimit:10;stroke-dasharray:9.52976, 2.38244, 1.19122, 2.38244;stroke-opacity:1"
     d="m 1225.5477,416.08902 -7e-4,-362.803488 h 307.9352 V 1013.133 l -218.7543,-1e-4 H 1006.4486 V 405.56139 Z"
     sodipodi:nodetypes="cccccccc" /><path
     id="rect919-3-2"
     style="fill:#3d8685;fill-opacity:1;stroke:#000000;stroke-width:1.19122;stroke-linejoin:round;stroke-miterlimit:10;stroke-dasharray:9.52976, 2.38244, 1.19122, 2.38244;stroke-opacity:1"
     d="m 860.18675,365.9416 6e-5,-101.46758 h 93.96269 l -43.36009,63.94653 -4.92441,21.58337 z"
     sodipodi:nodetypes="cccccc" /><path
     id="rect919-3-1"
     style="fill:#97c8bd;fill-opacity:1;stroke:#000000;stroke-width:1.19122;stroke-linejoin:round;stroke-miterlimit:10;stroke-dasharray:9.52976, 2.38244, 1.19122, 2.38244;stroke-opacity:1"
     d="m 1006.4486,416.08897 v -10.52758 l 39.5316,-34.50085 14.416,-3.2055 11.9049,6.0086 48.9467,-37.57209 104.2997,3.46736 v 76.33006 h -52.0794 z"
     sodipodi:nodetypes="cccccccccc" /><path
     id="rect919-3-9"
     style="fill:#2b7576;fill-opacity:1;stroke:#000000;stroke-width:1.19122;stroke-linejoin:round;stroke-miterlimit:10;stroke-dasharray:9.52976, 2.38244, 1.19122, 2.38244;stroke-opacity:1"
     d="m 1051.1364,325.66183 -44.6878,-34.17741 V 53.285515 h 219.0984 l 4e-4,243.468515 -137.0469,4.8992 z"
     sodipodi:nodetypes="ccccccc" /><path
     id="rect919-3-62"
     style="fill:#246e71;fill-opacity:1;stroke:#000000;stroke-width:1.19122;stroke-linejoin:round;stroke-miterlimit:10;stroke-dasharray:9.52976, 2.38244, 1.19122, 2.38244;stroke-opacity:1"
     d="m 1034.175,234.31707 -27.7264,-59.18609 v -43.30761 l 28.7561,-37.412119 70.7709,2.451519 59.9326,64.24663 3.5849,20.38652 22.3071,-0.34598 15.7842,22.72047 -3.927,84.56168 -123.8066,-0.74073 -7.054,8.66981 -17.1321,-1.28391 -26.7841,-40.52232 z"
     sodipodi:nodetypes="ccccccccccccccc" /><path
     id="rect919-3-6"
     style="fill:#4e9591;fill-opacity:1;stroke:#000000;stroke-width:1.19122;stroke-linejoin:round;stroke-miterlimit:10;stroke-dasharray:9.52976, 2.38244, 1.19122, 2.38244;stroke-opacity:1"
     d="m 362.584,338.90362 0.0526,-76.65846 71.45427,-35.22304 -36.13091,51.77112 -12.69854,137.29573 h -22.71341 z"
     sodipodi:nodetypes="ccccccc" /><path
     id="rect919-3-6-5-3"
     style="fill:#317b7b;fill-opacity:1;stroke:#000000;stroke-width:1.19122;stroke-linejoin:round;stroke-miterlimit:10;stroke-dasharray:9.52976, 2.38244, 1.19122, 2.38244;stroke-opacity:1"
     d="m 321.3202,416.08897 h 115.77169 l -35.41116,44.17949 -54.1275,-8.20887 -26.23257,-10.14589 z"
     sodipodi:nodetypes="cccccc" /><path
     id="rect919-3-6-5"
     style="fill:#4e9591;fill-opacity:1;stroke:#000000;stroke-width:1.19122;stroke-linejoin:round;stroke-miterlimit:10;stroke-dasharray:9.52976, 2.38244, 1.19122, 2.38244;stroke-opacity:1"
     d="m 346.94434,416.08861 65.02582,2.5e-4 -14.90304,22.29641 -32.45319,-2.25361 z"
     sodipodi:nodetypes="ccccc" /><path
     id="rect919-3-8"
     style="fill:#125c63;fill-opacity:1;stroke:#000000;stroke-width:1.19122;stroke-linejoin:round;stroke-miterlimit:10;stroke-dasharray:9.52976, 2.38244, 1.19122, 2.38244;stroke-opacity:1"
     d="m 615.52205,432.37028 -5.6e-4,-92.29277 55.90564,32.65204 23.19639,32.24194 -45.54056,7.50623 z"
     sodipodi:nodetypes="cccccc" /><path
     id="rect919-7-2"
     style="fill:#125c63;fill-opacity:1;stroke:#000000;stroke-width:1.19122;stroke-linejoin:round;stroke-miterlimit:10;stroke-dasharray:9.52976, 2.38244, 1.19122, 2.38244;stroke-opacity:1"
     d="m 465.72981,579.17426 39.06432,7.75464 48.06944,64.06837 62.65832,26.16599 32.26174,23.63223 v 42.56156 h -17.69426 l -15.26176,95.66577 -77.48598,-5.6791 h -47.56634 l -42.38903,-74.67835 15.79171,-127.81253 z"
     sodipodi:nodetypes="ccccccccccccc" /><g
     class="infolayer"
     id="g5050"
     transform="translate(-234.18224,216.18588)"><g
       class="cbd0987a colorbar"
       transform="matrix(3.068604,0,0,-1.390921,965.2855,1185.6974)"
       id="g5046"><rect
         class="cbbg"
         x="-228"
         y="0"
         width="72.765625"
         height="980"
         style="fill:#000000;fill-opacity:0;stroke:#444444;stroke-width:0;stroke-opacity:1"
         id="rect4990" /><g
         class="cbfills"
         transform="translate(0,10)"
         id="g4994"><rect
           class="cbfill gradient_filled"
           x="-218"
           y="0"
           width="15"
           height="960"
           style="fill:url(#gadd7bd-cbd0987a)"
           id="rect4992" /></g><g
         class="cblines"
         transform="translate(0,10)"
         id="g4996" /><g
         class="cbtitleunshift"
         transform="translate(-228,-20)"
         id="g5042"><g
           class="cbtitle"
           id="g5040"><text
             class="ycbd0987atitle"
             x="10.45"
             y="43.5"
             text-anchor="start"
             style="font-weight:normal;font-size:14px;font-family:'Open Sans', verdana, arial, sans-serif;white-space:pre;opacity:1;fill:#2a3f5f"
             id="text5038"><tspan
               class="line"
               dy="0em"
               x="10.45"
               y="43.5"
               id="tspan5032"><tspan
                 style="font-weight:bold"
                 id="tspan5030" /></tspan><tspan
               class="line"
               dy="1.3em"
               x="10.45"
               y="43.5"
               id="tspan5034" /><tspan
               class="line"
               dy="2.5999999em"
               x="10.45"
               y="43.5"
               id="tspan5036" /></text></g></g><rect
         class="cboutline"
         x="-218"
         y="10"
         width="15"
         height="960"
         style="fill:none;stroke:#444444;stroke-width:0;stroke-opacity:1"
         id="rect5044" /></g><g
       class="g-gtitle"
       id="g5048" /><text
       xml:space="preserve"
       style="font-style:normal;font-weight:normal;font-size:40px;line-height:1.25;font-family:sans-serif;fill:#ffffff;fill-opacity:1;stroke:none"
       x="363.44812"
       y="-145.15115"
       id="text5243"><tspan
         sodipodi:role="line"
         id="tspan5241"
         x="363.44812"
         y="-145.15115"
         style="font-style:normal;font-variant:normal;font-weight:normal;font-stretch:normal;font-family:Roboto;-inkscape-font-specification:Roboto;fill:#ffffff;fill-opacity:1">3000</tspan></text><text
       xml:space="preserve"
       style="font-style:normal;font-weight:normal;font-size:40px;line-height:1.25;font-family:sans-serif;fill:#ffffff;fill-opacity:1;stroke:none"
       x="361.44446"
       y="305.46893"
       id="text5243-6"><tspan
         sodipodi:role="line"
         id="tspan5241-2"
         x="361.44446"
         y="305.46893"
         style="font-style:normal;font-variant:normal;font-weight:normal;font-stretch:normal;font-family:Roboto;-inkscape-font-specification:Roboto;fill:#ffffff;fill-opacity:1">2000</tspan></text><text
       xml:space="preserve"
       style="font-style:normal;font-weight:normal;font-size:40px;line-height:1.25;font-family:sans-serif;fill:#ffffff;fill-opacity:1;stroke:none"
       x="363.3418"
       y="759.66748"
       id="text5243-6-1"><tspan
         sodipodi:role="line"
         id="tspan5241-2-8"
         x="363.3418"
         y="759.66748"
         style="font-style:normal;font-variant:normal;font-weight:normal;font-stretch:normal;font-family:Roboto;-inkscape-font-specification:Roboto;fill:#ffffff;fill-opacity:1">1000</tspan></text><text
       xml:space="preserve"
       style="font-style:normal;font-weight:normal;font-size:40px;line-height:1.25;font-family:sans-serif;fill:#ffffff;fill-opacity:1;stroke:none"
       x="363.27496"
       y="898.95953"
       id="text5243-6-7"><tspan
         sodipodi:role="line"
         id="tspan5241-2-9"
         x="363.27496"
         y="898.95953"
         style="font-style:normal;font-variant:normal;font-weight:normal;font-stretch:normal;font-family:Roboto;-inkscape-font-specification:Roboto;fill:#ffffff;fill-opacity:1">700</tspan></text><text
       xml:space="preserve"
       style="font-style:normal;font-weight:normal;font-size:40px;line-height:1.25;font-family:sans-serif;fill:#ffffff;fill-opacity:1;stroke:none"
       x="363.02979"
       y="1042.267"
       id="text5243-6-2"><tspan
         sodipodi:role="line"
         id="tspan5241-2-0"
         x="363.02979"
         y="1042.267"
         style="font-style:normal;font-variant:normal;font-weight:normal;font-stretch:normal;font-family:Roboto;-inkscape-font-specification:Roboto;fill:#ffffff;fill-opacity:1">400</tspan></text><text
       xml:space="preserve"
       style="font-style:normal;font-weight:normal;font-size:40px;line-height:1.25;font-family:sans-serif;fill:#ffffff;fill-opacity:1;stroke:none"
       x="363.02979"
       y="1186.267"
       id="text4238"><tspan
         sodipodi:role="line"
         id="tspan4236"
         x="363.02979"
         y="1186.267"
         style="font-style:normal;font-variant:normal;font-weight:normal;font-stretch:normal;font-family:Roboto;-inkscape-font-specification:Roboto;fill:#ffffff;fill-opacity:1">60</tspan></text></g><path
     id="rect919-3-19"
     style="fill:#4e9591;fill-opacity:1;stroke:#000000;stroke-width:1.19122;stroke-linejoin:round;stroke-miterlimit:10;stroke-dasharray:9.52976, 2.38244, 1.19122, 2.38244;stroke-opacity:1"
     d="m 1075.8442,580.9029 -69.3956,-73.849 v -90.96488 h 219.0991 l -2e-4,-83.89347 46.6522,50.17305 2.1877,49.22361 -12.0985,132.48992 -81.6581,-10.33916 z"
     sodipodi:nodetypes="cccccccccc" /><g
     id="g144"
     style="fill:none;fill-opacity:1;stroke:#ffffff;stroke-width:7.35664536;stroke-dasharray:none;stroke-opacity:1"
     transform="matrix(1.1893473,0,0,1.1893473,89.95166,-143.05644)"><polygon
       points="194.53406,972.12093 354.82956,972.12093 354.82956,1286.7839 194.53532,1286.7852 "
       style="mix-blend-mode:normal;fill:none;fill-opacity:1;stroke:#ffffff;stroke-width:7.35664536;stroke-linecap:butt;stroke-linejoin:bevel;stroke-dasharray:none;stroke-opacity:1;paint-order:markers fill stroke"
       id="polygon4" /><polygon
       points="441.8982,470.12864 389.21511,470.12799 194.53406,470.12799 194.53532,165.0838 456.53787,165.0838 456.53787,228.49567 418.55755,228.49567 418.55755,386.48765 441.89758,386.487 "
       style="mix-blend-mode:normal;fill:none;fill-opacity:1;stroke:#ffffff;stroke-width:7.35664536;stroke-linecap:butt;stroke-linejoin:bevel;stroke-dasharray:none;stroke-opacity:1;paint-order:markers fill stroke"
       id="polygon6" /><polygon
       points="194.53532,540.93365 194.53406,470.12799 389.21511,470.12799 389.21511,540.93365 "
       style="mix-blend-mode:normal;fill:none;fill-opacity:1;stroke:#ffffff;stroke-width:7.35664536;stroke-linecap:butt;stroke-linejoin:bevel;stroke-dasharray:none;stroke-opacity:1;paint-order:markers fill stroke"
       id="polygon8" /><polygon
       points="354.82956,972.12093 376.16431,972.12093 460.79879,972.12093 460.79818,1286.7852 354.82956,1286.7839 "
       style="mix-blend-mode:normal;fill:none;fill-opacity:1;stroke:#ffffff;stroke-width:7.35664536;stroke-linecap:butt;stroke-linejoin:bevel;stroke-dasharray:none;stroke-opacity:1;paint-order:markers fill stroke"
       id="polygon10" /><polygon
       points="354.82956,972.12093 194.53406,972.12093 194.53406,820.95468 376.16431,820.95468 376.16431,972.12093 "
       style="mix-blend-mode:normal;fill:none;fill-opacity:1;stroke:#ffffff;stroke-width:7.35664536;stroke-linecap:butt;stroke-linejoin:bevel;stroke-dasharray:none;stroke-opacity:1;paint-order:markers fill stroke"
       id="polygon12" /><polygon
       points="389.21511,540.93365 389.21511,745.29413 376.16495,745.29406 376.16431,820.95468 194.53406,820.95468 194.53532,540.93365 "
       style="mix-blend-mode:normal;fill:none;fill-opacity:1;stroke:#ffffff;stroke-width:7.35664536;stroke-linecap:butt;stroke-linejoin:bevel;stroke-dasharray:none;stroke-opacity:1;paint-order:markers fill stroke"
       id="polygon14" /><polygon
       points="954.80606,470.12799 770.58819,470.12799 770.58819,342.65054 770.58819,165.0838 954.80549,165.0838 "
       style="mix-blend-mode:normal;fill:none;fill-opacity:1;stroke:#ffffff;stroke-width:7.35664536;stroke-linecap:butt;stroke-linejoin:bevel;stroke-dasharray:none;stroke-opacity:1;paint-order:markers fill stroke"
       id="polygon16" /><polygon
       points="460.79879,972.12093 709.09979,972.12093 1213.7179,972.12093 1213.7166,1286.7852 460.79818,1286.7852 "
       style="mix-blend-mode:normal;fill:none;fill-opacity:1;stroke:#ffffff;stroke-width:7.35664536;stroke-linecap:butt;stroke-linejoin:bevel;stroke-dasharray:none;stroke-opacity:1;paint-order:markers fill stroke"
       id="polygon18" /><polygon
       points="496.14972,673.72282 496.14972,745.29413 441.89758,745.29413 441.8982,673.72289 "
       style="mix-blend-mode:normal;fill:none;fill-opacity:1;stroke:#ffffff;stroke-width:7.35664536;stroke-linecap:butt;stroke-linejoin:bevel;stroke-dasharray:none;stroke-opacity:1;paint-order:markers fill stroke"
       id="polygon22" /><polygon
       points="496.14972,673.72282 550.40156,673.72289 550.40188,745.29413 496.14972,745.29413 "
       style="mix-blend-mode:normal;fill:none;fill-opacity:1;stroke:#ffffff;stroke-width:7.35664536;stroke-linecap:butt;stroke-linejoin:bevel;stroke-dasharray:none;stroke-opacity:1;paint-order:markers fill stroke"
       id="polygon24" /><polygon
       points="954.80606,470.12799 954.80549,165.0838 1213.7166,165.0838 1213.7179,972.12093 709.09979,972.12093 709.09979,872.01447 770.58819,872.01479 770.58819,470.12799 "
       style="mix-blend-mode:normal;fill:none;fill-opacity:1;stroke:#ffffff;stroke-width:7.35664536;stroke-linecap:butt;stroke-linejoin:bevel;stroke-dasharray:none;stroke-opacity:1;paint-order:markers fill stroke"
       id="polygon26" /><polygon
       points="550.40188,616.62938 647.61153,616.62873 647.61153,872.01447 709.09979,872.01447 709.09979,972.12093 460.79879,972.12093 376.16431,972.12093 376.16431,820.95468 376.16495,745.29406 389.21511,745.29413 389.21511,540.93365 389.21511,470.12799 441.8982,470.12864 441.8982,673.72289 441.89758,745.29413 496.14972,745.29413 550.40188,745.29413 550.40156,673.72289 "
       style="mix-blend-mode:normal;fill:none;fill-opacity:1;stroke:#ffffff;stroke-width:7.35664536;stroke-linecap:butt;stroke-linejoin:bevel;stroke-dasharray:none;stroke-opacity:1;paint-order:markers fill stroke"
       id="polygon28" /><polygon
       points="418.55755,228.49567 456.53787,228.49567 456.53787,165.0838 770.58819,165.0838 770.58819,342.65054 647.61168,342.65054 647.61153,616.62873 550.40188,616.62938 550.40156,673.72289 496.14972,673.72282 441.8982,673.72289 441.8982,470.12864 441.89758,386.487 418.55755,386.48765 "
       style="mix-blend-mode:normal;fill:none;fill-opacity:1;stroke:#ffffff;stroke-width:7.35664536;stroke-linecap:butt;stroke-linejoin:bevel;stroke-dasharray:none;stroke-opacity:1;paint-order:markers fill stroke"
       id="polygon30" /><polygon
       points="770.58819,470.12799 770.58819,872.01479 709.09979,872.01447 647.61153,872.01447 647.61153,616.62873 647.61168,342.65054 770.58819,342.65054 "
       style="mix-blend-mode:normal;fill:none;fill-opacity:1;stroke:#ffffff;stroke-width:7.35664536;stroke-linecap:butt;stroke-linejoin:bevel;stroke-dasharray:none;stroke-opacity:1;paint-order:markers fill stroke"
       id="polygon32" /></g></svg>
