<?xml version="1.0" encoding="UTF-8"?>
<svg id="svg204" width="422.27mm" height="383.37mm" version="1.1" xml:space="preserve" xmlns="http://www.w3.org/2000/svg"><defs id="defs2"><linearGradient id="gadd7bd-cbd0987a" x1="-1744" x2="-1744" y1="120" gradientTransform="scale(.125 8)" gradientUnits="userSpaceOnUse"><stop id="stop4810" stop-color="#e4f1e1" offset="0"/><stop id="stop4812" stop-color="#b4d9cc" offset=".16667"/><stop id="stop4814" stop-color="#89c0b6" offset=".33333"/><stop id="stop4816" stop-color="#63a6a0" offset=".5"/><stop id="stop4818" stop-color="#448c8a" offset=".66667"/><stop id="stop4820" stop-color="#287274" offset=".83333"/><stop id="stop4822" stop-color="#0d585f" offset="1"/></linearGradient></defs><path id="rect919-1" d="m623.02 515.46 24.822-2.0539-6.876 55.704 13.861 75.814 11.226 37.511 7.8218 111.81 8.9666 49.043 57.214 118.86 54.914 5.7135-36.512 12.288-32.816 32.987h-52.46l44.638-52.144-50.324-72.135-35.242-77.708 15.529-49.479 7.8891-69.282-26.299-34.151z" fill="#1c676b" stroke="#000" stroke-dasharray="9.52976, 2.38244, 1.19122, 2.38244" stroke-linejoin="round" stroke-miterlimit="10" stroke-width="1.1912"/><path id="path3228" d="m321.32 833.34h25.848l13.165 30.957 27.278 9.3483 41.719 49.589 33.892 89.894 35.597 37.84 44.702 3.609 66.134 37.853 38.809 5.2755 32.642-7.0688-3.2027 20.32-39.903 54.916-1.3e-4 69.602-54.682-44.365-51.232-65.852-20.12-11.825-50.329-52.479-17.832-7.4264-48.375-19.267-41.187-2.7195-32.924 13.233z" fill="#277173" stroke="#000" stroke-dasharray="9.52976, 2.38244, 1.19122, 2.38244" stroke-linejoin="round" stroke-miterlimit="10" stroke-width="1.1912"/><path id="path3226" d="m321.32 910.24 22.415-10.371 34.967 13.386 26.25 25.701 27.175 64.244 11.679 50.336-48.375-19.267-41.187-2.7195-32.924 13.233z" fill="#2f797a" stroke="#000" stroke-dasharray="9.52976, 2.38244, 1.19122, 2.38244" stroke-linejoin="round" stroke-miterlimit="10" stroke-width="1.1912"/><path id="path3170" d="m321.32 482.67 24.562-13.7 65.912 14.961 30.077-35.186 44.534 6.5837 1.0559-15.316 38.841-23.922-35.747-9.9118 17.22-120.42 46.413-0.81479 33.572-156.24h22.586l14.505-43.166 42.925 71.903 43.83 42.243 88.398 55.282 51.514 85.686-115.71 0.66201 46.031 28.022-56.011 137.61-102.81 8.5067 6.351 142.78 26.299 34.151-7.8891 69.282-15.529 49.479 35.242 77.708 50.324 72.135-44.638 52.145h-135.84l-29.046-90.696-35.09-43.325-100.19-45.768h-51.697l9.4e-4 -209.27z" fill="#206a6d" stroke="#000" stroke-dasharray="9.52976, 2.38244, 1.19122, 2.38244" stroke-linejoin="round" stroke-miterlimit="10" stroke-width="1.1912"/><path id="path3114" d="m910.79 328.42 43.36-63.947h52.299v748.66h-147.09l3.0603-14.567-12.535-24.993-109.83-11.427-57.214-118.86 0.84402-66.727 18.452-65.42-9.0036-145.8 26.779-12.043 93.424-170.35 83.403 7.0419z" fill="#4e9591" stroke="#000" stroke-dasharray="9.52976, 2.38244, 1.19122, 2.38244" stroke-linejoin="round" stroke-miterlimit="10" stroke-width="1.1912"/><path id="path3112" d="m929.26 341.84 77.185-61.322v732.62h-130.02l17.6-17.392-2.7684-12.738-30.368-23.035-110.91-6.0975-42.146-118.04-8.1323-92.477 17.986-15.622-2.6778-139.08 53.062-92.509 72.622-123.41z" fill="#6aaaa4" stroke="#000" stroke-dasharray="9.52976, 2.38244, 1.19122, 2.38244" stroke-linejoin="round" stroke-miterlimit="10" stroke-width="1.1912"/><path id="path3056" d="m321.32 1076.9-1.3e-4 -32.134 32.924-13.233 43.698 2.8852 63.696 26.527 50.329 52.479 20.12 11.825 51.232 65.852 54.682 44.365-3.1e-4 151.9h-316.68z" fill="#2d7778" stroke="#000" stroke-dasharray="9.52976, 2.38244, 1.19122, 2.38244" stroke-linejoin="round" stroke-miterlimit="10" stroke-width="1.1912"/><path id="path3027" d="m321.32 1076.9 24.909-24.619 46.694 0.8335 71.9 36.575 47.144 58.022 21.382-2.6108 38.579 66.072 66.073 52.949-2.5e-4 123.24h-316.68z" fill="#48908d" stroke="#000" stroke-dasharray="9.52976, 2.38244, 1.19122, 2.38244" stroke-linejoin="round" stroke-miterlimit="10" stroke-width="1.1912"/><path id="path2903" d="m1046 371.06-39.532 34.501v-352.28h219.1l5e-4 286.47-104.3-3.4674-48.947 37.572-11.905-6.0086z" fill="#509692" stroke="#000" stroke-dasharray="9.52976, 2.38244, 1.19122, 2.38244" stroke-linejoin="round" stroke-miterlimit="10" stroke-width="1.1912"/><path id="path2901" d="m1056.8 357.81-50.344 5.1856v-309.71h219.1l5e-4 278.91-109.9-5.2749-30.664 17.826z" fill="#3a8382" stroke="#000" stroke-dasharray="9.52976, 2.38244, 1.19122, 2.38244" stroke-linejoin="round" stroke-miterlimit="10" stroke-width="1.1912"/><path id="path2899" d="m1058.1 344.33-51.63-18.667v-272.38h219.1l5e-4 263.42-123.87 2.1e-4z" fill="#317b7b" stroke="#000" stroke-dasharray="9.52976, 2.38244, 1.19122, 2.38244" stroke-linejoin="round" stroke-miterlimit="10" stroke-width="1.1912"/><path id="rect919-3-6-5-3-5" d="m321.32 53.286h685.13v211.19h-146.26l-5e-5 90.594-60.181-100.1-88.398-55.282-43.83-42.243-42.925-71.903-14.505 43.166h-22.586l-33.572 156.24-46.413 0.81479-17.22 120.42 35.747 9.9118-38.841 23.922-1.0559 15.316-44.534-6.5837-30.077 35.186-65.912-14.961-24.562 13.7z" fill="#287274" stroke="#000" stroke-dasharray="9.52976, 2.38244, 1.19122, 2.38244" stroke-linejoin="round" stroke-miterlimit="10" stroke-width="1.1912"/><path id="path2762" d="m321.32 416.09 1e-3 -362.8h121.6l-17.958 27.368 116.75 49.704-9.0466 103.15-40.099 1.9206-32.69 52.474-22.781 128.18z" fill="#317b7b" stroke="#000" stroke-dasharray="9.52976, 2.38244, 1.19122, 2.38244" stroke-linejoin="round" stroke-miterlimit="10" stroke-width="1.1912"/><path id="path2733" d="m321.29 296.78 0.0266-119.51 22.23 30.73 97.169-44.071-18.326-47.368 84.849 38.967-2.4484 25.516-24.742 13.526-13.508 28.938-42.146 71.491-12.428 121.09-90.65 9.9e-4z" fill="#458d8b" stroke="#000" stroke-dasharray="9.52976, 2.38244, 1.19122, 2.38244" stroke-linejoin="round" stroke-miterlimit="10" stroke-width="1.1912"/><path id="rect919-7" d="m381.3 660.42 30.371 53.363 13.437 62.724-103.79 56.835z" fill="#277173" stroke="#000" stroke-dasharray="9.52976, 2.38244, 1.19122, 2.38244" stroke-linejoin="round" stroke-miterlimit="10" stroke-width="1.1912"/><path id="rect919" d="m379.36 704.99 14.499 17.82 8.3418 35.348-46.905 24.323z" fill="#2e7879" stroke="#000" stroke-dasharray="9.52976, 2.38244, 1.19122, 2.38244" stroke-linejoin="round" stroke-miterlimit="10" stroke-width="1.1912"/><path id="rect919-36" d="m735.81 341.31 64.749-0.37044 0.15217 26.599-47.106 109.22-38.962 65.114-42.244 11.599 7.65 104.76v64.619l-6.1686 71.387-7.8218-111.81-11.226-37.511-13.861-75.814 6.876-55.704 77.983-6.4528 56.011-137.61z" fill="#267173" stroke="#000" stroke-dasharray="9.52976, 2.38244, 1.19122, 2.38244" stroke-linejoin="round" stroke-miterlimit="10" stroke-width="1.1912"/><path id="rect919-97" d="m794.97 967.86 54.914 5.7136-36.552 14.684-25.423 1.9544-20.688 22.922h-41.581l32.817-32.988z" fill="#267173" stroke="#000" stroke-dasharray="9.52976, 2.38244, 1.19122, 2.38244" stroke-linejoin="round" stroke-miterlimit="10" stroke-width="1.1912"/><path id="rect919-28" d="m813.33 988.26 36.552-14.684 12.535 24.993-3.0603 14.567h-92.138l20.688-22.922z" fill="#3d8685" stroke="#000" stroke-dasharray="9.52976, 2.38244, 1.19122, 2.38244" stroke-linejoin="round" stroke-miterlimit="10" stroke-width="1.1912"/><path id="rect919-92" d="m800.56 340.94 50.964-0.29157 8.6667 14.416-1e-5 10.874-19.49 6.8004-7.0152 11.921-20.341-1.7175-93.424 170.35-26.779 12.043 9.0036 145.8-18.452 65.42-0.84402 66.727-8.9666-49.043 6.1686-71.387-7.2574-151.15-0.39266-18.225 42.244-11.599 38.962-65.114 47.106-109.22z" fill="#3d8685" stroke="#000" stroke-dasharray="9.52976, 2.38244, 1.19122, 2.38244" stroke-linejoin="round" stroke-miterlimit="10" stroke-width="1.1912"/><path id="rect919-5" d="m638 1013.1h46.986l-46.986 30.726z" fill="#1c676b" stroke="#000" stroke-dasharray="9.52976, 2.38244, 1.19122, 2.38244" stroke-linejoin="round" stroke-miterlimit="10" stroke-width="1.1912"/><path id="rect919-37" d="m429.33 923.24 53.18 61.935 54.83 27.959 34.236 25.57 16.827 18.772 28.373 13.64 21.223 1.8178-5e-5 23.354-28.346-3.8525-66.134-37.853-44.702-3.609-35.597-37.84z" fill="#145e64" stroke="#000" stroke-dasharray="9.52976, 2.38244, 1.19122, 2.38244" stroke-linejoin="round" stroke-miterlimit="10" stroke-width="1.1912"/><path id="rect919-2" d="m347.17 833.34h25.849l100.19 45.768 35.09 43.325 29.046 90.696-54.83-27.959-53.18-61.935-41.719-49.589-27.278-9.3483z" fill="#267072" stroke="#000" stroke-dasharray="9.52976, 2.38244, 1.19122, 2.38244" stroke-linejoin="round" stroke-miterlimit="10" stroke-width="1.1912"/><path id="rect919-79" d="m321.32 977.56 53.139-16.208 17.818 23.101 5.6532 11.972 12.686 43.285-15.184-5.4437-41.187-2.7195-32.924 13.233z" fill="#317b7b" stroke="#000" stroke-dasharray="9.52976, 2.38244, 1.19122, 2.38244" stroke-linejoin="round" stroke-miterlimit="10" stroke-width="1.1912"/><path id="rect919-79-2" d="m638 1043.9 46.844-30.726h40.797l-37.546 33.157-6.99 44.35-32.642 7.0687-10.464-1.4223z" fill="#186267" stroke="#000" stroke-dasharray="9.52976, 2.38244, 1.19122, 2.38244" stroke-linejoin="round" stroke-miterlimit="10" stroke-width="1.1912"/><path id="rect919-79-2-0" d="m537.34 1013.1h100.66l-7e-5 43.274-4e-5 16.526-21.223-1.8178-28.373-13.64-16.827-18.772z" fill="#1c676b" stroke="#000" stroke-dasharray="9.52976, 2.38244, 1.19122, 2.38244" stroke-linejoin="round" stroke-miterlimit="10" stroke-width="1.1912"/><path id="rect919-61" d="m933.32 1013.1h600.16v374.25h-895.48l4.4e-4 -221.5 39.903-54.916 10.193-64.67 37.546-33.157z" fill="#75b2ab" stroke="#000" stroke-dasharray="9.52976, 2.38244, 1.19122, 2.38244" stroke-linejoin="round" stroke-miterlimit="10" stroke-width="1.1912"/><path id="rect919-6" d="m931.01 368.13 75.435-27.852v672.85h-104.25l10.7-14.602-4.04-26.266-41.234-25.477-113.36-1.9174-41.95-201.51h13.013l19.249-153.03 57.308-142.4 58.308-65.372z" fill="#88c0b6" stroke="#000" stroke-dasharray="9.52976, 2.38244, 1.19122, 2.38244" stroke-linejoin="round" stroke-miterlimit="10" stroke-width="1.1912"/><path id="rect919-9" d="m321.32 1106.6 40.898-35.838 30.301 0.055 38.435 29.784 30.914 55.998 1.4093 42.187 48.69 42.435v-40.996l15.308-12.066 28.756 41.016 81.97 49.201-2.2e-4 108.97h-316.68z" fill="#8ac0b6" stroke="#000" stroke-dasharray="9.52976, 2.38244, 1.19122, 2.38244" stroke-linejoin="round" stroke-miterlimit="10" stroke-width="1.1912"/><path id="rect919-70" d="m451.09 833.34h86.249v69.146l-33.152-44.993z" fill="#196469" stroke="#000" stroke-dasharray="9.52976, 2.38244, 1.19122, 2.38244" stroke-linejoin="round" stroke-miterlimit="10" stroke-width="1.1912"/><path id="rect919-3" d="m750.37 161.02 71.166-81.622 78.685 46.82 17.213 36.537-84.083 53.327z" fill="#337c7d" stroke="#000" stroke-dasharray="9.52976, 2.38244, 1.19122, 2.38244" stroke-linejoin="round" stroke-miterlimit="10" stroke-width="1.1912"/><path id="rect919-3-93" d="m1225.5 416.09-7e-4 -362.8h307.94v959.85l-218.75-1e-4h-308.28v-607.57z" fill="#337c7d" stroke="#000" stroke-dasharray="9.52976, 2.38244, 1.19122, 2.38244" stroke-linejoin="round" stroke-miterlimit="10" stroke-width="1.1912"/><path id="rect919-3-2" d="m860.19 365.94 6e-5 -101.47h93.963l-43.36 63.947-4.9244 21.583z" fill="#3d8685" stroke="#000" stroke-dasharray="9.52976, 2.38244, 1.19122, 2.38244" stroke-linejoin="round" stroke-miterlimit="10" stroke-width="1.1912"/><path id="rect919-3-1" d="m1006.4 416.09v-10.528l39.532-34.501 14.416-3.2055 11.905 6.0086 48.947-37.572 104.3 3.4674v76.33h-52.079z" fill="#97c8bd" stroke="#000" stroke-dasharray="9.52976, 2.38244, 1.19122, 2.38244" stroke-linejoin="round" stroke-miterlimit="10" stroke-width="1.1912"/><path id="rect919-3-9" d="m1051.1 325.66-44.688-34.177v-238.2h219.1l4e-4 243.47-137.05 4.8992z" fill="#2b7576" stroke="#000" stroke-dasharray="9.52976, 2.38244, 1.19122, 2.38244" stroke-linejoin="round" stroke-miterlimit="10" stroke-width="1.1912"/><path id="rect919-3-62" d="m1034.2 234.32-27.726-59.186v-43.308l28.756-37.412 70.771 2.4515 59.933 64.247 3.5849 20.387 22.307-0.34598 15.784 22.72-3.927 84.562-123.81-0.74073-7.054 8.6698-17.132-1.2839-26.784-40.522z" fill="#246e71" stroke="#000" stroke-dasharray="9.52976, 2.38244, 1.19122, 2.38244" stroke-linejoin="round" stroke-miterlimit="10" stroke-width="1.1912"/><path id="rect919-3-6" d="m362.58 338.9 0.0526-76.658 71.454-35.223-36.131 51.771-12.699 137.3h-22.713z" fill="#4e9591" stroke="#000" stroke-dasharray="9.52976, 2.38244, 1.19122, 2.38244" stroke-linejoin="round" stroke-miterlimit="10" stroke-width="1.1912"/><path id="rect919-3-6-5-3" d="m321.32 416.09h115.77l-35.411 44.179-54.128-8.2089-26.233-10.146z" fill="#317b7b" stroke="#000" stroke-dasharray="9.52976, 2.38244, 1.19122, 2.38244" stroke-linejoin="round" stroke-miterlimit="10" stroke-width="1.1912"/><path id="rect919-3-6-5" d="m346.94 416.09 65.026 2.5e-4 -14.903 22.296-32.453-2.2536z" fill="#4e9591" stroke="#000" stroke-dasharray="9.52976, 2.38244, 1.19122, 2.38244" stroke-linejoin="round" stroke-miterlimit="10" stroke-width="1.1912"/><path id="rect919-3-8" d="m615.52 432.37-5.6e-4 -92.293 55.906 32.652 23.196 32.242-45.541 7.5062z" fill="#125c63" stroke="#000" stroke-dasharray="9.52976, 2.38244, 1.19122, 2.38244" stroke-linejoin="round" stroke-miterlimit="10" stroke-width="1.1912"/><path id="rect919-7-2" d="m465.73 579.17 39.064 7.7546 48.069 64.068 62.658 26.166 32.262 23.632v42.562h-17.694l-15.262 95.666-77.486-5.6791h-47.566l-42.389-74.678 15.792-127.81z" fill="#125c63" stroke="#000" stroke-dasharray="9.52976, 2.38244, 1.19122, 2.38244" stroke-linejoin="round" stroke-miterlimit="10" stroke-width="1.1912"/><g id="g5050" class="infolayer" transform="translate(-234.18 216.19)"><g id="g5046" class="cbd0987a colorbar" transform="matrix(3.0686 0 0 -1.3909 965.29 1185.7)"><rect id="rect4990" class="cbbg" x="-228" width="72.766" height="980" fill-opacity="0" stroke-width="0"/><g id="g4994" class="cbfills" transform="translate(0,10)"><rect id="rect4992" class="cbfill gradient_filled" x="-218" width="15" height="960" fill="url(#gadd7bd-cbd0987a)"/></g><g id="g5042" class="cbtitleunshift" transform="translate(-228,-20)"><g id="g5040" class="cbtitle"><text id="text5038" class="ycbd0987atitle" x="10.45" y="43.5" fill="#2a3f5f" font-family="'Open Sans', verdana, arial, sans-serif" font-size="14px" style="white-space:pre"><tspan id="tspan5032" class="line" x="10.45" y="43.5" dy="0em"><tspan id="tspan5030" font-weight="bold"/></tspan><tspan id="tspan5034" class="line" x="10.45" y="43.5" dy="1.3em"/><tspan id="tspan5036" class="line" x="10.45" y="43.5" dy="2.5999999em"/></text></g></g><rect id="rect5044" class="cboutline" x="-218" y="10" width="15" height="960" fill="none" stroke-width="0"/></g><text id="text5243" x="363.44812" y="-145.15115" fill="#000000" font-family="sans-serif" font-size="40px" style="line-height:1.25" xml:space="preserve"><tspan id="tspan5241" x="363.44812" y="-145.15115" font-family="Roboto">3000</tspan></text><text id="text5243-6" x="361.44446" y="305.46893" fill="#000000" font-family="sans-serif" font-size="40px" style="line-height:1.25" xml:space="preserve"><tspan id="tspan5241-2" x="361.44446" y="305.46893" font-family="Roboto">2000</tspan></text><text id="text5243-6-1" x="363.3418" y="759.66748" fill="#000000" font-family="sans-serif" font-size="40px" style="line-height:1.25" xml:space="preserve"><tspan id="tspan5241-2-8" x="363.3418" y="759.66748" font-family="Roboto">1000</tspan></text><text id="text5243-6-7" x="363.27496" y="898.95953" fill="#000000" font-family="sans-serif" font-size="40px" style="line-height:1.25" xml:space="preserve"><tspan id="tspan5241-2-9" x="363.27496" y="898.95953" font-family="Roboto">700</tspan></text><text id="text5243-6-2" x="363.02979" y="1042.267" fill="#000000" font-family="sans-serif" font-size="40px" style="line-height:1.25" xml:space="preserve"><tspan id="tspan5241-2-0" x="363.02979" y="1042.267" font-family="Roboto">400</tspan></text><text id="text4238" x="363.02979" y="1186.267" fill="#000000" font-family="sans-serif" font-size="40px" style="line-height:1.25" xml:space="preserve"><tspan id="tspan4236" x="363.02979" y="1186.267" font-family="Roboto">60</tspan></text></g><path id="rect919-3-19" d="m1075.8 580.9-69.396-73.849v-90.965h219.1l-2e-4 -83.893 46.652 50.173 2.1877 49.224-12.098 132.49-81.658-10.339z" fill="#4e9591" stroke="#000" stroke-dasharray="9.52976, 2.38244, 1.19122, 2.38244" stroke-linejoin="round" stroke-miterlimit="10" stroke-width="1.1912"/><g id="g144" transform="matrix(1.1893 0 0 1.1893 89.952 -143.06)" fill="none" stroke="#fff" stroke-linejoin="bevel" stroke-width="7.3566"><polygon id="polygon4" points="194.53 972.12 354.83 972.12 354.83 1286.8 194.54 1286.8" style="mix-blend-mode:normal;paint-order:markers fill stroke"/><polygon id="polygon6" points="441.9 470.13 389.22 470.13 194.53 470.13 194.54 165.08 456.54 165.08 456.54 228.5 418.56 228.5 418.56 386.49 441.9 386.49" style="mix-blend-mode:normal;paint-order:markers fill stroke"/><polygon id="polygon8" points="194.54 540.93 194.53 470.13 389.22 470.13 389.22 540.93" style="mix-blend-mode:normal;paint-order:markers fill stroke"/><polygon id="polygon10" points="354.83 972.12 376.16 972.12 460.8 972.12 460.8 1286.8 354.83 1286.8" style="mix-blend-mode:normal;paint-order:markers fill stroke"/><polygon id="polygon12" points="354.83 972.12 194.53 972.12 194.53 820.95 376.16 820.95 376.16 972.12" style="mix-blend-mode:normal;paint-order:markers fill stroke"/><polygon id="polygon14" points="389.22 540.93 389.22 745.29 376.16 745.29 376.16 820.95 194.53 820.95 194.54 540.93" style="mix-blend-mode:normal;paint-order:markers fill stroke"/><polygon id="polygon16" points="954.81 470.13 770.59 470.13 770.59 342.65 770.59 165.08 954.81 165.08" style="mix-blend-mode:normal;paint-order:markers fill stroke"/><polygon id="polygon18" points="460.8 972.12 709.1 972.12 1213.7 972.12 1213.7 1286.8 460.8 1286.8" style="mix-blend-mode:normal;paint-order:markers fill stroke"/><polygon id="polygon22" points="496.15 673.72 496.15 745.29 441.9 745.29 441.9 673.72" style="mix-blend-mode:normal;paint-order:markers fill stroke"/><polygon id="polygon24" points="496.15 673.72 550.4 673.72 550.4 745.29 496.15 745.29" style="mix-blend-mode:normal;paint-order:markers fill stroke"/><polygon id="polygon26" points="954.81 470.13 954.81 165.08 1213.7 165.08 1213.7 972.12 709.1 972.12 709.1 872.01 770.59 872.01 770.59 470.13" style="mix-blend-mode:normal;paint-order:markers fill stroke"/><polygon id="polygon28" points="550.4 616.63 647.61 616.63 647.61 872.01 709.1 872.01 709.1 972.12 460.8 972.12 376.16 972.12 376.16 820.95 376.16 745.29 389.22 745.29 389.22 540.93 389.22 470.13 441.9 470.13 441.9 673.72 441.9 745.29 496.15 745.29 550.4 745.29 550.4 673.72" style="mix-blend-mode:normal;paint-order:markers fill stroke"/><polygon id="polygon30" points="418.56 228.5 456.54 228.5 456.54 165.08 770.59 165.08 770.59 342.65 647.61 342.65 647.61 616.63 550.4 616.63 550.4 673.72 496.15 673.72 441.9 673.72 441.9 470.13 441.9 386.49 418.56 386.49" style="mix-blend-mode:normal;paint-order:markers fill stroke"/><polygon id="polygon32" points="770.59 470.13 770.59 872.01 709.1 872.01 647.61 872.01 647.61 616.63 647.61 342.65 770.59 342.65" style="mix-blend-mode:normal;paint-order:markers fill stroke"/></g></svg>
