<?xml version="1.0" encoding="UTF-8"?>
<svg id="svg313" width="1216.7" height="527.52" version="1.1" viewBox="0 0 1216.7 527.52" xml:space="preserve" xmlns="http://www.w3.org/2000/svg"><desc id="desc2">topo.dxf - scale = 1.000000, origin = (0.000000, 0.000000), method = file</desc><g id="g307" stroke-linecap="round" stroke-width="2.328"><path id="rect1774" d="m730.47 265.25 47.962-9.7393v33.609h-40.434z" fill="#73e6c8" stroke-miterlimit="10"/><path id="rect1768" d="m164.66 81.246h96.22l-9.445 11.482 18.195 14.997-11.813 10.897-93.157-35.355z" fill="#73e6c8" stroke-miterlimit="10"/><path id="rect1770" d="m406.94 81.246h68.636l-38.739 36.911-29.767-20.137z" fill="#73e6c8" stroke-miterlimit="10"/><path id="rect1770-6" d="m452.36 443.26 12.871 47.9h-37.07-67.599l37.154-9.9513z" fill="#73e6c8" stroke-miterlimit="10"/><path id="rect1772" d="m658.89 253.23 85.228-29.51-104.11 133.17-62.16 1.3448-57.495-88.335 109.58-86.548 20.148 58.197z" fill="#73e6c8" stroke-miterlimit="10"/><path id="rect1776" d="m680.37 81.246h10.209l-7.4451 7.978-2.764-7.978z" fill="#73e6c8" stroke-miterlimit="10"/><path id="rect1778" d="m845.79 81.246h224.61l-37.069 8.1184-33.288 33.359-57.087-28.355-64.889 62.415-49.229 92.951 64.023 30.997 9.1122-0.13393-27.144 26.203-20.733 116.4 56.142 45.436 126.46 22.521h-571.5l80.772-21.634 20.29-27.695 14.5-12.253v25.657h88.78l4.6654-64.409 55.016-51.685 44.759 110.77 17.205 31.046 36.594-14.784-14.605-36.148 43.527-40.985-56.721-141.71-0.23583-23.291-55.62-0.3151 25.644-8.8793 33.526-26.365-1.2224-3.53 59.568-56.26z" fill="#73e6c8" stroke-miterlimit="10"/><path id="rect1780" d="m990.26 159.96 7.4395-14.479 3.5267 19.786-10.966-5.307z" fill="#73e6c8" stroke-miterlimit="10"/><path id="rect1780-3" d="m1125.4 81.246h18.142v27.203l-4.002-22.472-11.293 2.0112z" fill="#73e6c8" stroke-miterlimit="10"/><path id="rect1782" d="m1002.3 171.48 4.8053 26.956 36.384-6.4557 20.649-5.273 11.574 64.975-103.02-19.024z" fill="#73e6c8" stroke-miterlimit="10"/><path id="rect1784" d="m1138.4 287.41h5.0717v63.501l-20.888-3.7169 7.6547-6.8437z" fill="#73e6c8" stroke-miterlimit="10"/><path id="rect1786" d="m1046.1 439.32 97.38 17.347v34.496h-106.8z" fill="#73e6c8" stroke-miterlimit="10"/><path id="rect1247" d="m164.66 199.07 55.339 9.0675 98.762-26.463 18.268-18.418 123.04 101.45 11.978 1.0311-71.081 65.891-41.427 7.0471-7.0937 1.9012 5.4975-20.889-79.163-21.607-32.566 30.542-48.131 4.928-23.997 89.542 88.358 23.704 52.814-28.443 19.503 72.795h-170.1z" fill="#73e6c8" stroke-miterlimit="10"/><path id="path19" d="m618.78 342.78h55.419" fill="none" stroke="#000"/><path id="path21" d="m674.2 390.82v-48.048" fill="none" stroke="#000"/><path id="path23" d="m220 208.14 98.762-26.463" fill="none" stroke="#000"/><path id="path25" d="m773.97 449.91-67.821-167.85" fill="none" stroke="#000"/><path id="path27" d="m706.15 282.06 30.83-12.468" fill="none" stroke="#000"/><path id="path29" d="m566.25 441.83-28.372-105.9" fill="none" stroke="#000"/><path id="path31" d="m1082.1 287.34-17.926-100.63" fill="none" stroke="#000"/><path id="path33" d="m164.66 81.246v2.0205" fill="none" stroke="#000"/><path id="path35" d="m164.66 199.07v292.08" fill="none" stroke="#000"/><path id="path37" d="m164.66 491.16h170.1" fill="none" stroke="#000"/><path id="path39" d="m360.56 491.16h104.63" fill="none" stroke="#000"/><path id="path41" d="m465.23 491.16h571.47" fill="none" stroke="#000"/><path id="path43" d="m1036.9 491.16h106.61" fill="none" stroke="#000"/><path id="path45" d="m1143.5 81.246h-463.13" fill="none" stroke="#000"/><path id="path47" d="m637.04 81.246h-254.77" fill="none" stroke="#000"/><path id="path49" d="m260.88 81.246h-96.22" fill="none" stroke="#000"/><path id="path51" d="m1143.5 81.246v27.203" fill="none" stroke="#000"/><path id="path53" d="m1143.5 286.5v64.409" fill="none" stroke="#000"/><path id="path55" d="m1143.5 456.66v34.496" fill="none" stroke="#000"/><path id="path57" d="m442.4 324.59 9.5046 35.482" fill="none" stroke="#000"/><path id="path59" d="m305.31 137.13-139.22-54.257" fill="none" stroke="#000"/><path id="path61" d="m30.21 119.29 16.184 60.417" fill="none" stroke="#000"/><path id="path63" d="m46.394 179.71 135.88-36.418" fill="none" stroke="#000"/><path id="path65" d="m182.27 143.29-16.184-60.417" fill="none" stroke="#000"/><path id="path67" d="m318.76 181.68-136.49-38.389" fill="none" stroke="#000"/><path id="path69" d="m318.76 181.68-11.51-42.972" fill="none" stroke="#000"/><path id="path71" d="m537.93 271.42-77.859-6.7021" fill="none" stroke="#000"/><path id="path73" d="m460.07 264.72 52.883-64.163" fill="none" stroke="#000"/><path id="path75" d="m791.18 480.96 36.594-14.784" fill="none" stroke="#000"/><path id="path77" d="m773.97 449.91 17.205 31.046" fill="none" stroke="#000"/><path id="path79" d="m658.89 253.23 110.87-38.389" fill="none" stroke="#000"/><path id="path81" d="m674.2 390.82-4.6654 64.409" fill="none" stroke="#000"/><path id="path83" d="m580.75 455.23h88.78" fill="none" stroke="#000"/><path id="path85" d="m674.2 342.78-4.6654 35.482" fill="none" stroke="#000"/><path id="path87" d="m669.53 455.23v-76.976" fill="none" stroke="#000"/><path id="path89" d="m618.78 342.78-38.026 35.482" fill="none" stroke="#000"/><path id="path91" d="m669.53 378.26h-88.78" fill="none" stroke="#000"/><path id="path93" d="m512.62 345.04-80.77 21.683" fill="none" stroke="#000"/><path id="path95" d="m545.96 469.52-33.348-124.48" fill="none" stroke="#000"/><path id="path97" d="m566.25 441.83-20.29 27.695" fill="none" stroke="#000"/><path id="path99" d="m537.88 335.93-25.266 9.1168" fill="none" stroke="#000"/><path id="path101" d="m537.88 335.93-68.718 18.431" fill="none" stroke="#000"/><path id="path103" d="m658.89 253.23-8.804-11.679" fill="none" stroke="#000"/><path id="path105" d="m599.13 94.355 50.96 147.2" fill="none" stroke="#000"/><path id="path107" d="m874.83 306.8 62.904 7.4906" fill="none" stroke="#000"/><path id="path109" d="m854.1 423.2 56.142 45.436" fill="none" stroke="#000"/><path id="path111" d="m580.75 378.26v76.976" fill="none" stroke="#000"/><path id="path113" d="m198.09 333.56-23.997 89.542" fill="none" stroke="#000"/><path id="path115" d="m262.45 446.81 23.995-89.542" fill="none" stroke="#000"/><path id="path117" d="m286.44 357.26-88.356-23.704" fill="none" stroke="#000"/><path id="path119" d="m174.09 423.1 88.358 23.704" fill="none" stroke="#000"/><path id="path121" d="m304.17 430.59-41.729 16.213" fill="none" stroke="#000"/><path id="path123" d="m246.22 328.63-48.131 4.928" fill="none" stroke="#000"/><path id="path125" d="m298.97 354.9-12.526 2.3654" fill="none" stroke="#000"/><path id="path127" d="m321.66 348.84-75.447-20.205" fill="none" stroke="#000"/><path id="path129" d="m304.17 430.59 7.1796-26.808" fill="none" stroke="#000"/><path id="path131" d="m871.89 160.78 51.333-33.264" fill="none" stroke="#000"/><path id="path133" d="m923.23 127.52-54.692 113" fill="none" stroke="#000"/><path id="path135" d="m868.53 240.52 81.325 39.375" fill="none" stroke="#000"/><path id="path137" d="m1185 358.3-18.258 102.5" fill="none" stroke="#000"/><path id="path139" d="m828.84 249.73 64.023 30.997" fill="none" stroke="#000"/><path id="path141" d="m892.86 280.73 56.999-0.83776" fill="none" stroke="#000"/><path id="path143" d="m828.84 249.73 39.697-9.2154" fill="none" stroke="#000"/><path id="path145" d="m871.89 160.78-43.056 88.951" fill="none" stroke="#000"/><path id="path147" d="m827.77 466.17-80.501-199.24" fill="none" stroke="#000"/><path id="path149" d="m710.68 281.72 80.501 199.24" fill="none" stroke="#000"/><path id="path151" d="m747.27 266.93-36.594 14.784" fill="none" stroke="#000"/><path id="path153" d="m706.15 282.06 4.525-0.34496" fill="none" stroke="#000"/><path id="path155" d="m736.98 269.59 10.289-2.6611" fill="none" stroke="#000"/><path id="path157" d="m994.18 125.7 42.106-21.338" fill="none" stroke="#000"/><path id="path159" d="m1139.5 85.977-103.21 18.381" fill="none" stroke="#000"/><path id="path161" d="m1007.1 198.43 43.854-11.482" fill="none" stroke="#000"/><path id="path163" d="m994.18 125.7 7.0535 39.572" fill="none" stroke="#000"/><path id="path165" d="m1002.3 171.48 4.8053 26.956" fill="none" stroke="#000"/><path id="path167" d="m1036.3 104.36 14.71 82.593" fill="none" stroke="#000"/><path id="path169" d="m1007.1 198.43 36.384-6.4557" fill="none" stroke="#000"/><path id="path171" d="m1051 186.95 41.291-7.392" fill="none" stroke="#000"/><path id="path173" d="m1083.5 130.43 22.934-8.7719" fill="none" stroke="#000"/><path id="path175" d="m1082.7 125.89 23.742-4.2381" fill="none" stroke="#000"/><path id="path177" d="m1082.1 287.34 53.963 0.4928" fill="none" stroke="#000"/><path id="path179" d="m1106.5 121.66 29.596 166.17" fill="none" stroke="#000"/><path id="path181" d="m537.93 271.42 34.326-41.642" fill="none" stroke="#000"/><path id="path183" d="m572.26 229.78-59.302-29.223" fill="none" stroke="#000"/><path id="path185" d="m572.26 229.78-135.42-111.62" fill="none" stroke="#000"/><path id="path187" d="m512.95 200.55-208.63-171.99" fill="none" stroke="#000"/><path id="path189" d="m359.54 338.69 38.185 142.52" fill="none" stroke="#000"/><path id="path191" d="m452.36 443.26-54.632 37.946" fill="none" stroke="#000"/><path id="path193" d="m442.4 324.59-82.854 14.094" fill="none" stroke="#000"/><path id="path195" d="m769.76 214.84 33.526-26.365" fill="none" stroke="#000"/><path id="path197" d="m650.09 241.55 153.2-53.075" fill="none" stroke="#000"/><path id="path199" d="m854.1 423.2 20.733-116.4" fill="none" stroke="#000"/><path id="path201" d="m910.24 468.64 27.495-154.35" fill="none" stroke="#000"/><path id="path203" d="m692.44 116.09 76.601-26.513" fill="none" stroke="#000"/><path id="path205" d="m803.29 188.48-34.25-98.905" fill="none" stroke="#000"/><path id="path207" d="m166.09 82.872-1.4291 0.39424" fill="none" stroke="#000"/><path id="path209" d="m164.66 83.267-134.45 36.024" fill="none" stroke="#000"/><path id="path211" d="m220 208.14-55.339-9.0675" fill="none" stroke="#000"/><path id="path213" d="m164.66 199.07-118.27-19.367" fill="none" stroke="#000"/><path id="path215" d="m251.44 92.728 53.87 44.401" fill="none" stroke="#000"/><path id="path217" d="m465.19 491.16h0.0345" fill="none" stroke="#000"/><path id="path219" d="m465.23 491.16 80.734-21.634" fill="none" stroke="#000"/><path id="path221" d="m465.19 491.16h2e-3" fill="none" stroke="#000"/><path id="path223" d="m469.16 354.36-17.264 5.7165" fill="none" stroke="#000"/><path id="path225" d="m451.9 360.07-20.054 6.6528" fill="none" stroke="#000"/><path id="path227" d="m1036.9 491.21-0.1808-0.0493" fill="none" stroke="#000"/><path id="path229" d="m1036.7 491.16-126.46-22.521" fill="none" stroke="#000"/><path id="path231" d="m1046.1 439.32-9.2292 51.843" fill="none" stroke="#000"/><path id="path233" d="m1036.9 491.16v0.0493" fill="none" stroke="#000"/><path id="path235" d="m675.73 67.842 4.6391 13.404" fill="none" stroke="#000"/><path id="path237" d="m680.37 81.246 12.071 34.841" fill="none" stroke="#000"/><path id="path239" d="m1004.6 166.89-3.3224-1.6262" fill="none" stroke="#000"/><path id="path241" d="m1001.2 165.27-78.002-37.749" fill="none" stroke="#000"/><path id="path243" d="m949.86 279.89 52.473-108.42" fill="none" stroke="#000"/><path id="path245" d="m1002.3 171.48 2.219-4.583" fill="none" stroke="#000"/><path id="path247" d="m1166.7 460.8-23.224-4.1395" fill="none" stroke="#000"/><path id="path249" d="m1143.5 456.66-97.38-17.347" fill="none" stroke="#000"/><path id="path251" d="m937.73 314.29 205.76 36.615" fill="none" stroke="#000"/><path id="path253" d="m1143.5 350.91 41.483 7.392" fill="none" stroke="#000"/><path id="path255" d="m1174.2 281.03-30.743-172.58" fill="none" stroke="#000"/><path id="path257" d="m1143.5 108.45-4.002-22.472" fill="none" stroke="#000"/><path id="path259" d="m1043.5 191.98 20.649-5.273" fill="none" stroke="#000"/><path id="path261" d="m1064.2 186.71 28.112-7.1456" fill="none" stroke="#000"/><path id="path263" d="m1092.3 179.56-8.7536-49.132" fill="none" stroke="#000"/><path id="path265" d="m1083.5 130.43-0.8072-4.5338" fill="none" stroke="#000"/><path id="path267" d="m1136.1 287.83 7.4334-1.3306" fill="none" stroke="#000"/><path id="path269" d="m1143.5 286.5 30.743-5.4701" fill="none" stroke="#000"/><path id="path271" d="m436.83 118.16-54.562-36.911" fill="none" stroke="#000"/><path id="path273" d="m382.27 81.246-77.951-52.68" fill="none" stroke="#000"/><path id="path275" d="m336.49 497.61 24.069-6.4557" fill="none" stroke="#000"/><path id="path277" d="m360.56 491.16 37.166-9.9546" fill="none" stroke="#000"/><path id="path279" d="m298.97 354.9-0.66134 0.19712" fill="none" stroke="#000"/><path id="path281" d="m334.76 491.16 1.7282 6.4557" fill="none" stroke="#000"/><path id="path283" d="m304.32 28.566-43.438 52.68" fill="none" stroke="#000"/><path id="path285" d="m260.88 81.246-9.445 11.482" fill="none" stroke="#000"/><path id="path287" d="m675.73 67.842-38.688 13.404" fill="none" stroke="#000"/><path id="path289" d="m637.04 81.246-37.913 13.109" fill="none" stroke="#000"/><path id="path291" d="m305.31 137.13 1.9466 1.577" fill="none" stroke="#000"/><path id="path293" d="m307.25 138.71 152.82 126.01" fill="none" stroke="#000"/><path id="path295" d="m431.85 366.73 20.512 76.532" fill="none" stroke="#000"/><path id="path297" d="m452.36 443.26 12.834 47.9" fill="none" stroke="#000"/><path id="path299" d="m359.54 338.69-37.879 10.152" fill="none" stroke="#000"/><path id="path301" d="m321.66 348.84-22.695 6.0614" fill="none" stroke="#000"/><path id="path303" d="m298.31 355.1 13.048 48.689" fill="none" stroke="#000"/><path id="path305" d="m311.35 403.78 23.409 87.374" fill="none" stroke="#000"/><path id="rect7591" d="m269.62 107.72 67.41 55.544-18.268 18.418-11.51-42.972-49.435-20.085z" stroke-miterlimit="10"/><path id="rect7591-3" d="m164.66 83.267 142.59 55.44 11.51 42.972-136.49-38.389z" stroke-miterlimit="10"/><path id="rect7591-3-6" d="m406.94 81.246 3.2293 13.844-3.0997 2.93-24.795-16.774z" stroke-miterlimit="10"/><path id="rect7591-3-6-5" d="m246.22 328.63 75.447 20.205-35.221 8.4269-88.356-23.704z" stroke-miterlimit="10"/><path id="rect7591-3-6-5-9" d="m311.35 403.78 3.9058 14.578-11.085 12.23z" stroke-miterlimit="10"/><path id="rect7591-3-6-5-2" d="m298.97 354.9 12.387 48.886-7.1796 26.808-41.729 16.213 23.995-89.542z" stroke-miterlimit="10"/><path id="rect7591-3-6-5-6" d="m278.78 298.09 79.163 21.607-5.4975 20.889-30.785 8.2505-75.447-20.205z" stroke-miterlimit="10"/><path id="rect7591-3-6-5-6-06" d="m736.98 269.59 12.742 3.4091 10.464 25.898-0.83364 31.678-21.359 18.75-27.318-67.612z" stroke-miterlimit="10"/><path id="rect7591-3-6-5-6-06-6" d="m923.23 127.52-54.692 113-39.697 9.2154 43.056-88.951z" stroke-miterlimit="10"/><path id="rect7591-3-6-5-6-06-6-1" d="m1e3 122.72-5.8673 2.9734 3.5267 19.786-7.4395 14.479-67.036-32.442-45.16 29.264 64.889-62.415z" stroke-miterlimit="10"/><path id="rect7591-3-6-5-6-06-2" d="m710.68 281.72 27.318 67.612-8.7803-10.19-23.063-57.077z" stroke-miterlimit="10"/><path id="rect7591-3-6-5-6-0" d="m512.95 200.55 59.302 29.223-34.326 41.642-77.859-6.7021z" stroke-miterlimit="10"/><path id="rect7591-3-6-5-6-2" d="m459.27 359.36 16.223 57.128-24.497 21.677-19.149-71.444z" stroke-miterlimit="10"/><path id="rect7591-3-6-5-6-2-8" d="m1125.4 81.246 2.8468 6.7422-91.916 16.37-36.239 18.365 33.288-33.359 37.069-8.1184z" stroke-miterlimit="10"/><path id="rect7591-3-6-5-6-2-79" d="m1e3 122.72 6.4064 9.7984-8.7469 12.961-3.5267-19.786z" stroke-miterlimit="10"/><path id="rect7591-3-6-5-6-2-2" d="m972.72 232.66 103.02 19.024 6.3514 35.655 53.963 0.4928 3.7167-0.66528-9.5162 53.183-7.6547 6.8437-184.87-32.898-62.904-7.4906 27.144-26.203 47.887-0.70383z" stroke-miterlimit="10"/><path id="rect7591-3-6-5-6-2-0" d="m1122.6 287.71-40.514-0.36998-6.3514-35.655z" stroke-miterlimit="10"/><path id="rect7591-3-6-5-6-2-9" d="m674.2 342.78-4.6654 35.482h-88.78l38.026-35.482z" stroke-miterlimit="10"/><path id="rect7591-3-6-5-6-2-9-6" d="m729.22 339.14-55.016 51.685v-48.048h-55.419l125.34-119.05 55.62 0.3151 0.23583 23.291 56.721 141.71-43.527 40.985-65.896-163.09-10.289 2.6611-30.83 12.468z" stroke-miterlimit="10"/><path id="rect7591-3-6-5-6-2-9-3" d="m674.2 390.82-4.6654 64.409v-76.976l4.6654-35.482z" stroke-miterlimit="10"/><path id="rect7591-3-6-5-6-2-7" d="m472.05 265.75 63.856 5.4968 7.6283 31.22 43.101-11.788 18.245 65.069-24.126 22.512v51.319l-14.5 12.253-28.372-105.9-85.982 24.147-9.5046-35.482-41.427 7.047z" stroke-miterlimit="10"/><path id="rect7591-3-6-5-6-1" d="m442.4 324.59 9.5046 35.482-20.054 6.6528 20.512 76.532-54.644 37.949-38.173-142.52z" stroke-miterlimit="10"/><path id="rect7591-3-6-7" d="m436.83 118.16 135.42 111.62-59.302-29.223-208.63-171.99z" stroke-miterlimit="10"/><path id="rect7591-3-6-7-5" d="m536.71 81.246h100.32l-37.913 13.109 30.812 89.002-92.009 88.061 34.326-41.642-135.42-111.62 38.739-36.911z" stroke-miterlimit="10"/><path id="rect7591-3-6-7-5-3" d="m690.57 81.246h155.22l15.84 47.444-59.568 56.26-33.028-95.375-76.601 26.513-9.3068-26.863z" stroke-miterlimit="10"/></g></svg>
