<svg xmlns="http://www.w3.org/2000/svg" width="2126" height="1198" xmlns:v="https://vecta.io/nano"><style><![CDATA[.B{fill:none}.C{stroke:#000}.D{stroke-linecap:round}.E{stroke-width:1.5}]]></style><defs><clipPath id="A"><path d="M0 0h1595v899H0z"/></clipPath></defs><g clip-path="url(#A)" transform="matrix(1.3333 0 0 1.3333 0 .00003)"><path d="M1187.625 991.41l-255.609-20.734-269.504 157.472-533.52-209.21-30.629-321.243-286.625-274.648L18.965-83.301l265.719 42.27 312.113-69.758 54.223-245.293 475.601 109.75 446.051 408.73 120.535 139.164-204.672 686.153-300.91 3.695" fill="#84b3ff" fill-opacity=".8"/><g transform="rotate(270)" class="B C D E"><path d="M-991.41 1187.625l20.734-255.609-157.472-269.504 209.21-533.52 321.243-30.629 274.648-286.625L83.301 18.965l-42.27 265.719 69.758 312.113 245.293 54.223-109.75 475.601-408.73 446.051-139.164 120.535-686.153-204.672-3.695-300.91"/><path d="M-911.27 1175.965l124.332 17.015 50.563-54.695m253.848-29.18l107.054-65.468-5.004-34.528M-105 709.879l48.016-12.191 102.961-71.743m-630.297 97.504l-26.821-10.074-103.632 70.773M-446.855 447.5l-49.922 115.129 11.375 30.433m2.226-203.824l-11.027-62.254-59.375-110.554m-335.414 1012.289l-53.731 49.703.875 71.07m645.668 288.539l91.977-79.668-.149-.547m62.93-91.164l77.406-89.226-33.558-56.762m98.75-48.168l150.187-156.25M-891.492 960.504l-17.699 6.375-11.981 147.707M-8.5 544.027l61.012-36.832-22.973-102.777m-45.578-124.074l31.305-40.082L40.34 82.648M-413.215-31.754l-62.676 65.41 7.43 88.43m-494.434 1082.273l306.872 41.993 460.507 317.554m188.5-213.543l-316.414-301.172-301.371 184.305m726.742-609.664L-243.09 864.238l-61.89 163.438m50.039-189.68l-282.207-188.594m80.582-256.996l-109.625 252.817-385.457 263.246"/><path d="M14.152 273.457l-447.64 102.094-140.289-261.231m102.011 988.207l4.989-26.492m69.418-42.469l18.765-11.48m-519.84 155.637l52.918-42.446 46.118 6.52m9.953 1.41l42.91 6.066m737.519-491.5l17.352-5.601m-707.559 121.359l18.293.918 28.555-19.261m7.453-5.032l47.102-31.777m122.945-179.906l5.73-13.18m3.336-7.676l12.575-28.918-2.743-20.16m-58.453-163.152l-9.363-17.539-6.066-27.25m371.609 1148.75l67.297-77.489m-198.656 300.481l-14.86-102.078 26.852-22.969M2.07 1271.566l-6.226-7.261 144.66-150.95 8.715 5.125M-6.684 496.746l-10.019-44.637 47.832-40.582m-58.086-128.695l16.133-99.816 46.285-69.704M-422.918-21.625l.996 77.547-47.898 49.98m-290.961 1126.114l.711.722 8.843 8.992 4.426 4.497 44.219 44.961 4.418 4.492 8.844 8.992 4.422 4.492 4.418 4.496 4.421 4.496 4.422 4.492 4.418 4.497 4.422 4.492 4.418 4.496 4.422 4.492 4.418 4.492 4.418 4.496 4.422 4.492 8.836 8.985 11.582 11.773m5.84-6.164l-.621-.633-4.411-4.484-4.414-4.488-4.41-4.485-4.414-4.484-4.41-4.488-4.414-4.489-4.41-4.484-4.414-4.488-4.414-4.485-4.415-4.488-4.41-4.488-4.414-4.488-4.414-4.485-48.554-49.371-4.418-4.492-8.829-8.977-4.418-4.488-4.414-4.492-3.957-4.024m-62.879-69.554l.524-.457 4.094-4.032 4.277-4.496 8.555-9 4.281-4.5 21.387-22.5 4.277-4.496 17.109-18 4.278-4.496 4.277-4.5 4.274-4.496 8.554-9 4.278-4.496 4.273-4.5 4.277-4.496 4.274-4.496 4.277-4.5 4.277-4.496 4.274-4.5 4.277-4.496 8.547-8.993 4.277-4.496 4.274-4.5 4.273-4.496 4.278-4.496 12.82-13.488 4.277-4.496 12.821-13.488 4.273-4.493 8.547-8.992 4.48-4.187 3.442-1.731m2.394-.449l.235-.027 8.269 2.5 6.27 3.679 6.258 3.688 6.261 3.687 6.262 3.684 31.309 18.437 6.265 3.688 6.262 3.687 6.266 3.692 6.261 3.687 6.266 3.688 6.262 3.687 6.265 3.692 6.266 3.687 6.266 3.692 6.265 3.687 6.266 3.691 6.265 3.688 6.266 3.691 6.266 3.688 6.265 3.691 6.27 3.692 6.265 3.691 6.262 3.684 5.207 3.039m24.328 33.246l.426.68 2.742 4.375 2.739 4.375 2.742 4.375 2.738 4.375 2.742 4.375 2.739 4.378 2.742 4.375 2.738 4.372 2.742 4.375 2.738 4.375 2.743 4.375 5.476 8.75 2.742 4.371 5.477 8.75 2.742 4.375 2.738 4.371 2.739 4.375 2.738 4.371 2.738 4.375 2.742 4.371 2.739 4.375 5.476 8.742 2.739 4.375 13.691 21.856 2.738 4.375 2.528 4.031m6.82-4.52l-.223-.355-10.953-17.485-2.738-4.375-2.735-4.371-2.738-4.371-2.742-4.375-5.477-8.742-2.738-4.375-2.738-4.371-2.738-4.375-2.739-4.371-2.738-4.375-2.742-4.371-5.477-8.75-2.742-4.375-2.738-4.371-2.738-4.375-2.743-4.375-5.476-8.75-2.742-4.375-2.739-4.375-2.742-4.375-2.738-4.375-2.742-4.375-2.739-4.375-2.742-4.375-5.312-8.485m-27.547-36.265l-.266-.16-6.39-3.786-37.571-22.125-6.261-3.683-6.262-3.688-6.258-3.687-6.262-3.684-6.258-3.687-6.261-3.684-6.258-3.687-6.262-3.684-6.258-3.687-6.257-3.684-6.258-3.688-25.031-14.734-6.254-3.687-12.516-7.368-6.254-3.683-6.258-3.684-6.273-3.762-4.219-3.48m-4.945-7.078l-.289-.582-1.676-5.551-.945-5.121-.914-5.094-.911-5.094-.914-5.093-.91-5.094-.914-5.09-1.828-10.187-.91-5.094-.914-5.094-.914-5.098-.91-5.093-2.743-15.282-.91-5.097-.914-5.094-.914-5.098-.914-5.093-.91-5.094-1.828-10.195-.914-5.094-.91-5.098-.915-5.097-.914-5.094-2.742-15.293-.91-5.098-6.824-38.039m-14.418-37.488l-.262-.59-4.195-9.453-2.098-4.731-2.094-4.726-4.195-9.453-2.094-4.727-2.097-4.726-2.094-4.727-2.098-4.727-2.093-4.726-4.196-9.453-4.187-9.453-2.098-4.723-2.094-4.727-2.097-4.726-2.094-4.727-2.098-4.722-2.093-4.727-2.098-4.723-2.094-4.726-2.094-4.723-2.097-4.726-2.094-4.723-2.094-4.727-2.097-4.722-2.094-4.727-4.188-9.445-2.097-4.723-2.094-4.726-8.375-18.891-2.082-4.742-1.965-4.86-.285-5.191 8.066-1.762 8.317.125 8.277.188 8.281.187 8.282.192 8.277.187 8.281.192 8.281.187 8.282.192 16.562.375 8.285.191 8.282.187 8.281.192 8.285.187 8.285.192 8.281.187 8.285.188 8.286.191 8.285.188 8.285.191 8.285.188 8.285.191 8.289.187 8.285.192 22.313.508m41.195 2.429l.93.219 8.156 1.942 8.227 1.953 8.226 1.949 8.223 1.953 8.227 1.953 8.222 1.949 8.227 1.953 8.222 1.954 8.223 1.949 8.223 1.953 8.222 1.949 16.446 3.906 8.218 1.95 8.223 1.953 8.219 1.949 8.223 1.949 8.218 1.953 8.219 1.95 8.219 1.953 24.656 5.847 8.215 1.953 8.219 1.95 8.215 1.949 17.039 4.039m13.961 5.102l.179.089 6.34 3.176 6.414 3.207 6.41 3.207 19.242 9.621 6.411 3.207 19.242 9.621 6.414 3.211 6.418 3.207 6.414 3.207 6.414 3.211 6.418 3.207 6.414 3.207 6.418 3.211 6.414 3.207 6.418 3.211 6.418 3.207 6.418 3.211 6.418 3.207 12.836 6.422 6.418 3.207 12.836 6.422 6.422 3.211 6.406 3.199 5.211 2.469m6.547 34.145l.011.168.309 5.179.312 5.176.309 5.176.313 5.176.308 5.175.313 5.172.308 5.176.313 5.176.308 5.176.313 5.175.308 5.172.313 5.176.309 5.176.308 5.172.313 5.175.308 5.172.313 5.176.308 5.172.313 5.176.308 5.172.313 5.175.309 5.172.312 5.172.309 5.172.312 5.176.617 10.344.313 5.171.308 5.172.313 5.172.308 5.172.313 5.172.617 10.344.313 5.172.308 5.171.313 5.168.308 5.172.313 5.172.777 12.942m8.352-.18l-.039-.723-.313-5.176-.308-5.175-.309-5.172-.313-5.176-.308-5.176-.313-5.176-.308-5.175-.313-5.176-.308-5.176-.313-5.176-.308-5.175-.313-5.176-.308-5.176-.313-5.176-.309-5.176-.312-5.175-.309-5.18-.312-5.176-.309-5.176-.308-5.179-.625-10.352-.309-5.18-.309-5.175-.312-5.18-.309-5.18-.312-5.175-.309-5.18-.312-5.18-.313-5.176-.308-5.179-.313-5.18-.308-5.18-.313-5.179-.308-5.176-.313-5.18-.309-5.18-.312-5.179-.309-5.18-.312-5.184-.309-5.179-.437-7.301m-11.063-35.773l-.98-.528-6.602-3.367-6.422-3.211-6.425-3.211-6.422-3.215-6.426-3.211-6.422-3.211-6.426-3.214-19.265-9.633-6.422-3.215-32.11-16.055-6.418-3.211-6.422-3.211-6.421-3.207-12.836-6.422-6.422-3.21-6.418-3.208-12.836-6.421-6.418-3.207-6.418-3.211-17.113-8.551m-14.938-5.422l-.801-.191-8.296-1.973-8.223-1.953-8.223-1.949-8.222-1.954-8.227-1.953-8.223-1.953-8.226-1.949-8.223-1.953-24.68-5.86-8.226-1.949-24.68-5.859-8.23-1.953-8.227-1.953-8.23-1.953-8.227-1.954-24.691-5.859-8.231-1.957-8.23-1.953-8.235-1.953-25.328-6.008m-39.691-2.629l-.891-.02-8.297-.191-8.293-.187-8.293-.192-8.293-.187-8.293-.192-16.585-.375-8.293-.191-8.293-.188-8.289-.191-8.293-.188-8.289-.191-8.29-.187-8.292-.188-8.29-.191-8.289-.188-8.289-.191-8.289-.188-8.285-.191-16.578-.375-8.285-.192-8.289-.187-8.285-.191-16.571-.375-8.242-.067-2.211-4.23 4.84-3.883 9.547-8.117 4.773-4.063 4.774-4.058 4.773-4.063 4.77-4.059 9.547-8.125 4.773-4.058 9.547-8.125 4.777-4.059 14.321-12.187 4.773-4.059 4.777-4.062 9.547-8.125 4.778-4.063 9.546-8.125 4.778-4.062 4.773-4.063 4.778-4.062 4.773-4.063 9.555-8.125 4.773-4.066 9.555-8.125 4.773-4.063 4.778-4.066 9.554-8.125 4.778-4.067 4.777-4.062 4.777-4.066 4.778-4.063 4.777-4.066 4.777-4.063 4.778-4.066 4.777-4.063 4.777-4.066 4.778-4.063 10.187-8.675m28.574-16.305l.754-.383 6.559-3.32 13.125-6.641 6.559-3.32 6.562-3.317 6.559-3.32 6.562-3.32 13.117-6.641 6.559-3.316 6.562-3.321 6.559-3.32 6.559-3.316 6.558-3.321 6.555-3.32 6.558-3.316 6.559-3.321 6.559-3.316 6.554-3.316 6.559-3.321 6.555-3.316 6.558-3.317 6.555-3.32 6.555-3.316 6.558-3.317 6.555-3.316 6.555-3.32 19.664-9.95 4.222-2.14m-3.152-7.832l-.852.426-6.558 3.32-6.563 3.32-6.558 3.317-6.559 3.32-6.562 3.32-6.559 3.32-6.563 3.321-6.562 3.316-6.559 3.32-19.687 9.961-6.563 3.325-19.687 9.961-6.566 3.32-6.563 3.32-6.563 3.324-6.566 3.321-6.562 3.32-6.567 3.324-6.566 3.321-6.563 3.324-6.566 3.32-6.567 3.324-6.566 3.321-6.566 3.324-6.567 3.32-11.371 5.754m-30.004 17.344l-.441.371-4.844 4.113-4.781 4.071-4.781 4.066-4.782 4.07-4.781 4.067-4.781 4.07-9.563 8.133-4.781 4.07-9.562 8.133-4.782 4.07-4.781 4.067-4.777 4.066-14.344 12.199-4.777 4.067-4.782 4.066-4.777 4.066-4.781 4.067-4.778 4.066-4.781 4.067-4.777 4.066-4.781 4.067-4.778 4.066-4.781 4.066-4.777 4.063-9.555 8.133-4.781 4.066-4.778 4.063-9.554 8.132-4.778 4.063-4.777 4.066-4.777 4.063-4.778 4.066-4.777 4.063-4.777 4.066-4.778 4.063-4.777 4.066-9.555 8.125-4.773 4.066-9.555 8.125-4.777 4.055-4.625 4.898-.887 1.555m-3.683 16.094l.003.344.907 4.836 2.027 4.824 4.187 9.453 4.196 9.453 2.094 4.731 2.097 4.726 2.094 4.727 4.195 9.453 2.094 4.73 4.195 9.453 2.094 4.731 2.098 4.726 2.097 4.731 2.098 4.726 2.098 4.731 2.093 4.726 4.196 9.461 2.097 4.727 4.196 9.461 2.094 4.73 2.097 4.727 18.879 42.574 2.098 4.735 7.644 17.238"/><path d="M-653.723 747.641l.161.886.894 5.032.914 5.097 1.828 10.203.918 5.102 7.313 40.812.914 5.098 1.828 10.203.914 5.098.914 5.101.914 5.098.914 5.102.914 5.097.914 5.102 2.742 15.293.915 5.101 3.656 20.391.91 5.098 2.742 15.293.914 5.093.914 5.098.91 5.098.61 5.261-.211 3.395m-2.223 7.543l-.316.644-3.309 4.543-4.265 4.543-4.274 4.493-17.094 17.984-4.277 4.496-12.82 13.488-4.278 4.496-8.547 8.993-4.277 4.496-8.547 8.992-4.277 4.5-4.274 4.496-4.277 4.496-4.277 4.5-4.274 4.496-4.277 4.496-4.277 4.5-4.274 4.496-4.277 4.5-4.277 4.496-4.278 4.5-4.273 4.5-4.278 4.497-8.554 9-4.278 4.496-21.386 22.5-4.278 4.496-4.281 4.5-4.277 4.5-4.278 4.504-4.277 4.5-4.281 4.5-4.324 4.617-2.352 2.695m502.426 83.793l-1.09 1.504v5.594l3.285 4.527 8.063 1.387 3.777-3.004 2.094-8.504-3.289-4.527-6.098-1.621M-620.66 1374.48v5.497l3.289 4.527 7.398 1.668 3.246-1.668 3.289-4.527v-5.594l-3.289-4.528-7.921-1.363m202.503-307.234l-2.3-3.168-7.809-.961-2.25.762m-3.883 7.207v3.121l1.496 2.058m-382.925 94l.203.465.004 5.453m-17.36-1.441l-.019-.246 3.433-8.293 7.965-1.121m800.332-229.75l-.687.242-3.289 4.523v5.598l3.289 4.527 8.699.715 3.891-3.125 1.714-4.594-3.664-7.644-1.605-.524m-14.238-256.343l-4.875-1.582-5.399 1.832m-3.5 7.261l-.019.2.207 1.754m-569.641 268.695v-2.027l-3.289-4.528-1.68-.547"/><path d="M-619.363 945.781l-2.231 3.071v4.5m8.102 7.183l.508.168 1.91-.621m388.273-382.902v-2.492l-3.289-4.528-5.324-1.726-5.32 1.726-1.137 1.563m-2.152 7.918v.644l3.289 4.524 5.32 1.73 5.371-1.797m-50.059-393.715l.02.02 7.336 1.512 3.308-1.512 3.29-4.524v-5.597l-3.29-4.528-7.347-1.554-4.235 2.804-2.351 5.715m-231.203 113.141l-1.242 2.039v4.629m5.339 6.457l.973.453 2.387.305m33.594 206.351v-.613l-3.293-4.527-1.602-.532m-6.891 15.891l3.168 1.027 5.325-1.73 1.16-1.594m-173.903 222.117l3.188-4.382v-5.602l-1.016-1.395m-14.238 9.723l1.313 1.801 2.613.851m-93.418-242.683l-4.492-1.461-5.321 1.73-3.289 4.528v5.593l3.289 4.528 6.121 1.469m14.434 616.808l-42.82-5.859m-9.993-1.367l-54.726-7.489-1.606 11.707m465.043-126.168l-62.203 38.039m0 0l97.43-61.121 51.703-136.527"/><path d="M-293.547 849.5l21.551 11.145-61.066 161.257-320.782 196.176-308.215-42.176"/><path d="M-777.074 1130.191l160.234 21.926 164.91-100.851m0 0l-21.144 14.472 6.297 10.297M-105 709.879l53.941-37.586m0 0l-221.836 153.703M7.055 630.934l-51.121 35.621"/><path d="M-44.066 666.555l28.125-18.727 6.925 9.945M-680.93 774.449l6.973 10.215 23.937-16.348"/><path d="M-650.02 768.316l-211.332 145.493m328.414-224.289l-109.453 74.75"/><path d="M-642.391 764.27l58.071-40.821m131.086-234.75l11.015 4.778m0 0l-4.636-45.977m-106.723-231.07l19.047 77.183m0 0l10.738-5.765m-418.055 1061.644l53.641-56.906-12.352.152m612.789 207.555l-24.375 21.109 7.676 8.864m206.895-209.602l-69.953 80.633 9.277 8.051m289.707-304.688L-13.43 1255.391l9.274 8.918m33.695-859.891l-57.992 50.32m0 0l11.75-2.629M40.34 82.648l-63.215 98.45 12.051 1.918m-457.637-60.93l55.328-57.742-8.789-8.422m-527.066 460.711l48.773-124.387-11.23-4.406m286.644 845.656l449.981 310.297 167.804-193.43m19.106-20.898l-317.07-301.789m-538.934 95.894l-67.356 52.395m639.274-315.32l-282.75-188.957-387.902 264.914-19.411 239.3"/><path d="M-962.059 1175.902l84.27-59.492 90.723 12.414m313.992-63.086l-9.453 43.367m528.504-483.16l-61.918 21.883m-521.207 1.574l106.429-245.449L15.914 302.09l67.141 300.398-337.996 235.508m-419.016-53.332l-40.816-.516m272.554-290.671l-11.691 26.964"/><path d="M-453.91 520.441l25.98-57.597m-87.258 201.234l58.86-135.742"/><path d="M-456.328 528.336l-29.074 64.726m-69.344 78.626l21.808 17.832 239.391 159.98m-240.984-555.887l10.644 19.821"/><path d="M-523.887 313.434l-46.633-85.125m102.418 190.703l-52.355-97.485"/><path d="M-520.457 321.527l37.281 67.711m-115.957-262.3l-299.805 28.585 74.594 96.985 253.824-24.199-28.613-101.371m0 0l142.567 265.468m25.847 11.547l2.789 58.891 378.141-86.242L7.055 630.934l76-28.446m-971.262 690.098l-.785-63.867m11.422-12.684l1.808 147.141-83.906 104.187m764.152 96.543l-112.839 97.735-651.313-194.278"/><path d="M-312.145 1521.402l15.965 116.629m-12.175 23.61l-15.977-133.981-551.43-164.484m585.227 135.211l-33.797 29.273m156.805-126.363l26.105 65.355m-33.398 77.141l-36.457-115.91-343.762-237.051"/><path d="M-82.059 1278.934l-129.218 148.949m197.847-172.492l14.606 17.105m10.914 56.969l-65.117-83.039 176.453-183.578 85.996-372.645 112.652-17.707"/><path d="M-53.027 1246.426l-246.09-234.231m-603.93 90.75l11.555-142.441m13.703 155.906l16.437-202.601-81.296 22.793m914.195-481.864L-8.5 544.027m-14.375-362.929l-16.637 104.597"/><path d="M-39.512 285.695l20.371-135.363L52.113 34.836M15.914 302.09l-65.703 74.512M-573.777 114.32l256.613-267.808L52.113 34.836m-465.246 29.508l-.082-96.098"/><path d="M-317.164-153.488L-331.789-9.113-19.141 150.332m-510.203 46.727L-331.789-9.113m-568.426 401.359l-44.812-36.363m-6.621 552.586l-145.141-248.395 197.851-504.551"/><path d="M-1096.789 660.074l104.934 19.614 167.511-427.18m-60.492 610.332l-107.019-183.152m678.539 563.402l.093.137 6.063-3.211.664-1.446m-307.945 130.129l.011.012-3.836 4.195-2.015 1.957m192.023-309.687l.125-.055 2.156-4.488 1.485-2.746m-186.606-97.801l-.125-.012 4.539-3.894 1.778-4.684.527-.621m-205.523 213.473l-.032.019-5.211-3.394-.613-1.672m202.278-198.77l.07-.019-6.117-3.328-2.063-3.848m614.684-24.164l-.035.058-8.317.122m6.242-271.579l-21.168 14.715-2.441 4.735-2.07 3.105M-222.82 577.172l-.012.062-2 4.813-1.215 2.691m-427.664 162.891l.094-.086 8.058-.766m26.192 199.016l.027.07 7.641-1.91 2.375-.156m139.687-427.086l-.062.051-1.332 4.82-.625 3.078m233.898 47.09l.024.094-1.286 4.699-.992 3.102m-39.152-396.383l.187-.067 2.102 4.59.773 3.242M-511.719 303.09l.055-.016 3.875 4.063 1.488 2.34m-240.828 195.648l-.043.09 2.223 4.496-.168 5.269-3.754 4.438-1.941 1.793m338.667 540.047l-.48.722-4.969 3.821-6.011 3.594-3.286.882m-400.078 98.477l.09.144 9.559 2.114 7.711-.817m412.25-136.629l-33.543 20.52m-7.965 4.871l-27.91 17.078m428.035-397.597l-33.133 23.031m-403-162.996l-16.633 38.254m-18.875-263.77l20.492 38.371M-6.684 496.746l9.133 40.672m-147.804 903.434l-12.895-31.504"/></g></g></svg>