<?xml version="1.0" encoding="UTF-8" standalone="no"?>
<svg
   width="2126"
   height="1198"
   version="1.1"
   id="svg57"
   sodipodi:docname="2.svg"
   viewBox="0 0 1807.1 1018.3"
   inkscape:version="1.1.2 (0a00cf5339, 2022-02-04, custom)"
   xmlns:inkscape="http://www.inkscape.org/namespaces/inkscape"
   xmlns:sodipodi="http://sodipodi.sourceforge.net/DTD/sodipodi-0.dtd"
   xmlns="http://www.w3.org/2000/svg"
   xmlns:svg="http://www.w3.org/2000/svg">
  <sodipodi:namedview
     id="namedview59"
     pagecolor="#ffffff"
     bordercolor="#666666"
     borderopacity="1.0"
     inkscape:pageshadow="2"
     inkscape:pageopacity="0.0"
     inkscape:pagecheckerboard="0"
     showgrid="false"
     inkscape:zoom="0.39517686"
     inkscape:cx="1195.6672"
     inkscape:cy="783.19364"
     inkscape:window-width="1920"
     inkscape:window-height="1043"
     inkscape:window-x="0"
     inkscape:window-y="0"
     inkscape:window-maximized="1"
     inkscape:current-layer="svg57">
    <sodipodi:guide
       position="0,1018.3"
       orientation="0,2126"
       id="guide978" />
    <sodipodi:guide
       position="1807.1,1018.3"
       orientation="1198,0"
       id="guide980" />
    <sodipodi:guide
       position="1807.1,0"
       orientation="0,-2126"
       id="guide982" />
    <sodipodi:guide
       position="0,0"
       orientation="-1198,0"
       id="guide984" />
  </sodipodi:namedview>
  <style
     id="style2"><![CDATA[.B{fill:none}.C{stroke:#000}.D{stroke-linecap:round}.E{stroke-width:1.5}]]></style>
  <defs
     id="defs7">
    <clipPath
       id="A">
      <path
         d="M 0,0 H 1595 V 899 H 0 Z"
         id="path4" />
    </clipPath>
    <clipPath
       clipPathUnits="userSpaceOnUse"
       id="clipPath1090">
      <rect
         style="opacity:1;fill:#e09eff;fill-opacity:0.8;stroke-width:1.27503;stroke-dasharray:1.27503, 2.55006"
         id="rect1092"
         width="1355.3589"
         height="763.74408"
         x="136.14029"
         y="106.46209" />
    </clipPath>
  </defs>
  <g
     clip-path="url(#clipPath1090)"
     transform="matrix(1.3333,0,0,1.3333,-181.51584,-141.9459)"
     id="g55"
     style="opacity:1">
    <path
       d="M 1187.625,991.41 932.016,970.676 662.512,1128.148 128.992,918.938 98.363,597.695 -188.262,323.047 18.965,-83.301 l 265.719,42.27 312.113,-69.758 54.223,-245.293 475.601,109.75 446.051,408.73 120.535,139.164 -204.672,686.153 -300.91,3.695"
       fill="#84b3ff"
       fill-opacity="0.8"
       id="path9" />
    <g
       transform="rotate(-90)"
       class="B C D E"
       id="g53">
      <path
         d="m -991.41,1187.625 20.734,-255.609 -157.472,-269.504 209.21,-533.52 321.243,-30.629 274.648,-286.625 406.348,207.227 -42.27,265.719 69.758,312.113 245.293,54.223 -109.75,475.601 -408.73,446.051 -139.164,120.535 -686.153,-204.672 -3.695,-300.91"
         id="path11" />
      <path
         d="m -911.27,1175.965 124.332,17.015 50.563,-54.695 m 253.848,-29.18 107.054,-65.468 -5.004,-34.528 M -105,709.879 -56.984,697.688 45.977,625.945 m -630.297,97.504 -26.821,-10.074 -103.632,70.773 m 267.918,-336.648 -49.922,115.129 11.375,30.433 m 2.226,-203.824 -11.027,-62.254 -59.375,-110.554 m -335.414,1012.289 -53.731,49.703 0.875,71.07 m 645.668,288.539 91.977,-79.668 -0.149,-0.547 m 62.93,-91.164 77.406,-89.226 -33.558,-56.762 m 98.75,-48.168 150.187,-156.25 m -1042.855,-155.742 -17.699,6.375 -11.981,147.707 M -8.5,544.027 52.512,507.195 29.539,404.418 M -16.039,280.344 15.266,240.262 40.34,82.648 m -453.555,-114.402 -62.676,65.41 7.43,88.43 m -494.434,1082.273 306.872,41.993 460.507,317.554 m 188.5,-213.543 -316.414,-301.172 -301.371,184.305 m 726.742,-609.664 -345.031,240.406 -61.89,163.438 m 50.039,-189.68 -282.207,-188.594 m 80.582,-256.996 -109.625,252.817 -385.457,263.246"
         id="path13" />
      <path
         d="M 14.152,273.457 -433.488,375.551 -573.777,114.32 m 102.011,988.207 4.989,-26.492 m 69.418,-42.469 18.765,-11.48 m -519.84,155.637 52.918,-42.446 46.118,6.52 m 9.953,1.41 42.91,6.066 m 737.519,-491.5 17.352,-5.601 m -707.559,121.359 18.293,0.918 28.555,-19.261 m 7.453,-5.032 47.102,-31.777 m 122.945,-179.906 5.73,-13.18 m 3.336,-7.676 12.575,-28.918 -2.743,-20.16 m -58.453,-163.152 -9.363,-17.539 -6.066,-27.25 m 371.609,1148.75 67.297,-77.489 m -198.656,300.481 -14.86,-102.078 26.852,-22.969 M 2.07,1271.566 l -6.226,-7.261 144.66,-150.95 8.715,5.125 M -6.684,496.746 -16.703,452.109 31.129,411.527 m -58.086,-128.695 16.133,-99.816 46.285,-69.704 m -458.379,-134.937 0.996,77.547 -47.898,49.98 m -290.961,1126.114 0.711,0.722 8.843,8.992 4.426,4.497 44.219,44.961 4.418,4.492 8.844,8.992 4.422,4.492 4.418,4.496 4.421,4.496 4.422,4.492 4.418,4.497 4.422,4.492 4.418,4.496 4.422,4.492 4.418,4.492 4.418,4.496 4.422,4.492 8.836,8.985 11.582,11.773 m 5.84,-6.164 -0.621,-0.633 -4.411,-4.484 -4.414,-4.488 -4.41,-4.485 -4.414,-4.484 -4.41,-4.488 -4.414,-4.489 -4.41,-4.484 -4.414,-4.488 -4.414,-4.485 -4.415,-4.488 -4.41,-4.488 -4.414,-4.488 -4.414,-4.485 -48.554,-49.371 -4.418,-4.492 -8.829,-8.977 -4.418,-4.488 -4.414,-4.492 -3.957,-4.024 m -62.879,-69.554 0.524,-0.457 4.094,-4.032 4.277,-4.496 8.555,-9 4.281,-4.5 21.387,-22.5 4.277,-4.496 17.109,-18 4.278,-4.496 4.277,-4.5 4.274,-4.496 8.554,-9 4.278,-4.496 4.273,-4.5 4.277,-4.496 4.274,-4.496 4.277,-4.5 4.277,-4.496 4.274,-4.5 4.277,-4.496 8.547,-8.993 4.277,-4.496 4.274,-4.5 4.273,-4.496 4.278,-4.496 12.82,-13.488 4.277,-4.496 12.821,-13.488 4.273,-4.493 8.547,-8.992 4.48,-4.187 3.442,-1.731 m 2.394,-0.449 0.235,-0.027 8.269,2.5 6.27,3.679 6.258,3.688 6.261,3.687 6.262,3.684 31.309,18.437 6.265,3.688 6.262,3.687 6.266,3.692 6.261,3.687 6.266,3.688 6.262,3.687 6.265,3.692 6.266,3.687 6.266,3.692 6.265,3.687 6.266,3.691 6.265,3.688 6.266,3.691 6.266,3.688 6.265,3.691 6.27,3.692 6.265,3.691 6.262,3.684 5.207,3.039 m 24.328,33.246 0.426,0.68 2.742,4.375 2.739,4.375 2.742,4.375 2.738,4.375 2.742,4.375 2.739,4.378 2.742,4.375 2.738,4.372 2.742,4.375 2.738,4.375 2.743,4.375 5.476,8.75 2.742,4.371 5.477,8.75 2.742,4.375 2.738,4.371 2.739,4.375 2.738,4.371 2.738,4.375 2.742,4.371 2.739,4.375 5.476,8.742 2.739,4.375 13.691,21.856 2.738,4.375 2.528,4.031 m 6.82,-4.52 -0.223,-0.355 -10.953,-17.485 -2.738,-4.375 -2.735,-4.371 -2.738,-4.371 -2.742,-4.375 -5.477,-8.742 -2.738,-4.375 -2.738,-4.371 -2.738,-4.375 -2.739,-4.371 -2.738,-4.375 -2.742,-4.371 -5.477,-8.75 -2.742,-4.375 -2.738,-4.371 -2.738,-4.375 -2.743,-4.375 -5.476,-8.75 -2.742,-4.375 -2.739,-4.375 -2.742,-4.375 -2.738,-4.375 -2.742,-4.375 -2.739,-4.375 -2.742,-4.375 -5.312,-8.485 m -27.547,-36.265 -0.266,-0.16 -6.39,-3.786 -37.571,-22.125 -6.261,-3.683 -6.262,-3.688 -6.258,-3.687 -6.262,-3.684 -6.258,-3.687 -6.261,-3.684 -6.258,-3.687 -6.262,-3.684 -6.258,-3.687 -6.257,-3.684 -6.258,-3.688 -25.031,-14.734 -6.254,-3.687 -12.516,-7.368 -6.254,-3.683 -6.258,-3.684 -6.273,-3.762 -4.219,-3.48 m -4.945,-7.078 -0.289,-0.582 -1.676,-5.551 -0.945,-5.121 -0.914,-5.094 -0.911,-5.094 -0.914,-5.093 -0.91,-5.094 -0.914,-5.09 -1.828,-10.187 -0.91,-5.094 -0.914,-5.094 -0.914,-5.098 -0.91,-5.093 -2.743,-15.282 -0.91,-5.097 -0.914,-5.094 -0.914,-5.098 -0.914,-5.093 -0.91,-5.094 -1.828,-10.195 -0.914,-5.094 -0.91,-5.098 -0.915,-5.097 -0.914,-5.094 -2.742,-15.293 -0.91,-5.098 -6.824,-38.039 m -14.418,-37.488 -0.262,-0.59 -4.195,-9.453 -2.098,-4.731 -2.094,-4.726 -4.195,-9.453 -2.094,-4.727 -2.097,-4.726 -2.094,-4.727 -2.098,-4.727 -2.093,-4.726 -4.196,-9.453 -4.187,-9.453 -2.098,-4.723 -2.094,-4.727 -2.097,-4.726 -2.094,-4.727 -2.098,-4.722 -2.093,-4.727 -2.098,-4.723 -2.094,-4.726 -2.094,-4.723 -2.097,-4.726 -2.094,-4.723 -2.094,-4.727 -2.097,-4.722 -2.094,-4.727 -4.188,-9.445 -2.097,-4.723 -2.094,-4.726 -8.375,-18.891 -2.082,-4.742 -1.965,-4.86 -0.285,-5.191 8.066,-1.762 8.317,0.125 8.277,0.188 8.281,0.187 8.282,0.192 8.277,0.187 8.281,0.192 8.281,0.187 8.282,0.192 16.562,0.375 8.285,0.191 8.282,0.187 8.281,0.192 8.285,0.187 8.285,0.192 8.281,0.187 8.285,0.188 8.286,0.191 8.285,0.188 8.285,0.191 8.285,0.188 8.285,0.191 8.289,0.187 8.285,0.192 22.313,0.508 m 41.195,2.429 0.93,0.219 8.156,1.942 8.227,1.953 8.226,1.949 8.223,1.953 8.227,1.953 8.222,1.949 8.227,1.953 8.222,1.954 8.223,1.949 8.223,1.953 8.222,1.949 16.446,3.906 8.218,1.95 8.223,1.953 8.219,1.949 8.223,1.949 8.218,1.953 8.219,1.95 8.219,1.953 24.656,5.847 8.215,1.953 8.219,1.95 8.215,1.949 17.039,4.039 m 13.961,5.102 0.179,0.089 6.34,3.176 6.414,3.207 6.41,3.207 19.242,9.621 6.411,3.207 19.242,9.621 6.414,3.211 6.418,3.207 6.414,3.207 6.414,3.211 6.418,3.207 6.414,3.207 6.418,3.211 6.414,3.207 6.418,3.211 6.418,3.207 6.418,3.211 6.418,3.207 12.836,6.422 6.418,3.207 12.836,6.422 6.422,3.211 6.406,3.199 5.211,2.469 m 6.547,34.145 0.011,0.168 0.309,5.179 0.312,5.176 0.309,5.176 0.313,5.176 0.308,5.175 0.313,5.172 0.308,5.176 0.313,5.176 0.308,5.176 0.313,5.175 0.308,5.172 0.313,5.176 0.309,5.176 0.308,5.172 0.313,5.175 0.308,5.172 0.313,5.176 0.308,5.172 0.313,5.176 0.308,5.172 0.313,5.175 0.309,5.172 0.312,5.172 0.309,5.172 0.312,5.176 0.617,10.344 0.313,5.171 0.308,5.172 0.313,5.172 0.308,5.172 0.313,5.172 0.617,10.344 0.313,5.172 0.308,5.171 0.313,5.168 0.308,5.172 0.313,5.172 0.777,12.942 m 8.352,-0.18 -0.039,-0.723 -0.313,-5.176 -0.308,-5.175 -0.309,-5.172 -0.313,-5.176 -0.308,-5.176 -0.313,-5.176 -0.308,-5.175 -0.313,-5.176 -0.308,-5.176 -0.313,-5.176 -0.308,-5.175 -0.313,-5.176 -0.308,-5.176 -0.313,-5.176 -0.309,-5.176 -0.312,-5.175 -0.309,-5.18 -0.312,-5.176 -0.309,-5.176 -0.308,-5.179 -0.625,-10.352 -0.309,-5.18 -0.309,-5.175 -0.312,-5.18 -0.309,-5.18 -0.312,-5.175 -0.309,-5.18 -0.312,-5.18 -0.313,-5.176 -0.308,-5.179 -0.313,-5.18 -0.308,-5.18 -0.313,-5.179 -0.308,-5.176 -0.313,-5.18 -0.309,-5.18 -0.312,-5.179 -0.309,-5.18 -0.312,-5.184 -0.309,-5.179 -0.437,-7.301 m -11.063,-35.773 -0.98,-0.528 -6.602,-3.367 -6.422,-3.211 -6.425,-3.211 -6.422,-3.215 -6.426,-3.211 -6.422,-3.211 -6.426,-3.214 -19.265,-9.633 -6.422,-3.215 -32.11,-16.055 -6.418,-3.211 -6.422,-3.211 -6.421,-3.207 -12.836,-6.422 -6.422,-3.21 -6.418,-3.208 -12.836,-6.421 -6.418,-3.207 -6.418,-3.211 -17.113,-8.551 m -14.938,-5.422 -0.801,-0.191 -8.296,-1.973 -8.223,-1.953 -8.223,-1.949 -8.222,-1.954 -8.227,-1.953 -8.223,-1.953 -8.226,-1.949 -8.223,-1.953 -24.68,-5.86 -8.226,-1.949 -24.68,-5.859 -8.23,-1.953 -8.227,-1.953 -8.23,-1.953 -8.227,-1.954 -24.691,-5.859 -8.231,-1.957 -8.23,-1.953 -8.235,-1.953 -25.328,-6.008 m -39.691,-2.629 -0.891,-0.02 -8.297,-0.191 -8.293,-0.187 -8.293,-0.192 -8.293,-0.187 -8.293,-0.192 -16.585,-0.375 -8.293,-0.191 -8.293,-0.188 -8.289,-0.191 -8.293,-0.188 -8.289,-0.191 -8.29,-0.187 -8.292,-0.188 -8.29,-0.191 -8.289,-0.188 -8.289,-0.191 -8.289,-0.188 -8.285,-0.191 -16.578,-0.375 -8.285,-0.192 -8.289,-0.187 -8.285,-0.191 -16.571,-0.375 -8.242,-0.067 -2.211,-4.23 4.84,-3.883 9.547,-8.117 4.773,-4.063 4.774,-4.058 4.773,-4.063 4.77,-4.059 9.547,-8.125 4.773,-4.058 9.547,-8.125 4.777,-4.059 14.321,-12.187 4.773,-4.059 4.777,-4.062 9.547,-8.125 4.778,-4.063 9.546,-8.125 4.778,-4.062 4.773,-4.063 4.778,-4.062 4.773,-4.063 9.555,-8.125 4.773,-4.066 9.555,-8.125 4.773,-4.063 4.778,-4.066 9.554,-8.125 4.778,-4.067 4.777,-4.062 4.777,-4.066 4.778,-4.063 4.777,-4.066 4.777,-4.063 4.778,-4.066 4.777,-4.063 4.777,-4.066 4.778,-4.063 10.187,-8.675 m 28.574,-16.305 0.754,-0.383 6.559,-3.32 13.125,-6.641 6.559,-3.32 6.562,-3.317 6.559,-3.32 6.562,-3.32 13.117,-6.641 6.559,-3.316 6.562,-3.321 6.559,-3.32 6.559,-3.316 6.558,-3.321 6.555,-3.32 6.558,-3.316 6.559,-3.321 6.559,-3.316 6.554,-3.316 6.559,-3.321 6.555,-3.316 6.558,-3.317 6.555,-3.32 6.555,-3.316 6.558,-3.317 6.555,-3.316 6.555,-3.32 19.664,-9.95 4.222,-2.14 m -3.152,-7.832 -0.852,0.426 -6.558,3.32 -6.563,3.32 -6.558,3.317 -6.559,3.32 -6.562,3.32 -6.559,3.32 -6.563,3.321 -6.562,3.316 -6.559,3.32 -19.687,9.961 -6.563,3.325 -19.687,9.961 -6.566,3.32 -6.563,3.32 -6.563,3.324 -6.566,3.321 -6.562,3.32 -6.567,3.324 -6.566,3.321 -6.563,3.324 -6.566,3.32 -6.567,3.324 -6.566,3.321 -6.566,3.324 -6.567,3.32 -11.371,5.754 m -30.004,17.344 -0.441,0.371 -4.844,4.113 -4.781,4.071 -4.781,4.066 -4.782,4.07 -4.781,4.067 -4.781,4.07 -9.563,8.133 -4.781,4.07 -9.562,8.133 -4.782,4.07 -4.781,4.067 -4.777,4.066 -14.344,12.199 -4.777,4.067 -4.782,4.066 -4.777,4.066 -4.781,4.067 -4.778,4.066 -4.781,4.067 -4.777,4.066 -4.781,4.067 -4.778,4.066 -4.781,4.066 -4.777,4.063 -9.555,8.133 -4.781,4.066 -4.778,4.063 -9.554,8.132 -4.778,4.063 -4.777,4.066 -4.777,4.063 -4.778,4.066 -4.777,4.063 -4.777,4.066 -4.778,4.063 -4.777,4.066 -9.555,8.125 -4.773,4.066 -9.555,8.125 -4.777,4.055 -4.625,4.898 -0.887,1.555 m -3.683,16.094 0.003,0.344 0.907,4.836 2.027,4.824 4.187,9.453 4.196,9.453 2.094,4.731 2.097,4.726 2.094,4.727 4.195,9.453 2.094,4.73 4.195,9.453 2.094,4.731 2.098,4.726 2.097,4.731 2.098,4.726 2.098,4.731 2.093,4.726 4.196,9.461 2.097,4.727 4.196,9.461 2.094,4.73 2.097,4.727 18.879,42.574 2.098,4.735 7.644,17.238"
         id="path15" />
      <path
         d="m -653.723,747.641 0.161,0.886 0.894,5.032 0.914,5.097 1.828,10.203 0.918,5.102 7.313,40.812 0.914,5.098 1.828,10.203 0.914,5.098 0.914,5.101 0.914,5.098 0.914,5.102 0.914,5.097 0.914,5.102 2.742,15.293 0.915,5.101 3.656,20.391 0.91,5.098 2.742,15.293 0.914,5.093 0.914,5.098 0.91,5.098 0.61,5.261 -0.211,3.395 m -2.223,7.543 -0.316,0.644 -3.309,4.543 -4.265,4.543 -4.274,4.493 -17.094,17.984 -4.277,4.496 -12.82,13.488 -4.278,4.496 -8.547,8.993 -4.277,4.496 -8.547,8.992 -4.277,4.5 -4.274,4.496 -4.277,4.496 -4.277,4.5 -4.274,4.496 -4.277,4.496 -4.277,4.5 -4.274,4.496 -4.277,4.5 -4.277,4.496 -4.278,4.5 -4.273,4.5 -4.278,4.497 -8.554,9 -4.278,4.496 -21.386,22.5 -4.278,4.496 -4.281,4.5 -4.277,4.5 -4.278,4.504 -4.277,4.5 -4.281,4.5 -4.324,4.617 -2.352,2.695 m 502.426,83.793 -1.09,1.504 v 5.594 l 3.285,4.527 8.063,1.387 3.777,-3.004 2.094,-8.504 -3.289,-4.527 -6.098,-1.621 M -620.66,1374.48 v 5.497 l 3.289,4.527 7.398,1.668 3.246,-1.668 3.289,-4.527 v -5.594 l -3.289,-4.528 -7.921,-1.363 m 202.503,-307.234 -2.3,-3.168 -7.809,-0.961 -2.25,0.762 m -3.883,7.207 v 3.121 l 1.496,2.058 m -382.925,94 0.203,0.465 0.004,5.453 m -17.36,-1.441 -0.019,-0.246 3.433,-8.293 7.965,-1.121 m 800.332,-229.75 -0.687,0.242 -3.289,4.523 v 5.598 l 3.289,4.527 8.699,0.715 3.891,-3.125 1.714,-4.594 -3.664,-7.644 -1.605,-0.524 m -14.238,-256.343 -4.875,-1.582 -5.399,1.832 m -3.5,7.261 -0.019,0.2 0.207,1.754 m -569.641,268.695 v -2.027 l -3.289,-4.528 -1.68,-0.547"
         id="path17" />
      <path
         d="m -619.363,945.781 -2.231,3.071 v 4.5 m 8.102,7.183 0.508,0.168 1.91,-0.621 M -222.801,577.18 v -2.492 l -3.289,-4.528 -5.324,-1.726 -5.32,1.726 -1.137,1.563 m -2.152,7.918 v 0.644 l 3.289,4.524 5.32,1.73 5.371,-1.797 m -50.059,-393.715 0.02,0.02 7.336,1.512 3.308,-1.512 3.29,-4.524 v -5.597 l -3.29,-4.528 -7.347,-1.554 -4.235,2.804 -2.351,5.715 m -231.203,113.141 -1.242,2.039 v 4.629 m 5.339,6.457 0.973,0.453 2.387,0.305 m 33.594,206.351 v -0.613 l -3.293,-4.527 -1.602,-0.532 m -6.891,15.891 3.168,1.027 5.325,-1.73 1.16,-1.594 m -173.903,222.117 3.188,-4.382 v -5.602 l -1.016,-1.395 m -14.238,9.723 1.313,1.801 2.613,0.851 m -93.418,-242.683 -4.492,-1.461 -5.321,1.73 -3.289,4.528 v 5.593 l 3.289,4.528 6.121,1.469 m 14.434,616.808 -42.82,-5.859 m -9.993,-1.367 -54.726,-7.489 -1.606,11.707 m 465.043,-126.168 -62.203,38.039 m 0,0 97.43,-61.121 51.703,-136.527"
         id="path19" />
      <path
         d="m -293.547,849.5 21.551,11.145 -61.066,161.257 -320.782,196.176 -308.215,-42.176"
         id="path21" />
      <path
         d="m -777.074,1130.191 160.234,21.926 164.91,-100.851 m 0,0 -21.144,14.472 6.297,10.297 M -105,709.879 -51.059,672.293 m 0,0 -221.836,153.703 M 7.055,630.934 -44.066,666.555"
         id="path23" />
      <path
         d="m -44.066,666.555 28.125,-18.727 6.925,9.945 m -671.914,116.676 6.973,10.215 23.937,-16.348"
         id="path25" />
      <path
         d="M -650.02,768.316 -861.352,913.809 M -532.938,689.52 -642.391,764.27"
         id="path27" />
      <path
         d="m -642.391,764.27 58.071,-40.821 m 131.086,-234.75 11.015,4.778 m 0,0 -4.636,-45.977 m -106.723,-231.07 19.047,77.183 m 0,0 10.738,-5.765 m -418.055,1061.644 53.641,-56.906 -12.352,0.152 m 612.789,207.555 -24.375,21.109 7.676,8.864 m 206.895,-209.602 -69.953,80.633 9.277,8.051 m 289.707,-304.688 -144.887,150.731 9.274,8.918 m 33.695,-859.891 -57.992,50.32 m 0,0 11.75,-2.629 M 40.34,82.648 l -63.215,98.45 12.051,1.918 m -457.637,-60.93 55.328,-57.742 -8.789,-8.422 m -527.066,460.711 48.773,-124.387 -11.23,-4.406 m 286.644,845.656 449.981,310.297 167.804,-193.43 m 19.106,-20.898 -317.07,-301.789 m -538.934,95.894 -67.356,52.395 m 639.274,-315.32 -282.75,-188.957 -387.902,264.914 -19.411,239.3"
         id="path29" />
      <path
         d="m -962.059,1175.902 84.27,-59.492 90.723,12.414 m 313.992,-63.086 -9.453,43.367 M 45.977,625.945 -15.941,647.828 M -537.148,649.402 -430.719,403.953 15.914,302.09 83.055,602.488 -254.941,837.996 m -419.016,-53.332 -40.816,-0.516 m 272.554,-290.671 -11.691,26.964"
         id="path31" />
      <path
         d="m -453.91,520.441 25.98,-57.597 m -87.258,201.234 58.86,-135.742"
         id="path33" />
      <path
         d="m -456.328,528.336 -29.074,64.726 m -69.344,78.626 21.808,17.832 239.391,159.98 m -240.984,-555.887 10.644,19.821"
         id="path35" />
      <path
         d="m -523.887,313.434 -46.633,-85.125 m 102.418,190.703 -52.355,-97.485"
         id="path37" />
      <path
         d="m -520.457,321.527 37.281,67.711 m -115.957,-262.3 -299.805,28.585 74.594,96.985 253.824,-24.199 -28.613,-101.371 m 0,0 142.567,265.468 m 25.847,11.547 2.789,58.891 378.141,-86.242 56.844,254.332 76,-28.446 m -971.262,690.098 -0.785,-63.867 m 11.422,-12.684 1.808,147.141 -83.906,104.187 m 764.152,96.543 -112.839,97.735 -651.313,-194.278"
         id="path39" />
      <path
         d="m -312.145,1521.402 15.965,116.629 m -12.175,23.61 -15.977,-133.981 -551.43,-164.484 m 585.227,135.211 -33.797,29.273 m 156.805,-126.363 26.105,65.355 m -33.398,77.141 -36.457,-115.91 -343.762,-237.051"
         id="path41" />
      <path
         d="m -82.059,1278.934 -129.218,148.949 m 197.847,-172.492 14.606,17.105 m 10.914,56.969 -65.117,-83.039 176.453,-183.578 85.996,-372.645 112.652,-17.707"
         id="path43" />
      <path
         d="m -53.027,1246.426 -246.09,-234.231 m -603.93,90.75 11.555,-142.441 m 13.703,155.906 16.437,-202.601 -81.296,22.793 M -28.453,454.738 -8.5,544.027 M -22.875,181.098 -39.512,285.695"
         id="path45" />
      <path
         d="M -39.512,285.695 -19.141,150.332 52.113,34.836 M 15.914,302.09 -49.789,376.602 M -573.777,114.32 -317.164,-153.488 52.113,34.836 m -465.246,29.508 -0.082,-96.098"
         id="path47" />
      <path
         d="m -317.164,-153.488 -14.625,144.375 312.648,159.445 m -510.203,46.727 197.555,-206.172 m -568.426,401.359 -44.812,-36.363 m -6.621,552.586 -145.141,-248.395 197.851,-504.551"
         id="path49" />
      <path
         d="m -1096.789,660.074 104.934,19.614 167.511,-427.18 M -884.836,862.84 -991.855,679.688 m 678.539,563.402 0.093,0.137 6.063,-3.211 0.664,-1.446 m -307.945,130.129 0.011,0.012 -3.836,4.195 -2.015,1.957 m 192.023,-309.687 0.125,-0.055 2.156,-4.488 1.485,-2.746 m -186.606,-97.801 -0.125,-0.012 4.539,-3.894 1.778,-4.684 0.527,-0.621 m -205.523,213.473 -0.032,0.019 -5.211,-3.394 -0.613,-1.672 m 202.278,-198.77 0.07,-0.019 -6.117,-3.328 -2.063,-3.848 m 614.684,-24.164 -0.035,0.058 -8.317,0.122 m 6.242,-271.579 -21.168,14.715 -2.441,4.735 -2.07,3.105 m -188.125,-103.156 -0.012,0.062 -2,4.813 -1.215,2.691 m -427.664,162.891 0.094,-0.086 8.058,-0.766 m 26.192,199.016 0.027,0.07 7.641,-1.91 2.375,-0.156 m 139.687,-427.086 -0.062,0.051 -1.332,4.82 -0.625,3.078 m 233.898,47.09 0.024,0.094 -1.286,4.699 -0.992,3.102 m -39.152,-396.383 0.187,-0.067 2.102,4.59 0.773,3.242 m -235.617,112.063 0.055,-0.016 3.875,4.063 1.488,2.34 m -240.828,195.648 -0.043,0.09 2.223,4.496 -0.168,5.269 -3.754,4.438 -1.941,1.793 m 338.667,540.047 -0.48,0.722 -4.969,3.821 -6.011,3.594 -3.286,0.882 m -400.078,98.477 0.09,0.144 9.559,2.114 7.711,-0.817 m 412.25,-136.629 -33.543,20.52 m -7.965,4.871 -27.91,17.078 m 428.035,-397.597 -33.133,23.031 m -403,-162.996 -16.633,38.254 m -18.875,-263.77 20.492,38.371 m 483.207,145.418 9.133,40.672 m -147.804,903.434 -12.895,-31.504"
         id="path51" />
    </g>
  </g>
</svg>
