<?xml version="1.0" encoding="UTF-8" standalone="no"?>
<svg
   width="1061.337"
   height="606.49103"
   version="1.1"
   id="svg58"
   sodipodi:docname="ann_1.svg"
   inkscape:version="1.3 (0e150ed6c4, 2023-07-21)"
   xmlns:inkscape="http://www.inkscape.org/namespaces/inkscape"
   xmlns:sodipodi="http://sodipodi.sourceforge.net/DTD/sodipodi-0.dtd"
   xmlns="http://www.w3.org/2000/svg"
   xmlns:svg="http://www.w3.org/2000/svg">
  <sodipodi:namedview
     id="namedview58"
     pagecolor="#121212"
     bordercolor="#666666"
     borderopacity="1.0"
     inkscape:showpageshadow="2"
     inkscape:pageopacity="0.0"
     inkscape:pagecheckerboard="0"
     inkscape:deskcolor="#d1d1d1"
     showguides="true"
     inkscape:zoom="1.1854167"
     inkscape:cx="267.41651"
     inkscape:cy="77.60984"
     inkscape:window-width="1920"
     inkscape:window-height="1043"
     inkscape:window-x="0"
     inkscape:window-y="0"
     inkscape:window-maximized="1"
     inkscape:current-layer="svg58" />
  <g
     transform="matrix(3.1166583,0,0,3.1166583,-2599.8199,-1146.6297)"
     id="g58">
    <path
       class="link"
       style="fill:none;stroke:#e5e5e5;stroke-width:1.56px;stroke-opacity:1"
       marker-end=""
       d="M 868,434.5 957,450"
       id="path1" />
    <path
       class="link"
       style="fill:none;stroke:#e5e5e5;stroke-width:1.56px;stroke-opacity:1"
       marker-end=""
       d="M 868,434.5 957,484"
       id="path2" />
    <path
       class="link"
       style="fill:none;stroke:#e5e5e5;stroke-width:1.56px;stroke-opacity:1"
       marker-end=""
       d="M 868,434.5 957,518"
       id="path3" />
    <path
       class="link"
       style="fill:none;stroke:#e5e5e5;stroke-width:1.56px;stroke-opacity:1"
       marker-end=""
       d="M 868,434.5 957,552"
       id="path4" />
    <path
       class="link"
       style="fill:none;stroke:#e5e5e5;stroke-width:1.56px;stroke-opacity:1"
       marker-end=""
       d="M 868,467.5 957,450"
       id="path5" />
    <path
       class="link"
       style="fill:none;stroke:#e5e5e5;stroke-width:1.56px;stroke-opacity:1"
       marker-end=""
       d="M 868,467.5 957,484"
       id="path6" />
    <path
       class="link"
       style="fill:none;stroke:#e5e5e5;stroke-width:1.56px;stroke-opacity:1"
       marker-end=""
       d="M 868,467.5 957,518"
       id="path7" />
    <path
       class="link"
       style="fill:none;stroke:#e5e5e5;stroke-width:1.56px;stroke-opacity:1"
       marker-end=""
       d="M 868,467.5 957,552"
       id="path8" />
    <path
       class="link"
       style="fill:none;stroke:#e5e5e5;stroke-width:1.56px;stroke-opacity:1"
       marker-end=""
       d="M 868,500.5 957,450"
       id="path9" />
    <path
       class="link"
       style="fill:none;stroke:#e5e5e5;stroke-width:1.56px;stroke-opacity:1"
       marker-end=""
       d="M 868,500.5 957,484"
       id="path10" />
    <path
       class="link"
       style="fill:none;stroke:#e5e5e5;stroke-width:1.56px;stroke-opacity:1"
       marker-end=""
       d="M 868,500.5 957,518"
       id="path11" />
    <path
       class="link"
       style="fill:none;stroke:#e5e5e5;stroke-width:1.56px;stroke-opacity:1"
       marker-end=""
       d="M 868,500.5 957,552"
       id="path12" />
    <path
       class="link"
       style="fill:none;stroke:#e5e5e5;stroke-width:1.56px;stroke-opacity:1"
       marker-end=""
       d="M 868,533.5 957,450"
       id="path13" />
    <path
       class="link"
       style="fill:none;stroke:#e5e5e5;stroke-width:1.56px;stroke-opacity:1"
       marker-end=""
       d="M 868,533.5 957,484"
       id="path14" />
    <path
       class="link"
       style="fill:none;stroke:#e5e5e5;stroke-width:1.56px;stroke-opacity:1"
       marker-end=""
       d="M 868,533.5 957,518"
       id="path15" />
    <path
       class="link"
       style="fill:none;stroke:#e5e5e5;stroke-width:1.56px;stroke-opacity:1"
       marker-end=""
       d="M 868,533.5 957,552"
       id="path16" />
    <path
       class="link"
       style="fill:none;stroke:#e5e5e5;stroke-width:1.56px;stroke-opacity:1"
       marker-end=""
       d="m 957,416 89,35"
       id="path17" />
    <path
       class="link"
       style="fill:none;stroke:#e5e5e5;stroke-width:1.56px;stroke-opacity:1"
       marker-end=""
       d="m 957,416 89,68"
       id="path18" />
    <path
       class="link"
       style="fill:none;stroke:#e5e5e5;stroke-width:1.56px;stroke-opacity:1"
       marker-end=""
       d="m 957,416 89,101"
       id="path19" />
    <path
       class="link"
       style="fill:none;stroke:#e5e5e5;stroke-width:1.56px;stroke-opacity:1"
       marker-end=""
       d="m 957,416 89,134"
       id="path20" />
    <path
       class="link"
       style="fill:none;stroke:#e5e5e5;stroke-width:1.56px;stroke-opacity:1"
       marker-end=""
       d="m 957,450 89,1"
       id="path21" />
    <path
       class="link"
       style="fill:none;stroke:#e5e5e5;stroke-width:1.56px;stroke-opacity:1"
       marker-end=""
       d="m 957,450 89,34"
       id="path22" />
    <path
       class="link"
       style="fill:none;stroke:#e5e5e5;stroke-width:1.56px;stroke-opacity:1"
       marker-end=""
       d="m 957,450 89,67"
       id="path23" />
    <path
       class="link"
       style="fill:none;stroke:#e5e5e5;stroke-width:1.56px;stroke-opacity:1"
       marker-end=""
       d="m 957,450 89,100"
       id="path24" />
    <path
       class="link"
       style="fill:none;stroke:#e5e5e5;stroke-width:1.56px;stroke-opacity:1"
       marker-end=""
       d="m 957,484 89,-33"
       id="path25" />
    <path
       class="link"
       style="fill:none;stroke:#e5e5e5;stroke-width:1.56px;stroke-opacity:1"
       marker-end=""
       d="m 957,484 h 89"
       id="path26" />
    <path
       class="link"
       style="fill:none;stroke:#e5e5e5;stroke-width:1.56px;stroke-opacity:1"
       marker-end=""
       d="m 957,484 89,33"
       id="path27" />
    <path
       class="link"
       style="fill:none;stroke:#e5e5e5;stroke-width:1.56px;stroke-opacity:1"
       marker-end=""
       d="m 957,484 89,66"
       id="path28" />
    <path
       class="link"
       style="fill:none;stroke:#e5e5e5;stroke-width:1.56px;stroke-opacity:1"
       marker-end=""
       d="m 957,518 89,-67"
       id="path29" />
    <path
       class="link"
       style="fill:none;stroke:#e5e5e5;stroke-width:1.56px;stroke-opacity:1"
       marker-end=""
       d="m 957,518 89,-34"
       id="path30" />
    <path
       class="link"
       style="fill:none;stroke:#e5e5e5;stroke-width:1.56px;stroke-opacity:1"
       marker-end=""
       d="m 957,518 89,-1"
       id="path31" />
    <path
       class="link"
       style="fill:none;stroke:#e5e5e5;stroke-width:1.56px;stroke-opacity:1"
       marker-end=""
       d="m 957,518 89,32"
       id="path32" />
    <path
       class="link"
       style="fill:none;stroke:#e5e5e5;stroke-width:1.56px;stroke-opacity:1"
       marker-end=""
       d="m 957,552 89,-101"
       id="path33" />
    <path
       class="link"
       style="fill:none;stroke:#e5e5e5;stroke-width:1.56px;stroke-opacity:1"
       marker-end=""
       d="m 957,552 89,-68"
       id="path34" />
    <path
       class="link"
       style="fill:none;stroke:#e5e5e5;stroke-width:1.56px;stroke-opacity:1"
       marker-end=""
       d="m 957,552 89,-35"
       id="path35" />
    <path
       class="link"
       style="fill:none;stroke:#e5e5e5;stroke-width:1.56px;stroke-opacity:1"
       marker-end=""
       d="m 957,552 89,-2"
       id="path36" />
    <path
       class="link"
       style="fill:none;stroke:#e5e5e5;stroke-width:1.56px;stroke-opacity:1"
       marker-end=""
       d="m 1046,418 89,49.5"
       id="path37" />
    <path
       class="link"
       style="fill:none;stroke:#e5e5e5;stroke-width:1.56px;stroke-opacity:1"
       marker-end=""
       d="m 1046,451 89,16.5"
       id="path38" />
    <path
       class="link"
       style="fill:none;stroke:#e5e5e5;stroke-width:1.56px;stroke-opacity:1"
       marker-end=""
       d="m 1046,484 89,-16.5"
       id="path39" />
    <path
       class="link"
       style="fill:none;stroke:#e5e5e5;stroke-width:1.56px;stroke-opacity:1"
       marker-end=""
       d="m 1046,517 89,-49.5"
       id="path40" />
    <path
       class="link"
       style="fill:none;stroke:#e5e5e5;stroke-width:1.56px;stroke-opacity:1"
       marker-end=""
       d="m 1046,550 89,-82.5"
       id="path41" />
    <path
       class="link"
       style="fill:none;stroke:#e5e5e5;stroke-width:1.56px;stroke-opacity:1"
       marker-end=""
       d="m 1046,418 89,82.5"
       id="path42" />
    <path
       class="link"
       style="fill:none;stroke:#e5e5e5;stroke-width:1.56px;stroke-opacity:1"
       marker-end=""
       d="m 1046,451 89,49.5"
       id="path43" />
    <path
       class="link"
       style="fill:none;stroke:#e5e5e5;stroke-width:1.56px;stroke-opacity:1"
       marker-end=""
       d="m 1046,484 89,16.5"
       id="path44" />
    <path
       class="link"
       style="fill:none;stroke:#e5e5e5;stroke-width:1.56px;stroke-opacity:1"
       marker-end=""
       d="m 1046,517 89,-16.5"
       id="path45" />
    <path
       class="link"
       style="fill:none;stroke:#e5e5e5;stroke-width:1.56px;stroke-opacity:1"
       marker-end=""
       d="m 1046,550 89,-49.5"
       id="path46" />
    <path
       class="link"
       style="fill:none;stroke:#e5e5e5;stroke-width:1.56px;stroke-opacity:1"
       marker-end=""
       d="M 868,434.5 957,416"
       id="path47" />
    <path
       class="link"
       style="fill:none;stroke:#e5e5e5;stroke-width:1.56px;stroke-opacity:1"
       marker-end=""
       d="M 868,467.5 957,416"
       id="path48" />
    <path
       class="link"
       style="fill:none;stroke:#e5e5e5;stroke-width:1.56px;stroke-opacity:1"
       marker-end=""
       d="M 868,500.5 957,416"
       id="path49" />
    <path
       class="link"
       style="fill:none;stroke:#e5e5e5;stroke-width:1.56px;stroke-opacity:1"
       marker-end=""
       d="M 868,533.5 957,416"
       id="path50" />
    <path
       class="link"
       style="fill:none;stroke:#e5e5e5;stroke-width:1.56px;stroke-opacity:1"
       marker-end=""
       d="m 957,416 89,2"
       id="path51" />
    <path
       class="link"
       style="fill:none;stroke:#e5e5e5;stroke-width:1.56px;stroke-opacity:1"
       marker-end=""
       d="m 957,450 89,-32"
       id="path52" />
    <path
       class="link"
       style="fill:none;stroke:#e5e5e5;stroke-width:1.56px;stroke-opacity:1"
       marker-end=""
       d="m 957,484 89,-66"
       id="path53" />
    <path
       class="link"
       style="fill:none;stroke:#e5e5e5;stroke-width:1.56px;stroke-opacity:1"
       marker-end=""
       d="m 957,518 89,-100"
       id="path54" />
    <path
       class="link"
       style="fill:none;stroke:#e5e5e5;stroke-width:1.56px;stroke-opacity:1"
       marker-end=""
       d="m 957,552 89,-134"
       id="path55" />
    <path
       id="0_0"
       style="fill:#35b996;stroke:#121212;stroke-width:1.28343"
       class="node"
       d="m 878,434.5 a 10,10 0 0 1 -10,10 10,10 0 0 1 -10,-10 10,10 0 0 1 10,-10 10,10 0 0 1 10,10 z" />
    <path
       id="0_1"
       style="fill:#35b996;stroke:#121212;stroke-width:1.28343"
       class="node"
       d="m 878,467.5 a 10,10 0 0 1 -10,10 10,10 0 0 1 -10,-10 10,10 0 0 1 10,-10 10,10 0 0 1 10,10 z" />
    <path
       id="0_2"
       style="fill:#35b996;stroke:#121212;stroke-width:1.28343"
       class="node"
       d="m 878,500.5 a 10,10 0 0 1 -10,10 10,10 0 0 1 -10,-10 10,10 0 0 1 10,-10 10,10 0 0 1 10,10 z" />
    <path
       id="0_3"
       style="fill:#35b996;stroke:#121212;stroke-width:1.28343"
       class="node"
       d="m 878,533.5 a 10,10 0 0 1 -10,10 10,10 0 0 1 -10,-10 10,10 0 0 1 10,-10 10,10 0 0 1 10,10 z" />
    <path
       id="1_0"
       style="fill:#35b996;stroke:#121212;stroke-width:1.28343"
       class="node"
       d="m 967,416 a 10,10 0 0 1 -10,10 10,10 0 0 1 -10,-10 10,10 0 0 1 10,-10 10,10 0 0 1 10,10 z" />
    <path
       id="1_1"
       style="fill:#35b996;stroke:#121212;stroke-width:1.28343"
       class="node"
       d="m 967,450 a 10,10 0 0 1 -10,10 10,10 0 0 1 -10,-10 10,10 0 0 1 10,-10 10,10 0 0 1 10,10 z" />
    <path
       id="1_2"
       style="fill:#35b996;stroke:#121212;stroke-width:1.28343"
       class="node"
       d="m 967,484 a 10,10 0 0 1 -10,10 10,10 0 0 1 -10,-10 10,10 0 0 1 10,-10 10,10 0 0 1 10,10 z" />
    <path
       id="1_3"
       style="fill:#35b996;stroke:#121212;stroke-width:1.28343"
       class="node"
       d="m 967,518 a 10,10 0 0 1 -10,10 10,10 0 0 1 -10,-10 10,10 0 0 1 10,-10 10,10 0 0 1 10,10 z" />
    <path
       id="1_4"
       style="fill:#35b996;stroke:#121212;stroke-width:1.28343"
       class="node"
       d="m 967,552 a 10,10 0 0 1 -10,10 10,10 0 0 1 -10,-10 10,10 0 0 1 10,-10 10,10 0 0 1 10,10 z" />
    <path
       id="2_0"
       style="fill:#35b996;stroke:#121212;stroke-width:1.28343"
       class="node"
       d="m 1056,418 a 10,10 0 0 1 -10,10 10,10 0 0 1 -10,-10 10,10 0 0 1 10,-10 10,10 0 0 1 10,10 z" />
    <path
       id="2_1"
       style="fill:#35b996;stroke:#121212;stroke-width:1.28343"
       class="node"
       d="m 1056,451 a 10,10 0 0 1 -10,10 10,10 0 0 1 -10,-10 10,10 0 0 1 10,-10 10,10 0 0 1 10,10 z" />
    <path
       id="2_2"
       style="fill:#35b996;stroke:#121212;stroke-width:1.28343"
       class="node"
       d="m 1056,484 a 10,10 0 0 1 -10,10 10,10 0 0 1 -10,-10 10,10 0 0 1 10,-10 10,10 0 0 1 10,10 z" />
    <path
       id="2_3"
       style="fill:#35b996;stroke:#121212;stroke-width:1.28343"
       class="node"
       d="m 1056,517 a 10,10 0 0 1 -10,10 10,10 0 0 1 -10,-10 10,10 0 0 1 10,-10 10,10 0 0 1 10,10 z" />
    <path
       id="2_4"
       style="fill:#35b996;stroke:#121212;stroke-width:1.28343"
       class="node"
       d="m 1056,550 a 10,10 0 0 1 -10,10 10,10 0 0 1 -10,-10 10,10 0 0 1 10,-10 10,10 0 0 1 10,10 z" />
    <path
       id="3_0"
       style="fill:#35b996;stroke:#121212;stroke-width:1.28343"
       class="node"
       d="m 1145,467.5 a 10,10 0 0 1 -10,10 10,10 0 0 1 -10,-10 10,10 0 0 1 10,-10 10,10 0 0 1 10,10 z" />
    <path
       id="3_1"
       style="fill:#35b996;stroke:#121212;stroke-width:1.28343"
       class="node"
       d="m 1145,500.5 a 10,10 0 0 1 -10,10 10,10 0 0 1 -10,-10 10,10 0 0 1 10,-10 10,10 0 0 1 10,10 z" />
  </g>
  <defs
     id="defs58">
    <marker
       id="arrow"
       viewBox="0 -5 10 10"
       markerWidth="7"
       markerHeight="7"
       orient="auto"
       refX="40">
      <path
         d="M 0,-5 10,0 0,5"
         style="fill:#505050;stroke:#505050"
         id="path58" />
    </marker>
  </defs>
  <path
     style="font-size:40px;line-height:1.25;font-family:Roboto;-inkscape-font-specification:'Roboto, Normal';font-variant-caps:small-caps;fill:#e5e5e5"
     d="M 3.75,88.4375 H 0 V 60 h 3.75 z m 25.273437,0 h -3.59375 L 13.613281,71.328125 V 88.4375 H 10 V 65.683594 h 3.613281 L 25.429687,82.8125 V 65.683594 h 3.59375 z m 9.023438,-8.554688 V 88.4375 H 34.433594 V 65.683594 h 9.121093 q 3.984375,0 6.347657,1.953125 2.363281,1.933593 2.363281,5.214843 0,3.320313 -2.285156,5.175782 -2.285157,1.855468 -6.464844,1.855468 z m 0,-2.96875 h 5.507812 q 2.421875,0 3.75,-1.035156 1.328125,-1.035156 1.328125,-2.988281 0,-1.875 -1.328125,-3.027344 -1.328125,-1.171875 -3.652343,-1.191406 H 38.046875 Z M 73.730469,65.683594 v 15.234375 q 0,3.554687 -2.441407,5.703125 Q 68.847656,88.75 64.765625,88.75 q -4.101563,0 -6.503906,-2.050781 -2.402344,-2.070313 -2.460938,-5.625 V 65.683594 H 59.375 v 15.234375 q 0,2.363281 1.386719,3.632812 1.40625,1.25 4.003906,1.25 2.558594,0 3.945312,-1.230469 1.40625,-1.25 1.40625,-3.652343 V 65.683594 Z m 22.167968,2.988281 H 88.105469 V 88.4375 H 84.492187 V 68.671875 h -7.753906 v -2.988281 h 19.160156 z m 17.773443,16.699219 h 13.47656 V 88.4375 h -17.2461 V 60 h 3.76954 z m 31.1914,-2.382813 h -10.15625 l -2.14844,5.449219 h -3.6914 l 9.35547,-22.753906 h 3.24218 l 9.21875,22.753906 h -3.67187 z m -8.98437,-2.949219 h 7.83203 l -3.88672,-9.941406 z m 24.33593,-3.046875 6.09375,-11.308593 h 4.0625 l -8.39843,14.804687 V 88.4375 h -3.61329 v -8.164063 l -8.28125,-14.589843 h 4.0625 z m 27.14844,1.171875 h -10.39062 v 7.324219 H 189.0625 V 88.4375 H 173.35937 V 65.683594 h 15.58594 v 2.988281 h -11.97265 v 6.523437 h 10.39062 z m 14.55078,1.503907 h -5.44922 V 88.4375 h -3.61328 V 65.683594 h 8.32031 q 4.16016,0 6.40625,1.816406 2.26563,1.816406 2.26563,5.136719 0,4.453125 -4.58984,6.191406 l 5.625,9.414062 V 88.4375 h -3.86719 z m -5.44922,-2.949219 h 4.80469 q 2.28516,0 3.61328,-1.054688 1.34766,-1.074218 1.34766,-2.890625 0,-1.953125 -1.3086,-3.027343 -1.30859,-1.074219 -3.76953,-1.074219 h -4.6875 z"
     id="text59"
     aria-label="Input Layer" />
  <path
     style="font-size:40px;line-height:1.25;font-family:Roboto;-inkscape-font-specification:'Roboto, Normal';font-variant-caps:small-caps;fill:#e5e5e5"
     d="m 416.49347,28.4375 h -3.76953 V 15.292969 H 398.388 V 28.4375 h -3.75 V 0 h 3.75 v 12.226563 h 14.33594 V 0 h 3.76953 z m 9.94141,0 h -3.63282 V 5.6835937 h 3.63282 z m 5.64453,0 V 5.6835937 h 7.05078 q 3.16406,0 5.60547,1.3085938 2.46093,1.2890625 3.82812,3.6914065 1.36719,2.402344 1.42578,5.507812 v 1.503906 q 0,4.921875 -3.04687,7.832032 -3.02735,2.910156 -8.16406,2.910156 z m 3.61328,-19.765625 v 16.816406 h 3.20312 q 3.63282,0 5.56641,-2.03125 1.93359,-2.03125 1.93359,-5.78125 v -1.25 q 0,-3.75 -1.85547,-5.742187 -1.83593,-2.011719 -5.41015,-2.011719 z M 454.57941,28.4375 V 5.6835937 h 7.05078 q 3.16406,0 5.60547,1.3085938 2.46093,1.2890625 3.82812,3.6914065 1.36719,2.402344 1.42578,5.507812 v 1.503906 q 0,4.921875 -3.04687,7.832032 -3.02735,2.910156 -8.16406,2.910156 z m 3.61328,-19.765625 v 16.816406 h 3.20312 q 3.63282,0 5.56641,-2.03125 1.93359,-2.03125 1.93359,-5.78125 v -1.25 q 0,-3.75 -1.85547,-5.742187 -1.83593,-2.011719 -5.41015,-2.011719 z m 32.89062,9.492187 h -10.39062 v 7.324219 h 12.08984 V 28.4375 H 477.07941 V 5.6835937 h 15.58593 V 8.671875 h -11.97265 v 6.523438 h 10.39062 z M 515.59503,28.4375 h -3.59375 L 500.18488,11.328125 V 28.4375 h -3.61329 V 5.6835937 h 3.61329 L 512.00128,22.8125 V 5.6835937 h 3.59375 z m 19.6875,-3.066406 h 13.47656 V 28.4375 H 531.513 V 0 h 3.76953 z m 31.19141,-2.382813 h -10.15625 l -2.14844,5.449219 h -3.69141 l 9.35547,-22.7539063 h 3.24219 L 572.29425,28.4375 h -3.67187 z m -8.98438,-2.949219 h 7.83203 l -3.88671,-9.941406 z m 24.33594,-3.046875 6.09375,-11.3085933 h 4.0625 L 583.58331,20.488281 V 28.4375 h -3.61328 V 20.273437 L 571.68878,5.6835937 h 4.0625 z m 27.14844,1.171875 h -10.39063 v 7.324219 h 12.08985 V 28.4375 H 594.97003 V 5.6835937 h 15.58594 V 8.671875 h -11.97266 v 6.523438 h 10.39063 z m 14.55078,1.503907 H 618.0755 V 28.4375 h -3.61328 V 5.6835937 h 8.32031 q 4.16016,0 6.40625,1.8164063 2.26563,1.8164063 2.26563,5.136719 0,4.453125 -4.58985,6.191406 l 5.625,9.414062 V 28.4375 h -3.86718 z M 618.0755,16.71875 h 4.80469 q 2.28515,0 3.61328,-1.054687 1.34766,-1.074219 1.34766,-2.890625 0,-1.953125 -1.3086,-3.0273442 Q 625.22394,8.671875 622.763,8.671875 h -4.6875 z m 30.82031,5.898437 q 0,-1.5625 -1.1914,-2.421875 -1.17188,-0.859375 -4.04297,-1.582031 -2.8711,-0.722656 -4.55078,-1.5625 -3.8086,-1.914062 -3.8086,-5.410156 0,-2.7929687 2.36328,-4.53125 2.38282,-1.7382813 6.11329,-1.7382813 3.82812,0 6.25,1.953125 2.4414,1.9531251 2.4414,5.0000003 h -3.61328 q 0,-1.914063 -1.38672,-2.949219 -1.36719,-1.0546875 -3.73047,-1.0546875 -2.20703,0 -3.51562,0.8789063 -1.3086,0.8593752 -1.3086,2.4218752 0,1.269531 1.19141,2.128906 1.21094,0.859375 4.25781,1.640625 3.04688,0.78125 4.76563,1.777344 1.71875,0.976562 2.55859,2.304687 0.83985,1.328125 0.83985,3.105469 0,2.871094 -2.38282,4.53125 -2.36328,1.640625 -6.25,1.640625 -4.04297,0 -6.71875,-1.972656 -2.65625,-1.992188 -2.65625,-5.15625 h 3.63282 q 0,1.992187 1.5039,3.105468 1.50391,1.113282 4.23828,1.113282 2.46094,0 3.73047,-0.878907 1.26953,-0.898437 1.26953,-2.34375 z"
     id="text59-5"
     aria-label="Hidden Layers" />
  <path
     style="font-size:40px;line-height:1.25;font-family:Roboto;-inkscape-font-specification:'Roboto, Normal';font-variant-caps:small-caps;fill:#e5e5e5"
     d="m 836.70831,75.292969 q 0,4.179687 -1.40625,7.304687 -1.40625,3.105469 -3.98437,4.746094 -2.57813,1.640625 -6.01563,1.640625 -3.35937,0 -5.95703,-1.640625 -2.59765,-1.660156 -4.04297,-4.707031 -1.42578,-3.066407 -1.46484,-7.089844 v -2.050781 q 0,-4.101563 1.42578,-7.246094 1.42578,-3.144531 4.02344,-4.804688 2.61719,-1.679687 5.97656,-1.679687 3.41797,0 6.01563,1.660156 2.61718,1.640625 4.02343,4.785156 1.40625,3.125 1.40625,7.285157 z m -3.73047,-1.835938 q 0,-5.058594 -2.03125,-7.753906 -2.03125,-2.714844 -5.68359,-2.714844 -3.55469,0 -5.60547,2.714844 -2.03125,2.695312 -2.08984,7.5 v 2.089844 q 0,4.902343 2.05078,7.714843 2.07031,2.792969 5.68359,2.792969 3.63282,0 5.625,-2.636719 1.99219,-2.65625 2.05078,-7.597656 z m 26.25,-7.617187 v 15.234375 q 0,3.554687 -2.4414,5.703125 -2.44141,2.128906 -6.52344,2.128906 -4.10156,0 -6.50391,-2.050781 -2.40234,-2.070313 -2.46093,-5.625 V 65.839844 h 3.57422 v 15.234375 q 0,2.363281 1.38671,3.632812 1.40625,1.25 4.00391,1.25 2.55859,0 3.94531,-1.230469 1.40625,-1.25 1.40625,-3.652343 V 65.839844 Z m 22.16797,2.988281 h -7.79297 V 88.59375 h -3.61328 V 68.828125 h -7.7539 v -2.988281 h 19.16015 z m 7.10938,11.210937 v 8.554688 h -3.61328 V 65.839844 h 9.12109 q 3.98438,0 6.34766,1.953125 2.36328,1.933593 2.36328,5.214843 0,3.320313 -2.28516,5.175782 -2.28515,1.855468 -6.46484,1.855468 z m 0,-2.96875 h 5.50781 q 2.42188,0 3.75,-1.035156 1.32813,-1.035156 1.32813,-2.988281 0,-1.875 -1.32813,-3.027344 -1.32812,-1.171875 -3.65234,-1.191406 h -5.60547 z m 35.68359,-11.230468 v 15.234375 q 0,3.554687 -2.4414,5.703125 -2.44141,2.128906 -6.52344,2.128906 -4.10156,0 -6.50391,-2.050781 -2.40234,-2.070313 -2.46094,-5.625 V 65.839844 h 3.57422 v 15.234375 q 0,2.363281 1.38672,3.632812 1.40625,1.25 4.00391,1.25 2.55859,0 3.94531,-1.230469 1.40625,-1.25 1.40625,-3.652343 V 65.839844 Z m 22.16797,2.988281 h -7.79297 V 88.59375 H 934.9505 V 68.828125 h -7.75391 v -2.988281 h 19.16016 z m 17.77344,16.699219 h 13.47656 v 3.066406 h -17.24609 v -28.4375 h 3.76953 z m 31.1914,-2.382813 h -10.15625 l -2.14843,5.449219 h -3.69141 l 9.35547,-22.753906 h 3.24219 l 9.21874,22.753906 h -3.67187 z m -8.98437,-2.949219 h 7.83203 l -3.88672,-9.941406 z m 24.33598,-3.046875 6.0937,-11.308593 h 4.0625 l -8.3984,14.804687 v 7.949219 h -3.6133 v -8.164063 l -8.2813,-14.589843 h 4.0625 z m 27.1484,1.171875 h -10.3906 v 7.324219 h 12.0898 v 2.949219 h -15.7031 V 65.839844 h 15.5859 v 2.988281 h -11.9726 v 6.523437 h 10.3906 z m 14.5508,1.503907 h -5.4492 v 8.769531 h -3.6133 V 65.839844 h 8.3203 q 4.1601,0 6.4062,1.816406 2.2657,1.816406 2.2657,5.136719 0,4.453125 -4.5899,6.191406 l 5.625,9.414062 V 88.59375 H 1057.47 Z M 1046.9232,76.875 h 4.8046 q 2.2852,0 3.6133,-1.054688 1.3477,-1.074218 1.3477,-2.890625 0,-1.953125 -1.3086,-3.027343 -1.3086,-1.074219 -3.7695,-1.074219 h -4.6875 z"
     id="text59-3"
     aria-label="Output Layer" />
  <path
     style="fill:none;stroke:#e5e5e5;stroke-width:1px;stroke-linecap:butt;stroke-linejoin:miter;stroke-opacity:1"
     d="M 382.82206,95.95187 V 68.30866 h 138.0132 V 43.31744"
     id="path62"
     sodipodi:nodetypes="cccc" />
  <path
     style="fill:none;stroke:#e5e5e5;stroke-width:1px;stroke-linecap:butt;stroke-linejoin:miter;stroke-opacity:1"
     d="M 658.84846,95.95187 V 68.30866 h -138.0132"
     id="path62-1"
     sodipodi:nodetypes="ccc" />
</svg>
