<?xml version="1.0" encoding="UTF-8" standalone="no"?>
<!-- Created with Inkscape (http://www.inkscape.org/) -->

<svg
   width="210mm"
   height="167.5mm"
   viewBox="0 0 210 167.5"
   version="1.1"
   id="svg1"
   inkscape:version="1.3 (0e150ed6c4, 2023-07-21)"
   sodipodi:docname="energy_classification.svg"
   xmlns:inkscape="http://www.inkscape.org/namespaces/inkscape"
   xmlns:sodipodi="http://sodipodi.sourceforge.net/DTD/sodipodi-0.dtd"
   xmlns="http://www.w3.org/2000/svg"
   xmlns:svg="http://www.w3.org/2000/svg">
  <sodipodi:namedview
     id="namedview1"
     pagecolor="#121212"
     bordercolor="#666666"
     borderopacity="1.0"
     inkscape:showpageshadow="2"
     inkscape:pageopacity="0.0"
     inkscape:pagecheckerboard="0"
     inkscape:deskcolor="#d1d1d1"
     inkscape:document-units="mm"
     inkscape:zoom="0.7952843"
     inkscape:cx="373.45136"
     inkscape:cy="345.78829"
     inkscape:window-width="1920"
     inkscape:window-height="1043"
     inkscape:window-x="0"
     inkscape:window-y="0"
     inkscape:window-maximized="1"
     inkscape:current-layer="layer1"
     showguides="true" />
  <defs
     id="defs1" />
  <g
     inkscape:label="Layer 1"
     inkscape:groupmode="layer"
     id="layer1">
    <g
       id="g1"
       transform="matrix(0.78567862,0,0,0.78567862,79.790434,24.23185)">
      <g
         id="g2">
        <path
           id="polyline48"
           style="fill:#35b996;fill-opacity:1;stroke:#e5e6e6;stroke-width:1.03926;stroke-dasharray:none;stroke-opacity:1"
           d="m -100.20367,-17.111291 12.494517,97.7513 3.041929,23.799221 5.51564,43.15145 54.611077,10.35235 56.293234,10.67131 L 60.04561,6.9168805 -0.35762338,-2.1400239 Z m 5.126084,8.3132969 8.707074,9.5136998 9.938768,75.6873673 -7.671941,0.654801 z m 35.074945,3.9896155 23.998304,3.5983973 1.075576,5.3689305 -22.250364,-3.37130268 z M 22.036853,6.6662716 31.216254,8.0427583 26.287692,14.006479 17.976267,12.747054 Z M 53.030928,16.423246 44.19931,66.897422 38.417242,67.321224 46.298913,21.423577 Z M -81.141927,82.12749 h 5.304274 l 1.982574,15.097704 -7.245706,3.524636 -2.329345,-18.223122 z M 37.3415,83.336638 39.166084,83.65002 38.059017,89.97601 36.294618,89.433659 Z M -75.406723,105.92692 h 0.706705 l 3.474034,26.45887 -3.026398,3.68586 -3.651082,-28.56278 z m 11.111912,30.64502 13.117038,2.54303 v 0.32649 l -3.279375,7.45896 -14.958345,-2.8355 z m 25.1886,7.23202 8.01095,1.55331 -0.394975,2.99965 -8.345718,-1.58226 z m 21.391777,0.67918 34.458745,6.68083 5.478026,11.41166 -39.399311,-7.46861 z" />
        <path
           id="polyline2"
           style="fill:none;stroke:#e5e5e5;stroke-width:8.63382;stroke-linecap:round"
           transform="matrix(0.12037006,0,0,0.12037006,-268.6368,-67.320828)"
           d="m 1590.5917,1407.1794 h 125.4896 l 45.6349,-34.0561" />
        <path
           id="polyline4"
           style="fill:none;stroke:#e5e5e5;stroke-width:8.63382;stroke-linecap:round"
           transform="matrix(0.12037006,0,0,0.12037006,-268.6368,-67.320828)"
           d="m 1895.4879,1407.1794 h 125.4896 l 4.4595,-34.0561" />
        <path
           id="polyline6"
           style="fill:none;stroke:#e5e5e5;stroke-width:8.63382;stroke-linecap:round"
           transform="matrix(0.12037006,0,0,0.12037006,-268.6368,-67.320828)"
           d="m 2074.2227,1382.7222 2.1721,24.4572 h 125.4892" />
        <path
           id="polyline8"
           style="fill:none;stroke:#e5e5e5;stroke-width:8.63382;stroke-linecap:round"
           transform="matrix(0.12037006,0,0,0.12037006,-268.6368,-67.320828)"
           d="m 2189.0857,970.66187 21.0915,-28.78113 V 816.39111" />
        <path
           id="polyline10"
           style="fill:none;stroke:#e5e5e5;stroke-width:8.63382;stroke-linecap:round"
           transform="matrix(0.12037006,0,0,0.12037006,-268.6368,-67.320828)"
           d="m 2210.1772,1375.5178 v -125.4896 l -13.8935,-8.4535" />
        <path
           id="polyline12"
           style="fill:none;stroke:#e5e5e5;stroke-width:8.63382;stroke-linecap:round"
           transform="matrix(0.12037006,0,0,0.12037006,-268.6368,-67.320828)"
           d="m 2026.1525,1212.4008 h 125.4893" />
        <path
           id="polyline14"
           style="fill:none;stroke:#e5e5e5;stroke-width:8.63382;stroke-linecap:round"
           transform="matrix(0.12037006,0,0,0.12037006,-268.6368,-67.320828)"
           d="m 1605.3007,1439.2933 -20.7419,13.1419 31.8936,249.5211" />
        <path
           id="polyline16"
           style="fill:none;stroke:#e5e5e5;stroke-width:8.63382;stroke-linecap:round"
           transform="matrix(0.12037006,0,0,0.12037006,-268.6368,-67.320828)"
           d="m 1649.4651,1755.069 129.8772,24.6202 27.2446,-61.9661" />
        <path
           id="polyline18"
           style="fill:none;stroke:#e5e5e5;stroke-width:8.63382;stroke-linecap:round"
           transform="matrix(0.12037006,0,0,0.12037006,-268.6368,-67.320828)"
           d="m 1900.1182,1778.5132 70.7771,13.417" />
        <path
           id="polyline20"
           style="fill:none;stroke:#e5e5e5;stroke-width:8.63382;stroke-linecap:round"
           transform="matrix(0.12037006,0,0,0.12037006,-268.6368,-67.320828)"
           d="m 2470.9045,1705.5647 21.7557,-124.3362 -12.2845,-11.9363" />
        <path
           id="polyline22"
           style="fill:none;stroke:#e5e5e5;stroke-width:8.63382;stroke-linecap:round"
           transform="matrix(0.12037006,0,0,0.12037006,-268.6368,-67.320828)"
           d="m 2083.9976,1747.8918 5.0581,99.9743 337.988,64.0709" />
        <path
           id="polyline24"
           style="fill:none;stroke:#e5e5e5;stroke-width:8.63382;stroke-linecap:round"
           transform="matrix(0.12037006,0,0,0.12037006,-268.6368,-67.320828)"
           d="m 2547.6519,1308.4324 9.4853,-54.2104 -27.3611,-5.3957" />
        <path
           id="polyline26"
           style="fill:none;stroke:#e5e5e5;stroke-width:8.63382;stroke-linecap:round"
           transform="matrix(0.12037006,0,0,0.12037006,-268.6368,-67.320828)"
           d="m 2537.7397,1119.5345 61.2132,-4.4879 75.7453,-432.89475" />
        <path
           id="polyline28"
           style="fill:none;stroke:#e5e5e5;stroke-width:8.63382;stroke-linecap:round"
           transform="matrix(0.12037006,0,0,0.12037006,-268.6368,-67.320828)"
           d="m 2499.2488,627.32141 -84.4155,-12.65759 -41.2503,61.77124" />
        <path
           id="polyline30"
           style="fill:none;stroke:#e5e5e5;stroke-width:8.63382;stroke-linecap:round"
           transform="matrix(0.12037006,0,0,0.12037006,-268.6368,-67.320828)"
           d="m 1557.6531,1241.5747 -19.0086,3.3156 19.9397,155.9992" />
        <path
           id="polyline32"
           style="fill:none;stroke:#e5e5e5;stroke-width:8.63382;stroke-linecap:round"
           transform="matrix(0.12037006,0,0,0.12037006,-268.6368,-67.320828)"
           d="m 1944.1233,606.5332 -11.4799,-57.3031 -209.0151,-31.34045" />
        <path
           id="polyline34"
           style="fill:none;stroke:#e5e5e5;stroke-width:8.63382;stroke-linecap:round"
           transform="matrix(0.12037006,0,0,0.12037006,-268.6368,-67.320828)"
           d="m 1439.1301,464.6759 93.9187,734.78 74.6248,-6.3683" />
        <path
           id="polyline36"
           style="fill:none;stroke:#e5e5e5;stroke-width:8.63382;stroke-linecap:round"
           transform="matrix(0.12037006,0,0,0.12037006,-268.6368,-67.320828)"
           d="m 1806.5869,1800.666 10e-5,-361.3727 h -248.1021" />
        <path
           id="polyline38"
           style="fill:none;stroke:#e5e5e5;stroke-width:8.63382;stroke-linecap:round"
           transform="matrix(0.12037006,0,0,0.12037006,-268.6368,-67.320828)"
           d="M 2016.3652,1840.4329 V 1439.2933 H 1834.8945" />
        <path
           id="polyline40"
           style="fill:none;stroke:#e5e5e5;stroke-width:8.63382;stroke-linecap:round"
           transform="matrix(0.12037006,0,0,0.12037006,-268.6368,-67.320828)"
           d="M 2557.9373,1439.2933 H 2226.6882 2044.6727" />
        <path
           id="polyline42"
           style="fill:none;stroke:#e5e5e5;stroke-width:8.63382;stroke-linecap:round"
           transform="matrix(0.12037006,0,0,0.12037006,-268.6368,-67.320828)"
           d="M 2604.5918,1172.6548 H 2240.842 v 54.7661 183.5649" />
        <path
           id="polyline44"
           style="fill:none;stroke:#e5e5e5;stroke-width:8.63382;stroke-linecap:round"
           transform="matrix(0.12037006,0,0,0.12037006,-268.6368,-67.320828)"
           d="M 2609.5449,1144.3473 H 2240.842 V 571.9342" />
        <path
           id="polyline46"
           style="fill:none;stroke:#e5e5e5;stroke-width:8.63382;stroke-linecap:round"
           transform="matrix(0.12037006,0,0,0.12037006,-268.6368,-67.320828)"
           d="M 2212.5344,1241.5747 H 1533.2129" />
        <path
           id="polyline50"
           style="fill:none;stroke:#e5e5e5;stroke-width:8.63382;stroke-linecap:round"
           transform="matrix(0.12037006,0,0,0.12037006,-268.6368,-67.320828)"
           d="m 1614.8716,1407.1794 38.302,-21.9958 h 56.1631" />
        <path
           id="polyline52"
           style="fill:none;stroke:#e5e5e5;stroke-width:8.63382;stroke-linecap:round"
           transform="matrix(0.12037006,0,0,0.12037006,-268.6368,-67.320828)"
           d="m 1730.1593,1385.1836 h 15.3962" />
        <path
           id="polyline54"
           style="fill:none;stroke:#e5e5e5;stroke-width:8.63382;stroke-linecap:round"
           transform="matrix(0.12037006,0,0,0.12037006,-268.6368,-67.320828)"
           d="m 1903.7931,1407.1794 13.1014,-21.9958 h 31.5513" />
        <path
           id="polyline56"
           style="fill:none;stroke:#e5e5e5;stroke-width:8.63382;stroke-linecap:round"
           transform="matrix(0.12037006,0,0,0.12037006,-268.6368,-67.320828)"
           d="m 1959.0485,1385.1836 h 64.8093" />
        <path
           id="polyline58"
           style="fill:none;stroke:#e5e5e5;stroke-width:8.63382;stroke-linecap:round"
           transform="matrix(0.12037006,0,0,0.12037006,-268.6368,-67.320828)"
           d="m 2074.4414,1385.1836 h 6.3894" />
        <path
           id="polyline60"
           style="fill:none;stroke:#e5e5e5;stroke-width:8.63382;stroke-linecap:round"
           transform="matrix(0.12037006,0,0,0.12037006,-268.6368,-67.320828)"
           d="m 2104.3423,1385.1836 h 77.5705 l 12.2232,21.9958" />
        <path
           id="polyline62"
           style="fill:none;stroke:#e5e5e5;stroke-width:8.63382;stroke-linecap:round"
           transform="matrix(0.12037006,0,0,0.12037006,-268.6368,-67.320828)"
           d="m 2210.1772,1357.4438 -9.031,-11.7063 v -41.0798" />
        <path
           id="polyline64"
           style="fill:none;stroke:#e5e5e5;stroke-width:8.63382;stroke-linecap:round"
           transform="matrix(0.12037006,0,0,0.12037006,-268.6368,-67.320828)"
           d="m 2201.1462,1296.4675 v -51.9343" />
        <path
           id="polyline66"
           style="fill:none;stroke:#e5e5e5;stroke-width:8.63382;stroke-linecap:round"
           transform="matrix(0.12037006,0,0,0.12037006,-268.6368,-67.320828)"
           d="M 2201.1462,954.20447 V 901.14038" />
        <path
           id="polyline68"
           style="fill:none;stroke:#e5e5e5;stroke-width:8.63382;stroke-linecap:round"
           transform="matrix(0.12037006,0,0,0.12037006,-268.6368,-67.320828)"
           d="m 2201.1462,892.87146 v -30.75208 l 9.031,-17.97521" />
        <path
           id="polyline70"
           style="fill:none;stroke:#e5e5e5;stroke-width:8.63382;stroke-linecap:round"
           transform="matrix(0.12037006,0,0,0.12037006,-268.6368,-67.320828)"
           d="m 1655.0745,1756.1323 41.4511,-62.4619 2.1775,0.4224" />
        <path
           id="polyline72"
           style="fill:none;stroke:#e5e5e5;stroke-width:8.63382;stroke-linecap:round"
           transform="matrix(0.12037006,0,0,0.12037006,-268.6368,-67.320828)"
           d="m 1611.1705,1439.2933 28.8642,219.8109 -25.1458,30.6211" />
        <path
           id="polyline74"
           style="fill:none;stroke:#e5e5e5;stroke-width:8.63382;stroke-linecap:round"
           transform="matrix(0.12037006,0,0,0.12037006,-268.6368,-67.320828)"
           d="m 1900.8127,1778.645 6.0649,-24.6904 66.5516,12.9031 -3.283,24.9305" />
        <path
           id="polyline76"
           style="fill:none;stroke:#e5e5e5;stroke-width:8.63382;stroke-linecap:round"
           transform="matrix(0.12037006,0,0,0.12037006,-268.6368,-67.320828)"
           d="m 2472.9861,1693.668 -1.0039,-1.2908 19.3137,-112.4741" />
        <path
           id="polyline78"
           style="fill:none;stroke:#e5e5e5;stroke-width:8.63382;stroke-linecap:round"
           transform="matrix(0.12037006,0,0,0.12037006,-268.6368,-67.320828)"
           d="m 2084.5903,1759.6069 286.2752,55.5025 45.5083,94.8049" />
        <path
           id="polyline80"
           style="fill:none;stroke:#e5e5e5;stroke-width:8.63382;stroke-linecap:round"
           transform="matrix(0.12037006,0,0,0.12037006,-268.6368,-67.320828)"
           d="m 2547.9417,1306.7759 -14.6602,-4.5047 8.7617,-51.0257" />
        <path
           id="polyline82"
           style="fill:none;stroke:#e5e5e5;stroke-width:8.63382;stroke-linecap:round"
           transform="matrix(0.12037006,0,0,0.12037006,-268.6368,-67.320828)"
           d="m 2583.3843,929.49512 33.0093,-192.22986 55.9301,-41.54395" />
        <path
           id="polyline84"
           style="fill:none;stroke:#e5e5e5;stroke-width:8.63382;stroke-linecap:round"
           transform="matrix(0.12037006,0,0,0.12037006,-268.6368,-67.320828)"
           d="m 2491.0925,626.09827 -40.9448,49.54516 -69.0496,-10.46203" />
        <path
           id="polyline86"
           style="fill:none;stroke:#e5e5e5;stroke-width:8.63382;stroke-linecap:round"
           transform="matrix(0.12037006,0,0,0.12037006,-268.6368,-67.320828)"
           d="m 1617.8654,1364.5243 0.3253,2.4769 -60.1952,29.2822" />
        <path
           id="polyline88"
           style="fill:none;stroke:#e5e5e5;stroke-width:8.63382;stroke-linecap:round"
           transform="matrix(0.12037006,0,0,0.12037006,-268.6368,-67.320828)"
           d="m 1941.5791,593.83386 -184.85,-28.00744 -23.457,-46.4906" />
        <path
           id="polyline90"
           style="fill:none;stroke:#e5e5e5;stroke-width:8.63382;stroke-linecap:round"
           transform="matrix(0.12037006,0,0,0.12037006,-268.6368,-67.320828)"
           d="m 1441.8804,486.19141 72.3366,79.03601" />
        <path
           id="polyline92"
           style="fill:none;stroke:#e5e5e5;stroke-width:8.63382;stroke-linecap:round"
           transform="matrix(0.12037006,0,0,0.12037006,-268.6368,-67.320828)"
           d="m 1520.568,613.59143 76.2173,580.42537" />
        <path
           id="polyline158"
           style="fill:none;stroke:#e5e5e5;stroke-width:8.63382;stroke-linecap:round"
           transform="matrix(0.12037006,0,0,0.12037006,-268.6368,-67.320828)"
           d="m 2210.1772,1292.0789 -2.2978,0.7465 -2.5476,3.5066" />
        <path
           id="polyline160"
           style="fill:none;stroke:#e5e5e5;stroke-width:8.63382;stroke-linecap:round"
           transform="matrix(0.12037006,0,0,0.12037006,-268.6368,-67.320828)"
           d="m 2205.7124,1304.502 2.167,2.9825 2.2978,0.7465" />
        <path
           id="polyline178"
           style="fill:none;stroke:#e5e5e5;stroke-width:8.63382;stroke-linecap:round"
           transform="matrix(0.12037006,0,0,0.12037006,-268.6368,-67.320828)"
           d="m 2092.3997,1212.4008 -4.7129,-1.5313 -1.2488,0.4058" />
        <path
           id="polyline182"
           style="fill:none;stroke:#e5e5e5;stroke-width:8.63382;stroke-linecap:round"
           transform="matrix(0.12037006,0,0,0.12037006,-268.6368,-67.320828)"
           d="m 1761.7162,1373.1233 h -3.3472" />
        <path
           id="polyline184"
           style="fill:none;stroke:#e5e5e5;stroke-width:8.63382;stroke-linecap:round"
           transform="matrix(0.12037006,0,0,0.12037006,-268.6368,-67.320828)"
           d="m 1737.5483,1373.1233 h -84.3747 v 12.0603" />
        <path
           id="polyline186"
           style="fill:none;stroke:#e5e5e5;stroke-width:8.63382;stroke-linecap:round"
           transform="matrix(0.12037006,0,0,0.12037006,-268.6368,-67.320828)"
           d="m 2025.437,1373.1233 h -76.2047" />
        <path
           id="polyline188"
           style="fill:none;stroke:#e5e5e5;stroke-width:8.63382;stroke-linecap:round"
           transform="matrix(0.12037006,0,0,0.12037006,-268.6368,-67.320828)"
           d="m 1938.6306,1373.1233 h -21.7361 v 12.0603" />
        <path
           id="polyline190"
           style="fill:none;stroke:#e5e5e5;stroke-width:8.63382;stroke-linecap:round"
           transform="matrix(0.12037006,0,0,0.12037006,-268.6368,-67.320828)"
           d="m 2201.884,1407.1794 -19.9712,-34.0561" />
        <path
           id="polyline192"
           style="fill:none;stroke:#e5e5e5;stroke-width:8.63382;stroke-linecap:round"
           transform="matrix(0.12037006,0,0,0.12037006,-268.6368,-67.320828)"
           d="m 2181.9128,1373.1233 v 12.0603" />
        <path
           id="polyline194"
           style="fill:none;stroke:#e5e5e5;stroke-width:8.63382;stroke-linecap:round"
           transform="matrix(0.12037006,0,0,0.12037006,-268.6368,-67.320828)"
           d="m 2210.1772,816.39111 -21.0915,45.72827 h 12.0605" />
        <path
           id="polyline196"
           style="fill:none;stroke:#e5e5e5;stroke-width:8.63382;stroke-linecap:round"
           transform="matrix(0.12037006,0,0,0.12037006,-268.6368,-67.320828)"
           d="m 2188.2227,1296.9043 v -55.3296" />
        <path
           id="polyline198"
           style="fill:none;stroke:#e5e5e5;stroke-width:8.63382;stroke-linecap:round"
           transform="matrix(0.12037006,0,0,0.12037006,-268.6368,-67.320828)"
           d="m 2188.2227,1241.5747 0.863,55.3005" />
        <path
           id="polyline200"
           style="fill:none;stroke:#e5e5e5;stroke-width:8.63382;stroke-linecap:round"
           transform="matrix(0.12037006,0,0,0.12037006,-268.6368,-67.320828)"
           d="m 2212.5344,1410.9858 -24.3117,-39.2563 v -66.6348" />
        <path
           id="polyline202"
           style="fill:none;stroke:#e5e5e5;stroke-width:8.63382;stroke-linecap:round"
           transform="matrix(0.12037006,0,0,0.12037006,-268.6368,-67.320828)"
           d="m 2188.2227,1305.0947 0.863,40.6428 h 12.0605" />
        <path
           id="polyline204"
           style="fill:none;stroke:#e5e5e5;stroke-width:8.63382;stroke-linecap:round"
           transform="matrix(0.12037006,0,0,0.12037006,-268.6368,-67.320828)"
           d="m 2151.6418,1212.4008 -13.186,-7.7518" />
        <path
           id="polyline206"
           style="fill:none;stroke:#e5e5e5;stroke-width:8.63382;stroke-linecap:round"
           transform="matrix(0.12037006,0,0,0.12037006,-268.6368,-67.320828)"
           d="m 2138.4558,1204.649 v 7.7518" />
        <path
           id="polyline208"
           style="fill:none;stroke:#e5e5e5;stroke-width:8.63382;stroke-linecap:round"
           transform="matrix(0.12037006,0,0,0.12037006,-268.6368,-67.320828)"
           d="m 2138.4558,1204.649 h -56.2407" />
        <path
           id="polyline210"
           style="fill:none;stroke:#e5e5e5;stroke-width:8.63382;stroke-linecap:round"
           transform="matrix(0.12037006,0,0,0.12037006,-268.6368,-67.320828)"
           d="m 1610.0138,1204.3318 h 462.0758" />
        <path
           id="polyline212"
           style="fill:none;stroke:#e5e5e5;stroke-width:8.63382;stroke-linecap:round"
           transform="matrix(0.12037006,0,0,0.12037006,-268.6368,-67.320828)"
           d="m 2072.0896,1204.3318 -42.1764,0.3172 v 7.7518" />
        <path
           id="polyline214"
           style="fill:none;stroke:#e5e5e5;stroke-width:8.63382;stroke-linecap:round"
           transform="matrix(0.12037006,0,0,0.12037006,-268.6368,-67.320828)"
           d="m 1616.4524,1701.9563 35.4973,-44.3735" />
        <path
           id="polyline216"
           style="fill:none;stroke:#e5e5e5;stroke-width:8.63382;stroke-linecap:round"
           transform="matrix(0.12037006,0,0,0.12037006,-268.6368,-67.320828)"
           d="m 1651.9497,1657.5828 -11.9163,1.523" />
        <path
           id="polyline218"
           style="fill:none;stroke:#e5e5e5;stroke-width:8.63382;stroke-linecap:round"
           transform="matrix(0.12037006,0,0,0.12037006,-268.6368,-67.320828)"
           d="m 1806.5869,1702.4177 -107.8451,-20.4436 -2.2176,11.6985" />
        <path
           id="polyline220"
           style="fill:none;stroke:#e5e5e5;stroke-width:8.63382;stroke-linecap:round"
           transform="matrix(0.12037006,0,0,0.12037006,-268.6368,-67.320828)"
           d="m 1970.8953,1791.9302 4.8986,-37.544" />
        <path
           id="polyline222"
           style="fill:none;stroke:#e5e5e5;stroke-width:8.63382;stroke-linecap:round"
           transform="matrix(0.12037006,0,0,0.12037006,-268.6368,-67.320828)"
           d="m 1975.7939,1754.3862 -2.366,12.4815" />
        <path
           id="polyline224"
           style="fill:none;stroke:#e5e5e5;stroke-width:8.63382;stroke-linecap:round"
           transform="matrix(0.12037006,0,0,0.12037006,-268.6368,-67.320828)"
           d="m 1975.7939,1754.3862 -66.6053,-12.6259 -2.3136,12.2048" />
        <path
           id="polyline226"
           style="fill:none;stroke:#e5e5e5;stroke-width:8.63382;stroke-linecap:round"
           transform="matrix(0.12037006,0,0,0.12037006,-268.6368,-67.320828)"
           d="m 2480.3757,1569.2922 -21.1462,120.854 12.7532,2.2317" />
        <path
           id="polyline228"
           style="fill:none;stroke:#e5e5e5;stroke-width:8.63382;stroke-linecap:round"
           transform="matrix(0.12037006,0,0,0.12037006,-268.6368,-67.320828)"
           d="M 2427.0437,1911.937 2373.217,1802.7178" />
        <path
           id="polyline230"
           style="fill:none;stroke:#e5e5e5;stroke-width:8.63382;stroke-linecap:round"
           transform="matrix(0.12037006,0,0,0.12037006,-268.6368,-67.320828)"
           d="m 2373.217,1802.7178 -2.3496,12.3955" />
        <path
           id="polyline232"
           style="fill:none;stroke:#e5e5e5;stroke-width:8.63382;stroke-linecap:round"
           transform="matrix(0.12037006,0,0,0.12037006,-268.6368,-67.320828)"
           d="m 2529.7761,1248.8263 -8.9697,51.2623 12.477,2.1831" />
        <path
           id="polyline234"
           style="fill:none;stroke:#e5e5e5;stroke-width:8.63382;stroke-linecap:round"
           transform="matrix(0.12037006,0,0,0.12037006,-268.6368,-67.320828)"
           d="m 2674.6982,682.15185 -69.7216,53.11377 11.4192,1.99805" />
        <path
           id="polyline236"
           style="fill:none;stroke:#e5e5e5;stroke-width:8.63382;stroke-linecap:round"
           transform="matrix(0.12037006,0,0,0.12037006,-268.6368,-67.320828)"
           d="m 2373.583,676.43506 74.7649,11.21045 1.7998,-12.00208" />
        <path
           id="polyline238"
           style="fill:none;stroke:#e5e5e5;stroke-width:8.63382;stroke-linecap:round"
           transform="matrix(0.12037006,0,0,0.12037006,-268.6368,-67.320828)"
           d="m 1558.5842,1400.8895 71.2834,-35.38" />
        <path
           id="polyline240"
           style="fill:none;stroke:#e5e5e5;stroke-width:8.63382;stroke-linecap:round"
           transform="matrix(0.12037006,0,0,0.12037006,-268.6368,-67.320828)"
           d="m 1629.8676,1365.5095 -11.6792,1.4928" />
        <path
           id="polyline242"
           style="fill:none;stroke:#e5e5e5;stroke-width:8.63382;stroke-linecap:round"
           transform="matrix(0.12037006,0,0,0.12037006,-268.6368,-67.320828)"
           d="m 1723.6283,517.88965 31.2516,60.2677" />
        <path
           id="polyline244"
           style="fill:none;stroke:#e5e5e5;stroke-width:8.63382;stroke-linecap:round"
           transform="matrix(0.12037006,0,0,0.12037006,-268.6368,-67.320828)"
           d="m 1754.8799,578.15735 1.8491,-12.33142" />
        <path
           id="polyline246"
           style="fill:none;stroke:#e5e5e5;stroke-width:8.63382;stroke-linecap:round"
           transform="matrix(0.12037006,0,0,0.12037006,-268.6368,-67.320828)"
           d="M 1607.6736,1193.0876 1527.2087,563.56311 1514.214,565.224" />
        <path
           id="polyline248"
           style="fill:none;stroke:#e5e5e5;stroke-width:8.63382;stroke-linecap:round"
           transform="matrix(0.12037006,0,0,0.12037006,-268.6368,-67.320828)"
           d="m 2016.3652,1840.4329 -181.4707,-34.4007 v -366.7389" />
        <path
           id="polyline250"
           style="fill:none;stroke:#e5e5e5;stroke-width:8.63382;stroke-linecap:round"
           transform="matrix(0.12037006,0,0,0.12037006,-268.6368,-67.320828)"
           d="m 2557.9373,1439.2933 -85.3223,487.6286 -427.9423,-81.1229 v -406.5057" />
        <path
           id="polyline252"
           style="fill:none;stroke:#e5e5e5;stroke-width:8.63382;stroke-linecap:round"
           transform="matrix(0.12037006,0,0,0.12037006,-268.6368,-67.320828)"
           d="M 2044.6727,1439.2933 V 1845.799" />
        <path
           id="polyline254"
           style="fill:none;stroke:#e5e5e5;stroke-width:8.63382;stroke-linecap:round"
           transform="matrix(0.12037006,0,0,0.12037006,-268.6368,-67.320828)"
           d="m 2604.5918,1172.6548 -41.7017,238.331 H 2240.842" />
        <path
           id="polyline256"
           style="fill:none;stroke:#e5e5e5;stroke-width:8.63382;stroke-linecap:round"
           transform="matrix(0.12037006,0,0,0.12037006,-268.6368,-67.320828)"
           d="m 1653.1736,1373.1233 -62.5819,34.0561" />
        <path
           id="polyline258"
           style="fill:none;stroke:#e5e5e5;stroke-width:8.63382;stroke-linecap:round"
           transform="matrix(0.12037006,0,0,0.12037006,-268.6368,-67.320828)"
           d="m 2212.5344,1241.5747 v 169.4111 h -182.0154 -209.7783 -265.874 l -21.6538,-169.4111" />
        <path
           id="polyline260"
           style="fill:none;stroke:#e5e5e5;stroke-width:8.63382;stroke-linecap:round"
           transform="matrix(0.12037006,0,0,0.12037006,-268.6368,-67.320828)"
           d="m 1916.8945,1373.1233 -21.4066,34.0561" />
        <path
           id="polyline262"
           style="fill:none;stroke:#e5e5e5;stroke-width:8.63382;stroke-linecap:round"
           transform="matrix(0.12037006,0,0,0.12037006,-268.6368,-67.320828)"
           d="M 2181.9128,1373.1233 H 2073.3704" />
        <path
           id="polyline264"
           style="fill:none;stroke:#e5e5e5;stroke-width:8.63382;stroke-linecap:round"
           transform="matrix(0.12037006,0,0,0.12037006,-268.6368,-67.320828)"
           d="m 2189.0857,862.11938 v 30.11829" />
        <path
           id="polyline266"
           style="fill:none;stroke:#e5e5e5;stroke-width:8.63382;stroke-linecap:round"
           transform="matrix(0.12037006,0,0,0.12037006,-268.6368,-67.320828)"
           d="m 2189.0857,892.23767 -0.863,-234.48218 24.3117,-90.06592" />
        <path
           id="polyline268"
           style="fill:none;stroke:#e5e5e5;stroke-width:8.63382;stroke-linecap:round"
           transform="matrix(0.12037006,0,0,0.12037006,-268.6368,-67.320828)"
           d="m 2212.5344,1213.2672 -24.3117,-8.9354 v -46.3676 -257.5029" />
        <path
           id="polyline270"
           style="fill:none;stroke:#e5e5e5;stroke-width:8.46217;stroke-linecap:round"
           transform="matrix(0.11223365,0,0,0.13438667,-250.72513,-80.928604)"
           d="m 2188.2227,900.4613 0.863,70.20057" />
        <path
           id="polyline272"
           style="fill:none;stroke:#e5e5e5;stroke-width:8.63382;stroke-linecap:round"
           transform="matrix(0.12037006,0,0,0.12037006,-268.6368,-67.320828)"
           d="m 2212.5344,1158.501 v 54.7662 h -682.9398 l -97.474,-762.59569 780.4138,117.01806 V 1158.501" />
        <path
           id="polyline274"
           style="fill:none;stroke:#e5e5e5;stroke-width:8.63382;stroke-linecap:round"
           transform="matrix(0.12037006,0,0,0.12037006,-268.6368,-67.320828)"
           d="m 2189.0857,1345.7375 21.0915,29.7803" />
        <path
           id="polyline276"
           style="fill:none;stroke:#e5e5e5;stroke-width:8.63382;stroke-linecap:round"
           transform="matrix(0.12037006,0,0,0.12037006,-268.6368,-67.320828)"
           d="m 2029.9132,1204.649 -3.7607,7.7518" />
        <path
           id="polyline278"
           style="fill:none;stroke:#e5e5e5;stroke-width:8.63382;stroke-linecap:round"
           transform="matrix(0.12037006,0,0,0.12037006,-268.6368,-67.320828)"
           d="m 1651.9497,1657.5828 -27.9015,-218.2895" />
        <path
           id="polyline280"
           style="fill:none;stroke:#e5e5e5;stroke-width:8.63382;stroke-linecap:round"
           transform="matrix(0.12037006,0,0,0.12037006,-268.6368,-67.320828)"
           d="m 1806.5869,1800.666 -206.9255,-39.2258 -41.1765,-322.1469" />
        <path
           id="polyline282"
           style="fill:none;stroke:#e5e5e5;stroke-width:8.63382;stroke-linecap:round"
           transform="matrix(0.12037006,0,0,0.12037006,-268.6368,-67.320828)"
           d="m 1698.7418,1681.9741 -49.2767,73.0949" />
        <path
           id="polyline284"
           style="fill:none;stroke:#e5e5e5;stroke-width:8.63382;stroke-linecap:round"
           transform="matrix(0.12037006,0,0,0.12037006,-268.6368,-67.320828)"
           d="m 1599.6614,1761.4402 69.6742,-92.9996 -29.2893,-229.1473" />
        <path
           id="polyline286"
           style="fill:none;stroke:#e5e5e5;stroke-width:8.63382;stroke-linecap:round"
           transform="matrix(0.12037006,0,0,0.12037006,-268.6368,-67.320828)"
           d="m 1806.5869,1694.4587 -137.2513,-26.0181" />
        <path
           id="polyline288"
           style="fill:none;stroke:#e5e5e5;stroke-width:8.63382;stroke-linecap:round"
           transform="matrix(0.12037006,0,0,0.12037006,-268.6368,-67.320828)"
           d="m 1909.1886,1741.7603 -9.0704,36.7529" />
        <path
           id="polyline290"
           style="fill:none;stroke:#e5e5e5;stroke-width:8.63382;stroke-linecap:round"
           transform="matrix(0.12037006,0,0,0.12037006,-268.6368,-67.320828)"
           d="m 1834.8945,1806.0322 33.6006,-99.8379 v -266.901" />
        <path
           id="polyline292"
           style="fill:none;stroke:#e5e5e5;stroke-width:8.63382;stroke-linecap:round"
           transform="matrix(0.12037006,0,0,0.12037006,-268.6368,-67.320828)"
           d="m 2016.3652,1734.2253 -147.8701,-28.031" />
        <path
           id="polyline294"
           style="fill:none;stroke:#e5e5e5;stroke-width:8.63382;stroke-linecap:round"
           transform="matrix(0.12037006,0,0,0.12037006,-268.6368,-67.320828)"
           d="m 2459.2295,1690.1462 11.675,15.4185" />
        <path
           id="polyline296"
           style="fill:none;stroke:#e5e5e5;stroke-width:8.63382;stroke-linecap:round"
           transform="matrix(0.12037006,0,0,0.12037006,-268.6368,-67.320828)"
           d="m 2373.217,1802.7178 -289.2194,-54.826" />
        <path
           id="polyline298"
           style="fill:none;stroke:#e5e5e5;stroke-width:8.63382;stroke-linecap:round"
           transform="matrix(0.12037006,0,0,0.12037006,-268.6368,-67.320828)"
           d="m 2473.0283,1439.2933 -64.6094,369.2519 64.1961,118.3767" />
        <path
           id="polyline300"
           style="fill:none;stroke:#e5e5e5;stroke-width:8.63382;stroke-linecap:round"
           transform="matrix(0.12037006,0,0,0.12037006,-268.6368,-67.320828)"
           d="m 2408.4189,1808.5452 -362.3158,-68.6824" />
        <path
           id="polyline302"
           style="fill:none;stroke:#e5e5e5;stroke-width:8.63382;stroke-linecap:round"
           transform="matrix(0.12037006,0,0,0.12037006,-268.6368,-67.320828)"
           d="m 2520.8064,1300.0886 26.8455,8.3438" />
        <path
           id="polyline304"
           style="fill:none;stroke:#e5e5e5;stroke-width:8.63382;stroke-linecap:round"
           transform="matrix(0.12037006,0,0,0.12037006,-268.6368,-67.320828)"
           d="m 2562.8901,1410.9858 -78.04,-39.2563 34.833,-199.0747" />
        <path
           id="polyline306"
           style="fill:none;stroke:#e5e5e5;stroke-width:8.63382;stroke-linecap:round"
           transform="matrix(0.12037006,0,0,0.12037006,-268.6368,-67.320828)"
           d="M 2484.8501,1371.7295 H 2240.842" />
        <path
           id="polyline308"
           style="fill:none;stroke:#e5e5e5;stroke-width:8.63382;stroke-linecap:round"
           transform="matrix(0.12037006,0,0,0.12037006,-268.6368,-67.320828)"
           d="m 2604.9766,735.26562 -67.2369,384.26888" />
        <path
           id="polyline310"
           style="fill:none;stroke:#e5e5e5;stroke-width:8.63382;stroke-linecap:round"
           transform="matrix(0.12037006,0,0,0.12037006,-268.6368,-67.320828)"
           d="m 2240.842,571.9342 456.8736,68.50513 -88.1707,503.90797" />
        <path
           id="polyline312"
           style="fill:none;stroke:#e5e5e5;stroke-width:8.63382;stroke-linecap:round"
           transform="matrix(0.12037006,0,0,0.12037006,-268.6368,-67.320828)"
           d="m 2448.3479,687.64551 50.9009,-60.3241" />
        <path
           id="polyline314"
           style="fill:none;stroke:#e5e5e5;stroke-width:8.63382;stroke-linecap:round"
           transform="matrix(0.12037006,0,0,0.12037006,-268.6368,-67.320828)"
           d="m 2697.7156,640.43933 -98.7158,78.90967 -74.3638,424.9983" />
        <path
           id="polyline316"
           style="fill:none;stroke:#e5e5e5;stroke-width:8.63382;stroke-linecap:round"
           transform="matrix(0.12037006,0,0,0.12037006,-268.6368,-67.320828)"
           d="M 2240.842,665.64539 2598.9998,719.349" />
        <path
           id="polyline318"
           style="fill:none;stroke:#e5e5e5;stroke-width:8.63382;stroke-linecap:round"
           transform="matrix(0.12037006,0,0,0.12037006,-268.6368,-67.320828)"
           d="m 1629.8676,1365.5095 -15.8414,-123.9348" />
        <path
           id="polyline320"
           style="fill:none;stroke:#e5e5e5;stroke-width:8.63382;stroke-linecap:round"
           transform="matrix(0.12037006,0,0,0.12037006,-268.6368,-67.320828)"
           d="m 1614.0262,1241.5747 17.3842,130.1548 -76.5437,39.2563" />
        <path
           id="polyline322"
           style="fill:none;stroke:#e5e5e5;stroke-width:8.63382;stroke-linecap:round"
           transform="matrix(0.12037006,0,0,0.12037006,-268.6368,-67.320828)"
           d="M 2188.2227,1371.7295 H 2068.2212" />
        <path
           id="polyline324"
           style="fill:none;stroke:#e5e5e5;stroke-width:8.63382;stroke-linecap:round"
           transform="matrix(0.14965957,0,0,0.12037006,-325.69562,-67.320828)"
           d="m 2044.7122,1371.7295 h -10.5923 -86.022" />
        <path
           id="polyline326"
           style="fill:none;stroke:#e5e5e5;stroke-width:8.63382;stroke-linecap:round"
           transform="matrix(0.12762614,0,0,0.12037006,-281.4193,-67.320828)"
           d="M 1937.4963,1371.7295 H 1761.629" />
        <path
           id="polyline328"
           style="fill:none;stroke:#e5e5e5;stroke-width:8.63382;stroke-linecap:round"
           transform="matrix(0.14279879,0,0,0.12037006,-305.17475,-67.320828)"
           d="M 1740.8086,1371.7295 H 1631.4104" />
        <path
           id="polyline330"
           style="fill:none;stroke:#e5e5e5;stroke-width:8.63382;stroke-linecap:round"
           transform="matrix(0.12037006,0,0,0.12037006,-268.6368,-67.320828)"
           d="m 1754.8799,578.15735 189.2434,28.37585" />
        <path
           id="polyline332"
           style="fill:none;stroke:#e5e5e5;stroke-width:8.63382;stroke-linecap:round"
           transform="matrix(0.12037006,0,0,0.12037006,-268.6368,-67.320828)"
           d="M 1527.2087,563.56311 1439.1301,464.6759" />
        <path
           id="polyline334"
           style="fill:none;stroke:#e5e5e5;stroke-width:8.63382;stroke-linecap:round"
           transform="matrix(0.12037006,0,0,0.12037006,-268.6368,-67.320828)"
           d="m 1432.1206,450.67151 95.3673,108.01111 660.7348,99.07287" />
        <path
           id="polyline336"
           style="fill:none;stroke:#e5e5e5;stroke-width:8.63382;stroke-linecap:round"
           transform="matrix(0.12037006,0,0,0.12037006,-268.6368,-67.320828)"
           d="m 1527.4879,558.68262 82.5259,645.64918 -80.4192,8.9354" />
        <path
           id="polyline338"
           style="fill:none;stroke:#e5e5e5;stroke-width:8.63382;stroke-linecap:round"
           transform="matrix(0.12037006,0,0,0.12037006,-268.6368,-67.320828)"
           d="M 2188.2227,1204.3318 H 2081.9993" />
        <path
           id="polyline352"
           style="fill:none;stroke:#e5e5e5;stroke-width:8.63382;stroke-linecap:round"
           transform="matrix(0.12037006,0,0,0.12037006,-268.6368,-67.320828)"
           d="m 2205.3389,1296.3264 0.025,0.036 0.2075,4.7484 0.1414,3.3908" />
        <path
           id="polyline370"
           style="fill:none;stroke:#e5e5e5;stroke-width:8.63382;stroke-linecap:round"
           transform="matrix(0.12037006,0,0,0.12037006,-268.6368,-67.320828)"
           d="m 2085.1973,1212.4102 0.3357,-0.1756 0.9055,-0.9563" />
        <path
           id="polyline376"
           style="fill:none;stroke:#e5e5e5;stroke-width:8.63382;stroke-linecap:round"
           transform="matrix(0.12037006,0,0,0.12037006,-268.6368,-67.320828)"
           d="m 1614.8716,1407.1794 9.2771,-5.3275 29.0249,-16.6683 h 54.2713 1.8918" />
        <path
           id="polyline378"
           style="fill:none;stroke:#e5e5e5;stroke-width:8.63382;stroke-linecap:round"
           transform="matrix(0.28316446,0,0,0.12037006,-552.80345,-67.320828)"
           d="m 1730.1593,1385.1836 h 15.3962" />
        <path
           id="polyline380"
           style="fill:none;stroke:#e5e5e5;stroke-width:8.63382;stroke-linecap:round"
           transform="matrix(0.1489516,0,0,0.12037006,-323.05012,-67.320828)"
           d="m 1903.7931,1407.1794 3.1731,-5.3275 9.9283,-16.6683 h 31.5513" />
        <path
           id="polyline382"
           style="fill:none;stroke:#e5e5e5;stroke-width:8.63382;stroke-linecap:round"
           transform="matrix(0.12037006,0,0,0.12037006,-268.6368,-67.320828)"
           d="m 1959.0485,1385.1836 h 12.1174 52.6919" />
        <path
           id="polyline384"
           style="fill:none;stroke:#e5e5e5;stroke-width:8.63382;stroke-linecap:round"
           transform="matrix(0.12037006,0,0,0.12037006,-268.6368,-67.320828)"
           d="m 2074.4414,1385.1836 h 6.3894" />
        <path
           id="polyline386"
           style="fill:none;stroke:#e5e5e5;stroke-width:8.63382;stroke-linecap:round"
           transform="matrix(0.15188762,0,0,0.12037006,-337.79059,-67.320828)"
           d="m 2104.3423,1385.1836 h 23.2993 54.2712 l 9.2627,16.6683 2.9605,5.3275" />
        <path
           id="polyline388"
           style="fill:none;stroke:#e5e5e5;stroke-width:8.03075;stroke-linecap:round"
           transform="matrix(0.12037006,0,0,0.13912721,-268.6368,-85.218973)"
           d="M 2201.1462,954.20447 V 916.3905 901.14038" />
        <path
           id="polyline390"
           style="fill:none;stroke:#e5e5e5;stroke-width:8.63382;stroke-linecap:round"
           transform="matrix(0.12037006,0,0,0.12037006,-268.6368,-67.320828)"
           d="m 2201.1462,892.87146 v -30.75208 l 9.031,-17.97521" />
        <path
           id="polyline392"
           style="fill:none;stroke:#e5e5e5;stroke-width:8.63382;stroke-linecap:round"
           transform="matrix(0.12037006,0,0,0.12037006,-268.6368,-67.320828)"
           d="m 2210.1772,1357.4438 -9.031,-11.7063 v -41.0798" />
        <path
           id="polyline394"
           style="fill:none;stroke:#e5e5e5;stroke-width:8.63382;stroke-linecap:round"
           transform="matrix(0.12037006,0,0,0.12037006,-268.6368,-67.320828)"
           d="m 2201.1462,1296.4675 v -5.0012 -46.9331" />
        <path
           id="polyline396"
           style="fill:none;stroke:#e5e5e5;stroke-width:8.63382;stroke-linecap:round"
           transform="matrix(0.12037006,0,0,0.12037006,-268.6368,-67.320828)"
           d="m 1806.5869,1715.0089 -53.079,-10.2909 -54.8048,-10.6252" />
        <path
           id="polyline398"
           style="fill:none;stroke:#e5e5e5;stroke-width:8.63382;stroke-linecap:round"
           transform="matrix(0.12037006,0,0,0.12037006,-268.6368,-67.320828)"
           d="m 2583.3828,929.50366 -32.4656,189.06474" />
        <path
           id="polyline400"
           style="fill:none;stroke:#e5e5e5;stroke-width:8.63382;stroke-linecap:round"
           transform="matrix(0.12037006,0,0,0.12037006,-268.6368,-67.320828)"
           d="m 1617.8654,1364.5243 -8.4395,-64.2695 -7.7054,-58.6801" />
        <path
           id="polyline402"
           style="fill:none;stroke:#e5e5e5;stroke-width:8.63382;stroke-linecap:round"
           transform="matrix(0.12037006,0,0,0.12037006,-268.6368,-67.320828)"
           d="m 1520.568,613.59143 -6.351,-48.36401" />
      </g>
    </g>
    <g
       id="g6"
       transform="translate(0,24.152468)">
      <path
         id="rect5543-4"
         style="fill:#35b996;stroke-width:2.19339;stroke-linecap:round;stroke-miterlimit:10"
         d="m 174.39146,35.983334 h 8.24366 c 2.35075,0 4.24323,1.892484 4.24323,4.243238 v 8.711724 c 0,2.350754 -1.89248,4.243238 -4.24323,4.243238 h -8.24366 c -2.35075,0 -4.24324,-1.892484 -4.24324,-4.243238 v -8.711724 c 0,-2.350754 1.89249,-4.243238 4.24324,-4.243238 z" />
      <path
         d="M 174.6925,49.7239 V 39.440971 h 3.60185 q 1.87155,0 2.83911,0.72037 0.96755,0.713308 0.96755,2.097548 0,0.755682 -0.38843,1.334803 -0.38844,0.572059 -1.08056,0.840432 0.791,0.197749 1.24299,0.798057 0.45906,0.600308 0.45906,1.46899 0,1.483115 -0.94636,2.245859 -0.94637,0.762745 -2.69786,0.77687 z m 2.11874,-4.477594 v 2.775543 h 1.81505 q 0.74862,0 1.1653,-0.353122 0.42375,-0.360185 0.42375,-0.988744 0,-1.41249 -1.46193,-1.433677 z m 0,-1.49724 h 1.56786 q 1.60318,-0.02825 1.60318,-1.278303 0,-0.699183 -0.40962,-1.002868 -0.40256,-0.310748 -1.27831,-0.310748 h -1.48311 z"
         id="text2-1"
         style="font-weight:bold;font-size:14.4639px;line-height:1.25;font-family:Roboto;-inkscape-font-specification:'Roboto Bold';fill:#e5e5e5;stroke-width:0.264583"
         aria-label="B" />
    </g>
    <g
       id="g7"
       transform="translate(0,23.95403)">
      <path
         id="rect5543-4-0"
         style="fill:#35b996;stroke-width:2.19339;stroke-linecap:round;stroke-miterlimit:10"
         d="m 174.39146,12.700001 h 8.24366 c 2.35075,0 4.24323,1.892484 4.24323,4.243238 v 8.711724 c 0,2.350754 -1.89248,4.243238 -4.24323,4.243238 h -8.24366 c -2.35075,0 -4.24324,-1.892484 -4.24324,-4.243238 v -8.711724 c 0,-2.350754 1.89249,-4.243238 4.24324,-4.243238 z" />
      <path
         d="m 180.36719,24.32183 h -3.71485 l -0.70624,2.118735 h -2.25293 l 3.82785,-10.282929 h 1.96336 l 3.84904,10.282929 h -2.25292 z m -3.14279,-1.716176 h 2.57073 l -1.29243,-3.849036 z"
         id="text2"
         style="font-weight:bold;font-size:14.4639px;line-height:1.25;font-family:Roboto;-inkscape-font-specification:'Roboto Bold';fill:#e5e5e5;stroke-width:0.264583"
         aria-label="A" />
    </g>
    <g
       id="g5"
       transform="translate(0,22.49882)">
      <path
         id="rect5543-4-2"
         style="fill:#35b996;stroke-width:2.19339;stroke-linecap:round;stroke-miterlimit:10"
         d="m 174.39146,61.118752 h 8.24366 c 2.35075,0 4.24323,1.892484 4.24323,4.243237 v 8.711725 c 0,2.350754 -1.89248,4.243238 -4.24323,4.243238 h -8.24366 c -2.35075,0 -4.24324,-1.892484 -4.24324,-4.243238 v -8.711725 c 0,-2.350753 1.89249,-4.243237 4.24324,-4.243237 z" />
      <path
         d="m 182.69779,71.434033 q -0.12006,1.659676 -1.22887,2.613107 -1.10174,0.953431 -2.90973,0.953431 -1.97748,0 -3.11454,-1.327741 -1.12999,-1.334803 -1.12999,-3.65835 v -0.628558 q 0,-1.483115 0.52262,-2.613107 0.52262,-1.129992 1.49018,-1.7303 0.97462,-0.607371 2.25998,-0.607371 1.77974,0 2.86736,0.953431 1.08762,0.953431 1.25712,2.676669 h -2.11874 q -0.0777,-0.995806 -0.55793,-1.44074 -0.47319,-0.451997 -1.44781,-0.451997 -1.05936,0 -1.58905,0.762745 -0.52262,0.755682 -0.53674,2.351796 v 0.776869 q 0,1.666739 0.50143,2.436546 0.5085,0.769807 1.59611,0.769807 0.98169,0 1.46193,-0.444934 0.48731,-0.451997 0.55794,-1.391303 z"
         id="text2-4"
         style="font-weight:bold;font-size:14.4639px;line-height:1.25;font-family:Roboto;-inkscape-font-specification:'Roboto Bold';fill:#e5e5e5;stroke-width:0.264583"
         aria-label="C" />
    </g>
    <g
       id="g4"
       transform="translate(0,21.903511)">
      <path
         id="rect5543-4-20"
         style="fill:#35b996;stroke-width:2.19339;stroke-linecap:round;stroke-miterlimit:10"
         d="m 174.39146,85.195831 h 8.24366 c 2.35075,0 4.24323,1.892484 4.24323,4.243238 v 8.711725 c 0,2.350756 -1.89248,4.243236 -4.24323,4.243236 h -8.24366 c -2.35075,0 -4.24324,-1.89248 -4.24324,-4.243236 v -8.711725 c 0,-2.350754 1.89249,-4.243238 4.24324,-4.243238 z" />
      <path
         d="M 174.58304,98.936394 V 88.653465 h 3.16397 q 1.35599,0 2.42242,0.614433 1.0735,0.607371 1.67381,1.737363 0.6003,1.12293 0.6003,2.556608 v 0.473184 q 0,1.433677 -0.59324,2.549545 -0.58619,1.115867 -1.65968,1.7303 -1.07349,0.614433 -2.42242,0.621496 z m 2.11873,-8.566753 v 6.864702 h 1.02406 q 1.24299,0 1.8998,-0.812182 0.6568,-0.812182 0.67093,-2.323546 v -0.543809 q 0,-1.567864 -0.64975,-2.372983 -0.64974,-0.812182 -1.8998,-0.812182 z"
         id="text2-3"
         style="font-weight:bold;font-size:14.4639px;line-height:1.25;font-family:Roboto;-inkscape-font-specification:'Roboto Bold';fill:#e5e5e5;stroke-width:0.264583"
         aria-label="D" />
    </g>
    <g
       id="g8"
       transform="translate(0,8.4666671)">
      <path
         id="rect5543-4-22"
         style="fill:#35b996;stroke-width:2.19339;stroke-linecap:round;stroke-miterlimit:10"
         d="m 174.39146,122.11444 h 8.24366 c 2.35075,0 4.24323,1.89249 4.24323,4.24324 v 8.71172 c 0,2.35076 -1.89248,4.24324 -4.24323,4.24324 h -8.24366 c -2.35075,0 -4.24324,-1.89248 -4.24324,-4.24324 v -8.71172 c 0,-2.35075 1.89249,-4.24324 4.24324,-4.24324 z" />
      <path
         d="m 181.25352,131.3986 h -4.06797 v 2.75436 h 4.77422 v 1.70205 h -6.89295 v -10.28293 h 6.87882 v 1.71618 h -4.76009 v 2.45067 h 4.06797 z"
         id="text2-2"
         style="font-weight:bold;font-size:14.4639px;line-height:1.25;font-family:Roboto;-inkscape-font-specification:'Roboto Bold';fill:#e5e5e5;stroke-width:0.264583"
         aria-label="E" />
    </g>
    <g
       id="path1418-2-3">
      <path
         style="color:#000000;fill:#e5e5e5;stroke-dasharray:0.529167, 1.05833;-inkscape-stroke:none"
         d="m 124.72656,91.951172 v 0.529297 h 0.5293 v -0.529297 z m 1.58789,0 v 0.529297 h 0.5293 v -0.529297 z m 1.58789,0 v 0.529297 h 0.5293 v -0.529297 z m 1.58789,0 v 0.529297 h 0.5293 v -0.529297 z m 1.58789,0 v 0.529297 h 0.5293 v -0.529297 z m 1.58594,0 v 0.529297 h 0.5293 v -0.529297 z m 1.58789,0 v 0.529297 h 0.5293 v -0.529297 z m 1.58789,0 v 0.529297 h 0.5293 v -0.529297 z m 1.58789,0 v 0.529297 h 0.5293 v -0.529297 z m 1.58789,0 v 0.529297 h 0.5293 v -0.529297 z m 1.58594,0 v 0.529297 h 0.5293 v -0.529297 z m 1.58789,0 v 0.529297 h 0.5293 v -0.529297 z m 1.58789,0 v 0.529297 h 0.5293 v -0.529297 z m 1.58789,0 v 0.529297 h 0.5293 v -0.529297 z m 0.89063,0.697265 v 0.529297 h 0.5293 v -0.529297 z m 0,1.587891 v 0.529297 h 0.5293 v -0.529297 z m 0,1.587891 v 0.529297 h 0.5293 v -0.529297 z m 0,1.58789 v 0.529297 h 0.5293 v -0.529297 z m 0,1.587891 v 0.529297 h 0.5293 V 99 Z m 0,1.58594 v 0.52929 h 0.5293 v -0.52929 z m 0,1.58789 v 0.5293 h 0.5293 v -0.5293 z m 0,1.58789 v 0.5293 h 0.5293 v -0.5293 z m 0,1.58789 v 0.5293 h 0.5293 v -0.5293 z m 0,1.58789 v 0.5293 h 0.5293 v -0.5293 z m 0,1.58594 v 0.52929 h 0.5293 v -0.52929 z m 0,1.58789 v 0.5293 h 0.5293 v -0.5293 z m 0,1.58789 v 0.5293 h 0.5293 v -0.5293 z m 0,1.58789 v 0.5293 h 0.5293 v -0.5293 z m 0,1.58789 v 0.5293 h 0.5293 v -0.5293 z m 0,1.58594 v 0.52929 h 0.5293 v -0.52929 z m 0,1.58789 v 0.5293 h 0.5293 v -0.5293 z m 0,1.58789 v 0.5293 h 0.5293 v -0.5293 z m 0,1.58789 v 0.5293 h 0.5293 v -0.5293 z m 0,1.58789 v 0.5293 h 0.5293 v -0.5293 z m 0,1.58594 v 0.52929 h 0.5293 v -0.52929 z m 0,1.58789 v 0.5293 h 0.5293 v -0.5293 z m 0,1.58789 v 0.5293 h 0.5293 v -0.5293 z m 0,1.58789 v 0.5293 h 0.5293 v -0.5293 z m 0,1.58789 v 0.5293 h 0.5293 V 130.75 Z m 0,1.58594 v 0.52929 h 0.5293 v -0.52929 z m 0,1.58789 v 0.52929 h 0.5293 v -0.52929 z m 0,1.58789 v 0.5293 h 0.5293 v -0.5293 z m 0,1.58789 v 0.5293 h 0.5293 v -0.5293 z m 0.26367,1.55078 0.0371,0.0371 h -0.30078 v 0.49219 h 0.56445 v -0.5293 z m 1.35938,0 v 0.5293 h 0.52929 v -0.5293 z m 1.58593,0 v 0.5293 h 0.5293 v -0.5293 z m 1.58789,0 v 0.5293 h 0.5293 v -0.5293 z m 1.58789,0 v 0.5293 h 0.5293 v -0.5293 z m 1.5879,0 v 0.5293 h 0.52929 v -0.5293 z m 1.58789,0 v 0.5293 h 0.52929 v -0.5293 z m 1.58593,0 v 0.5293 h 0.5293 v -0.5293 z m 1.58789,0 v 0.5293 h 0.5293 v -0.5293 z m 1.58789,0 v 0.5293 h 0.5293 v -0.5293 z"
         id="path12" />
      <g
         id="g9">
        <g
           id="path9">
          <path
             style="color:#000000;fill:#e5e5e5;fill-rule:evenodd;-inkscape-stroke:none"
             d="m 162.70263,138.91563 -2.28865,1.32292 v -2.64584 z"
             id="path10" />
          <path
             style="color:#000000;fill:#e5e5e5;fill-rule:evenodd;-inkscape-stroke:none"
             d="m 160.23828,137.28711 v 3.25781 l 2.81641,-1.6289 -0.26367,-0.15235 z m 0.35156,0.61133 1.76172,1.01758 -1.76172,1.01757 z"
             id="path11" />
        </g>
      </g>
    </g>
    <g
       id="path1418-2-3-3">
      <path
         style="color:#000000;fill:#e5e5e5;stroke-dasharray:0.529167, 1.05833;-inkscape-stroke:none"
         d="m 147.18164,44.988281 v 0.529297 h 0.5293 v -0.529297 z m 1.58594,0 v 0.529297 h 0.52929 v -0.529297 z m 1.58789,0 v 0.529297 h 0.5293 v -0.529297 z m 1.58789,0 v 0.529297 h 0.5293 v -0.529297 z m 1.58789,0 v 0.529297 h 0.5293 v -0.529297 z m 1.58789,0 v 0.529297 h 0.5293 v -0.529297 z m 1.58594,0 v 0.529297 h 0.52929 v -0.529297 z m 1.58789,0 v 0.529297 h 0.5293 v -0.529297 z m 1.58789,0 v 0.529297 h 0.5293 v -0.529297 z m -13.625,0.66211 v 0.529296 h 0.5293 v -0.529296 z m 0,1.58789 v 0.529297 h 0.5293 v -0.529297 z m 0,1.585938 v 0.529297 h 0.5293 v -0.529297 z m 0,1.58789 v 0.529297 h 0.5293 v -0.529297 z m 0,1.587891 v 0.529297 h 0.5293 V 52 Z m 0,1.587891 v 0.529296 h 0.5293 v -0.529296 z m 0,1.58789 v 0.529297 h 0.5293 v -0.529297 z m 0,1.585938 v 0.529297 h 0.5293 v -0.529297 z m 0,1.58789 v 0.529297 h 0.5293 v -0.529297 z m 0,1.587891 v 0.529297 h 0.5293 V 59.9375 Z m 0,1.587891 v 0.529296 h 0.5293 v -0.529296 z m 0,1.58789 v 0.529297 h 0.5293 v -0.529297 z m 0,1.585938 v 0.529297 h 0.5293 v -0.529297 z m 0,1.58789 v 0.529297 h 0.5293 v -0.529297 z m 0,1.587891 v 0.529297 h 0.5293 V 67.875 Z m 0,1.587891 v 0.529296 h 0.5293 v -0.529296 z m 0,1.58789 v 0.529297 h 0.5293 v -0.529297 z m 0,1.585938 v 0.529297 h 0.5293 v -0.529297 z m 0,1.58789 v 0.529297 h 0.5293 v -0.529297 z m 0,1.587891 v 0.529297 h 0.5293 V 75.8125 Z m 0,1.587891 v 0.529296 h 0.5293 v -0.529296 z m 0,1.58789 v 0.529297 h 0.5293 v -0.529297 z m 0,1.585938 v 0.529297 h 0.5293 v -0.529297 z m 0,1.58789 v 0.529297 h 0.5293 v -0.529297 z m 0,1.587891 v 0.529297 h 0.5293 V 83.75 Z m 0,1.587891 v 0.529296 h 0.5293 v -0.529296 z m 0,1.58789 v 0.529297 h 0.5293 v -0.529297 z m 0,1.585938 v 0.529297 h 0.5293 v -0.529297 z m 0,1.58789 v 0.529297 h 0.5293 v -0.529297 z m 0,1.587891 v 0.529297 h 0.5293 V 91.6875 Z"
         id="path16" />
      <g
         id="g13">
        <g
           id="path13">
          <path
             style="color:#000000;fill:#e5e5e5;fill-rule:evenodd;-inkscape-stroke:none"
             d="m 162.70263,45.253129 -2.28865,1.322917 v -2.645834 z"
             id="path14" />
          <path
             style="color:#000000;fill:#e5e5e5;fill-rule:evenodd;-inkscape-stroke:none"
             d="m 160.23828,43.625 v 3.255859 l 2.81641,-1.626953 -0.26367,-0.154297 z m 0.35156,0.609375 1.75977,1.019531 -1.75977,1.017578 z"
             id="path15" />
        </g>
      </g>
    </g>
    <g
       id="path1418-2-3-3-7">
      <path
         style="color:#000000;fill:#e5e5e5;stroke-dasharray:0.529167, 1.05833;-inkscape-stroke:none"
         d="M 146.67578,68.470703 V 69 h 0.5293 v -0.529297 z m 1.58789,0 V 69 h 0.5293 v -0.529297 z m 1.58789,0 V 69 h 0.52735 v -0.529297 z m 1.58594,0 V 69 h 0.5293 v -0.529297 z m 1.58789,0 V 69 h 0.5293 v -0.529297 z m 1.58789,0 V 69 h 0.5293 v -0.529297 z m 1.58789,0 V 69 h 0.5293 v -0.529297 z m 1.58594,0 V 69 h 0.5293 v -0.529297 z m 1.58789,0 V 69 h 0.5293 v -0.529297 z m 1.58789,0 V 69 h 0.36914 v -0.529297 z"
         id="path20" />
      <g
         id="g17">
        <g
           id="path17">
          <path
             style="color:#000000;fill:#e5e5e5;fill-rule:evenodd;-inkscape-stroke:none"
             d="m 162.85861,68.734902 -2.28865,1.322917 v -2.645834 z"
             id="path18" />
          <path
             style="color:#000000;fill:#e5e5e5;fill-rule:evenodd;-inkscape-stroke:none"
             d="m 160.39453,67.105469 v 3.257812 l 2.81641,-1.628906 -0.26367,-0.152344 z m 0.35156,0.611328 1.75977,1.017578 -1.75977,1.017578 z"
             id="path19" />
        </g>
      </g>
    </g>
    <g
       id="path1418-2-3-3-7-6">
      <path
         style="color:#000000;fill:#e5e5e5;stroke-dasharray:0.529167, 1.05833;-inkscape-stroke:none"
         d="m 146.41016,91.951172 v 0.529297 h 0.52929 v -0.529297 z m 1.58789,0 v 0.529297 h 0.52929 v -0.529297 z m 1.58789,0 v 0.529297 h 0.52929 v -0.529297 z m 1.58789,0 v 0.529297 h 0.52929 v -0.529297 z m 1.58789,0 v 0.529297 h 0.5293 v -0.529297 z m 1.58594,0 v 0.529297 h 0.52929 v -0.529297 z m 1.58789,0 v 0.529297 h 0.52929 v -0.529297 z m 1.58789,0 v 0.529297 h 0.52929 v -0.529297 z m 1.58789,0 v 0.529297 h 0.52929 v -0.529297 z m 1.58789,0 v 0.529297 h 0.36719 v -0.529297 z"
         id="path24" />
      <g
         id="g21">
        <g
           id="path21">
          <path
             style="color:#000000;fill:#e5e5e5;fill-rule:evenodd;-inkscape-stroke:none"
             d="m 162.59403,92.216672 -2.28865,1.322917 v -2.645834 z"
             id="path22" />
          <path
             style="color:#000000;fill:#e5e5e5;fill-rule:evenodd;-inkscape-stroke:none"
             d="m 160.12891,90.587891 v 3.257812 l 2.81836,-1.628906 -0.26563,-0.152344 z m 0.35351,0.613281 1.75977,1.015625 -1.75977,1.015625 z"
             id="path23" />
        </g>
      </g>
    </g>
    <g
       id="path1418-2-3-3-7-6-9">
      <path
         style="color:#000000;fill:#e5e5e5;stroke-dasharray:0.529167, 1.05833;-inkscape-stroke:none"
         d="m 146.25586,115.43359 v 0.5293 h 0.5293 v -0.5293 z m 1.58789,0 v 0.5293 h 0.5293 v -0.5293 z m 1.58789,0 v 0.5293 h 0.5293 v -0.5293 z m 1.58594,0 v 0.5293 h 0.52929 v -0.5293 z m 1.58789,0 v 0.5293 h 0.5293 v -0.5293 z m 1.58789,0 v 0.5293 h 0.5293 v -0.5293 z m 1.58789,0 v 0.5293 h 0.5293 v -0.5293 z m 1.58789,0 v 0.5293 h 0.5293 v -0.5293 z m 1.58594,0 v 0.5293 h 0.52929 v -0.5293 z m 1.58789,0 v 0.5293 h 0.36914 v -0.5293 z"
         id="path28" />
      <g
         id="g25">
        <g
           id="path25">
          <path
             style="color:#000000;fill:#e5e5e5;fill-rule:evenodd;-inkscape-stroke:none"
             d="m 162.43889,115.69844 -2.28865,1.32292 v -2.64584 z"
             id="path26" />
          <path
             style="color:#000000;fill:#e5e5e5;fill-rule:evenodd;-inkscape-stroke:none"
             d="m 159.97461,114.07031 v 3.25586 l 2.81641,-1.62695 -0.26368,-0.1543 z m 0.35156,0.60938 1.75977,1.01953 -1.75977,1.01758 z"
             id="path27" />
        </g>
      </g>
    </g>
  </g>
</svg>
