<?xml version="1.0" encoding="UTF-8" standalone="no"?>
<svg
   width="1920pt"
   height="1080pt"
   viewBox="0 0 1920 1080"
   version="1.1"
   id="svg77"
   sodipodi:docname="0.svg"
   inkscape:version="1.2 (dc2aedaf03, 2022-05-15)"
   xml:space="preserve"
   xmlns:inkscape="http://www.inkscape.org/namespaces/inkscape"
   xmlns:sodipodi="http://sodipodi.sourceforge.net/DTD/sodipodi-0.dtd"
   xmlns:xlink="http://www.w3.org/1999/xlink"
   xmlns="http://www.w3.org/2000/svg"
   xmlns:svg="http://www.w3.org/2000/svg"
   xmlns:rdf="http://www.w3.org/1999/02/22-rdf-syntax-ns#"
   xmlns:cc="http://creativecommons.org/ns#"
   xmlns:dc="http://purl.org/dc/elements/1.1/"><sodipodi:namedview
     id="namedview79"
     pagecolor="#ffffff"
     bordercolor="#666666"
     borderopacity="1.0"
     inkscape:showpageshadow="2"
     inkscape:pageopacity="0.0"
     inkscape:pagecheckerboard="0"
     inkscape:deskcolor="#d1d1d1"
     inkscape:document-units="pt"
     showgrid="false"
     inkscape:zoom="0.28959341"
     inkscape:cx="1103.2709"
     inkscape:cy="662.9985"
     inkscape:window-width="1920"
     inkscape:window-height="1044"
     inkscape:window-x="0"
     inkscape:window-y="0"
     inkscape:window-maximized="1"
     inkscape:current-layer="svg77" /><metadata
     id="metadata2"><rdf:RDF><cc:Work><dc:type
           rdf:resource="http://purl.org/dc/dcmitype/StillImage" /><dc:date>2022-06-10T17:19:29.643067</dc:date><dc:format>image/svg+xml</dc:format><dc:creator><cc:Agent><dc:title>Matplotlib v3.5.2, https://matplotlib.org/</dc:title></cc:Agent></dc:creator></cc:Work></rdf:RDF></metadata><defs
     id="defs6"><style
       type="text/css"
       id="style4">*{stroke-linejoin: round; stroke-linecap: butt}</style></defs><g
     id="figure_1"
     transform="matrix(1.0646731,0,0,1.0646731,461.73299,195.04592)"><g
       id="patch_1"><path
         d="M 0,648 H 936 V 0 H 0 Z"
         style="fill:none"
         id="path8" /></g><g
       id="axes_1"><g
         id="patch_2"><path
           d="M 21.6,626.4 H 443.0016 V 190.73898 H 21.6 Z"
           clip-path="url(#pef5c65ee13)"
           style="fill:none;stroke:#bbbbbb;stroke-width:3;stroke-linejoin:miter"
           id="path11" /></g><g
         id="patch_3"><path
           d="M 21.6,190.73898 H 443.0016 V 21.6 H 21.6 Z"
           clip-path="url(#pef5c65ee13)"
           style="fill:none;stroke:#bbbbbb;stroke-width:3;stroke-linejoin:miter"
           id="path14" /></g><g
         id="patch_4"><path
           d="M 443.0016,626.4 H 914.4 V 424.8 H 443.0016 Z"
           clip-path="url(#pef5c65ee13)"
           style="fill:none;stroke:#bbbbbb;stroke-width:3;stroke-linejoin:miter"
           id="path17" /></g><g
         id="patch_5"><path
           d="M 443.0016,424.8 H 914.4 V 21.6 H 443.0016 Z"
           clip-path="url(#pef5c65ee13)"
           style="fill:none;stroke:#bbbbbb;stroke-width:3;stroke-linejoin:miter"
           id="path20" /></g><g
         id="text_1"><!-- 8.5 --><g
           style="fill:#ffffff"
           transform="matrix(0.2,0,0,-0.2,216.39767,414.08824)"
           id="g34"><defs
             id="defs26"><path
               id="DejaVuSans-38"
               d="m 2034,2216 q -450,0 -708,-241 -257,-241 -257,-662 0,-422 257,-663 258,-241 708,-241 450,0 709,242 260,243 260,662 0,421 -258,662 -257,241 -711,241 z m -631,268 q -406,100 -633,378 -226,279 -226,679 0,559 398,884 399,325 1092,325 697,0 1094,-325 397,-325 397,-884 0,-400 -227,-679 -226,-278 -629,-378 456,-106 710,-416 255,-309 255,-755 Q 3634,634 3220,271 2806,-91 2034,-91 1263,-91 848,271 434,634 434,1313 q 0,446 256,755 257,310 713,416 z m -231,997 q 0,-362 226,-565 227,-203 636,-203 407,0 636,203 230,203 230,565 0,363 -230,566 -229,203 -636,203 -409,0 -636,-203 -226,-203 -226,-566 z"
               transform="scale(0.015625)" /><path
               id="DejaVuSans-2e"
               d="m 684,794 h 660 V 0 H 684 Z"
               transform="scale(0.015625)" /><path
               id="DejaVuSans-35"
               d="M 691,4666 H 3169 V 4134 H 1269 V 2991 q 137,47 274,70 138,23 276,23 781,0 1237,-428 457,-428 457,-1159 Q 3513,744 3044,326 2575,-91 1722,-91 1428,-91 1123,-41 819,9 494,109 v 635 q 281,-153 581,-228 300,-75 634,-75 541,0 856,284 316,284 316,772 0,487 -316,771 -315,285 -856,285 -253,0 -505,-56 -251,-56 -513,-175 z"
               transform="scale(0.015625)" /></defs><use
             xlink:href="#DejaVuSans-38"
             id="use28" /><use
             xlink:href="#DejaVuSans-2e"
             x="63.623047"
             id="use30" /><use
             xlink:href="#DejaVuSans-35"
             x="95.410156"
             id="use32" /></g></g><g
         id="text_2"><!-- 3.3 --><g
           style="fill:#ffffff"
           transform="matrix(0.2,0,0,-0.2,216.39767,111.68824)"
           id="g46"><defs
             id="defs38"><path
               id="DejaVuSans-33"
               d="m 2597,2516 q 453,-97 707,-404 255,-306 255,-756 0,-690 -475,-1069 -475,-378 -1350,-378 -293,0 -604,58 -311,58 -642,174 v 609 q 262,-153 574,-231 313,-78 654,-78 593,0 904,234 311,234 311,681 0,413 -289,645 -289,233 -804,233 h -544 v 519 h 569 q 465,0 712,186 247,186 247,536 0,359 -255,551 -254,193 -729,193 -260,0 -557,-57 -297,-56 -653,-174 v 562 q 360,100 674,150 314,50 592,50 719,0 1137,-327 419,-326 419,-882 0,-388 -222,-655 -222,-267 -631,-370 z"
               transform="scale(0.015625)" /></defs><use
             xlink:href="#DejaVuSans-33"
             id="use40" /><use
             xlink:href="#DejaVuSans-2e"
             x="63.623047"
             id="use42" /><use
             xlink:href="#DejaVuSans-33"
             x="95.410156"
             id="use44" /></g></g><g
         id="text_3"><!-- 4.4 --><g
           style="fill:#ffffff"
           transform="matrix(0.2,0,0,-0.2,662.79768,531.11875)"
           id="g58"><defs
             id="defs50"><path
               id="DejaVuSans-34"
               d="M 2419,4116 825,1625 h 1594 z m -166,550 h 794 V 1625 h 666 V 1100 H 3047 V 0 H 2419 V 1100 H 313 v 609 z"
               transform="scale(0.015625)" /></defs><use
             xlink:href="#DejaVuSans-34"
             id="use52" /><use
             xlink:href="#DejaVuSans-2e"
             x="63.623047"
             id="use54" /><use
             xlink:href="#DejaVuSans-34"
             x="95.410156"
             id="use56" /></g></g><g
         id="text_4"><!-- 8.8 --><g
           style="fill:#ffffff"
           transform="matrix(0.2,0,0,-0.2,662.79768,228.71875)"
           id="g67"><use
             xlink:href="#DejaVuSans-38"
             id="use61" /><use
             xlink:href="#DejaVuSans-2e"
             x="63.623047"
             id="use63" /><use
             xlink:href="#DejaVuSans-38"
             x="95.410156"
             id="use65" /></g></g></g></g><defs
     id="defs75"><clipPath
       id="pef5c65ee13"><rect
         x="21.6"
         y="21.6"
         width="892.79999"
         height="604.79999"
         id="rect72" /></clipPath></defs></svg>
