<svg xmlns="http://www.w3.org/2000/svg" xmlns:inkscape="http://www.inkscape.org/namespaces/inkscape" xmlns:xlink="http://www.w3.org/1999/xlink" width="600.0mm" height="338.0mm">
<defs>
</defs>
<g>
<polygon points=" 989.3220017871466 1179.1972834613994 989.1535844046765 1178.7720047901485 988.508750381693 1178.6064259028885 988.1981379058371 1178.832108799837 988.0794617727643 1179.1972834613994 988.3047391703968 1179.6759528758892 988.661758790165 1179.8172919151639 989.0967243895141 1179.6759528758892 "
style="
    mix-blend-mode:normal;
    fill:none;
    fill-opacity:0;
    stroke:rgb(126, 126, 126);
    stroke-opacity:1.0;
    stroke-width:1.8897637377604881;
    stroke-linecap:butt;
    stroke-linejoin:bevel;
    paint-order:markers fill stroke;
"/><polygon points=" 59.32004434461594 281.75620018501206 59.156583064893724 281.253110700619 58.820108743789675 281.0681129016831 58.43920971987248 281.11623215381735 58.15932508105374 281.37908582137516 58.08732642477036 281.75620018501206 58.30764771965504 282.15701373087995 58.895621727476126 282.269201874901 "
style="
    mix-blend-mode:normal;
    fill:none;
    fill-opacity:0;
    stroke:rgb(126, 126, 126);
    stroke-opacity:1.0;
    stroke-width:1.8897637377604881;
    stroke-linecap:butt;
    stroke-linejoin:bevel;
    paint-order:markers fill stroke;
"/><polygon points=" 1247.104404791276 717.3825831967699 1246.8210058250543 716.7801914355003 1246.2235701665327 716.7426151655753 1245.9436855277138 717.005468833133 1245.8717769823895 717.3825831967699 1246.0352382621118 717.7300059993989 1246.3717125832159 717.9149587428553 1246.9409435115538 717.7300059993989 "
style="
    mix-blend-mode:normal;
    fill:none;
    fill-opacity:0;
    stroke:rgb(126, 126, 126);
    stroke-opacity:1.0;
    stroke-width:1.8897637377604881;
    stroke-linecap:butt;
    stroke-linejoin:bevel;
    paint-order:markers fill stroke;
"/><polygon points=" 987.791917702426 353.7679225574534 987.7199190461426 353.3908081938164 987.4400344073239 353.1279545262587 986.9110830776825 353.1279545262587 986.573797757947 353.53552639405564 986.7226610623027 354.1153003046029 987.1365406972333 354.31012019807554 987.5084286252452 354.2146025814793 "
style="
    mix-blend-mode:normal;
    fill:none;
    fill-opacity:0;
    stroke:rgb(126, 126, 126);
    stroke-opacity:1.0;
    stroke-width:1.8897637377604881;
    stroke-linecap:butt;
    stroke-linejoin:bevel;
    paint-order:markers fill stroke;
"/><polygon points=" 953.8811813696681 29.021272441279507 953.7625052365952 28.656052724237725 953.4518927607394 28.430324771809865 953.0680200751734 28.430324771809865 952.7574075993176 28.656052724237725 952.6387314662447 29.021272441279507 952.7574075993176 29.38640204736248 953.2209383726864 29.641235839564615 953.5928263006983 29.54571822296839 "
style="
    mix-blend-mode:normal;
    fill:none;
    fill-opacity:0;
    stroke:rgb(126, 126, 126);
    stroke-opacity:1.0;
    stroke-width:1.8897637377604881;
    stroke-linecap:butt;
    stroke-linejoin:bevel;
    paint-order:markers fill stroke;
"/><polygon points=" 749.6180648875537 589.9344636484601 749.5762534025531 589.2700304918826 749.0346414831648 589.0151516442011 748.5292541693159 589.3359016029503 748.4960482809048 589.8638617120421 748.8816781301723 590.2260176564763 749.338180248735 590.1972722605384 "
style="
    mix-blend-mode:normal;
    fill:none;
    fill-opacity:0;
    stroke:rgb(126, 126, 126);
    stroke-opacity:1.0;
    stroke-width:1.8897637377604881;
    stroke-linecap:butt;
    stroke-linejoin:bevel;
    paint-order:markers fill stroke;
"/><polygon points=" 464.6068784418469 637.5395877059061 464.63098312339355 637.1563908525331 464.36213707705883 636.7863501991818 463.9902491490469 636.6908776380651 463.6332745847583 636.8322166773398 463.4129082343941 637.2330302232077 463.48486183519793 637.6101896423243 463.9128438352204 637.9211175065367 464.2937879146171 637.8729982544024 "
style="
    mix-blend-mode:normal;
    fill:none;
    fill-opacity:0;
    stroke:rgb(126, 126, 126);
    stroke-opacity:1.0;
    stroke-width:1.8897637377604881;
    stroke-linecap:butt;
    stroke-linejoin:bevel;
    paint-order:markers fill stroke;
"/><polygon points=" 1404.85616403693 1184.9928599038547 1404.974840170003 1184.6276852422923 1404.85616403693 1184.2625105807297 1404.5455515610743 1184.0368276837814 1404.0890494425116 1184.0655730797193 1403.809164803693 1184.3283816917976 1403.7372562583685 1184.705541110914 1404.0206552245904 1185.15222113494 1404.3926332635613 1185.2476936960566 "
style="
    mix-blend-mode:normal;
    fill:none;
    fill-opacity:0;
    stroke:rgb(126, 126, 126);
    stroke-opacity:1.0;
    stroke-width:1.8897637377604881;
    stroke-linecap:butt;
    stroke-linejoin:bevel;
    paint-order:markers fill stroke;
"/><polygon points=" 680.1152118370671 934.1171915782636 679.8268567680974 933.5926556856158 679.4549688400856 933.4971831244991 678.9495815262366 933.8179105555087 678.9163756378256 934.3458931923401 679.1611170026135 934.6417274709113 679.5330049306255 934.737200032028 679.8899794949141 934.5958609927533 "
style="
    mix-blend-mode:normal;
    fill:none;
    fill-opacity:0;
    stroke:rgb(126, 126, 126);
    stroke-opacity:1.0;
    stroke-width:1.8897637377604881;
    stroke-linecap:butt;
    stroke-linejoin:bevel;
    paint-order:markers fill stroke;
"/><polygon points=" 605.6657627448435 638.8900355937545 605.5471316672501 638.524860932192 605.2365191913943 638.2991780352437 604.8525563948693 638.2991780352437 604.5001324340129 638.5907320432599 604.428178833209 638.9678914623763 604.7800170728317 639.4521477563273 605.1609611522284 639.5002670084617 605.4973904178529 639.3152692095258 "
style="
    mix-blend-mode:normal;
    fill:none;
    fill-opacity:0;
    stroke:rgb(126, 126, 126);
    stroke-opacity:1.0;
    stroke-width:1.8897637377604881;
    stroke-linecap:butt;
    stroke-linejoin:bevel;
    paint-order:markers fill stroke;
"/></g>
<g>
<polygon points=" 996.2598247465583 1179.1972834613994 996.0021975146257 1177.2408393739192 995.2470676777612 1175.4177595058377 994.0457984826251 1173.8522167587298 992.4803007909966 1172.6509475635937 990.6571758674355 1171.895817726729 988.700776835435 1171.638235550276 986.7442876924754 1171.895817726729 984.9212528798734 1172.6509475635937 983.3556650772858 1173.8522167587298 982.1543958821497 1175.4177595058377 981.3992660452852 1177.2408393739192 981.1417289243117 1179.1972834613994 981.3992660452852 1181.1537275488795 982.1543958821497 1182.976807416961 983.3556650772858 1184.542350164069 984.9212528798734 1185.743619359205 986.7442876924754 1186.4987491960694 988.700776835435 1186.7563313725227 990.6571758674355 1186.4987491960694 992.4803007909966 1185.743619359205 994.0457984826251 1184.542350164069 995.2470676777612 1182.976807416961 996.0021975146257 1181.1537275488795 "
style="
    mix-blend-mode:normal;
    fill:rgb(126, 126, 126);
    fill-opacity:1.0;
    stroke:none;
    stroke-opacity:0;
    stroke-width:0
"/><polygon points=" 66.26273329581643 281.6783443163903 66.00519617484284 279.7219452843897 65.24997622701932 277.8988203608286 64.04870703188324 276.33332266920013 62.48320934025479 275.13205347406415 60.66008441669369 274.3768335262406 58.70368538469315 274.11929640526694 56.747286352692605 274.3768335262406 54.92416142913151 275.13205347406415 53.35866373750306 276.33332266920013 52.15739454236699 277.8988203608286 51.40217459454346 279.7219452843897 51.14463747356987 281.6783443163903 51.40217459454346 283.6348334593498 52.15739454236699 285.45786827195195 53.35866373750306 287.02345607453935 54.92416142913151 288.22472526967545 56.747286352692605 288.97985510653996 58.70368538469315 289.2373922275135 60.66008441669369 288.97985510653996 62.48320934025479 288.22472526967545 64.04870703188324 287.02345607453935 65.24997622701932 285.45786827195195 66.00519617484284 283.6348334593498 "
style="
    mix-blend-mode:normal;
    fill:rgb(126, 126, 126);
    fill-opacity:1.0;
    stroke:none;
    stroke-opacity:0;
    stroke-width:0
"/><polygon points=" 1254.0471838534356 717.3047273281481 1253.789556621503 715.3483282961475 1253.0344267846385 713.5252033725865 1251.8331575895024 711.9596606254785 1250.267569786915 710.7583914303425 1248.4445349743128 710.003261593478 1246.4880458313532 709.7456794170248 1244.5316467993528 710.003261593478 1242.7085218757916 710.7583914303425 1241.143024184163 711.9596606254785 1239.941754989027 713.5252033725865 1239.1866251521626 715.3483282961475 1238.92899792023 717.3047273281481 1239.1866251521626 719.2611714156282 1239.941754989027 721.0842512837098 1241.143024184163 722.6497940308177 1242.7085218757916 723.8510632259538 1244.5316467993528 724.6062381182978 1246.4880458313532 724.8637752392714 1248.4445349743128 724.6062381182978 1250.267569786915 723.8510632259538 1251.8331575895024 722.6497940308177 1253.0344267846385 721.0842512837098 1253.789556621503 719.2611714156282 "
style="
    mix-blend-mode:normal;
    fill:rgb(126, 126, 126);
    fill-opacity:1.0;
    stroke:none;
    stroke-opacity:0;
    stroke-width:0
"/><polygon points=" 994.7346066536265 353.6900666888315 994.4770695326529 351.733667656831 993.7218495848294 349.91054273326995 992.5205803896934 348.34495493068243 990.9550826980649 347.1437758465054 989.1319577745038 346.38855589868183 987.1755587425032 346.1310187777083 985.2191597105027 346.38855589868183 983.3960347869416 347.1437758465054 981.8305370953132 348.34495493068243 980.6292679001771 349.91054273326995 979.8740479523535 351.733667656831 979.61651083138 353.6900666888315 979.8740479523535 355.6464657208321 980.6292679001771 357.4695906443932 981.8305370953132 359.0351784469807 983.3960347869416 360.23635753115775 985.2191597105027 360.9915774789813 987.1755587425032 361.24911459995485 989.1319577745038 360.9915774789813 990.9550826980649 360.23635753115775 992.5205803896934 359.0351784469807 993.7218495848294 357.4695906443932 994.4770695326529 355.6464657208321 "
style="
    mix-blend-mode:normal;
    fill:rgb(126, 126, 126);
    fill-opacity:1.0;
    stroke:none;
    stroke-opacity:0;
    stroke-width:0
"/><polygon points=" 960.8190043290797 29.021272441279507 960.5614672081061 27.06478329831998 959.8062472602826 25.241658374759027 958.6049780651465 23.676160683130547 957.039480373518 22.474891487994455 955.216355449957 21.71976165112983 953.2599564179565 21.46222453015639 951.3035573859559 21.71976165112983 949.4804324623948 22.474891487994455 947.9149347707663 23.676160683130547 946.7136655756302 25.241658374759027 945.9584456278067 27.06478329831998 945.7009085068331 29.021272441279507 945.9584456278067 30.977671473280225 946.7136655756302 32.80070628588214 947.9149347707663 34.36629408846966 949.4804324623948 35.56756328360575 951.3035573859559 36.32269312047015 953.2599564179565 36.58032035240285 955.216355449957 36.32269312047015 957.039480373518 35.56756328360575 958.6049780651465 34.36629408846966 959.8062472602826 32.80070628588214 960.5614672081061 30.977671473280225 "
style="
    mix-blend-mode:normal;
    fill:rgb(126, 126, 126);
    fill-opacity:1.0;
    stroke:none;
    stroke-opacity:0;
    stroke-width:0
"/><polygon points=" 756.6327074395581 589.6351600979655 756.3751703185845 587.678761065965 755.6199954262405 585.8556361424038 754.4187262311044 584.2900933952959 752.8531834839964 583.0888242001598 751.0301036159149 582.3336943632953 749.0736595284347 582.0761121868422 747.1172154409547 582.3336943632953 745.2941355728732 583.0888242001598 743.7285928257652 584.2900933952959 742.5273236306291 585.8556361424038 741.7721937937646 587.678761065965 741.5146116173115 589.6351600979655 741.7721937937646 591.5916041854456 742.5273236306291 593.4146840535271 743.7285928257652 594.9802268006351 745.2941355728732 596.1814959957711 747.1172154409547 596.9366708881151 749.0736595284347 597.1942080090888 751.0301036159149 596.9366708881151 752.8531834839964 596.1814959957711 754.4187262311044 594.9802268006351 755.6199954262405 593.4146840535271 756.3751703185845 591.5916041854456 "
style="
    mix-blend-mode:normal;
    fill:rgb(126, 126, 126);
    fill-opacity:1.0;
    stroke:none;
    stroke-opacity:0;
    stroke-width:0
"/><polygon points=" 471.5883151054402 637.3108860918295 471.33073292898706 635.3544420043495 470.5756030921226 633.531362136268 469.3743338969865 631.96581938916 467.8087911498785 630.7645501940239 465.98571128179697 630.0093753016798 464.0292671943169 629.7518381807063 462.07282310683684 630.0093753016798 460.24974323875523 630.7645501940239 458.6842004916473 631.96581938916 457.4829312965112 633.531362136268 456.72780145964674 635.3544420043495 456.4702192831936 637.3108860918295 456.72780145964674 639.2673301793096 457.4829312965112 641.0904100473912 458.6842004916473 642.6559527944992 460.24974323875523 643.8572219896353 462.07282310683684 644.6123518264997 464.0292671943169 644.8699340029528 465.98571128179697 644.6123518264997 467.8087911498785 643.8572219896353 469.3743338969865 642.6559527944992 470.5756030921226 641.0904100473912 471.33073292898706 639.2673301793096 "
style="
    mix-blend-mode:normal;
    fill:rgb(126, 126, 126);
    fill-opacity:1.0;
    stroke:none;
    stroke-opacity:0;
    stroke-width:0
"/><polygon points=" 1411.9125730184555 1184.6276852422923 1411.655035897482 1182.6712411548122 1410.8999060606175 1180.8481612867306 1409.6986368654814 1179.2826185396225 1408.133139173853 1178.0813493444866 1406.310014250292 1177.326219507622 1404.3535251073324 1177.068637331169 1402.3971260753317 1177.326219507622 1400.5740912627298 1178.0813493444866 1399.0085034601423 1179.2826185396225 1397.8072342650062 1180.8481612867306 1397.0521044281418 1182.6712411548122 1396.794477196209 1184.6276852422923 1397.0521044281418 1186.5841293297722 1397.8072342650062 1188.407209197854 1399.0085034601423 1189.9727519449618 1400.5740912627298 1191.174021140098 1402.3971260753317 1191.9291509769623 1404.3535251073324 1192.1867331534154 1406.310014250292 1191.9291509769623 1408.133139173853 1191.174021140098 1409.6986368654814 1189.9727519449618 1410.8999060606175 1188.407209197854 1411.655035897482 1186.5841293297722 "
style="
    mix-blend-mode:normal;
    fill:rgb(126, 126, 126);
    fill-opacity:1.0;
    stroke:none;
    stroke-opacity:0;
    stroke-width:0
"/><polygon points=" 687.0530347964788 934.1171915782636 686.7954526200257 932.1607700185232 686.0403227831612 930.3376676227019 684.8390535880251 928.7721248755939 683.2735108409172 927.5708556804578 681.4504309728355 926.8157033158536 679.4939868853555 926.5581436671403 677.5375427978754 926.8157033158536 675.7144629297939 927.5708556804578 674.1489201826859 928.7721248755939 672.9476509875499 930.3376676227019 672.1925211506854 932.1607700185232 671.9349389742322 934.1171915782636 672.1925211506854 936.0736131380038 672.9476509875499 937.8967155338252 674.1489201826859 939.4622582809332 675.7144629297939 940.6635274760692 677.5375427978754 941.4186798406735 679.4939868853555 941.6762394893868 681.4504309728355 941.4186798406735 683.2735108409172 940.6635274760692 684.8390535880251 939.4622582809332 686.0403227831612 937.8967155338252 686.7954526200257 936.0736131380038 "
style="
    mix-blend-mode:normal;
    fill:rgb(126, 126, 126);
    fill-opacity:1.0;
    stroke:none;
    stroke-opacity:0;
    stroke-width:0
"/><polygon points=" 612.6035857042551 638.8900355937545 612.346003527802 636.9335915062744 611.5908736909375 635.1105116381929 610.3896044958014 633.5449688910849 608.8240617486935 632.3436996959489 607.0009818806119 631.5885248036049 605.0445377931319 631.3309426271518 603.0880937056518 631.5885248036049 601.2650138375702 632.3436996959489 599.6994710904622 633.5449688910849 598.4982018953261 635.1105116381929 597.7430720584617 636.9335915062744 597.4854898820086 638.8900355937545 597.7430720584617 640.846434625755 598.4982018953261 642.6695595493162 599.6994710904622 644.2350572409447 601.2650138375702 645.4363714915602 603.0880937056518 646.1915013284247 605.0445377931319 646.4490835048778 607.0009818806119 646.1915013284247 608.8240617486935 645.4363714915602 610.3896044958014 644.2350572409447 611.5908736909375 642.6695595493162 612.346003527802 640.846434625755 "
style="
    mix-blend-mode:normal;
    fill:rgb(126, 126, 126);
    fill-opacity:1.0;
    stroke:none;
    stroke-opacity:0;
    stroke-width:0
"/></g>
</svg>