<?xml version="1.0" encoding="UTF-8" standalone="no"?>
<svg
   width="600.0mm"
   height="338.0mm"
   version="1.1"
   id="svg40"
   sodipodi:docname="0.svg"
   inkscape:version="1.1.2 (0a00cf5339, 2022-02-04, custom)"
   xmlns:inkscape="http://www.inkscape.org/namespaces/inkscape"
   xmlns:sodipodi="http://sodipodi.sourceforge.net/DTD/sodipodi-0.dtd"
   xmlns="http://www.w3.org/2000/svg"
   xmlns:svg="http://www.w3.org/2000/svg">
  <sodipodi:namedview
     id="namedview42"
     pagecolor="#ffffff"
     bordercolor="#666666"
     borderopacity="1.0"
     inkscape:pageshadow="2"
     inkscape:pageopacity="0.0"
     inkscape:pagecheckerboard="0"
     inkscape:document-units="mm"
     showgrid="false"
     inkscape:zoom="0.39465746"
     inkscape:cx="961.59338"
     inkscape:cy="538.44162"
     inkscape:window-width="1920"
     inkscape:window-height="1043"
     inkscape:window-x="0"
     inkscape:window-y="0"
     inkscape:window-maximized="1"
     inkscape:current-layer="svg40" />
  <defs
     id="defs2" />
  <g
     id="g38"
     style="fill:#bbbbbb;fill-opacity:1">
    <polygon
       points="1979.8111,987.9279 1978.6099,986.36235 1977.0444,985.16108 1975.2212,984.40593 1973.2649,984.14837 1971.3084,984.40593 1969.4853,985.16108 1967.9199,986.36235 1966.7185,987.9279 1965.9634,989.751 1965.7057,991.70742 1965.9634,993.66384 1966.7185,995.48694 1967.9199,997.05249 1969.4853,998.25376 1971.3084,999.00891 1973.2649,999.26647 1975.2212,999.00891 1977.0444,998.25376 1978.6099,997.05249 1979.8111,995.48694 1980.5664,993.66384 1980.8238,991.70742 1980.5664,989.751 "
       style="mix-blend-mode:normal;fill:#bbbbbb;fill-opacity:1;stroke:none;stroke-width:0;stroke-opacity:0"
       id="polygon8" />
    <polygon
       points="1327.0009,605.41368 1325.7997,603.84814 1324.2341,602.64687 1322.411,601.89169 1320.4545,601.63416 1318.4981,601.89169 1316.675,602.64687 1315.1095,603.84814 1313.9083,605.41368 1313.1531,607.23676 1312.8955,609.1932 1313.1531,611.1496 1313.9083,612.97273 1315.1095,614.53827 1316.675,615.73954 1318.4981,616.49467 1320.4545,616.75225 1322.411,616.49467 1324.2341,615.73954 1325.7997,614.53827 1327.0009,612.97273 1327.7561,611.1496 1328.0137,609.1932 1327.7561,607.23676 "
       style="mix-blend-mode:normal;fill:#bbbbbb;fill-opacity:1;stroke:none;stroke-width:0;stroke-opacity:0"
       id="polygon10" />
    <polygon
       points="638.83218,570.28631 637.63091,568.72077 636.06537,567.5195 634.24229,566.76437 632.28585,566.50679 630.3294,566.76437 628.50632,567.5195 626.94078,568.72077 625.73951,570.28631 624.98438,572.10939 624.7268,574.06583 624.98438,576.02228 625.73951,577.84536 626.94078,579.4109 628.50632,580.61217 630.3294,581.36734 632.28585,581.62488 634.24229,581.36734 636.06537,580.61217 637.63091,579.4109 638.83218,577.84536 639.58731,576.02228 639.84489,574.06583 639.58731,572.10939 "
       style="mix-blend-mode:normal;fill:#bbbbbb;fill-opacity:1;stroke:none;stroke-width:0;stroke-opacity:0"
       id="polygon12" />
    <polygon
       points="428.08094,1214.5865 426.87967,1213.0209 425.31413,1211.8197 423.49105,1211.0645 421.53461,1210.8069 419.57816,1211.0645 417.75508,1211.8197 416.18954,1213.0209 414.98827,1214.5865 414.23314,1216.4096 413.97556,1218.366 414.23314,1220.3224 414.98827,1222.1455 416.18954,1223.7111 417.75508,1224.9123 419.57816,1225.6675 421.53461,1225.925 423.49105,1225.6675 425.31413,1224.9123 426.87967,1223.7111 428.08094,1222.1455 428.83607,1220.3224 429.09365,1218.366 428.83607,1216.4096 "
       style="mix-blend-mode:normal;fill:#bbbbbb;fill-opacity:1;stroke:none;stroke-width:0;stroke-opacity:0"
       id="polygon14" />
    <polygon
       points="938.78805,812.6136 937.58687,811.04806 936.02128,809.84679 934.19815,809.09162 932.24176,808.83403 930.28536,809.09162 928.46223,809.84679 926.89664,811.04806 925.69546,812.6136 924.94024,814.43668 924.68271,816.39313 924.94024,818.34957 925.69546,820.17265 926.89664,821.73819 928.46223,822.93946 930.28536,823.69459 932.24176,823.95217 934.19815,823.69459 936.02128,822.93946 937.58687,821.73819 938.78805,820.17265 939.54327,818.34957 939.8008,816.39313 939.54327,814.43668 "
       style="mix-blend-mode:normal;fill:#bbbbbb;fill-opacity:1;stroke:none;stroke-width:0;stroke-opacity:0"
       id="polygon16" />
    <polygon
       points="272.64846,988.19595 271.44719,986.63041 269.88169,985.42914 268.05857,984.67399 266.10217,984.41643 264.14577,984.67399 262.32264,985.42914 260.75715,986.63041 259.55588,988.19595 258.80066,990.01906 258.54312,991.97548 258.80066,993.9319 259.55588,995.755 260.75715,997.32055 262.32264,998.52181 264.14577,999.27697 266.10217,999.53453 268.05857,999.27697 269.88169,998.52181 271.44719,997.32055 272.64846,995.755 273.40368,993.9319 273.66122,991.97548 273.40368,990.01906 "
       style="mix-blend-mode:normal;fill:#bbbbbb;fill-opacity:1;stroke:none;stroke-width:0;stroke-opacity:0"
       id="polygon18" />
    <polygon
       points="1559.8962,394.22333 1558.695,392.65774 1557.1294,391.45647 1555.3063,390.70134 1553.35,390.4438 1551.3935,390.70134 1549.5704,391.45647 1548.0048,392.65774 1546.8036,394.22333 1546.0485,396.04645 1545.7908,398.00285 1546.0485,399.95925 1546.8036,401.78238 1548.0048,403.34787 1549.5704,404.54914 1551.3935,405.30427 1553.35,405.5619 1555.3063,405.30427 1557.1294,404.54914 1558.695,403.34787 1559.8962,401.78238 1560.6513,399.95925 1560.9089,398.00285 1560.6513,396.04645 "
       style="mix-blend-mode:normal;fill:#bbbbbb;fill-opacity:1;stroke:none;stroke-width:0;stroke-opacity:0"
       id="polygon20" />
    <polygon
       points="998.91242,1063.9016 997.71106,1062.3361 996.14556,1061.1348 994.32244,1060.3797 992.36604,1060.1221 990.40964,1060.3797 988.58652,1061.1348 987.02102,1062.3361 985.81966,1063.9016 985.06453,1065.7247 984.80699,1067.6811 985.06453,1069.6376 985.81966,1071.4607 987.02102,1073.0262 988.58652,1074.2275 990.40964,1074.9826 992.36604,1075.2402 994.32244,1074.9826 996.14556,1074.2275 997.71106,1073.0262 998.91242,1071.4607 999.66755,1069.6376 999.92509,1067.6811 999.66755,1065.7247 "
       style="mix-blend-mode:normal;fill:#bbbbbb;fill-opacity:1;stroke:none;stroke-width:0;stroke-opacity:0"
       id="polygon22" />
    <polygon
       points="1267.9274,1183.0502 1266.7262,1181.4846 1265.1606,1180.2833 1263.3375,1179.5282 1261.381,1179.2706 1259.4246,1179.5282 1257.6015,1180.2833 1256.036,1181.4846 1254.8348,1183.0502 1254.0796,1184.8732 1253.822,1186.8297 1254.0796,1188.7861 1254.8348,1190.6092 1256.036,1192.1747 1257.6015,1193.376 1259.4246,1194.1311 1261.381,1194.3887 1263.3375,1194.1311 1265.1606,1193.376 1266.7262,1192.1747 1267.9274,1190.6092 1268.6826,1188.7861 1268.9401,1186.8297 1268.6826,1184.8732 "
       style="mix-blend-mode:normal;fill:#bbbbbb;fill-opacity:1;stroke:none;stroke-width:0;stroke-opacity:0"
       id="polygon24" />
    <polygon
       points="838.95538,72.411321 837.75402,70.845733 836.18852,69.644554 834.36539,68.889424 832.409,68.631797 830.4526,68.889424 828.62947,69.644554 827.06397,70.845733 825.86261,72.411321 825.10748,74.234446 824.84995,76.190845 825.10748,78.147244 825.86261,79.970369 827.06397,81.535957 828.62947,82.737136 830.4526,83.492266 832.409,83.749893 834.36539,83.492266 836.18852,82.737136 837.75402,81.535957 838.95538,79.970369 839.71051,78.147244 839.96804,76.190845 839.71051,74.234446 "
       style="mix-blend-mode:normal;fill:#bbbbbb;fill-opacity:1;stroke:none;stroke-width:0;stroke-opacity:0"
       id="polygon26" />
    <polygon
       points="918.97931,553.72923 917.77805,552.16369 916.21246,550.96242 914.38942,550.20729 912.43293,549.94971 910.47653,550.20729 908.65341,550.96242 907.08791,552.16369 905.88664,553.72923 905.13142,555.55236 904.87389,557.50876 905.13142,559.4652 905.88664,561.28828 907.08791,562.85382 908.65341,564.05509 910.47653,564.81027 912.43293,565.0678 914.38942,564.81027 916.21246,564.05509 917.77805,562.85382 918.97931,561.28828 919.73444,559.4652 919.99198,557.50876 919.73444,555.55236 "
       style="mix-blend-mode:normal;fill:#bbbbbb;fill-opacity:1;stroke:none;stroke-width:0;stroke-opacity:0"
       id="polygon28" />
    <polygon
       points="262.81744,1173.2696 261.61617,1171.7041 260.05068,1170.5028 258.22755,1169.7477 256.27115,1169.4901 254.31475,1169.7477 252.49163,1170.5028 250.92613,1171.7041 249.72486,1173.2696 248.96964,1175.0927 248.7121,1177.0491 248.96964,1179.0056 249.72486,1180.8287 250.92613,1182.3942 252.49163,1183.5955 254.31475,1184.3506 256.27115,1184.6082 258.22755,1184.3506 260.05068,1183.5955 261.61617,1182.3942 262.81744,1180.8287 263.57266,1179.0056 263.8302,1177.0491 263.57266,1175.0927 "
       style="mix-blend-mode:normal;fill:#bbbbbb;fill-opacity:1;stroke:none;stroke-width:0;stroke-opacity:0"
       id="polygon30" />
    <polygon
       points="1020.2756,350.9625 1019.0743,349.39691 1017.5088,348.19564 1015.6857,347.44051 1013.7292,347.18297 1011.7728,347.44051 1009.9498,348.19564 1008.3842,349.39691 1007.1829,350.9625 1006.4278,352.78562 1006.1701,354.74202 1006.4278,356.69842 1007.1829,358.52155 1008.3842,360.08704 1009.9498,361.28831 1011.7728,362.04344 1013.7292,362.30107 1015.6857,362.04344 1017.5088,361.28831 1019.0743,360.08704 1020.2756,358.52155 1021.0307,356.69842 1021.2883,354.74202 1021.0307,352.78562 "
       style="mix-blend-mode:normal;fill:#bbbbbb;fill-opacity:1;stroke:none;stroke-width:0;stroke-opacity:0"
       id="polygon32" />
    <polygon
       points="1334.1861,1070.6358 1332.9847,1069.0702 1331.4192,1067.869 1329.5961,1067.1138 1327.6397,1066.8563 1325.6833,1067.1138 1323.8602,1067.869 1322.2947,1069.0702 1321.0933,1070.6358 1320.3382,1072.4589 1320.0807,1074.4153 1320.3382,1076.3718 1321.0933,1078.1948 1322.2947,1079.7604 1323.8602,1080.9617 1325.6833,1081.7168 1327.6397,1081.9744 1329.5961,1081.7168 1331.4192,1080.9617 1332.9847,1079.7604 1334.1861,1078.1948 1334.9412,1076.3718 1335.1988,1074.4153 1334.9412,1072.4589 "
       style="mix-blend-mode:normal;fill:#bbbbbb;fill-opacity:1;stroke:none;stroke-width:0;stroke-opacity:0"
       id="polygon34" />
    <polygon
       points="373.81865,953.49943 372.61738,951.93389 371.05188,950.73262 369.22875,949.97746 367.27235,949.7199 365.31596,949.97746 363.49283,950.73262 361.92733,951.93389 360.72606,953.49943 359.97084,955.32253 359.71331,957.27895 359.97084,959.23537 360.72606,961.05848 361.92733,962.62402 363.49283,963.82529 365.31596,964.58044 367.27235,964.838 369.22875,964.58044 371.05188,963.82529 372.61738,962.62402 373.81865,961.05848 374.57387,959.23537 374.8314,957.27895 374.57387,955.32253 "
       style="mix-blend-mode:normal;fill:#bbbbbb;fill-opacity:1;stroke:none;stroke-width:0;stroke-opacity:0"
       id="polygon36" />
  </g>
</svg>
