<?xml version="1.0" encoding="UTF-8" standalone="no"?>
<svg
   width="319.5994mm"
   height="330.60239mm"
   version="1.1"
   id="svg394"
   sodipodi:docname="arch_graph.svg"
   inkscape:version="1.3 (0e150ed6c4, 2023-07-21)"
   inkscape:export-filename="rotonda_depthmap.pdf"
   inkscape:export-xdpi="400"
   inkscape:export-ydpi="400"
   xml:space="preserve"
   xmlns:inkscape="http://www.inkscape.org/namespaces/inkscape"
   xmlns:sodipodi="http://sodipodi.sourceforge.net/DTD/sodipodi-0.dtd"
   xmlns="http://www.w3.org/2000/svg"
   xmlns:svg="http://www.w3.org/2000/svg"><sodipodi:namedview
     id="namedview396"
     pagecolor="#121212"
     bordercolor="#666666"
     borderopacity="1.0"
     inkscape:showpageshadow="2"
     inkscape:pageopacity="0.0"
     inkscape:pagecheckerboard="0"
     inkscape:deskcolor="#d1d1d1"
     inkscape:document-units="mm"
     showgrid="false"
     inkscape:zoom="0.49106481"
     inkscape:cx="721.90064"
     inkscape:cy="812.52004"
     inkscape:window-width="1920"
     inkscape:window-height="1043"
     inkscape:window-x="0"
     inkscape:window-y="0"
     inkscape:window-maximized="1"
     inkscape:current-layer="g1"
     showguides="true" /><defs
     id="defs2"><g
       class="clips"
       id="g4413"><clipPath
         id="clipf40a49xyplot"
         class="plotclip"><rect
           width="1517"
           height="980"
           id="rect4401"
           x="0"
           y="0" /></clipPath><clipPath
         class="axesclip"
         id="clipf40a49x"><rect
           x="228"
           y="0"
           width="1517"
           height="1000"
           id="rect4404" /></clipPath><clipPath
         class="axesclip"
         id="clipf40a49y"><rect
           x="0"
           y="20"
           width="1900"
           height="980"
           id="rect4407" /></clipPath><clipPath
         class="axesclip"
         id="clipf40a49xy"><rect
           x="228"
           y="20"
           width="1517"
           height="980"
           id="rect4410" /></clipPath></g><g
       class="gradients"
       id="g4430"><linearGradient
         x1="0"
         x2="0"
         y1="1"
         y2="0"
         id="gf40a49-cb67cb53"><stop
           offset="0%"
           stop-color="rgb(228, 241, 225)"
           stop-opacity="1"
           id="stop4415" /><stop
           offset="16.666667%"
           stop-color="rgb(180, 217, 204)"
           stop-opacity="1"
           id="stop4417" /><stop
           offset="33.333333%"
           stop-color="rgb(137, 192, 182)"
           stop-opacity="1"
           id="stop4419" /><stop
           offset="50%"
           stop-color="rgb(99, 166, 160)"
           stop-opacity="1"
           id="stop4421" /><stop
           offset="66.666667%"
           stop-color="rgb(68, 140, 138)"
           stop-opacity="1"
           id="stop4423" /><stop
           offset="83.333333%"
           stop-color="rgb(40, 114, 116)"
           stop-opacity="1"
           id="stop4425" /><stop
           offset="100%"
           stop-color="rgb(13, 88, 95)"
           stop-opacity="1"
           id="stop4427" /></linearGradient></g><g
       class="patterns"
       id="g4432" /><g
       class="clips"
       id="g4535" /><clipPath
       id="legendf40a49"><rect
         width="125"
         height="58"
         x="0"
         y="0"
         id="rect4537" /></clipPath><g
       class="clips"
       id="g4808"><clipPath
         id="clipadd7bdxyplot"
         class="plotclip"><rect
           width="1517"
           height="980"
           id="rect4796"
           x="0"
           y="0" /></clipPath><clipPath
         class="axesclip"
         id="clipadd7bdx"><rect
           x="228"
           y="0"
           width="1517"
           height="1000"
           id="rect4799" /></clipPath><clipPath
         class="axesclip"
         id="clipadd7bdy"><rect
           x="0"
           y="20"
           width="1900"
           height="980"
           id="rect4802" /></clipPath><clipPath
         class="axesclip"
         id="clipadd7bdxy"><rect
           x="228"
           y="20"
           width="1517"
           height="980"
           id="rect4805" /></clipPath></g><g
       class="gradients"
       id="g4825"><linearGradient
         x1="-1744"
         x2="-1744"
         y1="120"
         y2="0"
         id="gadd7bd-cbd0987a"
         gradientTransform="scale(0.125,8)"
         gradientUnits="userSpaceOnUse"><stop
           offset="0%"
           stop-color="rgb(228, 241, 225)"
           stop-opacity="1"
           id="stop4810" /><stop
           offset="16.666667%"
           stop-color="rgb(180, 217, 204)"
           stop-opacity="1"
           id="stop4812" /><stop
           offset="33.333333%"
           stop-color="rgb(137, 192, 182)"
           stop-opacity="1"
           id="stop4814" /><stop
           offset="50%"
           stop-color="rgb(99, 166, 160)"
           stop-opacity="1"
           id="stop4816" /><stop
           offset="66.666667%"
           stop-color="rgb(68, 140, 138)"
           stop-opacity="1"
           id="stop4818" /><stop
           offset="83.333333%"
           stop-color="rgb(40, 114, 116)"
           stop-opacity="1"
           id="stop4820" /><stop
           offset="100%"
           stop-color="rgb(13, 88, 95)"
           stop-opacity="1"
           id="stop4822" /></linearGradient></g><g
       class="patterns"
       id="g4827" /><g
       class="clips"
       id="g4930" /><clipPath
       id="legendadd7bd"><rect
         width="125"
         height="58"
         x="0"
         y="0"
         id="rect4932" /></clipPath></defs><g
     id="g286"
     style="fill:#121212;fill-opacity:1;stroke:#e5e5e5;stroke-width:3.77953;stroke-dasharray:none;stroke-opacity:1"
     transform="translate(-100.15853,-101.17341)"><g
       id="g2"><path
         id="polygon4"
         style="stroke-width:1.88976;stroke-linejoin:bevel;stroke-dasharray:none;paint-order:markers fill stroke"
         d="m 860.07984,1176.4674 v 173.2819 H 548.17207 v -173.2819 z" /><path
         id="polygon6"
         style="stroke-width:1.88976;stroke-linejoin:bevel;stroke-dasharray:none;paint-order:markers fill stroke"
         d="M 860.07984,275.4003 H 548.17207 V 102.11829 h 311.90777 z" /><path
         id="polygon8"
         style="stroke-width:1.88976;stroke-linejoin:bevel;stroke-dasharray:none;paint-order:markers fill stroke"
         d="M 274.38661,569.97995 V 881.88771 H 101.10341 V 569.97995 Z" /><path
         id="polygon10"
         style="stroke-width:1.88976;stroke-linejoin:bevel;stroke-dasharray:none;paint-order:markers fill stroke"
         d="M 1307.1484,569.97995 V 881.88771 H 1133.8653 V 569.97995 Z" /><path
         id="polygon20"
         style="stroke-width:1.88976;stroke-linejoin:bevel;stroke-dasharray:none;paint-order:markers fill stroke"
         d="M 860.07984,1176.4674 H 548.17207 V 1055.169 h 86.64082 138.62612 86.64083 z" /><path
         id="polygon22"
         style="stroke-width:1.88976;stroke-linejoin:bevel;stroke-dasharray:none;paint-order:markers fill stroke"
         d="M 773.43873,396.69866 H 634.81318 548.17207 V 275.4003 h 311.90777 v 121.29836 z" /><path
         id="polygon24"
         style="stroke-width:1.88976;stroke-linejoin:bevel;stroke-dasharray:none;paint-order:markers fill stroke"
         d="m 392.21822,569.97995 0.001,110.90063 v 90.10649 l -0.001,110.90064 H 274.38661 V 569.97995 Z" /><path
         id="polygon26"
         style="stroke-width:1.88976;stroke-linejoin:bevel;stroke-dasharray:none;paint-order:markers fill stroke"
         d="M 1016.0324,680.88058 V 569.97995 h 117.8317 V 881.88771 H 1016.0324 V 770.98707 Z" /><path
         id="polygon28"
         style="stroke-width:1.88976;stroke-linejoin:bevel;stroke-dasharray:none;paint-order:markers fill stroke"
         d="M 392.21822,569.97995 V 396.69866 h 155.95385 86.64111 l -1.4e-4,173.28129 -86.64032,6.4e-4 z" /><path
         id="polygon30"
         style="stroke-width:1.88976;stroke-linejoin:bevel;stroke-dasharray:none;paint-order:markers fill stroke"
         d="M 634.81289,1055.1703 H 548.17207 392.21822 V 881.88771 h 155.95385 86.64097 z" /><path
         id="polygon32"
         style="stroke-width:1.88976;stroke-linejoin:bevel;stroke-dasharray:none;paint-order:markers fill stroke"
         d="M 1016.0336,881.88771 V 1055.169 H 860.07984 773.43901 l -1.4e-4,-173.28259 h 86.64097 z" /><path
         id="polygon34"
         style="stroke-width:1.88976;stroke-linejoin:bevel;stroke-dasharray:none;paint-order:markers fill stroke"
         d="m 1016.0336,569.97995 -155.95441,6.4e-4 -86.64032,-6.4e-4 -1.4e-4,-173.28129 h 86.64111 155.95376 z" /><path
         id="polygon36"
         style="stroke-width:1.88976;stroke-linejoin:bevel;stroke-dasharray:none;paint-order:markers fill stroke"
         d="m 392.21822,881.88771 0.001,-110.90064 155.95259,1.5e-4 v 110.90049 z" /><path
         id="polygon38"
         style="stroke-width:1.88976;stroke-linejoin:bevel;stroke-dasharray:none;paint-order:markers fill stroke"
         d="m 548.17207,680.88044 -155.95259,1.4e-4 -10e-4,-110.90063 155.9545,6.4e-4 z" /><path
         id="polygon40"
         style="stroke-width:1.88976;stroke-linejoin:bevel;stroke-dasharray:none;paint-order:markers fill stroke"
         d="M 1016.0336,881.88771 H 860.07984 V 770.98722 l 155.95256,-1.5e-4 z" /><path
         id="polygon42"
         style="stroke-width:1.88976;stroke-linejoin:bevel;stroke-dasharray:none;paint-order:markers fill stroke"
         d="m 860.07984,680.88044 -6.5e-4,-110.89985 155.95441,-6.4e-4 v 110.90063 z" /><path
         id="polygon44"
         style="stroke-width:1.88976;stroke-linejoin:bevel;stroke-dasharray:none;paint-order:markers fill stroke"
         d="m 578.81239,680.88058 v 90.10649 l -30.64032,1.5e-4 -155.95259,-1.5e-4 v -90.10649 l 155.95259,-1.4e-4 z" /><path
         id="polygon46"
         style="stroke-width:1.88976;stroke-linejoin:bevel;stroke-dasharray:none;paint-order:markers fill stroke"
         d="m 829.43951,770.98707 v -90.10649 l 30.64033,-1.4e-4 155.95256,1.4e-4 v 90.10649 l -155.95256,1.5e-4 z" /><path
         id="polygon48"
         style="stroke-width:1.88976;stroke-linejoin:bevel;stroke-dasharray:none;paint-order:markers fill stroke"
         d="m 625.69929,617.98869 -13.17567,11.25399 -2.74485,2.34397 -13.59796,15.92051 -10.93987,17.85192 -6.42855,15.5215 -30.64032,-1.4e-4 6.5e-4,-110.89985 86.64032,-6.4e-4 h 34.65653 v 27.47886 l -6.575,1.57853 -19.34308,8.01209 z" /><path
         id="polygon50"
         style="stroke-width:1.88976;stroke-linejoin:bevel;stroke-dasharray:none;paint-order:markers fill stroke"
         d="m 596.18081,804.3605 13.59796,15.92051 2.74485,2.34397 13.17567,11.25399 17.85191,10.93987 19.34322,8.01212 6.57515,1.57788 v 27.47887 H 634.81304 548.17207 V 770.98722 l 30.64032,-1.5e-4 6.42855,15.52151 z" /><path
         id="polygon52"
         style="stroke-width:1.88976;stroke-linejoin:bevel;stroke-dasharray:none;paint-order:markers fill stroke"
         d="m 634.81289,1055.1703 1.5e-4,-173.28259 h 34.65653 v -27.47887 h 69.31277 v 27.47887 h 34.65653 l 1.4e-4,173.28259 z" /><path
         id="polygon54"
         style="stroke-width:1.88976;stroke-linejoin:bevel;stroke-dasharray:none;paint-order:markers fill stroke"
         d="m 634.81318,396.69866 h 138.62555 l 1.4e-4,173.28129 h -34.65653 v 27.47886 h -69.31277 v -27.47886 h -34.65653 z" /><path
         id="polygon56"
         style="stroke-width:1.88976;stroke-linejoin:bevel;stroke-dasharray:none;paint-order:markers fill stroke"
         d="m 798.47314,631.58665 -2.74486,-2.34397 -13.17566,-11.25399 -17.85221,-10.93926 -19.34307,-8.01209 -6.575,-1.57853 v -27.47886 h 34.65653 l 86.64032,6.4e-4 6.5e-4,110.89985 -30.64033,1.4e-4 -6.42858,-15.5215 -10.93983,-17.85192 z" /><path
         id="polygon58"
         style="stroke-width:1.88976;stroke-linejoin:bevel;stroke-dasharray:none;paint-order:markers fill stroke"
         d="m 829.43951,770.98707 -6.42858,15.52151 -10.93983,17.85192 -13.59796,15.92051 -2.74486,2.34397 -13.17566,11.25399 -17.85192,10.93987 -19.34322,8.01212 -6.57514,1.57788 h -69.31277 l -6.57515,-1.57788 -19.34322,-8.01212 -17.85191,-10.93987 -13.17567,-11.25399 -2.74485,-2.34397 -13.59796,-15.92051 -10.93987,-17.85192 -6.42855,-15.52151 v -90.10649 l 6.42855,-15.5215 10.93987,-17.85192 13.59796,-15.92051 2.74485,-2.34397 13.17567,-11.25399 17.8522,-10.93926 19.34308,-8.01209 6.575,-1.57853 h 69.31277 l 6.575,1.57853 19.34307,8.01209 17.85221,10.93926 13.17566,11.25399 2.74486,2.34397 13.59796,15.92051 10.93983,17.85192 6.42858,15.5215 z" /><path
         id="polygon60"
         style="stroke-width:1.88976;stroke-linejoin:bevel;stroke-dasharray:none;paint-order:markers fill stroke"
         d="m 782.55262,833.87897 13.17566,-11.25399 2.74486,-2.34397 13.59796,-15.92051 10.93983,-17.85192 6.42858,-15.52151 30.64033,1.5e-4 v 110.90049 h -86.64097 -34.65653 v -27.47887 l 6.57514,-1.57788 19.34322,-8.01212 z" /></g><g
       id="g1"
       transform="translate(-1663.9474,-40.194822)"><g
         id="g392"
         style="stroke:#e5e5e5;stroke-width:5.66929;stroke-dasharray:11.3386, 5.66929;stroke-dashoffset:0;stroke-opacity:1"
         transform="translate(1663.9474,40.194161)"><path
           id="line288"
           style="fill:#ffffff;stroke-linejoin:bevel;paint-order:markers fill stroke"
           d="m 704.12598,1143.1434 v 138.1527" /><path
           id="line290"
           style="fill:#ffffff;stroke-linejoin:bevel;paint-order:markers fill stroke"
           d="M 704.12598,308.72549 V 170.57278" /><path
           id="line292"
           style="fill:#ffffff;stroke-linejoin:bevel;paint-order:markers fill stroke"
           d="M 307.31189,725.93384 H 170.26303" /><path
           id="line294"
           style="fill:#ffffff;stroke-linejoin:bevel;paint-order:markers fill stroke"
           d="m 1100.9401,725.93384 h 137.0488" /><path
           id="line296"
           style="fill:#ffffff;stroke-linejoin:bevel;paint-order:markers fill stroke"
           d="M 500.15674,985.53125 704.12595,1115.8189"
           sodipodi:nodetypes="cc" /><path
           id="line298"
           style="fill:#ffffff;stroke-linejoin:bevel;paint-order:markers fill stroke"
           d="M 704.12609,1117.1435 908.09515,985.53125"
           sodipodi:nodetypes="cc" /><path
           id="line300"
           style="fill:#ffffff;stroke-linejoin:bevel;paint-order:markers fill stroke"
           d="M 704.12609,334.72549 500.15735,466.33707"
           sodipodi:nodetypes="cc" /><path
           id="line302"
           style="fill:#ffffff;stroke-linejoin:bevel;paint-order:markers fill stroke"
           d="M 908.09454,466.33707 704.12598,334.72556"
           sodipodi:nodetypes="cc" /><path
           id="line304"
           style="fill:#ffffff;stroke-linejoin:bevel;paint-order:markers fill stroke"
           d="M 453.79968,618.38641 333.30291,725.93449"
           sodipodi:nodetypes="cc" /><path
           id="line306"
           style="fill:#ffffff;stroke-linejoin:bevel;paint-order:markers fill stroke"
           d="M 500.15735,466.33707 453.79968,618.38641" /><path
           id="line308"
           style="fill:#ffffff;stroke-linejoin:bevel;paint-order:markers fill stroke"
           d="m 908.09454,466.33707 46.35773,152.04934" /><path
           id="line310"
           style="fill:#ffffff;stroke-linejoin:bevel;paint-order:markers fill stroke"
           d="M 954.45227,618.38641 1074.9401,725.93384"
           sodipodi:nodetypes="cc" /><path
           id="line312"
           style="fill:#ffffff;stroke-linejoin:bevel;paint-order:markers fill stroke"
           d="M 453.79968,833.48126 333.30364,725.93384"
           sodipodi:nodetypes="cc" /><path
           id="line314"
           style="fill:#ffffff;stroke-linejoin:bevel;paint-order:markers fill stroke"
           d="m 453.79968,833.48126 46.35706,152.04999" /><path
           id="line316"
           style="fill:#ffffff;stroke-linejoin:bevel;paint-order:markers fill stroke"
           d="M 954.45227,833.48126 908.09515,985.53125" /><path
           id="line318"
           style="fill:#ffffff;stroke-linejoin:bevel;paint-order:markers fill stroke"
           d="M 1074.9401,725.93383 954.45227,833.48126"
           sodipodi:nodetypes="cc" /><path
           id="line320"
           style="fill:#ffffff;stroke-linejoin:bevel;paint-order:markers fill stroke"
           d="m 704.12598,977.64026 -203.96924,7.89099" /><path
           id="line322"
           style="fill:#ffffff;stroke-linejoin:bevel;paint-order:markers fill stroke"
           d="M 704.12598,977.64026 V 1143.1434" /><path
           id="line324"
           style="fill:#ffffff;stroke-linejoin:bevel;paint-order:markers fill stroke"
           d="m 704.12598,977.64026 203.96917,7.89099" /><path
           id="line326"
           style="fill:#ffffff;stroke-linejoin:bevel;paint-order:markers fill stroke"
           d="M 704.12598,474.22739 500.15735,466.33707" /><path
           id="line328"
           style="fill:#ffffff;stroke-linejoin:bevel;paint-order:markers fill stroke"
           d="M 704.12598,474.22739 V 308.72549" /><path
           id="line330"
           style="fill:#ffffff;stroke-linejoin:bevel;paint-order:markers fill stroke"
           d="m 704.12598,474.22739 203.96856,-7.89032" /><path
           id="line332"
           style="fill:#ffffff;stroke-linejoin:bevel;paint-order:markers fill stroke"
           d="m 938.05835,725.93384 16.39392,107.54742" /><path
           id="line334"
           style="fill:#ffffff;stroke-linejoin:bevel;paint-order:markers fill stroke"
           d="M 938.05835,725.93384 H 1100.9401" /><path
           id="line336"
           style="fill:#ffffff;stroke-linejoin:bevel;paint-order:markers fill stroke"
           d="M 954.45227,618.38641 938.05835,725.93384" /><path
           id="line338"
           style="fill:#ffffff;stroke-linejoin:bevel;paint-order:markers fill stroke"
           d="M 470.19357,725.93384 H 307.31189" /><path
           id="line340"
           style="fill:#ffffff;stroke-linejoin:bevel;paint-order:markers fill stroke"
           d="M 470.19357,725.93384 453.79968,833.48126" /><path
           id="line342"
           style="fill:#ffffff;stroke-linejoin:bevel;paint-order:markers fill stroke"
           d="M 470.19357,725.93384 453.79968,618.38641" /><path
           id="line376"
           style="fill:#ffffff;stroke-linejoin:bevel;paint-order:markers fill stroke"
           d="M 704.12598,725.93384 H 470.19357" /><path
           id="line378"
           style="fill:#ffffff;stroke-linejoin:bevel;paint-order:markers fill stroke"
           d="M 704.12598,725.93384 585.68689,848.24902" /><path
           id="line380"
           style="fill:#ffffff;stroke-linejoin:bevel;paint-order:markers fill stroke"
           d="M 704.12598,725.93384 585.68689,603.61865" /><path
           id="line382"
           style="fill:#ffffff;stroke-linejoin:bevel;paint-order:markers fill stroke"
           d="M 704.12598,725.93384 V 977.64026" /><path
           id="line384"
           style="fill:#ffffff;stroke-linejoin:bevel;paint-order:markers fill stroke"
           d="M 704.12598,725.93384 822.565,848.24902" /><path
           id="line386"
           style="fill:#ffffff;stroke-linejoin:bevel;paint-order:markers fill stroke"
           d="M 704.12598,725.93384 H 938.05835" /><path
           id="line388"
           style="fill:#ffffff;stroke-linejoin:bevel;paint-order:markers fill stroke"
           d="M 704.12598,474.22739 V 725.93384" /><path
           id="line390"
           style="fill:#ffffff;stroke-linejoin:bevel;paint-order:markers fill stroke"
           d="M 822.565,603.61865 704.12598,725.93384" /></g></g></g><g
     class="layer-below"
     id="g4838"
     transform="translate(-1734.6381,440.17586)"><g
       class="imagelayer"
       id="g4834" /><g
       class="shapelayer"
       id="g4836" /></g><g
     class="polarlayer"
     id="g4908"
     transform="translate(-1734.6381,440.17586)" /><g
     class="smithlayer"
     id="g4910"
     transform="translate(-1734.6381,440.17586)" /><g
     class="ternarylayer"
     id="g4912"
     transform="translate(-1734.6381,440.17586)" /><g
     class="geolayer"
     id="g4914"
     transform="translate(-1734.6381,440.17586)" /><g
     class="funnelarealayer"
     id="g4916"
     transform="translate(-1734.6381,440.17586)" /><g
     class="pielayer"
     id="g4918"
     transform="translate(-1734.6381,440.17586)" /><g
     class="iciclelayer"
     id="g4920"
     transform="translate(-1734.6381,440.17586)" /><g
     class="treemaplayer"
     id="g4922"
     transform="translate(-1734.6381,440.17586)" /><g
     class="sunburstlayer"
     id="g4924"
     transform="translate(-1734.6381,440.17586)" /><g
     class="layer-above"
     id="g4940"
     transform="translate(-1734.6381,440.17586)"><g
       class="imagelayer"
       id="g4936" /><g
       class="shapelayer"
       id="g4938" /></g><g
     class="infolayer"
     id="g5050"
     transform="translate(-570.79053,122.77047)"><g
       class="g-gtitle"
       id="g5048" /></g></svg>
