<?xml version="1.0" encoding="UTF-8" standalone="no"?>
<svg
   width="1041"
   height="1015.6874"
   viewBox="0 0 1041 1015.6873"
   fill="none"
   version="1.1"
   id="svg1"
   sodipodi:docname="github.svg"
   inkscape:version="1.3 (0e150ed6c4, 2023-07-21)"
   xmlns:inkscape="http://www.inkscape.org/namespaces/inkscape"
   xmlns:sodipodi="http://sodipodi.sourceforge.net/DTD/sodipodi-0.dtd"
   xmlns="http://www.w3.org/2000/svg"
   xmlns:svg="http://www.w3.org/2000/svg">
  <defs
     id="defs1" />
  <sodipodi:namedview
     id="namedview1"
     pagecolor="#2f9080"
     bordercolor="#666666"
     borderopacity="1.0"
     inkscape:showpageshadow="2"
     inkscape:pageopacity="0.0"
     inkscape:pagecheckerboard="0"
     inkscape:deskcolor="#d1d1d1"
     inkscape:zoom="0.7890625"
     inkscape:cx="520.87129"
     inkscape:cy="520.87129"
     inkscape:window-width="1920"
     inkscape:window-height="1043"
     inkscape:window-x="0"
     inkscape:window-y="0"
     inkscape:window-maximized="1"
     inkscape:current-layer="svg1" />
  <path
     fill-rule="evenodd"
     clip-rule="evenodd"
     d="m 520.5,8.5 c -282.88,0 -512,229.12 -512,512 0,226.56 146.56,417.92 350.08,485.76 25.6,4.48 35.2,-10.88 35.2,-24.32 0,-12.16 -0.64,-52.48 -0.64,-95.36 C 264.5,910.26 231.22,855.22 220.98,826.42 215.22,811.7 190.26,766.26 168.5,754.1 c -17.92,-9.6 -43.52,-33.28 -0.64,-33.92 40.32,-0.64 69.12,37.12 78.72,52.48 46.08,77.44 119.68,55.68 149.12,42.24 4.48,-33.28 17.92,-55.68 32.64,-68.48 -113.92,-12.8 -232.96,-56.96 -232.96,-252.8 0,-55.68 19.84,-101.76 52.48,-137.6 -5.12,-12.8 -23.04,-65.28 5.12,-135.68 0,0 42.88,-13.44 140.8,52.48 40.96,-11.52 84.48,-17.28 128,-17.28 43.52,0 87.04,5.76 128,17.28 97.92,-66.56 140.8,-52.48 140.8,-52.48 28.16,70.4 10.24,122.88 5.12,135.68 32.64,35.84 52.48,81.28 52.48,137.6 0,196.48 -119.68,240 -233.6,252.8 18.56,16 34.56,46.72 34.56,94.72 0,68.48 -0.64,123.52 -0.64,140.8 0,13.44 9.6,29.44 35.2,24.32 202.24,-67.84 348.8,-259.84 348.8,-485.76 0,-282.88 -229.12,-512 -512,-512 z"
     fill="#1B1F23"
     id="path1"
     style="fill:#e5e5e5;fill-opacity:1;stroke:#121212;stroke-width:17;stroke-dasharray:none;stroke-opacity:1" />
</svg>
