<?xml version="1.0" encoding="UTF-8" standalone="no"?>
<!-- Created with Inkscape (http://www.inkscape.org/) -->

<svg
   width="1920"
   height="1080"
   viewBox="0 0 508 285.75"
   version="1.1"
   id="svg5"
   xml:space="preserve"
   sodipodi:docname="mockup_2.svg"
   inkscape:version="1.3 (0e150ed6c4, 2023-07-21)"
   inkscape:export-filename="mockup_2.pdf"
   inkscape:export-xdpi="400"
   inkscape:export-ydpi="400"
   xmlns:inkscape="http://www.inkscape.org/namespaces/inkscape"
   xmlns:sodipodi="http://sodipodi.sourceforge.net/DTD/sodipodi-0.dtd"
   xmlns="http://www.w3.org/2000/svg"
   xmlns:svg="http://www.w3.org/2000/svg"><sodipodi:namedview
     id="namedview7"
     pagecolor="#121212"
     bordercolor="#666666"
     borderopacity="1.0"
     inkscape:showpageshadow="2"
     inkscape:pageopacity="0.0"
     inkscape:pagecheckerboard="0"
     inkscape:deskcolor="#d1d1d1"
     inkscape:document-units="mm"
     showgrid="false"
     showguides="true"
     inkscape:zoom="0.62870844"
     inkscape:cx="874.80932"
     inkscape:cy="477.16872"
     inkscape:window-width="1920"
     inkscape:window-height="1043"
     inkscape:window-x="0"
     inkscape:window-y="0"
     inkscape:window-maximized="1"
     inkscape:current-layer="g1" /><defs
     id="defs2" /><g
     inkscape:label="Layer 1"
     inkscape:groupmode="layer"
     id="layer1"
     transform="translate(-705.98767,-33.961479)"><g
       id="g1"
       transform="matrix(0.82218073,0,0,0.82218073,119.44713,1.2532426)"><rect
         style="fill:#5ed8b9;fill-opacity:1;stroke:none;stroke-width:2.66777;stroke-linecap:round;stroke-miterlimit:10;stroke-dasharray:none;stroke-opacity:1"
         id="rect5543-4"
         width="23.873123"
         height="30.720219"
         x="719.10724"
         y="212.14742"
         ry="5.1609554" /><path
         style="font-weight:bold;font-size:17.6389px;line-height:1.25;font-family:Roboto;-inkscape-font-specification:'Roboto Bold';text-align:center;text-anchor:middle;white-space:pre;inline-size:24.1196;fill:#30b290;stroke-width:0.264583"
         d="M 179.76564,325.85666 V 313.3165 h 4.3925 q 2.28238,0 3.46233,0.8785 1.17994,0.86989 1.17994,2.55799 0,0.92156 -0.4737,1.62781 -0.4737,0.69763 -1.31775,1.02491 0.96463,0.24116 1.51584,0.97324 0.55983,0.73209 0.55983,1.79145 0,1.80868 -1.15411,2.73886 -1.1541,0.93017 -3.29006,0.9474 z m 2.58383,-5.46048 v 3.38481 h 2.21347 q 0.91295,0 1.4211,-0.43064 0.51677,-0.43925 0.51677,-1.20578 0,-1.72255 -1.78284,-1.74839 z m 0,-1.8259 h 1.91202 q 1.9551,-0.0345 1.9551,-1.55891 0,-0.85266 -0.49954,-1.22301 -0.49093,-0.37896 -1.55891,-0.37896 h -1.80867 z"
         id="text8545-2"
         transform="translate(546.67892,-96.995188)"
         aria-label="B" /><path
         style="font-weight:bold;font-size:9.525px;line-height:1.25;font-family:Roboto;-inkscape-font-specification:'Roboto Bold';text-align:center;text-anchor:middle;white-space:pre;inline-size:42.3269;fill:#30b290;stroke-width:0.264583"
         d="m 189.28748,319.01522 v 1.10691 h -0.13022 q -0.91157,0.0139 -1.46968,0.47439 -0.55345,0.46043 -0.66508,1.27899 0.53951,-0.54881 1.36271,-0.54881 0.88367,0 1.40457,0.63252 0.5209,0.63252 0.5209,1.66502 0,0.66042 -0.28836,1.19527 -0.2837,0.53485 -0.80925,0.83251 -0.5209,0.29766 -1.18133,0.29766 -1.0697,0 -1.73012,-0.74414 -0.65578,-0.74414 -0.65578,-1.98593 v -0.48369 q 0,-1.10226 0.41393,-1.94407 0.41858,-0.84646 1.19528,-1.30689 0.78135,-0.46509 1.80919,-0.46974 z m -1.31155,3.39049 q -0.32556,0 -0.59066,0.17208 -0.2651,0.16743 -0.39067,0.44648 v 0.40928 q 0,0.67438 0.2651,1.05575 0.2651,0.37672 0.74414,0.37672 0.43253,0 0.69763,-0.33951 0.26975,-0.34417 0.26975,-0.88832 0,-0.55345 -0.26975,-0.89297 -0.26975,-0.33951 -0.72554,-0.33951 z m 7.10655,0.90227 h 0.76739 v 1.08365 h -0.76739 v 1.46503 h -1.34411 v -1.46503 h -2.77657 l -0.0605,-0.84646 2.82308,-4.46019 h 1.35806 z m -2.84169,0 h 1.49758 v -2.39055 l -0.0884,0.15347 z m 5.69733,-1.43247 h 0.71623 q 0.5116,0 0.7581,-0.2558 0.24649,-0.2558 0.24649,-0.67903 0,-0.40928 -0.24649,-0.63717 -0.24185,-0.22789 -0.66973,-0.22789 -0.38602,0 -0.64647,0.21394 -0.26045,0.20929 -0.26045,0.5488 h -1.34411 q 0,-0.5302 0.28371,-0.94878 0.28835,-0.42323 0.79995,-0.66042 0.51625,-0.2372 1.13481,-0.2372 1.07436,0 1.68362,0.51625 0.60927,0.5116 0.60927,1.41387 0,0.46508 -0.28371,0.85576 -0.2837,0.39067 -0.74414,0.59996 0.57206,0.20464 0.85111,0.61392 0.28371,0.40927 0.28371,0.96738 0,0.90227 -0.66043,1.44642 -0.65577,0.54416 -1.73943,0.54416 -1.01389,0 -1.66036,-0.53485 -0.64182,-0.53486 -0.64182,-1.41387 h 1.3441 q 0,0.38137 0.28371,0.62322 0.28835,0.24184 0.70693,0.24184 0.47904,0 0.74879,-0.25115 0.2744,-0.25579 0.2744,-0.67437 0,-1.01389 -1.11621,-1.01389 h -0.71158 z"
         id="text8737-6"
         transform="translate(537.66583,-86.471383)"
         aria-label="643" /></g></g></svg>
