<?xml version="1.0" encoding="UTF-8" standalone="no"?>
<!-- Created with Inkscape (http://www.inkscape.org/) -->

<svg
   width="1920"
   height="1080"
   viewBox="0 0 508 285.75"
   version="1.1"
   id="svg5"
   xml:space="preserve"
   sodipodi:docname="mockup_1.svg"
   inkscape:version="1.3 (0e150ed6c4, 2023-07-21)"
   inkscape:export-filename="mockup_2.pdf"
   inkscape:export-xdpi="400"
   inkscape:export-ydpi="400"
   xmlns:inkscape="http://www.inkscape.org/namespaces/inkscape"
   xmlns:sodipodi="http://sodipodi.sourceforge.net/DTD/sodipodi-0.dtd"
   xmlns="http://www.w3.org/2000/svg"
   xmlns:svg="http://www.w3.org/2000/svg"><sodipodi:namedview
     id="namedview7"
     pagecolor="#121212"
     bordercolor="#666666"
     borderopacity="1.0"
     inkscape:showpageshadow="2"
     inkscape:pageopacity="0.0"
     inkscape:pagecheckerboard="0"
     inkscape:deskcolor="#d1d1d1"
     inkscape:document-units="mm"
     showgrid="false"
     showguides="true"
     inkscape:zoom="0.62870844"
     inkscape:cx="874.80931"
     inkscape:cy="477.16872"
     inkscape:window-width="1920"
     inkscape:window-height="1043"
     inkscape:window-x="0"
     inkscape:window-y="0"
     inkscape:window-maximized="1"
     inkscape:current-layer="g1" /><defs
     id="defs2" /><g
     inkscape:label="Layer 1"
     inkscape:groupmode="layer"
     id="layer1"
     transform="translate(-705.98767,-33.961479)"><g
       id="g1"
       transform="matrix(0.82218073,0,0,0.82218073,119.44713,1.2532426)"><rect
         style="fill:#5ed8b9;fill-opacity:1;stroke:none;stroke-width:2.66777;stroke-linecap:round;stroke-miterlimit:10;stroke-dasharray:none;stroke-opacity:1"
         id="rect5543-4"
         width="23.873123"
         height="30.720219"
         x="719.10724"
         y="212.14742"
         ry="5.1609554" /><path
         style="font-weight:bold;font-size:17.6389px;line-height:1.25;font-family:Roboto;-inkscape-font-specification:'Roboto Bold';text-align:center;text-anchor:middle;white-space:pre;inline-size:24.1196;fill:#30b290;stroke-width:0.264583"
         d="M 179.76564,325.85666 V 313.3165 h 4.3925 q 2.28238,0 3.46233,0.8785 1.17994,0.86989 1.17994,2.55799 0,0.92156 -0.4737,1.62781 -0.4737,0.69763 -1.31775,1.02491 0.96463,0.24116 1.51584,0.97324 0.55983,0.73209 0.55983,1.79145 0,1.80868 -1.15411,2.73886 -1.1541,0.93017 -3.29006,0.9474 z m 2.58383,-5.46048 v 3.38481 h 2.21347 q 0.91295,0 1.4211,-0.43064 0.51677,-0.43925 0.51677,-1.20578 0,-1.72255 -1.78284,-1.74839 z m 0,-1.8259 h 1.91202 q 1.9551,-0.0345 1.9551,-1.55891 0,-0.85266 -0.49954,-1.22301 -0.49093,-0.37896 -1.55891,-0.37896 h -1.80867 z"
         id="text8545-2"
         transform="translate(546.67892,-96.995188)"
         aria-label="B" /><path
         style="font-weight:bold;font-size:9.525px;line-height:1.25;font-family:Roboto;-inkscape-font-specification:'Roboto Bold';text-align:center;text-anchor:middle;white-space:pre;inline-size:42.3269;fill:#30b290;stroke-width:0.264583"
         d="m 189.28748,319.01522 v 1.10691 h -0.13022 q -0.91157,0.0139 -1.46968,0.47439 -0.55345,0.46043 -0.66508,1.27899 0.53951,-0.54881 1.36271,-0.54881 0.88367,0 1.40457,0.63252 0.5209,0.63252 0.5209,1.66502 0,0.66042 -0.28836,1.19527 -0.2837,0.53485 -0.80925,0.83251 -0.5209,0.29766 -1.18133,0.29766 -1.0697,0 -1.73012,-0.74414 -0.65578,-0.74414 -0.65578,-1.98593 v -0.48369 q 0,-1.10226 0.41393,-1.94407 0.41858,-0.84646 1.19528,-1.30689 0.78135,-0.46509 1.80919,-0.46974 z m -1.31155,3.39049 q -0.32556,0 -0.59066,0.17208 -0.2651,0.16743 -0.39067,0.44648 v 0.40928 q 0,0.67438 0.2651,1.05575 0.2651,0.37672 0.74414,0.37672 0.43253,0 0.69763,-0.33951 0.26975,-0.34417 0.26975,-0.88832 0,-0.55345 -0.26975,-0.89297 -0.26975,-0.33951 -0.72554,-0.33951 z m 7.10655,0.90227 h 0.76739 v 1.08365 h -0.76739 v 1.46503 h -1.34411 v -1.46503 h -2.77657 l -0.0605,-0.84646 2.82308,-4.46019 h 1.35806 z m -2.84169,0 h 1.49758 v -2.39055 l -0.0884,0.15347 z m 5.69733,-1.43247 h 0.71623 q 0.5116,0 0.7581,-0.2558 0.24649,-0.2558 0.24649,-0.67903 0,-0.40928 -0.24649,-0.63717 -0.24185,-0.22789 -0.66973,-0.22789 -0.38602,0 -0.64647,0.21394 -0.26045,0.20929 -0.26045,0.5488 h -1.34411 q 0,-0.5302 0.28371,-0.94878 0.28835,-0.42323 0.79995,-0.66042 0.51625,-0.2372 1.13481,-0.2372 1.07436,0 1.68362,0.51625 0.60927,0.5116 0.60927,1.41387 0,0.46508 -0.28371,0.85576 -0.2837,0.39067 -0.74414,0.59996 0.57206,0.20464 0.85111,0.61392 0.28371,0.40927 0.28371,0.96738 0,0.90227 -0.66043,1.44642 -0.65577,0.54416 -1.73943,0.54416 -1.01389,0 -1.66036,-0.53485 -0.64182,-0.53486 -0.64182,-1.41387 h 1.3441 q 0,0.38137 0.28371,0.62322 0.28835,0.24184 0.70693,0.24184 0.47904,0 0.74879,-0.25115 0.2744,-0.25579 0.2744,-0.67437 0,-1.01389 -1.11621,-1.01389 h -0.71158 z"
         id="text8737-6"
         transform="translate(537.66583,-86.471383)"
         aria-label="643" /><path
         id="rect10384"
         style="fill:#5ed8b9;fill-opacity:1;stroke:none;stroke-width:3.59814;stroke-linecap:round;stroke-miterlimit:10;stroke-dasharray:none;stroke-opacity:1"
         d="m 755.24099,165.62631 c -3.02223,0 -5.45496,2.43325 -5.45496,5.45548 v 52.26606 l -4.15995,4.15944 4.15995,4.15995 v 20.50831 c 0,3.02223 2.43273,5.45548 5.45496,5.45548 h 125.49932 c 3.02224,0 5.45548,-2.43325 5.45548,-5.45548 v -81.09376 c 0,-3.02223 -2.43324,-5.45548 -5.45548,-5.45548 z" /><rect
         style="fill:#5ed8b9;fill-opacity:1;stroke:#35c5a0;stroke-width:0.9;stroke-linecap:round;stroke-miterlimit:10;stroke-dasharray:none;stroke-opacity:1"
         id="rect1"
         width="115.4186"
         height="76.076103"
         x="762.28864"
         y="173.5425"
         ry="4.6020885" /><path
         style="font-weight:bold;font-size:5.64444px;line-height:1.25;font-family:Roboto;-inkscape-font-specification:'Roboto Bold';text-align:center;text-anchor:middle;white-space:pre;inline-size:24.1196;fill:#35c5a0;fill-opacity:1;stroke-width:0.264583"
         d="m 757.72298,243.48616 h -1.44969 l -0.27561,0.82682 h -0.87919 l 1.49379,-4.01285 h 0.76619 l 1.50206,4.01285 h -0.87918 z m -1.22645,-0.66973 h 1.00321 l -0.50436,-1.50206 z"
         id="text10376-7"
         aria-label="A" /><path
         style="font-weight:bold;font-size:5.64444px;line-height:1.25;font-family:Roboto;-inkscape-font-specification:'Roboto Bold';text-align:center;text-anchor:middle;white-space:pre;inline-size:24.1196;fill:#35c5a0;fill-opacity:1;stroke-width:0.264583"
         d="m 755.55326,230.56153 v -4.01285 h 1.4056 q 0.73036,0 1.10794,0.28112 0.37758,0.27837 0.37758,0.81856 0,0.2949 -0.15158,0.5209 -0.15159,0.22324 -0.42168,0.32797 0.30868,0.0772 0.48507,0.31144 0.17914,0.23426 0.17914,0.57326 0,0.57877 -0.36931,0.87643 -0.36932,0.29766 -1.05282,0.30317 z m 0.82682,-1.74735 v 1.08314 h 0.70831 q 0.29215,0 0.45475,-0.13781 0.16537,-0.14056 0.16537,-0.38585 0,-0.55121 -0.57051,-0.55948 z m 0,-0.58429 h 0.61185 q 0.62563,-0.011 0.62563,-0.49885 0,-0.27285 -0.15985,-0.39136 -0.1571,-0.12127 -0.49885,-0.12127 h -0.57878 z"
         id="text10376-7-5"
         aria-label="B" /><path
         style="font-weight:bold;font-size:5.64444px;line-height:1.25;font-family:Roboto;-inkscape-font-specification:'Roboto Bold';text-align:center;text-anchor:middle;white-space:pre;inline-size:24.1196;fill:#35c5a0;fill-opacity:1;stroke-width:0.264583"
         d="m 758.63249,212.29842 q -0.0469,0.64768 -0.47956,1.01975 -0.42995,0.37207 -1.1355,0.37207 -0.7717,0 -1.21543,-0.51814 -0.44097,-0.5209 -0.44097,-1.42765 v -0.24529 q 0,-0.57877 0.20395,-1.01975 0.20395,-0.44097 0.58153,-0.67523 0.38034,-0.23703 0.88194,-0.23703 0.69453,0 1.11897,0.37207 0.42443,0.37207 0.49058,1.04456 h -0.82682 q -0.0303,-0.38861 -0.21773,-0.56224 -0.18466,-0.17639 -0.565,-0.17639 -0.41341,0 -0.62012,0.29765 -0.20394,0.2949 -0.20946,0.91778 v 0.30316 q 0,0.65044 0.19568,0.95085 0.19844,0.30041 0.62288,0.30041 0.38309,0 0.5705,-0.17363 0.19017,-0.17639 0.21773,-0.54295 z"
         id="text10376-7-3"
         aria-label="C" /><path
         style="font-weight:bold;font-size:5.64444px;line-height:1.25;font-family:Roboto;-inkscape-font-specification:'Roboto Bold';text-align:center;text-anchor:middle;white-space:pre;inline-size:24.1196;fill:#35c5a0;fill-opacity:1;stroke-width:0.264583"
         d="m 755.46576,196.70865 v -4.01285 h 1.23472 q 0.52916,0 0.94533,0.23978 0.41892,0.23703 0.65319,0.678 0.23427,0.43821 0.23427,0.9977 v 0.18465 q 0,0.55949 -0.23151,0.99495 -0.22876,0.43546 -0.64768,0.67523 -0.41892,0.23978 -0.94533,0.24254 z m 0.82682,-3.34312 v 2.67891 h 0.39963 q 0.48507,0 0.74138,-0.31695 0.25632,-0.31695 0.26183,-0.90675 v -0.21222 q 0,-0.61185 -0.25356,-0.92604 -0.25356,-0.31695 -0.74138,-0.31695 z"
         id="text10376-7-2"
         aria-label="D" /><path
         style="font-weight:bold;font-size:5.64444px;line-height:1.25;font-family:Roboto;-inkscape-font-specification:'Roboto Bold';text-align:center;text-anchor:middle;white-space:pre;inline-size:24.1196;fill:#35c5a0;fill-opacity:1;stroke-width:0.264583"
         d="m 758.06887,180.68901 h -1.5875 v 1.07487 h 1.8631 v 0.66421 h -2.68993 v -4.01285 h 2.68442 v 0.66973 h -1.85759 v 0.95636 h 1.5875 z"
         id="text10376-7-27"
         aria-label="E" /><path
         style="fill:none;stroke:#35c5a0;stroke-width:0.717678;stroke-linecap:butt;stroke-linejoin:miter;stroke-dasharray:none;stroke-opacity:1"
         d="m 762.28862,185.94376 h -2.60317"
         id="path12-5"
         sodipodi:nodetypes="cc" /><path
         style="fill:none;stroke:#35c5a0;stroke-width:0.717678;stroke-linecap:butt;stroke-linejoin:miter;stroke-dasharray:none;stroke-opacity:1"
         d="m 762.28862,203.06705 h -2.60317"
         id="path13-6"
         sodipodi:nodetypes="cc" /><path
         style="fill:none;stroke:#35c5a0;stroke-width:0.717678;stroke-linecap:butt;stroke-linejoin:miter;stroke-dasharray:none;stroke-opacity:1"
         d="m 762.28862,220.19033 h -2.60317"
         id="path14-2"
         sodipodi:nodetypes="cc" /><path
         style="fill:none;stroke:#35c5a0;stroke-width:0.717678;stroke-linecap:butt;stroke-linejoin:miter;stroke-dasharray:none;stroke-opacity:1"
         d="m 762.28862,237.31362 h -2.60317"
         id="path15"
         sodipodi:nodetypes="cc" /><path
         style="fill:none;stroke:#35c5a0;stroke-width:0.603537;stroke-linecap:butt;stroke-linejoin:miter;stroke-dasharray:none;stroke-opacity:1"
         d="m 762.28862,194.50231 h -1.841"
         id="path16"
         sodipodi:nodetypes="cc" /><path
         style="fill:none;stroke:#35c5a0;stroke-width:0.603537;stroke-linecap:butt;stroke-linejoin:miter;stroke-dasharray:none;stroke-opacity:1"
         d="m 762.28862,211.6256 h -1.841"
         id="path17"
         sodipodi:nodetypes="cc" /><path
         style="fill:none;stroke:#35c5a0;stroke-width:0.603537;stroke-linecap:butt;stroke-linejoin:miter;stroke-dasharray:none;stroke-opacity:1"
         d="m 762.28862,228.74888 h -1.841"
         id="path18"
         sodipodi:nodetypes="cc" /><path
         style="fill:none;stroke:#35c5a0;stroke-width:0.865;stroke-linecap:round;stroke-linejoin:round;stroke-dasharray:1.73, 1.73;stroke-dashoffset:0;stroke-opacity:1"
         d="m 762.68915,240.61924 14.62584,-14.10123 14.42615,-11.24072 13.82592,-31.52005 14.42615,20.20844 14.42615,21.53814 14.42614,-18.59192 14.42615,9.77564"
         id="path19"
         sodipodi:nodetypes="cccccccc" /><path
         id="rect10386-1"
         style="fill:#35c5a0;fill-opacity:1;stroke:none;stroke-width:0.43206;stroke-linecap:round;stroke-miterlimit:10;stroke-dasharray:none;stroke-opacity:1"
         d="m 447.64474,702.80918 c -0.53424,-0.53424 -1.23438,-0.79471 -1.93154,-0.78489 v -0.004 l -3.56456,3.7e-4 -3.6e-4,3.56455 h 0.004 c -0.01,0.69704 0.25112,1.39703 0.78526,1.93118 l 24.44504,24.44503 c 1.04922,1.04922 2.73823,1.04885 3.78745,-3.6e-4 l 0.91973,-0.91973 c 1.04922,-1.04922 1.04958,-2.73824 3.6e-4,-3.78745 z"
         transform="rotate(-45)" /><path
         style="font-weight:bold;font-size:5.64444px;line-height:1.25;font-family:Roboto;-inkscape-font-specification:'Roboto Bold';text-align:center;text-anchor:middle;white-space:pre;inline-size:38.9047;fill:#5ed8b9;fill-opacity:1;stroke-width:0.264583"
         d="m 176.58713,322.2903 -1.55167,3.56636 h -0.8406 l 1.55443,-3.36792 h -1.9954 v -0.64493 h 2.83324 z m 2.67064,-0.48783 v 0.65595 h -0.0772 q -0.54019,0.008 -0.87092,0.28112 -0.32797,0.27285 -0.39412,0.75792 0.3197,-0.32522 0.80753,-0.32522 0.52365,0 0.83233,0.37483 0.30868,0.37482 0.30868,0.98667 0,0.39137 -0.17087,0.70831 -0.16812,0.31695 -0.47956,0.49334 -0.30868,0.17639 -0.70004,0.17639 -0.6339,0 -1.02526,-0.44097 -0.38861,-0.44097 -0.38861,-1.17685 v -0.28663 q 0,-0.65319 0.24529,-1.15204 0.24805,-0.5016 0.70831,-0.77445 0.46302,-0.27561 1.07212,-0.27837 z m -0.77722,2.00918 q -0.19292,0 -0.35002,0.10198 -0.15709,0.0992 -0.23151,0.26458 v 0.24253 q 0,0.39963 0.1571,0.62563 0.1571,0.22325 0.44097,0.22325 0.25632,0 0.41341,-0.2012 0.15985,-0.20395 0.15985,-0.52641 0,-0.32797 -0.15985,-0.52916 -0.15985,-0.2012 -0.42995,-0.2012 z m 3.71795,0.44097 q -0.31144,0.30593 -0.7276,0.30593 -0.53193,0 -0.85163,-0.3638 -0.31971,-0.36656 -0.31971,-0.98668 0,-0.39412 0.17088,-0.72209 0.17363,-0.33073 0.48231,-0.51263 0.30868,-0.18466 0.69453,-0.18466 0.39688,0 0.70556,0.19844 0.30868,0.19844 0.47956,0.57051 0.17087,0.37207 0.17363,0.85162 v 0.2949 q 0,1.00322 -0.49885,1.57648 -0.49885,0.57326 -1.41387,0.61185 l -0.19568,0.003 v -0.66421 l 0.17639,-0.003 q 1.03904,-0.0469 1.12448,-0.97565 z m -0.53192,-0.30316 q 0.19292,0 0.33073,-0.0992 0.14056,-0.0992 0.21221,-0.23978 v -0.32797 q 0,-0.40515 -0.15434,-0.62839 -0.15434,-0.22324 -0.41341,-0.22324 -0.23978,0 -0.39412,0.22048 -0.15434,0.21773 -0.15434,0.54846 0,0.32798 0.14883,0.54019 0.15159,0.20947 0.42444,0.20947 z m 1.98161,1.51584 q 0,-0.19017 0.12678,-0.30868 0.12954,-0.11852 0.32246,-0.11852 0.19569,0 0.32247,0.11852 0.12953,0.11851 0.12953,0.30868 0,0.18741 -0.12678,0.30592 -0.12678,0.11576 -0.32522,0.11576 -0.19568,0 -0.32246,-0.11576 -0.12678,-0.11851 -0.12678,-0.30592 z m 2.37574,-1.96784 h 0.42444 q 0.30316,0 0.44924,-0.15158 0.14607,-0.15159 0.14607,-0.40239 0,-0.24254 -0.14607,-0.37758 -0.14332,-0.13505 -0.39688,-0.13505 -0.22875,0 -0.38309,0.12678 -0.15434,0.12402 -0.15434,0.32521 h -0.79651 q 0,-0.31419 0.16812,-0.56223 0.17088,-0.25081 0.47405,-0.39137 0.30592,-0.14056 0.67248,-0.14056 0.63665,0 0.9977,0.30593 0.36104,0.30317 0.36104,0.83784 0,0.27561 -0.16812,0.50712 -0.16812,0.23151 -0.44097,0.35554 0.339,0.12126 0.50436,0.3638 0.16812,0.24253 0.16812,0.57326 0,0.53468 -0.39136,0.85714 -0.38861,0.32246 -1.03077,0.32246 -0.60083,0 -0.98392,-0.31695 -0.38034,-0.31695 -0.38034,-0.83784 h 0.79651 q 0,0.22599 0.16812,0.36931 0.17087,0.14332 0.41892,0.14332 0.28388,0 0.44373,-0.14883 0.16261,-0.15159 0.16261,-0.39963 0,-0.60083 -0.66146,-0.60083 h -0.42168 z m 4.36287,2.3592 h -0.79651 v -3.07027 l -0.95085,0.2949 v -0.64768 l 1.66192,-0.59531 h 0.0854 z m 2.46944,-4.01285 1.03077,2.91042 1.02526,-2.91042 h 1.08589 v 4.01285 h -0.82958 v -1.09692 l 0.0827,-1.89342 -1.08314,2.99034 h -0.56775 l -1.08038,-2.98759 0.0827,1.89067 v 1.09692 h -0.82682 v -4.01285 z m 5.48183,0 h 0.82682 v 2.77813 q 0,0.38309 -0.17087,0.67799 -0.16812,0.29215 -0.4768,0.452 -0.30868,0.15985 -0.69729,0.15985 -0.63665,0 -0.99219,-0.32246 -0.35553,-0.32522 -0.35553,-0.91777 h 0.83233 q 0,0.2949 0.12403,0.43546 0.12402,0.14056 0.39136,0.14056 0.23702,0 0.37758,-0.16261 0.14056,-0.16261 0.14056,-0.46302 z m 1.73357,4.35736 h -0.59255 l 1.47725,-4.35736 h 0.59256 z m 2.60449,-3.32658 0.0248,0.33348 q 0.31694,-0.3886 0.85714,-0.3886 0.57601,0 0.79099,0.45475 0.31419,-0.45475 0.89572,-0.45475 0.48507,0 0.72209,0.28387 0.23703,0.28112 0.23703,0.84887 v 1.90445 h -0.79927 v -1.90169 q 0,-0.25356 -0.0992,-0.36932 -0.0992,-0.11851 -0.35003,-0.11851 -0.35828,0 -0.49609,0.34176 l 0.003,2.04776 h -0.79651 v -1.89894 q 0,-0.25907 -0.10197,-0.37482 -0.10198,-0.11576 -0.34727,-0.11576 -0.339,0 -0.49058,0.28112 v 2.1084 h -0.7965 v -2.98207 z m 6.85711,2.98207 h -2.75056 v -0.5457 l 1.29811,-1.38355 q 0.26734,-0.29215 0.39412,-0.50988 0.12954,-0.21773 0.12954,-0.41341 0,-0.26734 -0.13505,-0.41892 -0.13505,-0.15434 -0.38585,-0.15434 -0.2701,0 -0.42719,0.18741 -0.15434,0.18466 -0.15434,0.48783 h -0.79926 q 0,-0.36656 0.17363,-0.66973 0.17639,-0.30317 0.49609,-0.47404 0.31971,-0.17364 0.72485,-0.17364 0.62012,0 0.96187,0.29766 0.34451,0.29766 0.34451,0.8406 0,0.29766 -0.15434,0.60634 -0.15434,0.30868 -0.52917,0.71933 l -0.91226,0.96187 h 1.7253 z"
         id="text10376-7-3-2"
         transform="translate(639.16079,-140.093)"
         aria-label="769.31MJ/m2㎡" /><circle
         style="fill:#5ed8b9;fill-opacity:1;stroke:#35c5a0;stroke-width:0.786;stroke-linecap:round;stroke-miterlimit:10;stroke-dasharray:none;stroke-opacity:1"
         id="path5636-7-3-3-6-2-9"
         cx="805.56708"
         cy="183.75728"
         r="2.1344767" /><circle
         style="fill:#5ed8b9;fill-opacity:1;stroke:#35c5a0;stroke-width:0.565;stroke-linecap:round;stroke-miterlimit:10;stroke-dasharray:none;stroke-opacity:1"
         id="circle19"
         cx="863.27167"
         cy="216.68758"
         r="2.016942" /><circle
         style="fill:#35c5a0;fill-opacity:1;stroke:none;stroke-width:0.176123;stroke-linecap:round;stroke-miterlimit:10;stroke-dasharray:none;stroke-opacity:1"
         id="path5636-7-3-3-6-5"
         cx="863.27167"
         cy="216.68758"
         r="0.97384" /><circle
         style="fill:#35c5a0;fill-opacity:1;stroke:none;stroke-width:0.38603;stroke-linecap:round;stroke-miterlimit:10;stroke-dasharray:none;stroke-opacity:1"
         id="path5636-7-3-3-6-23"
         cx="834.41937"
         cy="225.50386"
         r="2.1344767" /><circle
         style="fill:#35c5a0;fill-opacity:1;stroke:none;stroke-width:0.38603;stroke-linecap:round;stroke-miterlimit:10;stroke-dasharray:none;stroke-opacity:1"
         id="path5636-7-3-3-6-7"
         cx="848.84552"
         cy="206.91194"
         r="2.1344767" /><circle
         style="fill:#35c5a0;fill-opacity:1;stroke:none;stroke-width:0.38603;stroke-linecap:round;stroke-miterlimit:10;stroke-dasharray:none;stroke-opacity:1"
         id="path5636-7-3-3-6-3"
         cx="776.71478"
         cy="226.89632"
         r="2.1344767" /><circle
         style="fill:#35c5a0;fill-opacity:1;stroke:none;stroke-width:0.38603;stroke-linecap:round;stroke-miterlimit:10;stroke-dasharray:none;stroke-opacity:1"
         id="path5636-7-3-3-6-0"
         cx="819.99323"
         cy="203.96571"
         r="2.1344767" /><circle
         style="fill:#35c5a0;fill-opacity:1;stroke:none;stroke-width:0.38603;stroke-linecap:round;stroke-miterlimit:10;stroke-dasharray:none;stroke-opacity:1"
         id="path5636-7-3-3-6-9"
         cx="791.14093"
         cy="215.65559"
         r="2.1344767" /></g></g></svg>
