<?xml version="1.0" encoding="UTF-8" standalone="no"?>
<!-- Created with Inkscape (http://www.inkscape.org/) -->

<svg
   width="1541.4091"
   height="685"
   viewBox="0 0 407.83115 181.23947"
   version="1.1"
   id="svg5"
   xml:space="preserve"
   inkscape:version="1.3 (0e150ed6c4, 2023-07-21)"
   sodipodi:docname="principle_end.svg"
   inkscape:export-filename="design_for_manufacturing_principle.pdf"
   inkscape:export-xdpi="400"
   inkscape:export-ydpi="400"
   xmlns:inkscape="http://www.inkscape.org/namespaces/inkscape"
   xmlns:sodipodi="http://sodipodi.sourceforge.net/DTD/sodipodi-0.dtd"
   xmlns="http://www.w3.org/2000/svg"
   xmlns:svg="http://www.w3.org/2000/svg"><sodipodi:namedview
     id="namedview7"
     pagecolor="#121212"
     bordercolor="#666666"
     borderopacity="1.0"
     inkscape:showpageshadow="2"
     inkscape:pageopacity="0.0"
     inkscape:pagecheckerboard="0"
     inkscape:deskcolor="#d1d1d1"
     inkscape:document-units="mm"
     showgrid="false"
     showguides="true"
     inkscape:zoom="0.55083041"
     inkscape:cx="787.9013"
     inkscape:cy="361.27272"
     inkscape:window-width="1920"
     inkscape:window-height="1043"
     inkscape:window-x="0"
     inkscape:window-y="0"
     inkscape:window-maximized="1"
     inkscape:current-layer="g1" /><defs
     id="defs2" /><g
     inkscape:label="Layer 1"
     inkscape:groupmode="layer"
     id="layer1"
     transform="translate(-110.38983,-97.746201)"><g
       id="g1"
       transform="matrix(2.2987927,0,0,2.2987927,14.554958,3.8197031)"><path
         style="fill:none;stroke:#ffffff;stroke-width:0.282222;stroke-linecap:butt;stroke-linejoin:miter;stroke-dasharray:none;stroke-opacity:1"
         d="M 75.570717,42.017506 V 109.3598 H 199.9014"
         id="path374" /><rect
         style="fill:#f47ea6;fill-opacity:1;stroke:#fefefe;stroke-width:0.176389;stroke-linecap:round;stroke-miterlimit:10;stroke-dasharray:none;stroke-opacity:1"
         id="rect576"
         width="23.116417"
         height="53.17318"
         x="76.858521"
         y="54.898842" /><path
         id="rect598-7"
         style="opacity:0.5;fill:#35b996;fill-opacity:1;stroke:#fefefe;stroke-width:0.176389;stroke-linecap:round;stroke-miterlimit:10;stroke-dasharray:none;stroke-opacity:1"
         d="m 170.33985,47.308981 v 60.762939 h 2.2e-4 v -5.10764 c 3.33786,0.92723 13.06713,3.36242 23.48556,3.44436 V 47.308981 Z" /><path
         id="rect594-6"
         style="opacity:0.5;fill:#f47ea6;fill-opacity:1;stroke:#fefefe;stroke-width:0.176389;stroke-linecap:round;stroke-miterlimit:10;stroke-dasharray:none;stroke-opacity:1"
         d="m 101.20017,59.629493 v 42.203157 c 1.79075,-0.39379 2.63711,-0.68429 2.63711,-0.68429 0,0 10.58326,-2.675278 19.58045,-7.593007 V 80.627212 C 112.08708,72.988975 101.20017,59.629493 101.20017,59.629493 Z" /><path
         id="rect598-7-2"
         style="opacity:0.5;fill:#f47ea6;fill-opacity:1;stroke:#fefefe;stroke-width:0.176389;stroke-linecap:round;stroke-miterlimit:10;stroke-dasharray:none;stroke-opacity:1"
         d="m 193.82588,106.40858 c -10.41853,-0.0819 -20.14803,-2.51701 -23.48591,-3.44425 v 5.10771 h 23.48591 z"
         sodipodi:nodetypes="ccccccc" /><path
         id="rect598-5"
         style="opacity:0.5;fill:#35b996;fill-opacity:1;stroke:#fefefe;stroke-width:0.176389;stroke-linecap:round;stroke-miterlimit:10;stroke-dasharray:none;stroke-opacity:1"
         d="m 169.1147,54.898616 c 0,0 -10.82483,14.086599 -21.39404,22.747998 -0.004,0.0034 -0.008,0.0063 -0.0124,0.0097 v 17.462994 c 10.91474,5.258282 21.4064,7.490492 21.4064,7.490492 z" /><path
         id="rect596-7"
         style="opacity:0.5;fill:#f47ea6;fill-opacity:1;stroke:#fefefe;stroke-width:0.176389;stroke-linecap:round;stroke-miterlimit:10;stroke-dasharray:none;stroke-opacity:1"
         d="m 124.64288,81.45447 v 11.428737 c 3.58001,-1.963735 6.51543,-3.613794 9.23853,-5.276012 -2.53023,-1.612022 -5.29915,-3.492199 -9.23853,-6.152725 z" /><path
         id="rect596-3"
         style="opacity:0.5;fill:#35b996;fill-opacity:1;stroke:#fefefe;stroke-width:0.176389;stroke-linecap:round;stroke-miterlimit:10;stroke-dasharray:none;stroke-opacity:1"
         d="m 146.48298,78.650553 c -7.79285,6.28343 -12.74827,9.245644 -21.84001,14.232723 v 15.188754 h 21.84001 z"
         sodipodi:nodetypes="ccccc" /><path
         id="rect594-0"
         style="opacity:0.5;fill:#35b996;fill-opacity:1;stroke:#fefefe;stroke-width:0.176389;stroke-linecap:round;stroke-miterlimit:10;stroke-dasharray:none;stroke-opacity:1"
         d="m 123.41791,93.555076 c -8.99726,4.917826 -19.5806,7.593334 -19.5806,7.593334 0,0 -0.8463,0.2904 -2.63705,0.68419 v 6.23944 h 22.21765 z"
         sodipodi:nodetypes="cccccc" /><path
         id="rect576-7-2"
         style="fill:#35b996;fill-opacity:1;stroke:#fefefe;stroke-width:0.176389;stroke-linecap:round;stroke-miterlimit:10;stroke-dasharray:none;stroke-opacity:1"
         d="m 76.858478,103.99838 v 4.07366 h 23.116419 v -5.98674 c -4.045302,0.79249 -11.448247,1.81417 -23.116419,1.91308 z"
         sodipodi:nodetypes="ccccccc" /><path
         id="rect598-8"
         style="opacity:0.5;fill:#f47ea6;fill-opacity:1;stroke:#fefefe;stroke-width:0.176389;stroke-linecap:round;stroke-miterlimit:10;stroke-dasharray:none;stroke-opacity:1"
         d="m 147.70829,95.119332 v 12.952708 h 21.40645 v -5.46222 c 0,0 -10.4917,-2.2322 -21.40645,-7.490488 z"
         sodipodi:nodetypes="ccccc" /><circle
         style="fill:#121212;fill-opacity:1;stroke:#ffffff;stroke-width:0.3;stroke-linecap:round;stroke-miterlimit:10;stroke-dasharray:none;stroke-opacity:1"
         id="path428"
         cx="75.570763"
         cy="42.017509"
         r="1.0084542" /><circle
         style="fill:#121212;fill-opacity:1;stroke:#ffffff;stroke-width:0.3;stroke-linecap:round;stroke-miterlimit:10;stroke-dasharray:none;stroke-opacity:1"
         id="path428-36"
         cx="75.429649"
         cy="109.50091"
         r="1.0084542" /><circle
         style="fill:#121212;fill-opacity:1;stroke:#ffffff;stroke-width:0.3;stroke-linecap:round;stroke-miterlimit:10;stroke-dasharray:none;stroke-opacity:1"
         id="path428-7"
         cx="199.90155"
         cy="109.35979"
         r="1.0084542" /><path
         sodipodi:type="star"
         style="fill:none;fill-opacity:1;stroke:#e5e5e5;stroke-width:5.23434;stroke-linecap:round;stroke-linejoin:round;stroke-miterlimit:10;stroke-dasharray:none;stroke-opacity:1"
         id="path1"
         inkscape:flatsided="false"
         sodipodi:sides="3"
         sodipodi:cx="48.235184"
         sodipodi:cy="79.747467"
         sodipodi:r1="29.103163"
         sodipodi:r2="14.551581"
         sodipodi:arg1="0.52359878"
         sodipodi:arg2="1.5707963"
         inkscape:rounded="0"
         inkscape:randomized="0"
         d="m 73.439262,94.299049 -25.204078,-10e-7 -25.204079,0 12.602039,-21.827371 12.60204,-21.827373 12.602039,21.827372 z"
         transform="matrix(0.05393649,0,0,0.05393649,68.084146,50.50935)"
         inkscape:transform-center-x="1.693149e-06"
         inkscape:transform-center-y="-0.90211642" /><path
         sodipodi:type="star"
         style="fill:none;fill-opacity:1;stroke:#e5e5e5;stroke-width:5.23434;stroke-linecap:round;stroke-linejoin:round;stroke-miterlimit:10;stroke-dasharray:none;stroke-opacity:1"
         id="path1-6"
         inkscape:flatsided="false"
         sodipodi:sides="3"
         sodipodi:cx="48.235184"
         sodipodi:cy="79.747467"
         sodipodi:r1="29.103163"
         sodipodi:r2="14.551581"
         sodipodi:arg1="0.52359878"
         sodipodi:arg2="1.5707963"
         inkscape:rounded="0"
         inkscape:randomized="0"
         d="m 73.439262,94.299049 -25.204078,-10e-7 -25.204079,0 12.602039,-21.827371 12.60204,-21.827373 12.602039,21.827372 z"
         transform="matrix(-0.05393649,0,0,-0.05393649,73.516717,108.29968)"
         inkscape:transform-center-x="-2.9013019e-06"
         inkscape:transform-center-y="0.90212625" /><g
         id="text815-2-1-6-2"
         style="font-size:3.52778px;line-height:1;fill:#ffffff;stroke-width:0.264583"
         aria-label="Impact of&#10;Change"><path
           style="font-family:Roboto;-inkscape-font-specification:Roboto;text-align:end;text-anchor:end"
           d="m 52.794404,53.87875 h -0.330729 v -2.508031 h 0.330729 z m 0.854384,-1.863798 0.0086,0.206706 q 0.204983,-0.241157 0.552938,-0.241157 0.391019,0 0.532268,0.299724 0.09302,-0.134359 0.241157,-0.217042 0.149861,-0.08268 0.353122,-0.08268 0.613227,0 0.623563,0.649401 v 1.248848 h -0.318672 v -1.2299 q 0,-0.199816 -0.09129,-0.298001 -0.0913,-0.09991 -0.306614,-0.09991 -0.177422,0 -0.294555,0.106798 -0.117134,0.105076 -0.136082,0.284221 v 1.23679 h -0.320394 v -1.221287 q 0,-0.406522 -0.397909,-0.406522 -0.313504,0 -0.428914,0.266995 v 1.360814 h -0.318672 v -1.863798 z m 4.366662,0.95257 q 0,0.425469 -0.194648,0.685574 -0.194648,0.260105 -0.5271,0.260105 -0.339342,0 -0.533991,-0.215319 V 54.59533 H 56.44104 v -2.580378 h 0.291111 l 0.0155,0.206706 q 0.194648,-0.241157 0.54088,-0.241157 0.335897,0 0.530545,0.253215 0.196371,0.253214 0.196371,0.704522 z m -0.318672,-0.03617 q 0,-0.315226 -0.134359,-0.497817 -0.134359,-0.18259 -0.368625,-0.18259 -0.289388,0 -0.434083,0.25666 v 0.890558 q 0.142972,0.254937 0.437528,0.254937 0.229099,0 0.363458,-0.180868 0.136081,-0.18259 0.136081,-0.54088 z m 1.874133,0.947402 q -0.02756,-0.05512 -0.04479,-0.196371 -0.222209,0.230822 -0.530545,0.230822 -0.275608,0 -0.453031,-0.15503 -0.1757,-0.156752 -0.1757,-0.396186 0,-0.291111 0.220487,-0.451308 0.222208,-0.161919 0.623562,-0.161919 h 0.310059 v -0.146417 q 0,-0.167087 -0.09991,-0.265272 -0.09991,-0.09991 -0.294556,-0.09991 -0.170532,0 -0.285943,0.08613 -0.11541,0.08613 -0.11541,0.208429 h -0.320395 q 0,-0.139527 0.09819,-0.268718 0.09991,-0.130914 0.268717,-0.206706 0.170533,-0.07579 0.373793,-0.07579 0.322117,0 0.504707,0.16192 0.18259,0.160197 0.189481,0.442695 v 0.857829 q 0,0.25666 0.06546,0.408244 v 0.02756 z m -0.528822,-0.24288 q 0.149861,0 0.28422,-0.07751 0.134359,-0.07752 0.194648,-0.201538 V 52.97442 h -0.249769 q -0.585667,0 -0.585667,0.342787 0,0.149862 0.09991,0.234267 0.09991,0.0844 0.25666,0.0844 z m 2.044665,0.01723 q 0.170533,0 0.298001,-0.103353 0.127469,-0.103353 0.141249,-0.258382 h 0.301446 q -0.0086,0.160197 -0.110243,0.304891 -0.10163,0.144694 -0.272163,0.230821 -0.168809,0.08613 -0.35829,0.08613 -0.380683,0 -0.606337,-0.253215 -0.223931,-0.254937 -0.223931,-0.69591 v -0.0534 q 0,-0.272162 0.09991,-0.484036 0.09991,-0.211873 0.285944,-0.329007 0.187757,-0.117133 0.442695,-0.117133 0.313504,0 0.520209,0.187758 0.208429,0.187758 0.222209,0.487481 h -0.301446 q -0.01378,-0.180867 -0.137804,-0.296278 -0.122301,-0.117134 -0.303168,-0.117134 -0.24288,0 -0.377239,0.1757 -0.132636,0.173978 -0.132636,0.504707 v 0.06029 q 0,0.322117 0.132636,0.496095 0.132637,0.173977 0.378961,0.173977 z m 1.531346,-2.08946 v 0.451308 h 0.347955 v 0.246324 H 62.6181 v 1.155831 q 0,0.111965 0.04651,0.16881 0.04651,0.05512 0.158475,0.05512 0.05512,0 0.151584,-0.02067 v 0.258382 q -0.125746,0.03445 -0.244602,0.03445 -0.213596,0 -0.322116,-0.129191 Q 62.29943,53.654816 62.29943,53.417105 V 52.261274 H 61.960088 V 52.01495 h 0.339342 v -0.451308 z m 1.508953,1.365981 q 0,-0.273885 0.106798,-0.492649 0.10852,-0.218763 0.299723,-0.337619 0.192926,-0.118856 0.43925,-0.118856 0.380684,0 0.61495,0.26355 0.235989,0.26355 0.235989,0.701077 v 0.02239 q 0,0.272162 -0.105075,0.489203 -0.103353,0.215319 -0.298001,0.335897 -0.192926,0.120579 -0.444418,0.120579 -0.37896,0 -0.61495,-0.26355 -0.234266,-0.26355 -0.234266,-0.697632 z m 0.320394,0.0379 q 0,0.310058 0.142971,0.497816 0.144694,0.187758 0.385851,0.187758 0.24288,0 0.385851,-0.18948 0.142972,-0.191203 0.142972,-0.533991 0,-0.306613 -0.146417,-0.496094 -0.144694,-0.191203 -0.385851,-0.191203 -0.235989,0 -0.380683,0.187758 -0.144694,0.187758 -0.144694,0.537436 z m 1.9327,0.911228 v -1.617474 h -0.294556 v -0.246324 h 0.294556 v -0.191203 q 0,-0.299723 0.160197,-0.463366 0.160197,-0.163642 0.45303,-0.163642 0.110243,0 0.218764,0.02928 l -0.01723,0.258382 q -0.08096,-0.0155 -0.172255,-0.0155 -0.155029,0 -0.239434,0.09129 -0.08441,0.08957 -0.08441,0.258382 v 0.196371 h 0.397909 v 0.246324 h -0.397909 v 1.617474 z"
           id="path2" /><path
           style="font-family:Roboto;-inkscape-font-specification:Roboto;text-align:end;text-anchor:end"
           d="m 57.390164,56.73332 q -0.04651,0.397909 -0.294556,0.61495 -0.246324,0.215319 -0.656291,0.215319 -0.444417,0 -0.713135,-0.318672 -0.266995,-0.318671 -0.266995,-0.852662 v -0.241156 q 0,-0.349678 0.124024,-0.61495 0.125746,-0.265273 0.354845,-0.406522 0.229099,-0.142971 0.530545,-0.142971 0.399631,0 0.640788,0.223931 0.241157,0.222209 0.280775,0.616672 h -0.332452 q -0.04306,-0.299723 -0.187757,-0.434082 -0.142972,-0.134359 -0.401354,-0.134359 -0.316949,0 -0.497817,0.234267 -0.179145,0.234267 -0.179145,0.666626 v 0.24288 q 0,0.408244 0.170532,0.649401 0.170533,0.241156 0.477146,0.241156 0.275608,0 0.422025,-0.124023 0.148139,-0.125746 0.19637,-0.435805 z m 0.720026,-0.842326 q 0.211873,-0.260105 0.551215,-0.260105 0.590835,0 0.596002,0.666626 v 1.231623 h -0.318671 v -1.233345 q -0.0017,-0.201539 -0.09302,-0.298001 -0.08957,-0.09646 -0.280775,-0.09646 -0.15503,0 -0.272163,0.08268 -0.117133,0.08268 -0.18259,0.217041 v 1.328086 h -0.318672 v -2.645835 h 0.318672 z m 2.775026,1.638144 q -0.02756,-0.05512 -0.04479,-0.196371 -0.222209,0.230822 -0.530545,0.230822 -0.275608,0 -0.453031,-0.15503 -0.1757,-0.156752 -0.1757,-0.396186 0,-0.291111 0.220487,-0.451308 0.222209,-0.161919 0.623562,-0.161919 h 0.310059 v -0.146417 q 0,-0.167087 -0.09991,-0.265273 -0.09991,-0.09991 -0.294555,-0.09991 -0.170533,0 -0.285944,0.08613 -0.11541,0.08613 -0.11541,0.208428 h -0.320394 q 0,-0.139526 0.09819,-0.268717 0.09991,-0.130914 0.268717,-0.206706 0.170533,-0.07579 0.373794,-0.07579 0.322116,0 0.504706,0.161919 0.182591,0.160197 0.189481,0.442695 v 0.85783 q 0,0.25666 0.06546,0.408244 v 0.02756 z m -0.528822,-0.24288 q 0.149861,0 0.28422,-0.07751 0.134359,-0.07752 0.194648,-0.201539 v -0.382406 h -0.249769 q -0.585667,0 -0.585667,0.342788 0,0.149861 0.09991,0.234266 0.09991,0.0844 0.25666,0.0844 z m 1.598525,-1.620918 0.01034,0.234266 q 0.213596,-0.268717 0.558106,-0.268717 0.590834,0 0.596002,0.666626 v 1.231623 H 62.80069 v -1.233345 q -0.0017,-0.201539 -0.09302,-0.298001 -0.08957,-0.09646 -0.280775,-0.09646 -0.155029,0 -0.272163,0.08268 -0.117133,0.08268 -0.18259,0.217041 v 1.328086 H 61.653473 V 55.66534 Z m 1.569242,0.916396 q 0,-0.435805 0.201538,-0.692465 0.201538,-0.258382 0.53399,-0.258382 0.341065,0 0.532268,0.241157 l 0.0155,-0.206706 h 0.29111 v 1.819011 q 0,0.361736 -0.215318,0.570164 -0.213596,0.208428 -0.575332,0.208428 -0.201538,0 -0.394463,-0.08613 -0.192926,-0.08613 -0.294556,-0.235989 l 0.165365,-0.191203 q 0.204983,0.253215 0.501261,0.253215 0.232544,0 0.361736,-0.130914 0.130913,-0.130914 0.130913,-0.368626 v -0.160197 q -0.191203,0.220487 -0.521932,0.220487 -0.327284,0 -0.530545,-0.26355 -0.201538,-0.26355 -0.201538,-0.718303 z m 0.320394,0.03617 q 0,0.315227 0.129191,0.496094 0.129191,0.179145 0.361735,0.179145 0.301446,0 0.442695,-0.273885 v -0.850939 q -0.146416,-0.266995 -0.43925,-0.266995 -0.232544,0 -0.363457,0.180868 -0.130914,0.180867 -0.130914,0.535712 z m 2.508031,0.94568 q -0.37896,0 -0.616672,-0.248047 -0.237712,-0.24977 -0.237712,-0.666627 v -0.05857 q 0,-0.277331 0.105076,-0.494372 0.106798,-0.218764 0.296278,-0.341065 0.191203,-0.124023 0.413412,-0.124023 0.363457,0 0.564996,0.239434 0.201538,0.239434 0.201538,0.685575 v 0.132636 h -1.262628 q 0.0069,0.275608 0.160197,0.44614 0.155029,0.16881 0.392741,0.16881 0.16881,0 0.285943,-0.0689 0.117133,-0.0689 0.204983,-0.18259 l 0.194648,0.151584 q -0.234266,0.360013 -0.7028,0.360013 z m -0.03962,-1.670873 q -0.192926,0 -0.32384,0.141249 -0.130913,0.139527 -0.161919,0.392741 h 0.933621 v -0.02412 q -0.01378,-0.24288 -0.130913,-0.375516 -0.117134,-0.134359 -0.316949,-0.134359 z"
           id="path3" /></g><g
         id="text951-3-3"
         style="font-size:3.52778px;line-height:1;fill:#ffffff;stroke-width:0.264583"
         aria-label="Cost of&#10;Change"><path
           style="font-family:Roboto;-inkscape-font-specification:Roboto;text-align:end;text-anchor:end"
           d="m 57.881485,102.29696 q -0.04651,0.3979 -0.294556,0.61495 -0.246324,0.21531 -0.656291,0.21531 -0.444418,0 -0.713135,-0.31867 -0.266995,-0.31867 -0.266995,-0.85266 v -0.24116 q 0,-0.34967 0.124023,-0.61495 0.125746,-0.26527 0.354845,-0.40652 0.229099,-0.14297 0.530545,-0.14297 0.399632,0 0.640788,0.22393 0.241157,0.22221 0.280776,0.61668 h -0.332452 q -0.04306,-0.29973 -0.187758,-0.43409 -0.142971,-0.13436 -0.401354,-0.13436 -0.316949,0 -0.497816,0.23427 -0.179145,0.23427 -0.179145,0.66663 v 0.24288 q 0,0.40824 0.170532,0.6494 0.170532,0.24115 0.477146,0.24115 0.275608,0 0.422024,-0.12402 0.14814,-0.12575 0.196371,-0.4358 z m 0.316949,-0.15331 q 0,-0.27389 0.106798,-0.49265 0.108521,-0.21876 0.299723,-0.33762 0.192926,-0.11886 0.43925,-0.11886 0.380684,0 0.61495,0.26355 0.23599,0.26355 0.23599,0.70108 v 0.0224 q 0,0.27216 -0.105076,0.4892 -0.103353,0.21532 -0.298001,0.3359 -0.192925,0.12057 -0.444418,0.12057 -0.37896,0 -0.614949,-0.26355 -0.234267,-0.26355 -0.234267,-0.69763 z m 0.320394,0.0379 q 0,0.31005 0.142972,0.49781 0.144694,0.18776 0.38585,0.18776 0.24288,0 0.385851,-0.18948 0.142972,-0.1912 0.142972,-0.53399 0,-0.30661 -0.146417,-0.4961 -0.144694,-0.1912 -0.385851,-0.1912 -0.235989,0 -0.380683,0.18776 -0.144694,0.18776 -0.144694,0.53744 z m 2.861154,0.41685 q 0,-0.12919 -0.09819,-0.19981 -0.09646,-0.0724 -0.339342,-0.12403 -0.241157,-0.0517 -0.384129,-0.12402 -0.141249,-0.0724 -0.210151,-0.17226 -0.06718,-0.0999 -0.06718,-0.23771 0,-0.2291 0.192925,-0.38757 0.194648,-0.15848 0.496094,-0.15848 0.316949,0 0.51332,0.16365 0.198093,0.16364 0.198093,0.41858 h -0.320394 q 0,-0.13092 -0.111966,-0.22566 -0.110243,-0.0947 -0.279053,-0.0947 -0.173977,0 -0.272162,0.0758 -0.09819,0.0758 -0.09819,0.1981 0,0.11541 0.0913,0.17397 0.0913,0.0586 0.329007,0.11197 0.239435,0.0534 0.387574,0.12747 0.148139,0.0741 0.218763,0.17914 0.07235,0.10336 0.07235,0.25322 0,0.24977 -0.199815,0.40135 -0.199816,0.14986 -0.518487,0.14986 -0.223932,0 -0.396187,-0.0792 -0.172254,-0.0792 -0.27044,-0.22049 -0.09646,-0.14297 -0.09646,-0.30834 h 0.318672 q 0.0086,0.1602 0.127469,0.25494 0.120578,0.093 0.316949,0.093 0.180867,0 0.289388,-0.0724 0.110243,-0.0741 0.110243,-0.19637 z m 1.166165,-1.82073 v 0.45131 h 0.347955 v 0.24632 h -0.347955 v 1.15583 q 0,0.11197 0.04651,0.16881 0.04651,0.0551 0.158474,0.0551 0.05512,0 0.151585,-0.0207 v 0.25838 q -0.125746,0.0344 -0.244602,0.0344 -0.213596,0 -0.322117,-0.12919 -0.10852,-0.12919 -0.10852,-0.3669 v -1.15583 h -0.339343 v -0.24632 h 0.339343 v -0.45131 z m 1.508953,1.36598 q 0,-0.27389 0.106798,-0.49265 0.10852,-0.21876 0.299723,-0.33762 0.192926,-0.11886 0.43925,-0.11886 0.380684,0 0.61495,0.26355 0.235989,0.26355 0.235989,0.70108 v 0.0224 q 0,0.27216 -0.105075,0.4892 -0.103353,0.21532 -0.298001,0.3359 -0.192926,0.12057 -0.444418,0.12057 -0.37896,0 -0.61495,-0.26355 -0.234266,-0.26355 -0.234266,-0.69763 z m 0.320394,0.0379 q 0,0.31005 0.142971,0.49781 0.144695,0.18776 0.385851,0.18776 0.24288,0 0.385851,-0.18948 0.142972,-0.1912 0.142972,-0.53399 0,-0.30661 -0.146417,-0.4961 -0.144694,-0.1912 -0.385851,-0.1912 -0.235989,0 -0.380683,0.18776 -0.144694,0.18776 -0.144694,0.53744 z m 1.9327,0.91122 v -1.61747 h -0.294556 v -0.24632 h 0.294556 v -0.19121 q 0,-0.29972 0.160197,-0.46336 0.160197,-0.16365 0.45303,-0.16365 0.110243,0 0.218764,0.0293 l -0.01723,0.25838 q -0.08096,-0.0155 -0.172255,-0.0155 -0.155029,0 -0.239434,0.0913 -0.08441,0.0896 -0.08441,0.25839 v 0.19637 h 0.397909 v 0.24632 h -0.397909 v 1.61747 z"
           id="path4" /><path
           style="font-family:Roboto;-inkscape-font-specification:Roboto;text-align:end;text-anchor:end"
           d="m 57.318211,105.94734 q -0.04651,0.39791 -0.294555,0.61495 -0.246325,0.21532 -0.656292,0.21532 -0.444417,0 -0.713135,-0.31867 -0.266995,-0.31867 -0.266995,-0.85266 v -0.24116 q 0,-0.34968 0.124024,-0.61495 0.125746,-0.26527 0.354845,-0.40652 0.229099,-0.14297 0.530545,-0.14297 0.399631,0 0.640788,0.22393 0.241157,0.22221 0.280775,0.61667 H 56.98576 q -0.04306,-0.29972 -0.187758,-0.43408 -0.142972,-0.13436 -0.401354,-0.13436 -0.316949,0 -0.497817,0.23427 -0.179145,0.23427 -0.179145,0.66662 v 0.24288 q 0,0.40825 0.170532,0.64941 0.170533,0.24115 0.477146,0.24115 0.275608,0 0.422025,-0.12402 0.148139,-0.12575 0.196371,-0.43581 z m 0.720026,-0.84232 q 0.211873,-0.26011 0.551215,-0.26011 0.590835,0 0.596002,0.66663 v 1.23162 h -0.318671 v -1.23334 q -0.0017,-0.20154 -0.09302,-0.298 -0.08957,-0.0965 -0.280775,-0.0965 -0.15503,0 -0.272163,0.0827 -0.117133,0.0827 -0.18259,0.21705 v 1.32808 h -0.318672 v -2.64583 h 0.318672 z m 2.775026,1.63814 q -0.02756,-0.0551 -0.04479,-0.19637 -0.222209,0.23082 -0.530545,0.23082 -0.275608,0 -0.45303,-0.15503 -0.1757,-0.15675 -0.1757,-0.39618 0,-0.29111 0.220486,-0.45131 0.222209,-0.16192 0.623563,-0.16192 h 0.310058 v -0.14642 q 0,-0.16708 -0.09991,-0.26527 -0.09991,-0.0999 -0.294556,-0.0999 -0.170533,0 -0.285943,0.0861 -0.115411,0.0861 -0.115411,0.20843 h -0.320394 q 0,-0.13953 0.09819,-0.26872 0.09991,-0.13091 0.268718,-0.20671 0.170532,-0.0758 0.373793,-0.0758 0.322116,0 0.504707,0.16192 0.18259,0.1602 0.18948,0.4427 v 0.85783 q 0,0.25666 0.06546,0.40824 v 0.0276 z m -0.528822,-0.24288 q 0.149862,0 0.28422,-0.0775 0.134359,-0.0775 0.194648,-0.20154 v -0.38241 H 60.51354 q -0.585667,0 -0.585667,0.34279 0,0.14986 0.09991,0.23427 0.09991,0.0844 0.25666,0.0844 z m 1.598525,-1.62092 0.01033,0.23427 q 0.213596,-0.26872 0.558106,-0.26872 0.590834,0 0.596002,0.66663 v 1.23162 h -0.318672 v -1.23334 q -0.0017,-0.20154 -0.09302,-0.298 -0.08957,-0.0965 -0.280776,-0.0965 -0.155029,0 -0.272163,0.0827 -0.117133,0.0827 -0.18259,0.21705 v 1.32808 H 61.58152 v -1.8638 z m 1.569242,0.9164 q 0,-0.43581 0.201538,-0.69247 0.201538,-0.25838 0.53399,-0.25838 0.341065,0 0.532268,0.24116 l 0.0155,-0.20671 h 0.291111 v 1.81901 q 0,0.36174 -0.215319,0.57017 -0.213596,0.20843 -0.575331,0.20843 -0.201539,0 -0.394464,-0.0861 -0.192926,-0.0861 -0.294556,-0.23599 l 0.165365,-0.1912 q 0.204983,0.25321 0.501261,0.25321 0.232545,0 0.361736,-0.13091 0.130913,-0.13092 0.130913,-0.36863 v -0.16019 q -0.191202,0.22048 -0.521932,0.22048 -0.327284,0 -0.530545,-0.26355 -0.201538,-0.26355 -0.201538,-0.7183 z m 0.320394,0.0362 q 0,0.31523 0.129191,0.4961 0.129191,0.17914 0.361735,0.17914 0.301446,0 0.442695,-0.27388 v -0.85094 q -0.146416,-0.267 -0.439249,-0.267 -0.232545,0 -0.363458,0.18087 -0.130914,0.18087 -0.130914,0.53571 z m 2.508031,0.94568 q -0.37896,0 -0.616672,-0.24804 -0.237712,-0.24977 -0.237712,-0.66663 v -0.0586 q 0,-0.27733 0.105076,-0.49437 0.106798,-0.21876 0.296278,-0.34106 0.191203,-0.12403 0.413412,-0.12403 0.363458,0 0.564996,0.23944 0.201538,0.23943 0.201538,0.68557 v 0.13264 h -1.262628 q 0.0069,0.27561 0.160197,0.44614 0.155029,0.16881 0.392741,0.16881 0.16881,0 0.285943,-0.0689 0.117133,-0.0689 0.204983,-0.18259 l 0.194648,0.15158 q -0.234266,0.36001 -0.7028,0.36001 z m -0.03962,-1.67087 q -0.192926,0 -0.323839,0.14125 -0.130914,0.13953 -0.16192,0.39274 h 0.933622 v -0.0241 q -0.01378,-0.24288 -0.130914,-0.37551 -0.117134,-0.13436 -0.316949,-0.13436 z"
           id="path5" /></g><path
         style="font-size:3.52778px;line-height:1.25;font-family:Roboto;-inkscape-font-specification:Roboto;fill:#ffffff;stroke-width:0.264583"
         d="m 133.89205,113.22298 h -0.80615 v 2.23587 h -0.32901 v -2.23587 h -0.80443 v -0.27216 h 1.93959 z m 0.66835,2.23587 h -0.31867 v -1.8638 h 0.31867 z m -0.34451,-2.35817 q 0,-0.0775 0.0465,-0.13092 0.0482,-0.0534 0.14125,-0.0534 0.093,0 0.14125,0.0534 0.0482,0.0534 0.0482,0.13092 0,0.0775 -0.0482,0.12919 -0.0482,0.0517 -0.14125,0.0517 -0.093,0 -0.14125,-0.0517 -0.0465,-0.0517 -0.0465,-0.12919 z m 1.15411,0.49437 0.009,0.20671 q 0.20499,-0.24116 0.55294,-0.24116 0.39102,0 0.53227,0.29972 0.093,-0.13436 0.24115,-0.21704 0.14987,-0.0827 0.35313,-0.0827 0.61322,0 0.62356,0.6494 v 1.24885 h -0.31867 v -1.2299 q 0,-0.19982 -0.0913,-0.298 -0.0913,-0.0999 -0.30661,-0.0999 -0.17742,0 -0.29456,0.1068 -0.11713,0.10507 -0.13608,0.28422 v 1.23679 h -0.32039 v -1.22129 q 0,-0.40652 -0.39791,-0.40652 -0.3135,0 -0.42892,0.26699 v 1.36082 h -0.31867 v -1.8638 z m 3.56568,1.89825 q -0.37897,0 -0.61668,-0.24805 -0.23771,-0.24977 -0.23771,-0.66663 v -0.0586 q 0,-0.27733 0.10508,-0.49437 0.10679,-0.21877 0.29627,-0.34107 0.19121,-0.12402 0.41342,-0.12402 0.36345,0 0.56499,0.23943 0.20154,0.23944 0.20154,0.68558 v 0.13263 h -1.26263 q 0.007,0.27561 0.1602,0.44614 0.15503,0.16881 0.39274,0.16881 0.16881,0 0.28594,-0.0689 0.11714,-0.0689 0.20499,-0.18259 l 0.19465,0.15159 q -0.23427,0.36001 -0.7028,0.36001 z m -0.0396,-1.67087 q -0.19293,0 -0.32384,0.14124 -0.13092,0.13953 -0.16192,0.39275 h 0.93362 v -0.0241 q -0.0138,-0.24288 -0.13091,-0.37552 -0.11714,-0.13435 -0.31695,-0.13435 z"
         id="text815-2"
         aria-label="Time" /></g></g></svg>
