<?xml version="1.0" encoding="UTF-8" standalone="no"?>
<!-- Created with Inkscape (http://www.inkscape.org/) -->

<svg
   width="1541.4091"
   height="685"
   viewBox="0 0 407.83115 181.23947"
   version="1.1"
   id="svg5"
   xml:space="preserve"
   inkscape:version="1.3 (0e150ed6c4, 2023-07-21)"
   sodipodi:docname="principle_feedback.svg"
   inkscape:export-filename="design_for_manufacturing_principle.pdf"
   inkscape:export-xdpi="400"
   inkscape:export-ydpi="400"
   xmlns:inkscape="http://www.inkscape.org/namespaces/inkscape"
   xmlns:sodipodi="http://sodipodi.sourceforge.net/DTD/sodipodi-0.dtd"
   xmlns="http://www.w3.org/2000/svg"
   xmlns:svg="http://www.w3.org/2000/svg"><sodipodi:namedview
     id="namedview7"
     pagecolor="#121212"
     bordercolor="#666666"
     borderopacity="1.0"
     inkscape:showpageshadow="2"
     inkscape:pageopacity="0.0"
     inkscape:pagecheckerboard="0"
     inkscape:deskcolor="#d1d1d1"
     inkscape:document-units="mm"
     showgrid="false"
     showguides="true"
     inkscape:zoom="1.1016608"
     inkscape:cx="432.98263"
     inkscape:cy="374.88853"
     inkscape:window-width="1920"
     inkscape:window-height="1043"
     inkscape:window-x="0"
     inkscape:window-y="0"
     inkscape:window-maximized="1"
     inkscape:current-layer="g1" /><defs
     id="defs2" /><g
     inkscape:label="Layer 1"
     inkscape:groupmode="layer"
     id="layer1"
     transform="translate(-110.38983,-97.746201)"><g
       id="g1"
       transform="matrix(2.2987927,0,0,2.2987927,14.554958,3.8197031)"><path
         style="fill:none;stroke:#ffffff;stroke-width:0.282222;stroke-linecap:butt;stroke-linejoin:miter;stroke-dasharray:none;stroke-opacity:1"
         d="M 75.570717,42.017506 V 109.3598 H 199.9014"
         id="path374" /><rect
         style="fill:#f47ea6;fill-opacity:1;stroke:#fefefe;stroke-width:0.176389;stroke-linecap:round;stroke-miterlimit:10;stroke-dasharray:none;stroke-opacity:1"
         id="rect576"
         width="23.116417"
         height="53.17318"
         x="76.858521"
         y="54.898842" /><path
         id="rect598-7"
         style="opacity:0.5;fill:#35b996;fill-opacity:1;stroke:#fefefe;stroke-width:0.176389;stroke-linecap:round;stroke-miterlimit:10;stroke-dasharray:none;stroke-opacity:1"
         d="m 170.33985,47.308981 v 60.762939 h 2.2e-4 v -5.10764 c 3.33786,0.92723 13.06713,3.36242 23.48556,3.44436 V 47.308981 Z" /><path
         id="rect594-6"
         style="opacity:0.5;fill:#f47ea6;fill-opacity:1;stroke:#fefefe;stroke-width:0.176389;stroke-linecap:round;stroke-miterlimit:10;stroke-dasharray:none;stroke-opacity:1"
         d="m 101.20017,59.629493 v 42.203157 c 1.79075,-0.39379 2.63711,-0.68429 2.63711,-0.68429 0,0 10.58326,-2.675278 19.58045,-7.593007 V 80.627212 C 112.08708,72.988975 101.20017,59.629493 101.20017,59.629493 Z" /><path
         id="rect598-7-2"
         style="opacity:0.5;fill:#f47ea6;fill-opacity:1;stroke:#fefefe;stroke-width:0.176389;stroke-linecap:round;stroke-miterlimit:10;stroke-dasharray:none;stroke-opacity:1"
         d="m 193.82588,106.40858 c -10.41853,-0.0819 -20.14803,-2.51701 -23.48591,-3.44425 v 5.10771 h 23.48591 z"
         sodipodi:nodetypes="ccccccc" /><path
         id="rect598-5"
         style="opacity:0.5;fill:#35b996;fill-opacity:1;stroke:#fefefe;stroke-width:0.176389;stroke-linecap:round;stroke-miterlimit:10;stroke-dasharray:none;stroke-opacity:1"
         d="m 169.1147,54.898616 c 0,0 -10.82483,14.086599 -21.39404,22.747998 -0.004,0.0034 -0.008,0.0063 -0.0124,0.0097 v 17.462994 c 10.91474,5.258282 21.4064,7.490492 21.4064,7.490492 z" /><path
         id="rect596-7"
         style="opacity:0.5;fill:#f47ea6;fill-opacity:1;stroke:#fefefe;stroke-width:0.176389;stroke-linecap:round;stroke-miterlimit:10;stroke-dasharray:none;stroke-opacity:1"
         d="m 124.64288,81.45447 v 11.428737 c 3.58001,-1.963735 6.51543,-3.613794 9.23853,-5.276012 -2.53023,-1.612022 -5.29915,-3.492199 -9.23853,-6.152725 z" /><path
         id="rect596-3"
         style="opacity:0.5;fill:#35b996;fill-opacity:1;stroke:#fefefe;stroke-width:0.176389;stroke-linecap:round;stroke-miterlimit:10;stroke-dasharray:none;stroke-opacity:1"
         d="m 146.48298,78.650553 c -7.79285,6.28343 -12.74827,9.245644 -21.84001,14.232723 v 15.188754 h 21.84001 z"
         sodipodi:nodetypes="ccccc" /><path
         id="rect594-0"
         style="opacity:0.5;fill:#35b996;fill-opacity:1;stroke:#fefefe;stroke-width:0.176389;stroke-linecap:round;stroke-miterlimit:10;stroke-dasharray:none;stroke-opacity:1"
         d="m 123.41791,93.555076 c -8.99726,4.917826 -19.5806,7.593334 -19.5806,7.593334 0,0 -0.8463,0.2904 -2.63705,0.68419 v 6.23944 h 22.21765 z"
         sodipodi:nodetypes="cccccc" /><path
         id="rect576-7-2"
         style="fill:#35b996;fill-opacity:1;stroke:#fefefe;stroke-width:0.176389;stroke-linecap:round;stroke-miterlimit:10;stroke-dasharray:none;stroke-opacity:1"
         d="m 76.858478,103.99838 v 4.07366 h 23.116419 v -5.98674 c -4.045302,0.79249 -11.448247,1.81417 -23.116419,1.91308 z"
         sodipodi:nodetypes="ccccccc" /><path
         id="rect598-8"
         style="opacity:0.5;fill:#f47ea6;fill-opacity:1;stroke:#fefefe;stroke-width:0.176389;stroke-linecap:round;stroke-miterlimit:10;stroke-dasharray:none;stroke-opacity:1"
         d="m 147.70829,95.119332 v 12.952708 h 21.40645 v -5.46222 c 0,0 -10.4917,-2.2322 -21.40645,-7.490488 z"
         sodipodi:nodetypes="ccccc" /><circle
         style="fill:#121212;fill-opacity:1;stroke:#ffffff;stroke-width:0.3;stroke-linecap:round;stroke-miterlimit:10;stroke-dasharray:none;stroke-opacity:1"
         id="path428"
         cx="75.570763"
         cy="42.017509"
         r="1.0084542" /><circle
         style="fill:#121212;fill-opacity:1;stroke:#ffffff;stroke-width:0.3;stroke-linecap:round;stroke-miterlimit:10;stroke-dasharray:none;stroke-opacity:1"
         id="path428-36"
         cx="75.429649"
         cy="109.50091"
         r="1.0084542" /><circle
         style="fill:#121212;fill-opacity:1;stroke:#ffffff;stroke-width:0.3;stroke-linecap:round;stroke-miterlimit:10;stroke-dasharray:none;stroke-opacity:1"
         id="path428-7"
         cx="199.90155"
         cy="109.35979"
         r="1.0084542" /><path
         sodipodi:type="star"
         style="fill:none;fill-opacity:1;stroke:#e5e5e5;stroke-width:5.23434;stroke-linecap:round;stroke-linejoin:round;stroke-miterlimit:10;stroke-dasharray:none;stroke-opacity:1"
         id="path1-67"
         inkscape:flatsided="false"
         sodipodi:sides="3"
         sodipodi:cx="48.235184"
         sodipodi:cy="79.747467"
         sodipodi:r1="29.103163"
         sodipodi:r2="14.551581"
         sodipodi:arg1="0.52359878"
         sodipodi:arg2="1.5707963"
         inkscape:rounded="0"
         inkscape:randomized="0"
         d="m 73.439262,94.299049 -25.204078,-10e-7 -25.204079,0 12.602039,-21.827371 12.60204,-21.827373 12.602039,21.827372 z"
         transform="matrix(0.05393649,0,0,0.05393649,85.815051,109.25285)"
         inkscape:transform-center-x="1.693149e-06"
         inkscape:transform-center-y="-0.90211642" /><path
         style="font-size:3.52778px;line-height:1.25;font-family:Roboto;-inkscape-font-specification:Roboto;fill:#ffffff;stroke-width:0.264583"
         d="m 133.89205,113.22298 h -0.80615 v 2.23587 h -0.32901 v -2.23587 h -0.80443 v -0.27216 h 1.93959 z m 0.66835,2.23587 h -0.31867 v -1.8638 h 0.31867 z m -0.34451,-2.35817 q 0,-0.0775 0.0465,-0.13092 0.0482,-0.0534 0.14125,-0.0534 0.093,0 0.14125,0.0534 0.0482,0.0534 0.0482,0.13092 0,0.0775 -0.0482,0.12919 -0.0482,0.0517 -0.14125,0.0517 -0.093,0 -0.14125,-0.0517 -0.0465,-0.0517 -0.0465,-0.12919 z m 1.15411,0.49437 0.009,0.20671 q 0.20499,-0.24116 0.55294,-0.24116 0.39102,0 0.53227,0.29972 0.093,-0.13436 0.24115,-0.21704 0.14987,-0.0827 0.35313,-0.0827 0.61322,0 0.62356,0.6494 v 1.24885 h -0.31867 v -1.2299 q 0,-0.19982 -0.0913,-0.298 -0.0913,-0.0999 -0.30661,-0.0999 -0.17742,0 -0.29456,0.1068 -0.11713,0.10507 -0.13608,0.28422 v 1.23679 h -0.32039 v -1.22129 q 0,-0.40652 -0.39791,-0.40652 -0.3135,0 -0.42892,0.26699 v 1.36082 h -0.31867 v -1.8638 z m 3.56568,1.89825 q -0.37897,0 -0.61668,-0.24805 -0.23771,-0.24977 -0.23771,-0.66663 v -0.0586 q 0,-0.27733 0.10508,-0.49437 0.10679,-0.21877 0.29627,-0.34107 0.19121,-0.12402 0.41342,-0.12402 0.36345,0 0.56499,0.23943 0.20154,0.23944 0.20154,0.68558 v 0.13263 h -1.26263 q 0.007,0.27561 0.1602,0.44614 0.15503,0.16881 0.39274,0.16881 0.16881,0 0.28594,-0.0689 0.11714,-0.0689 0.20499,-0.18259 l 0.19465,0.15159 q -0.23427,0.36001 -0.7028,0.36001 z m -0.0396,-1.67087 q -0.19293,0 -0.32384,0.14124 -0.13092,0.13953 -0.16192,0.39275 h 0.93362 v -0.0241 q -0.0138,-0.24288 -0.13091,-0.37552 -0.11714,-0.13435 -0.31695,-0.13435 z"
         id="text815-2"
         aria-label="Time" /><text
         xml:space="preserve"
         style="font-style:normal;font-weight:normal;font-size:3.99002px;line-height:1.25;font-family:sans-serif;fill:#000000;fill-opacity:1;stroke:none;stroke-width:0.115097"
         x="79.652473"
         y="119.54444"
         id="text1"><tspan
           sodipodi:role="line"
           id="tspan1"
           style="font-style:normal;font-variant:normal;font-weight:normal;font-stretch:normal;font-size:3.99002px;font-family:Roboto;-inkscape-font-specification:Roboto;fill:#e5e5e5;fill-opacity:1;stroke-width:0.115097"
           x="79.652473"
           y="119.54444">Feedback</tspan></text></g></g></svg>
