<svg xmlns="http://www.w3.org/2000/svg" xmlns:inkscape="http://www.inkscape.org/namespaces/inkscape" xmlns:xlink="http://www.w3.org/1999/xlink" width="600.0mm" height="338.0mm">
<defs>
</defs>
<g>
<polygon points=" 364.84963133313846 307.0071832418139 364.8495412221794 0.9448602633697192 -0.0945263960466385 0.9448602633697192 -0.0945263960466385 307.0071832418139 "
style="
    mix-blend-mode:normal;
    fill:none;
    fill-opacity:0;
    stroke:rgb(126, 126, 126);
    stroke-opacity:1.0;
    stroke-width:1.8897637377604881;
    stroke-linecap:butt;
    stroke-linejoin:bevel;
    paint-order:markers fill stroke;
"/><polygon points=" 364.84963133313846 469.461653218528 364.84963133313846 307.0071832418139 -0.0945263960466385 307.0071832418139 -0.0945263960466385 469.461653218528 "
style="
    mix-blend-mode:normal;
    fill:none;
    fill-opacity:0;
    stroke:rgb(126, 126, 126);
    stroke-opacity:1.0;
    stroke-width:1.8897637377604881;
    stroke-linecap:butt;
    stroke-linejoin:bevel;
    paint-order:markers fill stroke;
"/><polygon points=" 204.99152841961958 673.5789701688946 204.99152841961958 469.461653218528 -0.0945263960466385 469.461653218528 -0.0945263960466385 673.5789701688946 "
style="
    mix-blend-mode:normal;
    fill:none;
    fill-opacity:0;
    stroke:rgb(126, 126, 126);
    stroke-opacity:1.0;
    stroke-width:1.8897637377604881;
    stroke-linecap:butt;
    stroke-linejoin:bevel;
    paint-order:markers fill stroke;
"/><polygon points=" 364.84963133313846 673.5789701688946 364.84963133313846 469.461653218528 204.99152841961958 469.461653218528 204.99152841961958 673.5789701688946 "
style="
    mix-blend-mode:normal;
    fill:none;
    fill-opacity:0;
    stroke:rgb(126, 126, 126);
    stroke-opacity:1.0;
    stroke-width:1.8897637377604881;
    stroke-linecap:butt;
    stroke-linejoin:bevel;
    paint-order:markers fill stroke;
"/><polygon points=" 605.7043752907978 354.3532833474619 605.7043752907978 0.9448602633697192 364.8495412221794 0.9448602633697192 364.84963133313846 354.3532833474619 "
style="
    mix-blend-mode:normal;
    fill:none;
    fill-opacity:0;
    stroke:rgb(126, 126, 126);
    stroke-opacity:1.0;
    stroke-width:1.8897637377604881;
    stroke-linecap:butt;
    stroke-linejoin:bevel;
    paint-order:markers fill stroke;
"/><polygon points=" 605.7043752907978 673.5789701688946 605.7043752907978 354.3532833474619 364.84963133313846 354.3532833474619 364.84963133313846 673.5789701688946 "
style="
    mix-blend-mode:normal;
    fill:none;
    fill-opacity:0;
    stroke:rgb(126, 126, 126);
    stroke-opacity:1.0;
    stroke-width:1.8897637377604881;
    stroke-linecap:butt;
    stroke-linejoin:bevel;
    paint-order:markers fill stroke;
"/><polygon points=" 1047.7331869987536 673.5789701688946 1047.7331869987536 0.9448602633697192 605.7043752907978 0.9448602633697192 605.7043752907978 673.5789701688946 "
style="
    mix-blend-mode:normal;
    fill:none;
    fill-opacity:0;
    stroke:rgb(126, 126, 126);
    stroke-opacity:1.0;
    stroke-width:1.8897637377604881;
    stroke-linecap:butt;
    stroke-linejoin:bevel;
    paint-order:markers fill stroke;
"/><polygon points=" 343.06035087931826 1276.53541176337 343.06035087931826 673.5789701688946 -0.0945263960466385 673.5789701688946 -0.0945263960466385 1276.53541176337 "
style="
    mix-blend-mode:normal;
    fill:none;
    fill-opacity:0;
    stroke:rgb(126, 126, 126);
    stroke-opacity:1.0;
    stroke-width:1.8897637377604881;
    stroke-linecap:butt;
    stroke-linejoin:bevel;
    paint-order:markers fill stroke;
"/><polygon points=" 604.6567452808471 1276.53541176337 604.6567452808471 673.5789701688946 343.06035087931826 673.5789701688946 343.06035087931826 1276.53541176337 "
style="
    mix-blend-mode:normal;
    fill:none;
    fill-opacity:0;
    stroke:rgb(126, 126, 126);
    stroke-opacity:1.0;
    stroke-width:1.8897637377604881;
    stroke-linecap:butt;
    stroke-linejoin:bevel;
    paint-order:markers fill stroke;
"/><polygon points=" 1047.7331869987536 1093.869143782018 1047.7331869987536 673.5789701688946 604.6567452808471 673.5789701688946 604.6567452808471 1093.869143782018 "
style="
    mix-blend-mode:normal;
    fill:none;
    fill-opacity:0;
    stroke:rgb(126, 126, 126);
    stroke-opacity:1.0;
    stroke-width:1.8897637377604881;
    stroke-linecap:butt;
    stroke-linejoin:bevel;
    paint-order:markers fill stroke;
"/><polygon points=" 1047.7331869987536 1276.53541176337 1047.7331869987536 1093.869143782018 604.6567452808471 1093.869143782018 604.6567452808471 1276.53541176337 "
style="
    mix-blend-mode:normal;
    fill:none;
    fill-opacity:0;
    stroke:rgb(126, 126, 126);
    stroke-opacity:1.0;
    stroke-width:1.8897637377604881;
    stroke-linecap:butt;
    stroke-linejoin:bevel;
    paint-order:markers fill stroke;
"/><polygon points=" 1553.2498100739672 356.43133217418404 1553.2498100739672 0.9448602633697192 1047.7331869987536 0.9448602633697192 1047.7331869987536 356.43133217418404 "
style="
    mix-blend-mode:normal;
    fill:none;
    fill-opacity:0;
    stroke:rgb(126, 126, 126);
    stroke-opacity:1.0;
    stroke-width:1.8897637377604881;
    stroke-linecap:butt;
    stroke-linejoin:bevel;
    paint-order:markers fill stroke;
"/><polygon points=" 1211.5715810846043 617.6524144312571 1211.5715810846043 356.43133217418404 1047.7331869987536 356.43133217418404 1047.7331869987536 617.6524144312571 "
style="
    mix-blend-mode:normal;
    fill:none;
    fill-opacity:0;
    stroke:rgb(126, 126, 126);
    stroke-opacity:1.0;
    stroke-width:1.8897637377604881;
    stroke-linecap:butt;
    stroke-linejoin:bevel;
    paint-order:markers fill stroke;
"/><polygon points=" 1553.2498100739672 617.6524144312571 1553.2498100739672 356.43133217418404 1211.5715810846043 356.43133217418404 1211.5715810846043 617.6524144312571 "
style="
    mix-blend-mode:normal;
    fill:none;
    fill-opacity:0;
    stroke:rgb(126, 126, 126);
    stroke-opacity:1.0;
    stroke-width:1.8897637377604881;
    stroke-linecap:butt;
    stroke-linejoin:bevel;
    paint-order:markers fill stroke;
"/><polygon points=" 1801.8136817450525 302.49658907545495 1801.8136817450525 0.9448602633697192 1553.2498100739672 0.9448602633697192 1553.2498100739672 302.4964989644959 "
style="
    mix-blend-mode:normal;
    fill:none;
    fill-opacity:0;
    stroke:rgb(126, 126, 126);
    stroke-opacity:1.0;
    stroke-width:1.8897637377604881;
    stroke-linecap:butt;
    stroke-linejoin:bevel;
    paint-order:markers fill stroke;
"/><polygon points=" 1801.8136817450525 617.6524594867366 1801.8136817450525 302.49658907545495 1553.2498100739672 302.4964989644959 1553.2498100739672 617.6524144312571 "
style="
    mix-blend-mode:normal;
    fill:none;
    fill-opacity:0;
    stroke:rgb(126, 126, 126);
    stroke-opacity:1.0;
    stroke-width:1.8897637377604881;
    stroke-linecap:butt;
    stroke-linejoin:bevel;
    paint-order:markers fill stroke;
"/><polygon points=" 2267.8109722850877 208.13356419757952 2267.8109722850877 0.9448602633697192 1801.8136817450525 0.9448602633697192 1801.8136817450525 208.13356419757952 "
style="
    mix-blend-mode:normal;
    fill:none;
    fill-opacity:0;
    stroke:rgb(126, 126, 126);
    stroke-opacity:1.0;
    stroke-width:1.8897637377604881;
    stroke-linecap:butt;
    stroke-linejoin:bevel;
    paint-order:markers fill stroke;
"/><polygon points=" 2267.8109722850877 617.6524594867366 2267.8109722850877 208.13356419757952 1801.8136817450525 208.13356419757952 1801.8136817450525 617.6524594867366 "
style="
    mix-blend-mode:normal;
    fill:none;
    fill-opacity:0;
    stroke:rgb(126, 126, 126);
    stroke-opacity:1.0;
    stroke-width:1.8897637377604881;
    stroke-linecap:butt;
    stroke-linejoin:bevel;
    paint-order:markers fill stroke;
"/><polygon points=" 1650.5083703990938 1083.156707914313 1650.5083703990938 617.6524594867366 1047.7331869987536 617.6524144312571 1047.7331869987536 1083.156707914313 "
style="
    mix-blend-mode:normal;
    fill:none;
    fill-opacity:0;
    stroke:rgb(126, 126, 126);
    stroke-opacity:1.0;
    stroke-width:1.8897637377604881;
    stroke-linecap:butt;
    stroke-linejoin:bevel;
    paint-order:markers fill stroke;
"/><polygon points=" 1356.468201022711 1276.53541176337 1356.468201022711 1083.156707914313 1047.7331869987536 1083.156707914313 1047.7331869987536 1276.53541176337 "
style="
    mix-blend-mode:normal;
    fill:none;
    fill-opacity:0;
    stroke:rgb(126, 126, 126);
    stroke-opacity:1.0;
    stroke-width:1.8897637377604881;
    stroke-linecap:butt;
    stroke-linejoin:bevel;
    paint-order:markers fill stroke;
"/><polygon points=" 1650.5083703990938 1276.53541176337 1650.5083703990938 1083.156707914313 1356.468201022711 1083.156707914313 1356.468201022711 1276.53541176337 "
style="
    mix-blend-mode:normal;
    fill:none;
    fill-opacity:0;
    stroke:rgb(126, 126, 126);
    stroke-opacity:1.0;
    stroke-width:1.8897637377604881;
    stroke-linecap:butt;
    stroke-linejoin:bevel;
    paint-order:markers fill stroke;
"/><polygon points=" 2267.8109722850877 1035.902250654022 2267.8109722850877 617.6524594867366 1650.5083703990938 617.6524594867366 1650.5083703990938 1035.9022055985424 "
style="
    mix-blend-mode:normal;
    fill:none;
    fill-opacity:0;
    stroke:rgb(126, 126, 126);
    stroke-opacity:1.0;
    stroke-width:1.8897637377604881;
    stroke-linecap:butt;
    stroke-linejoin:bevel;
    paint-order:markers fill stroke;
"/><polygon points=" 2267.8109722850877 1276.53541176337 2267.8109722850877 1035.902250654022 1650.5083703990938 1035.9022055985424 1650.5083703990938 1276.53541176337 "
style="
    mix-blend-mode:normal;
    fill:none;
    fill-opacity:0;
    stroke:rgb(126, 126, 126);
    stroke-opacity:1.0;
    stroke-width:1.8897637377604881;
    stroke-linecap:butt;
    stroke-linejoin:bevel;
    paint-order:markers fill stroke;
"/></g>
<g>
<polygon points=" 30.992132479989053 292.6461095865719 30.734595359015465 290.6896204436123 29.979375411191942 288.86658563101025 28.77810621605587 287.30099782842274 27.212608524427417 286.09972863328665 25.38948360086632 285.34459879642225 23.433084568865777 285.0870616754487 21.476685536865237 285.34459879642225 19.65356061330414 286.09972863328665 18.088062921675682 287.30099782842274 16.88679372653961 288.86658563101025 16.13157377871609 290.6896204436123 15.8740366577425 292.6461095865719 16.13157377871609 294.6025086185724 16.88679372653961 296.4256335421336 18.088062921675682 297.99113123376196 19.65356061330414 299.19240042889805 21.476685536865237 299.9476203767216 23.433084568865777 300.20515749769515 25.38948360086632 299.9476203767216 27.212608524427417 299.19240042889805 28.77810621605587 297.99113123376196 29.979375411191942 296.4256335421336 30.734595359015465 294.6025086185724 "
style="
    mix-blend-mode:normal;
    fill:rgb(126, 126, 126);
    fill-opacity:1.0;
    stroke:none;
    stroke-opacity:0;
    stroke-width:0
"/><polygon points=" 1145.6687509592457 1250.064416431949 1145.411123727313 1248.1079723444689 1144.6559938904486 1246.2848924763873 1143.4547246953125 1244.7193497292794 1141.889227003684 1243.5180805341433 1140.066102080123 1242.7629506972787 1138.1097030481226 1242.5053685208256 1136.1532139051628 1242.7629506972787 1134.330179092561 1243.5180805341433 1132.7645912899734 1244.7193497292794 1131.5633220948373 1246.2848924763873 1130.8081922579727 1248.1079723444689 1130.5506551369992 1250.064416431949 1130.8081922579727 1252.020860519429 1131.5633220948373 1253.8439403875107 1132.7645912899734 1255.4094831346185 1134.330179092561 1256.6107523297546 1136.1532139051628 1257.365882166619 1138.1097030481226 1257.6234643430723 1140.066102080123 1257.365882166619 1141.889227003684 1256.6107523297546 1143.4547246953125 1255.4094831346185 1144.6559938904486 1253.8439403875107 1145.411123727313 1252.020860519429 "
style="
    mix-blend-mode:normal;
    fill:rgb(126, 126, 126);
    fill-opacity:1.0;
    stroke:none;
    stroke-opacity:0;
    stroke-width:0
"/><polygon points=" 1131.831582419938 468.25975324667854 1131.5739551880056 466.303264103719 1130.818825351141 464.48013918015795 1129.6175561560049 462.91464148852947 1128.0520584643766 461.7133722933934 1126.2289335408154 460.95824245652886 1124.272534508815 460.7006152245963 1122.3160453658552 460.95824245652886 1120.4930105532533 461.7133722933934 1118.9274227506658 462.91464148852947 1117.7261535555297 464.48013918015795 1116.9710237186653 466.303264103719 1116.7133964867326 468.25975324667854 1116.9710237186653 470.21615227867915 1117.7261535555297 472.0391870912812 1118.9274227506658 473.6047748938687 1120.4930105532533 474.8060440890048 1122.3160453658552 475.5611739258692 1124.272534508815 475.8188011578019 1126.2289335408154 475.5611739258692 1128.0520584643766 474.8060440890048 1129.6175561560049 473.6047748938687 1130.818825351141 472.0391870912812 1131.5739551880056 470.21615227867915 "
style="
    mix-blend-mode:normal;
    fill:rgb(126, 126, 126);
    fill-opacity:1.0;
    stroke:none;
    stroke-opacity:0;
    stroke-width:0
"/><polygon points=" 310.97724501807403 321.36825689705586 310.7197078971005 319.41185786505525 309.96448794927693 317.5887329414942 308.7632187541409 316.0232352498657 307.1977210625124 314.8218759437706 305.37459613895135 314.0667461069062 303.4181971069508 313.8092089859326 301.46179807495025 314.0667461069062 299.6386731513891 314.8218759437706 298.0731754597607 316.0232352498657 296.8719062646246 317.5887329414942 296.11668631680107 319.41185786505525 295.8591491958275 321.36825689705586 296.11668631680107 323.32465592905635 296.8719062646246 325.14778085261753 298.0731754597607 326.7132785442459 299.6386731513891 327.914637850341 301.46179807495025 328.66976768720554 303.4181971069508 328.9273048081791 305.37459613895135 328.66976768720554 307.1977210625124 327.914637850341 308.7632187541409 326.7132785442459 309.96448794927693 325.14778085261753 310.7197078971005 323.32465592905635 "
style="
    mix-blend-mode:normal;
    fill:rgb(126, 126, 126);
    fill-opacity:1.0;
    stroke:none;
    stroke-opacity:0;
    stroke-width:0
"/><polygon points=" 329.7590722134991 640.6445860774762 329.5015350925255 638.6881419899962 328.74631514470195 636.8650621219147 327.5450459495659 635.2995193748067 325.97954825793744 634.0982501796706 324.15642333437637 633.3430752873265 322.2000243023758 633.085538166353 320.2436252703753 633.3430752873265 318.42050034681415 634.0982501796706 316.85500265518573 635.2995193748067 315.65373346004964 636.8650621219147 314.89851351222615 638.6881419899962 314.64097639125254 640.6445860774762 314.89851351222615 642.6009851094768 315.65373346004964 644.4241100330379 316.85500265518573 645.9896527801459 318.42050034681415 647.190921975282 320.2436252703753 647.9460518121464 322.2000243023758 648.2036339885996 324.15642333437637 647.9460518121464 325.97954825793744 647.190921975282 327.5450459495659 645.9896527801459 328.74631514470195 644.4241100330379 329.5015350925255 642.6009851094768 "
style="
    mix-blend-mode:normal;
    fill:rgb(126, 126, 126);
    fill-opacity:1.0;
    stroke:none;
    stroke-opacity:0;
    stroke-width:0
"/><polygon points=" 503.1349453719621 989.7869310826 502.87736319550896 987.8305095228595 502.1222333586445 986.0074071270383 500.9209641635085 984.4418643799303 499.3554214164005 983.2405951847942 497.53234154831887 982.48544282019 495.5758974608388 982.2278831714766 493.61945337335874 982.48544282019 491.7963735052772 983.2405951847942 490.2308307581692 984.4418643799303 489.02956156303316 986.0074071270383 488.27443172616864 987.8305095228595 488.0168495497156 989.7869310826 488.27443172616864 991.7433526423401 489.02956156303316 993.5664550381616 490.2308307581692 995.1319977852695 491.7963735052772 996.3332669804056 493.61945337335874 997.0884193450098 495.5758974608388 997.3459789937232 497.53234154831887 997.0884193450098 499.3554214164005 996.3332669804056 500.9209641635085 995.1319977852695 502.1222333586445 993.5664550381616 502.87736319550896 991.7433526423401 "
style="
    mix-blend-mode:normal;
    fill:rgb(126, 126, 126);
    fill-opacity:1.0;
    stroke:none;
    stroke-opacity:0;
    stroke-width:0
"/><polygon points=" 956.6015411125203 1023.8882971492346 956.3440039915467 1021.9318530617545 955.5888741546822 1020.108773193673 954.3876049595461 1018.543230446565 952.8220171569586 1017.3419612514289 950.9989823443566 1016.5868088868247 949.042493201397 1016.3292492381113 947.0860941693965 1016.5868088868247 945.2629692458354 1017.3419612514289 943.6974715542069 1018.543230446565 942.4962023590708 1020.108773193673 941.7409824112473 1021.9318530617545 941.4834452902737 1023.8882971492346 941.7409824112473 1025.8447412367145 942.4962023590708 1027.667821104796 943.6974715542069 1029.2333638519042 945.2629692458354 1030.4346330470403 947.0860941693965 1031.1897628839047 949.042493201397 1031.4473450603577 950.9989823443566 1031.1897628839047 952.8220171569586 1030.4346330470403 954.3876049595461 1029.2333638519042 955.5888741546822 1027.667821104796 956.3440039915467 1025.8447412367145 "
style="
    mix-blend-mode:normal;
    fill:rgb(126, 126, 126);
    fill-opacity:1.0;
    stroke:none;
    stroke-opacity:0;
    stroke-width:0
"/><polygon points=" 570.1345610354348 306.40965747233315 569.8769788589816 304.4531683293736 569.1218490221172 302.63004340581244 567.9205798269811 301.0645457141841 566.3550370798731 299.863276519048 564.5319572117916 299.1081466821835 562.5755131243114 298.8506095612099 560.6190690368314 299.1081466821835 558.7959891687499 299.863276519048 557.2304464216419 301.0645457141841 556.0291772265058 302.63004340581244 555.2740473896413 304.4531683293736 555.0164652131882 306.40965747233315 555.2740473896413 308.36605650433376 556.0291772265058 310.1890913169358 557.2304464216419 311.7546791195233 558.7959891687499 312.9559483146594 560.6190690368314 313.7110781515238 562.5755131243114 313.9687053834565 564.5319572117916 313.7110781515238 566.3550370798731 312.9559483146594 567.9205798269811 311.7546791195233 569.1218490221172 310.1890913169358 569.8769788589816 308.36605650433376 "
style="
    mix-blend-mode:normal;
    fill:rgb(126, 126, 126);
    fill-opacity:1.0;
    stroke:none;
    stroke-opacity:0;
    stroke-width:0
"/><polygon points=" 198.1038972644005 1060.8192374410937 197.84636014342692 1058.8627933536136 197.09114019560337 1057.039713485532 195.8898710004673 1055.4741707384242 194.32437330883886 1054.272901543288 192.50124838527776 1053.5177717064234 190.54484935327721 1053.2601895299704 188.58845032127667 1053.5177717064234 186.76532539771557 1054.272901543288 185.19982770608712 1055.4741707384242 183.99855851095106 1057.039713485532 183.24333856312754 1058.8627933536136 182.98580144215393 1060.8192374410937 183.24333856312754 1062.7756815285738 183.99855851095106 1064.5987613966554 185.19982770608712 1066.1643041437633 186.76532539771557 1067.3655733388994 188.58845032127667 1068.120703175764 190.54484935327721 1068.378285352217 192.50124838527776 1068.120703175764 194.32437330883886 1067.3655733388994 195.8898710004673 1066.1643041437633 197.09114019560337 1064.5987613966554 197.84636014342692 1062.7756815285738 "
style="
    mix-blend-mode:normal;
    fill:rgb(126, 126, 126);
    fill-opacity:1.0;
    stroke:none;
    stroke-opacity:0;
    stroke-width:0
"/><polygon points=" 791.0228340744782 1163.8499904148014 790.7652969535046 1161.8935463273212 790.0100770056811 1160.0704664592397 788.808807810545 1158.5049237121318 787.2433101189166 1157.3036545169957 785.4201851953554 1156.5485246801313 783.4637861633549 1156.290942503678 781.5072970203953 1156.5485246801313 779.6842622077933 1157.3036545169957 778.1186744052058 1158.5049237121318 776.9174052100697 1160.0704664592397 776.1622753732053 1161.8935463273212 775.9047382522316 1163.8499904148014 776.1622753732053 1165.8064345022815 776.9174052100697 1167.629514370363 778.1186744052058 1169.195057117471 779.6842622077933 1170.396326312607 781.5072970203953 1171.1514561494716 783.4637861633549 1171.4090383259247 785.4201851953554 1171.1514561494716 787.2433101189166 1170.396326312607 788.808807810545 1169.195057117471 790.0100770056811 1167.629514370363 790.7652969535046 1165.8064345022815 "
style="
    mix-blend-mode:normal;
    fill:rgb(126, 126, 126);
    fill-opacity:1.0;
    stroke:none;
    stroke-opacity:0;
    stroke-width:0
"/><polygon points=" 385.6975225977316 402.29690922259067 385.4399404212785 400.3405101905902 384.68481058441404 398.517385267029 383.48354138927795 396.95188757540063 381.91799864216995 395.7505282693055 380.0949187740884 394.995398432441 378.13847468660833 394.73786131146744 376.1820756546078 394.995398432441 374.3589507310467 395.7505282693055 372.79345303941824 396.95188757540063 371.59218384428215 398.517385267029 370.83696389645866 400.3405101905902 370.57942677548505 402.29690922259067 370.83696389645866 404.25330825459116 371.59218384428215 406.07643317815234 372.79345303941824 407.6419308697808 374.3589507310467 408.84329017587595 376.1820756546078 409.59842001274035 378.13847468660833 409.8559571337139 380.0949187740884 409.59842001274035 381.91799864216995 408.84329017587595 383.48354138927795 407.6419308697808 384.68481058441404 406.07643317815234 385.4399404212785 404.25330825459116 "
style="
    mix-blend-mode:normal;
    fill:rgb(126, 126, 126);
    fill-opacity:1.0;
    stroke:none;
    stroke-opacity:0;
    stroke-width:0
"/><polygon points=" 1999.9536233930742 60.39592594244891 1999.6960862721005 58.43943679948916 1998.940776213318 56.616311875928204 1997.739597129141 55.050814184299725 1996.1740093265535 53.84954498916363 1994.3508844029923 53.094415152299234 1992.3945754819508 52.83687803132557 1990.4382665609094 53.094415152299234 1988.6151416373482 53.84954498916363 1987.0495538347607 55.050814184299725 1985.8483747505838 56.616311875928204 1985.0930646918011 58.43943679948916 1984.8355275708277 60.39592594244891 1985.0930646918011 62.3523249744494 1985.8483747505838 64.17535978705132 1987.0495538347607 65.74094758963884 1988.6151416373482 66.94221678477493 1990.4382665609094 67.69734662163955 1992.3945754819508 67.95497385357203 1994.3508844029923 67.69734662163955 1996.1740093265535 66.94221678477493 1997.739597129141 65.74094758963884 1998.940776213318 64.17535978705132 1999.6960862721005 62.3523249744494 "
style="
    mix-blend-mode:normal;
    fill:rgb(126, 126, 126);
    fill-opacity:1.0;
    stroke:none;
    stroke-opacity:0;
    stroke-width:0
"/><polygon points=" 2164.1612020781654 1271.4990201509363 2163.9036649571917 1269.5425760634564 2163.1485351203273 1267.7194961953749 2161.947175814232 1266.1539534482667 2160.3817682335625 1264.9526842531307 2158.5586433100016 1264.1975544162663 2156.602154167042 1263.9399722398132 2154.6456650240825 1264.1975544162663 2152.822540100521 1264.9526842531307 2151.257132519852 1266.1539534482667 2150.0557732137568 1267.7194961953749 2149.3006433768924 1269.5425760634564 2149.0431062559187 1271.4990201509363 2149.3006433768924 1273.4554642384164 2150.0557732137568 1275.278544106498 2151.257132519852 1276.844086853606 2152.822540100521 1278.0453560487422 2154.6456650240825 1278.8004858856066 2156.602154167042 1279.0580680620596 2158.5586433100016 1278.8004858856066 2160.3817682335625 1278.0453560487422 2161.947175814232 1276.844086853606 2163.1485351203273 1275.278544106498 2163.9036649571917 1273.4554642384164 "
style="
    mix-blend-mode:normal;
    fill:rgb(126, 126, 126);
    fill-opacity:1.0;
    stroke:none;
    stroke-opacity:0;
    stroke-width:0
"/><polygon points=" 95.34217055894567 623.1877954794467 95.08463343797207 621.2313513919665 94.32941349014855 619.408271523885 93.12814429501248 617.842728776777 91.56264660338402 616.641459581641 89.73952167982293 615.8863297447765 87.78312264782238 615.6287475683234 85.82672361582185 615.8863297447765 84.00359869226075 616.641459581641 82.43810100063229 617.842728776777 81.23683180549622 619.408271523885 80.48161185767269 621.2313513919665 80.22407473669911 623.1877954794467 80.48161185767269 625.1442395669267 81.23683180549622 626.9673194350083 82.43810100063229 628.5328621821162 84.00359869226075 629.7341313772523 85.82672361582185 630.4893062695963 87.78312264782238 630.7468433905699 89.73952167982293 630.4893062695963 91.56264660338402 629.7341313772523 93.12814429501248 628.5328621821162 94.32941349014855 626.9673194350083 95.08463343797207 625.1442395669267 "
style="
    mix-blend-mode:normal;
    fill:rgb(126, 126, 126);
    fill-opacity:1.0;
    stroke:none;
    stroke-opacity:0;
    stroke-width:0
"/><polygon points=" 1592.9741450409908 239.96381870772097 1592.7166079200174 238.00732956476145 1591.9614780831528 236.18420464120027 1590.7601187770576 234.6187069495718 1589.1945309744701 233.4174377544357 1587.3715862728272 232.6623079175713 1585.4150971298677 232.40477079659763 1583.458607986908 232.6623079175713 1581.635483063347 233.4174377544357 1580.0700754826776 234.6187069495718 1578.8687161765824 236.18420464120027 1578.113586339718 238.00732956476145 1577.8560492187444 239.96381870772097 1578.113586339718 241.92021773972147 1578.8687161765824 243.7432525523236 1580.0700754826776 245.30884035491113 1581.635483063347 246.51010955004722 1583.458607986908 247.26523938691162 1585.4150971298677 247.52286661884432 1587.3715862728272 247.26523938691162 1589.1945309744701 246.51010955004722 1590.7601187770576 245.30884035491113 1591.9614780831528 243.7432525523236 1592.7166079200174 241.92021773972147 "
style="
    mix-blend-mode:normal;
    fill:rgb(126, 126, 126);
    fill-opacity:1.0;
    stroke:none;
    stroke-opacity:0;
    stroke-width:0
"/><polygon points=" 1306.429765682476 495.2029300035374 1306.1721384505436 493.2465309715369 1305.417008613679 491.42340604797573 1304.2157394185429 489.85790835634737 1302.6501516159553 488.6566391612113 1300.8271168033534 487.9014192133877 1298.870627660394 487.6438820924142 1296.9142286283932 487.9014192133877 1295.0911037048322 488.6566391612113 1293.5256060132037 489.85790835634737 1292.3243368180676 491.42340604797573 1291.5692069812033 493.2465309715369 1291.3115797492705 495.2029300035374 1291.5692069812033 497.15941914649704 1292.3243368180676 498.9824539590991 1293.5256060132037 500.5480417616866 1295.0911037048322 501.7493109568227 1296.9142286283932 502.5044407936871 1298.870627660394 502.76197791466063 1300.8271168033534 502.5044407936871 1302.6501516159553 501.7493109568227 1304.2157394185429 500.5480417616866 1305.417008613679 498.9824539590991 1306.1721384505436 497.15941914649704 "
style="
    mix-blend-mode:normal;
    fill:rgb(126, 126, 126);
    fill-opacity:1.0;
    stroke:none;
    stroke-opacity:0;
    stroke-width:0
"/><polygon points=" 2044.0598740769292 355.87120245271035 2043.8023369559555 353.9147133097508 2043.0472071190911 352.09158838618964 2041.845847812996 350.5260906945613 2040.2804402323266 349.3248214994252 2038.4573153087656 348.5696916625607 2036.5008261658058 348.3121545415871 2034.5443370228463 348.5696916625607 2032.7212120992851 349.3248214994252 2031.155804518616 350.5260906945613 2029.9544452125208 352.09158838618964 2029.1993153756562 353.9147133097508 2028.9417782546827 355.87120245271035 2029.1993153756562 357.82760148471095 2029.9544452125208 359.650636297313 2031.155804518616 361.2162240999005 2032.7212120992851 362.4174932950366 2034.5443370228463 363.172623131901 2036.5008261658058 363.4302503638337 2038.4573153087656 363.172623131901 2040.2804402323266 362.4174932950366 2041.845847812996 361.2162240999005 2043.0472071190911 359.650636297313 2043.8023369559555 357.82760148471095 "
style="
    mix-blend-mode:normal;
    fill:rgb(126, 126, 126);
    fill-opacity:1.0;
    stroke:none;
    stroke-opacity:0;
    stroke-width:0
"/><polygon points=" 1519.928399413416 904.2210561654969 1519.6708622924425 902.2646346057566 1518.9157324555779 900.4415322099352 1517.7143731494828 898.8759669350875 1516.1489655688133 897.6746977399514 1514.3258406452524 896.919567903087 1512.3693515022928 896.6620307821133 1510.412952470292 896.919567903087 1508.5899176576902 897.6746977399514 1507.0243298551027 898.8759669350875 1505.8230606599666 900.4415322099352 1505.0679308231022 902.2646346057566 1504.8103035911695 904.2210561654969 1505.0679308231022 906.1774777252372 1505.8230606599666 908.0005801210584 1507.0243298551027 909.5661228681665 1508.5899176576902 910.7673920633026 1510.412952470292 911.5225444279067 1512.3693515022928 911.7801040766201 1514.3258406452524 911.5225444279067 1516.1489655688133 910.7673920633026 1517.7143731494828 909.5661228681665 1518.9157324555779 908.0005801210584 1519.6708622924425 906.1774777252372 "
style="
    mix-blend-mode:normal;
    fill:rgb(126, 126, 126);
    fill-opacity:1.0;
    stroke:none;
    stroke-opacity:0;
    stroke-width:0
"/><polygon points=" 1249.908928169884 105.83140338329531 1249.6513009379512 103.87500435129482 1248.8961711010868 102.05187942773364 1247.6949019059507 100.48629162514612 1246.1294042143222 99.28511254096907 1244.306279290761 98.52998270410467 1242.3498802587605 98.27235547217197 1240.393391115801 98.52998270410467 1238.5703563031989 99.28511254096907 1237.0047685006114 100.48629162514612 1235.8034993054753 102.05187942773364 1235.0483694686109 103.87500435129482 1234.7908323476372 105.83140338329531 1235.0483694686109 107.7878024152958 1235.8034993054753 109.61092733885698 1237.0047685006114 111.1765151414445 1238.5703563031989 112.37769422562133 1240.393391115801 113.13282406248595 1242.3498802587605 113.39045129441865 1244.306279290761 113.13282406248595 1246.1294042143222 112.37769422562133 1247.6949019059507 111.1765151414445 1248.8961711010868 109.61092733885698 1249.6513009379512 107.7878024152958 "
style="
    mix-blend-mode:normal;
    fill:rgb(126, 126, 126);
    fill-opacity:1.0;
    stroke:none;
    stroke-opacity:0;
    stroke-width:0
"/><polygon points=" 1600.5036365575447 365.0292693322299 1600.2459192146532 363.0728703002293 1599.4907893777886 361.2497453766682 1598.2896102936115 359.68424768503974 1596.724022491024 358.48297848990364 1594.900897567463 357.72784865303925 1592.9445886464216 357.47022142110654 1590.9880995034619 357.72784865303925 1589.164974579901 358.48297848990364 1587.5993867773134 359.68424768503974 1586.3982076931363 361.2497453766682 1585.643077856272 363.0728703002293 1585.3855407352983 365.0292693322299 1585.643077856272 366.9856683642304 1586.3982076931363 368.80879328779145 1587.5993867773134 370.37438109037896 1589.164974579901 371.57565028551505 1590.9880995034619 372.33078012237957 1592.9445886464216 372.5883172433531 1594.900897567463 372.33078012237957 1596.724022491024 371.57565028551505 1598.2896102936115 370.37438109037896 1599.4907893777886 368.80879328779145 1600.2459192146532 366.9856683642304 "
style="
    mix-blend-mode:normal;
    fill:rgb(126, 126, 126);
    fill-opacity:1.0;
    stroke:none;
    stroke-opacity:0;
    stroke-width:0
"/><polygon points=" 883.9582310280762 584.4709460901153 883.7006939071026 582.5145020026353 882.9455640702382 580.6914221345537 881.7442948751021 579.1258793874457 880.1787070725146 577.9246101923096 878.3556722599126 577.1694352999656 876.3991831169529 576.911898178992 874.4427840849525 577.1694352999656 872.6196591613913 577.9246101923096 871.0541614697629 579.1258793874457 869.8528922746268 580.6914221345537 869.0976723268033 582.5145020026353 868.8401352058297 584.4709460901153 869.0976723268033 586.4273901775954 869.8528922746268 588.2504700456769 871.0541614697629 589.8160127927849 872.6196591613913 591.017281987921 874.4427840849525 591.7724118247854 876.3991831169529 592.0299940012386 878.3556722599126 591.7724118247854 880.1787070725146 591.017281987921 881.7442948751021 589.8160127927849 882.9455640702382 588.2504700456769 883.7006939071026 586.4273901775954 "
style="
    mix-blend-mode:normal;
    fill:rgb(126, 126, 126);
    fill-opacity:1.0;
    stroke:none;
    stroke-opacity:0;
    stroke-width:0
"/><polygon points=" 1582.3859271303406 1095.1846286177538 1582.128209787449 1093.2281845302737 1581.3730799505845 1091.4051046621921 1580.1719008664074 1089.8395619150842 1578.60631306382 1088.6382927199481 1576.783188140259 1087.8831628830835 1574.8268792192173 1087.6255807066304 1572.8703900762578 1087.8831628830835 1571.0472651526968 1088.6382927199481 1569.4816773501093 1089.8395619150842 1568.2804982659322 1091.4051046621921 1567.5253684290676 1093.2281845302737 1567.2678313080942 1095.1846286177538 1567.5253684290676 1097.141072705234 1568.2804982659322 1098.9641525733155 1569.4816773501093 1100.5296953204233 1571.0472651526968 1101.7309645155594 1572.8703900762578 1102.486094352424 1574.8268792192173 1102.7436765288771 1576.783188140259 1102.486094352424 1578.60631306382 1101.7309645155594 1580.1719008664074 1100.5296953204233 1581.3730799505845 1098.9641525733155 1582.128209787449 1097.141072705234 "
style="
    mix-blend-mode:normal;
    fill:rgb(126, 126, 126);
    fill-opacity:1.0;
    stroke:none;
    stroke-opacity:0;
    stroke-width:0
"/><polygon points=" 1878.1928119699173 800.3054811571076 1877.935274848944 798.3490370696275 1877.1801450120793 796.5259572015459 1875.9789659279024 794.960414454438 1874.413378125315 793.7591452593019 1872.5902532017537 793.0039703669579 1870.6337640587942 792.7464332459843 1868.6774551377525 793.0039703669579 1866.8543302141916 793.7591452593019 1865.288742411604 794.960414454438 1864.087563327427 796.5259572015459 1863.3324334905626 798.3490370696275 1863.0747161476709 800.3054811571076 1863.3324334905626 802.2618801891081 1864.087563327427 804.0850051126693 1865.288742411604 805.6505028042977 1866.8543302141916 806.8518170549132 1868.6774551377525 807.6069468917779 1870.6337640587942 807.8645290682309 1872.5902532017537 807.6069468917779 1874.413378125315 806.8518170549132 1875.9789659279024 805.6505028042977 1877.1801450120793 804.0850051126693 1877.935274848944 802.2618801891081 "
style="
    mix-blend-mode:normal;
    fill:rgb(126, 126, 126);
    fill-opacity:1.0;
    stroke:none;
    stroke-opacity:0;
    stroke-width:0
"/></g>
</svg>