<?xml version="1.0" encoding="UTF-8" standalone="no"?>
<svg
   width="166.35699mm"
   height="159.91701mm"
   version="1.1"
   id="svg94"
   sodipodi:docname="binary_tree.svg"
   inkscape:version="1.3 (0e150ed6c4, 2023-07-21)"
   inkscape:export-filename="binary_tree.pdf"
   inkscape:export-xdpi="400"
   inkscape:export-ydpi="400"
   xmlns:inkscape="http://www.inkscape.org/namespaces/inkscape"
   xmlns:sodipodi="http://sodipodi.sourceforge.net/DTD/sodipodi-0.dtd"
   xmlns="http://www.w3.org/2000/svg"
   xmlns:svg="http://www.w3.org/2000/svg">
  <sodipodi:namedview
     id="namedview96"
     pagecolor="#121212"
     bordercolor="#666666"
     borderopacity="1.0"
     inkscape:pageshadow="2"
     inkscape:pageopacity="0.0"
     inkscape:pagecheckerboard="0"
     inkscape:document-units="mm"
     showgrid="false"
     fit-margin-top="0"
     fit-margin-left="0"
     fit-margin-right="0"
     fit-margin-bottom="0"
     inkscape:zoom="1.0304183"
     inkscape:cx="257.17711"
     inkscape:cy="242.61991"
     inkscape:window-width="1920"
     inkscape:window-height="1043"
     inkscape:window-x="0"
     inkscape:window-y="0"
     inkscape:window-maximized="1"
     inkscape:current-layer="svg94"
     inkscape:showpageshadow="2"
     inkscape:deskcolor="#d1d1d1"
     showguides="true" />
  <defs
     id="defs2" />
  <path
     style="fill:none;stroke:#e5e5e5;stroke-width:3.77952756;stroke-linecap:butt;stroke-linejoin:miter;stroke-dasharray:none;stroke-opacity:1"
     d="M 307.23893,49.61935 234.89406,200.60734 114.29645,345.51308"
     id="path14"
     sodipodi:nodetypes="ccc" />
  <path
     style="fill:none;stroke:#e5e5e5;stroke-width:3.77952756;stroke-linecap:butt;stroke-linejoin:miter;stroke-dasharray:none;stroke-opacity:1"
     d="m 307.23893,49.61935 92.69162,140.31735 1.6812,176.06209"
     id="path15"
     sodipodi:nodetypes="ccc" />
  <path
     style="fill:none;stroke:#e5e5e5;stroke-width:3.77952756;stroke-linecap:butt;stroke-linejoin:miter;stroke-dasharray:none;stroke-opacity:1"
     d="m 234.89406,200.60734 14.96129,150.988"
     id="path16" />
  <path
     style="fill:none;stroke:#e5e5e5;stroke-width:3.77952756;stroke-linecap:butt;stroke-linejoin:miter;stroke-dasharray:none;stroke-opacity:1"
     d="m 249.85535,351.59534 -24.0711,203.05767"
     id="path17"
     sodipodi:nodetypes="cc" />
  <path
     style="fill:none;stroke:#e5e5e5;stroke-width:3.77952756;stroke-linecap:butt;stroke-linejoin:miter;stroke-dasharray:none;stroke-opacity:1"
     d="M 249.85535,351.59534 73.738787,513.25763"
     id="path17-0"
     sodipodi:nodetypes="cc" />
  <path
     style="fill:none;stroke:#e5e5e5;stroke-width:3.77952756;stroke-linecap:butt;stroke-linejoin:miter;stroke-dasharray:none;stroke-opacity:1"
     d="m 399.93055,189.9367 153.4375,146.65715"
     id="path18" />
  <path
     style="fill:none;stroke:#e5e5e5;stroke-width:3.77952756;stroke-linecap:butt;stroke-linejoin:miter;stroke-dasharray:none;stroke-opacity:1"
     d="m 554.73105,337.69776 1.7893,172.1029"
     id="path19"
     sodipodi:nodetypes="cc" />
  <path
     style="fill:none;stroke:#e5e5e5;stroke-width:3.77952756;stroke-linecap:butt;stroke-linejoin:miter;stroke-dasharray:none;stroke-opacity:1"
     d="M 554.73105,337.69776 377.82965,524.84824"
     id="path19-5"
     sodipodi:nodetypes="cc" />
  <rect
     style="fill:#f47ea6;fill-opacity:1;stroke:#e5e5e5;stroke-width:3.77952756;stroke-linecap:round;stroke-linejoin:round;stroke-miterlimit:10;stroke-dasharray:none;stroke-opacity:1"
     id="rect51"
     width="121.36604"
     height="65.965927"
     x="246.55592"
     y="16.636387"
     ry="32.982964" />
  <path
     d="m 268.14458,57.86218 h 4.72656 V 41.548397 l -5.14193,1.031249 v -2.635414 l 5.11328,-1.031249 h 2.89323 V 57.86218 h 4.72655 v 2.434893 h -12.31769 z m 24.34893,-17.044251 q -2.23437,0 -3.36588,2.205727 -1.11719,2.191403 -1.11719,6.602857 0,4.39713 1.11719,6.602857 1.13151,2.191403 3.36588,2.191403 2.24869,0 3.36588,-2.191403 1.13151,-2.205727 1.13151,-6.602857 0,-4.411454 -1.13151,-6.602857 -1.11719,-2.205727 -3.36588,-2.205727 z m 0,-2.291664 q 3.59505,0 5.48567,2.850257 1.90494,2.835934 1.90494,8.249991 0,5.399733 -1.90494,8.24999 -1.89062,2.835934 -5.48567,2.835934 -3.59505,0 -5.5,-2.835934 -1.89062,-2.850257 -1.89062,-8.24999 0,-5.414057 1.89062,-8.249991 1.90495,-2.850257 5.5,-2.850257 z m 18.66274,2.291664 q -2.23438,0 -3.36588,2.205727 -1.11719,2.191403 -1.11719,6.602857 0,4.39713 1.11719,6.602857 1.1315,2.191403 3.36588,2.191403 2.24869,0 3.36588,-2.191403 1.13151,-2.205727 1.13151,-6.602857 0,-4.411454 -1.13151,-6.602857 -1.11719,-2.205727 -3.36588,-2.205727 z m 0,-2.291664 q 3.59504,0 5.48567,2.850257 1.90494,2.835934 1.90494,8.249991 0,5.399733 -1.90494,8.24999 -1.89063,2.835934 -5.48567,2.835934 -3.59505,0 -5.5,-2.835934 -1.89062,-2.850257 -1.89062,-8.24999 0,-5.414057 1.89062,-8.249991 1.90495,-2.850257 5.5,-2.850257 z m 30.66533,12.360663 q -1.2461,0 -1.96224,1.059895 -0.70182,1.059894 -0.70182,2.950517 0,1.861977 0.70182,2.936195 0.71614,1.059894 1.96224,1.059894 1.21744,0 1.91926,-1.059894 0.71615,-1.074218 0.71615,-2.936195 0,-1.8763 -0.71615,-2.936195 -0.70182,-1.074217 -1.91926,-1.074217 z m 0,-1.819008 q 2.26301,0 3.59504,1.575519 1.33203,1.575519 1.33203,4.253901 0,2.678382 -1.34635,4.253901 -1.33203,1.561196 -3.58072,1.561196 -2.29167,0 -3.6237,-1.561196 -1.33203,-1.575519 -1.33203,-4.253901 0,-2.692705 1.33203,-4.253901 1.34635,-1.575519 3.6237,-1.575519 z m -14.78124,-8.722647 q -1.23177,0 -1.94791,1.074218 -0.70182,1.059894 -0.70182,2.921872 0,1.890622 0.70182,2.950517 0.70182,1.059895 1.94791,1.059895 1.2461,0 1.94792,-1.059895 0.71614,-1.059895 0.71614,-2.950517 0,-1.847655 -0.71614,-2.921872 -0.71615,-1.074218 -1.94792,-1.074218 z m 12.93358,-1.819008 h 2.29167 L 328.888,60.712437 h -2.29167 z m -12.93358,0 q 2.26302,0 3.60937,1.575519 1.34636,1.561196 1.34636,4.239579 0,2.707028 -1.34636,4.268224 -1.33203,1.561196 -3.60937,1.561196 -2.27734,0 -3.60937,-1.561196 -1.3177,-1.575519 -1.3177,-4.268224 0,-2.66406 1.33203,-4.239579 1.33202,-1.575519 3.59504,-1.575519 z"
     id="text51"
     style="font-size:29.3333px;line-height:1.25;fill:#e5e5e5;stroke-width:1.34674"
     aria-label="100%" />
  <rect
     style="fill:#35b996;fill-opacity:1;stroke:#e5e5e5;stroke-width:3.77952756;stroke-linecap:round;stroke-linejoin:round;stroke-miterlimit:10;stroke-dasharray:none;stroke-opacity:1"
     id="rect51-0"
     width="101.98814"
     height="65.965935"
     x="182.38039"
     y="167.4738"
     ry="31.723345" />
  <path
     d="m 212.36994,199.60456 q 2.07682,0.44401 3.23697,1.84765 1.17448,1.40364 1.17448,3.46614 0,3.16536 -2.17708,4.89843 -2.17708,1.73308 -6.18749,1.73308 -1.34636,0 -2.77865,-0.27214 -1.41796,-0.25781 -2.93619,-0.78776 v -2.79297 q 1.20312,0.70183 2.63541,1.0599 1.43229,0.35807 2.99349,0.35807 2.72135,0 4.13932,-1.07422 1.43229,-1.07421 1.43229,-3.12239 0,-1.89062 -1.33203,-2.95052 -1.31771,-1.07421 -3.68099,-1.07421 h -2.49218 v -2.3776 h 2.60676 q 2.13412,0 3.26563,-0.84506 1.1315,-0.85937 1.1315,-2.46353 0,-1.64714 -1.17447,-2.52083 -1.16016,-0.88802 -3.33724,-0.88802 -1.1888,0 -2.54948,0.25781 -1.36067,0.25781 -2.99348,0.80208 v -2.57812 q 1.64713,-0.45833 3.07942,-0.6875 1.44662,-0.22917 2.72135,-0.22917 3.29427,0 5.21354,1.50391 1.91927,1.48958 1.91927,4.03906 0,1.77603 -1.01693,3.0078 -1.01692,1.21745 -2.89322,1.69011 z m 9.16665,-9.85416 h 13.74999 v 1.23177 l -7.76302,20.15232 h -3.02213 l 7.30468,-18.9492 h -10.26952 z m 37.58329,11.97395 q -1.24609,0 -1.96224,1.05989 -0.70182,1.05989 -0.70182,2.95052 0,1.86197 0.70182,2.93619 0.71615,1.0599 1.96224,1.0599 1.21745,0 1.91927,-1.0599 0.71615,-1.07422 0.71615,-2.93619 0,-1.8763 -0.71615,-2.9362 -0.70182,-1.07421 -1.91927,-1.07421 z m 0,-1.81901 q 2.26302,0 3.59505,1.57552 1.33203,1.57552 1.33203,4.2539 0,2.67838 -1.34635,4.2539 -1.33203,1.5612 -3.58073,1.5612 -2.29166,0 -3.62369,-1.5612 -1.33203,-1.57552 -1.33203,-4.2539 0,-2.69271 1.33203,-4.2539 1.34635,-1.57552 3.62369,-1.57552 z m -14.78123,-8.72265 q -1.23177,0 -1.94792,1.07422 -0.70182,1.05989 -0.70182,2.92187 0,1.89062 0.70182,2.95052 0.70183,1.05989 1.94792,1.05989 1.24609,0 1.94791,-1.05989 0.71615,-1.0599 0.71615,-2.95052 0,-1.84765 -0.71615,-2.92187 -0.71614,-1.07422 -1.94791,-1.07422 z m 12.93358,-1.81901 h 2.29166 l -13.37759,22.18618 h -2.29166 z m -12.93358,0 q 2.26302,0 3.60937,1.57552 1.34635,1.5612 1.34635,4.23958 0,2.70703 -1.34635,4.26822 -1.33203,1.5612 -3.60937,1.5612 -2.27734,0 -3.60937,-1.5612 -1.31771,-1.57551 -1.31771,-4.26822 0,-2.66406 1.33203,-4.23958 1.33203,-1.57552 3.59505,-1.57552 z"
     id="text51-6"
     style="font-size:29.3333px;line-height:1.25;fill:#e5e5e5;stroke-width:1.34674"
     aria-label="37%" />
  <rect
     style="fill:#35b996;fill-opacity:1;stroke:#e5e5e5;stroke-width:3.77952756;stroke-linecap:round;stroke-linejoin:round;stroke-miterlimit:10;stroke-dasharray:none;stroke-opacity:1"
     id="rect51-0-6"
     width="101.98814"
     height="65.965935"
     x="347.97458"
     y="155.84985"
     ry="31.723345" />
  <path
     d="m 375.74402,187.66551 q -1.94792,0 -3.09375,1.33203 -1.13151,1.33202 -1.13151,3.65233 0,2.30599 1.13151,3.65234 1.14583,1.33203 3.09375,1.33203 1.94791,0 3.07942,-1.33203 1.14583,-1.34635 1.14583,-3.65234 0,-2.32031 -1.14583,-3.65233 -1.13151,-1.33203 -3.07942,-1.33203 z m 5.74348,-9.0664 v 2.63541 q -1.08854,-0.51562 -2.20573,-0.78776 -1.10286,-0.27213 -2.1914,-0.27213 -2.86458,0 -4.38281,1.93359 -1.5039,1.93359 -1.71875,5.84374 0.84506,-1.24609 2.11979,-1.90494 1.27474,-0.67318 2.80729,-0.67318 3.22265,0 5.08463,1.96224 1.8763,1.94791 1.8763,5.31379 0,3.29427 -1.94791,5.28515 -1.94792,1.99089 -5.18489,1.99089 -3.70963,0 -5.67187,-2.83594 -1.96224,-2.85025 -1.96224,-8.24999 0,-5.0703 2.40625,-8.07811 2.40625,-3.02213 6.45963,-3.02213 1.08854,0 2.1914,0.21484 1.11719,0.21484 2.32031,0.64453 z m 15.13931,9.3815 q 2.07682,0.44401 3.23697,1.84765 1.17448,1.40365 1.17448,3.46615 0,3.16536 -2.17708,4.89843 -2.17708,1.73307 -6.18749,1.73307 -1.34636,0 -2.77865,-0.27214 -1.41796,-0.25781 -2.93619,-0.78776 v -2.79296 q 1.20312,0.70182 2.63541,1.05989 1.43229,0.35807 2.99349,0.35807 2.72135,0 4.13932,-1.07421 1.43229,-1.07422 1.43229,-3.12239 0,-1.89063 -1.33203,-2.95052 -1.31771,-1.07422 -3.68099,-1.07422 h -2.49218 v -2.3776 h 2.60676 q 2.13412,0 3.26563,-0.84505 1.1315,-0.85938 1.1315,-2.46354 0,-1.64713 -1.17447,-2.52083 -1.16016,-0.88802 -3.33724,-0.88802 -1.1888,0 -2.54948,0.25781 -1.36067,0.25781 -2.99348,0.80208 v -2.57812 q 1.64713,-0.45833 3.07942,-0.6875 1.44662,-0.22916 2.72135,-0.22916 3.29427,0 5.21354,1.5039 1.91927,1.48958 1.91927,4.03906 0,1.77604 -1.01693,3.00781 -1.01692,1.21744 -2.89322,1.6901 z m 28.0872,2.11979 q -1.24609,0 -1.96223,1.05989 -0.70183,1.0599 -0.70183,2.95052 0,1.86198 0.70183,2.93619 0.71614,1.0599 1.96223,1.0599 1.21745,0 1.91927,-1.0599 0.71615,-1.07421 0.71615,-2.93619 0,-1.8763 -0.71615,-2.93619 -0.70182,-1.07422 -1.91927,-1.07422 z m 0,-1.81901 q 2.26302,0 3.59505,1.57552 1.33203,1.57552 1.33203,4.2539 0,2.67838 -1.34635,4.2539 -1.33203,1.5612 -3.58073,1.5612 -2.29166,0 -3.62369,-1.5612 -1.33203,-1.57552 -1.33203,-4.2539 0,-2.6927 1.33203,-4.2539 1.34635,-1.57552 3.62369,-1.57552 z m -14.78123,-8.72265 q -1.23177,0 -1.94791,1.07422 -0.70183,1.0599 -0.70183,2.92187 0,1.89063 0.70183,2.95052 0.70182,1.0599 1.94791,1.0599 1.24609,0 1.94791,-1.0599 0.71615,-1.05989 0.71615,-2.95052 0,-1.84765 -0.71615,-2.92187 -0.71614,-1.07422 -1.94791,-1.07422 z m 12.93358,-1.819 h 2.29166 l -13.37759,22.18617 h -2.29166 z m -12.93358,0 q 2.26302,0 3.60937,1.57551 1.34635,1.5612 1.34635,4.23958 0,2.70703 -1.34635,4.26823 -1.33203,1.56119 -3.60937,1.56119 -2.27734,0 -3.60937,-1.56119 -1.31771,-1.57552 -1.31771,-4.26823 0,-2.66406 1.33203,-4.23958 1.33203,-1.57551 3.59505,-1.57551 z"
     id="text51-6-1"
     style="font-size:29.3333px;line-height:1.25;fill:#e5e5e5;stroke-width:1.34674"
     aria-label="63%" />
  <rect
     style="fill:#35b996;fill-opacity:1;stroke:#e5e5e5;stroke-width:3.77952756;stroke-linecap:round;stroke-linejoin:round;stroke-miterlimit:10;stroke-dasharray:none;stroke-opacity:1"
     id="rect51-0-7"
     width="101.98814"
     height="65.965935"
     x="63.302383"
     y="312.53012"
     ry="31.723345" />
  <path
     d="m 93.291933,344.66086 q 2.07682,0.44401 3.236975,1.84766 1.174478,1.40364 1.174478,3.46614 0,3.16536 -2.177081,4.89843 -2.177081,1.73307 -6.187493,1.73307 -1.346352,0 -2.778642,-0.27214 -1.417967,-0.25781 -2.936195,-0.78775 v -2.79297 q 1.203124,0.70182 2.635414,1.05989 1.43229,0.35808 2.993486,0.35808 2.721351,0 4.139318,-1.07422 1.43229,-1.07422 1.43229,-3.12239 0,-1.89063 -1.33203,-2.95052 -1.317706,-1.07422 -3.680985,-1.07422 h -2.492185 v -2.3776 h 2.606768 q 2.134112,0 3.265621,-0.84505 1.13151,-0.85937 1.13151,-2.46354 0,-1.64713 -1.174478,-2.52083 -1.160155,-0.88802 -3.337236,-0.88802 -1.188801,0 -2.549476,0.25781 -1.360676,0.25782 -2.993486,0.80209 v -2.57813 q 1.647133,-0.45833 3.079423,-0.6875 1.446613,-0.22916 2.721351,-0.22916 3.294267,0 5.213536,1.5039 1.919268,1.48958 1.919268,4.03906 0,1.77604 -1.016925,3.00781 -1.016926,1.21745 -2.893226,1.6901 z m 17.846337,-7.33332 -7.30468,11.41535 h 7.30468 z m -0.75912,-2.52083 h 3.63802 v 13.93618 h 3.05078 v 2.40625 h -3.05078 v 5.04166 h -2.8789 v -5.04166 h -9.65364 v -2.79297 z m 29.66273,11.97394 q -1.24609,0 -1.96224,1.0599 -0.70182,1.05989 -0.70182,2.95051 0,1.86198 0.70182,2.9362 0.71615,1.05989 1.96224,1.05989 1.21745,0 1.91927,-1.05989 0.71614,-1.07422 0.71614,-2.9362 0,-1.8763 -0.71614,-2.93619 -0.70182,-1.07422 -1.91927,-1.07422 z m 0,-1.81901 q 2.26302,0 3.59505,1.57552 1.33203,1.57552 1.33203,4.2539 0,2.67838 -1.34636,4.2539 -1.33203,1.5612 -3.58072,1.5612 -2.29167,0 -3.6237,-1.5612 -1.33202,-1.57552 -1.33202,-4.2539 0,-2.6927 1.33202,-4.2539 1.34636,-1.57552 3.6237,-1.57552 z M 125.26065,336.239 q -1.23177,0 -1.94792,1.07421 -0.70182,1.0599 -0.70182,2.92188 0,1.89062 0.70182,2.95051 0.70182,1.0599 1.94792,1.0599 1.24609,0 1.94791,-1.0599 0.71615,-1.05989 0.71615,-2.95051 0,-1.84766 -0.71615,-2.92188 -0.71614,-1.07421 -1.94791,-1.07421 z m 12.93357,-1.81901 h 2.29167 l -13.37759,22.18617 h -2.29166 z m -12.93357,0 q 2.26301,0 3.60937,1.57552 1.34635,1.56119 1.34635,4.23958 0,2.70702 -1.34635,4.26822 -1.33203,1.5612 -3.60937,1.5612 -2.27735,0 -3.60938,-1.5612 -1.3177,-1.57552 -1.3177,-4.26822 0,-2.66406 1.33203,-4.23958 1.33203,-1.57552 3.59505,-1.57552 z"
     id="text51-6-9"
     style="font-size:29.3333px;line-height:1.25;fill:#e5e5e5;stroke-width:1.34674"
     aria-label="34%" />
  <rect
     style="fill:#35b996;fill-opacity:1;stroke:#e5e5e5;stroke-width:3.77952756;stroke-linecap:round;stroke-linejoin:round;stroke-miterlimit:10;stroke-dasharray:none;stroke-opacity:1"
     id="rect51-0-7-3"
     width="101.98814"
     height="65.965935"
     x="22.744705"
     y="480.27466"
     ry="31.723345" />
  <path
     d="m 50.514205,512.09026 q -1.947914,0 -3.093746,1.33203 -1.13151,1.33203 -1.13151,3.65234 0,2.30599 1.13151,3.65234 1.145832,1.33203 3.093746,1.33203 1.947914,0 3.079424,-1.33203 1.145832,-1.34635 1.145832,-3.65234 0,-2.32031 -1.145832,-3.65234 -1.13151,-1.33203 -3.079424,-1.33203 z m 5.743483,-9.06639 v 2.63541 q -1.08854,-0.51562 -2.205727,-0.78776 -1.102863,-0.27213 -2.191403,-0.27213 -2.86458,0 -4.382808,1.93359 -1.503904,1.93359 -1.718748,5.84374 0.845051,-1.24609 2.119789,-1.90494 1.274738,-0.67318 2.807289,-0.67318 3.222652,0 5.084629,1.96224 1.8763,1.94791 1.8763,5.31379 0,3.29427 -1.947914,5.28515 -1.947915,1.99089 -5.18489,1.99089 -3.709631,0 -5.671869,-2.83594 -1.962237,-2.85025 -1.962237,-8.24999 0,-5.0703 2.406247,-8.07811 2.406248,-3.02214 6.459628,-3.02214 1.088541,0 2.191404,0.21485 1.117186,0.21484 2.32031,0.64453 z m 14.3229,2.04817 -7.304679,11.41535 h 7.304679 z m -0.759114,-2.52083 h 3.638017 v 13.93618 h 3.050778 v 2.40625 h -3.050778 v 5.04166 h -2.878903 v -5.04166 h -9.653635 v -2.79296 z M 99.4842,514.52516 q -1.246092,0 -1.962237,1.05989 -0.701822,1.0599 -0.701822,2.95052 0,1.86198 0.701822,2.93619 0.716145,1.0599 1.962237,1.0599 1.21745,0 1.91927,-1.0599 0.71614,-1.07421 0.71614,-2.93619 0,-1.8763 -0.71614,-2.9362 -0.70182,-1.07421 -1.91927,-1.07421 z m 0,-1.81901 q 2.26302,0 3.59505,1.57552 1.33203,1.57552 1.33203,4.2539 0,2.67838 -1.34635,4.2539 -1.33203,1.5612 -3.58073,1.5612 -2.291664,0 -3.623693,-1.5612 -1.33203,-1.57552 -1.33203,-4.2539 0,-2.69271 1.33203,-4.2539 1.346352,-1.57552 3.623693,-1.57552 z M 84.702967,503.9835 q -1.231769,0 -1.947914,1.07422 -0.701822,1.05989 -0.701822,2.92187 0,1.89062 0.701822,2.95052 0.701822,1.05989 1.947914,1.05989 1.246093,0 1.947915,-1.05989 0.716145,-1.0599 0.716145,-2.95052 0,-1.84765 -0.716145,-2.92187 -0.716145,-1.07422 -1.947915,-1.07422 z m 12.933579,-1.81901 h 2.291664 l -13.377588,22.18618 h -2.291664 z m -12.933579,0 q 2.263019,0 3.609371,1.57552 1.346353,1.5612 1.346353,4.23958 0,2.70703 -1.346353,4.26823 -1.332029,1.56119 -3.609371,1.56119 -2.277341,0 -3.60937,-1.56119 -1.317707,-1.57552 -1.317707,-4.26823 0,-2.66406 1.332029,-4.23958 1.33203,-1.57552 3.595048,-1.57552 z"
     id="text51-6-9-6"
     style="font-size:29.3333px;line-height:1.25;fill:#e5e5e5;stroke-width:1.34674"
     aria-label="64%" />
  <rect
     style="fill:#35b996;fill-opacity:1;stroke:#e5e5e5;stroke-width:3.77952756;stroke-linecap:round;stroke-linejoin:round;stroke-miterlimit:10;stroke-dasharray:none;stroke-opacity:1"
     id="rect51-0-7-3-3"
     width="101.98814"
     height="65.965935"
     x="174.79018"
     y="521.66998"
     ry="31.723345" />
  <path
     d="m 204.77973,553.80075 q 2.07682,0.44401 3.23697,1.84766 1.17448,1.40364 1.17448,3.46614 0,3.16536 -2.17708,4.89843 -2.17708,1.73307 -6.18749,1.73307 -1.34636,0 -2.77865,-0.27213 -1.41796,-0.25781 -2.93619,-0.78776 v -2.79297 q 1.20312,0.70182 2.63541,1.0599 1.43229,0.35807 2.99349,0.35807 2.72135,0 4.13932,-1.07422 1.43229,-1.07422 1.43229,-3.12239 0,-1.89062 -1.33203,-2.95052 -1.31771,-1.07422 -3.68099,-1.07422 h -2.49218 v -2.3776 h 2.60676 q 2.13412,0 3.26563,-0.84505 1.1315,-0.85937 1.1315,-2.46354 0,-1.64713 -1.17447,-2.52083 -1.16016,-0.88802 -3.33724,-0.88802 -1.1888,0 -2.54948,0.25782 -1.36067,0.25781 -2.99348,0.80208 v -2.57812 q 1.64713,-0.45834 3.07942,-0.6875 1.44662,-0.22917 2.72135,-0.22917 3.29427,0 5.21354,1.5039 1.91927,1.48959 1.91927,4.03906 0,1.77604 -1.01693,3.00781 -1.01692,1.21745 -2.89322,1.6901 z m 16.44268,-0.3151 q -1.94791,0 -3.09374,1.33203 -1.13151,1.33203 -1.13151,3.65234 0,2.30599 1.13151,3.65234 1.14583,1.33203 3.09374,1.33203 1.94792,0 3.07943,-1.33203 1.14583,-1.34635 1.14583,-3.65234 0,-2.32031 -1.14583,-3.65234 -1.13151,-1.33203 -3.07943,-1.33203 z m 5.74349,-9.0664 v 2.63542 q -1.08854,-0.51563 -2.20573,-0.78776 -1.10286,-0.27214 -2.1914,-0.27214 -2.86458,0 -4.38281,1.93359 -1.5039,1.9336 -1.71875,5.84375 0.84505,-1.24609 2.11979,-1.90495 1.27474,-0.67317 2.80729,-0.67317 3.22265,0 5.08463,1.96223 1.8763,1.94792 1.8763,5.3138 0,3.29427 -1.94792,5.28515 -1.94791,1.99088 -5.18489,1.99088 -3.70963,0 -5.67186,-2.83593 -1.96224,-2.85026 -1.96224,-8.24999 0,-5.07031 2.40625,-8.07812 2.40624,-3.02213 6.45962,-3.02213 1.08854,0 2.19141,0.21484 1.11718,0.21485 2.32031,0.64453 z m 24.56377,11.50129 q -1.24609,0 -1.96224,1.0599 -0.70182,1.05989 -0.70182,2.95052 0,1.86197 0.70182,2.93619 0.71615,1.05989 1.96224,1.05989 1.21745,0 1.91927,-1.05989 0.71615,-1.07422 0.71615,-2.93619 0,-1.8763 -0.71615,-2.9362 -0.70182,-1.07422 -1.91927,-1.07422 z m 0,-1.81901 q 2.26302,0 3.59505,1.57552 1.33203,1.57552 1.33203,4.25391 0,2.67838 -1.34635,4.2539 -1.33203,1.56119 -3.58073,1.56119 -2.29166,0 -3.62369,-1.56119 -1.33203,-1.57552 -1.33203,-4.2539 0,-2.69271 1.33203,-4.25391 1.34635,-1.57552 3.62369,-1.57552 z m -14.78123,-8.72264 q -1.23177,0 -1.94792,1.07422 -0.70182,1.05989 -0.70182,2.92187 0,1.89062 0.70182,2.95052 0.70183,1.05989 1.94792,1.05989 1.24609,0 1.94791,-1.05989 0.71615,-1.0599 0.71615,-2.95052 0,-1.84766 -0.71615,-2.92187 -0.71614,-1.07422 -1.94791,-1.07422 z m 12.93358,-1.81901 h 2.29166 l -13.37759,22.18617 h -2.29166 z m -12.93358,0 q 2.26302,0 3.60937,1.57552 1.34635,1.5612 1.34635,4.23958 0,2.70703 -1.34635,4.26822 -1.33203,1.5612 -3.60937,1.5612 -2.27734,0 -3.60937,-1.5612 -1.31771,-1.57552 -1.31771,-4.26822 0,-2.66406 1.33203,-4.23958 1.33203,-1.57552 3.59505,-1.57552 z"
     id="text51-6-9-6-2"
     style="font-size:29.3333px;line-height:1.25;fill:#e5e5e5;stroke-width:1.34674"
     aria-label="36%" />
  <rect
     style="fill:#35b996;fill-opacity:1;stroke:#e5e5e5;stroke-width:3.77952756;stroke-linecap:round;stroke-linejoin:round;stroke-miterlimit:10;stroke-dasharray:none;stroke-opacity:1"
     id="rect51-0-7-3-3-5"
     width="101.98814"
     height="65.965935"
     x="325.72574"
     y="492.91418"
     ry="31.723345" />
  <path
     d="m 355.71541,525.04496 q 2.07682,0.44401 3.23698,1.84765 1.17447,1.40364 1.17447,3.46614 0,3.16536 -2.17708,4.89843 -2.17708,1.73307 -6.18749,1.73307 -1.34635,0 -2.77864,-0.27213 -1.41797,-0.25781 -2.9362,-0.78776 v -2.79297 q 1.20313,0.70183 2.63542,1.0599 1.43229,0.35807 2.99348,0.35807 2.72135,0 4.13932,-1.07422 1.43229,-1.07421 1.43229,-3.12239 0,-1.89062 -1.33203,-2.95052 -1.31771,-1.07421 -3.68098,-1.07421 h -2.49219 v -2.3776 h 2.60677 q 2.13411,0 3.26562,-0.84506 1.13151,-0.85937 1.13151,-2.46353 0,-1.64714 -1.17448,-2.52084 -1.16015,-0.88802 -3.33723,-0.88802 -1.18881,0 -2.54948,0.25782 -1.36068,0.25781 -2.99349,0.80208 v -2.57812 q 1.64714,-0.45834 3.07943,-0.6875 1.44661,-0.22917 2.72135,-0.22917 3.29426,0 5.21353,1.50391 1.91927,1.48958 1.91927,4.03905 0,1.77604 -1.01692,3.00781 -1.01693,1.21745 -2.89323,1.69011 z m 16.08462,-7.94921 q -2.23438,0 -3.36588,2.20572 -1.11719,2.19141 -1.11719,6.60286 0,4.39713 1.11719,6.60286 1.1315,2.1914 3.36588,2.1914 2.24869,0 3.36588,-2.1914 1.13151,-2.20573 1.13151,-6.60286 0,-4.41145 -1.13151,-6.60286 -1.11719,-2.20572 -3.36588,-2.20572 z m 0,-2.29167 q 3.59504,0 5.48567,2.85026 1.90494,2.83593 1.90494,8.24999 0,5.39973 -1.90494,8.24999 -1.89063,2.83593 -5.48567,2.83593 -3.59505,0 -5.5,-2.83593 -1.89062,-2.85026 -1.89062,-8.24999 0,-5.41406 1.89062,-8.24999 1.90495,-2.85026 5.5,-2.85026 z m 30.66533,12.36066 q -1.2461,0 -1.96224,1.0599 -0.70182,1.05989 -0.70182,2.95052 0,1.86197 0.70182,2.93619 0.71614,1.0599 1.96224,1.0599 1.21744,0 1.91926,-1.0599 0.71615,-1.07422 0.71615,-2.93619 0,-1.8763 -0.71615,-2.9362 -0.70182,-1.07422 -1.91926,-1.07422 z m 0,-1.819 q 2.26301,0 3.59504,1.57552 1.33203,1.57551 1.33203,4.2539 0,2.67838 -1.34635,4.2539 -1.33203,1.56119 -3.58072,1.56119 -2.29167,0 -3.6237,-1.56119 -1.33203,-1.57552 -1.33203,-4.2539 0,-2.69271 1.33203,-4.2539 1.34635,-1.57552 3.6237,-1.57552 z m -14.78124,-8.72265 q -1.23177,0 -1.94791,1.07422 -0.70182,1.05989 -0.70182,2.92187 0,1.89062 0.70182,2.95052 0.70182,1.05989 1.94791,1.05989 1.2461,0 1.94792,-1.05989 0.71614,-1.0599 0.71614,-2.95052 0,-1.84765 -0.71614,-2.92187 -0.71615,-1.07422 -1.94792,-1.07422 z m 12.93358,-1.81901 h 2.29167 l -13.37759,22.18617 h -2.29167 z m -12.93358,0 q 2.26302,0 3.60937,1.57552 1.34636,1.5612 1.34636,4.23958 0,2.70703 -1.34636,4.26822 -1.33203,1.5612 -3.60937,1.5612 -2.27734,0 -3.60937,-1.5612 -1.3177,-1.57552 -1.3177,-4.26822 0,-2.66406 1.33202,-4.23958 1.33203,-1.57552 3.59505,-1.57552 z"
     id="text51-6-9-6-2-4"
     style="font-size:29.3333px;line-height:1.25;fill:#e5e5e5;stroke-width:1.34674"
     aria-label="30%" />
  <rect
     style="fill:#35b996;fill-opacity:1;stroke:#e5e5e5;stroke-width:3.77952756;stroke-linecap:round;stroke-linejoin:round;stroke-miterlimit:10;stroke-dasharray:none;stroke-opacity:1"
     id="rect51-0-7-9"
     width="101.98814"
     height="65.965935"
     x="198.86128"
     y="318.6124"
     ry="31.723345" />
  <path
     d="m 226.72386,350.42803 q -1.94791,0 -3.09375,1.33203 -1.1315,1.33203 -1.1315,3.65234 0,2.30599 1.1315,3.65234 1.14584,1.33203 3.09375,1.33203 1.94792,0 3.07942,-1.33203 1.14584,-1.34635 1.14584,-3.65234 0,-2.32031 -1.14584,-3.65234 -1.1315,-1.33203 -3.07942,-1.33203 z m 5.74348,-9.06639 v 2.63541 q -1.08854,-0.51562 -2.20572,-0.78776 -1.10287,-0.27213 -2.19141,-0.27213 -2.86458,0 -4.3828,1.93359 -1.50391,1.93359 -1.71875,5.84374 0.84505,-1.24609 2.11979,-1.90494 1.27474,-0.67318 2.80729,-0.67318 3.22265,0 5.08463,1.96224 1.8763,1.94791 1.8763,5.31379 0,3.29427 -1.94792,5.28515 -1.94791,1.99089 -5.18489,1.99089 -3.70963,0 -5.67187,-2.83594 -1.96224,-2.85026 -1.96224,-8.24999 0,-5.07031 2.40625,-8.07812 2.40625,-3.02213 6.45963,-3.02213 1.08854,0 2.1914,0.21485 1.11719,0.21484 2.32031,0.64453 z m 12.91926,9.06639 q -1.94791,0 -3.09375,1.33203 -1.13151,1.33203 -1.13151,3.65234 0,2.30599 1.13151,3.65234 1.14584,1.33203 3.09375,1.33203 1.94791,0 3.07942,-1.33203 1.14584,-1.34635 1.14584,-3.65234 0,-2.32031 -1.14584,-3.65234 -1.13151,-1.33203 -3.07942,-1.33203 z m 5.74348,-9.06639 v 2.63541 q -1.08854,-0.51562 -2.20572,-0.78776 -1.10287,-0.27213 -2.19141,-0.27213 -2.86458,0 -4.38281,1.93359 -1.5039,1.93359 -1.71874,5.84374 0.84505,-1.24609 2.11979,-1.90494 1.27473,-0.67318 2.80728,-0.67318 3.22266,0 5.08463,1.96224 1.8763,1.94791 1.8763,5.31379 0,3.29427 -1.94791,5.28515 -1.94792,1.99089 -5.18489,1.99089 -3.70963,0 -5.67187,-2.83594 -1.96224,-2.85026 -1.96224,-8.24999 0,-5.07031 2.40625,-8.07812 2.40625,-3.02213 6.45963,-3.02213 1.08854,0 2.1914,0.21485 1.11719,0.21484 2.32031,0.64453 z m 24.56378,11.50129 q -1.2461,0 -1.96224,1.05989 -0.70182,1.0599 -0.70182,2.95052 0,1.86197 0.70182,2.93619 0.71614,1.0599 1.96224,1.0599 1.21744,0 1.91926,-1.0599 0.71615,-1.07422 0.71615,-2.93619 0,-1.8763 -0.71615,-2.9362 -0.70182,-1.07421 -1.91926,-1.07421 z m 0,-1.81901 q 2.26301,0 3.59504,1.57552 1.33203,1.57552 1.33203,4.2539 0,2.67838 -1.34635,4.2539 -1.33203,1.5612 -3.58072,1.5612 -2.29167,0 -3.6237,-1.5612 -1.33203,-1.57552 -1.33203,-4.2539 0,-2.69271 1.33203,-4.2539 1.34636,-1.57552 3.6237,-1.57552 z m -14.78124,-8.72265 q -1.23177,0 -1.94791,1.07422 -0.70182,1.05989 -0.70182,2.92187 0,1.89062 0.70182,2.95052 0.70182,1.05989 1.94791,1.05989 1.2461,0 1.94792,-1.05989 0.71614,-1.0599 0.71614,-2.95052 0,-1.84765 -0.71614,-2.92187 -0.71615,-1.07422 -1.94792,-1.07422 z m 12.93358,-1.81901 h 2.29167 l -13.37759,22.18618 h -2.29167 z m -12.93358,0 q 2.26302,0 3.60937,1.57552 1.34636,1.5612 1.34636,4.23958 0,2.70703 -1.34636,4.26822 -1.33203,1.5612 -3.60937,1.5612 -2.27734,0 -3.60937,-1.5612 -1.3177,-1.57551 -1.3177,-4.26822 0,-2.66406 1.33203,-4.23958 1.33202,-1.57552 3.59504,-1.57552 z"
     id="text51-6-9-7"
     style="font-size:29.3333px;line-height:1.25;fill:#e5e5e5;stroke-width:1.34674"
     aria-label="66%" />
  <rect
     style="fill:#35b996;fill-opacity:1;stroke:#e5e5e5;stroke-width:3.77952756;stroke-linecap:round;stroke-linejoin:round;stroke-miterlimit:10;stroke-dasharray:none;stroke-opacity:1"
     id="rect51-0-7-9-2"
     width="101.98814"
     height="65.965935"
     x="350.51022"
     y="333.01584"
     ry="31.723345" />
  <path
     d="m 371.85588,355.29242 h 11.35806 v 2.4349 h -8.70832 v 5.24218 q 0.63021,-0.21485 1.26041,-0.31511 0.63021,-0.11458 1.26042,-0.11458 3.58072,0 5.67187,1.96224 2.09114,1.96224 2.09114,5.31379 0,3.45182 -2.14843,5.37109 -2.14844,1.90495 -6.05859,1.90495 -1.34635,0 -2.75,-0.22917 -1.38932,-0.22917 -2.8789,-0.6875 v -2.90755 q 1.28906,0.70183 2.66406,1.04558 1.375,0.34374 2.90755,0.34374 2.47786,0 3.92447,-1.30338 1.44662,-1.30338 1.44662,-3.53776 0,-2.23437 -1.44662,-3.53775 -1.44661,-1.30339 -3.92447,-1.30339 -1.16016,0 -2.32031,0.25782 -1.14583,0.25781 -2.34896,0.80208 z m 17.90363,0 h 13.74998 v 1.23177 l -7.76301,20.15232 h -3.02213 l 7.30468,-18.94919 h -10.26952 z m 37.58329,11.97395 q -1.2461,0 -1.96224,1.05989 -0.70182,1.0599 -0.70182,2.95052 0,1.86198 0.70182,2.93619 0.71614,1.0599 1.96224,1.0599 1.21744,0 1.91927,-1.0599 0.71614,-1.07421 0.71614,-2.93619 0,-1.8763 -0.71614,-2.93619 -0.70183,-1.07422 -1.91927,-1.07422 z m 0,-1.81901 q 2.26302,0 3.59505,1.57552 1.33202,1.57552 1.33202,4.2539 0,2.67838 -1.34635,4.2539 -1.33203,1.5612 -3.58072,1.5612 -2.29167,0 -3.6237,-1.5612 -1.33203,-1.57552 -1.33203,-4.2539 0,-2.6927 1.33203,-4.2539 1.34636,-1.57552 3.6237,-1.57552 z m -14.78124,-8.72265 q -1.23177,0 -1.94791,1.07422 -0.70182,1.0599 -0.70182,2.92187 0,1.89063 0.70182,2.95052 0.70182,1.05989 1.94791,1.05989 1.2461,0 1.94792,-1.05989 0.71614,-1.05989 0.71614,-2.95052 0,-1.84765 -0.71614,-2.92187 -0.71615,-1.07422 -1.94792,-1.07422 z m 12.93358,-1.819 h 2.29167 l -13.37759,22.18617 h -2.29167 z m -12.93358,0 q 2.26302,0 3.60938,1.57551 1.34635,1.5612 1.34635,4.23958 0,2.70703 -1.34635,4.26823 -1.33203,1.56119 -3.60938,1.56119 -2.27734,0 -3.60937,-1.56119 -1.3177,-1.57552 -1.3177,-4.26823 0,-2.66406 1.33203,-4.23958 1.33203,-1.57551 3.59504,-1.57551 z"
     id="text51-6-9-7-9"
     style="font-size:29.3333px;line-height:1.25;fill:#e5e5e5;stroke-width:1.34674"
     aria-label="57%" />
  <rect
     style="fill:#35b996;fill-opacity:1;stroke:#e5e5e5;stroke-width:3.77952756;stroke-linecap:round;stroke-linejoin:round;stroke-miterlimit:10;stroke-dasharray:none;stroke-opacity:1"
     id="rect51-0-7-9-2-1"
     width="101.98814"
     height="65.965935"
     x="503.73703"
     y="304.71478"
     ry="31.723345" />
  <path
     d="m 533.00322,329.5122 -7.30468,11.41535 h 7.30468 z m -0.75911,-2.52083 h 3.63802 v 13.93618 h 3.05077 v 2.40625 h -3.05077 v 5.04166 h -2.87891 v -5.04166 h -9.65363 v -2.79297 z m 20.23826,9.85415 q 2.07682,0.44401 3.23697,1.84766 1.17448,1.40364 1.17448,3.46614 0,3.16536 -2.17708,4.89843 -2.17708,1.73307 -6.18749,1.73307 -1.34636,0 -2.77865,-0.27213 -1.41796,-0.25782 -2.93619,-0.78776 v -2.79297 q 1.20312,0.70182 2.63541,1.0599 1.43229,0.35807 2.99349,0.35807 2.72135,0 4.13932,-1.07422 1.43229,-1.07422 1.43229,-3.12239 0,-1.89062 -1.33203,-2.95052 -1.31771,-1.07422 -3.68099,-1.07422 h -2.49218 v -2.3776 h 2.60676 q 2.13412,0 3.26563,-0.84505 1.13151,-0.85937 1.13151,-2.46354 0,-1.64713 -1.17448,-2.52083 -1.16016,-0.88802 -3.33724,-0.88802 -1.1888,0 -2.54947,0.25781 -1.36068,0.25782 -2.99349,0.80209 v -2.57812 q 1.64713,-0.45834 3.07942,-0.6875 1.44662,-0.22917 2.72135,-0.22917 3.29427,0 5.21354,1.5039 1.91927,1.48959 1.91927,4.03906 0,1.77604 -1.01693,3.00781 -1.01692,1.21745 -2.89322,1.6901 z m 28.0872,2.11979 q -1.24609,0 -1.96223,1.0599 -0.70183,1.05989 -0.70183,2.95051 0,1.86198 0.70183,2.9362 0.71614,1.05989 1.96223,1.05989 1.21745,0 1.91927,-1.05989 0.71615,-1.07422 0.71615,-2.9362 0,-1.8763 -0.71615,-2.93619 -0.70182,-1.07422 -1.91927,-1.07422 z m 0,-1.81901 q 2.26302,0 3.59505,1.57552 1.33203,1.57552 1.33203,4.2539 0,2.67839 -1.34635,4.25391 -1.33203,1.56119 -3.58073,1.56119 -2.29166,0 -3.62369,-1.56119 -1.33203,-1.57552 -1.33203,-4.25391 0,-2.6927 1.33203,-4.2539 1.34635,-1.57552 3.62369,-1.57552 z m -14.78123,-8.72264 q -1.23177,0 -1.94791,1.07422 -0.70183,1.05989 -0.70183,2.92187 0,1.89062 0.70183,2.95051 0.70182,1.0599 1.94791,1.0599 1.24609,0 1.94791,-1.0599 0.71615,-1.05989 0.71615,-2.95051 0,-1.84766 -0.71615,-2.92187 -0.71614,-1.07422 -1.94791,-1.07422 z m 12.93358,-1.81901 h 2.29166 l -13.37759,22.18617 h -2.29166 z m -12.93358,0 q 2.26302,0 3.60937,1.57552 1.34635,1.56119 1.34635,4.23958 0,2.70703 -1.34635,4.26822 -1.33203,1.5612 -3.60937,1.5612 -2.27734,0 -3.60937,-1.5612 -1.31771,-1.57552 -1.31771,-4.26822 0,-2.66406 1.33203,-4.23958 1.33203,-1.57552 3.59505,-1.57552 z"
     id="text51-6-9-7-9-9"
     style="font-size:29.3333px;line-height:1.25;fill:#e5e5e5;stroke-width:1.34674"
     aria-label="43%" />
  <rect
     style="fill:#35b996;fill-opacity:1;stroke:#e5e5e5;stroke-width:3.77952756;stroke-linecap:round;stroke-linejoin:round;stroke-miterlimit:10;stroke-dasharray:none;stroke-opacity:1"
     id="rect51-0-7-3-3-5-6"
     width="101.98814"
     height="65.965935"
     x="504.54562"
     y="476.83356"
     ry="31.723345" />
  <path
     d="m 525.03912,499.11011 h 13.74998 v 1.23177 l -7.76301,20.15232 h -3.02213 l 7.30468,-18.9492 h -10.26952 z m 25.5807,1.90495 q -2.23437,0 -3.36588,2.20572 -1.11719,2.19141 -1.11719,6.60286 0,4.39713 1.11719,6.60286 1.13151,2.1914 3.36588,2.1914 2.2487,0 3.36588,-2.1914 1.13151,-2.20573 1.13151,-6.60286 0,-4.41145 -1.13151,-6.60286 -1.11718,-2.20572 -3.36588,-2.20572 z m 0,-2.29167 q 3.59505,0 5.48567,2.85026 1.90495,2.83593 1.90495,8.24999 0,5.39973 -1.90495,8.24999 -1.89062,2.83594 -5.48567,2.83594 -3.59505,0 -5.49999,-2.83594 -1.89063,-2.85026 -1.89063,-8.24999 0,-5.41406 1.89063,-8.24999 1.90494,-2.85026 5.49999,-2.85026 z m 30.66533,12.36067 q -1.24609,0 -1.96224,1.05989 -0.70182,1.0599 -0.70182,2.95052 0,1.86198 0.70182,2.93619 0.71615,1.0599 1.96224,1.0599 1.21745,0 1.91927,-1.0599 0.71614,-1.07421 0.71614,-2.93619 0,-1.8763 -0.71614,-2.9362 -0.70182,-1.07421 -1.91927,-1.07421 z m 0,-1.81901 q 2.26302,0 3.59505,1.57552 1.33203,1.57552 1.33203,4.2539 0,2.67838 -1.34636,4.2539 -1.33203,1.5612 -3.58072,1.5612 -2.29166,0 -3.62369,-1.5612 -1.33203,-1.57552 -1.33203,-4.2539 0,-2.69271 1.33203,-4.2539 1.34635,-1.57552 3.62369,-1.57552 z m -14.78123,-8.72265 q -1.23177,0 -1.94792,1.07422 -0.70182,1.05989 -0.70182,2.92187 0,1.89062 0.70182,2.95052 0.70182,1.05989 1.94792,1.05989 1.24609,0 1.94791,-1.05989 0.71615,-1.0599 0.71615,-2.95052 0,-1.84765 -0.71615,-2.92187 -0.71614,-1.07422 -1.94791,-1.07422 z m 12.93358,-1.81901 h 2.29166 l -13.37759,22.18618 h -2.29166 z m -12.93358,0 q 2.26301,0 3.60937,1.57552 1.34635,1.5612 1.34635,4.23958 0,2.70703 -1.34635,4.26823 -1.33203,1.56119 -3.60937,1.56119 -2.27734,0 -3.60937,-1.56119 -1.31771,-1.57552 -1.31771,-4.26823 0,-2.66406 1.33203,-4.23958 1.33203,-1.57552 3.59505,-1.57552 z"
     id="text51-6-9-6-2-4-9"
     style="font-size:29.3333px;line-height:1.25;fill:#e5e5e5;stroke-width:1.34674"
     aria-label="70%" />
</svg>
