<?xml version="1.0" encoding="UTF-8" standalone="no"?>
<svg
   width="166.35699mm"
   height="159.91701mm"
   version="1.1"
   id="svg94"
   sodipodi:docname="input.svg"
   inkscape:version="1.3 (0e150ed6c4, 2023-07-21)"
   inkscape:export-filename="input.pdf"
   inkscape:export-xdpi="400"
   inkscape:export-ydpi="400"
   xmlns:inkscape="http://www.inkscape.org/namespaces/inkscape"
   xmlns:sodipodi="http://sodipodi.sourceforge.net/DTD/sodipodi-0.dtd"
   xmlns="http://www.w3.org/2000/svg"
   xmlns:svg="http://www.w3.org/2000/svg">
  <sodipodi:namedview
     id="namedview96"
     pagecolor="#121212"
     bordercolor="#666666"
     borderopacity="1.0"
     inkscape:pageshadow="2"
     inkscape:pageopacity="0.0"
     inkscape:pagecheckerboard="0"
     inkscape:document-units="mm"
     showgrid="false"
     fit-margin-top="0"
     fit-margin-left="0"
     fit-margin-right="0"
     fit-margin-bottom="0"
     inkscape:zoom="0.74964544"
     inkscape:cx="425.5345"
     inkscape:cy="285.46829"
     inkscape:window-width="1920"
     inkscape:window-height="1043"
     inkscape:window-x="0"
     inkscape:window-y="0"
     inkscape:window-maximized="1"
     inkscape:current-layer="svg94"
     inkscape:showpageshadow="2"
     inkscape:deskcolor="#d1d1d1"
     showguides="true" />
  <defs
     id="defs2" />
  <rect
     style="fill:#35b996;fill-opacity:1;stroke:#e5e5e5;stroke-width:3.77952756;stroke-linecap:round;stroke-linejoin:round;stroke-miterlimit:10;stroke-dasharray:none;stroke-opacity:1"
     id="rect51-0-1"
     width="148.89687"
     height="65.965935"
     x="204.47443"
     y="279.53006"
     ry="31.723345" />
  <g
     id="text50-5-43-1-2-8-2"
     style="font-size:29.3333px;fill:#e5e5e5"
     aria-label="13.2 m2">
    <path
       style="text-align:center;text-anchor:middle"
       d="m 224.87408,322.62251 h 4.72656 v -16.31378 l -5.14193,1.03125 v -2.63542 l 5.11328,-1.03125 h 2.89323 v 18.9492 h 4.72655 v 2.43489 h -12.31769 z m 26.92705,-9.09504 q 2.07682,0.44401 3.23698,1.84765 1.17447,1.40365 1.17447,3.46614 0,3.16537 -2.17708,4.89844 -2.17708,1.73307 -6.18749,1.73307 -1.34635,0 -2.77864,-0.27214 -1.41797,-0.25781 -2.9362,-0.78776 v -2.79296 q 1.20313,0.70182 2.63542,1.05989 1.43229,0.35807 2.99348,0.35807 2.72135,0 4.13932,-1.07421 1.43229,-1.07422 1.43229,-3.1224 0,-1.89062 -1.33203,-2.95051 -1.31771,-1.07422 -3.68098,-1.07422 h -2.49219 v -2.3776 h 2.60677 q 2.13411,0 3.26562,-0.84505 1.13151,-0.85938 1.13151,-2.46354 0,-1.64713 -1.17448,-2.52083 -1.16015,-0.88802 -3.33723,-0.88802 -1.18881,0 -2.54948,0.25781 -1.36068,0.25781 -2.99349,0.80208 v -2.57812 q 1.64714,-0.45833 3.07943,-0.6875 1.44661,-0.22916 2.72135,-0.22916 3.29426,0 5.21353,1.5039 1.91927,1.48958 1.91927,4.03906 0,1.77604 -1.01692,3.00781 -1.01693,1.21744 -2.89323,1.6901 z m 9.89712,7.89192 h 3.02214 v 3.63801 h -3.02214 z m 11.8164,1.20312 h 10.09764 v 2.43489 h -13.57811 v -2.43489 q 1.64713,-1.70442 4.48307,-4.569 2.85026,-2.87891 3.58072,-3.70964 1.38933,-1.56119 1.9336,-2.63541 0.55859,-1.08854 0.55859,-2.13411 0,-1.70443 -1.20312,-2.77864 -1.18881,-1.07422 -3.10807,-1.07422 -1.36068,0 -2.87891,0.47265 -1.5039,0.47266 -3.22265,1.43229 v -2.92187 q 1.74739,-0.70182 3.26562,-1.05989 1.51823,-0.35807 2.77864,-0.35807 3.32292,0 5.29948,1.66145 1.97656,1.66146 1.97656,4.4401 0,1.31771 -0.5013,2.50651 -0.48698,1.17448 -1.79037,2.77864 -0.35807,0.41537 -2.27734,2.40625 -1.91927,1.97656 -5.41405,5.54296 z m 37.61193,-10.52733 q 0.98829,-1.77604 2.36328,-2.62109 1.375,-0.84505 3.23698,-0.84505 2.50651,0 3.86718,1.76171 1.36068,1.7474 1.36068,4.98437 v 9.68228 h -2.64974 v -9.59634 q 0,-2.30599 -0.8164,-3.42317 -0.81641,-1.11719 -2.49219,-1.11719 -2.04817,0 -3.23697,1.36068 -1.18881,1.36067 -1.18881,3.70963 v 9.06639 h -2.64973 v -9.59634 q 0,-2.32031 -0.81641,-3.42317 -0.8164,-1.11719 -2.52083,-1.11719 -2.01953,0 -3.20833,1.375 -1.1888,1.36067 -1.1888,3.69531 v 9.06639 h -2.64973 v -16.04164 h 2.64973 v 2.49218 q 0.90234,-1.47526 2.16276,-2.17708 1.26042,-0.70182 2.99349,-0.70182 1.74739,0 2.96484,0.88802 1.23177,0.88802 1.819,2.57812 z"
       id="path1" />
    <path
       style="font-size:18.6667px;baseline-shift:super"
       d="m 328.02891,311.7746 h 6.4258 v 1.54948 h -8.64064 v -1.54948 q 1.04818,-1.08464 2.85287,-2.90756 1.8138,-1.83203 2.27865,-2.36068 0.88411,-0.99349 1.23047,-1.67708 0.35547,-0.69271 0.35547,-1.35808 0,-1.08464 -0.76563,-1.76823 -0.75651,-0.6836 -1.97787,-0.6836 -0.86588,0 -1.83203,0.30079 -0.95704,0.30078 -2.05079,0.91146 v -1.85938 q 1.11198,-0.44662 2.07813,-0.67448 0.96615,-0.22787 1.76823,-0.22787 2.11459,0 3.37241,1.0573 1.25781,1.05729 1.25781,2.82552 0,0.83854 -0.31901,1.59506 -0.3099,0.74739 -1.13933,1.76823 -0.22786,0.26432 -1.44922,1.53125 -1.22135,1.25782 -3.44532,3.52735 z"
       id="path2" />
  </g>
  <rect
     style="fill:#35b996;fill-opacity:1;stroke:#e5e5e5;stroke-width:3.77952756;stroke-linecap:round;stroke-linejoin:round;stroke-miterlimit:10;stroke-dasharray:none;stroke-opacity:1"
     id="rect51-0-1-1"
     width="148.89687"
     height="65.965935"
     x="85.82019"
     y="388.75653"
     ry="31.723345" />
  <g
     id="text50-5-43-1-2-8-2-0"
     style="font-size:29.3333px;fill:#e5e5e5"
     aria-label="10.6 m2">
    <path
       style="text-align:center;text-anchor:middle"
       d="m 106.21987,431.84898 h 4.72656 V 415.5352 l -5.14192,1.03125 v -2.63542 l 5.11327,-1.03125 h 2.89323 v 18.9492 h 4.72656 v 2.43489 h -12.3177 z m 24.34893,-17.04425 q -2.23437,0 -3.36588,2.20573 -1.11718,2.1914 -1.11718,6.60285 0,4.39713 1.11718,6.60286 1.13151,2.1914 3.36588,2.1914 2.2487,0 3.36588,-2.1914 1.13151,-2.20573 1.13151,-6.60286 0,-4.41145 -1.13151,-6.60285 -1.11718,-2.20573 -3.36588,-2.20573 z m 0,-2.29166 q 3.59505,0 5.48567,2.85025 1.90495,2.83594 1.90495,8.24999 0,5.39974 -1.90495,8.24999 -1.89062,2.83594 -5.48567,2.83594 -3.59505,0 -5.49999,-2.83594 -1.89062,-2.85025 -1.89062,-8.24999 0,-5.41405 1.89062,-8.24999 1.90494,-2.85025 5.49999,-2.85025 z m 12.47525,18.13279 h 3.02213 v 3.63801 h -3.02213 z m 15.86977,-8.20702 q -1.94791,0 -3.09374,1.33203 -1.13151,1.33203 -1.13151,3.65234 0,2.30598 1.13151,3.65233 1.14583,1.33203 3.09374,1.33203 1.94792,0 3.07943,-1.33203 1.14583,-1.34635 1.14583,-3.65233 0,-2.32031 -1.14583,-3.65234 -1.13151,-1.33203 -3.07943,-1.33203 z m 5.74348,-9.0664 v 2.63541 q -1.08854,-0.51562 -2.20572,-0.78776 -1.10287,-0.27213 -2.19141,-0.27213 -2.86458,0 -4.3828,1.93359 -1.50391,1.93359 -1.71875,5.84374 0.84505,-1.24609 2.11979,-1.90494 1.27474,-0.67318 2.80729,-0.67318 3.22265,0 5.08463,1.96224 1.8763,1.94791 1.8763,5.3138 0,3.29426 -1.94792,5.28515 -1.94791,1.99088 -5.18489,1.99088 -3.70963,0 -5.67187,-2.83594 -1.96223,-2.85025 -1.96223,-8.24999 0,-5.0703 2.40624,-8.07811 2.40625,-3.02213 6.45963,-3.02213 1.08854,0 2.1914,0.21484 1.11719,0.21484 2.32031,0.64453 z m 27.81508,7.94921 q 0.98828,-1.77604 2.36328,-2.62109 1.375,-0.84505 3.23697,-0.84505 2.50651,0 3.86719,1.76171 1.36067,1.7474 1.36067,4.98437 v 9.68228 h -2.64973 v -9.59634 q 0,-2.30599 -0.81641,-3.42317 -0.81641,-1.11719 -2.49218,-1.11719 -2.04818,0 -3.23698,1.36068 -1.1888,1.36067 -1.1888,3.70963 v 9.06639 h -2.64974 v -9.59634 q 0,-2.32031 -0.8164,-3.42317 -0.81641,-1.11719 -2.52083,-1.11719 -2.01953,0 -3.20833,1.375 -1.1888,1.36068 -1.1888,3.69531 v 9.06639 h -2.64974 v -16.04164 h 2.64974 v 2.49218 q 0.90234,-1.47526 2.16275,-2.17708 1.26042,-0.70182 2.99349,-0.70182 1.74739,0 2.96484,0.88802 1.23177,0.88802 1.81901,2.57812 z"
       id="path3" />
    <path
       style="font-size:18.6667px;baseline-shift:super"
       d="m 209.37471,421.00107 h 6.42579 v 1.54948 h -8.64064 v -1.54948 q 1.04818,-1.08464 2.85287,-2.90756 1.81381,-1.83203 2.27865,-2.36068 0.88412,-0.99349 1.23047,-1.67708 0.35547,-0.69271 0.35547,-1.35808 0,-1.08464 -0.76562,-1.76823 -0.75652,-0.6836 -1.97787,-0.6836 -0.86589,0 -1.83204,0.30079 -0.95703,0.30078 -2.05078,0.91146 v -1.85938 q 1.11198,-0.44662 2.07813,-0.67448 0.96614,-0.22787 1.76823,-0.22787 2.11459,0 3.3724,1.0573 1.25782,1.05729 1.25782,2.82552 0,0.83855 -0.31902,1.59506 -0.30989,0.74739 -1.13932,1.76823 -0.22787,0.26432 -1.44922,1.53125 -1.22136,1.25782 -3.44532,3.52735 z"
       id="path4" />
  </g>
  <rect
     style="fill:#35b996;fill-opacity:1;stroke:#e5e5e5;stroke-width:3.77952756;stroke-linecap:round;stroke-linejoin:round;stroke-miterlimit:10;stroke-dasharray:none;stroke-opacity:1"
     id="rect51-0-1-1-7"
     width="148.89687"
     height="65.965935"
     x="360.92209"
     y="422.70047"
     ry="31.723345" />
  <g
     id="text50-5-43-1-2-8-2-0-7"
     style="font-size:29.3333px;fill:#e5e5e5"
     aria-label="16.1 m2">
    <path
       style="text-align:center;text-anchor:middle"
       d="m 381.32174,465.79292 h 4.72656 v -16.31378 l -5.14192,1.03125 v -2.63542 l 5.11327,-1.03125 h 2.89323 v 18.9492 h 4.72655 v 2.43489 h -12.31769 z m 24.707,-9.41014 q -1.94791,0 -3.09374,1.33202 -1.13151,1.33203 -1.13151,3.65234 0,2.30599 1.13151,3.65234 1.14583,1.33203 3.09374,1.33203 1.94792,0 3.07943,-1.33203 1.14583,-1.34635 1.14583,-3.65234 0,-2.32031 -1.14583,-3.65234 -1.13151,-1.33202 -3.07943,-1.33202 z m 5.74349,-9.0664 v 2.63541 q -1.08854,-0.51562 -2.20573,-0.78776 -1.10286,-0.27213 -2.1914,-0.27213 -2.86458,0 -4.38281,1.93359 -1.50391,1.93359 -1.71875,5.84374 0.84505,-1.24609 2.11979,-1.90494 1.27474,-0.67318 2.80729,-0.67318 3.22265,0 5.08463,1.96224 1.8763,1.94791 1.8763,5.31379 0,3.29427 -1.94792,5.28515 -1.94791,1.99089 -5.18489,1.99089 -3.70963,0 -5.67187,-2.83594 -1.96223,-2.85025 -1.96223,-8.24999 0,-5.0703 2.40624,-8.07811 2.40625,-3.02213 6.45963,-3.02213 1.08854,0 2.19141,0.21484 1.11718,0.21484 2.32031,0.64453 z m 6.37369,17.27342 h 3.02213 v 3.63801 h -3.02213 z m 9.82551,1.20312 h 4.72655 v -16.31378 l -5.14192,1.03125 v -2.63542 l 5.11328,-1.03125 h 2.89322 v 18.9492 h 4.72656 v 2.43489 h -12.31769 z m 39.60282,-10.52733 q 0.98828,-1.77604 2.36328,-2.62109 1.37499,-0.84505 3.23697,-0.84505 2.50651,0 3.86718,1.76171 1.36068,1.7474 1.36068,4.98437 v 9.68228 h -2.64974 v -9.59634 q 0,-2.30599 -0.8164,-3.42317 -0.81641,-1.11719 -2.49219,-1.11719 -2.04817,0 -3.23697,1.36068 -1.1888,1.36067 -1.1888,3.70963 v 9.06639 h -2.64974 v -9.59634 q 0,-2.32031 -0.8164,-3.42317 -0.81641,-1.11719 -2.52084,-1.11719 -2.01952,0 -3.20832,1.375 -1.18881,1.36068 -1.18881,3.69531 v 9.06639 h -2.64973 v -16.04164 h 2.64973 v 2.49218 q 0.90235,-1.47526 2.16276,-2.17708 1.26042,-0.70182 2.99349,-0.70182 1.74739,0 2.96484,0.88802 1.23177,0.88802 1.81901,2.57812 z"
       id="path5" />
    <path
       style="font-size:18.6667px;baseline-shift:super"
       d="m 484.47658,454.94501 h 6.42579 v 1.54948 h -8.64064 v -1.54948 q 1.04818,-1.08464 2.85287,-2.90756 1.8138,-1.83203 2.27865,-2.36068 0.88411,-0.99349 1.23047,-1.67708 0.35547,-0.69271 0.35547,-1.35808 0,-1.08464 -0.76563,-1.76823 -0.75651,-0.6836 -1.97787,-0.6836 -0.86588,0 -1.83203,0.30079 -0.95703,0.30078 -2.05078,0.91146 v -1.85938 q 1.11198,-0.44662 2.07812,-0.67448 0.96615,-0.22787 1.76824,-0.22787 2.11458,0 3.3724,1.0573 1.25781,1.05729 1.25781,2.82552 0,0.83854 -0.31901,1.59506 -0.30989,0.74739 -1.13932,1.76823 -0.22787,0.26432 -1.44922,1.53125 -1.22136,1.25782 -3.44532,3.52735 z"
       id="path6" />
  </g>
  <rect
     style="fill:#35b996;fill-opacity:1;stroke:#e5e5e5;stroke-width:3.77952756;stroke-linecap:round;stroke-linejoin:round;stroke-miterlimit:10;stroke-dasharray:none;stroke-opacity:1"
     id="rect51-0-1-1-7-3"
     width="148.89687"
     height="65.965935"
     x="294.61728"
     y="126.75652"
     ry="31.723345" />
  <g
     id="text50-5-43-1-2-8-2-0-7-6"
     style="font-size:29.3333px;fill:#e5e5e5"
     aria-label="30.4 m2">
    <path
       style="text-align:center;text-anchor:middle"
       d="m 323.28127,160.75394 q 2.07683,0.44401 3.23698,1.84765 1.17448,1.40365 1.17448,3.46615 0,3.16536 -2.17708,4.89843 -2.17708,1.73307 -6.1875,1.73307 -1.34635,0 -2.77864,-0.27214 -1.41797,-0.25781 -2.93619,-0.78776 v -2.79296 q 1.20312,0.70182 2.63541,1.05989 1.43229,0.35808 2.99349,0.35808 2.72135,0 4.13932,-1.07422 1.43229,-1.07422 1.43229,-3.12239 0,-1.89063 -1.33203,-2.95052 -1.31771,-1.07422 -3.68099,-1.07422 h -2.49218 v -2.3776 h 2.60676 q 2.13412,0 3.26562,-0.84505 1.13151,-0.85938 1.13151,-2.46354 0,-1.64713 -1.17447,-2.52083 -1.16016,-0.88802 -3.33724,-0.88802 -1.1888,0 -2.54948,0.25781 -1.36067,0.25781 -2.99348,0.80208 v -2.57812 q 1.64713,-0.45833 3.07942,-0.6875 1.44661,-0.22916 2.72135,-0.22916 3.29427,0 5.21354,1.5039 1.91927,1.48958 1.91927,4.03906 0,1.77604 -1.01693,3.00781 -1.01693,1.21744 -2.89323,1.6901 z m 16.08462,-7.94921 q -2.23437,0 -3.36588,2.20573 -1.11719,2.1914 -1.11719,6.60285 0,4.39713 1.11719,6.60286 1.13151,2.1914 3.36588,2.1914 2.2487,0 3.36588,-2.1914 1.13151,-2.20573 1.13151,-6.60286 0,-4.41145 -1.13151,-6.60285 -1.11718,-2.20573 -3.36588,-2.20573 z m 0,-2.29166 q 3.59505,0 5.48567,2.85025 1.90495,2.83594 1.90495,8.24999 0,5.39974 -1.90495,8.24999 -1.89062,2.83594 -5.48567,2.83594 -3.59505,0 -5.49999,-2.83594 -1.89063,-2.85025 -1.89063,-8.24999 0,-5.41405 1.89063,-8.24999 1.90494,-2.85025 5.49999,-2.85025 z m 12.47525,18.13279 h 3.02213 v 3.63801 h -3.02213 z m 17.27341,-15.22525 -7.30467,11.41536 h 7.30467 z m -0.75911,-2.52083 h 3.63802 v 13.93619 h 3.05077 v 2.40624 h -3.05077 v 5.04166 h -2.87891 v -5.04166 h -9.65363 v -2.79296 z m 32.91403,8.42187 q 0.98828,-1.77604 2.36328,-2.62109 1.375,-0.84505 3.23697,-0.84505 2.50651,0 3.86719,1.76171 1.36067,1.7474 1.36067,4.98437 v 9.68228 h -2.64974 v -9.59634 q 0,-2.30599 -0.8164,-3.42317 -0.81641,-1.11719 -2.49219,-1.11719 -2.04817,0 -3.23697,1.36068 -1.1888,1.36067 -1.1888,3.70963 v 9.06639 h -2.64974 v -9.59634 q 0,-2.32031 -0.8164,-3.42317 -0.81641,-1.11719 -2.52083,-1.11719 -2.01953,0 -3.20833,1.375 -1.1888,1.36068 -1.1888,3.69531 v 9.06639 h -2.64974 v -16.04164 h 2.64974 v 2.49218 q 0.90234,-1.47526 2.16275,-2.17708 1.26042,-0.70182 2.99349,-0.70182 1.74739,0 2.96484,0.88802 1.23177,0.88802 1.81901,2.57812 z"
       id="path7" />
    <path
       style="font-size:18.6667px;baseline-shift:super"
       d="m 418.1718,159.00107 h 6.42579 v 1.54948 h -8.64064 v -1.54948 q 1.04818,-1.08464 2.85287,-2.90756 1.81381,-1.83203 2.27865,-2.36068 0.88412,-0.99349 1.23047,-1.67708 0.35547,-0.69271 0.35547,-1.35808 0,-1.08464 -0.76563,-1.76823 -0.75651,-0.6836 -1.97786,-0.6836 -0.86589,0 -1.83204,0.30079 -0.95703,0.30078 -2.05078,0.91146 v -1.85938 q 1.11198,-0.44662 2.07812,-0.67448 0.96615,-0.22787 1.76824,-0.22787 2.11458,0 3.3724,1.0573 1.25781,1.05729 1.25781,2.82552 0,0.83855 -0.31901,1.59506 -0.30989,0.74739 -1.13932,1.76823 -0.22787,0.26432 -1.44922,1.53125 -1.22136,1.25782 -3.44532,3.52735 z"
       id="path8" />
  </g>
  <rect
     style="fill:#35b996;fill-opacity:1;stroke:#e5e5e5;stroke-width:3.77952756;stroke-linecap:round;stroke-linejoin:round;stroke-miterlimit:10;stroke-dasharray:none;stroke-opacity:1"
     id="rect51-0-1-1-5"
     width="128.31551"
     height="65.965935"
     x="415.03363"
     y="249.71484"
     ry="32.982967" />
  <g
     id="text50-5-43-1-2-8-2-0-9"
     style="font-size:29.3333px;fill:#e5e5e5"
     aria-label="7.5 m2">
    <path
       style="text-align:center;text-anchor:middle"
       d="m 433.11653,273.89978 h 13.74999 v 1.23177 l -7.76302,20.15232 h -3.02213 l 7.30468,-18.94919 h -10.26952 z m 19.39321,17.74608 h 3.02213 v 3.63801 h -3.02213 z m 9.35285,-17.74608 h 11.35806 v 2.4349 h -8.70832 v 5.24218 q 0.6302,-0.21484 1.26041,-0.3151 0.63021,-0.11459 1.26042,-0.11459 3.58072,0 5.67187,1.96224 2.09114,1.96224 2.09114,5.3138 0,3.45181 -2.14844,5.37108 -2.14843,1.90495 -6.05858,1.90495 -1.34635,0 -2.75,-0.22917 -1.38932,-0.22916 -2.8789,-0.6875 v -2.90755 q 1.28906,0.70183 2.66406,1.04558 1.375,0.34375 2.90755,0.34375 2.47786,0 3.92447,-1.30339 1.44661,-1.30338 1.44661,-3.53775 0,-2.23438 -1.44661,-3.53776 -1.44661,-1.30338 -3.92447,-1.30338 -1.16016,0 -2.32031,0.25781 -1.14584,0.25781 -2.34896,0.80208 z m 40.07547,8.42187 q 0.98828,-1.77604 2.36328,-2.62109 1.375,-0.84505 3.23698,-0.84505 2.50651,0 3.86718,1.76171 1.36068,1.7474 1.36068,4.98437 v 9.68228 h -2.64974 v -9.59634 q 0,-2.30599 -0.8164,-3.42317 -0.81641,-1.11719 -2.49219,-1.11719 -2.04817,0 -3.23697,1.36068 -1.18881,1.36067 -1.18881,3.70963 v 9.06639 h -2.64973 v -9.59634 q 0,-2.32031 -0.81641,-3.42317 -0.8164,-1.11719 -2.52083,-1.11719 -2.01953,0 -3.20833,1.375 -1.1888,1.36068 -1.1888,3.69531 v 9.06639 h -2.64973 v -16.04164 h 2.64973 v 2.49218 q 0.90234,-1.47526 2.16276,-2.17708 1.26041,-0.70182 2.99349,-0.70182 1.74739,0 2.96484,0.88802 1.23177,0.88802 1.819,2.57812 z"
       id="path9" />
    <path
       style="font-size:18.6667px;baseline-shift:super"
       d="m 518.8404,282.00107 h 6.42579 v 1.54948 h -8.64064 v -1.54948 q 1.04818,-1.08464 2.85287,-2.90756 1.81381,-1.83203 2.27865,-2.36068 0.88412,-0.99349 1.23047,-1.67708 0.35547,-0.69271 0.35547,-1.35808 0,-1.08464 -0.76562,-1.76823 -0.75651,-0.6836 -1.97787,-0.6836 -0.86589,0 -1.83204,0.30079 -0.95703,0.30078 -2.05078,0.91146 v -1.85938 q 1.11198,-0.44662 2.07813,-0.67448 0.96615,-0.22787 1.76823,-0.22787 2.11459,0 3.3724,1.0573 1.25782,1.05729 1.25782,2.82552 0,0.83855 -0.31901,1.59506 -0.3099,0.74739 -1.13933,1.76823 -0.22786,0.26432 -1.44922,1.53125 -1.22136,1.25782 -3.44532,3.52735 z"
       id="path10" />
  </g>
  <rect
     style="fill:#35b996;fill-opacity:1;stroke:#e5e5e5;stroke-width:3.77952756;stroke-linecap:round;stroke-linejoin:round;stroke-miterlimit:10;stroke-dasharray:none;stroke-opacity:1"
     id="rect51-0-1-1-5-7"
     width="128.31551"
     height="65.965935"
     x="84.207703"
     y="184.75655"
     ry="32.982967" />
  <g
     id="text50-5-43-1-2-8-2-0-9-1"
     style="font-size:29.3333px;fill:#e5e5e5"
     aria-label="6.9 m2">
    <path
       style="text-align:center;text-anchor:middle"
       d="m 109.5667,218.48055 q -1.94792,0 -3.09375,1.33203 -1.13151,1.33203 -1.13151,3.65234 0,2.30599 1.13151,3.65234 1.14583,1.33203 3.09375,1.33203 1.94791,0 3.07942,-1.33203 1.14583,-1.34635 1.14583,-3.65234 0,-2.32031 -1.14583,-3.65234 -1.13151,-1.33203 -3.07942,-1.33203 z m 5.74348,-9.06639 v 2.63541 q -1.08854,-0.51562 -2.20573,-0.78776 -1.10286,-0.27213 -2.1914,-0.27213 -2.86458,0 -4.38281,1.93359 -1.5039,1.93359 -1.71875,5.84374 0.84506,-1.24609 2.11979,-1.90494 1.27474,-0.67318 2.80729,-0.67318 3.22265,0 5.08463,1.96224 1.8763,1.94791 1.8763,5.31379 0,3.29427 -1.94791,5.28515 -1.94792,1.99089 -5.18489,1.99089 -3.70963,0 -5.67187,-2.83594 -1.96224,-2.85026 -1.96224,-8.24999 0,-5.07031 2.40625,-8.07811 2.40625,-3.02214 6.45963,-3.02214 1.08854,0 2.1914,0.21485 1.11719,0.21484 2.32031,0.64453 z m 6.37369,17.27342 h 3.02213 v 3.63801 h -3.02213 z m 9.41015,3.194 v -2.63541 q 1.08854,0.51562 2.20572,0.78776 1.11719,0.27213 2.19141,0.27213 2.86458,0 4.36848,-1.91927 1.51823,-1.93359 1.73307,-5.85806 -0.83073,1.23177 -2.10546,1.89062 -1.27474,0.65885 -2.82162,0.65885 -3.20833,0 -5.08463,-1.93359 -1.86197,-1.94791 -1.86197,-5.31379 0,-3.29427 1.94791,-5.28515 1.94792,-1.99089 5.18489,-1.99089 3.70963,0 5.65755,2.85026 1.96223,2.83594 1.96223,8.24999 0,5.05599 -2.40624,8.07812 -2.39193,3.00781 -6.44531,3.00781 -1.08854,0 -2.20572,-0.21485 -1.11719,-0.21484 -2.32031,-0.64453 z m 5.7578,-9.06639 q 1.94792,0 3.07942,-1.33203 1.14584,-1.33203 1.14584,-3.65234 0,-2.30599 -1.14584,-3.63802 -1.1315,-1.34635 -3.07942,-1.34635 -1.94791,0 -3.09374,1.34635 -1.13151,1.33203 -1.13151,3.63802 0,2.32031 1.13151,3.65234 1.14583,1.33203 3.09374,1.33203 z m 34.26038,-3.45182 q 0.98828,-1.77604 2.36328,-2.62109 1.37499,-0.84505 3.23697,-0.84505 2.50651,0 3.86718,1.76171 1.36068,1.7474 1.36068,4.98437 v 9.68228 h -2.64974 v -9.59634 q 0,-2.30599 -0.8164,-3.42317 -0.81641,-1.11719 -2.49219,-1.11719 -2.04817,0 -3.23697,1.36068 -1.1888,1.36067 -1.1888,3.70963 v 9.06639 h -2.64974 v -9.59634 q 0,-2.32031 -0.8164,-3.42317 -0.81641,-1.11719 -2.52083,-1.11719 -2.01953,0 -3.20833,1.375 -1.1888,1.36067 -1.1888,3.69531 v 9.06639 h -2.64974 v -16.04165 h 2.64974 v 2.49219 q 0.90234,-1.47526 2.16275,-2.17708 1.26042,-0.70182 2.99349,-0.70182 1.74739,0 2.96484,0.88802 1.23177,0.88802 1.81901,2.57812 z"
       id="path11" />
    <path
       style="font-size:18.6667px;baseline-shift:super"
       d="m 188.01454,217.04279 h 6.42579 v 1.54948 h -8.64064 v -1.54948 q 1.04818,-1.08464 2.85287,-2.90756 1.8138,-1.83203 2.27865,-2.36068 0.88411,-0.99349 1.23047,-1.67709 0.35547,-0.6927 0.35547,-1.35807 0,-1.08464 -0.76563,-1.76823 -0.75651,-0.6836 -1.97787,-0.6836 -0.86588,0 -1.83203,0.30078 -0.95703,0.30079 -2.05079,0.91146 v -1.85937 q 1.11198,-0.44662 2.07813,-0.67448 0.96615,-0.22787 1.76823,-0.22787 2.11459,0 3.37241,1.05729 1.25781,1.0573 1.25781,2.82553 0,0.83854 -0.31901,1.59505 -0.3099,0.7474 -1.13932,1.76824 -0.22787,0.26432 -1.44923,1.53125 -1.22135,1.25781 -3.44531,3.52735 z"
       id="path12" />
  </g>
</svg>
