<?xml version="1.0" encoding="UTF-8" standalone="no"?>
<svg
   width="166.35699mm"
   height="159.91701mm"
   version="1.1"
   id="svg94"
   sodipodi:docname="iteration_2.svg"
   inkscape:version="1.3 (0e150ed6c4, 2023-07-21)"
   inkscape:export-filename="iteration_2.pdf"
   inkscape:export-xdpi="400"
   inkscape:export-ydpi="400"
   xmlns:inkscape="http://www.inkscape.org/namespaces/inkscape"
   xmlns:sodipodi="http://sodipodi.sourceforge.net/DTD/sodipodi-0.dtd"
   xmlns="http://www.w3.org/2000/svg"
   xmlns:svg="http://www.w3.org/2000/svg">
  <sodipodi:namedview
     id="namedview96"
     pagecolor="#121212"
     bordercolor="#666666"
     borderopacity="1.0"
     inkscape:pageshadow="2"
     inkscape:pageopacity="0.0"
     inkscape:pagecheckerboard="0"
     inkscape:document-units="mm"
     showgrid="false"
     fit-margin-top="0"
     fit-margin-left="0"
     fit-margin-right="0"
     fit-margin-bottom="0"
     inkscape:zoom="0.89571168"
     inkscape:cx="394.10003"
     inkscape:cy="331.57991"
     inkscape:window-width="1920"
     inkscape:window-height="1043"
     inkscape:window-x="0"
     inkscape:window-y="0"
     inkscape:window-maximized="1"
     inkscape:current-layer="svg94"
     inkscape:showpageshadow="2"
     inkscape:deskcolor="#d1d1d1"
     showguides="true" />
  <defs
     id="defs2" />
  <path
     id="path10"
     style="fill:#35b996;stroke:#e5e5e5;stroke-width:3.77952756;stroke-linecap:round;stroke-linejoin:round;stroke-miterlimit:10;stroke-dasharray:none;fill-opacity:1;stroke-opacity:1"
     d="m 7.108109,30.70657 262.639511,-9.5775 v 135.2923 H 29.563496 Z"
     sodipodi:nodetypes="ccccc" />
  <path
     id="path11"
     style="fill:#35b996;stroke:#e5e5e5;stroke-width:3.77952756;stroke-linecap:round;stroke-linejoin:round;stroke-miterlimit:10;stroke-dasharray:none;fill-opacity:1;stroke-opacity:1"
     d="M 29.563495,156.42137 H 269.74762 V 494.1577 L 77.178279,422.9893 Z"
     sodipodi:nodetypes="ccccc" />
  <path
     id="path12"
     style="fill:#35b996;stroke:#e5e5e5;stroke-width:3.77952756;stroke-linecap:round;stroke-linejoin:round;stroke-miterlimit:10;stroke-dasharray:none;fill-opacity:1;stroke-opacity:1"
     d="M 269.74762,21.12907 620.23964,8.34787 584.33576,302.7499 H 269.74762 Z"
     sodipodi:nodetypes="ccccc" />
  <path
     id="path13"
     style="fill:#35b996;stroke:#e5e5e5;stroke-width:3.77952756;stroke-linecap:round;stroke-linejoin:round;stroke-miterlimit:10;stroke-dasharray:none;fill-opacity:1;stroke-opacity:1"
     d="M 269.74762,302.7499 H 584.33575 L 548.43187,597.1519 269.74762,494.1577 Z"
     sodipodi:nodetypes="ccccc" />
  <path
     d="m 139.15035,274.06146 q -1.55833,0 -2.47499,1.06562 -0.90521,1.06562 -0.90521,2.92187 0,1.84479 0.90521,2.92187 0.91666,1.06562 2.47499,1.06562 1.55833,0 2.46354,-1.06562 0.91666,-1.07708 0.91666,-2.92187 0,-1.85625 -0.91666,-2.92187 -0.90521,-1.06562 -2.46354,-1.06562 z m 4.59478,-7.2531 v 2.10832 q -0.87083,-0.4125 -1.76458,-0.6302 -0.88229,-0.21771 -1.75312,-0.21771 -2.29166,0 -3.50624,1.54687 -1.20312,1.54687 -1.37499,4.67499 0.67604,-0.99688 1.69583,-1.52396 1.01978,-0.53854 2.24582,-0.53854 2.57812,0 4.0677,1.56979 1.50104,1.55833 1.50104,4.25103 0,2.63541 -1.55833,4.22811 -1.55833,1.59271 -4.14791,1.59271 -2.9677,0 -4.53748,-2.26875 -1.56979,-2.2802 -1.56979,-6.59998 0,-4.05624 1.92499,-6.46248 1.925,-2.4177 5.1677,-2.4177 0.87083,0 1.75312,0.17187 0.89374,0.17188 1.85624,0.51563 z m 10.33539,7.2531 q -1.55833,0 -2.47499,1.06562 -0.90521,1.06562 -0.90521,2.92187 0,1.84479 0.90521,2.92187 0.91666,1.06562 2.47499,1.06562 1.55833,0 2.46353,-1.06562 0.91667,-1.07708 0.91667,-2.92187 0,-1.85625 -0.91667,-2.92187 -0.9052,-1.06562 -2.46353,-1.06562 z m 4.59478,-7.2531 v 2.10832 q -0.87083,-0.4125 -1.76458,-0.6302 -0.88229,-0.21771 -1.75312,-0.21771 -2.29166,0 -3.50624,1.54687 -1.20312,1.54687 -1.375,4.67499 0.67604,-0.99688 1.69583,-1.52396 1.01979,-0.53854 2.24583,-0.53854 2.57812,0 4.0677,1.56979 1.50103,1.55833 1.50103,4.25103 0,2.63541 -1.55833,4.22811 -1.55833,1.59271 -4.1479,1.59271 -2.9677,0 -4.53749,-2.26875 -1.56979,-2.2802 -1.56979,-6.59998 0,-4.05624 1.925,-6.46248 1.92499,-2.4177 5.16769,-2.4177 0.87083,0 1.75312,0.17187 0.89375,0.17188 1.85625,0.51563 z m 19.65098,9.20101 q -0.99687,0 -1.56978,0.84792 -0.56146,0.84791 -0.56146,2.36041 0,1.48958 0.56146,2.34895 0.57291,0.84791 1.56978,0.84791 0.97396,0 1.53542,-0.84791 0.57291,-0.85937 0.57291,-2.34895 0,-1.50104 -0.57291,-2.34896 -0.56146,-0.85937 -1.53542,-0.85937 z m 0,-1.4552 q 1.81042,0 2.87604,1.26041 1.06562,1.26041 1.06562,3.40312 0,2.1427 -1.07708,3.40311 -1.06562,1.24896 -2.86458,1.24896 -1.83332,0 -2.89895,-1.24896 -1.06562,-1.26041 -1.06562,-3.40311 0,-2.15416 1.06562,-3.40312 1.07708,-1.26041 2.89895,-1.26041 z m -11.82496,-6.97811 q -0.98542,0 -1.55833,0.85937 -0.56146,0.84792 -0.56146,2.3375 0,1.51249 0.56146,2.36041 0.56145,0.84791 1.55833,0.84791 0.99687,0 1.55833,-0.84791 0.57291,-0.84792 0.57291,-2.36041 0,-1.47812 -0.57291,-2.3375 -0.57292,-0.85937 -1.55833,-0.85937 z m 10.34684,-1.4552 h 1.83333 l -10.70205,17.74891 h -1.83333 z m -10.34684,0 q 1.81041,0 2.88749,1.26041 1.07708,1.24896 1.07708,3.39166 0,2.16562 -1.07708,3.41457 -1.06562,1.24896 -2.88749,1.24896 -1.82187,0 -2.88749,-1.24896 -1.05417,-1.26041 -1.05417,-3.41457 0,-2.13125 1.06562,-3.39166 1.06563,-1.26041 2.87604,-1.26041 z"
     id="text51-6-9-7-6"
     style="font-size:23.4666px;line-height:1.25;fill:#e5e5e5;stroke-width:1.07739"
     aria-label="66%" />
  <path
     d="m 121.62423,73.7992 q 1.66146,0.355207 2.58958,1.478121 0.93958,1.122913 0.93958,2.772909 0,2.532284 -1.74166,3.918739 -1.74166,1.386454 -4.94999,1.386454 -1.07708,0 -2.22291,-0.217708 -1.13437,-0.206249 -2.34895,-0.630206 V 80.27314 q 0.9625,0.561457 2.10833,0.847914 1.14583,0.286458 2.39478,0.286458 2.17708,0 3.31145,-0.859373 1.14583,-0.859372 1.14583,-2.497909 0,-1.512496 -1.06562,-2.36041 -1.05416,-0.859373 -2.94478,-0.859373 h -1.99375 v -1.902078 h 2.08541 q 1.70729,0 2.6125,-0.67604 0.9052,-0.687498 0.9052,-1.970827 0,-1.317705 -0.93958,-2.016661 -0.92812,-0.710415 -2.66978,-0.710415 -0.95104,0 -2.03958,0.206249 -1.08854,0.20625 -2.39479,0.641665 v -2.062494 q 1.31771,-0.366666 2.46354,-0.549998 1.15729,-0.183333 2.17708,-0.183333 2.63541,0 4.17082,1.203121 1.53541,1.191664 1.53541,3.231241 0,1.42083 -0.81354,2.406244 -0.81354,0.973955 -2.31458,1.352079 z m 14.27705,-5.86665 -5.84374,9.132266 h 5.84374 z m -0.60729,-2.016661 h 2.91041 v 11.148927 h 2.44061 v 1.924994 h -2.44061 v 4.033322 h -2.30312 V 78.98981 h -7.7229 v -2.234368 z m 23.73014,9.57914 q -0.99687,0 -1.56979,0.847914 -0.56145,0.847914 -0.56145,2.36041 0,1.489579 0.56145,2.348952 0.57292,0.847914 1.56979,0.847914 0.97395,0 1.53541,-0.847914 0.57292,-0.859373 0.57292,-2.348952 0,-1.501038 -0.57292,-2.348952 -0.56146,-0.859372 -1.53541,-0.859372 z m 0,-1.455205 q 1.81041,0 2.87603,1.260413 1.06562,1.260414 1.06562,3.403116 0,2.142702 -1.07708,3.403115 -1.06562,1.248955 -2.86457,1.248955 -1.83333,0 -2.89895,-1.248955 -1.06562,-1.260413 -1.06562,-3.403115 0,-2.154161 1.06562,-3.403116 1.07708,-1.260413 2.89895,-1.260413 z m -11.82497,-6.978105 q -0.98541,0 -1.55833,0.859373 -0.56145,0.847914 -0.56145,2.337493 0,1.512496 0.56145,2.36041 0.56146,0.847914 1.55833,0.847914 0.99687,0 1.55833,-0.847914 0.57292,-0.847914 0.57292,-2.36041 0,-1.478121 -0.57292,-2.337493 -0.57291,-0.859373 -1.55833,-0.859373 z m 10.34685,-1.455204 h 1.83333 l -10.70206,17.748908 h -1.83332 z m -10.34685,0 q 1.81041,0 2.88749,1.260413 1.07708,1.248955 1.07708,3.391657 0,2.165619 -1.07708,3.414574 -1.06562,1.248955 -2.88749,1.248955 -1.82187,0 -2.88749,-1.248955 -1.05416,-1.260413 -1.05416,-3.414574 0,-2.131244 1.06562,-3.391657 1.06562,-1.260413 2.87603,-1.260413 z"
     id="text51-6-9-2"
     style="font-size:23.4666px;line-height:1.25;fill:#e5e5e5;stroke-width:1.07739"
     aria-label="34%" />
  <path
     d="m 409.18896,130.68957 h 9.08643 v 1.94791 h -6.96664 v 4.19374 q 0.50416,-0.17187 1.00833,-0.25208 0.50416,-0.0917 1.00833,-0.0917 2.86457,0 4.53749,1.56979 1.67291,1.56979 1.67291,4.25103 0,2.76145 -1.71875,4.29686 -1.71874,1.52395 -4.84686,1.52395 -1.07708,0 -2.19999,-0.18333 -1.11146,-0.18333 -2.30312,-0.55 v -2.32603 q 1.03125,0.56146 2.13124,0.83645 1.1,0.275 2.32604,0.275 1.98228,0 3.13957,-1.0427 1.15729,-1.04271 1.15729,-2.8302 0,-1.7875 -1.15729,-2.8302 -1.15729,-1.04271 -3.13957,-1.04271 -0.92812,0 -1.85625,0.20625 -0.91666,0.20625 -1.87916,0.64167 z m 14.32288,0 h 10.99997 v 0.98541 l -6.2104,16.12183 h -2.4177 l 5.84373,-15.15933 h -8.2156 z m 30.06658,9.57914 q -0.99687,0 -1.56979,0.84791 -0.56145,0.84792 -0.56145,2.36041 0,1.48958 0.56145,2.34896 0.57292,0.84791 1.56979,0.84791 0.97396,0 1.53541,-0.84791 0.57292,-0.85938 0.57292,-2.34896 0,-1.50103 -0.57292,-2.34895 -0.56145,-0.85937 -1.53541,-0.85937 z m 0,-1.4552 q 1.81041,0 2.87603,1.26041 1.06563,1.26041 1.06563,3.40311 0,2.14271 -1.07708,3.40312 -1.06563,1.24895 -2.86458,1.24895 -1.83333,0 -2.89895,-1.24895 -1.06562,-1.26041 -1.06562,-3.40312 0,-2.15416 1.06562,-3.40311 1.07708,-1.26041 2.89895,-1.26041 z m -11.82497,-6.97811 q -0.98541,0 -1.55833,0.85937 -0.56145,0.84792 -0.56145,2.3375 0,1.51249 0.56145,2.36041 0.56146,0.84791 1.55833,0.84791 0.99688,0 1.55833,-0.84791 0.57292,-0.84792 0.57292,-2.36041 0,-1.47812 -0.57292,-2.3375 -0.57291,-0.85937 -1.55833,-0.85937 z m 10.34685,-1.4552 h 1.83333 l -10.70206,17.7489 h -1.83332 z m -10.34685,0 q 1.81041,0 2.8875,1.26041 1.07708,1.24895 1.07708,3.39166 0,2.16562 -1.07708,3.41457 -1.06563,1.24896 -2.8875,1.24896 -1.82187,0 -2.88749,-1.24896 -1.05416,-1.26041 -1.05416,-3.41457 0,-2.13125 1.06562,-3.39166 1.06562,-1.26041 2.87603,-1.26041 z"
     id="text51-6-9-7-9-7"
     style="font-size:23.4666px;line-height:1.25;fill:#e5e5e5;stroke-width:1.07739"
     aria-label="57%" />
  <path
     d="m 401.90574,389.10833 -5.84373,9.13227 h 5.84373 z m -0.60729,-2.01666 h 2.91041 v 11.14893 h 2.44062 v 1.92499 h -2.44062 v 4.03332 h -2.30312 v -4.03332 h -7.72289 v -2.23437 z m 16.19058,7.88331 q 1.66146,0.35521 2.58958,1.47812 0.93958,1.12292 0.93958,2.77291 0,2.53229 -1.74166,3.91874 -1.74166,1.38645 -4.94999,1.38645 -1.07708,0 -2.22291,-0.2177 -1.13437,-0.20625 -2.34895,-0.63021 v -2.23437 q 0.9625,0.56146 2.10833,0.84792 1.14583,0.28645 2.39478,0.28645 2.17708,0 3.31145,-0.85937 1.14583,-0.85937 1.14583,-2.49791 0,-1.51249 -1.06562,-2.36041 -1.05417,-0.85937 -2.94478,-0.85937 h -1.99375 v -1.90208 h 2.08541 q 1.70729,0 2.61249,-0.67604 0.90521,-0.6875 0.90521,-1.97083 0,-1.3177 -0.93958,-2.01666 -0.92812,-0.71041 -2.66978,-0.71041 -0.95104,0 -2.03958,0.20625 -1.08854,0.20625 -2.39479,0.64166 v -2.06249 q 1.31771,-0.36667 2.46354,-0.55 1.15729,-0.18333 2.17707,-0.18333 2.63541,0 4.17083,1.20312 1.53541,1.19166 1.53541,3.23124 0,1.42083 -0.81354,2.40624 -0.81354,0.97396 -2.31458,1.35208 z m 22.46973,1.69583 q -0.99687,0 -1.56979,0.84791 -0.56145,0.84792 -0.56145,2.36041 0,1.48958 0.56145,2.34896 0.57292,0.84791 1.56979,0.84791 0.97396,0 1.53541,-0.84791 0.57292,-0.85938 0.57292,-2.34896 0,-1.50103 -0.57292,-2.34895 -0.56145,-0.85937 -1.53541,-0.85937 z m 0,-1.4552 q 1.81041,0 2.87603,1.26041 1.06563,1.26041 1.06563,3.40311 0,2.14271 -1.07708,3.40312 -1.06563,1.24895 -2.86458,1.24895 -1.83333,0 -2.89895,-1.24895 -1.06562,-1.26041 -1.06562,-3.40312 0,-2.15416 1.06562,-3.40311 1.07708,-1.26041 2.89895,-1.26041 z m -11.82497,-6.97811 q -0.98541,0 -1.55833,0.85937 -0.56145,0.84792 -0.56145,2.3375 0,1.51249 0.56145,2.36041 0.56146,0.84791 1.55833,0.84791 0.99688,0 1.55833,-0.84791 0.57292,-0.84792 0.57292,-2.36041 0,-1.47812 -0.57292,-2.3375 -0.57291,-0.85937 -1.55833,-0.85937 z m 10.34685,-1.4552 h 1.83333 l -10.70206,17.7489 h -1.83332 z m -10.34685,0 q 1.81042,0 2.8875,1.26041 1.07708,1.24895 1.07708,3.39166 0,2.16562 -1.07708,3.41457 -1.06563,1.24895 -2.8875,1.24895 -1.82187,0 -2.88749,-1.24895 -1.05416,-1.26041 -1.05416,-3.41457 0,-2.13125 1.06562,-3.39166 1.06562,-1.26041 2.87603,-1.26041 z"
     id="text51-6-9-7-9-9-4"
     style="font-size:23.4666px;line-height:1.25;fill:#e5e5e5;stroke-width:1.07739"
     aria-label="43%" />
  <g
     id="text50-5-43-8"
     style="font-size:23.4666px;fill:#e5e5e5;stroke-width:0.8"
     aria-label="30.4 m2">
    <path
       style="text-align:center;text-anchor:middle"
       d="m 396.33434,168.97516 q 1.66145,0.35521 2.58957,1.47813 0.93958,1.12291 0.93958,2.7729 0,2.53229 -1.74166,3.91874 -1.74166,1.38646 -4.94998,1.38646 -1.07708,0 -2.22291,-0.21771 -1.13438,-0.20625 -2.34896,-0.63021 v -2.23437 q 0.9625,0.56146 2.10833,0.84792 1.14583,0.28646 2.39479,0.28646 2.17707,0 3.31145,-0.85938 1.14583,-0.85937 1.14583,-2.49791 0,-1.51249 -1.06563,-2.36041 -1.05416,-0.85937 -2.94478,-0.85937 h -1.99374 v -1.90208 h 2.08541 q 1.70728,0 2.61249,-0.67604 0.90521,-0.68749 0.90521,-1.97082 0,-1.31771 -0.93959,-2.01666 -0.92812,-0.71042 -2.66978,-0.71042 -0.95104,0 -2.03958,0.20625 -1.08854,0.20625 -2.39478,0.64166 v -2.06249 q 1.3177,-0.36667 2.46353,-0.55 1.15729,-0.18333 2.17708,-0.18333 2.63541,0 4.17082,1.20312 1.53541,1.19166 1.53541,3.23124 0,1.42083 -0.81354,2.40624 -0.81353,0.97396 -2.31457,1.35208 z m 12.86767,-6.35935 q -1.7875,0 -2.6927,1.76458 -0.89375,1.75312 -0.89375,5.28227 0,3.5177 0.89375,5.28228 0.9052,1.75312 2.6927,1.75312 1.79895,0 2.6927,-1.75312 0.90521,-1.76458 0.90521,-5.28228 0,-3.52915 -0.90521,-5.28227 -0.89375,-1.76458 -2.6927,-1.76458 z m 0,-1.83333 q 2.87603,0 4.38853,2.2802 1.52395,2.26874 1.52395,6.59998 0,4.31978 -1.52395,6.59998 -1.5125,2.26875 -4.38853,2.26875 -2.87603,0 -4.39999,-2.26875 -1.51249,-2.2802 -1.51249,-6.59998 0,-4.33124 1.51249,-6.59998 1.52396,-2.2802 4.39999,-2.2802 z m 9.98018,14.50621 h 2.4177 v 2.91041 h -2.4177 z m 13.81871,-12.18018 -5.84373,9.13227 h 5.84373 z m -0.60729,-2.01666 h 2.91041 v 11.14893 h 2.44062 v 1.92499 h -2.44062 v 4.03333 h -2.30312 v -4.03333 h -7.72289 v -2.23436 z m 26.33118,6.73748 q 0.79062,-1.42083 1.89062,-2.09686 1.09999,-0.67604 2.58957,-0.67604 2.0052,0 3.09374,1.40937 1.08854,1.39791 1.08854,3.98749 v 7.74581 h -2.11978 v -7.67706 q 0,-1.84479 -0.65313,-2.73854 -0.65312,-0.89375 -1.99374,-0.89375 -1.63854,0 -2.58958,1.08854 -0.95104,1.08854 -0.95104,2.9677 v 7.25311 h -2.11978 v -7.67706 q 0,-1.85625 -0.65313,-2.73854 -0.65312,-0.89375 -2.01666,-0.89375 -1.61562,0 -2.56666,1.1 -0.95104,1.08854 -0.95104,2.95624 v 7.25311 h -2.11978 v -12.8333 h 2.11978 v 1.99374 q 0.72188,-1.1802 1.73021,-1.74166 1.00833,-0.56145 2.39478,-0.56145 1.39792,0 2.37187,0.71041 0.98542,0.71041 1.45521,2.06249 z"
       id="path3" />
    <path
       style="font-size:14.9334px;baseline-shift:super"
       d="m 472.24665,167.57287 h 5.14064 v 1.23959 h -6.91253 v -1.23959 q 0.83855,-0.86771 2.28231,-2.32605 1.45104,-1.46564 1.82292,-1.88855 0.7073,-0.7948 0.98438,-1.34168 0.28438,-0.55417 0.28438,-1.08646 0,-0.86771 -0.61251,-1.41459 -0.60521,-0.54688 -1.5823,-0.54688 -0.69271,0 -1.46563,0.24063 -0.76563,0.24062 -1.64063,0.72917 v -1.48751 q 0.88959,-0.35729 1.66251,-0.53958 0.77292,-0.1823 1.41459,-0.1823 1.69167,0 2.69793,0.84584 1.00625,0.84584 1.00625,2.26043 0,0.67083 -0.25521,1.27604 -0.24792,0.59792 -0.91146,1.41459 -0.18229,0.21146 -1.15938,1.22501 -0.97709,1.00625 -2.75626,2.82189 z"
       id="path4" />
  </g>
  <g
     id="text50-5-43-8-8"
     style="font-size:23.4666px;fill:#e5e5e5;stroke-width:0.8"
     aria-label="23 m2">
    <path
       style="text-align:center;text-anchor:middle"
       d="m 388.59276,432.65329 h 8.0781 v 1.94791 h -10.86247 v -1.94791 q 1.31771,-1.36354 3.58645,-3.6552 2.2802,-2.30312 2.86458,-2.9677 1.11145,-1.24896 1.54687,-2.10833 0.44687,-0.87083 0.44687,-1.70729 0,-1.36353 -0.9625,-2.22291 -0.95104,-0.85937 -2.48645,-0.85937 -1.08854,0 -2.30312,0.37812 -1.20312,0.37813 -2.57811,1.14583 v -2.33749 q 1.39791,-0.56146 2.61249,-0.84791 1.21458,-0.28646 2.22291,-0.28646 2.65832,0 4.23957,1.32916 1.58125,1.32916 1.58125,3.55208 0,1.05416 -0.40105,2.0052 -0.38958,0.93958 -1.43228,2.22291 -0.28646,0.33229 -1.82187,1.92499 -1.53542,1.58125 -4.33124,4.43437 z m 19.9489,-7.27603 q 1.66146,0.35521 2.58958,1.47812 0.93958,1.12292 0.93958,2.77291 0,2.53229 -1.74166,3.91874 -1.74167,1.38646 -4.94999,1.38646 -1.07708,0 -2.22291,-0.21771 -1.13437,-0.20625 -2.34895,-0.63021 v -2.23437 q 0.9625,0.56146 2.10833,0.84792 1.14583,0.28646 2.39478,0.28646 2.17708,0 3.31145,-0.85938 1.14583,-0.85937 1.14583,-2.49791 0,-1.51249 -1.06562,-2.36041 -1.05417,-0.85937 -2.94479,-0.85937 h -1.99374 v -1.90208 h 2.08541 q 1.70729,0 2.61249,-0.67604 0.90521,-0.68749 0.90521,-1.97082 0,-1.31771 -0.93958,-2.01667 -0.92812,-0.71041 -2.66979,-0.71041 -0.95103,0 -2.03957,0.20625 -1.08854,0.20625 -2.39479,0.64166 v -2.06249 q 1.31771,-0.36667 2.46354,-0.55 1.15728,-0.18333 2.17707,-0.18333 2.63541,0 4.17083,1.20312 1.53541,1.19166 1.53541,3.23124 0,1.42083 -0.81354,2.40624 -0.81354,0.97396 -2.31458,1.35208 z m 25.07076,-1.14583 q 0.79063,-1.42083 1.89062,-2.09687 1.1,-0.67603 2.58958,-0.67603 2.0052,0 3.09374,1.40937 1.08854,1.39791 1.08854,3.98748 v 7.74582 h -2.11979 v -7.67707 q 0,-1.84478 -0.65312,-2.73853 -0.65312,-0.89375 -1.99374,-0.89375 -1.63854,0 -2.58958,1.08854 -0.95104,1.08854 -0.95104,2.9677 v 7.25311 h -2.11978 v -7.67707 q 0,-1.85624 -0.65313,-2.73853 -0.65312,-0.89375 -2.01666,-0.89375 -1.61562,0 -2.56666,1.1 -0.95104,1.08854 -0.95104,2.95624 v 7.25311 h -2.11978 v -12.8333 h 2.11978 v 1.99374 q 0.72188,-1.1802 1.73021,-1.74166 1.00833,-0.56145 2.39478,-0.56145 1.39791,0 2.37187,0.71041 0.98541,0.71041 1.4552,2.06249 z"
       id="path5" />
    <path
       style="font-size:14.9334px;baseline-shift:super"
       d="m 447.13428,423.97497 h 5.14065 v 1.23959 h -6.91253 v -1.23959 q 0.83854,-0.86772 2.2823,-2.32606 1.45105,-1.46563 1.82293,-1.88855 0.70729,-0.79479 0.98438,-1.34167 0.28437,-0.55417 0.28437,-1.08646 0,-0.86771 -0.6125,-1.41459 -0.60521,-0.54688 -1.5823,-0.54688 -0.69271,0 -1.46563,0.24063 -0.76563,0.24062 -1.64063,0.72917 v -1.48751 q 0.88958,-0.35729 1.6625,-0.53958 0.77292,-0.1823 1.41459,-0.1823 1.69168,0 2.69793,0.84584 1.00626,0.84584 1.00626,2.26043 0,0.67083 -0.25521,1.27604 -0.24792,0.59792 -0.91147,1.41459 -0.18229,0.21146 -1.15938,1.22501 -0.97708,1.00625 -2.75626,2.82189 z"
       id="path6" />
  </g>
  <g
     id="text50-5-43-1"
     style="font-size:23.4666px;fill:#e5e5e5;stroke-width:0.8"
     aria-label="10.6 m2">
    <path
       style="text-align:center;text-anchor:middle"
       d="m 94.761808,111.47751 h 3.781239 V 98.426507 l -4.11353,0.824997 v -2.108327 l 4.090614,-0.824998 h 2.314579 v 15.159331 h 3.78124 v 1.94791 H 94.761808 Z M 114.24092,97.842133 q -1.7875,0 -2.6927,1.764579 -0.89375,1.753118 -0.89375,5.282278 0,3.5177 0.89375,5.28228 0.9052,1.75312 2.6927,1.75312 1.79895,0 2.6927,-1.75312 0.90521,-1.76458 0.90521,-5.28228 0,-3.52916 -0.90521,-5.282278 -0.89375,-1.764579 -2.6927,-1.764579 z m 0,-1.833328 q 2.87603,0 4.38853,2.280202 1.52395,2.268743 1.52395,6.599983 0,4.31978 -1.52395,6.59998 -1.5125,2.26874 -4.38853,2.26874 -2.87603,0 -4.39999,-2.26874 -1.51249,-2.2802 -1.51249,-6.59998 0,-4.33124 1.51249,-6.599983 1.52396,-2.280202 4.39999,-2.280202 z m 9.98018,14.506205 h 2.4177 v 2.91041 h -2.4177 z m 12.6958,-6.5656 q -1.55833,0 -2.475,1.06562 -0.9052,1.06562 -0.9052,2.92187 0,1.84478 0.9052,2.92186 0.91667,1.06563 2.475,1.06563 1.55833,0 2.46353,-1.06563 0.91667,-1.07708 0.91667,-2.92186 0,-1.85625 -0.91667,-2.92187 -0.9052,-1.06562 -2.46353,-1.06562 z m 4.59478,-7.253107 v 2.108328 q -0.87083,-0.412499 -1.76458,-0.630207 -0.88229,-0.217708 -1.75312,-0.217708 -2.29166,0 -3.50624,1.546871 -1.20312,1.546873 -1.375,4.674983 0.67604,-0.99687 1.69583,-1.52395 1.01979,-0.53854 2.24583,-0.53854 2.57812,0 4.06769,1.56979 1.50104,1.55833 1.50104,4.25103 0,2.63541 -1.55833,4.22811 -1.55833,1.5927 -4.1479,1.5927 -2.9677,0 -4.53749,-2.26874 -1.56979,-2.2802 -1.56979,-6.59998 0,-4.05624 1.925,-6.462483 1.92499,-2.417702 5.16769,-2.417702 0.87083,0 1.75312,0.171875 0.89375,0.171874 1.85625,0.515623 z m 22.25202,6.359357 q 0.79062,-1.42083 1.89062,-2.09687 1.09999,-0.67604 2.58957,-0.67604 2.0052,0 3.09374,1.40937 1.08854,1.39792 1.08854,3.98749 v 7.74581 h -2.11978 v -7.67706 q 0,-1.84479 -0.65313,-2.73853 -0.65312,-0.89375 -1.99374,-0.89375 -1.63854,0 -2.58958,1.08854 -0.95104,1.08854 -0.95104,2.9677 v 7.2531 h -2.11978 v -7.67706 q 0,-1.85624 -0.65313,-2.73853 -0.65312,-0.89375 -2.01666,-0.89375 -1.61562,0 -2.56666,1.1 -0.95104,1.08854 -0.95104,2.95624 v 7.2531 h -2.11978 v -12.83329 h 2.11978 v 1.99374 q 0.72188,-1.18021 1.73021,-1.74166 1.00833,-0.56146 2.39478,-0.56146 1.39792,0 2.37187,0.71042 0.98542,0.71041 1.45521,2.06249 z"
       id="path1" />
    <path
       style="font-size:14.9334px;baseline-shift:super"
       d="m 177.28556,102.79919 h 5.14064 v 1.23959 h -6.91253 v -1.23959 q 0.83855,-0.86771 2.28231,-2.32605 1.45104,-1.46563 1.82292,-1.888549 0.7073,-0.794795 0.98438,-1.341673 0.28438,-0.554169 0.28438,-1.086463 0,-0.867712 -0.61251,-1.414589 -0.60521,-0.546878 -1.5823,-0.546878 -0.69271,0 -1.46563,0.240626 -0.76563,0.240626 -1.64063,0.72917 v -1.487507 q 0.88959,-0.357293 1.66251,-0.539585 0.77292,-0.182293 1.41459,-0.182293 1.69167,0 2.69793,0.845837 1.00625,0.845837 1.00625,2.260427 0,0.670836 -0.25521,1.276047 -0.24792,0.59792 -0.91146,1.41459 -0.18229,0.211459 -1.15938,1.225006 -0.97709,1.006254 -2.75626,2.821884 z"
       id="path2" />
  </g>
  <g
     id="text50-5-43-1-2"
     style="font-size:23.4666px;fill:#e5e5e5;stroke-width:0.8"
     aria-label="20.7 m2">
    <path
       style="text-align:center;text-anchor:middle"
       d="m 116.01191,311.99191 h 8.0781 v 1.94791 h -10.86247 v -1.94791 q 1.3177,-1.36354 3.58645,-3.6552 2.2802,-2.30312 2.86457,-2.9677 1.11146,-1.24895 1.54687,-2.10833 0.44688,-0.87083 0.44688,-1.70728 0,-1.36354 -0.9625,-2.22291 -0.95104,-0.85938 -2.48645,-0.85938 -1.08854,0 -2.30312,0.37813 -1.20312,0.37812 -2.57812,1.14583 v -2.3375 q 1.39791,-0.56145 2.61249,-0.84791 1.21458,-0.28646 2.22291,-0.28646 2.65833,0 4.23958,1.32916 1.58124,1.32917 1.58124,3.55208 0,1.05416 -0.40104,2.0052 -0.38958,0.93958 -1.43229,2.22291 -0.28645,0.33229 -1.82187,1.925 -1.53541,1.58124 -4.33123,4.43436 z m 17.8864,-13.63538 q -1.78749,0 -2.6927,1.76458 -0.89374,1.75312 -0.89374,5.28228 0,3.51769 0.89374,5.28227 0.90521,1.75312 2.6927,1.75312 1.79896,0 2.6927,-1.75312 0.90521,-1.76458 0.90521,-5.28227 0,-3.52916 -0.90521,-5.28228 -0.89374,-1.76458 -2.6927,-1.76458 z m 0,-1.83333 q 2.87604,0 4.38853,2.2802 1.52396,2.26875 1.52396,6.59999 0,4.31977 -1.52396,6.59998 -1.51249,2.26874 -4.38853,2.26874 -2.87603,0 -4.39998,-2.26874 -1.5125,-2.28021 -1.5125,-6.59998 0,-4.33124 1.5125,-6.59999 1.52395,-2.2802 4.39998,-2.2802 z m 9.98018,14.50621 h 2.41771 v 2.91041 h -2.41771 z m 6.87499,-14.19683 h 10.99996 v 0.98541 l -6.21039,16.12183 h -2.41771 l 5.84374,-15.15933 h -8.2156 z m 32.66761,6.73748 q 0.79062,-1.42083 1.89062,-2.09687 1.1,-0.67604 2.58958,-0.67604 2.0052,0 3.09374,1.40937 1.08854,1.39791 1.08854,3.98749 v 7.74581 h -2.11979 v -7.67706 q 0,-1.84479 -0.65312,-2.73854 -0.65313,-0.89374 -1.99375,-0.89374 -1.63853,0 -2.58957,1.08853 -0.95104,1.08854 -0.95104,2.9677 v 7.25311 h -2.11979 v -7.67706 q 0,-1.85625 -0.65312,-2.73854 -0.65312,-0.89374 -2.01666,-0.89374 -1.61562,0 -2.56666,1.09999 -0.95104,1.08854 -0.95104,2.95624 v 7.25311 h -2.11979 v -12.8333 h 2.11979 v 1.99375 q 0.72187,-1.18021 1.7302,-1.74167 1.00833,-0.56145 2.39479,-0.56145 1.39791,0 2.37187,0.71041 0.98541,0.71042 1.4552,2.0625 z"
       id="path7" />
    <path
       style="font-size:14.9334px;baseline-shift:super"
       d="m 196.94295,303.31359 h 5.14065 v 1.23959 h -6.91253 v -1.23959 q 0.83854,-0.86771 2.2823,-2.32605 1.45105,-1.46563 1.82293,-1.88855 0.70729,-0.7948 0.98437,-1.34167 0.28438,-0.55417 0.28438,-1.08647 0,-0.86771 -0.6125,-1.41459 -0.60521,-0.54688 -1.5823,-0.54688 -0.69271,0 -1.46563,0.24063 -0.76563,0.24063 -1.64063,0.72917 v -1.48751 q 0.88958,-0.35729 1.6625,-0.53958 0.77292,-0.18229 1.41459,-0.18229 1.69168,0 2.69793,0.84583 1.00626,0.84584 1.00626,2.26043 0,0.67084 -0.25521,1.27605 -0.24792,0.59792 -0.91147,1.41459 -0.18229,0.21146 -1.15938,1.225 -0.97708,1.00626 -2.75626,2.82189 z"
       id="path8" />
  </g>
</svg>
