<?xml version="1.0" encoding="UTF-8" standalone="no"?>
<svg
   width="166.35699mm"
   height="159.91701mm"
   version="1.1"
   id="svg94"
   sodipodi:docname="iteration_3.svg"
   inkscape:version="1.3 (0e150ed6c4, 2023-07-21)"
   inkscape:export-filename="iteration_3.pdf"
   inkscape:export-xdpi="400"
   inkscape:export-ydpi="400"
   xmlns:inkscape="http://www.inkscape.org/namespaces/inkscape"
   xmlns:sodipodi="http://sodipodi.sourceforge.net/DTD/sodipodi-0.dtd"
   xmlns="http://www.w3.org/2000/svg"
   xmlns:svg="http://www.w3.org/2000/svg">
  <sodipodi:namedview
     id="namedview96"
     pagecolor="#121212"
     bordercolor="#666666"
     borderopacity="1.0"
     inkscape:pageshadow="2"
     inkscape:pageopacity="0.0"
     inkscape:pagecheckerboard="0"
     inkscape:document-units="mm"
     showgrid="false"
     fit-margin-top="0"
     fit-margin-left="0"
     fit-margin-right="0"
     fit-margin-bottom="0"
     inkscape:zoom="0.89571168"
     inkscape:cx="250.08047"
     inkscape:cy="289.15555"
     inkscape:window-width="1920"
     inkscape:window-height="1043"
     inkscape:window-x="0"
     inkscape:window-y="0"
     inkscape:window-maximized="1"
     inkscape:current-layer="svg94"
     inkscape:showpageshadow="2"
     inkscape:deskcolor="#d1d1d1"
     showguides="true" />
  <defs
     id="defs2" />
  <path
     id="path20"
     style="fill:#35b996;stroke:#e5e5e5;stroke-width:3.77952756;stroke-linecap:round;stroke-linejoin:round;stroke-miterlimit:10;stroke-dasharray:none;fill-opacity:1;stroke-opacity:1"
     d="M 63.20697,340.5712 H 270.5184 v 153.701 L 77.94907,423.1038 Z"
     sodipodi:nodetypes="ccccc" />
  <path
     id="path21"
     style="fill:#35b996;stroke:#e5e5e5;stroke-width:3.77952756;stroke-linecap:round;stroke-linejoin:round;stroke-miterlimit:10;stroke-dasharray:none;fill-opacity:1;stroke-opacity:1"
     d="M 30.33429,156.5359 H 270.5184 V 340.5712 H 63.20697 Z"
     sodipodi:nodetypes="ccccc" />
  <path
     id="path22"
     style="fill:#35b996;stroke:#e5e5e5;stroke-width:3.77952756;stroke-linecap:round;stroke-linejoin:round;stroke-miterlimit:10;stroke-dasharray:none;fill-opacity:1;stroke-opacity:1"
     d="M 7.8789,30.8211 270.5184,21.2436 V 156.5359 H 30.33429 Z"
     sodipodi:nodetypes="ccccc" />
  <path
     id="path23"
     style="fill:#35b996;stroke:#e5e5e5;stroke-width:3.77952756;stroke-linecap:round;stroke-linejoin:round;stroke-miterlimit:10;stroke-dasharray:none;fill-opacity:1;stroke-opacity:1"
     d="M 270.5184,21.2436 621.0104,8.4624 585.1066,302.8644 H 270.5184 Z"
     sodipodi:nodetypes="ccccc" />
  <path
     id="path24"
     style="fill:#35b996;stroke:#e5e5e5;stroke-width:3.77952756;stroke-linecap:round;stroke-linejoin:round;stroke-miterlimit:10;stroke-dasharray:none;fill-opacity:1;stroke-opacity:1"
     d="m 270.5184,302.8644 h 103.347 v 229.6021 l -103.347,-38.1943 z"
     sodipodi:nodetypes="ccccc" />
  <path
     id="path25"
     style="fill:#35b996;stroke:#e5e5e5;stroke-width:3.77952756;stroke-linecap:round;stroke-linejoin:round;stroke-miterlimit:10;stroke-dasharray:none;fill-opacity:1;stroke-opacity:1"
     d="M 373.8654,302.8644 H 585.1065 L 549.2027,597.2664 373.8654,532.4665 Z"
     sodipodi:nodetypes="ccccc" />
  <path
     d="m 305.38836,388.6894 q 1.66146,0.35521 2.58958,1.47812 0.93958,1.12291 0.93958,2.77291 0,2.53228 -1.74166,3.91874 -1.74166,1.38645 -4.94999,1.38645 -1.07708,0 -2.22291,-0.21771 -1.13437,-0.20625 -2.34895,-0.6302 v -2.23437 q 0.9625,0.56145 2.10833,0.84791 1.14583,0.28646 2.39478,0.28646 2.17708,0 3.31145,-0.85937 1.14583,-0.85938 1.14583,-2.49791 0,-1.5125 -1.06562,-2.36041 -1.05416,-0.85938 -2.94478,-0.85938 h -1.99375 v -1.90207 h 2.08541 q 1.70729,0 2.6125,-0.67604 0.9052,-0.6875 0.9052,-1.97083 0,-1.31771 -0.93958,-2.01666 -0.92812,-0.71042 -2.66978,-0.71042 -0.95104,0 -2.03958,0.20625 -1.08854,0.20625 -2.39479,0.64167 v -2.0625 q 1.31771,-0.36666 2.46354,-0.54999 1.15729,-0.18334 2.17708,-0.18334 2.63541,0 4.17082,1.20312 1.53541,1.19167 1.53541,3.23125 0,1.42082 -0.81354,2.40624 -0.81354,0.97395 -2.31458,1.35208 z m 12.86768,-6.35936 q -1.7875,0 -2.6927,1.76458 -0.89375,1.75312 -0.89375,5.28228 0,3.51769 0.89375,5.28227 0.9052,1.75312 2.6927,1.75312 1.79895,0 2.6927,-1.75312 0.9052,-1.76458 0.9052,-5.28227 0,-3.52916 -0.9052,-5.28228 -0.89375,-1.76458 -2.6927,-1.76458 z m 0,-1.83333 q 2.87603,0 4.38853,2.2802 1.52395,2.26875 1.52395,6.59999 0,4.31978 -1.52395,6.59998 -1.5125,2.26874 -4.38853,2.26874 -2.87604,0 -4.39999,-2.26874 -1.5125,-2.2802 -1.5125,-6.59998 0,-4.33124 1.5125,-6.59999 1.52395,-2.2802 4.39999,-2.2802 z m 24.53222,9.88852 q -0.99687,0 -1.56979,0.84791 -0.56146,0.84791 -0.56146,2.36041 0,1.48958 0.56146,2.34895 0.57292,0.84792 1.56979,0.84792 0.97395,0 1.53541,-0.84792 0.57292,-0.85937 0.57292,-2.34895 0,-1.50104 -0.57292,-2.34895 -0.56146,-0.85937 -1.53541,-0.85937 z m 0,-1.45521 q 1.81041,0 2.87603,1.26042 1.06562,1.26041 1.06562,3.40311 0,2.1427 -1.07708,3.40312 -1.06562,1.24895 -2.86457,1.24895 -1.83333,0 -2.89895,-1.24895 -1.06562,-1.26042 -1.06562,-3.40312 0,-2.15416 1.06562,-3.40311 1.07708,-1.26042 2.89895,-1.26042 z m -11.82497,-6.9781 q -0.98541,0 -1.55833,0.85937 -0.56145,0.84791 -0.56145,2.33749 0,1.5125 0.56145,2.36041 0.56146,0.84792 1.55833,0.84792 0.99687,0 1.55833,-0.84792 0.57292,-0.84791 0.57292,-2.36041 0,-1.47812 -0.57292,-2.33749 -0.57291,-0.85937 -1.55833,-0.85937 z m 10.34685,-1.45521 h 1.83333 l -10.70206,17.74891 h -1.83333 z m -10.34685,0 q 1.81041,0 2.88749,1.26042 1.07708,1.24895 1.07708,3.39165 0,2.16562 -1.07708,3.41458 -1.06562,1.24895 -2.88749,1.24895 -1.82187,0 -2.88749,-1.24895 -1.05416,-1.26042 -1.05416,-3.41458 0,-2.13124 1.06562,-3.39165 1.06562,-1.26042 2.87603,-1.26042 z"
     id="text51-6-9-6-2-4-6"
     style="font-size:23.4666px;line-height:1.25;fill:#e5e5e5;stroke-width:1.07739"
     aria-label="30%" />
  <path
     d="m 162.05902,378.44575 q 1.66145,0.3552 2.58957,1.47812 0.93959,1.12291 0.93959,2.77291 0,2.53228 -1.74167,3.91873 -1.74166,1.38646 -4.94998,1.38646 -1.07708,0 -2.22291,-0.21771 -1.13437,-0.20625 -2.34895,-0.63021 v -2.23436 q 0.96249,0.56145 2.10832,0.84791 1.14583,0.28646 2.39479,0.28646 2.17707,0 3.31145,-0.85938 1.14583,-0.85937 1.14583,-2.4979 0,-1.5125 -1.06563,-2.36041 -1.05416,-0.85938 -2.94478,-0.85938 h -1.99374 v -1.90208 h 2.08541 q 1.70728,0 2.61249,-0.67604 0.90521,-0.68749 0.90521,-1.97082 0,-1.31771 -0.93958,-2.01666 -0.92813,-0.71042 -2.66979,-0.71042 -0.95104,0 -2.03958,0.20625 -1.08853,0.20625 -2.39478,0.64167 v -2.0625 q 1.3177,-0.36666 2.46353,-0.55 1.15729,-0.18333 2.17708,-0.18333 2.63541,0 4.17082,1.20312 1.53541,1.19167 1.53541,3.23124 0,1.42083 -0.81353,2.40625 -0.81354,0.97395 -2.31458,1.35208 z m 13.15413,-0.25209 q -1.55833,0 -2.47499,1.06562 -0.90521,1.06563 -0.90521,2.92187 0,1.84479 0.90521,2.92187 0.91666,1.06562 2.47499,1.06562 1.55833,0 2.46353,-1.06562 0.91667,-1.07708 0.91667,-2.92187 0,-1.85624 -0.91667,-2.92187 -0.9052,-1.06562 -2.46353,-1.06562 z m 4.59478,-7.2531 v 2.10833 q -0.87083,-0.4125 -1.76458,-0.63021 -0.88229,-0.21771 -1.75312,-0.21771 -2.29166,0 -3.50624,1.54687 -1.20312,1.54687 -1.375,4.67499 0.67604,-0.99687 1.69583,-1.52396 1.01979,-0.53854 2.24583,-0.53854 2.57812,0 4.06769,1.56979 1.50104,1.55833 1.50104,4.25103 0,2.63541 -1.55833,4.22811 -1.55833,1.59271 -4.1479,1.59271 -2.9677,0 -4.53749,-2.26875 -1.56979,-2.2802 -1.56979,-6.59998 0,-4.05624 1.925,-6.46248 1.92499,-2.4177 5.16769,-2.4177 0.87083,0 1.75312,0.17187 0.89375,0.17188 1.85625,0.51563 z m 19.65098,9.20101 q -0.99687,0 -1.56978,0.84792 -0.56146,0.84791 -0.56146,2.36041 0,1.48958 0.56146,2.34895 0.57291,0.84791 1.56978,0.84791 0.97396,0 1.53542,-0.84791 0.57291,-0.85937 0.57291,-2.34895 0,-1.50104 -0.57291,-2.34895 -0.56146,-0.85938 -1.53542,-0.85938 z m 0,-1.4552 q 1.81041,0 2.87604,1.26041 1.06562,1.26042 1.06562,3.40312 0,2.1427 -1.07708,3.40311 -1.06562,1.24896 -2.86458,1.24896 -1.83333,0 -2.89895,-1.24896 -1.06562,-1.26041 -1.06562,-3.40311 0,-2.15416 1.06562,-3.40312 1.07708,-1.26041 2.89895,-1.26041 z m -11.82496,-6.97811 q -0.98542,0 -1.55833,0.85938 -0.56146,0.84791 -0.56146,2.33749 0,1.5125 0.56146,2.36041 0.56145,0.84791 1.55833,0.84791 0.99687,0 1.55833,-0.84791 0.57291,-0.84791 0.57291,-2.36041 0,-1.47812 -0.57291,-2.33749 -0.57292,-0.85938 -1.55833,-0.85938 z m 10.34684,-1.4552 h 1.83333 l -10.70205,17.74891 h -1.83333 z m -10.34684,0 q 1.81041,0 2.88749,1.26041 1.07708,1.24896 1.07708,3.39166 0,2.16562 -1.07708,3.41457 -1.06562,1.24896 -2.88749,1.24896 -1.82187,0 -2.8875,-1.24896 -1.05416,-1.26041 -1.05416,-3.41457 0,-2.13124 1.06562,-3.39166 1.06562,-1.26041 2.87604,-1.26041 z"
     id="text51-6-9-6-2-6"
     style="font-size:23.4666px;line-height:1.25;fill:#e5e5e5;stroke-width:1.07739"
     aria-label="36%" />
  <path
     d="m 143.9211,229.3255 q -1.55832,0 -2.47499,1.06562 -0.9052,1.06562 -0.9052,2.92187 0,1.84478 0.9052,2.92186 0.91667,1.06563 2.47499,1.06563 1.55833,0 2.46354,-1.06563 0.91666,-1.07708 0.91666,-2.92186 0,-1.85625 -0.91666,-2.92187 -0.90521,-1.06562 -2.46354,-1.06562 z m 4.59478,-7.25311 v 2.10833 q -0.87083,-0.4125 -1.76458,-0.6302 -0.88228,-0.21771 -1.75312,-0.21771 -2.29166,0 -3.50624,1.54687 -1.20312,1.54687 -1.37499,4.67498 0.67604,-0.99687 1.69583,-1.52395 1.01979,-0.53854 2.24582,-0.53854 2.57812,0 4.0677,1.56979 1.50104,1.55833 1.50104,4.25103 0,2.63541 -1.55833,4.22811 -1.55833,1.5927 -4.14791,1.5927 -2.9677,0 -4.53748,-2.26874 -1.56979,-2.2802 -1.56979,-6.59998 0,-4.05624 1.92499,-6.46248 1.925,-2.4177 5.1677,-2.4177 0.87083,0 1.75312,0.17187 0.89375,0.17188 1.85624,0.51562 z m 11.4583,1.63854 -5.84373,9.13227 h 5.84373 z m -0.60729,-2.01666 h 2.91041 v 11.14893 h 2.44062 v 1.92499 h -2.44062 v 4.03332 h -2.30312 v -4.03332 h -7.72289 v -2.23437 z m 23.73015,9.57914 q -0.99688,0 -1.56979,0.84791 -0.56146,0.84792 -0.56146,2.36041 0,1.48958 0.56146,2.34896 0.57291,0.84791 1.56979,0.84791 0.97395,0 1.53541,-0.84791 0.57291,-0.85938 0.57291,-2.34896 0,-1.50103 -0.57291,-2.34895 -0.56146,-0.85937 -1.53541,-0.85937 z m 0,-1.4552 q 1.81041,0 2.87603,1.26041 1.06562,1.26041 1.06562,3.40311 0,2.14271 -1.07708,3.40312 -1.06562,1.24895 -2.86457,1.24895 -1.83333,0 -2.89895,-1.24895 -1.06563,-1.26041 -1.06563,-3.40312 0,-2.15416 1.06563,-3.40311 1.07708,-1.26041 2.89895,-1.26041 z m -11.82497,-6.97811 q -0.98541,0 -1.55833,0.85937 -0.56146,0.84792 -0.56146,2.3375 0,1.51249 0.56146,2.36041 0.56146,0.84791 1.55833,0.84791 0.99687,0 1.55833,-0.84791 0.57291,-0.84792 0.57291,-2.36041 0,-1.47812 -0.57291,-2.3375 -0.57292,-0.85937 -1.55833,-0.85937 z m 10.34684,-1.4552 h 1.83333 l -10.70205,17.7489 h -1.83333 z m -10.34684,0 q 1.81041,0 2.88749,1.26041 1.07708,1.24895 1.07708,3.39166 0,2.16562 -1.07708,3.41457 -1.06562,1.24895 -2.88749,1.24895 -1.82187,0 -2.88749,-1.24895 -1.05417,-1.26041 -1.05417,-3.41457 0,-2.13125 1.06563,-3.39166 1.06562,-1.26041 2.87603,-1.26041 z"
     id="text51-6-9-6-0"
     style="font-size:23.4666px;line-height:1.25;fill:#e5e5e5;stroke-width:1.07739"
     aria-label="64%" />
  <path
     d="m 445.01667,401.20617 h 10.99997 v 0.98542 l -6.2104,16.12183 h -2.4177 l 5.84373,-15.15934 h -8.2156 z m 20.46452,1.52396 q -1.78749,0 -2.6927,1.76457 -0.89374,1.75312 -0.89374,5.28228 0,3.5177 0.89374,5.28228 0.90521,1.75312 2.6927,1.75312 1.79896,0 2.69271,-1.75312 0.9052,-1.76458 0.9052,-5.28228 0,-3.52916 -0.9052,-5.28228 -0.89375,-1.76457 -2.69271,-1.76457 z m 0,-1.83333 q 2.87604,0 4.38853,2.2802 1.52396,2.26874 1.52396,6.59998 0,4.31978 -1.52396,6.59998 -1.51249,2.26875 -4.38853,2.26875 -2.87603,0 -4.39998,-2.26875 -1.5125,-2.2802 -1.5125,-6.59998 0,-4.33124 1.5125,-6.59998 1.52395,-2.2802 4.39998,-2.2802 z m 24.53223,9.88851 q -0.99687,0 -1.56979,0.84792 -0.56146,0.84791 -0.56146,2.36041 0,1.48958 0.56146,2.34895 0.57292,0.84791 1.56979,0.84791 0.97395,0 1.53541,-0.84791 0.57291,-0.85937 0.57291,-2.34895 0,-1.50104 -0.57291,-2.34896 -0.56146,-0.85937 -1.53541,-0.85937 z m 0,-1.4552 q 1.81041,0 2.87603,1.26041 1.06562,1.26041 1.06562,3.40312 0,2.1427 -1.07708,3.40311 -1.06562,1.24896 -2.86457,1.24896 -1.83333,0 -2.89895,-1.24896 -1.06562,-1.26041 -1.06562,-3.40311 0,-2.15416 1.06562,-3.40312 1.07708,-1.26041 2.89895,-1.26041 z M 478.18845,402.352 q -0.98541,0 -1.55833,0.85937 -0.56145,0.84792 -0.56145,2.3375 0,1.51249 0.56145,2.36041 0.56146,0.84791 1.55833,0.84791 0.99687,0 1.55833,-0.84791 0.57291,-0.84792 0.57291,-2.36041 0,-1.47812 -0.57291,-2.3375 -0.57292,-0.85937 -1.55833,-0.85937 z m 10.34685,-1.4552 h 1.83332 l -10.70205,17.74891 h -1.83333 z m -10.34685,0 q 1.81041,0 2.88749,1.26041 1.07708,1.24896 1.07708,3.39166 0,2.16562 -1.07708,3.41457 -1.06562,1.24896 -2.88749,1.24896 -1.82187,0 -2.88749,-1.24896 -1.05416,-1.26041 -1.05416,-3.41457 0,-2.13125 1.06562,-3.39166 1.06562,-1.26041 2.87603,-1.26041 z"
     id="text51-6-9-6-2-4-9-7"
     style="font-size:23.4666px;line-height:1.25;fill:#e5e5e5;stroke-width:1.07739"
     aria-label="70%" />
  <g
     id="text50-5-43-1-2-8"
     style="font-size:23.4666px;fill:#e5e5e5;stroke-width:0.8"
     aria-label="13.2 m2">
    <path
       style="text-align:center;text-anchor:middle"
       d="m 118.76019,267.25601 h 3.78124 V 254.205 l -4.11353,0.825 v -2.10833 l 4.09061,-0.82499 h 2.31458 v 15.15933 h 3.78124 v 1.94791 h -9.85414 z m 21.54161,-7.27602 q 1.66145,0.3552 2.58957,1.47812 0.93958,1.12291 0.93958,2.77291 0,2.53228 -1.74166,3.91873 -1.74166,1.38646 -4.94998,1.38646 -1.07709,0 -2.22292,-0.21771 -1.13437,-0.20625 -2.34895,-0.63021 v -2.23436 q 0.9625,0.56145 2.10833,0.84791 1.14583,0.28646 2.39479,0.28646 2.17707,0 3.31144,-0.85937 1.14583,-0.85938 1.14583,-2.49791 0,-1.5125 -1.06562,-2.36041 -1.05416,-0.85938 -2.94478,-0.85938 h -1.99375 v -1.90207 h 2.08542 q 1.70728,0 2.61249,-0.67604 0.9052,-0.6875 0.9052,-1.97083 0,-1.31771 -0.93958,-2.01666 -0.92812,-0.71042 -2.66978,-0.71042 -0.95104,0 -2.03958,0.20625 -1.08854,0.20625 -2.39478,0.64167 v -2.0625 q 1.3177,-0.36666 2.46353,-0.55 1.15729,-0.18333 2.17708,-0.18333 2.63541,0 4.17082,1.20312 1.53541,1.19167 1.53541,3.23124 0,1.42083 -0.81354,2.40625 -0.81354,0.97395 -2.31457,1.35208 z m 7.91768,6.31352 h 2.4177 v 2.91041 h -2.4177 z m 9.4531,0.9625 h 8.0781 v 1.94791 h -10.86247 v -1.94791 q 1.31771,-1.36354 3.58645,-3.6552 2.2802,-2.30312 2.86458,-2.9677 1.11145,-1.24896 1.54687,-2.10833 0.44687,-0.87083 0.44687,-1.70728 0,-1.36354 -0.9625,-2.22292 -0.95103,-0.85937 -2.48645,-0.85937 -1.08854,0 -2.30312,0.37813 -1.20312,0.37812 -2.57811,1.14583 v -2.3375 q 1.39791,-0.56145 2.61249,-0.84791 1.21458,-0.28646 2.22291,-0.28646 2.65833,0 4.23957,1.32916 1.58125,1.32917 1.58125,3.55208 0,1.05416 -0.40104,2.0052 -0.38959,0.93958 -1.43229,2.22291 -0.28646,0.33229 -1.82187,1.92499 -1.53541,1.58125 -4.33124,4.43437 z m 30.0895,-8.42185 q 0.79062,-1.42083 1.89062,-2.09687 1.09999,-0.67604 2.58957,-0.67604 2.00521,0 3.09375,1.40937 1.08853,1.39791 1.08853,3.98749 v 7.74581 h -2.11978 v -7.67706 q 0,-1.84479 -0.65313,-2.73854 -0.65312,-0.89374 -1.99374,-0.89374 -1.63854,0 -2.58958,1.08853 -0.95103,1.08854 -0.95103,2.9677 v 7.25311 h -2.11979 v -7.67706 q 0,-1.85625 -0.65312,-2.73854 -0.65313,-0.89374 -2.01666,-0.89374 -1.61562,0 -2.56666,1.09999 -0.95104,1.08854 -0.95104,2.95624 v 7.25311 h -2.11979 v -12.8333 h 2.11979 v 1.99375 q 0.72187,-1.18021 1.7302,-1.74167 1.00833,-0.56145 2.39479,-0.56145 1.39791,0 2.37186,0.71041 0.98542,0.71042 1.45521,2.0625 z"
       id="path5" />
    <path
       style="font-size:14.9334px;baseline-shift:super"
       d="m 201.28394,258.57769 h 5.14065 v 1.23959 h -6.91253 v -1.23959 q 0.83854,-0.86771 2.2823,-2.32605 1.45105,-1.46563 1.82292,-1.88855 0.7073,-0.7948 0.98438,-1.34168 0.28438,-0.55416 0.28438,-1.08646 0,-0.86771 -0.6125,-1.41459 -0.60521,-0.54688 -1.5823,-0.54688 -0.69271,0 -1.46563,0.24063 -0.76563,0.24063 -1.64064,0.72917 v -1.48751 q 0.88959,-0.35729 1.66251,-0.53958 0.77292,-0.1823 1.41459,-0.1823 1.69167,0 2.69793,0.84584 1.00625,0.84584 1.00625,2.26043 0,0.67084 -0.25521,1.27605 -0.24791,0.59792 -0.91146,1.41459 -0.18229,0.21146 -1.15938,1.225 -0.97709,1.00626 -2.75626,2.82189 z"
       id="path6" />
  </g>
  <g
     id="text50-5-43-1-2-8-6"
     style="font-size:23.4666px;fill:#e5e5e5;stroke-width:0.8"
     aria-label="7.5 m2">
    <path
       style="text-align:center;text-anchor:middle"
       d="m 142.00298,400.96478 h 10.99997 v 0.98541 l -6.2104,16.12183 h -2.4177 l 5.84373,-15.15933 h -8.2156 z m 15.51454,14.19683 h 2.4177 v 2.91041 h -2.4177 z m 7.48227,-14.19683 h 9.08644 v 1.94791 h -6.96665 v 4.19374 q 0.50416,-0.17188 1.00833,-0.25209 0.50416,-0.0917 1.00833,-0.0917 2.86457,0 4.53749,1.56979 1.67291,1.56978 1.67291,4.25103 0,2.76145 -1.71875,4.29686 -1.71874,1.52395 -4.84686,1.52395 -1.07708,0 -2.19999,-0.18333 -1.11146,-0.18333 -2.30312,-0.55 v -2.32603 q 1.03125,0.56145 2.13124,0.83645 1.1,0.275 2.32604,0.275 1.98228,0 3.13957,-1.0427 1.15729,-1.04271 1.15729,-2.8302 0,-1.7875 -1.15729,-2.83021 -1.15729,-1.0427 -3.13957,-1.0427 -0.92812,0 -1.85625,0.20625 -0.91666,0.20625 -1.87916,0.64166 z m 32.06033,6.73748 q 0.79062,-1.42083 1.89062,-2.09687 1.1,-0.67604 2.58958,-0.67604 2.0052,0 3.09374,1.40937 1.08854,1.39791 1.08854,3.98749 v 7.74581 h -2.11979 v -7.67706 q 0,-1.84479 -0.65312,-2.73853 -0.65313,-0.89375 -1.99375,-0.89375 -1.63854,0 -2.58957,1.08854 -0.95104,1.08854 -0.95104,2.9677 v 7.2531 h -2.11979 v -7.67706 q 0,-1.85624 -0.65312,-2.73853 -0.65313,-0.89375 -2.01666,-0.89375 -1.61562,0 -2.56666,1.1 -0.95104,1.08853 -0.95104,2.95624 v 7.2531 h -2.11979 v -12.8333 h 2.11979 v 1.99375 q 0.72187,-1.18021 1.7302,-1.74166 1.00833,-0.56146 2.39479,-0.56146 1.39791,0 2.37187,0.71041 0.98541,0.71042 1.4552,2.0625 z"
       id="path7" />
    <path
       style="font-size:14.9334px;baseline-shift:super"
       d="m 210.58198,407.44579 h 5.14064 v 1.23959 h -6.91253 v -1.23959 q 0.83855,-0.86771 2.28231,-2.32605 1.45104,-1.46563 1.82292,-1.88855 0.7073,-0.7948 0.98438,-1.34167 0.28438,-0.55417 0.28438,-1.08647 0,-0.86771 -0.61251,-1.41459 -0.60521,-0.54687 -1.5823,-0.54687 -0.69271,0 -1.46563,0.24062 -0.76563,0.24063 -1.64063,0.72917 v -1.4875 q 0.88959,-0.3573 1.66251,-0.53959 0.77292,-0.18229 1.41459,-0.18229 1.69167,0 2.69793,0.84584 1.00625,0.84583 1.00625,2.26042 0,0.67084 -0.25521,1.27605 -0.24792,0.59792 -0.91146,1.41459 -0.18229,0.21146 -1.15938,1.225 -0.97709,1.00626 -2.75626,2.82189 z"
       id="path8" />
  </g>
  <g
     id="text50-5-43-1-2-8-6-9"
     style="font-size:23.4666px;fill:#e5e5e5;stroke-width:0.8"
     aria-label="6.9 m2">
    <path
       style="text-align:center;text-anchor:middle"
       d="m 291.29609,418.83966 q -1.55833,0 -2.47499,1.06562 -0.90521,1.06562 -0.90521,2.92187 0,1.84478 0.90521,2.92186 0.91666,1.06563 2.47499,1.06563 1.55833,0 2.46353,-1.06563 0.91667,-1.07708 0.91667,-2.92186 0,-1.85625 -0.91667,-2.92187 -0.9052,-1.06562 -2.46353,-1.06562 z m 4.59478,-7.25311 v 2.10833 q -0.87083,-0.4125 -1.76458,-0.6302 -0.88229,-0.21771 -1.75312,-0.21771 -2.29166,0 -3.50624,1.54687 -1.20312,1.54687 -1.375,4.67498 0.67604,-0.99687 1.69583,-1.52395 1.01979,-0.53854 2.24583,-0.53854 2.57812,0 4.0677,1.56979 1.50103,1.55833 1.50103,4.25103 0,2.63541 -1.55833,4.22811 -1.55832,1.5927 -4.1479,1.5927 -2.9677,0 -4.53749,-2.26874 -1.56979,-2.2802 -1.56979,-6.59998 0,-4.05624 1.925,-6.46248 1.92499,-2.4177 5.16769,-2.4177 0.87083,0 1.75312,0.17187 0.89375,0.17188 1.85625,0.51562 z m 5.09894,13.81872 h 2.4177 v 2.9104 h -2.4177 z m 7.52811,2.5552 v -2.10833 q 0.87083,0.4125 1.76457,0.63021 0.89375,0.2177 1.75312,0.2177 2.29166,0 3.49479,-1.53541 1.21458,-1.54687 1.38645,-4.68644 -0.66458,0.98541 -1.68437,1.51249 -1.01979,0.52708 -2.25728,0.52708 -2.56666,0 -4.0677,-1.54687 -1.48958,-1.55833 -1.48958,-4.25103 0,-2.63541 1.55833,-4.22811 1.55833,-1.5927 4.1479,-1.5927 2.9677,0 4.52603,2.2802 1.56979,2.26874 1.56979,6.59998 0,4.04478 -1.925,6.46248 -1.91353,2.40624 -5.15623,2.40624 -0.87083,0 -1.76458,-0.17187 -0.89375,-0.17187 -1.85624,-0.51562 z m 4.60623,-7.25311 q 1.55833,0 2.46354,-1.06562 0.91666,-1.06562 0.91666,-2.92187 0,-1.84478 -0.91666,-2.91041 -0.90521,-1.07708 -2.46354,-1.07708 -1.55833,0 -2.47499,1.07708 -0.90521,1.06563 -0.90521,2.91041 0,1.85625 0.90521,2.92187 0.91666,1.06562 2.47499,1.06562 z m 27.40826,-2.76145 q 0.79062,-1.42083 1.89062,-2.09687 1.1,-0.67604 2.58958,-0.67604 2.0052,0 3.09374,1.40937 1.08854,1.39792 1.08854,3.98749 v 7.74581 h -2.11979 v -7.67706 q 0,-1.84478 -0.65312,-2.73853 -0.65313,-0.89375 -1.99375,-0.89375 -1.63854,0 -2.58957,1.08854 -0.95104,1.08854 -0.95104,2.9677 v 7.2531 h -2.11979 v -7.67706 q 0,-1.85624 -0.65312,-2.73853 -0.65313,-0.89375 -2.01666,-0.89375 -1.61562,0 -2.56666,1.1 -0.95104,1.08854 -0.95104,2.95624 v 7.2531 h -2.11979 v -12.83329 h 2.11979 v 1.99374 q 0.72187,-1.1802 1.7302,-1.74166 1.00833,-0.56146 2.39479,-0.56146 1.39791,0 2.37187,0.71042 0.98541,0.71041 1.4552,2.06249 z"
       id="path1" />
    <path
       style="font-size:14.9334px;baseline-shift:super"
       d="m 354.05427,417.68944 h 5.14064 v 1.23959 h -6.91253 v -1.23959 q 0.83855,-0.86771 2.28231,-2.32605 1.45104,-1.46563 1.82292,-1.88855 0.7073,-0.79479 0.98438,-1.34167 0.28438,-0.55417 0.28438,-1.08646 0,-0.86772 -0.61251,-1.41459 -0.60521,-0.54688 -1.5823,-0.54688 -0.69271,0 -1.46563,0.24063 -0.76563,0.24062 -1.64063,0.72917 v -1.48751 q 0.88959,-0.35729 1.66251,-0.53959 0.77292,-0.18229 1.41459,-0.18229 1.69167,0 2.69793,0.84584 1.00625,0.84583 1.00625,2.26042 0,0.67084 -0.25521,1.27605 -0.24792,0.59792 -0.91146,1.41459 -0.18229,0.21146 -1.15938,1.22501 -0.97709,1.00625 -2.75626,2.82188 z"
       id="path2" />
  </g>
  <g
     id="text50-5-43-1-2-8-6-9-4"
     style="font-size:23.4666px;fill:#e5e5e5;stroke-width:0.8"
     aria-label="16.1 m2">
    <path
       style="text-align:center;text-anchor:middle"
       d="m 425.81982,446.76779 h 3.78124 v -13.05101 l -4.11353,0.825 v -2.10833 l 4.09061,-0.825 h 2.31458 v 15.15934 h 3.78124 v 1.94791 h -9.85414 z m 19.76557,-7.52811 q -1.55833,0 -2.47499,1.06563 -0.90521,1.06562 -0.90521,2.92186 0,1.84479 0.90521,2.92187 0.91666,1.06562 2.47499,1.06562 1.55833,0 2.46354,-1.06562 0.91666,-1.07708 0.91666,-2.92187 0,-1.85624 -0.91666,-2.92186 -0.90521,-1.06563 -2.46354,-1.06563 z m 4.59478,-7.2531 v 2.10833 q -0.87083,-0.4125 -1.76458,-0.63021 -0.88229,-0.21771 -1.75312,-0.21771 -2.29166,0 -3.50624,1.54687 -1.20312,1.54687 -1.37499,4.67499 0.67603,-0.99687 1.69582,-1.52395 1.01979,-0.53854 2.24583,-0.53854 2.57812,0 4.0677,1.56978 1.50103,1.55833 1.50103,4.25103 0,2.63541 -1.55832,4.22812 -1.55833,1.5927 -4.14791,1.5927 -2.9677,0 -4.53749,-2.26874 -1.56978,-2.28021 -1.56978,-6.59999 0,-4.05623 1.92499,-6.46248 1.925,-2.4177 5.16769,-2.4177 0.87084,0 1.75312,0.17188 0.89375,0.17187 1.85625,0.51562 z m 5.09894,13.81871 h 2.41771 v 2.91041 h -2.41771 z m 7.8604,0.9625 h 3.78124 v -13.05101 l -4.11353,0.825 v -2.10833 l 4.09061,-0.825 h 2.31458 v 15.15934 h 3.78124 v 1.94791 h -9.85414 z m 31.6822,-8.42185 q 0.79062,-1.42083 1.89062,-2.09687 1.1,-0.67604 2.58958,-0.67604 2.0052,0 3.09374,1.40937 1.08854,1.39791 1.08854,3.98749 v 7.74581 h -2.11979 v -7.67706 q 0,-1.84479 -0.65312,-2.73854 -0.65313,-0.89374 -1.99375,-0.89374 -1.63854,0 -2.58957,1.08853 -0.95104,1.08854 -0.95104,2.9677 v 7.25311 h -2.11979 v -7.67706 q 0,-1.85625 -0.65312,-2.73854 -0.65313,-0.89374 -2.01666,-0.89374 -1.61562,0 -2.56666,1.09999 -0.95104,1.08854 -0.95104,2.95624 v 7.25311 h -2.11979 v -12.8333 h 2.11979 v 1.99375 q 0.72187,-1.18021 1.7302,-1.74167 1.00833,-0.56145 2.39479,-0.56145 1.39791,0 2.37187,0.71041 0.98541,0.71042 1.4552,2.0625 z"
       id="path3" />
    <path
       style="font-size:14.9334px;baseline-shift:super"
       d="m 508.34357,438.08947 h 5.14065 v 1.23959 h -6.91253 v -1.23959 q 0.83854,-0.86771 2.2823,-2.32605 1.45105,-1.46563 1.82292,-1.88855 0.7073,-0.7948 0.98438,-1.34168 0.28438,-0.55417 0.28438,-1.08646 0,-0.86771 -0.6125,-1.41459 -0.60521,-0.54688 -1.5823,-0.54688 -0.69271,0 -1.46563,0.24063 -0.76563,0.24063 -1.64064,0.72917 v -1.48751 q 0.88959,-0.35729 1.66251,-0.53958 0.77292,-0.1823 1.41459,-0.1823 1.69168,0 2.69793,0.84584 1.00626,0.84584 1.00626,2.26043 0,0.67084 -0.25521,1.27605 -0.24792,0.59792 -0.91147,1.41459 -0.18229,0.21145 -1.15938,1.225 -0.97708,1.00626 -2.75626,2.82189 z"
       id="path4" />
  </g>
</svg>
