<?xml version="1.0" encoding="UTF-8" standalone="no"?>
<!-- Generator: Blender, SVG Export for Grease Pencil - v1.0 -->

<svg
   version="1.0"
   x="0px"
   y="0px"
   width="1335.9023"
   height="1571.5527"
   viewBox="0 0 1335.9023 1571.5528"
   id="svg271"
   sodipodi:docname="layout_bad1.svg"
   inkscape:version="1.3 (0e150ed6c4, 2023-07-21)"
   inkscape:export-filename="layout_bad1.pdf"
   inkscape:export-xdpi="400"
   inkscape:export-ydpi="400"
   xmlns:inkscape="http://www.inkscape.org/namespaces/inkscape"
   xmlns:sodipodi="http://sodipodi.sourceforge.net/DTD/sodipodi-0.dtd"
   xmlns="http://www.w3.org/2000/svg"
   xmlns:svg="http://www.w3.org/2000/svg">
  <defs
     id="defs275" />
  <sodipodi:namedview
     id="namedview273"
     pagecolor="#121212"
     bordercolor="#666666"
     borderopacity="1.0"
     inkscape:pageshadow="2"
     inkscape:pageopacity="0.0"
     inkscape:pagecheckerboard="0"
     showgrid="false"
     fit-margin-top="0"
     fit-margin-left="0"
     fit-margin-right="0"
     fit-margin-bottom="0"
     inkscape:zoom="0.30336521"
     inkscape:cx="723.55034"
     inkscape:cy="985.61071"
     inkscape:window-width="1920"
     inkscape:window-height="1043"
     inkscape:window-x="0"
     inkscape:window-y="0"
     inkscape:window-maximized="1"
     inkscape:current-layer="Lines"
     inkscape:showpageshadow="2"
     inkscape:deskcolor="#d1d1d1" />
  <g
     id="blender_frame_2"
     transform="translate(-1402.0488,-383.22388)">
    <g
       id="blender_object_Line Art">
      <!--Layer: Lines-->
      <g
         id="Lines">
        <rect
           style="fill:#f47ea6;fill-opacity:1;stroke:none;stroke-width:3.3;stroke-linecap:round;stroke-miterlimit:10;stroke-dasharray:none;stroke-opacity:1"
           id="rect2725"
           width="527.57611"
           height="135.9971"
           x="2179.5684"
           y="1194.7561" />
        <ellipse
           style="fill:#35b996;fill-opacity:1;stroke:none;stroke-width:3.3;stroke-linecap:round;stroke-miterlimit:10;stroke-dasharray:none;stroke-opacity:1"
           id="path2582"
           cx="2411.6331"
           cy="1254.6722"
           rx="8.8706055"
           ry="9.0535889" />
        <rect
           style="fill:#35b996;fill-opacity:1;stroke:none;stroke-width:3.3;stroke-linecap:round;stroke-miterlimit:10;stroke-dasharray:none;stroke-opacity:1"
           id="rect2321"
           width="223.19458"
           height="7.7310791"
           x="2179.5679"
           y="1251.0485" />
        <path
           id="polyline42"
           style="fill:#35b996;fill-opacity:1;stroke:#e5e5e5;stroke-width:5;stroke-dasharray:none;stroke-opacity:1"
           d="m 1388.5488,371.72388 v 794.87892 771.6738 h 760.8653 570.0371 V 1330.9055 822.00513 371.72388 h -710.7149 z m 667.0293,63.64453 h 563.9102 l -35.1328,44.70898 h -528.875 z m -475.4394,18.89062 h 310.0761 v 8.64258 h -304.2304 z m 1077.4687,151.37891 v 66.82031 l -28.8223,23.04297 v -63.63086 z m -1211.5781,27.78125 37.0039,31.7461 V 976.87622 L 1446.0293,965.3313 Z M 2652.498,877.10864 v 260.05856 h -19.1054 V 885.97974 Z m -488.9296,303.64646 h 527.5761 v 135.9981 h -527.5761 z m -676.4844,7.0274 v 614.7226 l -45.8203,52.3321 v -664.4043 z m 1144.0195,328.0683 23.9121,14.9512 v 128.6328 l -23.9121,-20.0683 z m -909.9902,313.4375 h 175.5351 l -10.7519,46.0801 h -187.5332 z m 480.0957,5.7989 h 368.5625 l 25.5234,33.6562 h -386.8008 z"
           transform="translate(16,14)" />
        <polyline
           stroke="#000000"
           stroke-opacity="1"
           fill="none"
           stroke-linecap="round"
           stroke-width="3.34644"
           points="2134.052002,1712.468262 2134.052002,1586.978760 2123.241211,1528.641357"
           id="polyline2"
           transform="translate(16,14)"
           style="stroke:#e5e5e5;stroke-width:5;stroke-dasharray:none;stroke-opacity:1" />
        <polyline
           stroke="#000000"
           stroke-opacity="1"
           fill="none"
           stroke-linecap="round"
           stroke-width="3.34644"
           points="2134.052002,1311.986938 2134.052002,1186.497314 2123.241211,1182.243774"
           id="polyline4"
           transform="translate(16,14)"
           style="stroke:#e5e5e5;stroke-width:5;stroke-dasharray:none;stroke-opacity:1" />
        <polyline
           stroke="#000000"
           stroke-opacity="1"
           fill="none"
           stroke-linecap="round"
           stroke-width="3.34619"
           points="2023.351929,561.474609 2023.351929,686.964111 2027.490967,750.171021"
           id="polyline6"
           transform="translate(16,14)"
           style="stroke:#e5e5e5;stroke-width:5;stroke-dasharray:none;stroke-opacity:1" />
        <polyline
           stroke="#000000"
           stroke-opacity="1"
           fill="none"
           stroke-linecap="round"
           stroke-width="3.34619"
           points="2023.351929,1015.103638 2023.351929,1140.593262 2027.490967,1142.538818"
           id="polyline8"
           transform="translate(16,14)"
           style="stroke:#e5e5e5;stroke-width:5;stroke-dasharray:none;stroke-opacity:1" />
        <polyline
           stroke="#000000"
           stroke-opacity="1"
           fill="none"
           stroke-linecap="round"
           stroke-width="3.20435"
           points="2655.015381,1670.640259 2655.015381,1530.801392 2618.562256,1508.008179"
           id="polyline10"
           transform="translate(16,14)"
           style="stroke:#e5e5e5;stroke-width:5;stroke-dasharray:none;stroke-opacity:1" />
        <polyline
           stroke="#000000"
           stroke-opacity="1"
           fill="none"
           stroke-linecap="round"
           stroke-width="3.00366"
           points="2198.500000,1822.572510 2208.493896,1868.743408 2605.443359,1868.743408"
           id="polyline12"
           transform="translate(16,14)"
           style="stroke:#e5e5e5;stroke-width:5;stroke-dasharray:none;stroke-opacity:1" />
        <polyline
           stroke="#000000"
           stroke-opacity="1"
           fill="none"
           stroke-linecap="round"
           stroke-width="3.28271"
           points="2669.691162,1273.349854 2669.691162,1217.845337 2606.198242,1211.364380"
           id="polyline14"
           transform="translate(16,14)"
           style="stroke:#e5e5e5;stroke-width:5;stroke-dasharray:none;stroke-opacity:1" />
        <polyline
           stroke="#000000"
           stroke-opacity="1"
           fill="none"
           stroke-linecap="round"
           stroke-width="3.02197"
           points="2620.801270,1138.111084 2652.498291,1137.166504 2652.498291,870.935425"
           id="polyline16"
           transform="translate(16,14)"
           style="stroke:#e5e5e5;stroke-width:5;stroke-dasharray:none;stroke-opacity:1" />
        <polyline
           stroke="#000000"
           stroke-opacity="1"
           fill="none"
           stroke-linecap="round"
           stroke-width="2.99805"
           points="2616.293701,705.486572 2657.607910,672.458984 2657.607910,593.434448"
           id="polyline18"
           transform="translate(16,14)"
           style="stroke:#e5e5e5;stroke-width:5;stroke-dasharray:none;stroke-opacity:1" />
        <polyline
           stroke="#000000"
           stroke-opacity="1"
           fill="none"
           stroke-linecap="round"
           stroke-width="3.23828"
           points="2630.090088,435.368408 2055.577393,435.368408 2055.452148,492.497437"
           id="polyline20"
           transform="translate(16,14)"
           style="stroke:#e5e5e5;stroke-width:5;stroke-dasharray:none;stroke-opacity:1" />
        <polyline
           stroke="#000000"
           stroke-opacity="1"
           fill="none"
           stroke-linecap="round"
           stroke-width="2.95679"
           points="1499.402954,1187.070435 1441.263794,1190.432495 1441.263794,1870.384033"
           id="polyline22"
           transform="translate(16,14)"
           style="stroke:#e5e5e5;stroke-width:5;stroke-dasharray:none;stroke-opacity:1" />
        <polyline
           stroke="#000000"
           stroke-opacity="1"
           fill="none"
           stroke-linecap="round"
           stroke-width="3.24097"
           points="1691.696533,1875.367798 1885.896240,1875.367798 1899.545044,1816.879761"
           id="polyline24"
           transform="translate(16,14)"
           style="stroke:#e5e5e5;stroke-width:5;stroke-dasharray:none;stroke-opacity:1" />
        <polyline
           stroke="#000000"
           stroke-opacity="1"
           fill="none"
           stroke-linecap="round"
           stroke-width="3.05664"
           points="1895.211426,475.637939 1890.214355,454.258179 1571.255127,454.258179"
           id="polyline26"
           transform="translate(16,14)"
           style="stroke:#e5e5e5;stroke-width:5;stroke-dasharray:none;stroke-opacity:1" />
        <polyline
           stroke="#000000"
           stroke-opacity="1"
           fill="none"
           stroke-linecap="round"
           stroke-width="3.24146"
           points="1446.028931,621.832764 1446.028931,965.331543 1495.440674,980.746582"
           id="polyline28"
           transform="translate(16,14)"
           style="stroke:#e5e5e5;stroke-width:5;stroke-dasharray:none;stroke-opacity:1" />
        <polyline
           stroke="#000000"
           stroke-opacity="1"
           fill="none"
           stroke-linecap="round"
           stroke-width="3.39697"
           points="2691.144287,1345.060059 2163.567871,1345.060059 2163.567871,1909.969238"
           id="polyline30"
           transform="translate(16,14)"
           style="stroke:#e5e5e5;stroke-width:5;stroke-dasharray:none;stroke-opacity:1" />
        <polyline
           stroke="#000000"
           stroke-opacity="1"
           fill="none"
           stroke-linecap="round"
           stroke-width="3.39697"
           points="2691.144287,1180.756104 2163.567871,1180.756104 2163.567871,1316.752563"
           id="polyline32"
           transform="translate(16,14)"
           style="stroke:#e5e5e5;stroke-width:5;stroke-dasharray:none;stroke-opacity:1" />
        <polyline
           stroke="#000000"
           stroke-opacity="1"
           fill="none"
           stroke-linecap="round"
           stroke-width="3.39673"
           points="2691.144287,1152.448486 2022.889404,1152.448486"
           id="polyline34"
           transform="translate(16,14)"
           style="stroke:#e5e5e5;stroke-width:5;stroke-dasharray:none;stroke-opacity:1" />
        <polyline
           stroke="#000000"
           stroke-opacity="1"
           fill="none"
           stroke-linecap="round"
           stroke-width="3.39697"
           points="2691.144287,807.851807 2022.889404,807.851807"
           id="polyline36"
           transform="translate(16,14)"
           style="stroke:#e5e5e5;stroke-width:5;stroke-dasharray:none;stroke-opacity:1" />
        <polyline
           stroke="#000000"
           stroke-opacity="1"
           fill="none"
           stroke-linecap="round"
           stroke-width="3.39722"
           points="1994.581787,400.030762 1994.581787,822.005615 1994.581787,1152.448486 1416.855469,1152.448486"
           id="polyline38"
           transform="translate(16,14)"
           style="stroke:#e5e5e5;stroke-width:5;stroke-dasharray:none;stroke-opacity:1" />
        <polyline
           stroke="#000000"
           stroke-opacity="1"
           fill="none"
           stroke-linecap="round"
           stroke-width="3.39697"
           points="1416.855469,1180.756104 2135.260254,1180.756104"
           id="polyline40"
           transform="translate(16,14)"
           style="stroke:#e5e5e5;stroke-width:5;stroke-dasharray:none;stroke-opacity:1" />
        <polyline
           stroke="#000000"
           stroke-opacity="1"
           fill="none"
           stroke-linecap="round"
           stroke-width="3.13477"
           points="2655.015381,1659.434570 2631.103760,1639.365479 2631.103760,1515.850098"
           id="polyline44"
           transform="translate(16,14)"
           style="stroke:#e5e5e5;stroke-width:5;stroke-dasharray:none;stroke-opacity:1" />
        <polyline
           stroke="#000000"
           stroke-opacity="1"
           fill="none"
           stroke-linecap="round"
           stroke-width="3.00366"
           points="2201.208740,1835.087891 2569.771484,1835.087891 2595.295654,1868.743530"
           id="polyline46"
           transform="translate(16,14)"
           style="stroke:#e5e5e5;stroke-width:5;stroke-dasharray:none;stroke-opacity:1" />
        <polyline
           stroke="#000000"
           stroke-opacity="1"
           fill="none"
           stroke-linecap="round"
           stroke-width="3.21118"
           points="2669.691162,1270.777832 2618.465088,1261.145020 2618.465088,1212.616577"
           id="polyline48"
           transform="translate(16,14)"
           style="stroke:#e5e5e5;stroke-width:5;stroke-dasharray:none;stroke-opacity:1" />
        <polyline
           stroke="#000000"
           stroke-opacity="1"
           fill="none"
           stroke-linecap="round"
           stroke-width="3.02197"
           points="2633.392334,1137.735840 2633.392334,885.979858 2652.498291,877.108521"
           id="polyline50"
           transform="translate(16,14)"
           style="stroke:#e5e5e5;stroke-width:5;stroke-dasharray:none;stroke-opacity:1" />
        <polyline
           stroke="#000000"
           stroke-opacity="1"
           fill="none"
           stroke-linecap="round"
           stroke-width="2.99805"
           points="2628.784668,695.500977 2628.784668,631.871094 2657.607910,605.638184"
           id="polyline52"
           transform="translate(16,14)"
           style="stroke:#e5e5e5;stroke-width:5;stroke-dasharray:none;stroke-opacity:1" />
        <polyline
           stroke="#000000"
           stroke-opacity="1"
           fill="none"
           stroke-linecap="round"
           stroke-width="3.17798"
           points="2619.488525,435.368286 2584.356201,480.077271 2055.479492,480.077271"
           id="polyline54"
           transform="translate(16,14)"
           style="stroke:#e5e5e5;stroke-width:5;stroke-dasharray:none;stroke-opacity:1" />
        <polyline
           stroke="#000000"
           stroke-opacity="1"
           fill="none"
           stroke-linecap="round"
           stroke-width="3.18164"
           points="1698.363770,1875.367920 1721.112671,1829.288330 1896.649414,1829.288330"
           id="polyline56"
           transform="translate(16,14)"
           style="stroke:#e5e5e5;stroke-width:5;stroke-dasharray:none;stroke-opacity:1" />
        <polyline
           stroke="#000000"
           stroke-opacity="1"
           fill="none"
           stroke-linecap="round"
           stroke-width="2.95679"
           points="1487.083008,1187.782837 1487.083008,1802.505371 1441.263916,1854.837646"
           id="polyline58"
           transform="translate(16,14)"
           style="stroke:#e5e5e5;stroke-width:5;stroke-dasharray:none;stroke-opacity:1" />
        <polyline
           stroke="#000000"
           stroke-opacity="1"
           fill="none"
           stroke-linecap="round"
           stroke-width="3.05664"
           points="1892.234619,462.901733 1585.983887,462.901733 1580.138916,454.257935"
           id="polyline60"
           transform="translate(16,14)"
           style="stroke:#e5e5e5;stroke-width:5;stroke-dasharray:none;stroke-opacity:1" />
        <polyline
           stroke="#000000"
           stroke-opacity="1"
           fill="none"
           stroke-linecap="round"
           stroke-width="3.1709"
           points="1446.028931,633.419434 1483.032593,665.165039 1483.032593,976.875610"
           id="polyline62"
           transform="translate(16,14)"
           style="stroke:#e5e5e5;stroke-width:5;stroke-dasharray:none;stroke-opacity:1" />
        <polyline
           stroke="#000000"
           stroke-opacity="1"
           fill="none"
           stroke-linecap="round"
           stroke-width="3.10303"
           points="2323.406738,655.887695 2322.574463,655.915039 2314.241211,656.166748 2305.907715,656.418701 2297.573730,656.670410 2289.239746,656.922363 2280.905273,657.174072 2272.570312,657.425903 2264.235107,657.677734 2255.899902,657.929565 2247.564209,658.181396 2239.228027,658.433350 2230.892090,658.685181 2222.555420,658.937012 2214.218506,659.188965 2205.881104,659.440918 2197.543701,659.692871 2189.206055,659.944702 2180.867920,660.196655 2172.529297,660.448486 2164.190674,660.700562 2155.851807,660.952637 2147.512451,661.204468 2139.172607,661.456421 2130.832764,661.708496 2122.492676,661.960327 2114.152100,662.212646 2105.811279,662.464600 2097.469971,662.716553 2089.128418,662.968506 2080.786865,663.220581 2072.444824,663.472656 2064.102539,663.724609 2055.759766,663.976807 2047.416870,664.228882 2039.073608,664.480957 2030.729980,664.733032 2023.351929,664.943237"
           id="polyline64"
           transform="translate(16,14)"
           style="stroke:#e5e5e5;stroke-width:5;stroke-dasharray:none;stroke-opacity:1" />
        <polyline
           stroke="#000000"
           stroke-opacity="1"
           fill="none"
           stroke-linecap="round"
           stroke-width="3.10522"
           points="1994.581787,676.051758 1993.840820,676.445557 1987.434814,679.851074 1981.028931,683.256348 1974.623169,686.661499 1968.217651,690.066650 1961.812378,693.471436 1955.407349,696.876343 1949.002319,700.281372 1942.597656,703.685791 1936.193237,707.090454 1929.788940,710.494873 1923.384766,713.899170 1916.980835,717.303467 1910.577271,720.707520 1904.173828,724.111572 1897.770508,727.515503 1891.367432,730.919189 1884.964600,734.322998 1878.561890,737.726440 1872.159546,741.129883 1865.757202,744.533325 1859.355225,747.936646 1852.953369,751.339722 1846.551758,754.742798 1840.150269,758.145630 1833.748901,761.548584 1827.347900,764.951294 1820.947144,768.353882 1814.546509,771.756226 1808.146118,775.158691 1801.745972,778.561035 1795.345825,781.963257 1788.946045,785.365234 1782.546387,788.767090 1776.147095,792.169067 1769.747803,795.570679 1763.348877,798.972412 1756.948608,802.384644 1750.523071,806.180542 1746.841309,810.649170 1749.052490,815.738281 1753.399292,820.469482 1757.831177,824.852295 1762.267334,829.209229 1766.703613,833.566528 1771.140015,837.923584 1775.576416,842.280884 1780.013062,846.638306 1784.449707,850.995850 1788.886475,855.353394 1793.323242,859.710938 1797.760254,864.068726 1802.197266,868.426636 1806.634521,872.784668 1811.071777,877.142700 1815.509033,881.500854 1819.946411,885.859009 1824.384033,890.217529 1828.821777,894.575928 1833.259521,898.934448 1837.697266,903.293091 1842.135254,907.651855 1846.573242,912.010620 1851.011475,916.369629 1855.449585,920.728638 1859.887939,925.087769 1864.326416,929.447021 1868.764893,933.806274 1873.203613,938.165649 1877.642212,942.525146 1882.081055,946.884766 1886.519897,951.244385 1890.958862,955.604248 1895.398071,959.964111 1899.837280,964.324097 1904.276489,968.684204 1908.715942,973.044312 1913.155518,977.404663 1917.595093,981.765015 1922.034790,986.125488 1926.474487,990.485962 1930.914551,994.846680 1935.354492,999.207520 1939.794556,1003.568237 1944.234741,1007.929199 1948.675049,1012.290283 1953.115356,1016.651367 1957.555786,1021.012695 1961.996338,1025.374023 1966.437134,1029.735352 1970.877930,1034.096924 1975.318726,1038.458496 1979.759644,1042.820312 1984.200806,1047.182007 1988.641968,1051.543945 1993.083130,1055.905884 1994.581787,1057.377930"
           id="polyline66"
           transform="translate(16,14)"
           style="stroke:#e5e5e5;stroke-width:5;stroke-dasharray:none;stroke-opacity:1" />
        <polyline
           stroke="#000000"
           stroke-opacity="1"
           fill="none"
           stroke-linecap="round"
           stroke-width="3.1062"
           points="2023.351929,1075.720581 2024.239258,1075.499146 2032.289429,1073.600464 2040.422241,1071.703613 2048.554688,1069.807007 2056.687012,1067.910278 2064.818848,1066.013672 2072.950684,1064.117065 2081.082031,1062.220581 2089.212891,1060.324219 2097.343750,1058.427856 2105.474365,1056.531738 2113.604492,1054.635498 2121.734375,1052.739258 2129.864014,1050.843262 2137.993408,1048.947266 2146.122314,1047.051270 2154.250977,1045.155396 2162.379639,1043.259644 2170.507812,1041.364014 2178.635742,1039.468262 2186.763428,1037.572632 2194.890625,1035.677124 2203.017578,1033.781738 2211.144287,1031.886353 2219.270752,1029.990967 2227.397217,1028.095703 2235.522949,1026.200439 2243.648438,1024.305298 2251.773926,1022.410278 2259.898926,1020.515259 2268.023682,1018.620361 2276.147949,1016.725464 2284.272217,1014.830688 2292.395996,1012.935913 2300.519775,1011.041382 2308.643066,1009.146606 2316.766113,1007.252197 2322.294922,1005.963867"
           id="polyline68"
           transform="translate(16,14)"
           style="stroke:#e5e5e5;stroke-width:5;stroke-dasharray:none;stroke-opacity:1" />
        <polyline
           stroke="#000000"
           stroke-opacity="1"
           fill="none"
           stroke-linecap="round"
           stroke-width="3.104"
           points="2324.411377,1013.867188 2323.702393,1014.034668 2315.579590,1015.929199 2307.456543,1017.823975 2299.333008,1019.718628 2291.209229,1021.613525 2283.085449,1023.508545 2274.961182,1025.403442 2266.836670,1027.298462 2258.711670,1029.193604 2250.586670,1031.088745 2242.461426,1032.984009 2234.335693,1034.879150 2226.209473,1036.774658 2218.083496,1038.670044 2209.956787,1040.565552 2201.830078,1042.461060 2193.703125,1044.356689 2185.575439,1046.252441 2177.447998,1048.148071 2169.319824,1050.044067 2161.191650,1051.939819 2153.062988,1053.835815 2144.934326,1055.731812 2136.805176,1057.627930 2128.675537,1059.524170 2120.545898,1061.420410 2112.416016,1063.316650 2104.285889,1065.213135 2096.155029,1067.109497 2088.024414,1069.005981 2079.893311,1070.902588 2071.761963,1072.799194 2063.630127,1074.695923 2055.498047,1076.592651 2047.365723,1078.489502 2039.233276,1080.386475 2031.100342,1082.283325 2023.351929,1084.022339"
           id="polyline70"
           transform="translate(16,14)"
           style="stroke:#e5e5e5;stroke-width:5;stroke-dasharray:none;stroke-opacity:1" />
        <polyline
           stroke="#000000"
           stroke-opacity="1"
           fill="none"
           stroke-linecap="round"
           stroke-width="3.10596"
           points="1994.581787,1068.851440 1994.009033,1068.289062 1989.567749,1063.926880 1985.126465,1059.564697 1980.685425,1055.202637 1976.244263,1050.840698 1971.803345,1046.478882 1967.362549,1042.117065 1962.921753,1037.755493 1958.481079,1033.393921 1954.040527,1029.032593 1949.600098,1024.671265 1945.159668,1020.309937 1940.719360,1015.948853 1936.279297,1011.587646 1931.839233,1007.226807 1927.399170,1002.865967 1922.959351,998.505127 1918.519531,994.144409 1914.079834,989.783936 1909.640259,985.423462 1905.200806,981.063110 1900.761353,976.702759 1896.322144,972.342529 1891.882935,967.982422 1887.443848,963.622437 1883.004883,959.262573 1878.565918,954.902710 1874.127197,950.543091 1869.688354,946.183472 1865.249878,941.823853 1860.811279,937.464478 1856.372925,933.105225 1851.934692,928.745972 1847.496338,924.386841 1843.058228,920.027832 1838.620239,915.668823 1834.182373,911.310059 1829.744507,906.951294 1825.306763,902.592529 1820.869141,898.234131 1816.431641,893.875610 1811.994141,889.517090 1807.556885,885.158936 1803.119507,880.800781 1798.682373,876.442627 1794.245361,872.084595 1789.808472,867.726807 1785.371704,863.369019 1780.934937,859.011230 1776.498169,854.653809 1772.061646,850.296265 1767.625244,845.938721 1763.188843,841.581543 1758.752686,837.224243 1754.316528,832.867188 1749.880371,828.510010 1745.507935,824.122314 1740.974976,819.843384"
           id="polyline72"
           transform="translate(16,14)"
           style="stroke:#e5e5e5;stroke-width:5;stroke-dasharray:none;stroke-opacity:1" />
        <polyline
           stroke="#000000"
           stroke-opacity="1"
           fill="none"
           stroke-linecap="round"
           stroke-width="3.10303"
           points="1740.974976,819.843384 1738.797119,825.820435 1738.575073,830.946411 1738.270264,836.105469 1737.960327,841.266479 1737.650635,846.427490 1737.340820,851.588867 1737.031006,856.750122 1736.721191,861.911499 1736.411377,867.073120 1736.101562,872.234497 1735.791626,877.396484 1735.481934,882.558350 1735.171997,887.720337 1734.862183,892.882324 1734.552368,898.044434 1734.242432,903.206787 1733.932617,908.369019 1733.622681,913.531616 1733.312866,918.694214 1733.003052,923.856934 1732.693115,929.019531 1732.383179,934.182617 1732.073242,939.345581 1731.763306,944.508667 1731.453369,949.671753 1731.143555,954.835205 1730.833618,959.998535 1730.523560,965.161987 1730.213745,970.325562 1729.903687,975.489258 1729.593872,980.653076 1729.283936,985.817017 1728.973877,990.981079 1728.663940,996.145142 1728.353882,1001.309570 1728.043945,1006.473755 1727.733887,1011.638184 1727.423950,1016.802734 1727.114014,1021.967407 1726.803955,1027.132080 1726.493896,1032.296997 1726.183960,1037.461914 1725.873901,1042.627075 1725.563843,1047.792114 1725.253784,1052.957520 1724.943848,1058.122803 1724.633667,1063.288330 1724.323608,1068.453857 1724.013550,1073.619629 1723.703613,1078.785400 1723.393433,1083.951294 1723.083374,1089.117310 1722.773315,1094.283325 1722.463135,1099.449585 1722.153076,1104.615845 1721.843018,1109.782349 1721.532837,1114.948730 1721.222778,1120.115356 1720.912598,1125.282104 1720.602539,1130.448975 1720.292236,1135.615967 1719.982300,1140.782837 1719.672119,1145.949951 1719.361816,1151.111816 1719.280762,1152.448486"
           id="polyline74"
           transform="translate(16,14)"
           style="stroke:#e5e5e5;stroke-width:5;stroke-dasharray:none;stroke-opacity:1" />
        <polyline
           stroke="#000000"
           stroke-opacity="1"
           fill="none"
           stroke-linecap="round"
           stroke-width="3.10498"
           points="1722.735474,1180.756104 1722.926392,1181.531372 1724.171021,1186.581787 1725.415649,1191.632202 1726.660278,1196.682373 1727.904785,1201.732544 1729.149170,1206.782593 1730.393677,1211.832520 1731.638184,1216.882324 1732.882568,1221.932007 1734.126831,1226.981567 1735.371216,1232.031128 1736.615601,1237.080444 1737.859985,1242.129761 1739.104248,1247.179077 1740.348389,1252.228149 1741.592651,1257.277100 1742.836914,1262.326172 1744.081055,1267.374878 1745.325195,1272.423584 1746.569458,1277.472168 1747.813477,1282.520752 1749.057617,1287.569092 1750.301758,1292.617432 1751.545654,1297.665649 1752.789673,1302.713623 1754.033691,1307.761719 1755.277710,1312.809570 1756.521484,1317.857422 1757.765503,1322.905029 1759.009399,1327.952637 1760.253296,1333.000244 1761.497070,1338.047607 1762.740845,1343.094849 1763.984741,1348.141968 1765.228516,1353.189087 1766.472168,1358.236084 1767.715820,1363.282959 1768.959595,1368.329834 1770.203247,1373.376465 1771.447021,1378.423096 1772.690430,1383.469482 1773.934082,1388.515869 1775.177734,1393.562256 1776.421265,1398.608276 1777.664673,1403.654297 1778.908203,1408.700317 1780.151733,1413.746216 1781.395142,1418.791992 1782.638550,1423.837646 1783.881958,1428.883179 1785.125244,1433.928711 1786.368652,1438.974121 1787.611938,1444.019409 1788.855225,1449.064453 1790.098511,1454.109619 1791.341797,1459.154541 1792.584961,1464.199341 1793.828125,1469.244141 1795.071289,1474.288818 1796.314453,1479.333496 1797.557495,1484.377686 1798.806763,1489.424072 1800.160522,1494.501221 1802.018799,1499.239502 1809.657715,1498.698853 1814.755737,1494.852295 1819.699097,1490.954590 1824.636475,1487.055176 1829.573975,1483.155518 1834.511475,1479.255615 1839.449097,1475.355835 1844.386719,1471.456055 1849.324585,1467.556152 1854.262451,1463.656128 1859.200439,1459.755859 1864.138672,1455.855713 1869.076782,1451.955566 1874.015137,1448.055176 1878.953491,1444.154785 1883.891968,1440.254272 1888.830688,1436.353516 1893.769287,1432.453125 1898.708130,1428.552368 1903.646973,1424.651611 1908.585938,1420.750610 1913.525024,1416.849731 1918.464355,1412.948730 1923.403564,1409.047607 1928.342896,1405.146362 1933.282471,1401.245117 1938.222046,1397.343750 1943.161743,1393.442383 1948.101562,1389.540771 1953.041382,1385.639160 1957.981323,1381.737549 1962.921387,1377.835938 1967.861694,1373.934082 1972.801880,1370.032104 1977.742188,1366.130127 1982.682617,1362.228027 1987.623291,1358.325928 1992.563965,1354.423828 1997.504639,1350.521484 2002.445557,1346.619141 2007.386597,1342.716797 2012.327637,1338.814209 2017.268799,1334.911621 2022.209961,1331.008911 2027.151367,1327.106201 2032.092896,1323.203369 2037.034302,1319.300415 2041.975952,1315.397461 2046.917847,1311.494385 2051.859619,1307.591309 2056.801758,1303.687988 2061.743652,1299.784668 2066.685791,1295.881348 2071.627930,1291.978027 2076.570312,1288.074463 2081.512695,1284.170776 2086.455078,1280.267090 2091.397705,1276.363403 2096.340820,1272.459473 2101.283447,1268.555664 2106.226318,1264.651611 2111.169434,1260.747559 2116.112549,1256.843384 2121.055664,1252.939209 2125.999023,1249.034912 2130.990967,1245.103882 2133.928711,1242.827515"
           id="polyline76"
           transform="translate(16,14)"
           style="stroke:#e5e5e5;stroke-width:5;stroke-dasharray:none;stroke-opacity:1" />
        <polyline
           stroke="#000000"
           stroke-opacity="1"
           fill="none"
           stroke-linecap="round"
           stroke-width="3.1062"
           points="2163.567871,1237.048462 2163.601318,1237.048340 2172.027100,1237.031372 2180.452148,1237.014404 2188.876953,1236.997437 2197.301514,1236.980469 2205.725342,1236.963501 2214.148926,1236.946533 2222.572266,1236.929565 2230.995117,1236.912598 2239.417725,1236.895630 2247.839600,1236.878662 2256.261230,1236.861694 2264.682617,1236.844727 2273.103760,1236.827759 2281.523926,1236.810791 2289.944336,1236.793823 2298.364014,1236.776855 2306.783447,1236.759888 2315.202393,1236.742920 2323.620850,1236.726074 2332.039307,1236.709106 2340.456787,1236.692139 2348.874268,1236.675171 2357.291504,1236.658203 2365.708252,1236.641235 2374.124268,1236.624268 2382.540283,1236.607300 2387.500977,1236.599243"
           id="polyline78"
           transform="translate(16,14)"
           style="stroke:#e5e5e5;stroke-width:5;stroke-dasharray:none;stroke-opacity:1" />
        <polyline
           stroke="#000000"
           stroke-opacity="1"
           fill="none"
           stroke-linecap="round"
           stroke-width="3.104"
           points="2387.520996,1244.776001 2386.762451,1244.779541 2378.346924,1244.796631 2369.930908,1244.813843 2361.514404,1244.830933 2353.097656,1244.848145 2344.680420,1244.865234 2336.262695,1244.882324 2327.844971,1244.899536 2319.426514,1244.916748 2311.007568,1244.933838 2302.588379,1244.951050 2294.168945,1244.968140 2285.749023,1244.985352 2277.328613,1245.002441 2268.907715,1245.019531 2260.486816,1245.036743 2252.065186,1245.053833 2243.643311,1245.071045 2235.220947,1245.088257 2226.798584,1245.105347 2218.375488,1245.122559 2209.951904,1245.139648 2201.528076,1245.156738 2193.103760,1245.173950 2184.679443,1245.191162 2176.254395,1245.208252 2167.829102,1245.225464 2163.567871,1245.234131"
           id="polyline80"
           transform="translate(16,14)"
           style="stroke:#e5e5e5;stroke-width:5;stroke-dasharray:none;stroke-opacity:1" />
        <polyline
           stroke="#000000"
           stroke-opacity="1"
           fill="none"
           stroke-linecap="round"
           stroke-width="3.10645"
           points="2134.052002,1253.104126 2133.542725,1253.507446 2128.602295,1257.410034 2123.658936,1261.314209 2118.715576,1265.218384 2113.772705,1269.122314 2108.829590,1273.026245 2103.886719,1276.930176 2098.943848,1280.833984 2094.001221,1284.737671 2089.058350,1288.641357 2084.115967,1292.544922 2079.173340,1296.448486 2074.231201,1300.351807 2069.289062,1304.255249 2064.346924,1308.158447 2059.404785,1312.061768 2054.462891,1315.964844 2049.520996,1319.867798 2044.579224,1323.770752 2039.637451,1327.673706 2034.696045,1331.576416 2029.754517,1335.479248 2024.813232,1339.381836 2019.871948,1343.284424 2014.930786,1347.186768 2009.989746,1351.089355 2005.048828,1354.991699 2000.107788,1358.893921 1995.167114,1362.796143 1990.226440,1366.698242 1985.285889,1370.600220 1980.345337,1374.502197 1975.405029,1378.404053 1970.464722,1382.305786 1965.524536,1386.207520 1960.584595,1390.109131 1955.644531,1394.010742 1950.704590,1397.912109 1945.764893,1401.813599 1940.825195,1405.714844 1935.885620,1409.616089 1930.946045,1413.517334 1926.006714,1417.418457 1921.067505,1421.319458 1916.128296,1425.220459 1911.189209,1429.121338 1906.250122,1433.021973 1901.311279,1436.922729 1896.372437,1440.823242 1891.433716,1444.723877 1886.495239,1448.624390 1881.556519,1452.524780 1876.618164,1456.425049 1871.679932,1460.325195 1866.741699,1464.225342 1861.803589,1468.125488 1856.865601,1472.025513 1851.927612,1475.925537 1846.989868,1479.825195 1842.052124,1483.725098 1837.114502,1487.624756 1832.177002,1491.524414 1827.239624,1495.423950 1822.302124,1499.323364 1817.358521,1503.214355 1812.647339,1507.059448 1815.231323,1511.849243 1823.140747,1514.180908 1831.098389,1516.531982 1839.056396,1518.883423 1847.014893,1521.234863 1854.973511,1523.586548 1862.932495,1525.938232 1870.891602,1528.289795 1878.851074,1530.641602 1886.810669,1532.993652 1894.770630,1535.345459 1902.730835,1537.697632 1910.691284,1540.049683 1918.651978,1542.401855 1926.612915,1544.754150 1934.574097,1547.106445 1942.535645,1549.458862 1950.497314,1551.811279 1958.459229,1554.163818 1966.421387,1556.516602 1974.384033,1558.869263 1982.346680,1561.222046 1990.309692,1563.574951 1998.272827,1565.927856 2006.236450,1568.280762 2014.200195,1570.633911 2022.164185,1572.987061 2030.128540,1575.340332 2038.093018,1577.693604 2046.057739,1580.046997 2054.022705,1582.400513 2061.988281,1584.754028 2069.953613,1587.107666 2077.919434,1589.461182 2085.885742,1591.815186 2093.851807,1594.168945 2101.818359,1596.522949 2109.785156,1598.876953 2117.752441,1601.230957 2125.719727,1603.584961 2133.633301,1605.928833 2134.052002,1606.054077"
           id="polyline82"
           transform="translate(16,14)"
           style="stroke:#e5e5e5;stroke-width:5;stroke-dasharray:none;stroke-opacity:1" />
        <polyline
           stroke="#000000"
           stroke-opacity="1"
           fill="none"
           stroke-linecap="round"
           stroke-width="3.10498"
           points="2163.567871,1606.517090 2164.205322,1606.451172 2172.627441,1605.579834 2181.049316,1604.708374 2189.470703,1603.837158 2197.891846,1602.965820 2206.312256,1602.094604 2214.732422,1601.223389 2223.152344,1600.352295 2231.572021,1599.481201 2239.990723,1598.610107 2248.409668,1597.739136 2256.827881,1596.868164 2265.245850,1595.997314 2273.663330,1595.126221 2282.080566,1594.255493 2290.497314,1593.384644 2298.913574,1592.513916 2307.329590,1591.643066 2315.745117,1590.772461 2324.160156,1589.901855 2332.574951,1589.031128 2340.989746,1588.160645 2349.403564,1587.290039 2357.817139,1586.419434 2366.230469,1585.549072 2374.643311,1584.678711 2383.055908,1583.808350 2386.898926,1583.412598"
           id="polyline84"
           transform="translate(16,14)"
           style="stroke:#e5e5e5;stroke-width:5;stroke-dasharray:none;stroke-opacity:1" />
        <polyline
           stroke="#000000"
           stroke-opacity="1"
           fill="none"
           stroke-linecap="round"
           stroke-width="3.10547"
           points="2388.249023,1591.724609 2387.300537,1591.825195 2378.881592,1592.696533 2370.461914,1593.567627 2362.042480,1594.438965 2353.622070,1595.310303 2345.201416,1596.181885 2336.780518,1597.053223 2328.359375,1597.924805 2319.937500,1598.796387 2311.515381,1599.667969 2303.092773,1600.539551 2294.670166,1601.411133 2286.246826,1602.282715 2277.822998,1603.154541 2269.398926,1604.026367 2260.974365,1604.898193 2252.549805,1605.770020 2244.124512,1606.641846 2235.698730,1607.513794 2227.272705,1608.385742 2218.846436,1609.257812 2210.419678,1610.129883 2201.992676,1611.001953 2193.564941,1611.874023 2185.136963,1612.746216 2176.708740,1613.618408 2168.279785,1614.490723 2163.567871,1614.978271"
           id="polyline86"
           transform="translate(16,14)"
           style="stroke:#e5e5e5;stroke-width:5;stroke-dasharray:none;stroke-opacity:1" />
        <polyline
           stroke="#000000"
           stroke-opacity="1"
           fill="none"
           stroke-linecap="round"
           stroke-width="3.10718"
           points="2134.052002,1614.765137 2133.592285,1614.632324 2125.490234,1612.251587 2117.516602,1609.895386 2109.543213,1607.539307 2101.569824,1605.183350 2093.596924,1602.827393 2085.624023,1600.471436 2077.651855,1598.115601 2069.679688,1595.759888 2061.707764,1593.404297 2053.736084,1591.048706 2045.764648,1588.693237 2037.793457,1586.337891 2029.822510,1583.982422 2021.851929,1581.627197 2013.881592,1579.271973 2005.911377,1576.916992 1997.941528,1574.561890 1989.971924,1572.206909 1982.002563,1569.852051 1974.033325,1567.497314 1966.064575,1565.142456 1958.095947,1562.787842 1950.127563,1560.433228 1942.159546,1558.078857 1934.191772,1555.724365 1926.224121,1553.369995 1918.256836,1551.015625 1910.289795,1548.661499 1902.322998,1546.307373 1894.356445,1543.953369 1886.390137,1541.599365 1878.424072,1539.245361 1870.458252,1536.891602 1862.492798,1534.537842 1854.527588,1532.184082 1846.562500,1529.830566 1838.597656,1527.477051 1830.633179,1525.123535 1822.668945,1522.770264 1814.705566,1520.417969 1807.211792,1517.137939 1806.769775,1516.821777"
           id="polyline88"
           transform="translate(16,14)"
           style="stroke:#e5e5e5;stroke-width:5;stroke-dasharray:none;stroke-opacity:1" />
        <polyline
           stroke="#000000"
           stroke-opacity="1"
           fill="none"
           stroke-linecap="round"
           stroke-width="3.10522"
           points="1795.119995,1504.517212 1794.994385,1504.322998 1792.885986,1499.741333 1791.535522,1494.643433 1790.288940,1489.594238 1789.044678,1484.546021 1787.800537,1479.497559 1786.556274,1474.448975 1785.312012,1469.400146 1784.067871,1464.351318 1782.823608,1459.302490 1781.579224,1454.253540 1780.334839,1449.204346 1779.090454,1444.155273 1777.846191,1439.105957 1776.601685,1434.056519 1775.357178,1429.006958 1774.112671,1423.957397 1772.868286,1418.907715 1771.623657,1413.857910 1770.379272,1408.807861 1769.134521,1403.757935 1767.890015,1398.707764 1766.645508,1393.657715 1765.400757,1388.607422 1764.156006,1383.556885 1762.911255,1378.506348 1761.666504,1373.455811 1760.421875,1368.405029 1759.177124,1363.354248 1757.932251,1358.303223 1756.687378,1353.252197 1755.442749,1348.201172 1754.197876,1343.149902 1752.952881,1338.098633 1751.708008,1333.047119 1750.463013,1327.995605 1749.218018,1322.944092 1747.973145,1317.892212 1746.728027,1312.840332 1745.482910,1307.788574 1744.237793,1302.736572 1742.992920,1297.684326 1741.747803,1292.632080 1740.502563,1287.579712 1739.257324,1282.527344 1738.012207,1277.474731 1736.767090,1272.422119 1735.521851,1267.369263 1734.276489,1262.316528 1733.031128,1257.263550 1731.785767,1252.210449 1730.540527,1247.157349 1729.295166,1242.104126 1728.049683,1237.050659 1726.804321,1231.997192 1725.558838,1226.943726 1724.313477,1221.890015 1723.067993,1216.836304 1721.822388,1211.782471 1720.576782,1206.728516 1719.331177,1201.674438 1718.085693,1196.620239 1716.840088,1191.565918 1715.594482,1186.511597 1714.348755,1181.457153 1714.176025,1180.756104"
           id="polyline90"
           transform="translate(16,14)"
           style="stroke:#e5e5e5;stroke-width:5;stroke-dasharray:none;stroke-opacity:1" />
        <polyline
           stroke="#000000"
           stroke-opacity="1"
           fill="none"
           stroke-linecap="round"
           stroke-width="3.10718"
           points="1710.952515,1152.448486 1710.998047,1151.678589 1711.308472,1146.494507 1711.619019,1141.323242 1711.929321,1136.152222 1712.239868,1130.981079 1712.550293,1125.810181 1712.860840,1120.639282 1713.171265,1115.468506 1713.481567,1110.297852 1713.792114,1105.127441 1714.102539,1099.956787 1714.412964,1094.786621 1714.723389,1089.616333 1715.033813,1084.446167 1715.344238,1079.276123 1715.654663,1074.106323 1715.965088,1068.936401 1716.275391,1063.766724 1716.585815,1058.597168 1716.896118,1053.427734 1717.206665,1048.258179 1717.516968,1043.088867 1717.827271,1037.919800 1718.137695,1032.750732 1718.447998,1027.581665 1718.758301,1022.412720 1719.068604,1017.244019 1719.379028,1012.075439 1719.689331,1006.906738 1719.999634,1001.738281 1720.309937,996.569946 1720.620117,991.401733 1720.930664,986.233521 1721.240845,981.065430 1721.551147,975.897461 1721.861328,970.729736 1722.171631,965.561890 1722.481934,960.394287 1722.792236,955.226685 1723.102417,950.059326 1723.412598,944.891968 1723.723022,939.724854 1724.033203,934.557617 1724.343384,929.390625 1724.653687,924.223877 1724.963745,919.057007 1725.274170,913.890259 1725.584229,908.723633 1725.894409,903.557129 1726.204590,898.390747 1726.514771,893.224487 1726.825073,888.058228 1727.135132,882.892212 1727.445312,877.726196 1727.755493,872.560303 1728.065552,867.394531 1728.375732,862.228882 1728.685913,857.063354 1728.996094,851.897827 1729.306152,846.732544 1729.616455,841.567139 1729.926514,836.402100 1730.236450,831.237061 1730.543457,826.073486 1731.039429,820.764282 1732.264771,816.559570"
           id="polyline92"
           transform="translate(16,14)"
           style="stroke:#e5e5e5;stroke-width:5;stroke-dasharray:none;stroke-opacity:1" />
        <polyline
           stroke="#000000"
           stroke-opacity="1"
           fill="none"
           stroke-linecap="round"
           stroke-width="3.10522"
           points="1741.448120,802.383545 1741.659424,802.159546 1747.447144,797.925537 1753.853882,794.502686 1760.257690,791.098145 1766.661621,787.693604 1773.066040,784.289062 1779.470581,780.884521 1785.875244,777.479492 1792.280029,774.074829 1798.685059,770.669800 1805.090454,767.264526 1811.495850,763.859253 1817.901489,760.453979 1824.307373,757.048584 1830.713501,753.642944 1837.119873,750.237305 1843.526367,746.831543 1849.933105,743.425781 1856.339966,740.019653 1862.747070,736.613525 1869.154419,733.207275 1875.561890,729.801025 1881.969604,726.394653 1888.377563,722.988037 1894.785645,719.581421 1901.193970,716.174805 1907.602661,712.767822 1914.011353,709.360962 1920.420288,705.953735 1926.829468,702.546509 1933.238770,699.139282 1939.648438,695.732056 1946.058105,692.324341 1952.468018,688.916870 1958.878296,685.509033 1965.288574,682.101318 1971.699219,678.693237 1978.109985,675.285278 1984.520874,671.877197 1990.932129,668.468994 1994.595703,666.521240"
           id="polyline94"
           transform="translate(16,14)"
           style="stroke:#e5e5e5;stroke-width:5;stroke-dasharray:none;stroke-opacity:1" />
        <polyline
           stroke="#000000"
           stroke-opacity="1"
           fill="none"
           stroke-linecap="round"
           stroke-width="3.10767"
           points="2023.351929,656.521973 2024.139038,656.494995 2032.553467,656.233521 2040.903687,655.981445 2049.253418,655.729248 2057.603027,655.477051 2065.952148,655.224976 2074.301270,654.972900 2082.649902,654.720825 2090.998047,654.468628 2099.346191,654.216553 2107.693604,653.964600 2116.041016,653.712524 2124.388184,653.460449 2132.735107,653.208374 2141.081543,652.956299 2149.427979,652.704346 2157.773926,652.452271 2166.119385,652.200317 2174.464600,651.948364 2182.809570,651.696289 2191.154297,651.444336 2199.498535,651.192383 2207.842773,650.940430 2216.186523,650.688477 2224.529785,650.436523 2232.873047,650.184570 2241.215820,649.932739 2249.558594,649.680786 2257.900879,649.428833 2266.242676,649.177002 2274.584229,648.925049 2282.925781,648.673218 2291.266846,648.421387 2299.607666,648.169312 2307.947754,647.917480 2316.288086,647.665649 2323.229736,647.457886"
           id="polyline96"
           transform="translate(16,14)"
           style="stroke:#e5e5e5;stroke-width:5;stroke-dasharray:none;stroke-opacity:1" />
        <polyline
           stroke="#000000"
           stroke-opacity="1"
           fill="none"
           stroke-linecap="round"
           stroke-width="3.10425"
           points="2388.128418,1591.737305 2389.848877,1594.105591 2398.416504,1595.433350 2402.284912,1592.417969 2404.023926,1587.715332 2400.492188,1579.456665 2391.938477,1578.166138 2388.092041,1581.172607 2386.869873,1583.415527"
           id="polyline98"
           transform="translate(16,14)"
           style="stroke:#e5e5e5;stroke-width:5;stroke-dasharray:none;stroke-opacity:1" />
        <polyline
           stroke="#000000"
           stroke-opacity="1"
           fill="none"
           stroke-linecap="round"
           stroke-width="3.104"
           points="2387.509033,1244.776123 2389.848877,1247.996582 2395.170654,1249.725708 2400.492188,1247.996582 2403.781006,1243.469727 2403.781006,1237.874512 2400.492188,1233.347656 2395.170654,1231.618652 2389.848877,1233.347656 2387.485107,1236.601196"
           id="polyline100"
           transform="translate(16,14)"
           style="stroke:#e5e5e5;stroke-width:5;stroke-dasharray:none;stroke-opacity:1" />
        <polyline
           stroke="#000000"
           stroke-opacity="1"
           fill="none"
           stroke-linecap="round"
           stroke-width="3.1062"
           points="2134.052002,1238.212036 2133.926758,1238.384277 2133.926758,1242.833618"
           id="polyline102"
           transform="translate(16,14)"
           style="stroke:#e5e5e5;stroke-width:5;stroke-dasharray:none;stroke-opacity:1" />
        <polyline
           stroke="#000000"
           stroke-opacity="1"
           fill="none"
           stroke-linecap="round"
           stroke-width="3.1062"
           points="2133.926758,1614.729004 2133.926758,1615.721069 2134.052002,1615.893311"
           id="polyline104"
           transform="translate(16,14)"
           style="stroke:#e5e5e5;stroke-width:5;stroke-dasharray:none;stroke-opacity:1" />
        <polyline
           stroke="#000000"
           stroke-opacity="1"
           fill="none"
           stroke-linecap="round"
           stroke-width="3.104"
           points="2324.402344,1013.869507 2325.573486,1015.481323 2330.895020,1017.210449 2336.216553,1015.481323 2339.505371,1010.954590 2339.505371,1005.359253 2336.216553,1000.832397 2330.895020,999.103394 2325.573486,1000.832397 2322.284668,1005.359253 2322.271729,1005.969238"
           id="polyline106"
           transform="translate(16,14)"
           style="stroke:#e5e5e5;stroke-width:5;stroke-dasharray:none;stroke-opacity:1" />
        <polyline
           stroke="#000000"
           stroke-opacity="1"
           fill="none"
           stroke-linecap="round"
           stroke-width="3.104"
           points="2323.147705,647.460083 2325.573486,644.121338 2334.001709,642.638306 2337.845947,645.626343 2339.609375,650.356323 2336.216553,658.770264 2327.801514,660.215454 2323.979248,657.235840 2323.219238,655.893921"
           id="polyline108"
           transform="translate(16,14)"
           style="stroke:#e5e5e5;stroke-width:5;stroke-dasharray:none;stroke-opacity:1" />
        <polyline
           stroke="#000000"
           stroke-opacity="1"
           fill="none"
           stroke-linecap="round"
           stroke-width="3.10352"
           points="1794.977295,1504.292725 1794.696655,1504.386475 1791.407715,1508.913330 1791.407715,1514.508789 1794.696655,1519.035400 1801.976318,1520.200806 1806.887085,1516.905762"
           id="polyline110"
           transform="translate(16,14)"
           style="stroke:#e5e5e5;stroke-width:5;stroke-dasharray:none;stroke-opacity:1" />
        <polyline
           stroke="#000000"
           stroke-opacity="1"
           fill="none"
           stroke-linecap="round"
           stroke-width="3.104"
           points="1741.566406,802.258057 1741.064087,801.566650 1732.546875,800.667358 1728.488770,803.372314 1727.132202,806.093384 1727.132202,811.688721 1730.421143,816.215454 1732.172974,816.784790"
           id="polyline112"
           transform="translate(16,14)"
           style="stroke:#e5e5e5;stroke-width:5;stroke-dasharray:none;stroke-opacity:1" />
        <polyline
           stroke="#000000"
           stroke-opacity="1"
           fill="none"
           stroke-linecap="round"
           stroke-width="2.89453"
           points="2123.241211,1528.641357 2123.240967,1602.852783"
           id="polyline114"
           transform="translate(16,14)"
           style="stroke:#e5e5e5;stroke-width:5;stroke-dasharray:none;stroke-opacity:1" />
        <polyline
           stroke="#000000"
           stroke-opacity="1"
           fill="none"
           stroke-linecap="round"
           stroke-width="2.89453"
           points="2123.240967,1602.852783 2122.798828,1261.993652"
           id="polyline116"
           transform="translate(16,14)"
           style="stroke:#e5e5e5;stroke-width:5;stroke-dasharray:none;stroke-opacity:1" />
        <polyline
           stroke="#000000"
           stroke-opacity="1"
           fill="none"
           stroke-linecap="round"
           stroke-width="2.87598"
           points="2122.798828,1261.993652 2123.241211,1290.786377 2134.052002,1290.786377"
           id="polyline118"
           transform="translate(16,14)"
           style="stroke:#e5e5e5;stroke-width:5;stroke-dasharray:none;stroke-opacity:1" />
        <polyline
           stroke="#000000"
           stroke-opacity="1"
           fill="none"
           stroke-linecap="round"
           stroke-width="3.39697"
           points="2135.260254,1909.969238 2122.798828,1794.192261 2122.798828,1611.456299"
           id="polyline120"
           transform="translate(16,14)"
           style="stroke:#e5e5e5;stroke-width:5;stroke-dasharray:none;stroke-opacity:1" />
        <polyline
           stroke="#000000"
           stroke-opacity="1"
           fill="none"
           stroke-linecap="round"
           stroke-width="2.87598"
           points="2122.798828,1611.456299 2123.240967,1637.183838 2134.052002,1637.183838"
           id="polyline122"
           transform="translate(16,14)"
           style="stroke:#e5e5e5;stroke-width:5;stroke-dasharray:none;stroke-opacity:1" />
        <polyline
           stroke="#000000"
           stroke-opacity="1"
           fill="none"
           stroke-linecap="round"
           stroke-width="2.89453"
           points="2123.241211,1182.243774 2123.241211,1251.223389"
           id="polyline124"
           transform="translate(16,14)"
           style="stroke:#e5e5e5;stroke-width:5;stroke-dasharray:none;stroke-opacity:1" />
        <polyline
           stroke="#000000"
           stroke-opacity="1"
           fill="none"
           stroke-linecap="round"
           stroke-width="2.89453"
           points="2123.241211,1251.223389 2122.798828,1180.756104"
           id="polyline126"
           transform="translate(16,14)"
           style="stroke:#e5e5e5;stroke-width:5;stroke-dasharray:none;stroke-opacity:1" />
        <polyline
           stroke="#000000"
           stroke-opacity="1"
           fill="none"
           stroke-linecap="round"
           stroke-width="2.89453"
           points="2023.351929,641.628418 2027.490967,641.628418 2023.351929,561.474609"
           id="polyline128"
           transform="translate(16,14)"
           style="stroke:#e5e5e5;stroke-width:5;stroke-dasharray:none;stroke-opacity:1" />
        <polyline
           stroke="#000000"
           stroke-opacity="1"
           fill="none"
           stroke-linecap="round"
           stroke-width="2.89429"
           points="2023.351929,1033.996216 2027.490967,1033.996216 2023.351929,1015.103638"
           id="polyline130"
           transform="translate(16,14)"
           style="stroke:#e5e5e5;stroke-width:5;stroke-dasharray:none;stroke-opacity:1" />
        <polyline
           stroke="#000000"
           stroke-opacity="1"
           fill="none"
           stroke-linecap="round"
           stroke-width="3.01001"
           points="2618.562256,1508.008179 2618.562256,1639.365479 2631.103760,1639.365479"
           id="polyline132"
           transform="translate(16,14)"
           style="stroke:#e5e5e5;stroke-width:5;stroke-dasharray:none;stroke-opacity:1" />
        <polyline
           stroke="#000000"
           stroke-opacity="1"
           fill="none"
           stroke-linecap="round"
           stroke-width="3.21143"
           points="2605.443359,1868.743408 2569.771484,1822.572510"
           id="polyline134"
           transform="translate(16,14)"
           style="stroke:#e5e5e5;stroke-width:5;stroke-dasharray:none;stroke-opacity:1" />
        <polyline
           stroke="#000000"
           stroke-opacity="1"
           fill="none"
           stroke-linecap="round"
           stroke-width="3.00366"
           points="2569.771484,1822.572510 2569.771484,1835.087891"
           id="polyline136"
           transform="translate(16,14)"
           style="stroke:#e5e5e5;stroke-width:5;stroke-dasharray:none;stroke-opacity:1" />
        <polyline
           stroke="#000000"
           stroke-opacity="1"
           fill="none"
           stroke-linecap="round"
           stroke-width="2.94409"
           points="2606.198242,1211.364380 2606.198242,1261.145020 2618.465088,1261.145020"
           id="polyline138"
           transform="translate(16,14)"
           style="stroke:#e5e5e5;stroke-width:5;stroke-dasharray:none;stroke-opacity:1" />
        <polyline
           stroke="#000000"
           stroke-opacity="1"
           fill="none"
           stroke-linecap="round"
           stroke-width="3.19092"
           points="2652.498291,870.935425 2620.801270,885.979858"
           id="polyline140"
           transform="translate(16,14)"
           style="stroke:#e5e5e5;stroke-width:5;stroke-dasharray:none;stroke-opacity:1" />
        <polyline
           stroke="#000000"
           stroke-opacity="1"
           fill="none"
           stroke-linecap="round"
           stroke-width="3.02197"
           points="2620.801270,885.979858 2633.392334,885.979858"
           id="polyline142"
           transform="translate(16,14)"
           style="stroke:#e5e5e5;stroke-width:5;stroke-dasharray:none;stroke-opacity:1" />
        <polyline
           stroke="#000000"
           stroke-opacity="1"
           fill="none"
           stroke-linecap="round"
           stroke-width="3.21802"
           points="2657.607910,593.434448 2616.293701,631.871094"
           id="polyline144"
           transform="translate(16,14)"
           style="stroke:#e5e5e5;stroke-width:5;stroke-dasharray:none;stroke-opacity:1" />
        <polyline
           stroke="#000000"
           stroke-opacity="1"
           fill="none"
           stroke-linecap="round"
           stroke-width="2.99805"
           points="2616.293701,631.871094 2628.784668,631.871094"
           id="polyline146"
           transform="translate(16,14)"
           style="stroke:#e5e5e5;stroke-width:5;stroke-dasharray:none;stroke-opacity:1" />
        <polyline
           stroke="#000000"
           stroke-opacity="1"
           fill="none"
           stroke-linecap="round"
           stroke-width="2.98071"
           points="2055.452148,492.497437 2584.356201,492.497437 2584.356201,480.077271"
           id="polyline148"
           transform="translate(16,14)"
           style="stroke:#e5e5e5;stroke-width:5;stroke-dasharray:none;stroke-opacity:1" />
        <polyline
           stroke="#000000"
           stroke-opacity="1"
           fill="none"
           stroke-linecap="round"
           stroke-width="3.2666"
           points="1441.263794,1870.384033 1499.402954,1802.505371 1487.083008,1802.505371"
           id="polyline150"
           transform="translate(16,14)"
           style="stroke:#e5e5e5;stroke-width:5;stroke-dasharray:none;stroke-opacity:1" />
        <polyline
           stroke="#000000"
           stroke-opacity="1"
           fill="none"
           stroke-linecap="round"
           stroke-width="2.97827"
           points="1899.545044,1816.879761 1721.112671,1816.879761 1721.112671,1829.288330"
           id="polyline152"
           transform="translate(16,14)"
           style="stroke:#e5e5e5;stroke-width:5;stroke-dasharray:none;stroke-opacity:1" />
        <polyline
           stroke="#000000"
           stroke-opacity="1"
           fill="none"
           stroke-linecap="round"
           stroke-width="3.15332"
           points="1571.255127,454.258179 1585.983887,475.637939"
           id="polyline154"
           transform="translate(16,14)"
           style="stroke:#e5e5e5;stroke-width:5;stroke-dasharray:none;stroke-opacity:1" />
        <polyline
           stroke="#000000"
           stroke-opacity="1"
           fill="none"
           stroke-linecap="round"
           stroke-width="3.05664"
           points="1585.983887,475.637939 1585.983887,462.901733"
           id="polyline156"
           transform="translate(16,14)"
           style="stroke:#e5e5e5;stroke-width:5;stroke-dasharray:none;stroke-opacity:1" />
        <polyline
           stroke="#000000"
           stroke-opacity="1"
           fill="none"
           stroke-linecap="round"
           stroke-width="2.97803"
           points="1495.440674,980.746582 1495.440674,665.165039 1483.032593,665.165039"
           id="polyline158"
           transform="translate(16,14)"
           style="stroke:#e5e5e5;stroke-width:5;stroke-dasharray:none;stroke-opacity:1" />
        <polyline
           stroke="#000000"
           stroke-opacity="1"
           fill="none"
           stroke-linecap="round"
           stroke-width="3.39697"
           points="2691.144287,1180.756104 2691.144287,1316.752563 2163.567871,1316.752563"
           id="polyline160"
           transform="translate(16,14)"
           style="stroke:#e5e5e5;stroke-width:5;stroke-dasharray:none;stroke-opacity:1" />
        <polyline
           stroke="#000000"
           stroke-opacity="1"
           fill="none"
           stroke-linecap="round"
           stroke-width="3.39673"
           points="2691.144287,1152.448486 2691.144287,836.159424 2022.889404,836.159424 2022.889404,1152.448486"
           id="polyline162"
           transform="translate(16,14)"
           style="stroke:#e5e5e5;stroke-width:5;stroke-dasharray:none;stroke-opacity:1" />
        <polyline
           stroke="#000000"
           stroke-opacity="1"
           fill="none"
           stroke-linecap="round"
           stroke-width="2.89453"
           points="2123.240967,1637.183838 2134.052002,1712.468262"
           id="polyline164"
           transform="translate(16,14)"
           style="stroke:#e5e5e5;stroke-width:5;stroke-dasharray:none;stroke-opacity:1" />
        <polyline
           stroke="#000000"
           stroke-opacity="1"
           fill="none"
           stroke-linecap="round"
           stroke-width="3.39697"
           points="2135.260254,1180.756104 2135.260254,1330.906372 2135.260254,1909.969238 1416.855469,1909.969238 1416.855469,1180.756104"
           id="polyline166"
           transform="translate(16,14)"
           style="stroke:#e5e5e5;stroke-width:5;stroke-dasharray:none;stroke-opacity:1" />
        <polyline
           stroke="#000000"
           stroke-opacity="1"
           fill="none"
           stroke-linecap="round"
           stroke-width="2.89453"
           points="2123.241211,1290.786377 2134.052002,1311.986938"
           id="polyline168"
           transform="translate(16,14)"
           style="stroke:#e5e5e5;stroke-width:5;stroke-dasharray:none;stroke-opacity:1" />
        <polyline
           stroke="#000000"
           stroke-opacity="1"
           fill="none"
           stroke-linecap="round"
           stroke-width="2.89453"
           points="2027.490967,641.628418 2027.490967,656.387207"
           id="polyline170"
           transform="translate(16,14)"
           style="stroke:#e5e5e5;stroke-width:5;stroke-dasharray:none;stroke-opacity:1" />
        <polyline
           stroke="#000000"
           stroke-opacity="1"
           fill="none"
           stroke-linecap="round"
           stroke-width="2.89453"
           points="2027.490967,656.387207 2027.660278,515.807861"
           id="polyline172"
           transform="translate(16,14)"
           style="stroke:#e5e5e5;stroke-width:5;stroke-dasharray:none;stroke-opacity:1" />
        <polyline
           stroke="#000000"
           stroke-opacity="1"
           fill="none"
           stroke-linecap="round"
           stroke-width="2.87598"
           points="2027.660278,807.851807 2027.660278,664.825073"
           id="polyline174"
           transform="translate(16,14)"
           style="stroke:#e5e5e5;stroke-width:5;stroke-dasharray:none;stroke-opacity:1" />
        <polyline
           stroke="#000000"
           stroke-opacity="1"
           fill="none"
           stroke-linecap="round"
           stroke-width="2.87598"
           points="2027.660278,664.825073 2027.490967,750.171021"
           id="polyline176"
           transform="translate(16,14)"
           style="stroke:#e5e5e5;stroke-width:5;stroke-dasharray:none;stroke-opacity:1" />
        <polyline
           stroke="#000000"
           stroke-opacity="1"
           fill="none"
           stroke-linecap="round"
           stroke-width="3.39697"
           points="2691.144287,807.851807 2691.144287,400.030762 2022.889404,400.030762 2022.889404,807.851807"
           id="polyline178"
           transform="translate(16,14)"
           style="stroke:#e5e5e5;stroke-width:5;stroke-dasharray:none;stroke-opacity:1" />
        <polyline
           stroke="#000000"
           stroke-opacity="1"
           fill="none"
           stroke-linecap="round"
           stroke-width="2.89429"
           points="2027.490967,1033.996216 2027.490967,1074.720703"
           id="polyline180"
           transform="translate(16,14)"
           style="stroke:#e5e5e5;stroke-width:5;stroke-dasharray:none;stroke-opacity:1" />
        <polyline
           stroke="#000000"
           stroke-opacity="1"
           fill="none"
           stroke-linecap="round"
           stroke-width="2.89453"
           points="2027.490967,1074.720703 2027.660278,885.054565"
           id="polyline182"
           transform="translate(16,14)"
           style="stroke:#e5e5e5;stroke-width:5;stroke-dasharray:none;stroke-opacity:1" />
        <polyline
           stroke="#000000"
           stroke-opacity="1"
           fill="none"
           stroke-linecap="round"
           stroke-width="2.87598"
           points="2027.660278,1152.448486 2027.660278,1083.078979"
           id="polyline184"
           transform="translate(16,14)"
           style="stroke:#e5e5e5;stroke-width:5;stroke-dasharray:none;stroke-opacity:1" />
        <polyline
           stroke="#000000"
           stroke-opacity="1"
           fill="none"
           stroke-linecap="round"
           stroke-width="2.87622"
           points="2027.660278,1083.078979 2027.490967,1142.538818"
           id="polyline186"
           transform="translate(16,14)"
           style="stroke:#e5e5e5;stroke-width:5;stroke-dasharray:none;stroke-opacity:1" />
        <polyline
           stroke="#000000"
           stroke-opacity="1"
           fill="none"
           stroke-linecap="round"
           stroke-width="2.87598"
           points="2593.436279,1152.448486 2593.436279,885.054565 2027.660278,885.054565 2022.889404,836.159424"
           id="polyline188"
           transform="translate(16,14)"
           style="stroke:#e5e5e5;stroke-width:5;stroke-dasharray:none;stroke-opacity:1" />
        <polyline
           stroke="#000000"
           stroke-opacity="1"
           fill="none"
           stroke-linecap="round"
           stroke-width="3.01001"
           points="2618.562256,1639.365479 2655.015381,1670.640259"
           id="polyline190"
           transform="translate(16,14)"
           style="stroke:#e5e5e5;stroke-width:5;stroke-dasharray:none;stroke-opacity:1" />
        <polyline
           stroke="#000000"
           stroke-opacity="1"
           fill="none"
           stroke-linecap="round"
           stroke-width="3.39697"
           points="2691.144287,1345.060059 2691.144287,1909.969238 2163.567871,1909.969238"
           id="polyline192"
           transform="translate(16,14)"
           style="stroke:#e5e5e5;stroke-width:5;stroke-dasharray:none;stroke-opacity:1" />
        <polyline
           stroke="#000000"
           stroke-opacity="1"
           fill="none"
           stroke-linecap="round"
           stroke-width="3.00366"
           points="2569.771484,1822.572510 2198.500000,1822.572510"
           id="polyline194"
           transform="translate(16,14)"
           style="stroke:#e5e5e5;stroke-width:5;stroke-dasharray:none;stroke-opacity:1" />
        <polyline
           stroke="#000000"
           stroke-opacity="1"
           fill="none"
           stroke-linecap="round"
           stroke-width="2.87598"
           points="2593.436279,1345.060059 2593.436279,1794.192261 2691.144287,1909.969238"
           id="polyline196"
           transform="translate(16,14)"
           style="stroke:#e5e5e5;stroke-width:5;stroke-dasharray:none;stroke-opacity:1" />
        <polyline
           stroke="#000000"
           stroke-opacity="1"
           fill="none"
           stroke-linecap="round"
           stroke-width="2.87573"
           points="2593.436279,1794.192261 2163.567871,1794.192261"
           id="polyline198"
           transform="translate(16,14)"
           style="stroke:#e5e5e5;stroke-width:5;stroke-dasharray:none;stroke-opacity:1" />
        <polyline
           stroke="#000000"
           stroke-opacity="1"
           fill="none"
           stroke-linecap="round"
           stroke-width="2.94409"
           points="2606.198242,1261.145020 2669.691162,1273.349854"
           id="polyline200"
           transform="translate(16,14)"
           style="stroke:#e5e5e5;stroke-width:5;stroke-dasharray:none;stroke-opacity:1" />
        <polyline
           stroke="#000000"
           stroke-opacity="1"
           fill="none"
           stroke-linecap="round"
           stroke-width="3.39673"
           points="2691.144287,1316.752563 2593.436279,1291.947266 2593.436279,1180.756104"
           id="polyline202"
           transform="translate(16,14)"
           style="stroke:#e5e5e5;stroke-width:5;stroke-dasharray:none;stroke-opacity:1" />
        <polyline
           stroke="#000000"
           stroke-opacity="1"
           fill="none"
           stroke-linecap="round"
           stroke-width="2.87598"
           points="2593.436279,1291.947266 2163.567871,1291.947266"
           id="polyline204"
           transform="translate(16,14)"
           style="stroke:#e5e5e5;stroke-width:5;stroke-dasharray:none;stroke-opacity:1" />
        <polyline
           stroke="#000000"
           stroke-opacity="1"
           fill="none"
           stroke-linecap="round"
           stroke-width="3.02197"
           points="2620.801270,885.979858 2620.801270,1138.111084"
           id="polyline206"
           transform="translate(16,14)"
           style="stroke:#e5e5e5;stroke-width:5;stroke-dasharray:none;stroke-opacity:1" />
        <polyline
           stroke="#000000"
           stroke-opacity="1"
           fill="none"
           stroke-linecap="round"
           stroke-width="2.99805"
           points="2616.293701,631.871094 2616.293701,705.486572"
           id="polyline208"
           transform="translate(16,14)"
           style="stroke:#e5e5e5;stroke-width:5;stroke-dasharray:none;stroke-opacity:1" />
        <polyline
           stroke="#000000"
           stroke-opacity="1"
           fill="none"
           stroke-linecap="round"
           stroke-width="3.39697"
           points="2691.144287,836.159424 2593.436279,885.054565"
           id="polyline210"
           transform="translate(16,14)"
           style="stroke:#e5e5e5;stroke-width:5;stroke-dasharray:none;stroke-opacity:1" />
        <polyline
           stroke="#000000"
           stroke-opacity="1"
           fill="none"
           stroke-linecap="round"
           stroke-width="2.98071"
           points="2584.356201,492.497437 2630.090088,435.368408"
           id="polyline212"
           transform="translate(16,14)"
           style="stroke:#e5e5e5;stroke-width:5;stroke-dasharray:none;stroke-opacity:1" />
        <polyline
           stroke="#000000"
           stroke-opacity="1"
           fill="none"
           stroke-linecap="round"
           stroke-width="3.39722"
           points="2691.144287,400.030762 2593.436279,515.807861 2593.436279,807.851807"
           id="polyline214"
           transform="translate(16,14)"
           style="stroke:#e5e5e5;stroke-width:5;stroke-dasharray:none;stroke-opacity:1" />
        <polyline
           stroke="#000000"
           stroke-opacity="1"
           fill="none"
           stroke-linecap="round"
           stroke-width="3.39722"
           points="2022.889404,400.030762 2027.660278,515.807861 2593.436279,515.807861"
           id="polyline216"
           transform="translate(16,14)"
           style="stroke:#e5e5e5;stroke-width:5;stroke-dasharray:none;stroke-opacity:1" />
        <polyline
           stroke="#000000"
           stroke-opacity="1"
           fill="none"
           stroke-linecap="round"
           stroke-width="2.95679"
           points="1499.402954,1802.505371 1499.402954,1187.070435"
           id="polyline218"
           transform="translate(16,14)"
           style="stroke:#e5e5e5;stroke-width:5;stroke-dasharray:none;stroke-opacity:1" />
        <polyline
           stroke="#000000"
           stroke-opacity="1"
           fill="none"
           stroke-linecap="round"
           stroke-width="2.97827"
           points="1721.112671,1816.879761 1691.696533,1875.367798"
           id="polyline220"
           transform="translate(16,14)"
           style="stroke:#e5e5e5;stroke-width:5;stroke-dasharray:none;stroke-opacity:1" />
        <polyline
           stroke="#000000"
           stroke-opacity="1"
           fill="none"
           stroke-linecap="round"
           stroke-width="3.39697"
           points="1416.855469,1909.969238 1514.563599,1794.192261 1514.563599,1180.756104"
           id="polyline222"
           transform="translate(16,14)"
           style="stroke:#e5e5e5;stroke-width:5;stroke-dasharray:none;stroke-opacity:1" />
        <polyline
           stroke="#000000"
           stroke-opacity="1"
           fill="none"
           stroke-linecap="round"
           stroke-width="2.87573"
           points="2122.798828,1794.192261 1514.563599,1794.192261"
           id="polyline224"
           transform="translate(16,14)"
           style="stroke:#e5e5e5;stroke-width:5;stroke-dasharray:none;stroke-opacity:1" />
        <polyline
           stroke="#000000"
           stroke-opacity="1"
           fill="none"
           stroke-linecap="round"
           stroke-width="3.05664"
           points="1585.983887,475.637939 1895.211426,475.637939"
           id="polyline226"
           transform="translate(16,14)"
           style="stroke:#e5e5e5;stroke-width:5;stroke-dasharray:none;stroke-opacity:1" />
        <polyline
           stroke="#000000"
           stroke-opacity="1"
           fill="none"
           stroke-linecap="round"
           stroke-width="3.39673"
           points="1416.855469,1152.448486 1416.855469,400.030762 1994.581787,400.030762"
           id="polyline228"
           transform="translate(16,14)"
           style="stroke:#e5e5e5;stroke-width:5;stroke-dasharray:none;stroke-opacity:1" />
        <polyline
           stroke="#000000"
           stroke-opacity="1"
           fill="none"
           stroke-linecap="round"
           stroke-width="2.97803"
           points="1495.440674,665.165039 1446.028931,621.832764"
           id="polyline230"
           transform="translate(16,14)"
           style="stroke:#e5e5e5;stroke-width:5;stroke-dasharray:none;stroke-opacity:1" />
        <polyline
           stroke="#000000"
           stroke-opacity="1"
           fill="none"
           stroke-linecap="round"
           stroke-width="3.39722"
           points="1416.855469,400.030762 1514.563599,515.807861 1994.581787,515.807861"
           id="polyline232"
           transform="translate(16,14)"
           style="stroke:#e5e5e5;stroke-width:5;stroke-dasharray:none;stroke-opacity:1" />
        <polyline
           stroke="#000000"
           stroke-opacity="1"
           fill="none"
           stroke-linecap="round"
           stroke-width="2.87598"
           points="1514.563599,1152.448486 1514.563599,515.807861"
           id="polyline234"
           transform="translate(16,14)"
           style="stroke:#e5e5e5;stroke-width:5;stroke-dasharray:none;stroke-opacity:1" />
        <polyline
           stroke="#000000"
           stroke-opacity="1"
           fill="none"
           stroke-linecap="round"
           stroke-width="3.10547"
           points="2388.249023,1591.724609 2388.328369,1591.689209 2387.844238,1586.830078 2386.898926,1583.412598"
           id="polyline236"
           transform="translate(16,14)"
           style="stroke:#e5e5e5;stroke-width:5;stroke-dasharray:none;stroke-opacity:1" />
        <polyline
           stroke="#000000"
           stroke-opacity="1"
           fill="none"
           stroke-linecap="round"
           stroke-width="3.104"
           points="2387.500977,1236.599243 2387.652588,1236.677246 2387.913574,1241.483398 2387.505127,1244.770508"
           id="polyline238"
           transform="translate(16,14)"
           style="stroke:#e5e5e5;stroke-width:5;stroke-dasharray:none;stroke-opacity:1" />
        <polyline
           stroke="#000000"
           stroke-opacity="1"
           fill="none"
           stroke-linecap="round"
           stroke-width="3.10522"
           points="1806.769775,1516.821777 1806.713013,1516.762695 1807.533081,1511.846802 1805.505859,1507.337646 1798.424561,1504.670654 1795.119995,1504.517212"
           id="polyline240"
           transform="translate(16,14)"
           style="stroke:#e5e5e5;stroke-width:5;stroke-dasharray:none;stroke-opacity:1" />
        <polyline
           stroke="#000000"
           stroke-opacity="1"
           fill="none"
           stroke-linecap="round"
           stroke-width="3.10425"
           points="2322.294922,1005.963867 2322.421875,1005.953369 2324.070557,1010.444336 2324.411377,1013.867188"
           id="polyline242"
           transform="translate(16,14)"
           style="stroke:#e5e5e5;stroke-width:5;stroke-dasharray:none;stroke-opacity:1" />
        <polyline
           stroke="#000000"
           stroke-opacity="1"
           fill="none"
           stroke-linecap="round"
           stroke-width="3.10522"
           points="2323.229736,647.457886 2323.268799,647.468506 2323.766602,652.385498 2323.406738,655.887695"
           id="polyline244"
           transform="translate(16,14)"
           style="stroke:#e5e5e5;stroke-width:5;stroke-dasharray:none;stroke-opacity:1" />
        <polyline
           stroke="#000000"
           stroke-opacity="1"
           fill="none"
           stroke-linecap="round"
           stroke-width="3.10547"
           points="1732.264771,816.559570 1732.332397,816.434570 1740.129517,814.043823 1742.918823,809.478027 1742.156006,804.652344 1741.448120,802.383545"
           id="polyline246"
           transform="translate(16,14)"
           style="stroke:#e5e5e5;stroke-width:5;stroke-dasharray:none;stroke-opacity:1" />
        <polyline
           stroke="#000000"
           stroke-opacity="1"
           fill="none"
           stroke-linecap="round"
           stroke-width="3.13477"
           points="2655.015381,1659.434570 2649.152344,1654.513794 2631.103760,1639.365479 2631.103760,1573.686768 2631.103760,1515.850098"
           id="polyline248"
           transform="translate(16,14)"
           style="stroke:#e5e5e5;stroke-width:5;stroke-dasharray:none;stroke-opacity:1" />
        <polyline
           stroke="#000000"
           stroke-opacity="1"
           fill="none"
           stroke-linecap="round"
           stroke-width="3.00366"
           points="2201.208740,1835.087891 2384.135742,1835.087891 2569.771484,1835.087891 2587.011230,1857.819946 2595.295654,1868.743530"
           id="polyline250"
           transform="translate(16,14)"
           style="stroke:#e5e5e5;stroke-width:5;stroke-dasharray:none;stroke-opacity:1" />
        <polyline
           stroke="#000000"
           stroke-opacity="1"
           fill="none"
           stroke-linecap="round"
           stroke-width="3.21118"
           points="2669.691162,1270.777832 2649.152344,1266.915649 2618.465088,1261.145020 2618.465088,1236.254761 2618.465088,1212.616577"
           id="polyline252"
           transform="translate(16,14)"
           style="stroke:#e5e5e5;stroke-width:5;stroke-dasharray:none;stroke-opacity:1" />
        <polyline
           stroke="#000000"
           stroke-opacity="1"
           fill="none"
           stroke-linecap="round"
           stroke-width="3.02197"
           points="2633.392334,1137.735840 2633.392334,1012.045410 2633.392334,885.979858 2649.152344,878.662231 2652.498291,877.108521"
           id="polyline254"
           transform="translate(16,14)"
           style="stroke:#e5e5e5;stroke-width:5;stroke-dasharray:none;stroke-opacity:1" />
        <polyline
           stroke="#000000"
           stroke-opacity="1"
           fill="none"
           stroke-linecap="round"
           stroke-width="2.99805"
           points="2628.784668,695.500977 2628.784668,668.678711 2628.784668,631.871094 2649.152344,613.333740 2657.607910,605.638184"
           id="polyline256"
           transform="translate(16,14)"
           style="stroke:#e5e5e5;stroke-width:5;stroke-dasharray:none;stroke-opacity:1" />
        <polyline
           stroke="#000000"
           stroke-opacity="1"
           fill="none"
           stroke-linecap="round"
           stroke-width="3.17798"
           points="2619.488525,435.368286 2606.277832,452.180054 2584.356201,480.077271 2319.904297,480.077271 2055.479492,480.077271"
           id="polyline258"
           transform="translate(16,14)"
           style="stroke:#e5e5e5;stroke-width:5;stroke-dasharray:none;stroke-opacity:1" />
        <polyline
           stroke="#000000"
           stroke-opacity="1"
           fill="none"
           stroke-linecap="round"
           stroke-width="2.95679"
           points="1487.083008,1187.782837 1487.083008,1494.787842 1487.083008,1802.505371 1458.847656,1834.754395 1441.263916,1854.837646"
           id="polyline260"
           transform="translate(16,14)"
           style="stroke:#e5e5e5;stroke-width:5;stroke-dasharray:none;stroke-opacity:1" />
        <polyline
           stroke="#000000"
           stroke-opacity="1"
           fill="none"
           stroke-linecap="round"
           stroke-width="3.18164"
           points="1698.363770,1875.367920 1707.026978,1857.819946 1721.112671,1829.288330 1810.328857,1829.288330 1896.649414,1829.288330"
           id="polyline262"
           transform="translate(16,14)"
           style="stroke:#e5e5e5;stroke-width:5;stroke-dasharray:none;stroke-opacity:1" />
        <polyline
           stroke="#000000"
           stroke-opacity="1"
           fill="none"
           stroke-linecap="round"
           stroke-width="3.05664"
           points="1892.234619,462.901733 1740.597656,462.901733 1585.983887,462.901733 1580.138916,454.257935"
           id="polyline264"
           transform="translate(16,14)"
           style="stroke:#e5e5e5;stroke-width:5;stroke-dasharray:none;stroke-opacity:1" />
        <polyline
           stroke="#000000"
           stroke-opacity="1"
           fill="none"
           stroke-linecap="round"
           stroke-width="3.1709"
           points="1446.028931,633.419434 1458.847656,644.416626 1483.032593,665.165039 1483.032593,822.955811 1483.032593,976.875610"
           id="polyline266"
           transform="translate(16,14)"
           style="stroke:#e5e5e5;stroke-width:5;stroke-dasharray:none;stroke-opacity:1" />
      </g>
    </g>
  </g>
</svg>
