<?xml version="1.0" encoding="UTF-8" standalone="no"?>
<svg
   width="166.35699mm"
   height="159.91701mm"
   version="1.1"
   id="svg94"
   sodipodi:docname="outline.svg"
   inkscape:version="1.3 (0e150ed6c4, 2023-07-21)"
   inkscape:export-filename="outline.pdf"
   inkscape:export-xdpi="400"
   inkscape:export-ydpi="400"
   xmlns:inkscape="http://www.inkscape.org/namespaces/inkscape"
   xmlns:sodipodi="http://sodipodi.sourceforge.net/DTD/sodipodi-0.dtd"
   xmlns="http://www.w3.org/2000/svg"
   xmlns:svg="http://www.w3.org/2000/svg">
  <sodipodi:namedview
     id="namedview96"
     pagecolor="#121212"
     bordercolor="#666666"
     borderopacity="1.0"
     inkscape:pageshadow="2"
     inkscape:pageopacity="0.0"
     inkscape:pagecheckerboard="0"
     inkscape:document-units="mm"
     showgrid="false"
     fit-margin-top="0"
     fit-margin-left="0"
     fit-margin-right="0"
     fit-margin-bottom="0"
     inkscape:zoom="0.89571168"
     inkscape:cx="299.20342"
     inkscape:cy="229.98472"
     inkscape:window-width="1920"
     inkscape:window-height="1043"
     inkscape:window-x="0"
     inkscape:window-y="0"
     inkscape:window-maximized="1"
     inkscape:current-layer="svg94"
     inkscape:showpageshadow="2"
     inkscape:deskcolor="#d1d1d1"
     showguides="true" />
  <defs
     id="defs2" />
  <path
     id="rect1"
     style="fill:#35b996;stroke:#e5e5e5;stroke-width:3.77952756;stroke-linecap:round;stroke-linejoin:round;stroke-miterlimit:10;stroke-dasharray:none;fill-opacity:1;stroke-opacity:1"
     d="M 8.43455,31.125447 621.5661,8.766739 549.7583,597.5707 78.50475,423.40817 Z"
     sodipodi:nodetypes="ccccc" />
  <g
     id="text50-5"
     style="font-size:33.7919px;fill:#e5e5e5;stroke-width:1.152"
     aria-label="84.7 m2">
    <path
       style="text-align:center;text-anchor:middle"
       d="m 269.38117,260.5508 q -2.37599,0 -3.74549,1.2705 -1.35299,1.27049 -1.35299,3.49799 0,2.22749 1.35299,3.49799 1.3695,1.27049 3.74549,1.27049 2.37599,0 3.74549,-1.27049 1.3695,-1.287 1.3695,-3.49799 0,-2.2275 -1.3695,-3.49799 -1.353,-1.2705 -3.74549,-1.2705 z m -3.33299,-1.41899 q -2.14499,-0.528 -3.34949,-1.9965 -1.188,-1.46849 -1.188,-3.58049 0,-2.95349 2.0955,-4.66948 2.11199,-1.716 5.77498,-1.716 3.67949,0 5.77498,1.716 2.0955,1.71599 2.0955,4.66948 0,2.112 -1.2045,3.58049 -1.188,1.4685 -3.31649,1.9965 2.40899,0.56099 3.74549,2.19449 1.353,1.63349 1.353,3.99299 0,3.58049 -2.1945,5.49448 -2.17799,1.914 -6.25348,1.914 -4.07549,0 -6.26998,-1.914 -2.17799,-1.91399 -2.17799,-5.49448 0,-2.3595 1.35299,-3.99299 1.353,-1.6335 3.76199,-2.19449 z m -1.221,-5.26349 q 0,1.914 1.188,2.98649 1.2045,1.0725 3.36599,1.0725 2.14499,0 3.34949,-1.0725 1.221,-1.07249 1.221,-2.98649 0,-1.91399 -1.221,-2.98649 -1.2045,-1.0725 -3.34949,-1.0725 -2.16149,0 -3.36599,1.0725 -1.188,1.0725 -1.188,2.98649 z m 28.08292,-3.34949 -8.41497,13.15046 h 8.41497 z m -0.8745,-2.90399 h 4.19099 v 16.05445 h 3.51449 v 2.77199 h -3.51449 v 5.80799 h -3.31649 v -5.80799 h -11.12097 v -3.21749 z m 13.21647,20.44344 h 3.48149 v 4.19099 h -3.48149 z m 9.89997,-20.44344 h 15.83995 v 1.419 l -8.94297,23.21543 h -3.48149 l 8.41497,-21.82944 h -11.83046 z m 47.04136,9.70197 q 1.13849,-2.04599 2.72249,-3.01949 1.58399,-0.9735 3.72899,-0.9735 2.88749,0 4.45499,2.0295 1.56749,2.01299 1.56749,5.74198 v 11.15397 h -3.05249 V 261.1943 q 0,-2.65649 -0.9405,-3.94349 -0.94049,-1.28699 -2.87099,-1.28699 -2.35949,0 -3.72899,1.56749 -1.36949,1.5675 -1.36949,4.27349 v 10.44447 h -3.05249 V 261.1943 q 0,-2.67299 -0.9405,-3.94349 -0.9405,-1.28699 -2.90399,-1.28699 -2.3265,0 -3.69599,1.58399 -1.3695,1.5675 -1.3695,4.25699 v 10.44447 h -3.05249 v -18.47995 h 3.05249 v 2.87099 q 1.0395,-1.69949 2.49149,-2.50799 1.452,-0.8085 3.44849,-0.8085 2.013,0 3.41549,1.023 1.419,1.023 2.0955,2.96999 z"
       id="path1" />
    <path
       style="font-size:21.5041px;baseline-shift:super"
       d="m 381.66487,256.9475 h 7.40254 v 1.78501 h -9.95405 v -1.78501 q 1.20751,-1.24951 3.28652,-3.34952 2.08951,-2.11051 2.62501,-2.71951 1.0185,-1.1445 1.41751,-1.93201 0.4095,-0.798 0.4095,-1.56451 0,-1.2495 -0.88201,-2.03701 -0.8715,-0.7875 -2.27851,-0.7875 -0.9975,0 -2.11051,0.3465 -1.1025,0.3465 -2.36251,1.05001 v -2.14201 q 1.28101,-0.5145 2.39401,-0.77701 1.11301,-0.2625 2.03701,-0.2625 2.43601,0 3.88502,1.21801 1.44901,1.218 1.44901,3.25501 0,0.96601 -0.3675,1.83751 -0.35701,0.86101 -1.31251,2.03701 -0.2625,0.3045 -1.66951,1.76401 -1.40701,1.44901 -3.96902,4.06352 z"
       id="path2" />
  </g>
</svg>
