<?xml version="1.0" encoding="UTF-8" standalone="no"?>
<!-- Generator: Blender, SVG Export for Grease Pencil - v1.0 -->

<svg
   version="1.0"
   x="0px"
   y="0px"
   width="1554.153"
   height="1941.449"
   viewBox="0 0 1554.153 1941.449"
   id="svg419"
   sodipodi:docname="window_generation3.svg"
   inkscape:version="1.2.2 (b0a8486541, 2022-12-01)"
   inkscape:export-filename="window_generation3.pdf"
   inkscape:export-xdpi="400"
   inkscape:export-ydpi="400"
   xmlns:inkscape="http://www.inkscape.org/namespaces/inkscape"
   xmlns:sodipodi="http://sodipodi.sourceforge.net/DTD/sodipodi-0.dtd"
   xmlns="http://www.w3.org/2000/svg"
   xmlns:svg="http://www.w3.org/2000/svg">
  <defs
     id="defs423" />
  <sodipodi:namedview
     id="namedview421"
     pagecolor="#ffffff"
     bordercolor="#666666"
     borderopacity="1.0"
     inkscape:pageshadow="2"
     inkscape:pageopacity="0.0"
     inkscape:pagecheckerboard="0"
     showgrid="false"
     fit-margin-top="0"
     fit-margin-left="0"
     fit-margin-right="0"
     fit-margin-bottom="0"
     inkscape:zoom="0.30865801"
     inkscape:cx="980.04909"
     inkscape:cy="1035.1262"
     inkscape:window-width="1920"
     inkscape:window-height="1043"
     inkscape:window-x="0"
     inkscape:window-y="0"
     inkscape:window-maximized="1"
     inkscape:current-layer="Lines"
     inkscape:showpageshadow="2"
     inkscape:deskcolor="#d1d1d1" />
  <g
     id="blender_frame_374"
     transform="translate(-1336.5022,-176.68415)">
    <g
       id="blender_object_Line Art">
      <!--Layer: Lines-->
      <g
         id="Lines">
        <path
           id="polyline50"
           style="fill:#73e6c8;fill-opacity:1;stroke:#000000;stroke-width:3.2;stroke-dasharray:none;stroke-opacity:1"
           d="m 2177.4866,208.77009 -274.6485,286.6289 -321.2441,30.62696 -209.2109,533.51755 157.4746,269.5078 -20.7364,255.6055 3.6954,300.9121 686.1542,204.6699 139.1622,-120.5332 408.7304,-446.0527 109.752,-475.5977 -245.2949,-54.2265 -69.7559,-312.1133 42.2715,-265.71875 z m -99.8711,166.63672 0.9961,77.54882 -47.8985,49.98047 -6.0683,-72.24609 z m 458.3808,134.9375 -20.1953,126.95117 -31.3086,40.08203 -10.914,2.49023 16.1308,-99.81836 z m -981.9902,246.39453 35.0859,28.14062 -48.9453,123.02344 -37.9004,-19.16992 z m 977.6563,51.82031 21.3808,95.66797 -50.0605,30.22461 -19.1524,-85.3086 z m 80.164,222.24025 142.6035,31.5254 -44.7382,8.2344 -132.1524,-29.6661 z m -1124.8515,102.4707 13.1875,1.1348 63.2851,108.8496 -11.4648,1.2734 z m 1266.207,44.873 -46.6856,202.3008 -17.8593,-5.6445 44.5429,-196.4512 z m -1161.8379,185.7715 4.3359,0.3457 -10.7754,134.6992 -4.7578,2.9688 z m 1049.6953,146.4746 8.7109,5.125 -146.5097,152.4219 -6.8633,-6.5957 z m -1041.5918,126.5508 0.6504,52.832 -41.584,42.8848 -0.7012,-57.2012 z m 810.1309,91.9512 26.9414,45.5664 -71.916,82.8965 -22.3184,-50.9727 z m -186.6602,175.4355 73.4141,51.0723 -85.4082,73.9746 -14.8614,-102.0762 z" />
        <polyline
           stroke="#000000"
           stroke-opacity="1"
           fill="none"
           stroke-linecap="round"
           stroke-width="3.34668"
           points="1555.264771,1543.000244 1679.597290,1560.012695 1730.159302,1505.316895"
           id="polyline2"
           transform="translate(34,30)" />
        <polyline
           stroke="#000000"
           stroke-opacity="1"
           fill="none"
           stroke-linecap="round"
           stroke-width="3.34644"
           points="1984.005615,1476.140259 2091.062500,1410.669434 2086.057373,1376.142090"
           id="polyline4"
           transform="translate(34,30)" />
        <polyline
           stroke="#000000"
           stroke-opacity="1"
           fill="none"
           stroke-linecap="round"
           stroke-width="2.89429"
           points="2361.534180,1076.912842 2409.550049,1064.721069 2512.510742,992.979980"
           id="polyline6"
           transform="translate(34,30)" />
        <polyline
           stroke="#000000"
           stroke-opacity="1"
           fill="none"
           stroke-linecap="round"
           stroke-width="2.89453"
           points="1882.212524,1090.482056 1855.390991,1080.408813 1751.760620,1151.182251"
           id="polyline8"
           transform="translate(34,30)" />
        <polyline
           stroke="#000000"
           stroke-opacity="1"
           fill="none"
           stroke-linecap="round"
           stroke-width="3.34644"
           points="2019.678833,814.532104 1969.755859,929.663940 1981.132812,960.094971"
           id="polyline10"
           transform="translate(34,30)" />
        <polyline
           stroke="#000000"
           stroke-opacity="1"
           fill="none"
           stroke-linecap="round"
           stroke-width="2.89453"
           points="1983.359131,756.272461 1972.329834,694.018188 1912.956421,583.462769"
           id="polyline12"
           transform="translate(34,30)" />
        <polyline
           stroke="#000000"
           stroke-opacity="1"
           fill="none"
           stroke-linecap="round"
           stroke-width="2.94678"
           points="1577.541748,1595.752563 1523.811890,1645.456055 1524.684570,1716.527100"
           id="polyline14"
           transform="translate(34,30)" />
        <polyline
           stroke="#000000"
           stroke-opacity="1"
           fill="none"
           stroke-linecap="round"
           stroke-width="3.35083"
           points="2170.352539,2005.064453 2262.331787,1925.398071 2262.183350,1924.849121"
           id="polyline16"
           transform="translate(34,30)" />
        <polyline
           stroke="#000000"
           stroke-opacity="1"
           fill="none"
           stroke-linecap="round"
           stroke-width="3.26953"
           points="2325.112305,1833.684326 2402.519775,1744.457520 2368.959473,1687.696533"
           id="polyline18"
           transform="translate(34,30)" />
        <polyline
           stroke="#000000"
           stroke-opacity="1"
           fill="none"
           stroke-linecap="round"
           stroke-width="3.16089"
           points="2467.709229,1639.530640 2617.897705,1483.280762"
           id="polyline20"
           transform="translate(34,30)" />
        <polyline
           stroke="#000000"
           stroke-opacity="1"
           fill="none"
           stroke-linecap="round"
           stroke-width="3.18384"
           points="2672.252686,1351.502930 2719.880615,1145.110962"
           id="polyline22"
           transform="translate(34,30)" />
        <polyline
           stroke="#000000"
           stroke-opacity="1"
           fill="none"
           stroke-linecap="round"
           stroke-width="3.30103"
           points="2751.555420,1039.205078 2577.825928,1000.799683 2536.942871,1012.834473"
           id="polyline24"
           transform="translate(34,30)" />
        <polyline
           stroke="#000000"
           stroke-opacity="1"
           fill="none"
           stroke-linecap="round"
           stroke-width="3.04858"
           points="1575.041992,1327.537964 1557.343140,1333.913696 1545.360718,1481.619629"
           id="polyline26"
           transform="translate(34,30)" />
        <polyline
           stroke="#000000"
           stroke-opacity="1"
           fill="none"
           stroke-linecap="round"
           stroke-width="2.90063"
           points="2458.035156,911.061279 2519.043701,874.226929 2496.074219,771.452637"
           id="polyline28"
           transform="translate(34,30)" />
        <polyline
           stroke="#000000"
           stroke-opacity="1"
           fill="none"
           stroke-linecap="round"
           stroke-width="3.11035"
           points="2450.492676,647.377563 2481.800537,607.294556 2506.874023,449.682495"
           id="polyline30"
           transform="translate(34,30)" />
        <polyline
           stroke="#000000"
           stroke-opacity="1"
           fill="none"
           stroke-linecap="round"
           stroke-width="3.31006"
           points="2053.320312,335.279907 1990.643921,400.690186 1998.071411,489.119385"
           id="polyline32"
           transform="translate(34,30)" />
        <polyline
           stroke="#000000"
           stroke-opacity="1"
           fill="none"
           stroke-linecap="round"
           stroke-width="3.24683"
           points="1521.505127,722.915405 1468.246582,858.732544 1517.543579,883.666382"
           id="polyline34"
           transform="translate(34,30)" />
        <polyline
           stroke="#000000"
           stroke-opacity="1"
           fill="none"
           stroke-linecap="round"
           stroke-width="3.18091"
           points="1448.307861,1095.283569 1517.983032,1214.528564 1543.322998,1211.714355"
           id="polyline36"
           transform="translate(34,30)" />
        <polyline
           stroke="#000000"
           stroke-opacity="1"
           fill="none"
           stroke-linecap="round"
           stroke-width="3.39697"
           points="1503.637451,1571.393799 1810.509644,1613.383545 2271.016357,1930.940063"
           id="polyline38"
           transform="translate(34,30)" />
        <polyline
           stroke="#000000"
           stroke-opacity="1"
           fill="none"
           stroke-linecap="round"
           stroke-width="3.39697"
           points="2459.519043,1717.395996 2143.102783,1416.226685 1841.733521,1600.529541"
           id="polyline40"
           transform="translate(34,30)" />
        <polyline
           stroke="#000000"
           stroke-opacity="1"
           fill="none"
           stroke-linecap="round"
           stroke-width="3.39697"
           points="2568.474121,990.864380 2223.445557,1231.273315 2161.553467,1394.708008"
           id="polyline42"
           transform="translate(34,30)" />
        <polyline
           stroke="#000000"
           stroke-opacity="1"
           fill="none"
           stroke-linecap="round"
           stroke-width="3.39673"
           points="2211.593994,1205.029907 1929.384277,1016.434814"
           id="polyline44"
           transform="translate(34,30)" />
        <polyline
           stroke="#000000"
           stroke-opacity="1"
           fill="none"
           stroke-linecap="round"
           stroke-width="3.39673"
           points="2009.967651,759.438477 1900.341187,1012.258057 1514.884399,1275.502563"
           id="polyline46"
           transform="translate(34,30)" />
        <polyline
           stroke="#000000"
           stroke-opacity="1"
           fill="none"
           stroke-linecap="round"
           stroke-width="3.39673"
           points="2480.686768,640.491089 2033.047119,742.583252 1892.754883,481.354492"
           id="polyline48"
           transform="translate(34,30)" />
        <polyline
           stroke="#000000"
           stroke-opacity="1"
           fill="none"
           stroke-linecap="round"
           stroke-width="3.16064"
           points="1994.765991,1469.559814 1999.754639,1443.067139"
           id="polyline52"
           transform="translate(34,30)" />
        <polyline
           stroke="#000000"
           stroke-opacity="1"
           fill="none"
           stroke-linecap="round"
           stroke-width="2.89453"
           points="2069.173340,1400.599365 2087.938477,1389.119385"
           id="polyline54"
           transform="translate(34,30)" />
        <polyline
           stroke="#000000"
           stroke-opacity="1"
           fill="none"
           stroke-linecap="round"
           stroke-width="3.24854"
           points="1568.098877,1544.756348 1621.016724,1502.309326 1667.133423,1508.830811"
           id="polyline56"
           transform="translate(34,30)" />
        <polyline
           stroke="#000000"
           stroke-opacity="1"
           fill="none"
           stroke-linecap="round"
           stroke-width="2.89453"
           points="1677.089233,1510.238770 1719.999756,1516.306885"
           id="polyline58"
           transform="translate(34,30)" />
        <polyline
           stroke="#000000"
           stroke-opacity="1"
           fill="none"
           stroke-linecap="round"
           stroke-width="2.89429"
           points="2457.519531,1024.805298 2474.870605,1019.207031"
           id="polyline60"
           transform="translate(34,30)" />
        <polyline
           stroke="#000000"
           stroke-opacity="1"
           fill="none"
           stroke-linecap="round"
           stroke-width="3.0918"
           points="1767.309326,1140.563354 1785.604126,1141.484619 1814.158569,1122.219116"
           id="polyline62"
           transform="translate(34,30)" />
        <polyline
           stroke="#000000"
           stroke-opacity="1"
           fill="none"
           stroke-linecap="round"
           stroke-width="2.89453"
           points="1821.613403,1117.189331 1868.712158,1085.411865"
           id="polyline64"
           transform="translate(34,30)" />
        <polyline
           stroke="#000000"
           stroke-opacity="1"
           fill="none"
           stroke-linecap="round"
           stroke-width="2.89429"
           points="1991.658569,905.505005 1997.388062,892.327026"
           id="polyline66"
           transform="translate(34,30)" />
        <polyline
           stroke="#000000"
           stroke-opacity="1"
           fill="none"
           stroke-linecap="round"
           stroke-width="2.89429"
           points="2000.725830,884.650146 2013.297852,855.734619 2010.555542,835.572021"
           id="polyline68"
           transform="translate(34,30)" />
        <polyline
           stroke="#000000"
           stroke-opacity="1"
           fill="none"
           stroke-linecap="round"
           stroke-width="2.89478"
           points="1952.105591,672.420166 1942.738892,654.882446 1936.675781,627.629395"
           id="polyline70"
           transform="translate(34,30)" />
        <polyline
           stroke="#000000"
           stroke-opacity="1"
           fill="none"
           stroke-linecap="round"
           stroke-width="2.95459"
           points="2308.284912,1776.381104 2375.578613,1698.891479"
           id="polyline72"
           transform="translate(34,30)" />
        <polyline
           stroke="#000000"
           stroke-opacity="1"
           fill="none"
           stroke-linecap="round"
           stroke-width="3.28857"
           points="2176.923584,1999.373047 2162.062988,1897.294312 2188.917480,1874.326416"
           id="polyline74"
           transform="translate(34,30)" />
        <polyline
           stroke="#000000"
           stroke-opacity="1"
           fill="none"
           stroke-linecap="round"
           stroke-width="2.94678"
           points="1565.447632,1606.940430 1565.975952,1659.772705 1524.514038,1702.657349"
           id="polyline76"
           transform="translate(34,30)" />
        <polyline
           stroke="#000000"
           stroke-opacity="1"
           fill="none"
           stroke-linecap="round"
           stroke-width="3.14014"
           points="2720.429199,1032.324097 2675.690186,1040.559570 2543.538574,1010.892944"
           id="polyline78"
           transform="translate(34,30)" />
        <polyline
           stroke="#000000"
           stroke-opacity="1"
           fill="none"
           stroke-linecap="round"
           stroke-width="3.11816"
           points="2672.497070,1350.443726 2654.619629,1344.794556 2699.174316,1148.348633 2719.181152,1148.142334"
           id="polyline80"
           transform="translate(34,30)" />
        <polyline
           stroke="#000000"
           stroke-opacity="1"
           fill="none"
           stroke-linecap="round"
           stroke-width="3.0957"
           points="2468.603271,1638.600586 2462.377197,1631.338623 2607.038330,1480.388184 2615.750732,1485.514404"
           id="polyline82"
           transform="translate(34,30)" />
        <polyline
           stroke="#000000"
           stroke-opacity="1"
           fill="none"
           stroke-linecap="round"
           stroke-width="3.04883"
           points="1561.837769,1332.294678 1550.904541,1468.959351 1546.146973,1471.928467"
           id="polyline84"
           transform="translate(34,30)" />
        <polyline
           stroke="#000000"
           stroke-opacity="1"
           fill="none"
           stroke-linecap="round"
           stroke-width="2.90039"
           points="2459.851318,863.779663 2449.830811,819.143555 2497.662354,778.559082"
           id="polyline86"
           transform="translate(34,30)" />
        <polyline
           stroke="#000000"
           stroke-opacity="1"
           fill="none"
           stroke-linecap="round"
           stroke-width="2.88745"
           points="2439.577393,649.866943 2455.709473,550.049927 2501.996094,480.345215"
           id="polyline88"
           transform="translate(34,30)" />
        <polyline
           stroke="#000000"
           stroke-opacity="1"
           fill="none"
           stroke-linecap="round"
           stroke-width="3.23145"
           points="2043.616211,345.407227 2044.610840,422.955566 1996.712158,472.936890"
           id="polyline90"
           transform="translate(34,30)" />
        <polyline
           stroke="#000000"
           stroke-opacity="1"
           fill="none"
           stroke-linecap="round"
           stroke-width="3.09839"
           points="1452.974731,1103.270508 1466.161987,1104.405640 1529.446777,1213.255493"
           id="polyline92"
           transform="translate(34,30)" />
        <polyline
           stroke="#000000"
           stroke-opacity="1"
           fill="none"
           stroke-linecap="round"
           stroke-width="3.18286"
           points="1520.005737,726.739380 1555.092407,754.878784 1506.147583,877.902466"
           id="polyline94"
           transform="translate(34,30)" />
        <polyline
           stroke="#000000"
           stroke-opacity="1"
           fill="none"
           stroke-linecap="round"
           stroke-width="3.10791"
           points="1705.754150,1599.049561 1706.463257,1599.770752 1710.886108,1604.267578 1715.308716,1608.764282 1719.731323,1613.260742 1724.153809,1617.757324 1728.576050,1622.253540 1732.998169,1626.749756 1737.420288,1631.245850 1741.842163,1635.741699 1746.263916,1640.237549 1750.685669,1644.733154 1755.107178,1649.228760 1759.528442,1653.724121 1763.949829,1658.219360 1768.370850,1662.714355 1772.791870,1667.209351 1777.212769,1671.704224 1781.633423,1676.198975 1786.053955,1680.693604 1790.474609,1685.187988 1794.894897,1689.682251 1799.314941,1694.176514 1803.735107,1698.670410 1808.155029,1703.164551 1812.574951,1707.658203 1816.994507,1712.151978 1821.414062,1716.645386 1825.833496,1721.138672 1830.252808,1725.632202 1834.671997,1730.125244 1839.090942,1734.618164 1843.509888,1739.111084 1846.250977,1741.895020"
           id="polyline96"
           transform="translate(34,30)" />
        <polyline
           stroke="#000000"
           stroke-opacity="1"
           fill="none"
           stroke-linecap="round"
           stroke-width="3.10205"
           points="1852.091675,1735.734375 1851.472290,1735.101074 1847.060425,1730.614990 1842.648315,1726.129150 1838.236206,1721.643066 1833.823975,1717.156616 1829.411621,1712.670166 1824.999146,1708.183594 1820.586426,1703.697021 1816.173706,1699.210083 1811.760742,1694.723145 1807.347778,1690.236084 1802.934570,1685.749023 1798.521240,1681.261475 1794.107910,1676.774170 1789.694214,1672.286621 1785.280640,1667.798828 1780.866821,1663.310913 1776.452881,1658.822876 1772.038818,1654.334717 1767.624512,1649.846436 1763.210205,1645.358154 1758.795898,1640.869507 1754.381104,1636.380859 1749.966553,1631.892090 1745.551636,1627.403076 1741.136597,1622.914062 1736.721436,1618.424805 1732.306152,1613.935547 1727.890869,1609.446045 1723.475342,1604.956543 1719.518188,1600.933105"
           id="polyline98"
           transform="translate(34,30)" />
        <polyline
           stroke="#000000"
           stroke-opacity="1"
           fill="none"
           stroke-linecap="round"
           stroke-width="3.10596"
           points="1656.638184,1531.378662 1657.164185,1530.920044 1661.257812,1526.887451 1665.533447,1522.394287 1669.811646,1517.893921 1674.089966,1513.393555 1678.368042,1508.893311 1682.646118,1504.393311 1686.923950,1499.893433 1691.201660,1495.393555 1695.479370,1490.893921 1699.756958,1486.394409 1704.034180,1481.895020 1708.311523,1477.395752 1712.588623,1472.896484 1716.865723,1468.397583 1721.142578,1463.898682 1725.419312,1459.399902 1729.695923,1454.901245 1733.972534,1450.402832 1738.248901,1445.904297 1742.525146,1441.406006 1746.801392,1436.907959 1751.077515,1432.409912 1755.353394,1427.912109 1759.629150,1423.414429 1763.904785,1418.916748 1768.180298,1414.419434 1772.455811,1409.921875 1776.731079,1405.424805 1781.006226,1400.927612 1785.281372,1396.430664 1789.556274,1391.933960 1793.831055,1387.437256 1798.105713,1382.940674 1802.380371,1378.444092 1806.654785,1373.947876 1810.929077,1369.451660 1815.203369,1364.955566 1819.477295,1360.459717 1823.751343,1355.963867 1828.025024,1351.468262 1832.298828,1346.972778 1836.572388,1342.477295 1840.845825,1337.981934 1845.119263,1333.486816 1849.599243,1329.298096 1853.042480,1327.570068"
           id="polyline100"
           transform="translate(34,30)" />
        <polyline
           stroke="#000000"
           stroke-opacity="1"
           fill="none"
           stroke-linecap="round"
           stroke-width="3.10425"
           points="1855.436157,1327.118042 1855.668457,1327.091064 1863.939941,1329.593506 1870.208008,1333.271606 1876.468628,1336.958252 1882.729614,1340.645020 1888.990723,1344.331787 1895.252197,1348.018921 1901.514038,1351.706055 1907.776001,1355.393555 1914.038330,1359.081055 1920.301025,1362.768799 1926.563721,1366.456787 1932.826904,1370.144775 1939.090332,1373.833008 1945.354126,1377.521362 1951.618164,1381.209961 1957.882446,1384.898560 1964.146973,1388.587402 1970.411865,1392.276489 1976.677002,1395.965820 1982.942383,1399.655151 1989.208008,1403.344727 1995.473877,1407.034302 2001.740112,1410.724243 2008.006714,1414.414307 2014.273560,1418.104492 2020.540649,1421.794800 2026.807983,1425.485352 2033.068970,1429.171021 2038.274902,1432.207520"
           id="polyline102"
           transform="translate(34,30)" />
        <polyline
           stroke="#000000"
           stroke-opacity="1"
           fill="none"
           stroke-linecap="round"
           stroke-width="3.10596"
           points="2062.604248,1465.455811 2063.029053,1466.134033 2065.770020,1470.509766 2068.510742,1474.885742 2071.251221,1479.261230 2073.991699,1483.636597 2076.732178,1488.011963 2079.472656,1492.387207 2082.212891,1496.762207 2084.952881,1501.136963 2087.693115,1505.511719 2090.433105,1509.886230 2093.173096,1514.260742 2095.912598,1518.635010 2098.652344,1523.009033 2101.392090,1527.383057 2104.131592,1531.757080 2106.871094,1536.130859 2109.610352,1540.504395 2112.349609,1544.877686 2115.088867,1549.250977 2117.827881,1553.624023 2120.566650,1557.997070 2123.305664,1562.369873 2126.044434,1566.742676 2128.783203,1571.114990 2131.521973,1575.487427 2134.260254,1579.859741 2136.998779,1584.231934 2139.737305,1588.603882 2142.475586,1592.975708 2145.213623,1597.347412 2147.951660,1601.718872 2150.689697,1606.090210 2153.218018,1610.123535"
           id="polyline104"
           transform="translate(34,30)" />
        <polyline
           stroke="#000000"
           stroke-opacity="1"
           fill="none"
           stroke-linecap="round"
           stroke-width="3.104"
           points="2160.036865,1605.604248 2159.815186,1605.248291 2157.077393,1600.876953 2154.339600,1596.505615 2151.601562,1592.133911 2148.863525,1587.762207 2146.125244,1583.390259 2143.387207,1579.018066 2140.648926,1574.645874 2137.910400,1570.273560 2135.171631,1565.901001 2132.433105,1561.528442 2129.694580,1557.155518 2126.955811,1552.782593 2124.216797,1548.409546 2121.477783,1544.036377 2118.738770,1539.662964 2115.999512,1535.289551 2113.260254,1530.915771 2110.520996,1526.541992 2107.781494,1522.168091 2105.041992,1517.793945 2102.302490,1513.419678 2099.562744,1509.045166 2096.822754,1504.670776 2094.083008,1500.296143 2091.343018,1495.921265 2088.603027,1491.546387 2085.862793,1487.171143 2083.122559,1482.795898 2080.382324,1478.420532 2077.641846,1474.044922 2074.901367,1469.669312 2072.160645,1465.293457 2069.587646,1461.185059"
           id="polyline106"
           transform="translate(34,30)" />
        <polyline
           stroke="#000000"
           stroke-opacity="1"
           fill="none"
           stroke-linecap="round"
           stroke-width="3.10449"
           points="2042.042847,1424.919189 2041.776245,1424.759277 2035.386597,1420.974854 2029.123657,1417.287109 2022.861206,1413.599854 2016.599121,1409.912598 2010.337280,1406.225342 2004.075684,1402.538574 1997.814331,1398.851807 1991.553467,1395.165283 1985.292725,1391.478882 1979.032349,1387.792603 1972.772217,1384.106567 1966.512329,1380.420654 1960.252808,1376.734863 1953.993408,1373.049316 1947.734375,1369.364014 1941.475586,1365.678711 1935.217285,1361.993652 1928.958984,1358.308716 1922.701050,1354.624023 1916.443359,1350.939453 1910.186157,1347.254883 1903.929077,1343.570679 1897.672241,1339.886719 1891.415771,1336.202637 1885.159668,1332.518921 1878.903564,1328.835327 1872.647827,1325.151855 1866.374634,1321.388184 1862.156250,1317.906738"
           id="polyline108"
           transform="translate(34,30)" />
        <polyline
           stroke="#000000"
           stroke-opacity="1"
           fill="none"
           stroke-linecap="round"
           stroke-width="3.10425"
           points="1857.207764,1310.831421 1856.921631,1310.246826 1855.243652,1304.697266 1854.299683,1299.574707 1853.386963,1294.482056 1852.474365,1289.389282 1851.561646,1284.296265 1850.648926,1279.203125 1849.736084,1274.109741 1848.823364,1269.016357 1847.910400,1263.922607 1846.997559,1258.828857 1846.084839,1253.734863 1845.171875,1248.640625 1844.258911,1243.546387 1843.345947,1238.451904 1842.432861,1233.357178 1841.519775,1228.262329 1840.606812,1223.167358 1839.693726,1218.072144 1838.780640,1212.976807 1837.867432,1207.881226 1836.954224,1202.785522 1836.041016,1197.689697 1835.127686,1192.593750 1834.214478,1187.497559 1833.301147,1182.401123 1832.387817,1177.304688 1831.474487,1172.207886 1830.561035,1167.111084 1829.647583,1162.014038 1828.734131,1156.916748 1827.820679,1151.819458 1826.907104,1146.721802 1825.993530,1141.624146 1825.079956,1136.526245 1824.166382,1131.428345 1823.252686,1126.330078 1822.338867,1121.231445 1821.417358,1116.100220 1820.998047,1113.780029"
           id="polyline110"
           transform="translate(34,30)" />
        <polyline
           stroke="#000000"
           stroke-opacity="1"
           fill="none"
           stroke-linecap="round"
           stroke-width="3.10474"
           points="1806.578491,1076.292603 1806.316772,1075.702637 1804.220337,1070.974731 1802.123901,1066.247192 1800.027344,1061.519653 1797.931030,1056.792358 1795.834717,1052.065186 1793.738525,1047.338013 1791.642456,1042.611084 1789.546387,1037.884277 1787.450195,1033.157593 1785.354126,1028.431030 1783.258301,1023.704712 1781.162476,1018.978394 1779.066650,1014.252197 1776.970947,1009.526245 1774.875366,1004.800415 1772.779541,1000.074585 1770.684082,995.349121 1768.588623,990.623657 1766.493164,985.898438 1764.397705,981.173096 1762.302490,976.448120 1760.207153,971.723267 1758.111938,966.998413 1756.016724,962.273804 1753.921753,957.549194 1751.826782,952.824951 1749.731812,948.100586 1747.636841,943.376587 1745.542114,938.652588 1743.447266,933.928833 1741.352539,929.205078 1739.257812,924.481567 1737.163208,919.758057 1735.068726,915.034912 1732.974243,910.311646 1730.879883,905.588745 1728.785522,900.865845 1726.705688,896.121826 1724.741089,891.262695 1724.456055,886.073730 1732.521851,884.309814 1740.838135,884.434326 1749.117188,884.623413 1757.396729,884.812500 1765.676514,885.001709 1773.956787,885.190918 1782.237305,885.379883 1790.518188,885.569092 1798.799438,885.758301 1807.080933,885.947510 1815.362915,886.136597 1823.645264,886.325806 1831.927979,886.515015 1840.210815,886.704224 1848.494141,886.893311 1856.777710,887.082520 1865.061890,887.271729 1873.346191,887.461060 1881.630859,887.650269 1889.915894,887.839600 1898.201416,888.028687 1906.487061,888.218018 1914.773193,888.407349 1923.059692,888.596558 1931.346436,888.785889 1939.633545,888.975220 1947.921021,889.164551 1953.659668,889.295410"
           id="polyline112"
           transform="translate(34,30)" />
        <polyline
           stroke="#000000"
           stroke-opacity="1"
           fill="none"
           stroke-linecap="round"
           stroke-width="3.10498"
           points="1994.855225,891.723022 1995.784546,891.944580 2003.941162,893.884277 2012.166992,895.836426 2020.392456,897.788574 2028.617432,899.740601 2036.842041,901.692627 2045.066284,903.644653 2053.290283,905.596313 2061.513672,907.547974 2069.736816,909.499634 2077.959717,911.451172 2086.181885,913.402588 2094.403809,915.353882 2102.625732,917.305176 2110.846924,919.256348 2119.067871,921.207397 2127.288330,923.158447 2135.508301,925.109253 2143.728027,927.060181 2151.947510,929.010742 2160.166260,930.961426 2168.385010,932.911987 2176.603271,934.862427 2184.821045,936.812744 2193.038574,938.762939 2201.255615,940.713135 2209.472168,942.663330 2217.688721,944.613281 2225.830811,946.541138 2226.510986,946.701782"
           id="polyline114"
           transform="translate(34,30)" />
        <polyline
           stroke="#000000"
           stroke-opacity="1"
           fill="none"
           stroke-linecap="round"
           stroke-width="3.10303"
           points="2240.472168,951.803345 2240.650879,951.892822 2246.991943,955.068970 2253.404053,958.275513 2259.816650,961.482300 2266.229004,964.689209 2272.642090,967.896240 2279.055420,971.103516 2285.468750,974.310791 2291.882324,977.518311 2298.296631,980.725952 2304.710938,983.933716 2311.125244,987.141602 2317.540283,990.349609 2323.955566,993.557739 2330.370850,996.766113 2336.786621,999.974487 2343.202393,1003.182983 2349.618896,1006.391846 2356.035400,1009.600586 2362.452148,1012.809692 2368.869141,1016.018921 2375.286621,1019.228027 2381.704346,1022.437500 2388.122314,1025.647095 2394.540527,1028.856689 2400.958740,1032.066528 2407.377441,1035.276611 2413.796631,1038.486572 2420.215820,1041.696899 2426.621582,1044.895142 2431.834717,1047.364136"
           id="polyline116"
           transform="translate(34,30)" />
        <polyline
           stroke="#000000"
           stroke-opacity="1"
           fill="none"
           stroke-linecap="round"
           stroke-width="3.10449"
           points="2438.381348,1081.510254 2438.391602,1081.679810 2438.702148,1086.855957 2439.012695,1092.031860 2439.323242,1097.207764 2439.633789,1102.383423 2439.944336,1107.558960 2440.254883,1112.734497 2440.565186,1117.909668 2440.875732,1123.084961 2441.186279,1128.259888 2441.496582,1133.434692 2441.807129,1138.609375 2442.117676,1143.783936 2442.428223,1148.958252 2442.738525,1154.132568 2443.049072,1159.306763 2443.359619,1164.480713 2443.669678,1169.654541 2443.980225,1174.828247 2444.290771,1180.001831 2444.601074,1185.175171 2444.911377,1190.348511 2445.221680,1195.521606 2445.532227,1200.694580 2445.842285,1205.867432 2446.152832,1211.040039 2446.463135,1216.212646 2446.773682,1221.385010 2447.083740,1226.557251 2447.394043,1231.729492 2447.704346,1236.901367 2448.014648,1242.073242 2448.324951,1247.244873 2448.635254,1252.416382 2448.945557,1257.587891 2449.255615,1262.759033 2449.565918,1267.930176 2449.876221,1273.101196 2450.186523,1278.271973 2450.496582,1283.442627 2450.806885,1288.613159 2451.116943,1293.783569 2451.274658,1296.386475"
           id="polyline118"
           transform="translate(34,30)" />
        <polyline
           stroke="#000000"
           stroke-opacity="1"
           fill="none"
           stroke-linecap="round"
           stroke-width="3.10547"
           points="2459.628906,1296.205566 2459.587646,1295.481201 2459.277100,1290.306763 2458.966797,1285.132080 2458.656738,1279.957397 2458.346191,1274.782593 2458.035645,1269.607544 2457.725586,1264.432251 2457.415039,1259.256958 2457.104736,1254.081543 2456.794189,1248.905884 2456.483887,1243.730225 2456.173340,1238.554321 2455.862793,1233.378296 2455.552490,1228.202148 2455.242188,1223.025757 2454.931641,1217.849365 2454.621094,1212.672729 2454.310791,1207.495972 2454.000244,1202.318970 2453.689697,1197.141968 2453.379395,1191.964722 2453.068848,1186.787476 2452.758057,1181.609985 2452.447510,1176.432373 2452.137207,1171.254639 2451.826660,1166.076660 2451.516113,1160.898682 2451.205566,1155.720459 2450.895020,1150.542114 2450.584473,1145.363525 2450.273682,1140.184937 2449.963379,1135.006226 2449.652588,1129.827271 2449.341797,1124.648193 2449.031494,1119.468994 2448.720703,1114.289673 2448.409912,1109.110107 2448.099365,1103.930420 2447.788818,1098.750732 2447.478027,1093.570801 2447.167480,1088.390747 2446.856934,1083.210571 2446.546143,1078.030273 2446.418945,1075.909912"
           id="polyline120"
           transform="translate(34,30)" />
        <polyline
           stroke="#000000"
           stroke-opacity="1"
           fill="none"
           stroke-linecap="round"
           stroke-width="3.10718"
           points="2435.359131,1040.133179 2434.376465,1039.609375 2427.777344,1036.242310 2421.352783,1033.029541 2414.928223,1029.816895 2408.504395,1026.604492 2402.080566,1023.392090 2395.656982,1020.180054 2389.233643,1016.967896 2382.810791,1013.756104 2376.387939,1010.544312 2369.965576,1007.332764 2363.543457,1004.121216 2357.121582,1000.909912 2350.699951,997.698730 2344.278564,994.487671 2337.857422,991.276733 2331.437012,988.066040 2325.016357,984.855225 2318.596191,981.644775 2312.176025,978.434448 2305.756348,975.224243 2299.336914,972.014038 2292.917969,968.804199 2286.499023,965.594360 2280.080566,962.384644 2273.662109,959.175171 2267.244141,955.965820 2260.826660,952.756470 2254.409180,949.547485 2247.982910,946.334717 2243.711670,944.204590"
           id="polyline122"
           transform="translate(34,30)" />
        <polyline
           stroke="#000000"
           stroke-opacity="1"
           fill="none"
           stroke-linecap="round"
           stroke-width="3.10547"
           points="2228.775146,938.784668 2227.975342,938.592773 2219.678711,936.619019 2211.456055,934.667358 2203.232910,932.715454 2195.009277,930.763550 2186.785400,928.811523 2178.560791,926.859619 2170.336182,924.907349 2162.111328,922.955078 2153.885742,921.002686 2145.659912,919.050293 2137.433594,917.097656 2129.207031,915.145020 2120.979980,913.192383 2112.752686,911.239502 2104.524902,909.286621 2096.296631,907.333618 2088.068359,905.380615 2079.839355,903.427368 2071.610107,901.474121 2063.380371,899.520752 2055.150391,897.567261 2046.920044,895.613770 2038.689331,893.660156 2030.458130,891.706299 2022.226562,889.752563 2013.994629,887.798706 2005.762451,885.844727 1997.460205,883.877930 1996.897583,883.745605"
           id="polyline124"
           transform="translate(34,30)" />
        <polyline
           stroke="#000000"
           stroke-opacity="1"
           fill="none"
           stroke-linecap="round"
           stroke-width="3.10718"
           points="1957.206787,881.115356 1956.312866,881.094971 1948.018555,880.905640 1939.724365,880.716431 1931.430786,880.527100 1923.137329,880.337891 1914.844238,880.148682 1906.551636,879.959351 1898.259277,879.770142 1889.967285,879.580933 1881.675537,879.391602 1873.384277,879.202515 1865.093262,879.013306 1856.802734,878.824097 1848.512573,878.634888 1840.222534,878.445801 1831.932983,878.256592 1823.643799,878.067383 1815.354858,877.878174 1807.066406,877.688965 1798.778198,877.499878 1790.490234,877.310791 1782.202881,877.121582 1773.915771,876.932617 1765.628784,876.743408 1757.342407,876.554321 1749.056396,876.365234 1740.770630,876.176147 1732.529175,876.109985 1730.319458,871.881958 1735.159302,867.997681 1739.932739,863.940186 1744.705444,859.879883 1749.478149,855.819580 1754.250977,851.759033 1759.023804,847.698242 1763.796997,843.637573 1768.570190,839.576660 1773.343506,835.515747 1778.116943,831.454590 1782.890625,827.393433 1787.664307,823.332275 1792.438110,819.270752 1797.212036,815.209229 1801.986206,811.147583 1806.760498,807.085815 1811.534790,803.024170 1816.309204,798.962036 1821.083740,794.900024 1825.858643,790.838013 1830.633423,786.775757 1835.408325,782.713257 1840.183472,778.650757 1844.958740,774.588257 1849.734131,770.525513 1854.509521,766.462769 1859.285156,762.399780 1864.060913,758.336792 1868.836792,754.273804 1873.612793,750.210327 1878.389038,746.147095 1883.165161,742.083740 1887.941528,738.020142 1892.718140,733.956421 1897.494751,729.892822 1902.271484,725.828857 1907.048340,721.764893 1911.825317,717.700806 1916.602539,713.636475 1921.379639,709.572144 1926.157104,705.507812 1930.934570,701.443237 1935.712280,697.378662 1940.490112,693.313843 1945.267944,689.249023 1950.045898,685.183960 1954.823120,681.119751 1959.539307,677.101440 1960.231689,676.510742"
           id="polyline126"
           transform="translate(34,30)" />
        <polyline
           stroke="#000000"
           stroke-opacity="1"
           fill="none"
           stroke-linecap="round"
           stroke-width="3.10449"
           points="1988.806030,660.204834 1989.559204,659.823730 1996.120850,656.503418 2002.682251,653.183105 2009.243408,649.862915 2015.804321,646.542969 2022.364990,643.223145 2028.925415,639.903442 2035.485474,636.583862 2042.045410,633.264404 2048.604980,629.945068 2055.164307,626.625854 2061.723389,623.306763 2068.282227,619.987671 2074.840820,616.668823 2081.399170,613.350098 2087.957275,610.031494 2094.515137,606.713135 2101.072754,603.394775 2107.630127,600.076660 2114.187012,596.758667 2120.743896,593.440674 2127.300537,590.122803 2133.856689,586.805176 2140.412842,583.487549 2146.968506,580.170166 2153.524170,576.852905 2160.079346,573.535767 2166.634521,570.218872 2173.189209,566.901978 2179.743896,563.585083 2186.298096,560.268555 2190.523193,558.128906"
           id="polyline128"
           transform="translate(34,30)" />
        <polyline
           stroke="#000000"
           stroke-opacity="1"
           fill="none"
           stroke-linecap="round"
           stroke-width="3.10498"
           points="2187.368652,550.293335 2186.517090,550.721558 2179.957520,554.040649 2173.397949,557.359741 2166.838135,560.679077 2160.278076,563.998413 2153.717529,567.318115 2147.156982,570.637695 2140.595703,573.957642 2134.034668,577.277466 2127.473145,580.597656 2120.911621,583.917847 2114.349609,587.238281 2107.787354,590.558716 2101.224854,593.879272 2094.662354,597.200073 2088.099121,600.520996 2081.535889,603.841919 2074.972412,607.163086 2068.408691,610.484375 2061.844727,613.805664 2055.280273,617.127197 2048.715820,620.448853 2042.151123,623.770630 2035.586060,627.092529 2029.020874,630.414673 2022.455322,633.736816 2015.889526,637.058960 2009.323486,640.381348 2002.757202,643.703857 1996.190674,647.026611 1989.623779,650.349487 1984.818970,652.780762"
           id="polyline130"
           transform="translate(34,30)" />
        <polyline
           stroke="#000000"
           stroke-opacity="1"
           fill="none"
           stroke-linecap="round"
           stroke-width="3.10742"
           points="1954.814575,670.121460 1954.375244,670.493530 1949.531006,674.608765 1944.748291,678.677856 1939.966431,682.746216 1935.184814,686.814453 1930.403198,690.882568 1925.621948,694.950317 1920.840698,699.018188 1916.059448,703.085938 1911.278564,707.153687 1906.497681,711.221191 1901.716919,715.288574 1896.936279,719.355835 1892.155762,723.423096 1887.375488,727.490112 1882.595215,731.557129 1877.815063,735.624146 1873.035156,739.690796 1868.255249,743.757568 1863.475586,747.823975 1858.695923,751.890381 1853.916504,755.956909 1849.137207,760.023071 1844.357788,764.089233 1839.578857,768.155273 1834.799927,772.221069 1830.020874,776.286865 1825.242310,780.352661 1820.463745,784.418213 1815.685181,788.483765 1810.906860,792.549072 1806.128662,796.614258 1801.350586,800.679443 1796.572632,804.744507 1791.794678,808.809448 1787.017090,812.874268 1782.239624,816.938965 1777.462036,821.003540 1772.684692,825.067993 1767.907715,829.132568 1763.130615,833.196655 1758.353638,837.260864 1753.576782,841.324951 1748.800171,845.388916 1744.023438,849.452759 1739.247070,853.516602 1734.470825,857.580322 1729.694458,861.643555 1724.914917,865.697876 1720.291016,870.596069 1719.403931,872.149902"
           id="polyline132"
           transform="translate(34,30)" />
        <polyline
           stroke="#000000"
           stroke-opacity="1"
           fill="none"
           stroke-linecap="round"
           stroke-width="3.10547"
           points="1715.721069,888.244019 1715.723633,888.589722 1716.632568,893.423218 1718.657104,898.247681 1720.751587,902.976196 1722.847656,907.702759 1724.943604,912.429565 1727.039551,917.156494 1729.135620,921.883545 1731.231812,926.610718 1733.327881,931.338135 1735.424438,936.065552 1737.520630,940.793213 1739.616943,945.520874 1741.713379,950.248779 1743.809937,954.976807 1745.906372,959.704956 1748.003174,964.433350 1750.099854,969.161621 1752.196533,973.890137 1754.293335,978.618896 1756.390259,983.347778 1758.487183,988.076782 1760.584229,992.805908 1762.681274,997.535034 1764.778320,1002.264404 1766.875488,1006.993896 1768.972778,1011.723633 1771.070068,1016.453247 1773.167480,1021.183228 1775.264771,1025.913330 1777.362305,1030.643555 1779.459717,1035.373779 1781.557373,1040.104248 1783.655029,1044.834961 1785.752808,1049.565552 1787.850464,1054.296509 1789.948364,1059.027344 1792.046143,1063.758545 1794.144287,1068.489868 1796.242188,1073.221191 1798.340332,1077.952881 1799.690063,1080.996948"
           id="polyline134"
           transform="translate(34,30)" />
        <polyline
           stroke="#000000"
           stroke-opacity="1"
           fill="none"
           stroke-linecap="round"
           stroke-width="3.10767"
           points="1812.812012,1114.672363 1812.970215,1115.562134 1813.866943,1120.590820 1814.780518,1125.689209 1815.694946,1130.791626 1816.609497,1135.893799 1817.523926,1140.995728 1818.438354,1146.097534 1819.352783,1151.199341 1820.267212,1156.300781 1821.181519,1161.401978 1822.095825,1166.503174 1823.010010,1171.604126 1823.924316,1176.704956 1824.838501,1181.805664 1825.752686,1186.906128 1826.666870,1192.006348 1827.581055,1197.106445 1828.495117,1202.206421 1829.409180,1207.306274 1830.323120,1212.405884 1831.237183,1217.505249 1832.151123,1222.604614 1833.065063,1227.703735 1833.979126,1232.802612 1834.892944,1237.901367 1835.806763,1243.000000 1836.720703,1248.098389 1837.634277,1253.196655 1838.548096,1258.294800 1839.461914,1263.392700 1840.375610,1268.490479 1841.289307,1273.588013 1842.202881,1278.685547 1843.116577,1283.782715 1844.030029,1288.879883 1844.943604,1293.976807 1845.857178,1299.073486 1846.769165,1304.170898 1847.376953,1309.431641 1847.168091,1312.824585"
           id="polyline136"
           transform="translate(34,30)" />
        <polyline
           stroke="#000000"
           stroke-opacity="1"
           fill="none"
           stroke-linecap="round"
           stroke-width="3.104"
           points="1844.942505,1320.367676 1844.627075,1321.015625 1841.320068,1325.557617 1837.052979,1330.098145 1832.779541,1334.593262 1828.505859,1339.088623 1824.232300,1343.583984 1819.958252,1348.079590 1815.684326,1352.575195 1811.410278,1357.071045 1807.136108,1361.566895 1802.861694,1366.062866 1798.587280,1370.559082 1794.312744,1375.055420 1790.037842,1379.551758 1785.763062,1384.048340 1781.488159,1388.545044 1777.213135,1393.041748 1772.937866,1397.538818 1768.662598,1402.035889 1764.387085,1406.532959 1760.111450,1411.030273 1755.835815,1415.527832 1751.560059,1420.025391 1747.284058,1424.523193 1743.008057,1429.020996 1738.731812,1433.518921 1734.455444,1438.017090 1730.179077,1442.515137 1725.902588,1447.013672 1721.625854,1451.512085 1717.349121,1456.010742 1713.072266,1460.509521 1708.795044,1465.008301 1704.517944,1469.507324 1700.240723,1474.006592 1695.963135,1478.505859 1691.685791,1483.005127 1687.407837,1487.504639 1683.130249,1492.004395 1678.852295,1496.504150 1674.574219,1501.003906 1670.296143,1505.504150 1666.017944,1510.004395 1661.739502,1514.504639 1657.461060,1519.005005 1653.136353,1523.621582 1650.781860,1526.319580"
           id="polyline138"
           transform="translate(34,30)" />
        <polyline
           stroke="#000000"
           stroke-opacity="1"
           fill="none"
           stroke-linecap="round"
           stroke-width="3.104"
           points="2153.209717,1610.110596 2152.117676,1611.613770 2152.117676,1617.209229 2155.406494,1621.735962 2163.466797,1623.123535 2167.245850,1620.118652 2169.338379,1611.613770 2166.049561,1607.087158 2159.950928,1605.466064"
           id="polyline140"
           transform="translate(34,30)" />
        <polyline
           stroke="#000000"
           stroke-opacity="1"
           fill="none"
           stroke-linecap="round"
           stroke-width="3.104"
           points="1845.874512,1741.514404 1845.874512,1747.009888 1849.163330,1751.536865 1856.560913,1753.205200 1859.806519,1751.536865 1863.095459,1747.009888 1863.095459,1741.414673 1859.806519,1736.887939 1851.886230,1735.524292"
           id="polyline142"
           transform="translate(34,30)" />
        <polyline
           stroke="#000000"
           stroke-opacity="1"
           fill="none"
           stroke-linecap="round"
           stroke-width="3.1062"
           points="2054.388672,1428.289551 2052.087891,1425.122925 2044.279541,1424.164185 2042.031494,1424.922485"
           id="polyline144"
           transform="translate(34,30)" />
        <polyline
           stroke="#000000"
           stroke-opacity="1"
           fill="none"
           stroke-linecap="round"
           stroke-width="3.1062"
           points="2038.146240,1432.132812 2038.146240,1435.251953 2039.641968,1437.310913"
           id="polyline146"
           transform="translate(34,30)" />
        <polyline
           stroke="#000000"
           stroke-opacity="1"
           fill="none"
           stroke-linecap="round"
           stroke-width="3.10522"
           points="1656.718140,1531.308960 1656.920898,1531.777344 1656.924805,1537.229736"
           id="polyline148"
           transform="translate(34,30)" />
        <polyline
           stroke="#000000"
           stroke-opacity="1"
           fill="none"
           stroke-linecap="round"
           stroke-width="3.11328"
           points="1639.564209,1535.786377 1639.545288,1535.543213 1642.979248,1527.247314 1650.943726,1526.127563"
           id="polyline150"
           transform="translate(34,30)" />
        <polyline
           stroke="#000000"
           stroke-opacity="1"
           fill="none"
           stroke-linecap="round"
           stroke-width="3.10181"
           points="2451.274170,1296.378784 2450.587646,1296.617554 2447.298584,1301.144409 2447.298584,1306.739746 2450.587646,1311.266479 2459.286377,1311.982300 2463.178223,1308.859253 2464.893799,1304.264282 2461.230469,1296.617554 2459.622803,1296.095093"
           id="polyline152"
           transform="translate(34,30)" />
        <polyline
           stroke="#000000"
           stroke-opacity="1"
           fill="none"
           stroke-linecap="round"
           stroke-width="3.1062"
           points="2445.383545,1039.753052 2440.510254,1038.169678 2435.111328,1040.001099"
           id="polyline154"
           transform="translate(34,30)" />
        <polyline
           stroke="#000000"
           stroke-opacity="1"
           fill="none"
           stroke-linecap="round"
           stroke-width="3.1001"
           points="2431.610840,1047.262939 2431.591064,1047.461670 2431.798096,1049.218994"
           id="polyline156"
           transform="translate(34,30)" />
        <polyline
           stroke="#000000"
           stroke-opacity="1"
           fill="none"
           stroke-linecap="round"
           stroke-width="3.104"
           points="1862.159912,1317.913086 1862.159912,1315.884766 1858.871094,1311.358032 1857.191040,1310.812134"
           id="polyline158"
           transform="translate(34,30)" />
        <polyline
           stroke="#000000"
           stroke-opacity="1"
           fill="none"
           stroke-linecap="round"
           stroke-width="3.104"
           points="1847.169800,1312.814575 1844.939087,1315.884766 1844.939087,1320.384033"
           id="polyline160"
           transform="translate(34,30)" />
        <polyline
           stroke="#000000"
           stroke-opacity="1"
           fill="none"
           stroke-linecap="round"
           stroke-width="3.104"
           points="1853.040405,1327.570557 1853.549561,1327.735962 1855.459717,1327.115234"
           id="polyline162"
           transform="translate(34,30)" />
        <polyline
           stroke="#000000"
           stroke-opacity="1"
           fill="none"
           stroke-linecap="round"
           stroke-width="3.104"
           points="2243.731689,944.214600 2243.731689,941.721558 2240.442871,937.194824 2235.121338,935.465698 2229.799805,937.194824 2228.664062,938.758057"
           id="polyline164"
           transform="translate(34,30)" />
        <polyline
           stroke="#000000"
           stroke-opacity="1"
           fill="none"
           stroke-linecap="round"
           stroke-width="3.10425"
           points="2226.510986,946.675537 2226.510986,947.316895 2229.799805,951.843750 2235.121338,953.572876 2240.492432,951.775513"
           id="polyline166"
           transform="translate(34,30)" />
        <polyline
           stroke="#000000"
           stroke-opacity="1"
           fill="none"
           stroke-linecap="round"
           stroke-width="3.104"
           points="2190.433350,558.062622 2190.452393,558.081787 2197.788818,559.592896 2201.095459,558.081787 2204.384277,553.555054 2204.384277,547.959717 2201.095459,543.432983 2193.748535,541.876831 2189.515137,544.680054 2187.163330,550.396606"
           id="polyline168"
           transform="translate(34,30)" />
        <polyline
           stroke="#000000"
           stroke-opacity="1"
           fill="none"
           stroke-linecap="round"
           stroke-width="3.11084"
           points="1955.960938,663.538940 1954.715576,665.576538 1954.715576,670.205322"
           id="polyline170"
           transform="translate(34,30)" />
        <polyline
           stroke="#000000"
           stroke-opacity="1"
           fill="none"
           stroke-linecap="round"
           stroke-width="3.10156"
           points="1960.055298,676.661133 1961.028809,677.115356 1963.415405,677.419434"
           id="polyline172"
           transform="translate(34,30)" />
        <polyline
           stroke="#000000"
           stroke-opacity="1"
           fill="none"
           stroke-linecap="round"
           stroke-width="3.1062"
           points="1997.008545,883.771729 1997.008545,883.160034 1993.717407,878.630127 1992.114380,878.100952"
           id="polyline174"
           transform="translate(34,30)" />
        <polyline
           stroke="#000000"
           stroke-opacity="1"
           fill="none"
           stroke-linecap="round"
           stroke-width="3.1062"
           points="1985.224609,893.990112 1988.392212,895.019409 1993.717407,893.289062 1994.877808,891.692017"
           id="polyline176"
           transform="translate(34,30)" />
        <polyline
           stroke="#000000"
           stroke-opacity="1"
           fill="none"
           stroke-linecap="round"
           stroke-width="3.1062"
           points="1820.974609,1113.812378 1824.160889,1109.426758 1824.160889,1103.827637 1823.145752,1102.430420"
           id="polyline178"
           transform="translate(34,30)" />
        <polyline
           stroke="#000000"
           stroke-opacity="1"
           fill="none"
           stroke-linecap="round"
           stroke-width="3.1062"
           points="1808.909058,1112.153320 1810.219238,1113.956665 1812.835938,1114.806885"
           id="polyline180"
           transform="translate(34,30)" />
        <polyline
           stroke="#000000"
           stroke-opacity="1"
           fill="none"
           stroke-linecap="round"
           stroke-width="3.10425"
           points="1719.417480,872.122559 1714.923950,870.662476 1709.602417,872.391602 1706.313477,876.918335 1706.313477,882.513672 1709.602417,887.040405 1715.723022,888.509766"
           id="polyline182"
           transform="translate(34,30)" />
        <polyline
           stroke="#000000"
           stroke-opacity="1"
           fill="none"
           stroke-linecap="round"
           stroke-width="2.89453"
           points="1730.159302,1505.316895 1687.338257,1499.457764"
           id="polyline184"
           transform="translate(34,30)" />
        <polyline
           stroke="#000000"
           stroke-opacity="1"
           fill="none"
           stroke-linecap="round"
           stroke-width="2.89453"
           points="1677.344482,1498.090332 1622.617554,1490.601929 1621.015503,1502.310303"
           id="polyline186"
           transform="translate(34,30)" />
        <polyline
           stroke="#000000"
           stroke-opacity="1"
           fill="none"
           stroke-linecap="round"
           stroke-width="2.89453"
           points="2086.057373,1376.142090 2023.852661,1414.183350"
           id="polyline188"
           transform="translate(34,30)" />
        <polyline
           stroke="#000000"
           stroke-opacity="1"
           fill="none"
           stroke-linecap="round"
           stroke-width="2.89429"
           points="2023.852661,1414.183350 2121.282715,1353.061523 2172.986084,1216.532959"
           id="polyline190"
           transform="translate(34,30)" />
        <polyline
           stroke="#000000"
           stroke-opacity="1"
           fill="none"
           stroke-linecap="round"
           stroke-width="2.87598"
           points="2172.986084,1216.532959 2194.537842,1227.678467 2133.469727,1388.936523 1812.688843,1585.110352 1504.473633,1542.936890"
           id="polyline192"
           transform="translate(34,30)" />
        <polyline
           stroke="#000000"
           stroke-opacity="1"
           fill="none"
           stroke-linecap="round"
           stroke-width="2.87598"
           points="1689.459473,1497.226440 1849.694824,1519.151611 2014.605713,1418.300049"
           id="polyline194"
           transform="translate(34,30)" />
        <polyline
           stroke="#000000"
           stroke-opacity="1"
           fill="none"
           stroke-linecap="round"
           stroke-width="2.87598"
           points="2014.605713,1418.300049 1993.458130,1432.771240 1999.754639,1443.067139"
           id="polyline196"
           transform="translate(34,30)" />
        <polyline
           stroke="#000000"
           stroke-opacity="1"
           fill="none"
           stroke-linecap="round"
           stroke-width="2.89429"
           points="2361.534180,1076.912842 2415.476807,1039.326904"
           id="polyline198"
           transform="translate(34,30)" />
        <polyline
           stroke="#000000"
           stroke-opacity="1"
           fill="none"
           stroke-linecap="round"
           stroke-width="2.89478"
           points="2415.476807,1039.326904 2193.637451,1193.030029"
           id="polyline200"
           transform="translate(34,30)" />
        <polyline
           stroke="#000000"
           stroke-opacity="1"
           fill="none"
           stroke-linecap="round"
           stroke-width="2.87598"
           points="2473.587402,997.966187 2422.466553,1033.586304"
           id="polyline202"
           transform="translate(34,30)" />
        <polyline
           stroke="#000000"
           stroke-opacity="1"
           fill="none"
           stroke-linecap="round"
           stroke-width="2.87598"
           points="2422.466553,1033.586304 2450.590332,1014.860352 2457.519775,1024.805298"
           id="polyline204"
           transform="translate(34,30)" />
        <polyline
           stroke="#000000"
           stroke-opacity="1"
           fill="none"
           stroke-linecap="round"
           stroke-width="2.89429"
           points="1785.602051,1141.484497 1792.577148,1151.697876 1816.512329,1135.351562"
           id="polyline206"
           transform="translate(34,30)" />
        <polyline
           stroke="#000000"
           stroke-opacity="1"
           fill="none"
           stroke-linecap="round"
           stroke-width="2.89453"
           points="1816.512329,1135.351562 1605.181274,1280.840210"
           id="polyline208"
           transform="translate(34,30)" />
        <polyline
           stroke="#000000"
           stroke-opacity="1"
           fill="none"
           stroke-linecap="round"
           stroke-width="2.87598"
           points="1933.594971,1056.552856 1824.143677,1131.301636"
           id="polyline210"
           transform="translate(34,30)" />
        <polyline
           stroke="#000000"
           stroke-opacity="1"
           fill="none"
           stroke-linecap="round"
           stroke-width="2.87598"
           points="1824.143677,1131.301636 1882.212524,1090.482056"
           id="polyline212"
           transform="translate(34,30)" />
        <polyline
           stroke="#000000"
           stroke-opacity="1"
           fill="none"
           stroke-linecap="round"
           stroke-width="2.89453"
           points="2013.297852,855.734619 2024.313843,860.511353"
           id="polyline214"
           transform="translate(34,30)" />
        <polyline
           stroke="#000000"
           stroke-opacity="1"
           fill="none"
           stroke-linecap="round"
           stroke-width="2.89453"
           points="2024.313843,860.511353 2019.678833,814.532104"
           id="polyline216"
           transform="translate(34,30)" />
        <polyline
           stroke="#000000"
           stroke-opacity="1"
           fill="none"
           stroke-linecap="round"
           stroke-width="3.34644"
           points="1912.956421,583.462769 1932.003906,660.647217"
           id="polyline218"
           transform="translate(34,30)" />
        <polyline
           stroke="#000000"
           stroke-opacity="1"
           fill="none"
           stroke-linecap="round"
           stroke-width="2.89453"
           points="1932.003906,660.647217 1942.738892,654.882202"
           id="polyline220"
           transform="translate(34,30)" />
        <polyline
           stroke="#000000"
           stroke-opacity="1"
           fill="none"
           stroke-linecap="round"
           stroke-width="3.27881"
           points="1524.684570,1716.527100 1578.326050,1659.621094 1565.975830,1659.772949"
           id="polyline222"
           transform="translate(34,30)" />
        <polyline
           stroke="#000000"
           stroke-opacity="1"
           fill="none"
           stroke-linecap="round"
           stroke-width="2.89111"
           points="2178.764893,1867.325195 2154.389160,1888.437622 2162.063477,1897.297974"
           id="polyline224"
           transform="translate(34,30)" />
        <polyline
           stroke="#000000"
           stroke-opacity="1"
           fill="none"
           stroke-linecap="round"
           stroke-width="2.95459"
           points="2368.959473,1687.696533 2299.005859,1768.331543 2308.284912,1776.381104"
           id="polyline226"
           transform="translate(34,30)" />
        <polyline
           stroke="#000000"
           stroke-opacity="1"
           fill="none"
           stroke-linecap="round"
           stroke-width="3.16113"
           points="2617.897705,1483.280762 2597.991211,1471.691895"
           id="polyline228"
           transform="translate(34,30)" />
        <polyline
           stroke="#000000"
           stroke-opacity="1"
           fill="none"
           stroke-linecap="round"
           stroke-width="3.04932"
           points="2597.991211,1471.691895 2607.039062,1480.388794"
           id="polyline230"
           transform="translate(34,30)" />
        <polyline
           stroke="#000000"
           stroke-opacity="1"
           fill="none"
           stroke-linecap="round"
           stroke-width="3.04932"
           points="2597.991211,1471.691895 2453.104492,1622.425903 2462.378906,1631.340454"
           id="polyline232"
           transform="translate(34,30)" />
        <polyline
           stroke="#000000"
           stroke-opacity="1"
           fill="none"
           stroke-linecap="round"
           stroke-width="3.18433"
           points="2719.880615,1145.110962 2687.250488,1145.595581"
           id="polyline234"
           transform="translate(34,30)" />
        <polyline
           stroke="#000000"
           stroke-opacity="1"
           fill="none"
           stroke-linecap="round"
           stroke-width="3.02808"
           points="2687.250488,1145.595581 2699.180664,1148.348633"
           id="polyline236"
           transform="translate(34,30)" />
        <polyline
           stroke="#000000"
           stroke-opacity="1"
           fill="none"
           stroke-linecap="round"
           stroke-width="3.02808"
           points="2687.250488,1145.595581 2641.956543,1341.873779 2654.637207,1344.800049"
           id="polyline238"
           transform="translate(34,30)" />
        <polyline
           stroke="#000000"
           stroke-opacity="1"
           fill="none"
           stroke-linecap="round"
           stroke-width="2.92969"
           points="2526.821045,1019.887207 2673.112061,1052.226807 2675.690918,1040.559448"
           id="polyline240"
           transform="translate(34,30)" />
        <polyline
           stroke="#000000"
           stroke-opacity="1"
           fill="none"
           stroke-linecap="round"
           stroke-width="3.16162"
           points="1545.360718,1481.619629 1563.486572,1469.980225"
           id="polyline242"
           transform="translate(34,30)" />
        <polyline
           stroke="#000000"
           stroke-opacity="1"
           fill="none"
           stroke-linecap="round"
           stroke-width="3.04883"
           points="1563.486572,1469.980225 1550.904419,1468.959473"
           id="polyline244"
           transform="translate(34,30)" />
        <polyline
           stroke="#000000"
           stroke-opacity="1"
           fill="none"
           stroke-linecap="round"
           stroke-width="3.33813"
           points="2496.074219,771.452637 2438.078857,821.770020"
           id="polyline246"
           transform="translate(34,30)" />
        <polyline
           stroke="#000000"
           stroke-opacity="1"
           fill="none"
           stroke-linecap="round"
           stroke-width="2.90088"
           points="2438.078857,821.770020 2449.830811,819.143433"
           id="polyline248"
           transform="translate(34,30)" />
        <polyline
           stroke="#000000"
           stroke-opacity="1"
           fill="none"
           stroke-linecap="round"
           stroke-width="3.35596"
           points="2506.874023,449.682495 2443.660400,548.132690 2455.709473,550.049561"
           id="polyline250"
           transform="translate(34,30)" />
        <polyline
           stroke="#000000"
           stroke-opacity="1"
           fill="none"
           stroke-linecap="round"
           stroke-width="2.92212"
           points="1998.071411,489.119385 2053.399902,431.377441 2044.610840,422.955566"
           id="polyline252"
           transform="translate(34,30)" />
        <polyline
           stroke="#000000"
           stroke-opacity="1"
           fill="none"
           stroke-linecap="round"
           stroke-width="2.97339"
           points="1517.543579,883.666382 1566.319824,759.279541 1555.088257,754.875244"
           id="polyline254"
           transform="translate(34,30)" />
        <polyline
           stroke="#000000"
           stroke-opacity="1"
           fill="none"
           stroke-linecap="round"
           stroke-width="3.03076"
           points="1543.322998,1211.714355 1476.941528,1098.106567 1466.161499,1104.405518"
           id="polyline256"
           transform="translate(34,30)" />
        <polyline
           stroke="#000000"
           stroke-opacity="1"
           fill="none"
           stroke-linecap="round"
           stroke-width="3.39697"
           points="1841.733521,1600.529541 2291.711914,1910.825928 2459.519043,1717.395996"
           id="polyline258"
           transform="translate(34,30)" />
        <polyline
           stroke="#000000"
           stroke-opacity="1"
           fill="none"
           stroke-linecap="round"
           stroke-width="3.39697"
           points="2568.474121,990.864380 2788.608398,1039.528076 2687.038818,1479.672485 2478.623291,1696.499390"
           id="polyline260"
           transform="translate(34,30)" />
        <polyline
           stroke="#000000"
           stroke-opacity="1"
           fill="none"
           stroke-linecap="round"
           stroke-width="3.39673"
           points="2478.623291,1696.499390 2161.553467,1394.708008"
           id="polyline262"
           transform="translate(34,30)" />
        <polyline
           stroke="#000000"
           stroke-opacity="1"
           fill="none"
           stroke-linecap="round"
           stroke-width="2.89453"
           points="1622.617554,1490.601929 1555.264771,1543.000244"
           id="polyline264"
           transform="translate(34,30)" />
        <polyline
           stroke="#000000"
           stroke-opacity="1"
           fill="none"
           stroke-linecap="round"
           stroke-width="3.39722"
           points="2194.537842,1227.678467 1911.786011,1038.721069 1523.886475,1303.633545 1504.473633,1542.936890"
           id="polyline266"
           transform="translate(34,30)" />
        <polyline
           stroke="#000000"
           stroke-opacity="1"
           fill="none"
           stroke-linecap="round"
           stroke-width="3.39673"
           points="1504.473633,1542.936890 1588.745361,1483.445557 1679.465698,1495.858887"
           id="polyline268"
           transform="translate(34,30)" />
        <polyline
           stroke="#000000"
           stroke-opacity="1"
           fill="none"
           stroke-linecap="round"
           stroke-width="2.89453"
           points="1993.458130,1432.771240 1984.005615,1476.140259"
           id="polyline270"
           transform="translate(34,30)" />
        <polyline
           stroke="#000000"
           stroke-opacity="1"
           fill="none"
           stroke-linecap="round"
           stroke-width="3.34619"
           points="2512.510742,992.979980 2450.590332,1014.860352"
           id="polyline272"
           transform="translate(34,30)" />
        <polyline
           stroke="#000000"
           stroke-opacity="1"
           fill="none"
           stroke-linecap="round"
           stroke-width="3.39673"
           points="1929.384277,1016.434814 2035.814453,770.986450 2482.449463,669.123657 2549.587402,969.522583 2211.593994,1205.029907"
           id="polyline274"
           transform="translate(34,30)" />
        <polyline
           stroke="#000000"
           stroke-opacity="1"
           fill="none"
           stroke-linecap="round"
           stroke-width="2.89453"
           points="1792.577148,1151.697876 1751.760620,1151.182251"
           id="polyline276"
           transform="translate(34,30)" />
        <polyline
           stroke="#000000"
           stroke-opacity="1"
           fill="none"
           stroke-linecap="round"
           stroke-width="2.89453"
           points="2024.313843,860.511353 2012.622803,887.473145"
           id="polyline278"
           transform="translate(34,30)" />
        <polyline
           stroke="#000000"
           stroke-opacity="1"
           fill="none"
           stroke-linecap="round"
           stroke-width="2.89429"
           points="2012.622803,887.473145 2038.603394,829.876221"
           id="polyline280"
           transform="translate(34,30)" />
        <polyline
           stroke="#000000"
           stroke-opacity="1"
           fill="none"
           stroke-linecap="round"
           stroke-width="2.87598"
           points="1951.344849,1031.110718 2010.203857,895.370605"
           id="polyline282"
           transform="translate(34,30)" />
        <polyline
           stroke="#000000"
           stroke-opacity="1"
           fill="none"
           stroke-linecap="round"
           stroke-width="2.87598"
           points="2010.203857,895.370605 1981.132812,960.094971"
           id="polyline284"
           transform="translate(34,30)" />
        <polyline
           stroke="#000000"
           stroke-opacity="1"
           fill="none"
           stroke-linecap="round"
           stroke-width="3.39697"
           points="1911.786011,1038.721069 1933.594971,1056.552856 2172.986084,1216.532959"
           id="polyline286"
           transform="translate(34,30)" />
        <polyline
           stroke="#000000"
           stroke-opacity="1"
           fill="none"
           stroke-linecap="round"
           stroke-width="2.89453"
           points="1932.003906,660.647217 1942.647217,680.465454"
           id="polyline288"
           transform="translate(34,30)" />
        <polyline
           stroke="#000000"
           stroke-opacity="1"
           fill="none"
           stroke-linecap="round"
           stroke-width="2.89453"
           points="1942.647217,680.465454 1896.015259,595.342407"
           id="polyline290"
           transform="translate(34,30)" />
        <polyline
           stroke="#000000"
           stroke-opacity="1"
           fill="none"
           stroke-linecap="round"
           stroke-width="2.87598"
           points="1998.431030,786.044189 1946.077515,688.560181"
           id="polyline292"
           transform="translate(34,30)" />
        <polyline
           stroke="#000000"
           stroke-opacity="1"
           fill="none"
           stroke-linecap="round"
           stroke-width="2.87598"
           points="1946.077515,688.560181 1983.359131,756.272461"
           id="polyline294"
           transform="translate(34,30)" />
        <polyline
           stroke="#000000"
           stroke-opacity="1"
           fill="none"
           stroke-linecap="round"
           stroke-width="3.39697"
           points="1867.399536,493.971558 1567.597900,522.555298 1642.189209,619.542603 1896.015259,595.342407 1867.399536,493.971558"
           id="polyline296"
           transform="translate(34,30)" />
        <polyline
           stroke="#000000"
           stroke-opacity="1"
           fill="none"
           stroke-linecap="round"
           stroke-width="3.39697"
           points="1867.399536,493.971558 2009.967651,759.438477"
           id="polyline298"
           transform="translate(34,30)" />
        <polyline
           stroke="#000000"
           stroke-opacity="1"
           fill="none"
           stroke-linecap="round"
           stroke-width="3.39697"
           points="2035.814453,770.986450 2038.603394,829.876221 2416.745361,743.634277 2473.587402,997.966187 2549.587402,969.522583"
           id="polyline300"
           transform="translate(34,30)" />
        <polyline
           stroke="#000000"
           stroke-opacity="1"
           fill="none"
           stroke-linecap="round"
           stroke-width="2.94678"
           points="1578.326050,1659.621094 1577.541748,1595.752563"
           id="polyline302"
           transform="translate(34,30)" />
        <polyline
           stroke="#000000"
           stroke-opacity="1"
           fill="none"
           stroke-linecap="round"
           stroke-width="2.87598"
           points="1588.964844,1583.069336 1590.771362,1730.208252 1506.866821,1834.395752"
           id="polyline304"
           transform="translate(34,30)" />
        <polyline
           stroke="#000000"
           stroke-opacity="1"
           fill="none"
           stroke-linecap="round"
           stroke-width="3.39697"
           points="1506.866821,1834.395752 1503.637451,1571.393799"
           id="polyline306"
           transform="translate(34,30)" />
        <polyline
           stroke="#000000"
           stroke-opacity="1"
           fill="none"
           stroke-linecap="round"
           stroke-width="3.39697"
           points="2271.016357,1930.940063 2158.178467,2028.672852 1506.866821,1834.395752"
           id="polyline308"
           transform="translate(34,30)" />
        <polyline
           stroke="#000000"
           stroke-opacity="1"
           fill="none"
           stroke-linecap="round"
           stroke-width="2.89111"
           points="2154.389160,1888.437622 2170.352539,2005.064453"
           id="polyline310"
           transform="translate(34,30)" />
        <polyline
           stroke="#000000"
           stroke-opacity="1"
           fill="none"
           stroke-linecap="round"
           stroke-width="3.39722"
           points="2158.178467,2028.672852 2142.202393,1894.692261 1590.771362,1730.208252"
           id="polyline312"
           transform="translate(34,30)" />
        <polyline
           stroke="#000000"
           stroke-opacity="1"
           fill="none"
           stroke-linecap="round"
           stroke-width="2.87598"
           points="2176.000244,1865.418823 2142.202393,1894.692261"
           id="polyline314"
           transform="translate(34,30)" />
        <polyline
           stroke="#000000"
           stroke-opacity="1"
           fill="none"
           stroke-linecap="round"
           stroke-width="2.95483"
           points="2299.005859,1768.331543 2325.112305,1833.684326"
           id="polyline316"
           transform="translate(34,30)" />
        <polyline
           stroke="#000000"
           stroke-opacity="1"
           fill="none"
           stroke-linecap="round"
           stroke-width="3.39673"
           points="2291.711914,1910.825928 2255.258057,1794.917725 1911.496216,1557.865967"
           id="polyline318"
           transform="translate(34,30)" />
        <polyline
           stroke="#000000"
           stroke-opacity="1"
           fill="none"
           stroke-linecap="round"
           stroke-width="2.87598"
           points="2384.476074,1645.968994 2255.258057,1794.917725"
           id="polyline320"
           transform="translate(34,30)" />
        <polyline
           stroke="#000000"
           stroke-opacity="1"
           fill="none"
           stroke-linecap="round"
           stroke-width="3.04956"
           points="2453.104492,1622.425903 2467.709229,1639.530640"
           id="polyline322"
           transform="translate(34,30)" />
        <polyline
           stroke="#000000"
           stroke-opacity="1"
           fill="none"
           stroke-linecap="round"
           stroke-width="3.39673"
           points="2478.623291,1696.499390 2413.505859,1613.458740 2589.960449,1429.882812 2675.953857,1057.236084 2788.608398,1039.528076"
           id="polyline324"
           transform="translate(34,30)" />
        <polyline
           stroke="#000000"
           stroke-opacity="1"
           fill="none"
           stroke-linecap="round"
           stroke-width="3.02783"
           points="2641.956543,1341.873779 2672.252686,1351.502930"
           id="polyline326"
           transform="translate(34,30)" />
        <polyline
           stroke="#000000"
           stroke-opacity="1"
           fill="none"
           stroke-linecap="round"
           stroke-width="2.92969"
           points="2673.112061,1052.226807 2751.555420,1039.205078"
           id="polyline328"
           transform="translate(34,30)" />
        <polyline
           stroke="#000000"
           stroke-opacity="1"
           fill="none"
           stroke-linecap="round"
           stroke-width="2.87598"
           points="2522.047852,1023.213013 2675.953857,1057.236084"
           id="polyline330"
           transform="translate(34,30)" />
        <polyline
           stroke="#000000"
           stroke-opacity="1"
           fill="none"
           stroke-linecap="round"
           stroke-width="2.87598"
           points="2413.505859,1613.458740 2167.416016,1379.227051"
           id="polyline332"
           transform="translate(34,30)" />
        <polyline
           stroke="#000000"
           stroke-opacity="1"
           fill="none"
           stroke-linecap="round"
           stroke-width="3.04883"
           points="1563.486572,1469.980225 1575.041992,1327.537964"
           id="polyline334"
           transform="translate(34,30)" />
        <polyline
           stroke="#000000"
           stroke-opacity="1"
           fill="none"
           stroke-linecap="round"
           stroke-width="2.87598"
           points="1588.745361,1483.445557 1605.181274,1280.840210 1523.886475,1303.633545"
           id="polyline336"
           transform="translate(34,30)" />
        <polyline
           stroke="#000000"
           stroke-opacity="1"
           fill="none"
           stroke-linecap="round"
           stroke-width="2.90088"
           points="2438.078857,821.770020 2458.035156,911.061279"
           id="polyline338"
           transform="translate(34,30)" />
        <polyline
           stroke="#000000"
           stroke-opacity="1"
           fill="none"
           stroke-linecap="round"
           stroke-width="2.88745"
           points="2443.660400,548.132690 2427.020752,652.730713"
           id="polyline340"
           transform="translate(34,30)" />
        <polyline
           stroke="#000000"
           stroke-opacity="1"
           fill="none"
           stroke-linecap="round"
           stroke-width="2.8877"
           points="2427.020752,652.730713 2447.392578,517.363647 2518.647705,401.868408"
           id="polyline342"
           transform="translate(34,30)" />
        <polyline
           stroke="#000000"
           stroke-opacity="1"
           fill="none"
           stroke-linecap="round"
           stroke-width="3.39697"
           points="2518.647705,401.868408 2480.686768,640.491089"
           id="polyline344"
           transform="translate(34,30)" />
        <polyline
           stroke="#000000"
           stroke-opacity="1"
           fill="none"
           stroke-linecap="round"
           stroke-width="3.39697"
           points="2482.449463,669.123657 2416.745361,743.634277"
           id="polyline346"
           transform="translate(34,30)" />
        <polyline
           stroke="#000000"
           stroke-opacity="1"
           fill="none"
           stroke-linecap="round"
           stroke-width="3.39697"
           points="1892.754883,481.354492 2149.370117,213.546631 2518.647705,401.868408"
           id="polyline348"
           transform="translate(34,30)" />
        <polyline
           stroke="#000000"
           stroke-opacity="1"
           fill="none"
           stroke-linecap="round"
           stroke-width="2.92212"
           points="2053.399902,431.377441 2053.320312,335.279907"
           id="polyline350"
           transform="translate(34,30)" />
        <polyline
           stroke="#000000"
           stroke-opacity="1"
           fill="none"
           stroke-linecap="round"
           stroke-width="3.39697"
           points="2149.370117,213.546631 2134.744873,357.921631 2447.392578,517.363647"
           id="polyline352"
           transform="translate(34,30)" />
        <polyline
           stroke="#000000"
           stroke-opacity="1"
           fill="none"
           stroke-linecap="round"
           stroke-width="2.87598"
           points="1937.189697,564.093384 2134.744873,357.921631"
           id="polyline354"
           transform="translate(34,30)" />
        <polyline
           stroke="#000000"
           stroke-opacity="1"
           fill="none"
           stroke-linecap="round"
           stroke-width="2.97314"
           points="1566.319824,759.279541 1521.505127,722.915405"
           id="polyline356"
           transform="translate(34,30)" />
        <polyline
           stroke="#000000"
           stroke-opacity="1"
           fill="none"
           stroke-linecap="round"
           stroke-width="3.39697"
           points="1514.884399,1275.502563 1369.745605,1027.106567 1567.597900,522.555298"
           id="polyline358"
           transform="translate(34,30)" />
        <polyline
           stroke="#000000"
           stroke-opacity="1"
           fill="none"
           stroke-linecap="round"
           stroke-width="3.03052"
           points="1476.941528,1098.106567 1448.307861,1095.283569"
           id="polyline360"
           transform="translate(34,30)" />
        <polyline
           stroke="#000000"
           stroke-opacity="1"
           fill="none"
           stroke-linecap="round"
           stroke-width="3.39722"
           points="1369.745605,1027.106567 1474.678345,1046.719482 1642.189209,619.542603"
           id="polyline362"
           transform="translate(34,30)" />
        <polyline
           stroke="#000000"
           stroke-opacity="1"
           fill="none"
           stroke-linecap="round"
           stroke-width="2.87598"
           points="1581.696167,1229.874023 1474.678345,1046.719482"
           id="polyline364"
           transform="translate(34,30)" />
        <polyline
           stroke="#000000"
           stroke-opacity="1"
           fill="none"
           stroke-linecap="round"
           stroke-width="3.104"
           points="2153.218018,1610.123535 2153.309082,1610.260132 2159.372070,1607.049072 2160.036865,1605.604248"
           id="polyline366"
           transform="translate(34,30)" />
        <polyline
           stroke="#000000"
           stroke-opacity="1"
           fill="none"
           stroke-linecap="round"
           stroke-width="3.10205"
           points="1852.091675,1735.734375 1852.103149,1735.745972 1848.268677,1739.937988 1846.250977,1741.895020"
           id="polyline368"
           transform="translate(34,30)" />
        <polyline
           stroke="#000000"
           stroke-opacity="1"
           fill="none"
           stroke-linecap="round"
           stroke-width="3.10742"
           points="2038.274902,1432.207520 2038.400757,1432.154663 2040.556274,1427.665283 2042.042847,1424.919189"
           id="polyline370"
           transform="translate(34,30)" />
        <polyline
           stroke="#000000"
           stroke-opacity="1"
           fill="none"
           stroke-linecap="round"
           stroke-width="3.10425"
           points="1855.436157,1327.118042 1855.312378,1327.107910 1859.851074,1323.212891 1861.625732,1318.531006 1862.156250,1317.906738"
           id="polyline372"
           transform="translate(34,30)" />
        <polyline
           stroke="#000000"
           stroke-opacity="1"
           fill="none"
           stroke-linecap="round"
           stroke-width="3.10645"
           points="1656.632446,1531.380371 1656.598633,1531.401367 1651.388794,1528.006104 1650.775146,1526.332764"
           id="polyline374"
           transform="translate(34,30)" />
        <polyline
           stroke="#000000"
           stroke-opacity="1"
           fill="none"
           stroke-linecap="round"
           stroke-width="3.10425"
           points="1853.051636,1327.566284 1853.124390,1327.545898 1847.007812,1324.218506 1844.942505,1320.367676"
           id="polyline376"
           transform="translate(34,30)" />
        <polyline
           stroke="#000000"
           stroke-opacity="1"
           fill="none"
           stroke-linecap="round"
           stroke-width="3.10547"
           points="2459.628906,1296.205566 2459.591309,1296.263428 2451.358887,1296.380371 2451.274658,1296.386475"
           id="polyline378"
           transform="translate(34,30)" />
        <polyline
           stroke="#000000"
           stroke-opacity="1"
           fill="none"
           stroke-linecap="round"
           stroke-width="2.89429"
           points="2457.519531,1024.805298 2436.348633,1039.521729 2433.910156,1044.255981 2431.839355,1047.363159"
           id="polyline380"
           transform="translate(34,30)" />
        <polyline
           stroke="#000000"
           stroke-opacity="1"
           fill="none"
           stroke-linecap="round"
           stroke-width="3.10522"
           points="2243.711670,944.204590 2243.701416,944.266357 2241.702881,949.079590 2240.486572,951.770142"
           id="polyline382"
           transform="translate(34,30)" />
        <polyline
           stroke="#000000"
           stroke-opacity="1"
           fill="none"
           stroke-linecap="round"
           stroke-width="3.10767"
           points="1812.822144,1114.663330 1812.918091,1114.577393 1820.974609,1113.812378"
           id="polyline384"
           transform="translate(34,30)" />
        <polyline
           stroke="#000000"
           stroke-opacity="1"
           fill="none"
           stroke-linecap="round"
           stroke-width="3.10425"
           points="1847.168091,1312.824585 1847.193604,1312.897949 1854.835815,1310.987549 1857.207764,1310.831421"
           id="polyline386"
           transform="translate(34,30)" />
        <polyline
           stroke="#000000"
           stroke-opacity="1"
           fill="none"
           stroke-linecap="round"
           stroke-width="3.10742"
           points="1996.897583,883.745605 1996.834717,883.795776 1995.500610,888.617188 1994.877808,891.692017"
           id="polyline388"
           transform="translate(34,30)" />
        <polyline
           stroke="#000000"
           stroke-opacity="1"
           fill="none"
           stroke-linecap="round"
           stroke-width="3.10547"
           points="2228.775146,938.784668 2228.797363,938.879028 2227.515137,943.576904 2226.522217,946.676636"
           id="polyline390"
           transform="translate(34,30)" />
        <polyline
           stroke="#000000"
           stroke-opacity="1"
           fill="none"
           stroke-linecap="round"
           stroke-width="3.10498"
           points="2187.368652,550.293335 2187.556152,550.228149 2189.659912,554.816772 2190.433350,558.062622"
           id="polyline392"
           transform="translate(34,30)" />
        <polyline
           stroke="#000000"
           stroke-opacity="1"
           fill="none"
           stroke-linecap="round"
           stroke-width="3.10742"
           points="1954.814575,670.121460 1954.867798,670.106934 1958.745117,674.169312 1960.231689,676.510742"
           id="polyline394"
           transform="translate(34,30)" />
        <polyline
           stroke="#000000"
           stroke-opacity="1"
           fill="none"
           stroke-linecap="round"
           stroke-width="3.10571"
           points="1719.402954,872.156616 1719.360840,872.249146 1721.583496,876.745117 1721.417236,882.015137 1717.664307,886.450439 1715.721069,888.244019"
           id="polyline396"
           transform="translate(34,30)" />
        <polyline
           stroke="#000000"
           stroke-opacity="1"
           fill="none"
           stroke-linecap="round"
           stroke-width="3.1062"
           points="2054.388672,1428.289551 2053.907471,1429.013794 2048.939209,1432.833496 2042.927979,1436.429321 2039.641968,1437.310913"
           id="polyline398"
           transform="translate(34,30)" />
        <polyline
           stroke="#000000"
           stroke-opacity="1"
           fill="none"
           stroke-linecap="round"
           stroke-width="3.11328"
           points="1639.564209,1535.786377 1639.655762,1535.933105 1649.213867,1538.045288 1656.924805,1537.229736"
           id="polyline400"
           transform="translate(34,30)" />
        <polyline
           stroke="#000000"
           stroke-opacity="1"
           fill="none"
           stroke-linecap="round"
           stroke-width="2.89453"
           points="2069.173340,1400.599365 2046.049927,1414.745483 2035.631348,1421.119141"
           id="polyline402"
           transform="translate(34,30)" />
        <polyline
           stroke="#000000"
           stroke-opacity="1"
           fill="none"
           stroke-linecap="round"
           stroke-width="2.89453"
           points="2027.667236,1425.991333 1999.754639,1443.067139"
           id="polyline404"
           transform="translate(34,30)" />
        <polyline
           stroke="#000000"
           stroke-opacity="1"
           fill="none"
           stroke-linecap="round"
           stroke-width="2.89429"
           points="2427.791992,1045.469482 2412.957031,1055.781738 2394.656738,1068.502686"
           id="polyline406"
           transform="translate(34,30)" />
        <polyline
           stroke="#000000"
           stroke-opacity="1"
           fill="none"
           stroke-linecap="round"
           stroke-width="2.89478"
           points="1991.658447,905.505371 1975.025879,943.760254"
           id="polyline408"
           transform="translate(34,30)" />
        <polyline
           stroke="#000000"
           stroke-opacity="1"
           fill="none"
           stroke-linecap="round"
           stroke-width="2.89404"
           points="1956.149170,679.990967 1968.306396,702.753662 1976.642700,718.361816"
           id="polyline410"
           transform="translate(34,30)" />
        <polyline
           stroke="#000000"
           stroke-opacity="1"
           fill="none"
           stroke-linecap="round"
           stroke-width="2.90039"
           points="2459.851318,863.779663 2468.981689,904.452148"
           id="polyline412"
           transform="translate(34,30)" />
        <path
           id="polyline414"
           style="fill:none;stroke:#000000;stroke-width:3.10449;stroke-linecap:round"
           d="m 2364.6038,1857.3544 -22.3189,-50.9733"
           sodipodi:nodetypes="cc" />
      </g>
    </g>
  </g>
</svg>
