<?xml version="1.0" encoding="UTF-8" standalone="no"?>
<!-- Created with Inkscape (http://www.inkscape.org/) -->

<svg
   width="1541.4091"
   height="685"
   viewBox="0 0 407.83083 181.23959"
   version="1.1"
   id="svg5"
   xml:space="preserve"
   inkscape:version="1.3 (0e150ed6c4, 2023-07-21)"
   sodipodi:docname="principle.svg"
   inkscape:export-filename="design_for_manufacturing_principle.pdf"
   inkscape:export-xdpi="400"
   inkscape:export-ydpi="400"
   xmlns:inkscape="http://www.inkscape.org/namespaces/inkscape"
   xmlns:sodipodi="http://sodipodi.sourceforge.net/DTD/sodipodi-0.dtd"
   xmlns="http://www.w3.org/2000/svg"
   xmlns:svg="http://www.w3.org/2000/svg"><sodipodi:namedview
     id="namedview7"
     pagecolor="#121212"
     bordercolor="#666666"
     borderopacity="1.0"
     inkscape:showpageshadow="2"
     inkscape:pageopacity="0.0"
     inkscape:pagecheckerboard="0"
     inkscape:deskcolor="#d1d1d1"
     inkscape:document-units="mm"
     showgrid="false"
     showguides="true"
     inkscape:zoom="0.577049"
     inkscape:cx="886.40653"
     inkscape:cy="105.71026"
     inkscape:window-width="1920"
     inkscape:window-height="1043"
     inkscape:window-x="0"
     inkscape:window-y="0"
     inkscape:window-maximized="1"
     inkscape:current-layer="g1" /><defs
     id="defs2" /><g
     inkscape:label="Layer 1"
     inkscape:groupmode="layer"
     id="layer1"
     transform="translate(-110.38983,-97.746201)"><g
       id="g1"
       transform="matrix(2.2987927,0,0,2.2987927,14.554958,3.8197031)"><path
         style="font-size:3.52778px;line-height:1.25;font-family:Roboto;-inkscape-font-specification:Roboto;fill:#ffffff;stroke-width:0.264583"
         d="m 133.89205,113.22298 h -0.80615 v 2.23587 h -0.32901 v -2.23587 h -0.80443 v -0.27216 h 1.93959 z m 0.66835,2.23587 h -0.31867 v -1.8638 h 0.31867 z m -0.34451,-2.35817 q 0,-0.0775 0.0465,-0.13092 0.0482,-0.0534 0.14125,-0.0534 0.093,0 0.14125,0.0534 0.0482,0.0534 0.0482,0.13092 0,0.0775 -0.0482,0.12919 -0.0482,0.0517 -0.14125,0.0517 -0.093,0 -0.14125,-0.0517 -0.0465,-0.0517 -0.0465,-0.12919 z m 1.15411,0.49437 0.009,0.20671 q 0.20499,-0.24116 0.55294,-0.24116 0.39102,0 0.53227,0.29972 0.093,-0.13436 0.24115,-0.21704 0.14987,-0.0827 0.35313,-0.0827 0.61322,0 0.62356,0.6494 v 1.24885 h -0.31867 v -1.2299 q 0,-0.19982 -0.0913,-0.298 -0.0913,-0.0999 -0.30661,-0.0999 -0.17742,0 -0.29456,0.1068 -0.11713,0.10507 -0.13608,0.28422 v 1.23679 h -0.32039 v -1.22129 q 0,-0.40652 -0.39791,-0.40652 -0.3135,0 -0.42892,0.26699 v 1.36082 h -0.31867 v -1.8638 z m 3.56568,1.89825 q -0.37897,0 -0.61668,-0.24805 -0.23771,-0.24977 -0.23771,-0.66663 v -0.0586 q 0,-0.27733 0.10508,-0.49437 0.10679,-0.21877 0.29627,-0.34107 0.19121,-0.12402 0.41342,-0.12402 0.36345,0 0.56499,0.23943 0.20154,0.23944 0.20154,0.68558 v 0.13263 h -1.26263 q 0.007,0.27561 0.1602,0.44614 0.15503,0.16881 0.39274,0.16881 0.16881,0 0.28594,-0.0689 0.11714,-0.0689 0.20499,-0.18259 l 0.19465,0.15159 q -0.23427,0.36001 -0.7028,0.36001 z m -0.0396,-1.67087 q -0.19293,0 -0.32384,0.14124 -0.13092,0.13953 -0.16192,0.39275 h 0.93362 v -0.0241 q -0.0138,-0.24288 -0.13091,-0.37552 -0.11714,-0.13435 -0.31695,-0.13435 z"
         id="text815-2"
         aria-label="Time" /><path
         style="fill:none;stroke:#ffffff;stroke-width:0.282222;stroke-linecap:butt;stroke-linejoin:miter;stroke-dasharray:none;stroke-opacity:1"
         d="M 75.570717,42.017506 V 109.3598 H 199.9014"
         id="path374" /><path
         id="rect576"
         style="fill:#f47ea6;stroke:#fefefe;stroke-width:0.176389;stroke-linecap:round;stroke-miterlimit:10"
         d="M 76.858521,54.898842 H 99.974937 V 108.07202 H 76.858521 Z" /><path
         id="rect598-7"
         style="fill:#35b996;stroke:#fefefe;stroke-width:0.176389;stroke-linecap:round;stroke-miterlimit:10"
         d="m 170.34007,47.309063 h 23.48578 v 60.762957 h -23.48578 z" /><path
         id="rect743"
         style="fill:#f47ea6;stroke:#ffffff;stroke-width:0.176389;stroke-linecap:round;stroke-miterlimit:10"
         transform="scale(-1,1)"
         d="m -66.301086,70.041542 h 5.33359 v 5.333591 h -5.33359 z" /><path
         id="rect759"
         style="fill:#35b996;stroke:#ffffff;stroke-width:0.176389;stroke-linecap:round;stroke-miterlimit:10"
         transform="scale(-1,1)"
         d="m -66.301086,79.207695 h 5.33359 v 5.333591 h -5.33359 z" /><g
         id="text815-2-1-6"
         style="font-size:3.52778px;line-height:1;fill:#ffffff;stroke-width:0.264583"
         aria-label="Impact of&#10;Change"><path
           style="font-family:Roboto;-inkscape-font-specification:Roboto;text-align:end;text-anchor:end"
           d="m 44.323686,72.133133 h -0.33073 v -2.508031 h 0.33073 z m 0.854384,-1.863798 0.0086,0.206706 q 0.204983,-0.241157 0.552938,-0.241157 0.391018,0 0.532267,0.299724 0.09302,-0.134359 0.241157,-0.217042 0.149862,-0.08268 0.353123,-0.08268 0.613227,0 0.623562,0.649401 v 1.248848 h -0.318671 v -1.2299 q 0,-0.199816 -0.0913,-0.298001 -0.09129,-0.09991 -0.306614,-0.09991 -0.177422,0 -0.294556,0.106798 -0.117133,0.105076 -0.136081,0.284221 v 1.23679 h -0.320394 v -1.221287 q 0,-0.406522 -0.397909,-0.406522 -0.313504,0 -0.428915,0.266995 v 1.360814 h -0.318671 v -1.863798 z m 4.366661,0.95257 q 0,0.425469 -0.194648,0.685574 -0.194648,0.260105 -0.5271,0.260105 -0.339342,0 -0.53399,-0.215319 v 0.897448 h -0.318671 v -2.580378 h 0.29111 l 0.0155,0.206706 q 0.194648,-0.241157 0.540881,-0.241157 0.335897,0 0.530545,0.253215 0.19637,0.253214 0.19637,0.704522 z m -0.318671,-0.03617 q 0,-0.315226 -0.134359,-0.497817 -0.134359,-0.18259 -0.368626,-0.18259 -0.289388,0 -0.434082,0.25666 v 0.890558 q 0.142972,0.254937 0.437528,0.254937 0.229099,0 0.363457,-0.180868 0.136082,-0.18259 0.136082,-0.54088 z m 1.874133,0.947402 q -0.02756,-0.05512 -0.04479,-0.196371 -0.222208,0.230822 -0.530545,0.230822 -0.275607,0 -0.45303,-0.155029 -0.1757,-0.156752 -0.1757,-0.396187 0,-0.29111 0.220486,-0.451308 0.222209,-0.161919 0.623563,-0.161919 h 0.310059 v -0.146417 q 0,-0.167087 -0.09991,-0.265272 -0.09991,-0.09991 -0.294556,-0.09991 -0.170532,0 -0.285943,0.08613 -0.115411,0.08613 -0.115411,0.208429 h -0.320394 q 0,-0.139527 0.09819,-0.268718 0.09991,-0.130914 0.268718,-0.206706 0.170532,-0.07579 0.373793,-0.07579 0.322117,0 0.504707,0.16192 0.18259,0.160197 0.18948,0.442695 v 0.857829 q 0,0.25666 0.06546,0.408244 v 0.02756 z M 50.57137,71.890254 q 0.149862,0 0.284221,-0.07752 0.134359,-0.07751 0.194648,-0.201538 V 71.22879 h -0.24977 q -0.585666,0 -0.585666,0.342787 0,0.149862 0.09991,0.234267 0.09991,0.08441 0.25666,0.08441 z m 2.044666,0.01722 q 0.170532,0 0.298001,-0.103353 0.127468,-0.103353 0.141249,-0.258382 h 0.301446 q -0.0086,0.160197 -0.110243,0.304891 -0.101631,0.144694 -0.272163,0.230821 -0.16881,0.08613 -0.35829,0.08613 -0.380683,0 -0.606337,-0.253215 -0.223932,-0.254937 -0.223932,-0.69591 v -0.0534 q 0,-0.272162 0.09991,-0.484036 0.09991,-0.211873 0.285943,-0.329007 0.187758,-0.117133 0.442695,-0.117133 0.313504,0 0.52021,0.187758 0.208428,0.187758 0.222209,0.487481 h -0.301446 q -0.01378,-0.180867 -0.137804,-0.296278 -0.122301,-0.117133 -0.303169,-0.117133 -0.242879,0 -0.377238,0.1757 -0.132636,0.173977 -0.132636,0.504706 v 0.06029 q 0,0.322116 0.132636,0.496094 0.132636,0.173977 0.378961,0.173977 z m 1.531345,-2.089452 v 0.451308 h 0.347955 v 0.246325 h -0.347955 v 1.15583 q 0,0.111966 0.04651,0.16881 0.04651,0.05512 0.158475,0.05512 0.05512,0 0.151584,-0.02067 v 0.258382 q -0.125746,0.03445 -0.244602,0.03445 -0.213596,0 -0.322117,-0.129191 -0.10852,-0.129191 -0.10852,-0.366903 v -1.15583 h -0.339342 v -0.246325 h 0.339342 V 69.81802 Z m 1.508953,1.365982 q 0,-0.273886 0.106798,-0.492649 0.108521,-0.218764 0.299724,-0.33762 0.192925,-0.118856 0.43925,-0.118856 0.380683,0 0.61495,0.26355 0.235989,0.26355 0.235989,0.701077 v 0.02239 q 0,0.272162 -0.105075,0.489203 -0.103353,0.215319 -0.298001,0.335897 -0.192926,0.120579 -0.444418,0.120579 -0.378961,0 -0.61495,-0.26355 -0.234267,-0.26355 -0.234267,-0.697632 z m 0.320394,0.0379 q 0,0.310058 0.142972,0.497816 0.144694,0.187758 0.385851,0.187758 0.242879,0 0.385851,-0.18948 0.142971,-0.191203 0.142971,-0.53399 0,-0.306614 -0.146416,-0.496095 -0.144694,-0.191202 -0.385851,-0.191202 -0.235989,0 -0.380683,0.187757 -0.144695,0.187758 -0.144695,0.537436 z m 1.9327,0.911228 V 70.51566 h -0.294556 v -0.246325 h 0.294556 v -0.191203 q 0,-0.299723 0.160197,-0.463365 0.160197,-0.163643 0.453031,-0.163643 0.110243,0 0.218763,0.02928 l -0.01723,0.258382 q -0.08096,-0.0155 -0.172255,-0.0155 -0.155029,0 -0.239434,0.0913 -0.08441,0.08957 -0.08441,0.258383 v 0.19637 h 0.397909 V 70.51566 H 58.2281 v 1.617473 z"
           id="path3" /><path
           style="font-family:Roboto;-inkscape-font-specification:Roboto;text-align:end;text-anchor:end"
           d="m 48.919446,74.987703 q -0.04651,0.397909 -0.294556,0.61495 -0.246324,0.215319 -0.656291,0.215319 -0.444418,0 -0.713135,-0.318672 -0.266995,-0.318671 -0.266995,-0.852662 v -0.241156 q 0,-0.349678 0.124023,-0.61495 0.125746,-0.265273 0.354845,-0.406522 0.229099,-0.142971 0.530545,-0.142971 0.399632,0 0.640788,0.223931 0.241157,0.222209 0.280776,0.616672 h -0.332452 q -0.04306,-0.299723 -0.187758,-0.434082 -0.142971,-0.134359 -0.401354,-0.134359 -0.316949,0 -0.497816,0.234267 -0.179145,0.234267 -0.179145,0.666626 v 0.24288 q 0,0.408244 0.170532,0.649401 0.170532,0.241157 0.477146,0.241157 0.275608,0 0.422024,-0.124024 0.14814,-0.125746 0.196371,-0.435805 z m 0.720025,-0.842326 q 0.211874,-0.260105 0.551216,-0.260105 0.590834,0 0.596002,0.666626 v 1.231623 h -0.318672 v -1.233345 q -0.0017,-0.201538 -0.09302,-0.298001 -0.08957,-0.09646 -0.280776,-0.09646 -0.155029,0 -0.272163,0.08268 -0.117133,0.08268 -0.18259,0.217042 v 1.328085 H 49.3208 v -2.645835 h 0.318671 z m 2.775027,1.638144 q -0.02756,-0.05512 -0.04479,-0.196371 -0.222208,0.230822 -0.530545,0.230822 -0.275607,0 -0.45303,-0.15503 -0.1757,-0.156752 -0.1757,-0.396186 0,-0.291111 0.220486,-0.451308 0.222209,-0.161919 0.623563,-0.161919 h 0.310059 v -0.146417 q 0,-0.167087 -0.09991,-0.265273 -0.09991,-0.09991 -0.294556,-0.09991 -0.170532,0 -0.285943,0.08613 -0.115411,0.08613 -0.115411,0.208429 h -0.320394 q 0,-0.139527 0.09819,-0.268718 0.09991,-0.130914 0.268718,-0.206706 0.170532,-0.07579 0.373793,-0.07579 0.322117,0 0.504707,0.161919 0.18259,0.160198 0.18948,0.442696 v 0.857829 q 0,0.25666 0.06546,0.408244 v 0.02756 z m -0.528823,-0.24288 q 0.149862,0 0.284221,-0.07751 0.134359,-0.07752 0.194648,-0.201539 v -0.382405 h -0.24977 q -0.585666,0 -0.585666,0.342787 0,0.149862 0.09991,0.234266 0.09991,0.0844 0.25666,0.0844 z m 1.598525,-1.620918 0.01034,0.234266 q 0.213596,-0.268717 0.558105,-0.268717 0.590835,0 0.596002,0.666626 v 1.231623 h -0.318671 v -1.233345 q -0.0017,-0.201538 -0.09302,-0.298001 -0.08957,-0.09646 -0.280775,-0.09646 -0.15503,0 -0.272163,0.08268 -0.117133,0.08268 -0.18259,0.217042 v 1.328085 h -0.318672 v -1.863798 z m 1.569242,0.916396 q 0,-0.435805 0.201539,-0.692465 0.201538,-0.258382 0.53399,-0.258382 0.341064,0 0.532267,0.241157 l 0.0155,-0.206706 h 0.291111 v 1.819011 q 0,0.361736 -0.215319,0.570164 -0.213596,0.208429 -0.575331,0.208429 -0.201538,0 -0.394464,-0.08613 -0.192925,-0.08613 -0.294555,-0.235989 l 0.165364,-0.191203 q 0.204984,0.253215 0.501262,0.253215 0.232544,0 0.361735,-0.130914 0.130914,-0.130914 0.130914,-0.368626 v -0.160197 q -0.191203,0.220487 -0.521932,0.220487 -0.327285,0 -0.530545,-0.26355 -0.201539,-0.26355 -0.201539,-0.718303 z m 0.320394,0.03617 q 0,0.315227 0.129192,0.496094 0.129191,0.179146 0.361735,0.179146 0.301446,0 0.442695,-0.273886 v -0.850939 q -0.146417,-0.266995 -0.43925,-0.266995 -0.232544,0 -0.363458,0.180868 -0.130914,0.180867 -0.130914,0.535712 z m 2.508032,0.94568 q -0.378961,0 -0.616673,-0.248047 -0.237711,-0.24977 -0.237711,-0.666627 v -0.05857 q 0,-0.277331 0.105075,-0.494372 0.106798,-0.218764 0.296279,-0.341065 0.191202,-0.124023 0.413411,-0.124023 0.363458,0 0.564996,0.239434 0.201538,0.239434 0.201538,0.685575 v 0.132636 h -1.262628 q 0.0069,0.275608 0.160197,0.44614 0.15503,0.16881 0.392741,0.16881 0.16881,0 0.285943,-0.0689 0.117134,-0.0689 0.204984,-0.18259 l 0.194648,0.151584 q -0.234267,0.360013 -0.7028,0.360013 z m -0.03962,-1.670873 q -0.192925,0 -0.323839,0.141249 -0.130914,0.139527 -0.16192,0.392741 h 0.933622 v -0.02411 q -0.01378,-0.24288 -0.130914,-0.375516 -0.117133,-0.134359 -0.316949,-0.134359 z"
           id="path4" /></g><g
         id="text951-3"
         style="font-size:3.52778px;line-height:1;fill:#ffffff;stroke-width:0.264583"
         aria-label="Cost of&#10;Change"><path
           style="font-family:Roboto;-inkscape-font-specification:Roboto;text-align:end;text-anchor:end"
           d="m 49.460854,80.273267 q -0.04651,0.397908 -0.294556,0.61495 -0.246325,0.215318 -0.656291,0.215318 -0.444418,0 -0.713136,-0.318671 -0.266995,-0.318672 -0.266995,-0.852662 v -0.241157 q 0,-0.349677 0.124024,-0.61495 0.125746,-0.265272 0.354845,-0.406521 0.229099,-0.142972 0.530545,-0.142972 0.399631,0 0.640788,0.223931 0.241157,0.222209 0.280776,0.616673 h -0.332452 q -0.04306,-0.299724 -0.187758,-0.434082 -0.142972,-0.134359 -0.401354,-0.134359 -0.316949,0 -0.497817,0.234266 -0.179145,0.234267 -0.179145,0.666627 v 0.242879 q 0,0.408244 0.170533,0.649401 0.170532,0.241157 0.477146,0.241157 0.275607,0 0.422024,-0.124024 0.148139,-0.125746 0.196371,-0.435804 z m 0.316948,-0.153307 q 0,-0.273886 0.106799,-0.492649 0.10852,-0.218764 0.299723,-0.33762 0.192926,-0.118856 0.43925,-0.118856 0.380683,0 0.61495,0.26355 0.235989,0.26355 0.235989,0.701078 v 0.02239 q 0,0.272163 -0.105075,0.489204 -0.103353,0.215318 -0.298001,0.335897 -0.192926,0.120578 -0.444418,0.120578 -0.378961,0 -0.61495,-0.26355 -0.234267,-0.26355 -0.234267,-0.697632 z m 0.320395,0.0379 q 0,0.310059 0.142971,0.497816 0.144694,0.187758 0.385851,0.187758 0.242879,0 0.385851,-0.18948 0.142972,-0.191203 0.142972,-0.53399 0,-0.306614 -0.146417,-0.496094 -0.144694,-0.191203 -0.385851,-0.191203 -0.235989,0 -0.380683,0.187758 -0.144694,0.187757 -0.144694,0.537435 z m 2.861154,0.416857 q 0,-0.129192 -0.09819,-0.199816 -0.09646,-0.07235 -0.339342,-0.124024 -0.241157,-0.05168 -0.384128,-0.124023 -0.141249,-0.07235 -0.210151,-0.172255 -0.06718,-0.09991 -0.06718,-0.237712 0,-0.229099 0.192926,-0.387573 0.194648,-0.158475 0.496094,-0.158475 0.316949,0 0.513319,0.163642 0.198094,0.163643 0.198094,0.41858 h -0.320394 q 0,-0.130914 -0.111966,-0.225654 -0.110243,-0.09474 -0.279053,-0.09474 -0.173978,0 -0.272163,0.07579 -0.09818,0.07579 -0.09818,0.198093 0,0.115411 0.09129,0.173977 0.0913,0.05857 0.329007,0.111966 0.239434,0.0534 0.387573,0.127469 0.14814,0.07407 0.218764,0.179145 0.07235,0.103353 0.07235,0.253215 0,0.249769 -0.199816,0.401353 -0.199815,0.149862 -0.518487,0.149862 -0.223931,0 -0.396186,-0.07924 -0.172255,-0.07924 -0.27044,-0.220486 -0.09646,-0.142972 -0.09646,-0.308337 h 0.318672 q 0.0086,0.160197 0.127468,0.254938 0.120579,0.09302 0.316949,0.09302 0.180868,0 0.289388,-0.07235 0.110244,-0.07407 0.110244,-0.19637 z m 1.166165,-1.820734 v 0.451307 h 0.347955 v 0.246325 h -0.347955 v 1.15583 q 0,0.111966 0.04651,0.16881 0.04651,0.05512 0.158474,0.05512 0.05512,0 0.151584,-0.02067 v 0.258382 q -0.125746,0.03445 -0.244602,0.03445 -0.213596,0 -0.322116,-0.129191 -0.108521,-0.129191 -0.108521,-0.366903 v -1.15583 h -0.339342 v -0.246325 h 0.339342 v -0.451307 z m 1.508952,1.365981 q 0,-0.273886 0.106798,-0.492649 0.108521,-0.218764 0.299724,-0.33762 0.192925,-0.118856 0.43925,-0.118856 0.380683,0 0.61495,0.26355 0.235989,0.26355 0.235989,0.701078 v 0.02239 q 0,0.272163 -0.105076,0.489204 -0.103352,0.215318 -0.298,0.335897 -0.192926,0.120578 -0.444418,0.120578 -0.378961,0 -0.61495,-0.26355 -0.234267,-0.26355 -0.234267,-0.697632 z m 0.320394,0.0379 q 0,0.310059 0.142972,0.497816 0.144694,0.187758 0.385851,0.187758 0.242879,0 0.385851,-0.18948 0.142971,-0.191203 0.142971,-0.53399 0,-0.306614 -0.146416,-0.496094 -0.144694,-0.191203 -0.385851,-0.191203 -0.235989,0 -0.380683,0.187758 -0.144695,0.187757 -0.144695,0.537435 z m 1.9327,0.911228 v -1.617473 h -0.294556 v -0.246325 h 0.294556 v -0.191203 q 0,-0.299723 0.160197,-0.463365 0.160197,-0.163642 0.453031,-0.163642 0.110243,0 0.218763,0.02928 l -0.01722,0.258382 q -0.08096,-0.0155 -0.172255,-0.0155 -0.155029,0 -0.239434,0.0913 -0.0844,0.08957 -0.0844,0.258383 v 0.19637 h 0.397909 v 0.246325 h -0.397909 v 1.617473 z"
           id="path1" /><path
           style="font-family:Roboto;-inkscape-font-specification:Roboto;text-align:end;text-anchor:end"
           d="m 48.89758,83.923654 q -0.04651,0.397909 -0.294556,0.61495 -0.246324,0.215319 -0.656291,0.215319 -0.444418,0 -0.713135,-0.318672 -0.266995,-0.318671 -0.266995,-0.852661 v -0.241157 q 0,-0.349678 0.124023,-0.61495 0.125746,-0.265273 0.354845,-0.406522 0.229099,-0.142971 0.530545,-0.142971 0.399632,0 0.640789,0.223931 0.241156,0.222209 0.280775,0.616673 h -0.332452 q -0.04306,-0.299724 -0.187758,-0.434083 -0.142971,-0.134358 -0.401354,-0.134358 -0.316949,0 -0.497816,0.234266 -0.179145,0.234267 -0.179145,0.666627 v 0.242879 q 0,0.408244 0.170532,0.649401 0.170532,0.241157 0.477146,0.241157 0.275608,0 0.422025,-0.124024 0.148139,-0.125746 0.19637,-0.435805 z m 0.720025,-0.842326 q 0.211874,-0.260105 0.551216,-0.260105 0.590834,0 0.596002,0.666627 v 1.231622 h -0.318672 v -1.233345 q -0.0017,-0.201538 -0.09302,-0.298001 -0.08957,-0.09646 -0.280776,-0.09646 -0.155029,0 -0.272162,0.08268 -0.117134,0.08268 -0.182591,0.217041 v 1.328085 h -0.318671 v -2.645835 h 0.318671 z m 2.775027,1.638144 q -0.02756,-0.05512 -0.04479,-0.196371 -0.222209,0.230822 -0.530545,0.230822 -0.275608,0 -0.453031,-0.155029 -0.1757,-0.156752 -0.1757,-0.396187 0,-0.29111 0.220487,-0.451308 0.222208,-0.161919 0.623562,-0.161919 h 0.310059 v -0.146417 q 0,-0.167087 -0.09991,-0.265272 -0.09991,-0.09991 -0.294556,-0.09991 -0.170532,0 -0.285943,0.08613 -0.115411,0.08613 -0.115411,0.208429 H 51.22646 q 0,-0.139527 0.09819,-0.268718 0.09991,-0.130914 0.268717,-0.206706 0.170533,-0.07579 0.373793,-0.07579 0.322117,0 0.504707,0.16192 0.18259,0.160197 0.189481,0.442695 v 0.857829 q 0,0.25666 0.06546,0.408244 v 0.02756 z m -0.528823,-0.242879 q 0.149862,0 0.284221,-0.07751 0.134359,-0.07752 0.194648,-0.201538 v -0.382406 h -0.24977 q -0.585666,0 -0.585666,0.342787 0,0.149862 0.09991,0.234267 0.09991,0.0844 0.256659,0.0844 z m 1.598525,-1.620919 0.01034,0.234267 q 0.213596,-0.268718 0.558106,-0.268718 0.590834,0 0.596001,0.666627 v 1.231622 H 54.30811 v -1.233345 q -0.0017,-0.201538 -0.09302,-0.298001 -0.08957,-0.09646 -0.280775,-0.09646 -0.15503,0 -0.272163,0.08268 -0.117133,0.08268 -0.18259,0.217041 v 1.328085 H 53.16089 v -1.863798 z m 1.569242,0.916396 q 0,-0.435805 0.201539,-0.692465 0.201538,-0.258382 0.53399,-0.258382 0.341065,0 0.532267,0.241157 l 0.0155,-0.206706 h 0.291111 v 1.819012 q 0,0.361735 -0.215318,0.570163 -0.213597,0.208429 -0.575332,0.208429 -0.201538,0 -0.394463,-0.08613 -0.192926,-0.08613 -0.294556,-0.235989 l 0.165364,-0.191203 q 0.204984,0.253215 0.501262,0.253215 0.232544,0 0.361735,-0.130914 0.130914,-0.130914 0.130914,-0.368625 v -0.160197 q -0.191203,0.220486 -0.521932,0.220486 -0.327285,0 -0.530545,-0.26355 -0.201539,-0.26355 -0.201539,-0.718303 z m 0.320395,0.03617 q 0,0.315226 0.129191,0.496094 0.129191,0.179145 0.361735,0.179145 0.301446,0 0.442695,-0.273886 v -0.850939 q -0.146417,-0.266995 -0.43925,-0.266995 -0.232544,0 -0.363458,0.180868 -0.130913,0.180868 -0.130913,0.535713 z m 2.508031,0.945679 q -0.378961,0 -0.616672,-0.248047 -0.237712,-0.24977 -0.237712,-0.666627 v -0.05857 q 0,-0.277331 0.105075,-0.494372 0.106798,-0.218763 0.296279,-0.341064 0.191203,-0.124024 0.413411,-0.124024 0.363458,0 0.564996,0.239434 0.201539,0.239435 0.201539,0.685575 v 0.132636 h -1.262629 q 0.0069,0.275608 0.160197,0.44614 0.15503,0.16881 0.392742,0.16881 0.168809,0 0.285943,-0.0689 0.117133,-0.0689 0.204983,-0.18259 l 0.194648,0.151584 q -0.234267,0.360013 -0.7028,0.360013 z m -0.03962,-1.670872 q -0.192925,0 -0.323839,0.141249 -0.130913,0.139526 -0.161919,0.392741 h 0.933621 v -0.02412 q -0.01378,-0.242879 -0.130914,-0.375516 -0.117133,-0.134358 -0.316949,-0.134358 z"
           id="path2" /></g><path
         id="rect594-6"
         style="fill:#f47ea6;fill-opacity:1;stroke:#fefefe;stroke-width:0.176389;stroke-linecap:round;stroke-miterlimit:10;stroke-dasharray:none;stroke-opacity:1"
         d="m 101.2002,59.629501 v 48.442539 h 22.21764 V 80.627185 C 112.08718,72.98894 101.2002,59.629501 101.2002,59.629501 Z"
         sodipodi:nodetypes="ccccccc" /><path
         id="rect598-7-2"
         style="fill:#f47ea6;fill-opacity:1;stroke:#fefefe;stroke-width:0.176389;stroke-linecap:round;stroke-miterlimit:10;stroke-dasharray:none;stroke-opacity:1"
         d="m 193.82588,106.40858 c -10.41853,-0.0819 -20.14803,-2.51701 -23.48591,-3.44425 v 5.10771 h 23.48591 z"
         sodipodi:nodetypes="ccccccc" /><path
         id="rect598-5"
         style="fill:#35b996;fill-opacity:1;stroke:#fefefe;stroke-width:0.176389;stroke-linecap:round;stroke-miterlimit:10;stroke-dasharray:none;stroke-opacity:1"
         d="m 169.11473,54.898543 c 0,0 -10.82482,14.086557 -21.39404,22.747965 -0.004,0.0034 -0.008,0.0064 -0.0124,0.0098 v 30.415732 h 21.40645 z"
         sodipodi:nodetypes="cccscccc" /><path
         id="rect596-7"
         style="fill:#f47ea6;fill-opacity:1;stroke:#fefefe;stroke-width:0.176389;stroke-linecap:round;stroke-miterlimit:10;stroke-dasharray:none;stroke-opacity:1"
         d="m 124.64297,81.454513 v 26.617517 h 21.84001 V 94.524516 c -9.4346,-4.590819 -12.05964,-6.464662 -21.84001,-13.070003 z"
         sodipodi:nodetypes="ccccc" /><path
         id="rect596-3"
         style="fill:#35b996;fill-opacity:1;stroke:#fefefe;stroke-width:0.176389;stroke-linecap:round;stroke-miterlimit:10;stroke-dasharray:none;stroke-opacity:1"
         d="m 146.48298,78.650553 c -7.79285,6.28343 -12.74827,9.245644 -21.84001,14.232723 v 15.188754 h 21.84001 z"
         sodipodi:nodetypes="ccccc" /><path
         id="rect594-0"
         style="fill:#35b996;fill-opacity:1;stroke:#fefefe;stroke-width:0.176389;stroke-linecap:round;stroke-miterlimit:10;stroke-dasharray:none;stroke-opacity:1"
         d="m 123.41791,93.555076 c -8.99726,4.917826 -19.5806,7.593334 -19.5806,7.593334 0,0 -0.8463,0.2904 -2.63705,0.68419 v 6.23944 h 22.21765 z"
         sodipodi:nodetypes="cccccc" /><path
         id="rect576-7-2"
         style="fill:#35b996;fill-opacity:1;stroke:#fefefe;stroke-width:0.176389;stroke-linecap:round;stroke-miterlimit:10;stroke-dasharray:none;stroke-opacity:1"
         d="m 76.858478,103.99838 v 4.07366 h 23.11642 v -5.98674 c -4.045306,0.79249 -11.448248,1.81417 -23.11642,1.91308 z"
         sodipodi:nodetypes="ccccccc" /><path
         id="rect598-8"
         style="fill:#f47ea6;fill-opacity:1;stroke:#fefefe;stroke-width:0.176389;stroke-linecap:round;stroke-miterlimit:10;stroke-dasharray:none;stroke-opacity:1"
         d="m 147.70829,95.119332 v 12.952708 h 21.40645 v -5.46222 c 0,0 -10.4917,-2.2322 -21.40645,-7.490488 z"
         sodipodi:nodetypes="ccccc" /><path
         id="path428"
         style="fill:#121212;stroke:#ffffff;stroke-width:0.3;stroke-linecap:round;stroke-miterlimit:10"
         d="m 76.579217,42.017509 a 1.0084542,1.0084542 0 0 1 -1.008454,1.008455 1.0084542,1.0084542 0 0 1 -1.008455,-1.008455 1.0084542,1.0084542 0 0 1 1.008455,-1.008454 1.0084542,1.0084542 0 0 1 1.008454,1.008454 z" /><path
         id="path428-36"
         style="fill:#121212;stroke:#ffffff;stroke-width:0.3;stroke-linecap:round;stroke-miterlimit:10"
         d="m 76.438104,109.50091 a 1.0084542,1.0084542 0 0 1 -1.008455,1.00845 1.0084542,1.0084542 0 0 1 -1.008454,-1.00845 1.0084542,1.0084542 0 0 1 1.008454,-1.00846 1.0084542,1.0084542 0 0 1 1.008455,1.00846 z" /><path
         id="path428-7"
         style="fill:#121212;stroke:#ffffff;stroke-width:0.3;stroke-linecap:round;stroke-miterlimit:10"
         d="m 200.91,109.35979 a 1.0084542,1.0084542 0 0 1 -1.00845,1.00845 1.0084542,1.0084542 0 0 1 -1.00845,-1.00845 1.0084542,1.0084542 0 0 1 1.00845,-1.00846 1.0084542,1.0084542 0 0 1 1.00845,1.00846 z" /></g></g></svg>
